<svg width="675" height="675" viewBox="0 0 675 675" fill="none" xmlns="http://www.w3.org/2000/svg">
<g clip-path="url(#clip0_15_10)">
<path d="M332.564 672.201C330.052 672.201 327.841 670.552 327.124 668.144C326.406 665.741 327.352 663.151 329.448 661.773L472.487 567.846L297.442 668.893C294.785 670.339 291.466 669.444 289.885 666.865C288.31 664.285 289.027 660.925 291.524 659.214L440.362 563.893L268.234 663.24C265.551 664.722 262.17 663.807 260.605 661.17C259.034 658.533 259.84 655.126 262.43 653.478L279.733 642.878L250.941 659.5C248.258 661.014 244.856 660.109 243.275 657.467C241.699 654.82 242.511 651.397 245.111 649.754L321.065 602.951L233.581 653.467C230.908 654.892 227.584 653.972 226.029 651.371C224.474 648.776 225.234 645.411 227.751 643.731L343.22 572.256L214.176 646.717C211.508 648.126 208.206 647.2 206.656 644.616C205.101 642.031 205.84 638.687 208.336 636.991L386.231 525.833L193.815 636.913C191.137 638.343 187.803 637.418 186.253 634.802C184.703 632.191 185.483 628.821 188.021 627.151L288.752 565.459L178.4 629.164C175.716 630.677 172.315 629.772 170.734 627.13C169.153 624.488 169.969 621.066 172.57 619.417L321.86 527.425L162.672 619.371C159.994 620.801 156.665 619.875 155.11 617.259C153.561 614.648 154.341 611.278 156.879 609.614L245.361 555.723L149.925 610.794C147.257 612.219 143.934 611.299 142.379 608.698C140.818 606.098 141.578 602.738 144.1 601.058L344.13 477.216L133.626 598.786C130.937 600.268 127.561 599.352 125.991 596.716C124.425 594.079 125.231 590.677 127.816 589.024L302.045 481.98L120.265 586.943C117.565 588.55 114.081 587.671 112.474 584.972C110.867 582.278 111.751 578.794 114.445 577.186L287.524 471.011L106.982 575.221C104.303 576.651 100.969 575.725 99.4196 573.109C97.8697 570.498 98.6447 567.128 101.188 565.459L238.433 481.818L96.9232 563.508C94.2395 565.016 90.8434 564.117 89.2623 561.475C87.6812 558.827 88.4978 555.405 91.0982 553.757L308.671 419.543L84.4619 549.008C81.7627 550.605 78.2781 549.71 76.6814 547.011C75.0848 544.307 75.9793 540.822 78.6786 539.225L197.43 467.095L74.8975 537.832C72.2191 539.303 68.8541 538.398 67.2835 535.777C65.7128 533.156 66.493 529.76 69.057 528.096L325.111 369.126L63.6585 520.06C61.911 521.09 59.7422 521.106 57.9791 520.107C56.2109 519.103 55.1135 517.241 55.0979 515.208C55.0823 513.179 56.1484 511.297 57.9011 510.267L73.9406 500.635L57.4799 510.121C54.791 511.578 51.4313 510.652 49.8762 508.02C48.3212 505.394 49.1221 501.998 51.6965 500.349L200.633 409.615L49.3301 496.974C46.6361 498.575 43.1463 497.691 41.5444 494.992C39.9426 492.293 40.8267 488.808 43.526 487.201L203.952 389.326L42.6158 482.489C39.927 483.987 36.5256 483.067 34.9602 480.414C33.3947 477.756 34.232 474.339 36.8481 472.706L77.5552 448.179L37.7894 471.115C35.111 472.592 31.7512 471.682 30.1754 469.061C28.6047 466.439 29.39 463.048 31.9489 461.379L277.799 308.864L29.7437 452.075C27.0549 453.609 23.6275 452.699 22.0464 450.036C20.4654 447.368 21.3131 443.93 23.9499 442.302L129.725 378.124L25.4062 438.339C22.7277 439.769 19.394 438.838 17.8441 436.228C16.2943 433.617 17.0692 430.247 19.6124 428.577L156.457 345.15L21.62 423.002C18.9363 424.546 15.5089 423.657 13.9175 421.005C12.3208 418.347 13.1478 414.904 15.769 413.261L266.528 256.725L16.2579 401.221C13.5742 402.765 10.1469 401.881 8.5502 399.224C6.95874 396.571 7.78047 393.128 10.4069 391.485L264.984 231.787L13.4442 377.011C10.7658 378.508 7.38521 377.614 5.79895 374.988C4.21789 372.361 5.00322 368.949 7.57764 367.285L254.031 212.19L11.4523 352.255C8.78424 353.721 5.42969 352.821 3.85383 350.216C2.27797 347.605 3.03729 344.219 5.58051 342.539L240.862 193.998L11.7695 326.255C9.10149 327.701 5.76254 326.791 4.19708 324.191C2.63162 321.59 3.39095 318.215 5.91857 316.53L181.068 207.281L13.2466 304.183C10.5629 305.728 7.13557 304.844 5.54411 302.186C3.94744 299.533 4.77438 296.091 7.39561 294.447L161.627 198.2L16.9964 281.7C14.3284 283.187 10.9582 282.303 9.37194 279.687C7.78567 277.076 8.5502 273.675 11.1038 271.995L194.658 155.132L22.6653 254.432C19.9713 256.039 16.4867 255.155 14.8796 252.461C13.2726 249.761 14.1567 246.277 16.8508 244.67L44.5037 227.684L28.8023 236.775C26.1239 238.247 22.7641 237.342 21.1883 234.72C19.6176 232.099 20.403 228.703 22.9618 227.039L71.2465 197.087L35.3918 217.755C32.7342 219.196 29.4108 218.306 27.835 215.727C26.2591 213.147 26.9768 209.782 29.4733 208.076L151.574 129.294L49.7982 188.058C47.125 189.587 43.7184 188.703 42.1217 186.066C40.5251 183.435 41.3208 180.007 43.9108 178.343L81.4038 154.596L63.3048 165.05C60.6472 166.563 57.2666 165.695 55.6648 163.089C54.0577 160.483 54.8066 157.077 57.355 155.381L115.932 116.921L85.2576 134.645C82.6884 135.904 79.5835 135.056 78.0077 132.664C76.437 130.277 76.8895 127.089 79.0634 125.227L136.632 82.0544C134.271 81.654 132.414 79.8181 131.987 77.4621C131.561 75.1009 132.663 72.7293 134.739 71.5331L204.04 31.4033C206.646 29.9002 209.964 30.6856 211.623 33.1924C213.277 35.7044 212.694 39.0641 210.291 40.8688L161.445 77.5089L282.219 7.81739C284.872 6.37675 288.185 7.2557 289.771 9.82492C291.352 12.3941 290.655 15.7539 288.174 17.4754L229.571 55.9253L317.928 4.93091C320.602 3.40186 324.008 4.28601 325.605 6.92284C327.202 9.55448 326.406 12.9818 323.816 14.6461L286.084 38.5076L345.243 4.37442C347.911 2.85577 351.302 3.73472 352.899 6.35075C354.501 8.97198 353.731 12.3889 351.162 14.0688L229.093 92.815L378.404 6.60039C380.146 5.56022 382.315 5.52381 384.089 6.51198C385.862 7.49494 386.975 9.35684 387.006 11.3852C387.037 13.4135 385.987 15.3066 384.245 16.352L336.007 46.2673L397.892 10.5322C400.57 9.0812 403.914 10.0018 405.474 12.6178C407.04 15.2338 406.26 18.6144 403.706 20.2838L376.225 37.1762L415.991 14.2248C418.674 12.597 422.164 13.4499 423.797 16.1336C425.425 18.8172 424.567 22.3122 421.888 23.94L238.308 140.803L442.811 22.7335C445.495 21.1888 448.928 22.0781 450.519 24.7306C452.116 27.3882 451.289 30.8312 448.662 32.4747L294.296 128.795L464.421 30.5867C467.089 29.1825 470.392 30.1031 471.941 32.6879C473.496 35.2727 472.758 38.6169 470.262 40.3123L295.06 149.588L484.091 40.5152C486.759 39.0485 490.113 39.9483 491.689 42.5539C493.265 45.1595 492.506 48.5505 489.962 50.2304L254.78 198.704L506.928 53.0701C509.611 51.4474 513.106 52.3107 514.724 54.9944C516.346 57.6832 515.488 61.173 512.799 62.7957L266.258 217.916L527.57 67.0448C530.248 65.5469 533.629 66.4415 535.21 69.0679C536.796 71.6943 536.006 75.1061 533.431 76.7704L278.776 236.572L546.418 82.0544C549.086 80.645 552.388 81.5707 553.938 84.1556C555.493 86.7404 554.755 90.0845 552.258 91.78L301.613 248.237L563.482 97.0381C566.176 95.5038 569.603 96.414 571.184 99.0768C572.765 101.745 571.917 105.183 569.275 106.811L432.404 190.237L574.097 108.433C576.796 106.837 580.286 107.726 581.882 110.43C583.484 113.13 582.59 116.619 579.89 118.216L474.048 182.441L583.411 119.298C585.154 118.252 587.317 118.221 589.091 119.204C590.864 120.192 591.977 122.049 592.014 124.077C592.045 126.111 590.994 128.004 589.252 129.044L343.366 281.559L596.991 135.145C599.68 133.647 603.081 134.567 604.646 137.22C606.212 139.878 605.375 143.295 602.759 144.928L562.031 169.47L604.069 145.234C606.753 143.752 610.128 144.668 611.699 147.304C613.264 149.936 612.458 153.343 609.873 154.996L449.677 252.705L612.453 158.731C615.131 157.3 618.465 158.231 620.015 160.842C621.565 163.453 620.785 166.823 618.247 168.493L469.071 259.383L620.618 171.899C623.323 170.308 626.807 171.208 628.404 173.912C629.995 176.616 629.096 180.101 626.391 181.692L610.305 191.35L626.735 181.874C628.472 180.834 630.64 180.798 632.414 181.786C634.187 182.769 635.3 184.631 635.332 186.659C635.368 188.688 634.312 190.581 632.575 191.626L376.506 350.58L634.936 201.352C637.62 199.89 640.98 200.816 642.54 203.448C644.095 206.079 643.289 209.47 640.72 211.119L521.74 283.38L640.605 214.765C643.284 213.314 646.628 214.234 648.193 216.85C649.754 219.466 648.973 222.847 646.42 224.516L428.998 358.683L647.444 232.572C650.123 231.137 653.457 232.068 655.006 234.679C656.556 237.295 655.781 240.665 653.238 242.329L515.925 326.006L651.205 247.931C653.883 246.48 657.232 247.4 658.793 250.016C660.353 252.632 659.573 256.013 657.024 257.677L483.794 363.92L655.35 264.859C658.028 263.408 661.377 264.329 662.938 266.945C664.498 269.561 663.718 272.941 661.169 274.606L487.227 381.494L659.157 282.23C661.84 280.722 665.242 281.622 666.823 284.264C668.404 286.911 667.587 290.333 664.987 291.982L465.024 415.819L660.863 302.763C663.541 301.328 666.875 302.259 668.425 304.87C669.974 307.486 669.194 310.856 666.656 312.52L578.174 366.396L662.09 317.965C664.774 316.452 668.175 317.352 669.756 319.999C671.332 322.641 670.521 326.063 667.92 327.712L518.525 419.741L663.042 336.257C665.731 334.769 669.106 335.685 670.677 338.321C672.242 340.958 671.436 344.365 668.851 346.014L568.402 407.524L661.908 353.591C664.586 352.119 667.946 353.024 669.522 355.646C671.093 358.267 670.307 361.663 667.748 363.327L489.817 474.48L660.363 376.022C663.037 374.592 666.355 375.513 667.915 378.113C669.47 380.714 668.711 384.073 666.193 385.758L550.568 457.322L656.452 396.186C659.151 394.579 662.641 395.458 664.248 398.152C665.855 400.846 664.976 404.336 662.282 405.948L586.319 452.766L652.728 414.431C655.412 412.949 658.793 413.864 660.358 416.501C661.929 419.138 661.117 422.544 658.533 424.193L641.182 434.818L647.808 431.001C650.471 429.534 653.815 430.423 655.396 433.019C656.978 435.614 656.239 438.994 653.717 440.69L504.962 535.98L638.046 459.163C640.714 457.567 644.168 458.409 645.801 461.056C647.434 463.699 646.638 467.168 644.012 468.832L500.973 562.77L621.097 493.338C623.765 491.82 627.156 492.693 628.758 495.315C630.354 497.936 629.585 501.348 627.015 503.027L562.608 544.634L603.294 521.142C605.936 519.571 609.348 520.393 610.992 522.994C612.635 525.589 611.912 529.027 609.364 530.743L538.783 579.334L571.153 560.643C572.916 559.524 575.147 559.462 576.968 560.476C578.793 561.495 579.906 563.43 579.88 565.516C579.854 567.601 578.684 569.505 576.832 570.472L420.547 660.702C417.904 662.215 414.545 661.373 412.922 658.803C411.299 656.229 411.991 652.838 414.488 651.101L485.001 602.556L369.292 669.361C366.634 670.849 363.269 669.97 361.678 667.369C360.087 664.769 360.83 661.378 363.363 659.682L427.864 618.086L335.45 671.488C334.566 671.977 333.573 672.227 332.564 672.201Z" fill="#6495ED"/>
<path d="M434.589 17.179C306.622 -18.7694 169.371 21.5997 81.2478 121.102C-15.9875 233.753 -27.0653 397.112 54.0681 521.855C137.214 644.87 290.671 699.563 432.878 656.869C575.085 614.17 673.033 483.998 674.666 335.529C673.006 188.282 575.704 59.2591 434.589 17.179ZM294.842 659.625C134.863 634.708 16.6115 497.385 15.7118 335.482C15.9406 144.735 187.512 -12.1799 379.132 15.7487C540.967 39.3138 654.408 179.56 658.226 339.892C653.68 530.504 489.864 687.538 294.811 659.625H294.842Z" fill="#262626"/>
<path d="M540.5 325.5H351V132.352C351 124.592 317.399 125.955 317.399 132.352V325.5H120C112.708 325.5 108.912 354.5 120 354.5H317.399V541.363C317.399 549.123 351 547.76 351 541.363V354.5H540.5C547.792 354.5 551.588 325.5 540.5 325.5Z" fill="#262626"/>
</g>
<defs>
<clipPath id="clip0_15_10">
<rect width="674.667" height="674.667" fill="white"/>
</clipPath>
</defs>
</svg>
