<svg id="icons" height="512" viewBox="0 0 60 60" width="512" xmlns="http://www.w3.org/2000/svg"><path d="m10.479 59.47a.5.5 0 0 1 -.259-.928l4.552-2.748-6.251 3.606a.5.5 0 0 1 -.509-.86l12-7.288-14.112 8.148a.5.5 0 0 1 -.511-.858l22.658-13.933-25.097 14.491a.5.5 0 0 1 -.507-.862l4.028-2.414-4.449 2.567a.5.5 0 0 1 -.511-.859l25.889-15.898-26.1 15.066a.5.5 0 0 1 -.508-.861l8.131-4.883-7.643 4.411a.5.5 0 0 1 -.51-.859l24.156-14.773-23.647 13.653a.5.5 0 0 1 -.512-.859l28.2-17.375-27.688 15.985a.5.5 0 0 1 -.511-.86l25.578-15.679-25.068 14.472a.5.5 0 0 1 -.509-.859l21.431-13.049-20.922 12.076a.5.5 0 0 1 -.507-.861l7.347-4.409-6.84 3.948a.5.5 0 0 1 -.507-.86l12.889-7.773-12.383 7.149a.5.5 0 0 1 -.51-.86l23.451-14.33-22.941 13.244a.5.5 0 0 1 -.508-.86l13.848-8.372-13.34 7.7a.5.5 0 0 1 -.51-.859l19.233-11.76-18.724 10.811a.5.5 0 0 1 -.512-.858l20.55-12.677-20.038 11.569a.5.5 0 0 1 -.509-.86l9.927-6.04-9.418 5.438a.5.5 0 0 1 -.511-.859l13.606-8.367-13.1 7.561a.5.5 0 0 1 -.509-.86l4.979-3.03-4.47 2.58a.5.5 0 0 1 -.511-.858l7.43-4.555-6.915 3.992a.5.5 0 0 1 -.512-.858l8.437-5.21-7.925 4.573a.5.5 0 0 1 -.521-.852l16.163-10.432-15.643 9.03a.5.5 0 0 1 -.519-.853l11.77-7.549-11.251 6.5a.5.5 0 0 1 -.523-.852l11.17-7.3-10.648 6.144a.5.5 0 0 1 -.529-.848l10.466-7.035-9.937 5.737a.5.5 0 0 1 -.522-.852l4.384-2.854-3.862 2.229a.5.5 0 0 1 -.539-.842l7.523-5.323-6.985 4.033a.5.5 0 0 1 -.672-.166.5.5 0 0 1 .139-.679l3.187-2.186-2.654 1.531a.5.5 0 0 1 -.536-.843l1.887-1.318-1.351.779a.5.5 0 0 1 -.566-.819l3.262-2.669-2.697 1.56a.5.5 0 0 1 -.607-.783l1.989-2.037-1.382.8a.5.5 0 0 1 -.684-.68l.677-1.185a.5.5 0 0 1 -.185-.93l1.184-.685a.5.5 0 0 1 .684.681l-.575 1.003 2.928-1.684a.5.5 0 0 1 .607.782l-1.99 2.039 4.883-2.821a.5.5 0 0 1 .566.819l-3.26 2.666 6.041-3.485a.5.5 0 0 1 .537.842l-1.891 1.318 3.749-2.16a.5.5 0 0 1 .533.844l-3.175 2.177 5.24-3.021a.5.5 0 0 1 .539.841l-7.526 5.325 10.681-6.166a.5.5 0 0 1 .522.851l-4.385 2.849 6.423-3.708a.5.5 0 0 1 .529.847l-10.469 7.04 13.658-7.885a.5.5 0 0 1 .524.851l-11.161 7.292 14.107-8.144a.5.5 0 0 1 .52.853l-11.778 7.554 14.563-8.407a.5.5 0 0 1 .521.852l-16.162 10.432 19.547-11.285a.5.5 0 0 1 .513.858l-8.448 5.218 10.526-6.076a.5.5 0 0 1 .512.858l-7.4 4.54 9.353-5.4a.5.5 0 0 1 .509.859l-5.019 3.051 6.776-3.912a.5.5 0 0 1 .512.858l-13.577 8.354 15.95-9.21a.5.5 0 0 1 .51.859l-9.946 6.051 11.968-6.91a.5.5 0 0 1 .513.858l-20.545 12.677 23.44-13.536a.5.5 0 0 1 .511.859l-19.239 11.763 21.862-12.622a.5.5 0 0 1 .509.86l-13.841 8.367 14.724-8.5a.5.5 0 0 1 .511.86l-23.454 14.331 23.2-13.392a.5.5 0 0 1 .508.861l-12.9 7.78 12.389-7.156a.5.5 0 0 1 .507.861l-7.346 4.409 6.839-3.948a.5.5 0 0 1 .509.859l-21.407 13.037 20.9-12.064a.5.5 0 0 1 .511.859l-25.587 15.687 25.074-14.479a.5.5 0 0 1 .512.859l-28.2 17.375 27.688-15.985a.5.5 0 0 1 .51.86l-24.163 14.776 23.653-13.655a.5.5 0 0 1 .508.861l-8.118 4.874 7.61-4.392a.5.5 0 0 1 .511.858l-25.892 15.9 25.381-14.652a.5.5 0 0 1 .507.861l-3.966 2.378 3.459-2a.5.5 0 0 1 .511.859l-22.675 13.952 22.164-12.8a.5.5 0 0 1 .509.86l-12 7.288 11.491-6.631a.5.5 0 0 1 .509.86l-4.56 2.752 4.051-2.338a.5.5 0 0 1 .512.858l-15.8 9.742 15.288-8.829a.5.5 0 0 1 .509.859l-6.9 4.2 6.391-3.689a.5.5 0 0 1 .518.854l-19.457 12.384 18.939-10.934a.5.5 0 0 1 .519.855l-16.495 10.534 15.976-9.223a.5.5 0 0 1 .513.858l-6.087 3.777 5.574-3.218a.5.5 0 0 1 .518.855l-10.049 6.388 9.531-5.5a.5.5 0 0 1 .514.856l-3.3 2.064 2.788-1.609a.5.5 0 0 1 .528.848l-11.35 7.607 10.82-6.247a.5.5 0 0 1 .53.847l-8.58 5.8 8.05-4.647a.5.5 0 0 1 .525.85l-3.745 2.473 3.225-1.861a.5.5 0 0 1 .522.852l-.381.248a.506.506 0 0 1 .533.222.5.5 0 0 1 -.143.679l-2.292 1.563 1.761-1.016a.5.5 0 0 1 .567.819l-4.663 3.826 4.1-2.364a.5.5 0 0 1 .589.8l-2.578 2.372 1.98-1.143a.5.5 0 0 1 .626.762l-.981 1.122a.507.507 0 0 1 .638.206.5.5 0 0 1 -.183.683l-2.56 1.476a.5.5 0 0 1 -.626-.761l.975-1.117-3.254 1.878a.5.5 0 0 1 -.588-.8l2.568-2.373-5.494 3.173a.5.5 0 0 1 -.568-.819l4.664-3.827-8.048 4.646a.5.5 0 0 1 -.532-.845l2.289-1.555-4.168 2.4a.5.5 0 0 1 -.523-.851l.019-.013-1.5.864a.5.5 0 0 1 -.526-.849l3.758-2.48-5.765 3.329a.5.5 0 0 1 -.53-.846l8.578-5.8-11.51 6.646a.5.5 0 0 1 -.528-.847l11.349-7.607-14.648 8.454a.5.5 0 0 1 -.514-.856l3.3-2.064-5.057 2.92a.5.5 0 0 1 -.519-.854l10.052-6.39-12.548 7.244a.5.5 0 0 1 -.513-.857l6.085-3.776-8.026 4.633a.5.5 0 0 1 -.519-.853l16.492-10.531-19.724 11.384a.5.5 0 0 1 -.518-.854l19.457-12.378-22.922 13.232a.5.5 0 0 1 -.51-.859l6.919-4.217-8.787 5.076a.5.5 0 0 1 -.513-.858l15.8-9.739-18.358 10.597a.5.5 0 0 1 -.25.07z" fill="#e1efff"/><path d="m1.216 9.5a.5.5 0 0 1 -.3-.9l4.338-3.33-3.974 2.295a.5.5 0 0 1 -.553-.83l1.832-1.4-1.279.738a.5.5 0 0 1 -.562-.823l.592-.473-.03.017a.5.5 0 0 1 -.641-.744l1.05-1.321a.5.5 0 0 1 -.327-.929l2.049-1.18a.5.5 0 0 1 .642.744l-.993 1.248 3.49-2.012a.5.5 0 0 1 .562.823l-.591.473 2.245-1.296a.5.5 0 0 1 .553.83l-1.833 1.4 3.865-2.23a.5.5 0 0 1 .554.829l-4.338 3.327 7.204-4.156a.5.5 0 0 1 .556.827l-4.495 3.49 7.482-4.317a.5.5 0 0 1 .562.823l-4.776 3.809 8.028-4.632a.5.5 0 0 1 .547.835l-3.6 2.653 6.043-3.488a.5.5 0 0 1 .543.838l-3.148 2.277 5.4-3.115a.5.5 0 0 1 .541.839l-2.835 2.03 4.973-2.869a.5.5 0 0 1 .534.843l-1.443 1 3.192-1.843a.5.5 0 0 1 .541.839l-2.772 1.98 4.888-2.819a.5.5 0 0 1 .54.84l-2.649 1.886 4.725-2.726a.5.5 0 0 1 .531.846l-.089.06 1.571-.906a.5.5 0 0 1 .546.836l-3.458 2.533 5.839-3.369a.5.5 0 0 1 .539.84l-2.427 1.714 4.433-2.554a.5.5 0 0 1 .548.834l-3.752 2.785 6.271-3.619a.5.5 0 0 1 .541.839l-2.86 2.051 5.011-2.89a.5.5 0 0 1 .548.834l-3.773 2.804 6.306-3.638a.5.5 0 0 1 .536.842l-1.809 1.258 3.417-1.971a.5.5 0 0 1 .565.822l-4.711 3.814 5.807-3.352a.5.5 0 0 1 .568.819l-3.233 2.649 3.108-1.793a.5.5 0 0 1 .648.13.5.5 0 0 1 -.05.661l-2.11 2.05 1.523-.879a.5.5 0 0 1 .642.745l-.658.827.026-.015a.5.5 0 1 1 .5.865l-2.306 1.328a.5.5 0 0 1 -.642-.744l.659-.828-2.725 1.572a.5.5 0 0 1 -.6-.791l2.11-2.051-4.926 2.849a.5.5 0 0 1 -.567-.819l3.232-2.649-6.01 3.47a.5.5 0 0 1 -.565-.821l4.711-3.815-8.033 4.638a.5.5 0 0 1 -.536-.843l1.813-1.268-3.657 2.112a.5.5 0 0 1 -.549-.834l3.777-2.807-6.308 3.642a.5.5 0 0 1 -.541-.839l2.858-2.051-5.009 2.892a.5.5 0 0 1 -.548-.834l3.751-2.787-6.276 3.623a.5.5 0 0 1 -.539-.841l2.425-1.717-4.432 2.559a.5.5 0 0 1 -.546-.836l3.459-2.535-5.842 3.372a.5.5 0 0 1 -.53-.847l.081-.054-1.566.9a.5.5 0 0 1 -.54-.84l2.654-1.888-4.733 2.732a.5.5 0 0 1 -.541-.839l2.773-1.983-4.891 2.823a.5.5 0 0 1 -.534-.844l1.437-1-3.19 1.846a.5.5 0 0 1 -.541-.839l2.841-2.032-4.979 2.872a.5.5 0 0 1 -.543-.838l3.151-2.282-5.406 3.121a.5.5 0 0 1 -.547-.835l3.6-2.654-6.046 3.491a.5.5 0 0 1 -.561-.824l4.776-3.811-8.031 4.637a.5.5 0 0 1 -.557-.831l4.5-3.494-7.491 4.327a.491.491 0 0 1 -.25.067z" fill="#3596bc"/><path d="m20.117 47.47a.5.5 0 0 1 -.265-.924l.486-.3-2.012 1.154a.5.5 0 0 1 -.527-.848l9.6-6.408-12.57 7.256a.5.5 0 0 1 -.523-.851l7.649-5-10.128 5.851a.5.5 0 0 1 -.521-.852l6.746-4.372-9.052 5.224a.5.5 0 0 1 -.519-.854l4.09-2.605-5.539 3.2a.5.5 0 0 1 -.528-.849l9.316-6.229-10.141 5.857a.5.5 0 0 1 -.519-.855l1.7-1.084-1.548.894a.5.5 0 0 1 -.526-.849l5.442-3.617-4.949 2.859a.5.5 0 0 1 -.536-.843l6-4.193-5.466 3.154a.5.5 0 0 1 -.53-.847l1.753-1.189-1.225.706a.5.5 0 0 1 -.545-.836l2.91-2.127-2.365 1.364a.5.5 0 0 1 -.559-.825l2.156-1.7-1.6.921a.5.5 0 0 1 -.6-.789l1.676-1.652-1.077.621a.5.5 0 0 1 -.682-.683l.663-1.144a.5.5 0 0 1 -.357-.244.5.5 0 0 1 .183-.684l1.185-.678a.5.5 0 0 1 .682.684l-.551.951 2.834-1.635a.5.5 0 0 1 .647.13.5.5 0 0 1 -.046.659l-1.676 1.649 4.231-2.438a.5.5 0 0 1 .559.825l-2.158 1.7 4.376-2.525a.5.5 0 0 1 .545.836l-2.9 2.125 5.126-2.961a.5.5 0 0 1 .53.846l-1.762 1.189 3.534-2.04a.5.5 0 0 1 .536.843l-5.995 4.191 8.725-5.035a.5.5 0 0 1 .526.848l-5.447 3.621 7.741-4.469a.5.5 0 0 1 .519.854l-1.693 1.078 3.354-1.933a.5.5 0 0 1 .528.848l-9.321 6.229 12.258-7.077a.5.5 0 0 1 .518.854l-4.1 2.611 6-3.466a.5.5 0 0 1 .521.852l-6.746 4.372 9.05-5.224a.5.5 0 0 1 .523.851l-7.646 4.994 10.126-5.846a.5.5 0 0 1 .527.848l-9.6 6.41 12.572-7.258a.5.5 0 0 1 .515.856l-.478.3 2-1.157a.5.5 0 0 1 .531.846l-10.736 7.307 14.124-8.154a.5.5 0 0 1 .521.853l-5.435 3.489 7.521-4.342a.5.5 0 0 1 .52.853l-5.151 3.3 6.5-3.751a.5.5 0 0 1 .523.852l-6.845 4.462 6.9-3.985a.5.5 0 0 1 .53.847l-7.928 5.365 7.4-4.27a.5.5 0 0 1 .533.844l-5.883 4.04 5.35-3.087a.5.5 0 0 1 .541.838l-4.935 3.535 4.392-2.532a.5.5 0 0 1 .544.837l-2.817 2.048 2.273-1.311a.5.5 0 0 1 .658.144.5.5 0 0 1 -.084.669l-2.938 2.5 2.364-1.364a.5.5 0 0 1 .61.779l-1.515 1.575.81-.466a.5.5 0 1 1 .5.865l-3.866 2.224a.5.5 0 0 1 -.611-.779l1.516-1.576-4.081 2.355a.5.5 0 0 1 -.574-.813l2.936-2.5-5.732 3.313a.5.5 0 0 1 -.544-.837l2.818-2.048-5 2.885a.5.5 0 0 1 -.541-.839l4.937-3.535-7.578 4.374a.5.5 0 0 1 -.534-.844l5.879-4.036-8.457 4.88a.5.5 0 0 1 -.53-.846l7.927-5.365-10.759 6.211a.5.5 0 0 1 -.523-.851l6.843-4.461-9.2 5.312a.5.5 0 0 1 -.519-.853l5.157-3.3-7.2 4.158a.5.5 0 0 1 -.521-.853l5.428-3.485-7.521 4.333a.5.5 0 0 1 -.531-.845l10.748-7.309-14.125 8.154a.5.5 0 0 1 -.25.07z" fill="#2d83a5"/><path d="m7.013 33.5a.5.5 0 0 1 -.273-.919l14.775-9.6-16.235 9.373a.5.5 0 0 1 -.514-.857l5.08-3.165-4.566 2.636a.5.5 0 0 1 -.514-.857l3.306-2.063-2.792 1.611a.5.5 0 0 1 -.513-.857l.417-.26a.5.5 0 0 1 -.427-.9l7.582-4.941-7.059 4.079a.5.5 0 0 1 -.526-.849l6.57-4.354-6.044 3.489a.5.5 0 0 1 -.537-.841l7.331-5.154-6.794 3.922a.5.5 0 0 1 -.527-.848l1.453-.97-.926.534a.5.5 0 0 1 -.553-.83l4.621-3.528-4.068 2.349a.5.5 0 0 1 -.567-.819l2.895-2.381-2.328 1.345a.5.5 0 0 1 -.589-.8l1.437-1.321-.828.476a.5.5 0 0 1 -.61-.779l.711-.738a.5.5 0 0 1 -.033-.883l2.043-1.18a.5.5 0 0 1 .61.779l-.165.171 1.687-.97a.5.5 0 0 1 .589.8l-1.432 1.318 3.67-2.118a.5.5 0 0 1 .567.819l-2.895 2.381 5.54-3.2a.5.5 0 0 1 .554.83l-4.622 3.528 7.549-4.358a.5.5 0 0 1 .528.848l-1.45.968 3.146-1.816a.5.5 0 0 1 .537.841l-7.331 5.154 10.385-5.995a.5.5 0 0 1 .526.849l-6.575 4.351 9.019-5.2a.5.5 0 0 1 .523.851l-7.579 4.939 10.032-5.79a.5.5 0 0 1 .514.857l-.12.075 1.615-.932a.5.5 0 0 1 .515.856l-3.307 2.064 5.059-2.92a.5.5 0 0 1 .514.857l-5.085 3.168 6.971-4.025a.5.5 0 0 1 .522.851l-14.772 9.6 18.1-10.451a.5.5 0 0 1 .516.855l-9.344 5.876 11.661-6.731a.5.5 0 0 1 .522.852l-14.568 9.448 17.84-10.3a.5.5 0 0 1 .52.852l-13.697 8.821 16.759-9.673a.5.5 0 0 1 .522.851l-15.008 9.77 16.818-9.709a.5.5 0 0 1 .524.85l-14.255 9.338 14.54-8.392a.5.5 0 0 1 .52.853l-8.7 5.574 8.203-4.735a.5.5 0 0 1 .53.847l-11.333 7.664 10.807-6.239a.5.5 0 0 1 .531.846l-8.4 5.719 7.872-4.537a.5.5 0 0 1 .528.849l-4.116 2.749 3.59-2.073a.5.5 0 0 1 .528.849l-1.827 1.221 1.3-.752a.5.5 0 0 1 .529.847l-.413.279a.492.492 0 0 1 .55.2.5.5 0 0 1 -.105.674l-3.646 2.857 3.092-1.79a.5.5 0 0 1 .556.828l-1.037.8.484-.279a.5.5 0 0 1 .6.793l-1.152 1.1.559-.323a.5.5 0 0 1 .739.534l-.318 1.543a.5.5 0 0 1 .082.9l-.5.289a.5.5 0 0 1 -.739-.534l.27-1.312-3.2 1.848a.5.5 0 0 1 -.6-.794l1.154-1.1-3.287 1.9a.5.5 0 0 1 -.556-.828l1.04-.8-2.835 1.633a.5.5 0 0 1 -.559-.826l3.649-2.856-6.38 3.684a.5.5 0 0 1 -.528-.847l.225-.153-1.733 1a.5.5 0 0 1 -.528-.848l1.828-1.221-3.588 2.071a.5.5 0 0 1 -.528-.849l4.121-2.751-6.24 3.6a.5.5 0 0 1 -.531-.846l8.4-5.72-11.381 6.57a.5.5 0 0 1 -.531-.847l11.33-7.661-14.742 8.511a.5.5 0 0 1 -.519-.854l8.7-5.571-11.137 6.427a.5.5 0 0 1 -.524-.851l14.259-9.343-17.663 10.196a.5.5 0 0 1 -.522-.852l15.007-9.771-18.4 10.625a.5.5 0 0 1 -.52-.853l13.7-8.825-16.765 9.681a.5.5 0 0 1 -.523-.853l14.57-9.448-17.847 10.303a.5.5 0 0 1 -.517-.856l9.333-5.869-11.653 6.727a.494.494 0 0 1 -.25.068z" fill="#43b3d5"/><path d="m8.989 55.469a.5.5 0 0 1 -.446-.725l.833-1.659-1.935 1.115a.5.5 0 0 1 -.669-.7l.666-1.023a.5.5 0 0 1 -.373-.917l1.658-.96a.5.5 0 0 1 .669.7l-.643.987 1.574-.908a.5.5 0 0 1 .7.657l-.836 1.664.267-.154a.5.5 0 1 1 .5.865l-1.715.99a.5.5 0 0 1 -.25.068z" fill="#ec9f1b"/><path d="m9.38 43.308a.5.5 0 0 1 -.375-.831l1.465-1.663-1.19.686a.5.5 0 0 1 -.621-.768l.588-.651a.5.5 0 0 1 -.678-.645l.536-1.27a.506.506 0 0 1 -.488-.247.5.5 0 0 1 .183-.683l1.069-.617a.5.5 0 0 1 .711.627l-.51 1.206 1.413-.815a.5.5 0 0 1 .621.767l-.584.65 1.092-.631a.5.5 0 0 1 .625.764l-1.465 1.661 1.928-1.11a.5.5 0 1 1 .5.866l-4.57 2.636a.49.49 0 0 1 -.25.068z" fill="#e1efff"/><path d="m29.76 42.451a.5.5 0 0 1 -.419-.773l.785-1.2-1.592.918a.5.5 0 0 1 -.683-.683l.758-1.315-.044.025a.5.5 0 0 1 -.5-.865l1.658-.956a.491.491 0 0 1 .6.079.5.5 0 0 1 .08.6l-.755 1.319 1.79-1.034a.5.5 0 0 1 .669.707l-.784 1.2.236-.136a.5.5 0 0 1 .5.865l-2.049 1.182a.489.489 0 0 1 -.25.067z" fill="#e1efff"/><g fill="#262626"><path d="m59.568 51.415v-43.724c0-1.882.5-4.706-.989-6.186-1.457-1.452-4.227-.989-6.072-.989h-43.993c-4.605 0-8.076.029-8.082 5.562q-.021 23.511 0 47.022c-.032 2.943-.157 5.823 3.479 6.384h49.869c5.633 0 5.788-3.294 5.788-8.069zm-58-47.351c.944-3.189 3.757-2.58 6.2-2.58h40.02c6.192-.472 10.992-1.4 11.087 7.037h-57.442a13.433 13.433 0 0 1 .135-4.457zm52.39 54.452h-49.751c-3.486-.724-2.639-4.8-2.639-7.1-.058-13.982.115-27.956-.063-41.936h57.38c-.793 12.809-.351 24.009-.454 36.605.001 4.424 1.869 12.431-4.473 12.431z"/><path d="m55.591 16.064c-.744-4.433-5.363-3.523-8.746-3.523-12.878.377-25.949-.666-38.782 0-4.678.7-3.654 5.385-3.654 8.994 0 7.088-.357 14.275 0 21.353.212 4.2 2.819 4.572 6.371 4.572 13.838-.042 27.705.082 41.529-.043 4.989-1.123 3.282-8.67 3.282-12.494 0-6.003.994-12.932 0-18.859zm-50 .361c1.479-4.457 7.646-2.966 11.3-2.966h20.059c21.519-1.426 17.454-.181 17.459 19.077h-48.818c.316-5.273-.568-10.92 0-16.111zm46.241 30.116c-14.52-.084-29.152.123-43.623 0-4.271-1.365-2.767-9.447-2.632-13.077h48.832c-.526 3.363 1.846 12.236-2.577 13.077z"/><path d="m11.424 52.685c-.337-3.248-4.867-2.78-4.884.366.099 3.634 5.169 3.098 4.884-.366zm-3.964.265c-.032-1.869 2.984-1.69 3.08.1-.1 1.86-3.05 1.701-3.08-.1z"/><path d="m13.894 38.856c-1.583-1.063-5.231-4.545-5.347-.5.055 2.062-.725 7.146 2.813 4.519 1.089-.739 4.44-2.409 2.534-4.019zm-1.512 2.011c-2.041 1.525-3.341 2.567-2.929-.958.073-.564-.459-2.594.591-2.241a21.073 21.073 0 0 1 3.31 2.19c.337.349-.71.826-.972 1.009z"/><path d="m4.977 5.6c.54-.039 1.463.226 1.473-.583 0-.245-.122-.617-.427-.617-.54.039-1.463-.226-1.473.583-.001.245.122.617.427.617z"/><path d="m9.869 5.514c.577-.036 1.452.2 1.661-.532a.385.385 0 0 0 -.4-.5c-.577.036-1.452-.2-1.661.532a.385.385 0 0 0 .4.5z"/><path d="m15.042 5.448c.51-.055 1.484.235 1.555-.5-.029-.315-.386-.392-.639-.392-.51.055-1.484-.235-1.555.5.029.315.386.392.639.392z"/><path d="m48.837 5.542h6c.562 0 1.014-1.084.326-1.084h-6c-.563 0-1.014 1.084-.326 1.084z"/><path d="m14.885 51.479h3c.621 0 1.015-.958.23-.958h-3c-.621 0-1.015.958-.23.958z"/><path d="m33.2 54.507h-18c-.567 0-1.13.986-.392.986h18c.563 0 1.126-.986.392-.986z"/><path d="m49.052 39.4h-16.585c-.459-2.594-4.247-2.424-4.868 0h-8.554c-.6 0-.684 1.2-.09 1.2h8.565c.452 2.591 4.271 2.418 4.872 0h16.556c.602 0 .697-1.2.104-1.2zm-20.514.458c.051-2 2.979-1.507 2.925.3-.184 1.902-2.927 1.525-2.925-.298z"/><path d="m24.591 26.013c0-.342-.048-.914-.078-1.559h2.971c-.029.626-.075 1.183-.075 1.533 0 .644 1.182.592 1.182.026 0-2.155.78-6.434-2.512-6.469-3.405-.035-2.67 4.235-2.67 6.443 0 .644 1.182.592 1.182.026zm1.33-5.557c1.318-.03 1.579 1.554 1.584 3.09h-3.014c.001-1.508.238-3.064 1.43-3.09z"/><path d="m31.9 26.557c3.591.462 4.945-1.254 4.6-4.7-.143-2.548-2.494-2.414-4.4-2.414-.357 0-.6.426-.6.734v6a.381.381 0 0 0 .4.38zm3.52-4.884c.3 2.667.276 4.134-2.922 3.77v-4.9c1.134-.043 2.52-.097 2.924 1.13z"/></g></svg>