<svg width="28" height="28" viewBox="0 0 25 25" fill="none" xmlns="http://www.w3.org/2000/svg">
<path fill-rule="evenodd" clip-rule="evenodd" d="M2.27246 6.72536C2.27246 4.07675 4.41959 1.92963 7.06819 1.92963C9.7168 1.92963 11.8639 4.07675 11.8639 6.72536C11.8639 9.37396 9.7168 11.5211 7.06819 11.5211C4.41959 11.5211 2.27246 9.37396 2.27246 6.72536Z" fill="#6495ED" fill-opacity="0.6"/>
<path fill-rule="evenodd" clip-rule="evenodd" d="M13.3784 17.8313C13.3784 15.1826 15.5254 13.0355 18.1741 13.0355C20.8227 13.0355 22.9698 15.1826 22.9698 17.8313C22.9698 20.4799 20.8227 22.627 18.1741 22.627C15.5254 22.627 13.3784 20.4799 13.3784 17.8313Z" fill="#6495ED"/>
<path fill-rule="evenodd" clip-rule="evenodd" d="M22.9698 6.72536C22.9698 4.07675 20.8227 1.92963 18.1741 1.92963C15.5254 1.92963 13.3784 4.07675 13.3784 6.72536C13.3784 9.37396 15.5254 11.5211 18.1741 11.5211C20.8227 11.5211 22.9698 9.37396 22.9698 6.72536Z" fill="#6495ED"/>
<path fill-rule="evenodd" clip-rule="evenodd" d="M11.8639 17.8313C11.8639 15.1826 9.7168 13.0355 7.06819 13.0355C4.41959 13.0355 2.27246 15.1826 2.27246 17.8313C2.27246 20.4799 4.41959 22.627 7.06819 22.627C9.7168 22.627 11.8639 20.4799 11.8639 17.8313Z" fill="#6495ED"/>
</svg>
