<svg id="Icons" height="512" viewBox="0 0 60 60" width="512" xmlns="http://www.w3.org/2000/svg"><path d="m30.807 45.47c-.151 0-.299-.068-.397-.195-.153-.199-.135-.48.043-.658l.784-.784-2.67 1.541c-.221.13-.5.069-.651-.134-.151-.204-.126-.489.059-.663l2.927-2.756-4.25 2.454c-.225.132-.511.065-.66-.146-.148-.213-.11-.504.088-.67l3.693-3.1-3.763 2.172c-.231.135-.525.062-.67-.161s-.088-.521.128-.678l.701-.505-.215.124c-.229.132-.52.063-.666-.155-.146-.219-.097-.514.112-.675l2.797-2.142-2.318 1.338c-.229.134-.524.063-.668-.159-.146-.223-.091-.52.123-.677l1.743-1.28-1.26.727c-.229.134-.521.064-.667-.156s-.096-.516.115-.675l2.807-2.127-2.329 1.344c-.226.133-.513.065-.661-.148-.148-.214-.107-.506.094-.671l4.663-3.829-4.197 2.423c-.228.132-.516.064-.663-.15-.147-.216-.104-.509.1-.672l4.463-3.58-3.995 2.306c-.229.134-.521.064-.667-.157-.146-.22-.095-.516.116-.675l3.163-2.379-2.688 1.551c-.229.135-.521.063-.667-.157-.146-.222-.094-.518.118-.676l3.121-2.332-2.646 1.527c-.227.134-.518.064-.665-.153s-.1-.512.107-.674l4.405-3.437-3.938 2.272c-.231.134-.524.062-.669-.16-.145-.223-.09-.521.125-.677l2.551-1.855-2.075 1.197c-.231.137-.529.062-.672-.165-.144-.227-.083-.526.138-.679l.398-.275c-.215.078-.46-.003-.587-.203-.144-.225-.085-.523.134-.678l1.258-.884-.779.449c-.227.134-.518.065-.666-.154-.146-.219-.098-.514.11-.674l4.676-3.605-4.212 2.432c-.232.137-.529.062-.673-.166-.143-.227-.082-.526.14-.679l.394-.271c-.211.074-.45-.003-.578-.193-.147-.218-.1-.513.107-.674l5.223-4.069-4.764 2.75c-.231.137-.528.062-.672-.165s-.083-.525.137-.679l1.215-.843-.737.425c-.228.133-.518.064-.665-.153s-.1-.513.107-.674l5.545-4.32-5.088 2.938c-.232.137-.529.062-.673-.166-.143-.228-.081-.528.142-.68l.464-.316c-.226.119-.507.051-.65-.163-.147-.219-.099-.513.109-.674l5.652-4.367-5.196 2.999c-.228.134-.519.065-.665-.154-.146-.218-.099-.513.109-.674l5.097-3.945-4.636 2.677c-.231.134-.525.062-.669-.16-.145-.224-.089-.521.126-.678l2.129-1.544-1.651.953c-.229.134-.524.063-.668-.159-.146-.223-.091-.52.123-.677l.844-.619-.354.204c-.22.129-.499.069-.651-.134-.151-.203-.127-.487.057-.661l1.942-1.843-1.419.818c-.213.125-.485.072-.639-.118-.155-.191-.147-.467.018-.649l.815-.903c-.125-.032-.237-.113-.307-.233-.138-.239-.056-.545.183-.683l2.056-1.187c.214-.126.484-.073.639.118s.147.467-.018.649l-.5.554 2.33-1.345c.22-.129.499-.069.651.134.151.203.127.487-.057.661l-1.942 1.844 4.571-2.639c.229-.133.523-.063.669.159.145.223.091.52-.123.677l-.84.616 2.11-1.218c.228-.135.524-.062.67.16.145.224.089.521-.126.678l-2.128 1.542 2.695-1.556c.226-.134.519-.064.665.154s.099.513-.109.674l-5.099 3.947 5.237-3.023c.226-.133.52-.064.665.154.146.219.099.513-.109.674l-5.653 4.368 5.014-2.894c.234-.136.53-.061.673.166.144.228.081.528-.141.68l-.516.352c.212-.081.459-.007.592.188.146.218.1.513-.107.674l-5.546 4.321 4.883-2.819c.23-.135.528-.062.672.165s.083.525-.137.679l-1.226.851.63-.363c.226-.133.517-.064.665.153.146.218.1.513-.107.674l-5.223 4.068 4.562-2.634c.234-.136.53-.061.673.166.144.227.082.526-.14.679l-.468.321c.199-.051.423.022.544.205.146.219.099.514-.109.674l-4.679 3.607 4.027-2.325c.229-.135.526-.062.672.164.144.225.084.523-.135.678l-1.26.885.661-.381c.234-.135.528-.061.673.165.143.227.082.526-.139.679l-.473.327c.204-.056.431.022.552.21.146.223.09.521-.125.677l-2.55 1.854 1.935-1.116c.227-.134.518-.064.665.153.146.218.1.512-.107.674l-4.404 3.437 3.751-2.165c.227-.134.521-.063.668.157.146.222.094.518-.119.676l-3.123 2.334 2.496-1.44c.227-.134.521-.064.667.157.146.22.095.516-.116.675l-3.162 2.379 2.532-1.462c.225-.134.515-.065.663.15.147.216.104.509-.101.672l-4.463 3.581 3.8-2.193c.225-.132.513-.065.661.148s.107.506-.094.671l-4.662 3.828 3.987-2.302c.227-.134.52-.064.667.156.146.22.096.516-.115.675l-2.808 2.127 2.179-1.257c.229-.133.523-.063.669.159.145.223.091.52-.123.677l-1.745 1.282 1.133-.653c.227-.134.52-.064.666.155s.098.514-.112.675l-2.797 2.142 2.165-1.25c.229-.135.524-.063.67.161.145.224.089.521-.128.677l-.697.503.097-.056c.224-.132.511-.065.659.146.149.213.11.504-.088.67l-3.693 3.1 3.023-1.745c.218-.127.499-.07.651.134.151.204.126.489-.059.663l-2.928 2.756 2.232-1.288c.216-.126.493-.071.646.128s.135.48-.043.658l-.795.796c.227-.098.499-.011.626.211.139.239.057.545-.183.683l-3.215 1.855c-.078.046-.164.067-.249.067z" fill="#f6ca4a"/><path d="m29.472 59.439c-.152 0-.301-.069-.398-.197-.152-.201-.132-.483.048-.659l2.66-2.61-4.376 2.526c-.226.134-.513.066-.662-.148-.148-.214-.106-.506.095-.671l2.628-2.149-3.208 1.852c-.224.131-.506.067-.655-.14-.15-.208-.119-.496.073-.667l3.719-3.305-3.983 2.3c-.228.131-.517.064-.664-.151-.147-.217-.102-.511.103-.673l1.708-1.354-1.261.728c-.212.124-.481.073-.636-.114-.155-.188-.152-.461.008-.646l1.995-2.304-.111.063c-.24.139-.545.056-.683-.183s-.056-.545.183-.683l2.683-1.548c.212-.126.48-.073.636.114.155.188.152.461-.008.646l-1.994 2.302 4.592-2.65c.226-.134.517-.065.663.151.147.217.103.511-.103.673l-1.708 1.354 2.333-1.347c.221-.128.506-.067.655.14.15.208.118.496-.073.667l-3.72 3.306 4.29-2.477c.224-.132.514-.066.661.148.148.214.107.506-.095.671l-2.628 2.15 2.456-1.418c.216-.127.495-.071.648.13.152.201.132.483-.048.659l-2.659 2.608 1.65-.952c.238-.14.545-.057.683.183.139.239.057.545-.183.683l-5.065 2.925c-.078.046-.165.067-.25.067z" fill="#f6ca4a"/><g fill="#262626"><path d="m35.614 1.394c-1.481-1.349-3.96-.932-5.802-.932-3.079-.44-7.119.618-6.508 4.507.525 11.566 1.051 23.131 1.577 34.697-.16 2.703.52 5.936 3.853 5.87 9.86 1.374 5.561-11.818 6.921-17.768.348-7.673.697-15.346 1.046-23.019.057-1.255-.085-2.444-1.087-3.356zm-1.25 22.542c-1.128 4.259 1.415 19.797-3.028 20.527-1.994 0-4.576.303-4.872-2.394-.532-11.611-1.053-23.228-1.584-34.84-1.244-6.594 2.547-5.86 7.613-5.691 5.741.08 1.068 17.924 1.871 22.398z"/><path d="m32.008 48.916c-9.044-2.412-10.666 11.893-.952 10.223 5.373-.786 6.388-8.696.952-10.223zm-.594 9.621c-6.712 1.805-7.762-10.5-.657-9.066 4.185 1.024 4.78 7.551.657 9.066z"/></g></svg>