<svg width="512" height="512" viewBox="0 0 512 512" fill="none" xmlns="http://www.w3.org/2000/svg">
<path d="M259.456 507.324C258.574 507.32 257.714 507.044 256.996 506.532C256.277 506.02 255.735 505.297 255.444 504.465C255.153 503.632 255.128 502.729 255.371 501.881C255.614 501.033 256.114 500.281 256.802 499.729L282.82 478.95L238.746 504.388C237.797 504.93 236.676 505.086 235.615 504.826C234.554 504.566 233.633 503.908 233.042 502.989C232.452 502.07 232.236 500.96 232.44 499.887C232.643 498.813 233.251 497.859 234.138 497.22L254.507 482.799L225.493 499.55C224.541 500.096 223.414 500.255 222.348 499.992C221.282 499.729 220.358 499.065 219.769 498.139C219.18 497.212 218.971 496.094 219.185 495.017C219.399 493.94 220.02 492.987 220.919 492.356L247.305 473.984L214.281 493.047C213.341 493.565 212.241 493.709 211.2 493.452C210.158 493.195 209.252 492.555 208.661 491.66C208.07 490.765 207.839 489.68 208.012 488.621C208.185 487.563 208.75 486.608 209.596 485.948L247.876 457.182L202.829 483.191C201.876 483.738 200.75 483.896 199.684 483.634C198.618 483.371 197.694 482.707 197.105 481.78C196.515 480.854 196.306 479.735 196.52 478.658C196.735 477.581 197.356 476.628 198.255 475.998L202.829 472.823L196.924 476.237C195.991 476.779 194.888 476.948 193.837 476.709C192.785 476.471 191.862 475.843 191.255 474.952C190.647 474.061 190.399 472.973 190.561 471.907C190.723 470.841 191.283 469.876 192.128 469.205L215.893 450.244L190.054 465.161C189.154 465.687 188.092 465.865 187.068 465.662C186.045 465.458 185.132 464.887 184.502 464.056C183.871 463.224 183.567 462.191 183.647 461.151C183.727 460.111 184.185 459.136 184.934 458.411L204.732 439.194L184.414 450.918C183.57 451.403 182.585 451.585 181.623 451.433C180.662 451.281 179.781 450.805 179.127 450.083C178.474 449.362 178.086 448.439 178.03 447.467C177.973 446.495 178.251 445.533 178.816 444.74L187.998 431.94L181.845 435.49C181.105 435.918 180.253 436.114 179.4 436.052C178.547 435.989 177.733 435.672 177.062 435.142C176.392 434.611 175.896 433.891 175.64 433.075C175.383 432.259 175.378 431.385 175.625 430.566L177.425 424.593C176.762 424.228 176.209 423.694 175.821 423.045C175.432 422.396 175.224 421.655 175.216 420.899C175.208 420.143 175.401 419.398 175.776 418.741C176.151 418.084 176.693 417.539 177.348 417.161L181.615 414.694C182.355 414.266 183.207 414.071 184.06 414.133C184.913 414.195 185.728 414.512 186.398 415.043C187.069 415.574 187.564 416.294 187.821 417.109C188.077 417.925 188.082 418.799 187.836 419.618L186.906 422.682L200.815 414.66C201.658 414.179 202.641 414 203.6 414.153C204.558 414.305 205.437 414.78 206.089 415.499C206.742 416.218 207.129 417.138 207.188 418.108C207.247 419.077 206.973 420.037 206.413 420.83L197.231 433.63L230.238 414.583C231.138 414.057 232.201 413.879 233.224 414.082C234.247 414.286 235.16 414.857 235.79 415.688C236.421 416.52 236.725 417.553 236.645 418.593C236.566 419.633 236.108 420.608 235.358 421.333L215.561 440.55L260.625 414.532C261.556 413.994 262.657 413.827 263.706 414.065C264.755 414.303 265.675 414.929 266.283 415.817C266.89 416.705 267.14 417.789 266.982 418.853C266.823 419.917 266.269 420.882 265.429 421.555L241.664 440.542L286.754 414.515C287.706 413.983 288.825 413.836 289.882 414.104C290.939 414.371 291.854 415.033 292.438 415.954C293.022 416.874 293.232 417.983 293.024 419.054C292.816 420.124 292.206 421.074 291.319 421.709L286.72 424.909L304.785 414.481C305.726 413.942 306.836 413.782 307.89 414.032C308.945 414.282 309.865 414.924 310.463 415.827C311.062 416.731 311.294 417.829 311.113 418.897C310.931 419.966 310.35 420.925 309.487 421.581L271.198 450.33L330.411 416.196C331.361 415.67 332.477 415.526 333.529 415.794C334.582 416.062 335.493 416.721 336.077 417.638C336.66 418.554 336.872 419.659 336.669 420.726C336.466 421.793 335.864 422.743 334.985 423.381L308.582 441.771L330.155 429.312C331.103 428.784 332.217 428.637 333.27 428.901C334.323 429.166 335.235 429.822 335.822 430.735C336.408 431.649 336.624 432.752 336.426 433.819C336.227 434.886 335.63 435.838 334.754 436.48L314.436 450.876L327.646 443.238C328.578 442.696 329.681 442.528 330.733 442.766C331.785 443.004 332.707 443.632 333.315 444.523C333.923 445.414 334.17 446.502 334.008 447.568C333.846 448.634 333.286 449.6 332.442 450.27L306.415 471.04L318.362 464.137C319.337 463.626 320.471 463.513 321.528 463.819C322.585 464.126 323.483 464.829 324.033 465.782C324.584 466.735 324.745 467.863 324.483 468.932C324.222 470.001 323.557 470.928 322.628 471.518L261.555 506.778C260.916 507.141 260.192 507.329 259.456 507.324Z" fill="#F9D438"/>
<path d="M335.241 430.677C334.326 430.685 333.433 430.398 332.693 429.86C331.954 429.321 331.407 428.559 331.133 427.686C330.86 426.813 330.874 425.875 331.174 425.011C331.474 424.147 332.044 423.402 332.8 422.886L337.86 419.422L319.403 430.08C318.447 430.617 317.322 430.766 316.26 430.496C315.198 430.226 314.28 429.558 313.697 428.629C313.115 427.701 312.912 426.584 313.13 425.51C313.349 424.436 313.972 423.488 314.871 422.861L323.362 417.109L300.885 430.08C299.937 430.608 298.823 430.755 297.77 430.491C296.717 430.226 295.805 429.57 295.218 428.657C294.632 427.743 294.416 426.64 294.614 425.573C294.813 424.506 295.41 423.554 296.286 422.912L335.283 395.315L275.055 430.08C274.106 430.601 272.994 430.742 271.945 430.474C270.896 430.206 269.988 429.549 269.405 428.636C268.822 427.724 268.608 426.624 268.806 425.559C269.005 424.495 269.6 423.545 270.473 422.903L312.994 393.037L248.764 430.08C247.819 430.627 246.701 430.791 245.639 430.539C244.577 430.286 243.652 429.637 243.055 428.723C242.457 427.809 242.233 426.7 242.428 425.625C242.623 424.551 243.223 423.592 244.105 422.946L296.96 384.205L217.446 430.08C216.499 430.597 215.39 430.735 214.344 430.467C213.298 430.199 212.393 429.544 211.811 428.635C211.229 427.726 211.013 426.63 211.207 425.568C211.4 424.506 211.99 423.557 212.855 422.912L256.956 391.731L190.532 430.08C189.585 430.616 188.468 430.769 187.411 430.508C186.354 430.247 185.437 429.593 184.847 428.678C184.257 427.763 184.039 426.657 184.238 425.587C184.437 424.517 185.037 423.563 185.916 422.921L232.849 389.402L162.389 430.08C161.447 430.616 160.336 430.773 159.282 430.519C158.228 430.265 157.31 429.62 156.715 428.714C156.12 427.808 155.891 426.709 156.077 425.641C156.262 424.573 156.847 423.616 157.713 422.963L212.395 382.404L129.809 430.08C128.861 430.63 127.737 430.794 126.672 430.537C125.606 430.281 124.68 429.625 124.085 428.704C123.49 427.783 123.273 426.669 123.477 425.592C123.682 424.516 124.293 423.559 125.184 422.921L173.952 387.849L100.787 430.08C99.8401 430.603 98.7294 430.747 97.6801 430.483C96.6308 430.218 95.7212 429.565 95.1355 428.655C94.5498 427.745 94.3318 426.646 94.5256 425.582C94.7194 424.517 95.3104 423.566 96.1792 422.921L143.027 389.47L72.6784 430.08C71.7348 430.621 70.6203 430.78 69.5628 430.527C68.5053 430.273 67.5845 429.625 66.9886 428.716C66.3927 427.806 66.1666 426.703 66.3566 425.632C66.5465 424.562 67.1382 423.604 68.0107 422.955L121.694 383.377L49.7578 424.96C48.8047 425.498 47.6812 425.649 46.6196 425.383C45.558 425.116 44.6397 424.451 44.0544 423.526C43.4692 422.601 43.2618 421.486 43.4752 420.413C43.6887 419.339 44.3065 418.389 45.2011 417.758L74.7178 397.329L45.1413 414.396C44.2051 414.93 43.1014 415.09 42.052 414.844C41.0025 414.598 40.0852 413.964 39.4843 413.069C38.8834 412.174 38.6434 411.085 38.8127 410.02C38.982 408.956 39.5479 407.995 40.3968 407.33L79.5648 377.071L45.056 396.945C44.1258 397.481 43.0279 397.646 41.9813 397.408C40.9347 397.17 40.0161 396.546 39.4089 395.661C38.8016 394.776 38.5503 393.695 38.7049 392.633C38.8595 391.571 39.4088 390.606 40.2432 389.931L92.416 347.716C92.3586 346.917 92.5274 346.118 92.9032 345.41C93.279 344.702 93.8465 344.114 94.5408 343.714L104.644 337.894C105.574 337.359 106.672 337.194 107.719 337.431C108.766 337.669 109.684 338.293 110.291 339.178C110.899 340.063 111.15 341.144 110.995 342.207C110.841 343.269 110.291 344.234 109.457 344.909L87.8933 362.368L130.278 337.92C131.214 337.396 132.313 337.244 133.356 337.493C134.399 337.743 135.31 338.376 135.907 339.267C136.504 340.158 136.744 341.241 136.579 342.301C136.413 343.361 135.855 344.319 135.014 344.986L95.8379 375.262L160.529 337.92C161.481 337.388 162.6 337.241 163.657 337.508C164.714 337.776 165.629 338.438 166.213 339.358C166.797 340.279 167.007 341.388 166.799 342.458C166.591 343.529 165.981 344.479 165.094 345.114L135.578 365.594L183.467 337.92C184.41 337.379 185.525 337.22 186.582 337.473C187.64 337.727 188.561 338.375 189.156 339.284C189.752 340.194 189.978 341.297 189.788 342.368C189.599 343.438 189.007 344.396 188.134 345.045L134.451 384.623L215.373 337.911C216.322 337.37 217.442 337.213 218.503 337.474C219.564 337.734 220.485 338.391 221.076 339.31C221.667 340.229 221.882 341.34 221.679 342.413C221.475 343.487 220.867 344.441 219.981 345.079L173.107 378.53L243.49 337.911C244.438 337.362 245.562 337.198 246.627 337.454C247.693 337.71 248.619 338.367 249.214 339.287C249.809 340.208 250.027 341.322 249.822 342.399C249.617 343.476 249.006 344.433 248.115 345.071L199.347 380.151L272.529 337.903C273.471 337.367 274.583 337.21 275.636 337.464C276.69 337.718 277.608 338.363 278.204 339.269C278.799 340.175 279.027 341.274 278.842 342.342C278.656 343.41 278.071 344.367 277.205 345.02L222.541 385.57L305.126 337.894C306.076 337.337 307.204 337.169 308.275 337.424C309.346 337.679 310.277 338.338 310.873 339.264C311.469 340.19 311.684 341.31 311.474 342.39C311.263 343.471 310.643 344.428 309.743 345.062L262.81 378.573L333.303 337.886C334.253 337.352 335.371 337.202 336.428 337.466C337.485 337.731 338.4 338.389 338.987 339.306C339.574 340.224 339.788 341.331 339.585 342.402C339.382 343.472 338.777 344.424 337.894 345.062L293.811 376.218L360.226 337.877C361.171 337.331 362.289 337.168 363.351 337.422C364.412 337.675 365.336 338.325 365.933 339.239C366.529 340.152 366.753 341.26 366.559 342.334C366.364 343.407 365.765 344.365 364.885 345.011L312.038 383.778L391.561 337.869C392.512 337.329 393.633 337.175 394.695 337.439C395.756 337.703 396.675 338.364 397.263 339.286C397.851 340.207 398.063 341.32 397.854 342.393C397.646 343.467 397.033 344.419 396.143 345.054L353.621 374.921L411.17 341.7C412.12 341.152 413.245 340.991 414.311 341.251C415.377 341.511 416.302 342.171 416.894 343.094C417.486 344.018 417.699 345.134 417.49 346.211C417.28 347.287 416.664 348.242 415.77 348.877L376.747 376.448L421.871 350.404C422.826 349.867 423.952 349.718 425.014 349.988C426.076 350.258 426.994 350.927 427.576 351.855C428.159 352.783 428.362 353.9 428.143 354.974C427.925 356.048 427.301 356.997 426.402 357.623L417.954 363.341L430.464 356.122C431.421 355.537 432.569 355.353 433.661 355.609C434.753 355.865 435.7 356.54 436.298 357.489C436.895 358.437 437.096 359.583 436.855 360.678C436.615 361.773 435.953 362.73 435.012 363.341L429.892 366.822L438.793 361.702C439.744 361.163 440.865 361.009 441.927 361.273C442.988 361.536 443.907 362.197 444.495 363.119C445.083 364.041 445.295 365.154 445.086 366.227C444.878 367.3 444.265 368.253 443.375 368.887L435.883 374.135L447.445 367.471C448.375 366.945 449.469 366.787 450.509 367.028C451.55 367.27 452.462 367.892 453.066 368.774C453.67 369.655 453.921 370.731 453.77 371.788C453.618 372.846 453.076 373.808 452.25 374.485L426.487 395.247L459.998 375.91C460.907 375.383 461.978 375.209 463.007 375.422C464.037 375.636 464.951 376.222 465.574 377.068C466.198 377.913 466.488 378.96 466.388 380.006C466.288 381.052 465.805 382.025 465.033 382.737L442.308 403.849L466.927 389.641C467.806 389.133 468.838 388.956 469.836 389.141C470.834 389.326 471.733 389.861 472.373 390.649C473.012 391.437 473.349 392.428 473.324 393.443C473.299 394.457 472.912 395.43 472.235 396.186L460.459 409.284L466.944 405.538C467.923 404.981 469.083 404.834 470.171 405.13C471.258 405.425 472.185 406.138 472.748 407.114C473.311 408.09 473.466 409.249 473.178 410.338C472.89 411.427 472.183 412.358 471.211 412.928L441.455 430.08C440.577 430.582 439.549 430.755 438.554 430.569C437.56 430.383 436.664 429.85 436.027 429.065C435.389 428.279 435.051 427.293 435.073 426.282C435.095 425.271 435.476 424.3 436.147 423.543L447.932 410.453L413.867 430.08C412.958 430.608 411.886 430.782 410.857 430.568C409.828 430.355 408.914 429.769 408.29 428.923C407.666 428.077 407.377 427.031 407.477 425.984C407.577 424.938 408.059 423.966 408.832 423.253L431.556 402.133L383.189 430.08C382.259 430.606 381.166 430.764 380.125 430.523C379.085 430.281 378.172 429.659 377.569 428.777C376.965 427.896 376.714 426.82 376.865 425.763C377.016 424.705 377.559 423.743 378.385 423.066L404.147 402.295L356.002 430.08C355.053 430.601 353.941 430.742 352.892 430.474C351.843 430.206 350.935 429.549 350.352 428.636C349.769 427.724 349.555 426.624 349.754 425.559C349.952 424.495 350.547 423.545 351.42 422.903L358.861 417.681L337.374 430.08C336.728 430.463 335.992 430.67 335.241 430.677Z" fill="#EAB82F"/>
<path d="M110.763 354.133C109.832 354.133 108.927 353.829 108.186 353.266C107.444 352.704 106.907 351.915 106.656 351.019C106.404 350.123 106.453 349.169 106.794 348.304C107.135 347.438 107.749 346.707 108.544 346.223L133.692 330.863L96.256 352.427C95.2867 352.973 94.1425 353.119 93.0672 352.833C91.9919 352.548 91.0707 351.854 90.4998 350.899C89.9288 349.944 89.7535 348.804 90.011 347.722C90.2685 346.639 90.9386 345.7 91.8784 345.105L188.049 285.303L96.256 338.278C95.2893 338.82 94.1497 338.964 93.0785 338.681C92.0073 338.397 91.0884 337.708 90.5163 336.759C89.9442 335.81 89.7638 334.675 90.0132 333.596C90.2627 332.516 90.9224 331.576 91.8528 330.974L218.257 251.307L96.256 321.707C95.2903 322.23 94.1602 322.36 93.1007 322.071C92.0412 321.782 91.1339 321.096 90.5678 320.155C90.0016 319.214 89.8201 318.09 90.061 317.019C90.302 315.948 90.9468 315.01 91.8613 314.402L199.953 246.647L96.256 306.551C95.2861 307.088 94.1456 307.225 93.0759 306.936C92.0062 306.646 91.0913 305.951 90.5247 304.999C89.9581 304.046 89.7843 302.911 90.0402 301.833C90.296 300.754 90.9614 299.818 91.8955 299.221L128 277.069L96.256 295.364C95.2879 295.889 94.1544 296.019 93.0925 295.728C92.0306 295.436 91.1226 294.746 90.5583 293.8C89.994 292.854 89.8172 291.727 90.0648 290.654C90.3124 289.581 90.9653 288.645 91.8869 288.043L136.397 260.617L96.2901 283.785C95.3181 284.364 94.1557 284.533 93.0587 284.256C91.9617 283.978 91.0199 283.276 90.4405 282.304C89.8612 281.332 89.6917 280.17 89.9693 279.073C90.247 277.976 90.949 277.034 91.9211 276.454L129.178 253.508L96.256 272.495C95.2899 273.047 94.1463 273.2 93.0691 272.921C91.9919 272.642 91.0664 271.953 90.4898 271.001C89.9132 270.05 89.7312 268.91 89.9827 267.826C90.2341 266.742 90.8991 265.8 91.8357 265.199L208.529 190.899L96.256 255.753C95.2886 256.285 94.1523 256.422 93.0861 256.135C92.0198 255.847 91.1066 255.157 90.5386 254.21C89.9706 253.263 89.7919 252.132 90.0402 251.056C90.2884 249.98 90.9443 249.042 91.8699 248.439L153.6 209.92L96.256 243.021C95.291 243.578 94.1463 243.735 93.0668 243.459C91.9872 243.183 91.0584 242.496 90.4789 241.545C89.8987 240.589 89.7167 239.444 89.9721 238.356C90.2274 237.267 90.8997 236.323 91.8443 235.725L180.053 179.857L96.256 228.258C95.2924 228.807 94.153 228.958 93.0794 228.681C92.0057 228.404 91.0821 227.72 90.5041 226.774C89.9261 225.828 89.7392 224.694 89.983 223.612C90.2268 222.53 90.8821 221.586 91.8101 220.979L202.94 149.043L96.2731 210.628C95.3038 211.174 94.1596 211.32 93.0843 211.035C92.009 210.749 91.0877 210.055 90.5168 209.1C89.9459 208.146 89.7705 207.006 90.0281 205.923C90.2856 204.841 90.9557 203.902 91.8955 203.307L107.81 193.434L96.2731 200.081C95.3111 200.619 94.1785 200.763 93.1124 200.484C92.0463 200.205 91.1295 199.525 90.5538 198.585C89.9781 197.646 89.7883 196.52 90.0241 195.443C90.2598 194.367 90.9029 193.424 91.8187 192.811L181.214 134.827L97.1435 183.356C96.1798 183.904 95.0405 184.056 93.9668 183.779C92.8932 183.502 91.9695 182.818 91.3916 181.872C90.8136 180.925 90.6267 179.791 90.8705 178.71C91.1143 177.628 91.7696 176.684 92.6976 176.077L153.054 137.387L99.4048 168.354C98.4412 168.903 97.3018 169.054 96.2282 168.777C95.1545 168.5 94.2309 167.816 93.6529 166.87C93.0749 165.924 92.888 164.79 93.1318 163.708C93.3756 162.626 94.0309 161.682 94.9589 161.075L145.638 128.367L103.253 152.798C102.298 153.335 101.173 153.484 100.11 153.214C99.0483 152.944 98.1308 152.275 97.5481 151.347C96.9655 150.419 96.7624 149.302 96.981 148.228C97.1995 147.154 97.823 146.205 98.7221 145.579L169.165 97.792L111.667 130.995C110.716 131.535 109.594 131.689 108.533 131.425C107.472 131.161 106.552 130.5 105.964 129.578C105.376 128.657 105.165 127.544 105.373 126.471C105.582 125.397 106.194 124.445 107.085 123.81L159.317 87.168L126.037 106.385C125.101 106.919 123.997 107.079 122.948 106.833C121.899 106.587 120.981 105.953 120.38 105.058C119.779 104.163 119.539 103.074 119.709 102.009C119.878 100.945 120.444 99.9838 121.293 99.3194L152.747 75.0336C151.912 74.8411 151.155 74.402 150.574 73.7734C149.992 73.1448 149.613 72.3558 149.486 71.509C149.359 70.6622 149.49 69.7967 149.861 69.0252C150.233 68.2536 150.828 67.6117 151.569 67.1829L196.523 41.2074C197.459 40.6731 198.563 40.513 199.612 40.7592C200.661 41.0054 201.579 41.6396 202.18 42.5345C202.781 43.4294 203.021 44.5186 202.851 45.5831C202.682 46.6477 202.116 47.6087 201.267 48.273L176.538 67.4133L238.831 31.4794C239.78 30.9581 240.892 30.8172 241.941 31.0853C242.99 31.3533 243.898 32.0103 244.481 32.923C245.064 33.8356 245.278 34.9358 245.08 36.0003C244.881 37.0649 244.286 38.0143 243.413 38.656L191.147 75.281L267.315 31.3173C268.272 30.7721 269.402 30.6178 270.47 30.8869C271.538 31.156 272.461 31.8275 273.045 32.761C273.629 33.6945 273.829 34.8177 273.605 35.8957C273.38 36.9737 272.747 37.923 271.838 38.545L201.387 86.2805L290.475 34.8672C291.437 34.3297 292.569 34.1852 293.635 34.464C294.701 34.7428 295.618 35.4233 296.194 36.3629C296.77 37.3025 296.959 38.4284 296.724 39.5048C296.488 40.5812 295.845 41.5246 294.929 42.1376L244.233 74.8544L305.86 39.2533C306.823 38.7239 307.953 38.5862 309.014 38.8689C310.076 39.1516 310.988 39.8329 311.559 40.771C312.131 41.7091 312.319 42.8316 312.084 43.9048C311.849 44.9779 311.209 45.9191 310.298 46.5322L249.958 85.3333L320.017 44.8853C320.979 44.3478 322.112 44.2034 323.178 44.4822C324.244 44.761 325.161 45.4414 325.736 46.381C326.312 47.3206 326.502 48.4465 326.266 49.5229C326.03 50.5993 325.387 51.5428 324.471 52.1557L235.076 110.08L334.916 52.4544C335.887 51.8727 337.049 51.7006 338.147 51.9759C339.245 52.2511 340.188 52.9512 340.77 53.9221C341.352 54.893 341.524 56.0552 341.249 57.153C340.973 58.2508 340.273 59.1943 339.302 59.776L323.217 69.76L343.697 57.9413C344.662 57.3506 345.823 57.1676 346.923 57.4324C348.023 57.6973 348.973 58.3883 349.564 59.3536C350.154 60.3188 350.337 61.4792 350.073 62.5794C349.808 63.6796 349.117 64.6296 348.151 65.2202L237.03 137.131L357.009 67.8656C357.978 67.2805 359.139 67.1043 360.238 67.3755C361.336 67.6468 362.282 68.3433 362.867 69.312C363.452 70.2806 363.629 71.442 363.357 72.5406C363.086 73.6392 362.389 74.5851 361.421 75.1701L273.195 131.021L367.01 76.8597C367.975 76.3509 369.098 76.2308 370.148 76.5242C371.199 76.8176 372.097 77.5021 372.658 78.4372C373.22 79.3723 373.402 80.4868 373.167 81.5519C372.933 82.6171 372.299 83.5518 371.396 84.1642L309.76 122.615L374.869 85.0688C375.833 84.5467 376.96 84.4153 378.018 84.7017C379.075 84.9881 379.982 85.6704 380.55 86.6073C381.119 87.5441 381.305 88.6636 381.07 89.7339C380.835 90.8042 380.198 91.7432 379.29 92.3562L262.545 166.63L384.085 96.4693C385.053 95.9444 386.187 95.8141 387.249 96.1056C388.311 96.3972 389.219 97.088 389.783 98.0337C390.347 98.9793 390.524 100.106 390.277 101.179C390.029 102.252 389.376 103.188 388.454 103.791L351.198 126.746L389.683 104.559C390.652 104.013 391.797 103.867 392.872 104.152C393.947 104.438 394.869 105.132 395.439 106.087C396.01 107.042 396.186 108.182 395.928 109.264C395.671 110.346 395.001 111.285 394.061 111.881L349.542 139.307L394.906 113.126C395.874 112.601 397.007 112.471 398.069 112.763C399.131 113.054 400.039 113.745 400.603 114.691C401.168 115.636 401.344 116.764 401.097 117.837C400.849 118.91 400.196 119.845 399.275 120.448L363.332 142.507L399.42 121.677C400.385 121.154 401.516 121.023 402.575 121.312C403.635 121.601 404.542 122.288 405.108 123.229C405.674 124.17 405.856 125.293 405.615 126.364C405.374 127.436 404.729 128.373 403.814 128.981L295.629 196.787L404.685 133.828C405.649 133.313 406.774 133.187 407.828 133.477C408.882 133.767 409.784 134.451 410.349 135.387C410.914 136.322 411.098 137.439 410.863 138.507C410.629 139.575 409.993 140.511 409.088 141.124L282.709 220.774L409.404 147.627C410.37 147.111 411.498 146.986 412.554 147.279C413.609 147.571 414.512 148.259 415.075 149.199C415.637 150.139 415.817 151.259 415.576 152.328C415.335 153.397 414.693 154.332 413.781 154.94L317.551 214.793L412.407 160.034C413.377 159.498 414.518 159.36 415.588 159.65C416.657 159.94 417.572 160.634 418.139 161.587C418.705 162.539 418.879 163.675 418.623 164.753C418.367 165.831 417.702 166.768 416.768 167.364L391.467 182.869L414.089 169.813C415.054 169.223 416.214 169.04 417.314 169.304C418.415 169.569 419.365 170.26 419.955 171.226C420.546 172.191 420.729 173.351 420.464 174.451C420.199 175.552 419.508 176.502 418.543 177.092L290.295 259.866L415.573 187.494C416.536 186.965 417.666 186.827 418.727 187.11C419.789 187.393 420.701 188.074 421.273 189.012C421.844 189.95 422.032 191.073 421.797 192.146C421.562 193.219 420.922 194.16 420.011 194.773L328.704 253.261L415.744 202.999C416.711 202.467 417.848 202.33 418.914 202.617C419.98 202.905 420.893 203.595 421.461 204.542C422.029 205.489 422.208 206.62 421.96 207.696C421.712 208.772 421.056 209.71 420.13 210.313L396.416 225.143L415.77 213.973C416.732 213.444 417.862 213.306 418.924 213.589C419.985 213.872 420.897 214.553 421.469 215.491C422.041 216.429 422.229 217.552 421.994 218.625C421.759 219.698 421.119 220.639 420.207 221.252L361.327 259.209L415.77 227.78C416.738 227.195 417.9 227.019 418.998 227.29C420.097 227.561 421.043 228.258 421.628 229.227C422.213 230.195 422.389 231.357 422.118 232.455C421.847 233.554 421.15 234.5 420.181 235.085L409.421 241.911L415.787 238.242C416.744 237.675 417.886 237.504 418.967 237.766C420.049 238.029 420.985 238.704 421.577 239.647C422.168 240.59 422.367 241.726 422.132 242.814C421.897 243.902 421.246 244.855 420.318 245.47L358.485 287.428L415.846 254.293C416.805 253.764 417.929 253.624 418.988 253.901C420.047 254.178 420.959 254.851 421.535 255.781C422.112 256.712 422.309 257.828 422.085 258.9C421.862 259.971 421.235 260.916 420.335 261.538L401.067 274.27L415.846 265.737C416.796 265.203 417.914 265.053 418.971 265.317C420.028 265.581 420.943 266.24 421.53 267.157C422.117 268.075 422.331 269.182 422.128 270.252C421.925 271.323 421.32 272.274 420.437 272.913L384.265 298.359L415.838 280.115C416.769 279.587 417.864 279.427 418.907 279.669C419.95 279.91 420.864 280.535 421.468 281.419C422.072 282.303 422.321 283.382 422.167 284.442C422.012 285.501 421.465 286.463 420.634 287.138L382.438 317.645L415.863 298.351C416.773 297.807 417.852 297.621 418.891 297.828C419.929 298.036 420.854 298.622 421.484 299.474C422.114 300.326 422.405 301.381 422.3 302.436C422.195 303.49 421.701 304.467 420.915 305.178L397.124 327.492L415.898 316.655C416.76 316.152 417.77 315.967 418.755 316.132C419.739 316.297 420.634 316.802 421.284 317.559C421.935 318.316 422.299 319.277 422.314 320.275C422.33 321.273 421.995 322.244 421.367 323.021L412.16 334.635L416.017 332.407C416.761 331.978 417.618 331.783 418.475 331.848C419.332 331.913 420.149 332.236 420.82 332.774C421.49 333.311 421.983 334.039 422.233 334.861C422.483 335.684 422.479 336.562 422.221 337.382L420.309 343.458C420.961 343.828 421.501 344.368 421.871 345.02C422.434 345.999 422.586 347.161 422.293 348.252C422 349.343 421.287 350.274 420.309 350.839L416.043 353.306C415.298 353.735 414.442 353.93 413.585 353.865C412.728 353.8 411.91 353.477 411.24 352.939C410.569 352.402 410.077 351.674 409.827 350.852C409.577 350.029 409.581 349.151 409.839 348.331L410.803 345.276L396.86 353.323C395.999 353.821 394.991 354.003 394.01 353.837C393.029 353.671 392.137 353.167 391.488 352.413C390.839 351.659 390.474 350.702 390.456 349.707C390.438 348.712 390.768 347.742 391.39 346.965L400.649 335.36L369.425 353.382C368.516 353.926 367.437 354.113 366.398 353.905C365.359 353.698 364.435 353.111 363.804 352.259C363.174 351.408 362.883 350.352 362.989 349.298C363.094 348.243 363.587 347.266 364.373 346.556L388.164 324.233L337.673 353.365C336.742 353.885 335.651 354.037 334.613 353.792C333.576 353.547 332.668 352.923 332.068 352.043C331.468 351.162 331.219 350.089 331.37 349.034C331.521 347.979 332.062 347.019 332.885 346.342L371.063 315.853L306.031 353.399C305.079 353.955 303.949 354.121 302.878 353.863C301.807 353.604 300.877 352.941 300.284 352.013C299.69 351.084 299.479 349.962 299.695 348.881C299.91 347.8 300.536 346.844 301.44 346.214L337.655 320.742L281.054 353.417C280.093 353.973 278.953 354.134 277.876 353.864C276.799 353.594 275.87 352.915 275.286 351.971C274.701 351.026 274.508 349.892 274.747 348.807C274.986 347.723 275.638 346.774 276.565 346.163L295.791 333.483L261.231 353.434C260.273 354.001 259.132 354.172 258.05 353.909C256.969 353.647 256.032 352.972 255.441 352.029C254.85 351.086 254.651 349.949 254.886 348.861C255.121 347.774 255.772 346.821 256.7 346.206L318.481 304.282L233.301 353.451C232.333 354.037 231.171 354.214 230.071 353.944C228.972 353.673 228.025 352.977 227.439 352.009C226.853 351.04 226.675 349.878 226.946 348.779C227.216 347.679 227.912 346.732 228.881 346.146L239.59 339.379L215.177 353.468C214.213 354.016 213.074 354.168 212 353.891C210.926 353.614 210.003 352.93 209.425 351.984C208.847 351.037 208.66 349.903 208.904 348.822C209.147 347.74 209.803 346.796 210.731 346.189L269.653 308.181L191.147 353.485C190.179 354.018 189.043 354.155 187.977 353.867C186.91 353.579 185.997 352.889 185.429 351.942C184.861 350.995 184.683 349.864 184.931 348.788C185.179 347.712 185.835 346.774 186.761 346.172L210.423 331.375L172.092 353.502C171.126 354.068 169.977 354.232 168.892 353.958C167.807 353.685 166.872 352.996 166.29 352.04C165.708 351.084 165.525 349.938 165.78 348.848C166.035 347.758 166.708 346.812 167.654 346.214L259.089 287.667L145.067 353.519C144.101 354.11 142.941 354.293 141.841 354.028C140.741 353.763 139.791 353.072 139.2 352.107C138.609 351.141 138.426 349.981 138.691 348.881C138.956 347.781 139.647 346.831 140.612 346.24L268.834 263.518L112.896 353.545C112.25 353.927 111.514 354.131 110.763 354.133Z" fill="#F9D438"/>
<path d="M471.211 421.478C492.399 384.29 450.935 363.75 424.277 347.238C430.729 218.223 436.617 35.2682 262.144 31.8549C260.54 23.8677 265.609 10.4192 259.772 5.22236C244.224 3.26822 251.238 22.6133 249.788 32.0341C74.3851 42.5301 82.0139 216.064 87.6885 348.433C66.3552 365.321 28.7147 375.228 36.4117 409.31C45.5424 452.625 138.018 422.869 173.175 431.164C176.265 530.953 333.218 528.444 338.645 431.164C381.107 425.276 434.441 444.587 471.211 421.478ZM115.004 127.002C165.47 7.67996 343.808 10.7861 395.733 127.147C424.585 196.096 407.535 272.674 411.947 345.344C308.019 345.011 204.109 346.027 100.207 344.917C104.107 272.435 87.9616 196.198 115.004 127.002ZM254.174 500.053C236.459 498.539 219.857 490.785 207.326 478.171C194.796 465.558 187.151 448.905 185.754 431.181H326.443C324.454 469.001 293.598 502.477 254.174 500.053ZM452.582 422.187C326.921 422.955 200.67 421.666 74.7947 422.187C55.4325 426.743 45.3205 413.585 48.9301 395.238C52.1387 373.598 80.1621 368.324 94.6688 354.893C201.412 353.109 308.002 356.028 414.78 354.381C430.558 368.887 462.49 375.031 463.078 399.821C463.07 408.747 464.657 420.693 452.582 422.17V422.187Z" fill="#262626"/>
</svg>
