<svg width="219" height="258" viewBox="0 0 219 258" fill="none" xmlns="http://www.w3.org/2000/svg">
<path d="M63.6121 136.81C56.2825 127.662 52.2871 116.29 52.2839 104.568H17.4279C17.4013 125.54 25.0228 145.802 38.8643 161.557L63.6121 136.81Z" fill="#6495ED"/>
<path d="M104.568 17.428C83.5929 17.4432 63.3273 25.0234 47.4912 38.7772L72.2389 63.5249C79.9475 57.4601 89.2066 53.6859 98.9584 52.6336C108.71 51.5812 118.561 53.2932 127.386 57.5739C136.211 61.8546 143.654 68.5314 148.865 76.8414C154.075 85.1514 156.843 94.7594 156.852 104.568H191.708C191.708 93.1244 189.454 81.7931 185.075 71.2208C180.695 60.6485 174.277 51.0423 166.185 42.9506C158.093 34.859 148.487 28.4403 137.915 24.0611C127.342 19.6819 116.011 17.428 104.568 17.428Z" fill="#6495ED"/>
<path d="M69.7118 182.994C79.337 182.994 87.1397 175.191 87.1397 165.566C87.1397 155.94 79.337 148.138 69.7118 148.138C60.0866 148.138 52.2838 155.94 52.2838 165.566C52.2838 175.191 60.0866 182.994 69.7118 182.994Z" fill="#6495ED"/>
<path d="M165.566 156.852C175.191 156.852 182.994 149.049 182.994 139.424C182.994 129.799 175.191 121.996 165.566 121.996C155.94 121.996 148.138 129.799 148.138 139.424C148.138 149.049 155.94 156.852 165.566 156.852Z" fill="#6495ED" fill-opacity="0.52"/>
<path d="M121.996 191.708C131.621 191.708 139.424 183.905 139.424 174.28C139.424 164.654 131.621 156.852 121.996 156.852C112.371 156.852 104.568 164.654 104.568 174.28C104.568 183.905 112.371 191.708 121.996 191.708Z" fill="#6495ED"/>
<path d="M52.2839 104.568H17.428C17.4484 113.163 18.7404 121.708 21.2621 129.926L56.1181 123.041C53.7303 117.167 52.4311 110.907 52.2839 104.568Z" fill="#6495ED" fill-opacity="0.52"/>
<path d="M43.5699 87.1398C53.1951 87.1398 60.9979 79.3371 60.9979 69.7119C60.9979 60.0867 53.1951 52.2839 43.5699 52.2839C33.9447 52.2839 26.142 60.0867 26.142 69.7119C26.142 79.3371 33.9447 87.1398 43.5699 87.1398Z" fill="#6495ED" fill-opacity="0.68"/>
<path d="M153.453 86.0942C155.692 91.9964 156.843 98.2553 156.852 104.568H191.708C191.715 95.9767 190.453 87.4318 187.961 79.2101L153.453 86.0942Z" fill="#6495ED" fill-opacity="0.52"/>
<path d="M25.5078 221.055V241H19.8594V215.641H25.1797L25.5078 221.055ZM24.5 227.383L22.6719 227.359C22.6875 225.562 22.9375 223.914 23.4219 222.414C23.9219 220.914 24.6094 219.625 25.4844 218.547C26.375 217.469 27.4375 216.641 28.6719 216.062C29.9062 215.469 31.2812 215.172 32.7969 215.172C34.0156 215.172 35.1172 215.344 36.1016 215.688C37.1016 216.016 37.9531 216.555 38.6562 217.305C39.375 218.055 39.9219 219.031 40.2969 220.234C40.6719 221.422 40.8594 222.883 40.8594 224.617V241H35.1875V224.594C35.1875 223.375 35.0078 222.414 34.6484 221.711C34.3047 220.992 33.7969 220.484 33.125 220.188C32.4688 219.875 31.6484 219.719 30.6641 219.719C29.6953 219.719 28.8281 219.922 28.0625 220.328C27.2969 220.734 26.6484 221.289 26.1172 221.992C25.6016 222.695 25.2031 223.508 24.9219 224.43C24.6406 225.352 24.5 226.336 24.5 227.383ZM57.8047 241.469C55.9297 241.469 54.2344 241.164 52.7188 240.555C51.2188 239.93 49.9375 239.062 48.875 237.953C47.8281 236.844 47.0234 235.539 46.4609 234.039C45.8984 232.539 45.6172 230.922 45.6172 229.188V228.25C45.6172 226.266 45.9062 224.469 46.4844 222.859C47.0625 221.25 47.8672 219.875 48.8984 218.734C49.9297 217.578 51.1484 216.695 52.5547 216.086C53.9609 215.477 55.4844 215.172 57.125 215.172C58.9375 215.172 60.5234 215.477 61.8828 216.086C63.2422 216.695 64.3672 217.555 65.2578 218.664C66.1641 219.758 66.8359 221.062 67.2734 222.578C67.7266 224.094 67.9531 225.766 67.9531 227.594V230.008H48.3594V225.953H62.375V225.508C62.3438 224.492 62.1406 223.539 61.7656 222.648C61.4062 221.758 60.8516 221.039 60.1016 220.492C59.3516 219.945 58.3516 219.672 57.1016 219.672C56.1641 219.672 55.3281 219.875 54.5938 220.281C53.875 220.672 53.2734 221.242 52.7891 221.992C52.3047 222.742 51.9297 223.648 51.6641 224.711C51.4141 225.758 51.2891 226.938 51.2891 228.25V229.188C51.2891 230.297 51.4375 231.328 51.7344 232.281C52.0469 233.219 52.5 234.039 53.0938 234.742C53.6875 235.445 54.4062 236 55.25 236.406C56.0938 236.797 57.0547 236.992 58.1328 236.992C59.4922 236.992 60.7031 236.719 61.7656 236.172C62.8281 235.625 63.75 234.852 64.5312 233.852L67.5078 236.734C66.9609 237.531 66.25 238.297 65.375 239.031C64.5 239.75 63.4297 240.336 62.1641 240.789C60.9141 241.242 59.4609 241.469 57.8047 241.469ZM83.9844 215.641V219.766H69.6875V215.641H83.9844ZM73.8125 209.43H79.4609V233.992C79.4609 234.773 79.5703 235.375 79.7891 235.797C80.0234 236.203 80.3438 236.477 80.75 236.617C81.1562 236.758 81.6328 236.828 82.1797 236.828C82.5703 236.828 82.9453 236.805 83.3047 236.758C83.6641 236.711 83.9531 236.664 84.1719 236.617L84.1953 240.93C83.7266 241.07 83.1797 241.195 82.5547 241.305C81.9453 241.414 81.2422 241.469 80.4453 241.469C79.1484 241.469 78 241.242 77 240.789C76 240.32 75.2188 239.562 74.6562 238.516C74.0938 237.469 73.8125 236.078 73.8125 234.344V209.43ZM97.4609 233.336L104.258 206.875H107.82L107.422 213.695L100.156 241H96.4531L97.4609 233.336ZM92.375 206.875L97.8828 233.125L98.375 241H94.4375L86.5391 206.875H92.375ZM115.531 233.055L120.969 206.875H126.828L118.93 241H114.992L115.531 233.055ZM109.203 206.875L115.93 233.406L116.914 241H113.211L106.062 213.695L105.688 206.875H109.203ZM128.797 228.602V228.062C128.797 226.234 129.062 224.539 129.594 222.977C130.125 221.398 130.891 220.031 131.891 218.875C132.906 217.703 134.141 216.797 135.594 216.156C137.062 215.5 138.719 215.172 140.562 215.172C142.422 215.172 144.078 215.5 145.531 216.156C147 216.797 148.242 217.703 149.258 218.875C150.273 220.031 151.047 221.398 151.578 222.977C152.109 224.539 152.375 226.234 152.375 228.062V228.602C152.375 230.43 152.109 232.125 151.578 233.688C151.047 235.25 150.273 236.617 149.258 237.789C148.242 238.945 147.008 239.852 145.555 240.508C144.102 241.148 142.453 241.469 140.609 241.469C138.75 241.469 137.086 241.148 135.617 240.508C134.164 239.852 132.93 238.945 131.914 237.789C130.898 236.617 130.125 235.25 129.594 233.688C129.062 232.125 128.797 230.43 128.797 228.602ZM134.445 228.062V228.602C134.445 229.742 134.562 230.82 134.797 231.836C135.031 232.852 135.398 233.742 135.898 234.508C136.398 235.273 137.039 235.875 137.82 236.312C138.602 236.75 139.531 236.969 140.609 236.969C141.656 236.969 142.562 236.75 143.328 236.312C144.109 235.875 144.75 235.273 145.25 234.508C145.75 233.742 146.117 232.852 146.352 231.836C146.602 230.82 146.727 229.742 146.727 228.602V228.062C146.727 226.938 146.602 225.875 146.352 224.875C146.117 223.859 145.742 222.961 145.227 222.18C144.727 221.398 144.086 220.789 143.305 220.352C142.539 219.898 141.625 219.672 140.562 219.672C139.5 219.672 138.578 219.898 137.797 220.352C137.031 220.789 136.398 221.398 135.898 222.18C135.398 222.961 135.031 223.859 134.797 224.875C134.562 225.875 134.445 226.938 134.445 228.062ZM162.781 220.469V241H157.133V215.641H162.523L162.781 220.469ZM170.539 215.477L170.492 220.727C170.148 220.664 169.773 220.617 169.367 220.586C168.977 220.555 168.586 220.539 168.195 220.539C167.227 220.539 166.375 220.68 165.641 220.961C164.906 221.227 164.289 221.617 163.789 222.133C163.305 222.633 162.93 223.242 162.664 223.961C162.398 224.68 162.242 225.484 162.195 226.375L160.906 226.469C160.906 224.875 161.062 223.398 161.375 222.039C161.688 220.68 162.156 219.484 162.781 218.453C163.422 217.422 164.219 216.617 165.172 216.039C166.141 215.461 167.258 215.172 168.523 215.172C168.867 215.172 169.234 215.203 169.625 215.266C170.031 215.328 170.336 215.398 170.539 215.477ZM179.773 205V241H174.102V205H179.773ZM195.523 215.641L184.484 227.875L178.438 234.062L176.961 229.281L181.531 223.633L188.703 215.641H195.523ZM189.922 241L181.695 229.094L185.258 225.133L196.461 241H189.922Z" fill="#6495ED"/>
</svg>
