<?xml version="1.0" encoding="UTF-8"?>
<svg xmlns="http://www.w3.org/2000/svg" id="Icons" viewBox="0 0 60 60" width="60" height="60"><defs><style>.cls-1{fill:#dfedef;}.cls-2{fill:#f74850;}.cls-3{fill:#32496b;}.cls-4{fill:#262626;}</style></defs><path class="cls-1" d="M10.942,59.47a.5.5,0,0,1-.257-.929l.45-.27L9.179,59.4a.5.5,0,0,1-.509-.86l7.4-4.473-8.8,5.082a.5.5,0,0,1-.514-.857L31.224,43.135,5.087,58.225a.5.5,0,0,1-.511-.86l20.74-12.691L3.7,57.151a.5.5,0,0,1-.51-.86L20.781,45.6,2.732,56.022a.5.5,0,0,1-.511-.858L28.331,39.1,1.851,54.385a.5.5,0,0,1-.511-.86L25.6,38.675,1.38,52.656A.5.5,0,0,1,.868,51.8l25.583-15.71L1.28,50.62a.5.5,0,0,1-.512-.858l23.94-14.746L1.279,48.542a.5.5,0,0,1-.508-.86l8.31-5.021-7.8,4.5a.5.5,0,0,1-.51-.859l13.538-8.261L1.278,45.566a.5.5,0,0,1-.508-.86l4.657-2.817L1.278,44.283a.5.5,0,0,1-.513-.857L17.539,33.008,1.277,42.4a.5.5,0,0,1-.512-.858l11.941-7.38-11.429,6.6A.5.5,0,0,1,.761,39.9l15.19-9.575L1.276,38.8a.5.5,0,0,1-.517-.856l12.98-8.216-12.463,7.2a.5.5,0,0,1-.519-.854l12.064-7.725L1.275,35.008a.5.5,0,0,1-.513-.858l.721-.447-.208.12a.5.5,0,0,1-.515-.856l2.481-1.554L1.275,32.548a.5.5,0,0,1-.526-.85l9.17-6.071L1.274,30.618a.5.5,0,0,1-.518-.854l1.566-1-1.048.6a.5.5,0,0,1-.519-.853l.546-.351-.028.016a.5.5,0,0,1-.544-.837l7.145-5.217-6.6,3.811a.5.5,0,0,1-.54-.84l3.411-2.433L1.272,24.322A.5.5,0,0,1,.7,23.511L4.63,20.122,1.272,22.061a.5.5,0,0,1-.581-.808l1.46-1.287-.88.508a.5.5,0,0,1-.7-.655l.8-1.608A.476.476,0,0,1,.9,17.963a.5.5,0,0,1,.183-.684L2.263,16.6a.5.5,0,0,1,.7.655L2.2,18.781,5.988,16.6a.5.5,0,0,1,.581.807L5.11,18.69,8.737,16.6a.5.5,0,0,1,.576.811L5.38,20.8l7.276-4.2a.5.5,0,0,1,.54.84L9.785,19.869l5.67-3.273a.5.5,0,0,1,.545.837L8.852,22.651,19.344,16.6a.5.5,0,0,1,.519.853l-.537.345L21.4,16.6a.5.5,0,0,1,.519.854l-1.559.994,3.2-1.849a.5.5,0,0,1,.527.849l-9.176,6.075,11.994-6.924a.5.5,0,0,1,.516.856l-2.463,1.542,4.156-2.4a.5.5,0,0,1,.514.857l-.723.447,2.261-1.3a.5.5,0,0,1,.519.853l-12.06,7.723,14.856-8.577a.5.5,0,0,1,.518.855l-13,8.229,15.735-9.084a.5.5,0,0,1,.517.855L23.087,27.01,41.134,16.591a.5.5,0,0,1,.512.858l-11.96,7.392,14.29-8.25a.5.5,0,0,1,.513.857L27.73,27.856,47.244,16.59a.5.5,0,0,1,.509.86l-4.695,2.841,6.411-3.7a.5.5,0,0,1,.51.859L36.434,25.715,52.239,16.59a.5.5,0,0,1,.509.86l-8.277,5,10.153-5.861a.5.5,0,0,1,.513.858L31.191,32.2,57.912,16.77a.5.5,0,0,1,.512.858L32.847,33.334,58.72,18.4a.5.5,0,0,1,.51.86L34.962,34.113,58.72,20.4a.5.5,0,0,1,.511.859L33.126,37.32,58.72,22.544a.5.5,0,0,1,.509.86l-17.6,10.7L58.72,24.234a.5.5,0,0,1,.51.86L38.5,37.779,58.72,26.105a.5.5,0,0,1,.513.858L34.759,42.121,58.72,28.288a.5.5,0,0,1,.509.86l-7.386,4.464,6.877-3.969a.5.5,0,0,1,.508.861l-.491.294a.5.5,0,0,1,.5.867L38.17,44.878,58.72,33.014a.5.5,0,0,1,.511.858l-9.968,6.119,9.457-5.459a.5.5,0,0,1,.513.858L47.8,42.474l10.919-6.3a.5.5,0,0,1,.509.859l-.437.267a.5.5,0,0,1,.449.888L42.92,48.754l15.8-9.122a.5.5,0,0,1,.523.851L45.418,49.522l13.3-7.679a.5.5,0,0,1,.518.854l-6.861,4.37,6.343-3.661a.5.5,0,0,1,.531.846L48.2,51.774,58.72,45.7a.5.5,0,0,1,.528.848l-6.817,4.575,6.289-3.631a.5.5,0,0,1,.533.845l-5.568,3.825,5.035-2.906a.5.5,0,0,1,.534.844l-3.271,2.259,2.727-1.574a.5.5,0,0,1,.552.831l-3.857,2.922L58.4,52.812a.5.5,0,0,1,.558.825l-1.762,1.385.257-.147a.5.5,0,1,1,.5.865l-6.313,3.646a.5.5,0,0,1-.559-.825l1.765-1.389L48.978,59.4a.5.5,0,0,1-.552-.831l3.852-2.919-6.5,3.75a.5.5,0,0,1-.534-.843L48.524,56.3,43.142,59.4a.5.5,0,0,1-.534-.844l5.565-3.823L40.088,59.4a.5.5,0,0,1-.528-.847l6.823-4.579-9.4,5.426a.5.5,0,0,1-.531-.845L47.5,51.036,33.012,59.4a.5.5,0,0,1-.519-.854l6.861-4.37L30.3,59.4a.5.5,0,0,1-.524-.851L43.6,49.513,26.475,59.4a.5.5,0,0,1-.522-.852L42.275,47.979,22.489,59.4a.5.5,0,0,1-.51-.859l.2-.123-1.7.982a.5.5,0,0,1-.514-.857L31.4,51.459,17.642,59.4a.5.5,0,0,1-.512-.858l9.953-6.11L15.013,59.4a.5.5,0,0,1-.516-.856L35.568,45.329,11.192,59.4A.5.5,0,0,1,10.942,59.47Z"/><path class="cls-2" d="M1.72,18.5a.5.5,0,0,1-.279-.915l5.581-3.749L1.28,17.151a.5.5,0,0,1-.534-.844l5.217-3.6-4.683,2.7a.5.5,0,0,1-.536-.843l3.3-2.3-2.737,1.58a.5.5,0,0,1-.551-.832L4.02,10.557,1.7,11.9A.5.5,0,0,1,1.1,11.1L3.54,8.784a.5.5,0,0,1-.35-.923L6.6,5.892a.5.5,0,0,1,.594.8L4.839,8.929,10.61,5.6a.5.5,0,0,1,.551.832L7.9,8.887,13.6,5.6a.5.5,0,0,1,.536.842l-3.3,2.3L16.285,5.6a.5.5,0,0,1,.534.844l-5.212,3.593L19.293,5.6a.5.5,0,0,1,.528.847l-5.58,3.748L22.2,5.6a.5.5,0,0,1,.53.846l-6.1,4.129L25.251,5.6a.5.5,0,0,1,.523.851L22.545,8.561,27.678,5.6a.5.5,0,0,1,.531.846l-6.261,4.249L30.775,5.6a.5.5,0,0,1,.534.844l-6.878,4.723L34.075,5.6a.5.5,0,0,1,.526.849l-4.232,2.8L36.683,5.6a.5.5,0,0,1,.535.842l-7.45,5.184L40.206,5.6a.5.5,0,0,1,.534.843L33.564,11.4,43.618,5.6a.5.5,0,0,1,.528.847l-5.39,3.612L46.48,5.6a.5.5,0,0,1,.539.841L39.1,12.016,50.222,5.6a.5.5,0,0,1,.537.841l-7.831,5.506L53.229,6a.5.5,0,0,1,.53.847l-5.382,3.636L54.858,6.74a.5.5,0,0,1,.537.843L49.468,11.72l6.781-3.915a.5.5,0,0,1,.525.849l-1.023.678,1.238-.715a.5.5,0,0,1,.548.835L52.55,13.143l5.351-3.09a.5.5,0,0,1,.54.84L56.462,12.3l1.9-1.094a.5.5,0,0,1,.539.841l-.211.149a.5.5,0,0,1,.491.854l-1.929,1.616,1.474-.851a.5.5,0,0,1,.587.8l-.658.6.081-.047a.5.5,0,0,1,.727.583l-.4,1.282a.5.5,0,0,1,.19.929l-.759.438a.5.5,0,0,1-.726-.583l.358-1.141L55.13,18.4a.5.5,0,0,1-.587-.8l.654-.595-2.424,1.4a.5.5,0,0,1-.571-.815l1.933-1.619-4.22,2.435a.5.5,0,0,1-.539-.841l.145-.1-1.636.943a.5.5,0,0,1-.54-.84l1.971-1.4-3.89,2.246a.5.5,0,0,1-.548-.835l4.993-3.694-7.849,4.53a.5.5,0,0,1-.525-.849l1-.665-2.625,1.516a.5.5,0,0,1-.536-.843l5.935-4.142-8.638,4.986a.5.5,0,0,1-.531-.847l5.372-3.629L33.72,18.416a.5.5,0,0,1-.537-.842l7.834-5.508-11,6.352a.5.5,0,0,1-.538-.842L37.393,12,26.27,18.42a.5.5,0,0,1-.529-.848l5.392-3.612-7.728,4.461a.5.5,0,0,1-.534-.844l7.175-4.96L19.99,18.423a.5.5,0,0,1-.535-.843L26.9,12.4l-10.44,6.028a.5.5,0,0,1-.526-.85l4.238-2.8-6.322,3.65a.5.5,0,0,1-.534-.845L20.2,12.859l-9.646,5.569a.5.5,0,0,1-.531-.847l6.259-4.248L7.45,18.43a.5.5,0,0,1-.523-.852l3.23-2.112L5.021,18.431a.5.5,0,0,1-.53-.847l6.1-4.126L1.97,18.433A.494.494,0,0,1,1.72,18.5Z"/><path class="cls-3" d="M12.307,11.47a.5.5,0,0,1-.44-.74l.813-1.49L10.3,10.613a.5.5,0,0,1-.588-.8l.545-.5a.5.5,0,0,1-.58-.8l1.216-1.209-.614.353a.5.5,0,0,1-.608-.781L11.1,5.411l-.818.472a.5.5,0,0,1-.635-.751l1.747-2.118-1.112.64a.5.5,0,0,1-.687-.675l.433-.782a.5.5,0,0,1-.193-.929L10.994.6a.5.5,0,0,1,.688.674l-.341.616L13.286.765a.5.5,0,0,1,.636.751L12.175,3.635l1.545-.892a.5.5,0,0,1,.608.781L12.9,4.988l.816-.47a.5.5,0,0,1,.6.787L13.1,6.516l.616-.355a.5.5,0,0,1,.588.8l-.549.5a.5.5,0,0,1,.65.692L13.6,9.648l.123-.07a.5.5,0,0,1,.5.865l-1.662.959A.49.49,0,0,1,12.307,11.47Z"/><path class="cls-3" d="M30.708,11.47a.5.5,0,0,1-.454-.71l.6-1.294L28.4,10.885a.5.5,0,0,1-.6-.789l1.015-1-.529.3a.5.5,0,0,1-.623-.765l1.874-2.1-1.251.722a.5.5,0,0,1-.583-.806l.427-.381a.5.5,0,0,1-.456-.836l1.438-1.51L28.28,4.2a.5.5,0,0,1-.707-.636l.61-1.374a.5.5,0,0,1-.35-.922L28.994.6a.5.5,0,0,1,.707.635l-.592,1.334,2.5-1.444a.5.5,0,0,1,.613.777l-1.44,1.511.936-.539a.5.5,0,0,1,.583.806l-.427.381a.494.494,0,0,1,.481.175.5.5,0,0,1-.014.649l-1.874,2.1,1.251-.721a.5.5,0,0,1,.6.789l-1.015,1,.415-.239a.5.5,0,0,1,.7.642L31.81,9.78a.5.5,0,0,1,.369.919l-1.221.7A.5.5,0,0,1,30.708,11.47Z"/><path class="cls-3" d="M47.993,11.47a.5.5,0,0,1-.391-.811l.34-.43-1.432.828a.5.5,0,0,1-.629-.759l1.793-2.086-1.394.8a.5.5,0,0,1-.606-.784L47.03,6.854l-.75.433a.5.5,0,0,1-.609-.78l1.45-1.5L46.28,5.5a.5.5,0,0,1-.6-.789l.945-.932-.344.2a.5.5,0,0,1-.7-.651L46.124,2.2a.475.475,0,0,1-.474-.248.5.5,0,0,1,.183-.682L46.994.6a.5.5,0,0,1,.7.65l-.506,1.046L49.5.957a.5.5,0,0,1,.6.789l-.946.933.561-.324a.5.5,0,0,1,.609.781l-1.448,1.5.839-.485a.5.5,0,0,1,.606.784L48.968,6.311l.752-.434a.5.5,0,0,1,.629.759L48.556,8.721l1.164-.672a.5.5,0,0,1,.641.743l-.427.538a.5.5,0,0,1,.286.932L48.243,11.4A.49.49,0,0,1,47.993,11.47Z"/><path class="cls-4" d="M59.737,40.314c-1.851-9.935,6.03-34.554-9.012-34.872-.207-1.7.918-5.137-1.853-4.859-3.729-.774-3.863,2.32-3.6,5.139H32.724c-.271-1.7,1.031-5.316-1.761-5.088C27-.058,27.069,2.678,27.276,5.727H14.735c-.181-1.536.435-3.39-.366-4.757-4.244-1.831-5.669.3-5.1,4.479C-5.2,6.626,1.825,25.74.262,35.4,1.276,42.91-2.92,53.754,4.738,58.53c13.55,2.632,28.042.272,41.9,1.038C60.562,61.248,60.258,50.849,59.737,40.314ZM46.789,1.417c-.037.019-.07,0,0,0Zm-.042.293c.019-.083.092-.175.1-.249,0,.031.012,0,.026-.042,3.257-.693,2.281,1.89,2.4,4.072-.14,1.6.289,3.6-.166,5.092a18.652,18.652,0,0,1-1.923-.016C46.019,8.141,47.02,4.5,46.747,1.71ZM28.756,1.63a2.3,2.3,0,0,1,.127-.259c1.2-.07,2.721-.253,2.392,1.473-.155,2.558.312,5.329-.181,7.79a12.957,12.957,0,0,1-1.9-.037C28.034,8.1,28.993,4.458,28.756,1.63ZM10.773,1.7c.5-.37,1.494-.113,2.129-.155.848.949.146,2.723.363,3.957-.179,1.534.366,3.593-.2,4.952-.648-.025-1.416.053-2.035-.033C10.271,7.8,10.913,4.506,10.773,1.7ZM4.307,8.267A7.581,7.581,0,0,1,9.265,6.579c.121,1.858-.818,5.361,2.165,4.966,3.7.771,3.455-2.654,3.305-5.272H27.276c.237,1.77-1.03,5.461,1.92,5.093,3.9.664,3.691-2.171,3.528-5.088H45.275c.163,1.474-.384,3.262.261,4.619.856.885,2.264.41,3.367.511,2.575-.128,1.681-3.086,1.822-4.822,5.878-.132,8.3,5.822,7.54,10.911H1.737C1.708,14.2,1.505,10.607,4.307,8.267ZM58.263,50.533c.242,5.166-4.31,8.69-9.3,7.9q-19.794,0-39.589,0c-5.446.1-8.425-5.158-7.641-10.129V18.5H58.263Z"/></svg>
