<svg width="1282" height="992" viewBox="0 0 1282 992" fill="none" xmlns="http://www.w3.org/2000/svg">
<mask id="mask0_30_15" style="mask-type:luminance" maskUnits="userSpaceOnUse" x="0" y="0" width="1282" height="992">
<path d="M1.18295e-05 0L0 992L1282 992L1282 1.52877e-05L1.18295e-05 0Z" fill="white"/>
</mask>
<g mask="url(#mask0_30_15)">
<mask id="mask1_30_15" style="mask-type:luminance" maskUnits="userSpaceOnUse" x="0" y="0" width="1282" height="992">
<path d="M1.18295e-05 0L0 992L1282 992L1282 1.52877e-05L1.18295e-05 0Z" fill="white"/>
</mask>
<g mask="url(#mask1_30_15)">
<mask id="mask2_30_15" style="mask-type:luminance" maskUnits="userSpaceOnUse" x="0" y="-2690" width="1282" height="3682">
<path d="M4.38985e-05 -2689.25L0 992L1282 992L1282 -2689.25L4.38985e-05 -2689.25Z" fill="white"/>
</mask>
<g mask="url(#mask2_30_15)">
<path d="M1284.25 770.867C1284.26 772.673 1282.59 774.43 1279.5 775.87C1276.41 777.31 1272.08 778.352 1267.16 778.838C1262.24 779.323 1257 779.226 1252.26 778.559C1247.51 777.893 1243.51 776.695 1240.87 775.149L1168.77 733.154L1280.98 801.867C1284.04 803.744 1284.89 805.97 1283.36 808.068C1281.82 810.165 1278.02 811.966 1272.77 813.082C1267.51 814.198 1261.24 814.54 1255.28 814.035C1249.32 813.53 1244.16 812.218 1240.91 810.381L766.718 541.053L1280.98 856.179C1283.88 858.048 1284.64 860.243 1283.07 862.304C1281.51 864.365 1277.75 866.132 1272.59 867.236C1267.43 868.34 1261.26 868.695 1255.37 868.228C1249.48 867.76 1244.33 866.505 1241 864.726L656.62 537.532L1280.98 919.981C1283.85 921.857 1284.57 924.053 1282.97 926.11C1281.37 928.168 1277.59 929.927 1272.41 931.02C1267.22 932.113 1261.05 932.456 1255.17 931.976C1249.29 931.497 1244.16 930.232 1240.87 928.446L876.91 719.679L1264.33 956.949C1267.24 958.819 1267.99 961.014 1266.43 963.075C1264.86 965.135 1261.11 966.903 1255.95 968.007C1250.78 969.111 1244.61 969.466 1238.72 968.998C1232.84 968.531 1227.69 967.276 1224.36 965.497L632.59 635.409L1180.18 970.837C1183.06 972.713 1183.77 974.909 1182.17 976.967C1180.58 979.024 1176.79 980.783 1171.61 981.877C1166.43 982.97 1160.25 983.313 1154.38 982.833C1148.5 982.353 1143.37 981.088 1140.07 979.303L880.038 830.139L1109.73 970.837C1112.55 972.705 1113.24 974.885 1111.65 976.927C1110.06 978.969 1106.32 980.717 1101.19 981.812C1096.07 982.906 1089.95 983.263 1084.1 982.808C1078.24 982.353 1073.12 981.122 1069.76 979.369L683.454 762.187L1023.85 970.837C1026.67 972.701 1027.36 974.876 1025.79 976.915C1024.22 978.954 1020.49 980.703 1015.39 981.801C1010.28 982.9 1004.18 983.265 998.338 982.822C992.493 982.379 987.354 981.161 983.968 979.418L577.234 754.862L930.064 970.837C932.984 972.712 933.734 974.913 932.156 976.979C930.579 979.045 926.798 980.814 921.61 981.915C916.422 983.015 910.231 983.362 904.336 982.881C898.441 982.4 893.302 981.129 889.998 979.336L745.587 897.562L865.218 970.837C868.248 972.709 869.081 974.925 867.552 977.012C866.024 979.099 862.255 980.892 857.039 982.009C851.823 983.127 845.583 983.479 839.644 982.992C833.705 982.505 828.539 981.217 825.246 979.402L607.761 858.692L791.027 970.837C793.947 972.712 794.698 974.913 793.12 976.979C791.542 979.045 787.762 980.814 782.573 981.915C777.385 983.015 771.194 983.362 765.299 982.881C759.399 982.4 754.26 981.129 750.962 979.336L739.04 972.573C740.81 974.494 740.53 976.578 738.257 978.431C735.978 980.284 731.863 981.778 726.68 982.631C721.503 983.484 715.619 983.636 710.146 983.059C704.667 982.483 699.977 981.217 696.964 979.501L473.961 859.419L655.918 970.837C658.827 972.682 659.638 974.85 658.17 976.898C656.707 978.946 653.08 980.718 648.034 981.85C642.994 982.982 636.913 983.388 631.051 982.985C625.189 982.582 619.984 981.4 616.505 979.683L351.567 844.49L557.785 970.837C560.776 972.687 561.631 974.873 560.174 976.94C558.716 979.007 555.057 980.795 549.962 981.932C544.868 983.068 538.729 983.465 532.827 983.04C526.924 982.615 521.714 981.4 518.281 979.65L365.219 900.901L479.338 970.837C482.29 972.66 483.17 974.811 481.8 976.854C480.431 978.897 476.913 980.68 471.962 981.839C467.012 982.999 460.998 983.449 455.144 983.097C449.289 982.746 444.033 981.62 440.441 979.947L261.244 895.627L383.966 970.837C386.82 972.648 387.646 974.773 386.28 976.789C384.914 978.805 381.455 980.566 376.59 981.723C371.725 982.88 365.808 983.348 360.013 983.034C354.218 982.72 348.967 981.648 345.303 980.03L238.15 931.323L302.619 970.837C305.275 972.55 306.131 974.539 305.036 976.453C303.941 978.367 300.964 980.083 296.635 981.295C292.305 982.507 286.902 983.138 281.383 983.076C275.863 983.014 270.584 982.263 266.481 980.956L149.603 941.623L197.102 970.837C199.656 972.46 200.59 974.34 199.754 976.173C198.918 978.007 196.361 979.688 192.494 980.944C188.627 982.201 183.677 982.961 178.44 983.101C173.203 983.241 167.986 982.753 163.628 981.716L116.55 969.978C116.478 971.459 115.374 972.912 113.336 974.207C111.297 975.502 108.386 976.599 104.862 977.401C99.5034 978.494 93.1389 978.79 87.1623 978.226C81.1862 977.662 76.0856 976.283 72.9781 974.392L28.0503 946.996C25.4239 945.367 24.4425 943.47 25.2673 941.617C26.092 939.764 28.674 938.066 32.589 936.8C36.5041 935.535 41.5195 934.778 46.8116 934.654C52.1036 934.53 57.358 935.046 61.7113 936.117L103.46 946.517L28.0503 900.256C25.2703 898.536 24.3298 896.52 25.4 894.576C26.4702 892.631 29.48 890.886 33.8813 889.66C38.2825 888.434 43.7824 887.808 49.3794 887.896C54.9764 887.984 60.2983 888.779 64.3761 890.138L181.253 929.454L28.0503 835.644C25.1419 833.833 24.275 831.699 25.6228 829.671C26.9707 827.643 30.434 825.87 35.32 824.706C40.2059 823.543 46.1542 823.074 51.9749 823.395C57.7957 823.715 63.0596 824.801 66.7133 826.435L173.773 875.142L28.0503 785.813C25.16 783.992 24.3263 781.851 25.7165 779.821C27.1067 777.792 30.618 776.023 35.5445 774.87C40.471 773.719 46.4476 773.27 52.2731 773.613C58.0987 773.956 63.3412 775.066 66.9472 776.719L246.237 861.04L28.0503 727.367C25.176 725.522 24.4028 723.358 25.8885 721.318C27.3742 719.278 31.0068 717.514 36.044 716.391C41.0813 715.265 47.1431 714.862 52.991 715.265C58.8388 715.668 64.0315 716.844 67.5082 718.555L220.431 797.27L28.0503 679.338C25.1365 677.493 24.3296 675.325 25.7951 673.277C27.2606 671.229 30.8872 669.459 35.9307 668.325C40.9741 667.194 47.0515 666.789 52.9151 667.192C58.7791 667.595 63.9838 668.775 67.4617 670.493L332.352 805.669L28.0503 619.206C25.1917 617.35 24.4554 615.174 25.993 613.13C27.5305 611.086 31.225 609.328 36.3161 608.218C41.4072 607.108 47.5076 606.73 53.362 607.164C59.2163 607.596 64.3794 608.805 67.7887 610.543L290.604 730.558L28.0503 569.639C25.1844 567.769 24.469 565.58 26.0527 563.526C27.6365 561.474 31.3975 559.715 36.5532 558.618C41.7089 557.521 47.862 557.171 53.7323 557.636C59.6026 558.103 64.7377 559.352 68.0692 561.125L71.1082 562.778L28.0503 536.441C25.1901 534.574 24.47 532.39 26.0391 530.34C27.6083 528.292 31.3465 526.535 36.4791 525.435C41.6117 524.332 47.7453 523.972 53.6089 524.427C59.4727 524.882 64.6172 526.117 67.9756 527.876L285.181 648.52L28.0503 491.04C25.2627 489.17 24.605 486.995 26.2123 484.96C27.8197 482.924 31.5699 481.184 36.6928 480.097C41.8156 479.008 47.922 478.656 53.7574 479.111C59.5927 479.566 64.7141 480.793 68.0692 482.542L212.203 564.2L28.0503 451.36C25.1497 449.494 24.3953 447.307 25.9442 445.249C27.4931 443.192 31.2258 441.426 36.3651 440.318C41.5045 439.21 47.6542 438.846 53.5338 439.301C59.4136 439.756 64.57 440.996 67.929 442.763L474.663 667.335L28.0503 393.774C25.2275 391.906 24.5395 389.726 26.1281 387.684C27.7167 385.644 31.4608 383.894 36.588 382.8C41.7152 381.707 47.8344 381.348 53.6834 381.804C59.5324 382.259 64.6654 383.489 68.0227 385.243L454.326 602.425L28.0503 341.231C25.0586 339.353 24.2595 337.137 25.8231 335.054C27.3867 332.969 31.1894 331.185 36.4207 330.078C41.6519 328.972 47.898 328.633 53.8274 329.131C59.7571 329.631 64.901 330.929 68.1629 332.75L328.192 481.996L28.0503 298.063C25.2643 296.197 24.5991 294.027 26.1908 291.995C27.7826 289.962 31.5109 288.223 36.6126 287.13C41.7144 286.037 47.8037 285.677 53.6341 286.118C59.4645 286.562 64.5952 287.777 67.9756 289.515L659.468 619.521L28.0503 232.657C25.1745 230.781 24.4605 228.586 26.0579 226.529C27.6552 224.471 31.44 222.712 36.6208 221.617C41.8016 220.524 47.977 220.181 53.8556 220.662C59.7346 221.141 64.861 222.406 68.1629 224.192L432.4 433.173L28.0503 185.405C25.143 183.536 24.3925 181.34 25.9557 179.279C27.5189 177.219 31.2748 175.452 36.4377 174.348C41.6005 173.244 47.7706 172.889 53.6573 173.356C59.5439 173.823 64.6911 175.078 68.0227 176.857L652.412 504.052L28.0503 121.603C25.1313 119.728 24.3811 117.527 25.9574 115.461C27.5337 113.394 31.3137 111.625 36.5025 110.525C41.6914 109.424 47.8849 109.079 53.7805 109.56C59.6765 110.04 64.8149 111.311 68.1158 113.104L542.312 382.449L28.0503 67.3069C25.2501 65.4294 24.6009 63.2419 26.2372 61.1979C27.8735 59.1558 31.6697 57.4139 36.8392 56.3348C42.0087 55.2537 48.1549 54.9185 54.0039 55.3989C59.8529 55.8775 64.9563 57.1349 68.2561 58.9078L139.364 100.407L38.429 38.6221C35.2239 36.7447 34.2581 34.4952 35.7442 32.366C37.2302 30.2386 41.0465 28.4057 46.3533 27.2723C51.6601 26.1388 58.0231 25.7959 64.0419 26.3229C70.0607 26.848 75.243 28.1965 78.448 30.0739L649.185 349.779L112.997 21.361C110.005 19.4835 109.206 17.267 110.77 15.1823C112.333 13.0995 116.136 11.3151 121.368 10.2087C126.599 9.10242 132.845 8.76337 138.774 9.26129C144.704 9.76117 149.848 11.0593 153.109 12.8786L427.304 170.211L184.199 21.1633C181.378 19.2995 180.683 17.1237 182.255 15.0855C183.828 13.0452 187.551 11.2976 192.657 10.199C197.763 9.10047 203.865 8.73426 209.708 9.17798C215.552 9.62165 220.695 10.8403 224.077 12.5822L737.358 295.864L288.968 21.1633C286.176 19.2898 285.523 17.1082 287.146 15.0699C288.768 13.0297 292.541 11.2899 297.686 10.2068C302.831 9.12177 308.957 8.77887 314.798 9.24579C320.64 9.71082 325.752 10.9528 329.08 12.7139L395.607 50.9562L346.986 21.1963C344.11 19.3208 343.396 17.1237 344.993 15.066C346.591 13.0084 350.375 11.2491 355.556 10.1564C360.737 9.06366 366.913 8.72071 372.791 9.19928C378.67 9.67975 383.796 10.945 387.098 12.7314L445.63 46.2927L404.723 21.2293C401.718 19.3615 400.886 17.1547 402.404 15.0738C403.921 12.9929 407.669 11.2046 412.854 10.0847C418.038 8.96485 424.252 8.60254 430.177 9.07526C436.103 9.54804 441.277 10.8171 444.602 12.6151L774.246 192.944L493.737 21.1633C490.796 19.3034 489.999 17.114 491.511 15.0525C493.024 12.9891 496.729 11.2143 501.855 10.0944C506.98 8.97449 513.13 8.59864 519.022 9.04236C524.913 9.48798 530.091 10.7202 533.476 12.4833L845.304 179.783L586.4 21.1633C583.447 19.315 582.62 17.1392 584.082 15.0815C585.545 13.0258 589.189 11.2452 594.256 10.1118C599.324 8.9784 605.427 8.5774 611.311 8.99006C617.19 9.40278 622.4 10.6001 625.857 12.3342L952.269 179.42L693.973 21.1633C691.146 19.3073 690.434 17.1411 691.973 15.1067C693.513 13.0704 697.189 11.3209 702.257 10.2126C707.324 9.10432 713.4 8.72266 719.235 9.14307C725.07 9.56544 730.23 10.7609 733.666 12.4833L850.541 75.1441L762.461 21.1633C759.569 19.3247 758.763 17.1663 760.21 15.1261C761.661 13.0859 765.255 11.3189 770.257 10.1835C775.265 9.04627 781.308 8.62776 787.153 9.01331C793.005 9.39692 798.215 10.5556 801.732 12.2509L987.847 105.218L850.87 21.1633C847.922 19.3305 847.062 17.1702 848.476 15.1222C849.884 13.0723 853.45 11.2918 858.447 10.1448C863.443 8.99586 869.497 8.56568 875.359 8.9416C881.222 9.31745 886.459 10.4722 889.998 12.1695L1019.87 75.2428L931.609 21.1633C928.727 19.377 927.834 17.2748 929.105 15.2675C930.37 13.2603 933.707 11.4933 938.462 10.3095C943.218 9.12568 949.047 8.61219 954.816 8.86604C960.585 9.12178 965.877 10.1273 969.663 11.689L1110.34 70.4979L1029.83 21.1633C1027.01 19.4312 1026.05 17.3988 1027.14 15.438C1028.24 13.4772 1031.29 11.7239 1035.76 10.4993C1040.22 9.27485 1045.79 8.66456 1051.43 8.77888C1057.07 8.89509 1062.4 9.72822 1066.44 11.1271L1155.87 41.9953L1122.02 21.1633C1119.34 19.5087 1118.36 17.577 1119.24 15.6976C1120.13 13.8164 1122.82 12.1017 1126.87 10.8423C1130.92 9.58296 1136.07 8.85829 1141.46 8.79048C1146.85 8.72072 1152.14 9.31361 1156.44 10.4664L1193.18 20.3864C1193.99 18.7124 1196.24 17.1683 1199.62 15.9631C1202.99 14.7561 1207.34 13.9481 1212.07 13.6458C1216.79 13.3455 1221.66 13.5645 1226.02 14.2775C1230.37 14.9885 1234.01 16.1568 1236.42 17.6254L1281.12 44.9868C1283.8 46.6415 1284.78 48.5712 1283.9 50.4526C1283.01 52.3339 1280.32 54.0485 1276.27 55.3079C1272.22 56.5653 1267.07 57.2919 1261.68 57.3598C1256.29 57.4295 1251 56.8366 1246.71 55.6838L1220.95 48.7243L1280.98 85.6588C1283.76 87.3871 1284.7 89.4138 1283.59 91.3648C1282.5 93.3178 1279.45 95.0635 1275 96.2841C1270.56 97.5028 1265.02 98.1151 1259.4 98.0065C1253.78 97.9 1248.46 97.0784 1244.42 95.6951L1155.03 64.8443L1280.98 142.005C1283.86 143.792 1284.75 145.894 1283.48 147.899C1282.21 149.906 1278.88 151.673 1274.12 152.857C1269.37 154.041 1263.54 154.556 1257.77 154.301C1252 154.045 1246.71 153.039 1242.92 151.478L1102.15 92.5874L1280.98 202.252C1283.92 204.085 1284.78 206.245 1283.37 208.293C1281.96 210.343 1278.4 212.121 1273.4 213.27C1268.4 214.419 1262.35 214.849 1256.49 214.474C1250.62 214.098 1245.39 212.943 1241.85 211.246L1112.02 148.205L1280.98 251.703C1283.87 253.541 1284.67 255.7 1283.23 257.74C1281.78 259.78 1278.19 261.547 1273.18 262.682C1268.17 263.82 1262.13 264.238 1256.28 263.853C1250.44 263.469 1245.22 262.31 1241.7 260.615L1055.59 167.664L1280.98 305.718C1283.87 307.574 1284.65 309.754 1283.13 311.806C1281.61 313.858 1277.92 315.623 1272.82 316.741C1267.73 317.857 1261.61 318.238 1255.74 317.806C1249.87 317.372 1244.7 316.159 1241.29 314.414L1124.41 251.77L1281.07 347.663C1283.92 349.506 1284.67 351.662 1283.18 353.695C1281.7 355.729 1278.08 357.484 1273.06 358.608C1268.05 359.732 1262.01 360.139 1256.18 359.745C1250.34 359.352 1245.16 358.19 1241.66 356.492L915.151 189.505L1280.98 413.647C1283.92 415.507 1284.72 417.696 1283.21 419.757C1281.69 421.821 1277.98 423.598 1272.86 424.716C1267.73 425.835 1261.59 426.211 1255.69 425.768C1249.8 425.322 1244.62 424.09 1241.24 422.327L929.455 255.01L1280.98 470.357C1283.92 472.221 1284.71 474.414 1283.18 476.48C1281.66 478.547 1277.93 480.322 1272.78 481.438C1267.64 482.554 1261.47 482.922 1255.57 482.465C1249.67 482.007 1244.5 480.762 1241.15 478.987L911.644 298.542L1280.98 524.933C1283.97 526.812 1284.77 529.029 1283.21 531.111C1281.64 533.194 1277.84 534.981 1272.61 536.087C1267.38 537.191 1261.13 537.532 1255.2 537.032C1249.27 536.534 1244.13 535.236 1240.87 533.415L1182.38 499.885L1280.98 560.315C1283.77 562.189 1284.42 564.369 1282.8 566.409C1281.18 568.447 1277.4 570.187 1272.26 571.272C1267.11 572.355 1260.99 572.7 1255.15 572.233C1249.3 571.766 1244.19 570.524 1240.87 568.763L1174.95 530.836L1280.98 595.828C1283.88 597.694 1284.63 599.883 1283.08 601.939C1281.53 603.996 1277.8 605.763 1272.66 606.87C1267.53 607.978 1261.37 608.342 1255.49 607.887C1249.62 607.431 1244.46 606.191 1241.1 604.426L727.677 321.143L1280.98 660.126C1283.85 662.001 1284.57 664.198 1282.97 666.256C1281.37 668.314 1277.59 670.073 1272.41 671.166C1267.22 672.258 1261.05 672.601 1255.17 672.123C1249.29 671.642 1244.16 670.377 1240.87 668.591L966.486 511.161L1280.98 703.807C1283.88 705.676 1284.64 707.872 1283.07 709.933C1281.51 711.994 1277.75 713.761 1272.59 714.866C1267.43 715.968 1261.26 716.325 1255.37 715.856C1249.48 715.389 1244.33 714.133 1241 712.355L670.459 392.683L1280.98 766.733C1283.08 767.984 1284.21 769.41 1284.25 770.867Z" fill="#FF8989" fill-opacity="0.14"/>
</g>
</g>
</g>
</svg>
