<svg id="Icons" viewBox="0 0 60 60" xmlns="http://www.w3.org/2000/svg"><g fill="#aee090"><path d="m46.98 48.827c-.165 0-.326-.082-.421-.23-.145-.226-.086-.523.133-.678l2.573-1.817c-.076-.036-.145-.093-.196-.168-.147-.215-.105-.507.098-.672l3.093-2.508-.379.219c-.225.132-.514.066-.662-.149-.147-.215-.105-.508.098-.672l1.553-1.259c-.192.051-.403-.021-.526-.189-.15-.207-.121-.493.068-.665l2.299-2.087-.728.42c-.216.126-.495.071-.647-.129-.152-.199-.133-.481.045-.658l2.359-2.342-1.047.604c-.217.126-.495.07-.647-.13s-.133-.482.046-.659l1.726-1.701-.765.441c-.214.125-.488.072-.643-.123s-.142-.474.029-.653l1.776-1.873-.977.563c-.219.13-.504.069-.656-.141-.149-.209-.117-.497.075-.667l.381-.336c-.126.012-.304-.06-.405-.187-.154-.192-.146-.468.021-.65l1.505-1.651-.951.549c-.215.127-.493.072-.646-.128-.153-.199-.135-.481.043-.658l.824-.823-.36.208c-.215.126-.491.072-.646-.126-.152-.198-.137-.479.038-.656l.817-.834-.425.245c-.206.12-.469.077-.626-.103-.157-.179-.166-.444-.021-.634l1.547-2.024-1.353.78c-.214.126-.49.073-.644-.124-.153-.195-.14-.475.032-.654l.497-.52-.217.125c-.207.121-.473.074-.629-.106-.157-.183-.162-.45-.012-.638l.491-.616c-.123-.033-.233-.113-.302-.232-.139-.239-.057-.545.183-.683l1.657-.957c.206-.122.472-.076.629.106s.162.45.012.638l-.24.302.958-.553c.213-.126.49-.072.644.124.153.195.14.475-.032.654l-.497.519.487-.28c.205-.121.468-.077.626.103.157.179.166.444.021.634l-1.546 2.023 1.426-.823c.216-.126.492-.072.646.126.152.198.137.479-.038.656l-.817.834.493-.284c.216-.126.493-.071.646.128s.135.481-.043.658l-.824.822.441-.254c.211-.125.484-.075.64.119.154.192.146.468-.021.65l-1.505 1.651 1.071-.618c.221-.129.505-.068.656.141.149.209.117.497-.075.667l-.319.282c.156-.02.335.049.444.188.154.195.142.474-.029.653l-1.776 1.873 1.163-.671c.216-.128.494-.071.647.13.152.2.133.482-.047.659l-1.726 1.701 1.003-.578c.215-.127.494-.072.647.129.152.199.133.481-.045.658l-2.359 2.343 1.435-.828c.219-.128.502-.069.654.138.15.207.121.493-.068.665l-2.3 2.087 1.229-.709c.224-.132.514-.065.662.149.147.215.105.508-.098.672l-1.458 1.182.367-.212c.224-.132.514-.066.662.149.147.215.105.508-.098.672l-3.091 2.506 1.605-.927c.23-.136.527-.062.671.163.145.226.086.523-.133.678l-1.125.795c.182-.023.362.081.458.249.139.239.057.545-.183.683l-8.779 5.068c-.079.046-.165.067-.25.067z"/><path d="m41.879 8.207c-.127 0-.253-.049-.35-.143-.16-.156-.196-.4-.089-.597l.788-1.444-2.303 1.329c-.207.12-.473.077-.629-.106-.156-.182-.162-.449-.013-.638l.898-1.131-2.071 1.196c-.201.119-.459.079-.616-.093-.159-.171-.179-.429-.047-.622l1.066-1.562-2.797 1.614c-.205.121-.47.077-.628-.105-.157-.181-.163-.448-.016-.636l1.061-1.349-2.89 1.668c-.206.119-.467.076-.624-.102-.158-.178-.168-.442-.025-.632l1.207-1.602-3.734 2.155c-.219.13-.505.069-.655-.141-.15-.208-.118-.496.073-.666l.453-.401-2.332 1.346c-.207.121-.472.076-.629-.107-.157-.182-.162-.45-.011-.638l1.598-1.994-7.569 4.37c-.239.138-.545.057-.683-.183-.139-.239-.057-.545.183-.683l9.875-5.699c.206-.122.472-.077.629.107.157.182.162.45.011.638l-1.598 1.994 4.302-2.483c.22-.128.506-.068.655.141.15.208.118.496-.073.666l-.453.402 1.588-.917c.204-.121.467-.077.624.102.158.178.168.442.025.632l-1.207 1.602 3.008-1.736c.206-.121.472-.077.628.105.157.181.163.447.016.636l-1.062 1.35 2.451-1.414c.201-.118.458-.079.616.093.159.171.179.429.047.622l-1.066 1.562 2.45-1.414c.206-.122.472-.077.629.106.156.182.162.449.013.638l-.899 1.131 1.567-.904c.193-.113.438-.082.6.075.16.156.196.4.089.597l-.787 1.443.104-.06c.238-.14.543-.058.683.183.139.239.057.545-.183.683l-1.646.951c-.078.045-.164.067-.25.067z"/><path d="m28.88 59.44c-.157 0-.311-.074-.407-.211-.149-.21-.114-.499.081-.668l.854-.737-2.419 1.396c-.216.126-.494.071-.647-.129-.152-.2-.133-.481.046-.659l1.056-1.047-2.605 1.504c-.203.119-.462.078-.621-.098-.158-.175-.172-.437-.034-.628l1.224-1.692-3.128 1.806c-.209.123-.478.075-.634-.112s-.155-.458.003-.644l.976-1.15-2.235 1.29c-.209.121-.475.074-.631-.109s-.159-.453-.006-.641l.931-1.135-2.041 1.178c-.214.126-.489.071-.644-.125s-.14-.476.034-.654l.468-.486-1.144.66c-.204.121-.466.079-.624-.101-.157-.178-.169-.441-.026-.632l.937-1.251-1.91 1.103c-.214.126-.492.071-.646-.127s-.136-.479.04-.657l.243-.245-.68.392c-.21.124-.481.074-.637-.115s-.15-.464.011-.647l.615-.699-1.158.668c-.198.115-.451.08-.61-.086-.159-.165-.186-.418-.063-.612l1.015-1.614-1.916 1.105c-.198.116-.449.08-.608-.084-.159-.163-.188-.415-.068-.609l1.035-1.691-1.854 1.07c-.199.117-.453.079-.612-.088s-.183-.422-.058-.616l1.038-1.608-1.696.979c-.199.118-.452.08-.613-.089-.158-.168-.182-.423-.056-.616l1.065-1.638-1.634.942c-.202.119-.462.077-.619-.096-.158-.174-.175-.434-.039-.626l1.038-1.466-1.434.827c-.199.118-.453.08-.614-.09-.159-.169-.181-.425-.053-.618l1.161-1.758-1.556.898c-.213.125-.486.072-.643-.122-.153-.195-.142-.473.028-.653l.449-.477-.443.256c-.213.123-.484.074-.64-.119-.154-.191-.146-.468.02-.649l.637-.7-.631.363c-.203.119-.464.078-.622-.099-.158-.176-.171-.438-.031-.63l1.233-1.684-1.362.786c-.203.12-.465.078-.623-.1-.157-.176-.17-.438-.029-.63l1.34-1.82-1.397.807c-.213.125-.486.074-.641-.121-.154-.193-.145-.47.024-.651l.813-.877-.638.367c-.208.122-.475.075-.633-.11-.155-.186-.156-.456-.002-.643l1.311-1.574-1.15.664c-.218.128-.499.07-.65-.134-.152-.203-.128-.487.057-.662l.304-.288c-.21.102-.468.042-.611-.147-.153-.199-.135-.48.044-.658l.749-.746-.388.224c-.214.125-.488.072-.643-.123-.153-.194-.142-.473.029-.653l1.235-1.305-.83.479c-.212.123-.483.074-.64-.119-.154-.191-.146-.467.02-.649l1.668-1.838-1.177.68c-.212.123-.484.074-.639-.118-.154-.19-.147-.466.017-.648l2.056-2.286-1.433.827c-.216.127-.495.071-.647-.13-.152-.199-.133-.481.046-.658l1.795-1.772-1.048.604c-.22.13-.505.069-.656-.141-.149-.209-.117-.497.076-.667l1.121-.987-.326.188c-.22.13-.502.069-.654-.138-.15-.207-.121-.494.068-.666l2.044-1.851-1.042.602c-.223.132-.512.067-.66-.147-.148-.213-.109-.504.091-.67l1.58-1.31-.51.294c-.227.133-.518.064-.664-.152-.147-.218-.101-.512.105-.674l1.465-1.148-.271.156c-.227.131-.517.064-.664-.151-.146-.217-.102-.511.104-.674l4.938-3.906-3.026 1.747c-.235.137-.535.061-.676-.171-.142-.23-.074-.532.152-.681l8.395-5.479-6.25 3.608c-.235.138-.535.06-.678-.173-.141-.232-.07-.535.158-.681l1.841-1.176c-.165.005-.338-.074-.438-.225-.146-.222-.095-.518.117-.676l5.19-3.88c-.164-.008-.32-.097-.408-.249-.139-.239-.057-.545.183-.683l6.491-3.747c.226-.135.52-.063.668.157.146.222.094.518-.118.676l-4.644 3.471 10.658-6.157c.237-.137.535-.059.678.173.141.232.07.535-.158.681l-.769.491 2.827-1.632c.236-.137.535-.061.676.171.142.23.074.532-.152.681l-14.66 9.567c.012.014.023.028.034.044.146.217.102.511-.104.674l-4.938 3.906.455-.262c.226-.133.518-.064.664.152.147.218.101.512-.105.674l-1.73 1.357c.169-.013.346.061.451.213.148.213.109.504-.091.67l-1.583 1.312c.219-.113.488-.051.635.148.15.207.121.494-.068.666l-2.043 1.85.612-.354c.221-.129.505-.068.656.141.149.209.117.497-.076.667l-1.121.987.067-.038c.215-.128.494-.072.647.13.152.199.133.481-.046.658l-1.794 1.771.791-.456c.21-.125.483-.074.639.118.154.19.147.466-.017.648l-2.056 2.286 1.22-.704c.211-.125.482-.075.64.119.154.191.146.467-.02.649l-1.668 1.837 1.03-.595c.213-.125.488-.072.643.123.153.194.142.473-.029.653l-1.234 1.305.73-.422c.215-.128.492-.072.646.129.153.199.135.48-.044.658l-.751.748.318-.184c.218-.128.5-.07.65.134.152.203.128.487-.057.662l-.322.305c.195-.074.42-.02.561.146.155.186.156.456.002.643l-1.31 1.572 1.08-.623c.212-.125.486-.073.641.121.154.193.145.47-.024.651l-.813.878.596-.344c.204-.12.465-.077.623.1.157.176.17.438.029.63l-1.34 1.819 1.352-.779c.203-.119.463-.077.622.099.158.176.171.438.031.63l-1.233 1.684 1.349-.778c.211-.124.482-.075.64.119.154.191.146.468-.02.649l-.638.702.621-.358c.213-.125.486-.072.643.122.153.195.142.473-.028.653l-.448.475.439-.253c.2-.116.454-.08.614.09.159.169.181.425.053.618l-1.161 1.758 1.573-.908c.202-.118.462-.077.619.096.158.174.175.434.039.626l-1.038 1.466 1.464-.845c.2-.116.453-.079.613.089.158.168.182.423.056.616l-1.065 1.639 1.682-.971c.2-.116.454-.078.612.088.159.167.183.422.058.616l-1.038 1.608 1.765-1.019c.197-.116.448-.081.608.084.159.163.188.415.068.609l-1.035 1.691 1.958-1.13c.197-.116.45-.08.61.086.159.165.186.418.063.612l-1.015 1.614 2.046-1.181c.211-.123.481-.075.637.115.155.189.15.464-.011.647l-.616.7 1.276-.736c.216-.126.492-.07.646.127.153.198.136.479-.04.657l-.243.245.793-.457c.205-.12.467-.078.624.101.157.178.169.441.026.632l-.937 1.25 2.107-1.216c.215-.126.489-.072.644.125.154.196.14.476-.034.654l-.469.486 1.343-.774c.206-.123.474-.075.631.109.156.184.159.453.006.641l-.931 1.134 2.354-1.358c.209-.122.478-.075.634.112s.155.458-.003.644l-.976 1.151 2.659-1.535c.204-.119.462-.078.621.098.158.175.172.437.034.628l-1.224 1.692 3.925-2.266c.215-.127.494-.072.647.129.152.2.133.481-.046.659l-1.056 1.046 3.667-2.116c.224-.13.509-.066.657.144.149.21.114.499-.081.668l-.855.738 4.44-2.563c.22-.128.504-.068.654.139s.12.494-.07.666l-2.191 1.971 17.62-10.172c.235-.137.533-.06.676.17.142.23.075.532-.151.681l-3.969 2.608 1.414-.816c.228-.136.524-.062.67.161.145.224.089.521-.128.677l-4.349 3.136c.099.04.186.113.243.213.139.239.057.545-.183.683l-6.57 3.794c-.229.134-.524.062-.67-.161-.145-.224-.089-.521.128-.677l2.792-2.014-7.838 4.525c-.236.137-.533.06-.676-.17-.142-.23-.075-.532.151-.681l3.984-2.618-6.777 3.912c-.218.13-.504.069-.654-.139-.15-.207-.12-.494.07-.666l2.191-1.971-4.901 2.829c-.078.046-.164.067-.25.067z"/></g><path d="m33.018 26.342c-.168 0-.333-.085-.427-.239-.142-.231-.072-.534.156-.681l3.73-2.406-.364.21c-.236.137-.533.06-.676-.17-.142-.23-.075-.531.151-.681l5.002-3.291-1.323.764c-.23.135-.526.062-.672-.164-.144-.225-.085-.523.135-.678l8.953-6.292-3.809 2.198c-.233.136-.529.062-.673-.165-.144-.228-.082-.526.139-.679l4.806-3.317-.839.483c-.228.133-.521.064-.667-.157s-.095-.518.117-.676l4.938-3.695-.346.199c-.218.129-.501.07-.652-.136s-.124-.491.063-.664l4.065-3.754c-.012-.016-.022-.032-.032-.05-.139-.239-.057-.545.183-.683l1.763-1.018c.219-.127.502-.069.652.136.151.206.124.491-.063.664l-2.594 2.396 3.732-2.154c.227-.134.521-.065.667.157.146.221.095.518-.117.676l-4.937 3.695 4.298-2.481c.234-.135.53-.061.673.165.144.228.082.526-.139.679l-4.802 3.314 2.798-1.614c.229-.136.526-.062.672.164.144.225.084.523-.135.678l-8.951 6.291 6.441-3.719c.235-.137.533-.06.676.17.142.23.075.531-.151.681l-5.012 3.297 3.138-1.811c.234-.136.535-.061.677.172.142.231.072.534-.156.681l-3.723 2.401 1.984-1.146c.237-.14.545-.057.683.183.139.239.057.545-.183.683l-19.601 11.316c-.079.046-.165.067-.25.067z" fill="#6bb577"/><path d="m33.536 45.465c-.146 0-.291-.064-.39-.187-.154-.191-.146-.467.02-.649l1.966-2.165-3.475 2.006c-.226.133-.52.065-.665-.154-.146-.218-.099-.513.109-.674l1.701-1.317-1.93 1.113c-.228.133-.521.063-.667-.156s-.096-.516.115-.675l3.426-2.592-3.788 2.187c-.233.137-.529.062-.673-.166-.144-.227-.082-.526.14-.679l1.412-.971-1.557.898c-.229.134-.525.062-.669-.16-.146-.223-.09-.521.125-.677l6.801-4.95-7.383 4.263c-.232.136-.529.062-.673-.166-.144-.227-.082-.526.14-.679l6.851-4.715-7.309 4.219c-.235.137-.536.061-.677-.172-.142-.232-.072-.534.156-.681l2.025-1.305-2.173 1.254c-.235.138-.535.059-.678-.173-.141-.232-.07-.535.159-.682l1.951-1.244-2.091 1.207c-.235.138-.537.06-.678-.174s-.069-.536.16-.682l1.962-1.24-2.099 1.211c-.236.136-.534.06-.677-.171-.142-.231-.073-.533.154-.681l9.188-5.972-9.608 5.548c-.235.138-.537.061-.679-.175-.141-.233-.068-.536.163-.682l4.128-2.589-4.316 2.491c-.228.135-.522.064-.669-.159-.145-.223-.091-.52.123-.677l.884-.648-1.007.581c-.22.131-.505.068-.656-.141-.149-.209-.117-.497.075-.667l3.264-2.879-3.79 2.188c-.217.128-.498.071-.65-.134-.152-.203-.128-.487.057-.661l3.043-2.887-3.624 2.092c-.222.13-.506.067-.656-.141-.149-.209-.117-.497.075-.667l1.986-1.751-2.311 1.333c-.227.132-.516.065-.663-.151s-.104-.509.102-.672l.335-.268-.406.234c-.213.125-.487.073-.642-.122-.154-.193-.143-.472.026-.652l2.016-2.153-2.499 1.442c-.218.127-.499.069-.651-.135-.151-.204-.126-.489.06-.663l.936-.876-1.108.64c-.217.126-.494.071-.647-.129-.152-.2-.133-.482.046-.659l.807-.797-.965.557c-.206.12-.468.076-.626-.103-.157-.18-.166-.445-.021-.635l1.107-1.444-1.414.816c-.199.116-.449.079-.61-.086-.159-.165-.186-.418-.063-.612l.702-1.119c-.224.08-.476-.01-.599-.222-.139-.239-.057-.545.183-.683l1.649-.953c.197-.116.449-.08.61.086.159.165.186.418.063.612l-.693 1.105 1.848-1.066c.204-.121.468-.077.626.103.157.18.166.445.021.635l-1.106 1.442 2.155-1.244c.215-.127.494-.072.647.129.152.2.133.482-.046.659l-.807.798 1.505-.869c.218-.128.499-.069.651.135.151.204.126.489-.06.663l-.937.877 1.651-.953c.213-.125.487-.073.642.122.154.193.143.472-.026.652l-2.016 2.153 3.278-1.893c.226-.134.515-.065.663.151.147.216.104.509-.102.672l-.339.271.86-.496c.222-.13.505-.067.656.141.149.209.117.497-.075.667l-1.985 1.751 2.952-1.704c.217-.128.499-.071.65.134.152.203.128.487-.057.661l-3.041 2.885 4.456-2.572c.221-.129.506-.067.656.141.149.209.117.497-.075.667l-3.265 2.88 4.578-2.643c.229-.133.523-.063.669.159.145.223.091.52-.123.677l-.884.648 20.029-11.563c.237-.136.538-.059.679.175s.068.536-.163.682l-4.108 2.577 2.414-1.394c.235-.137.534-.06.677.171.142.231.073.533-.154.681l-9.195 5.977 7.096-4.097c.237-.136.537-.059.678.174s.069.536-.16.682l-1.962 1.24.35-.201c.237-.137.535-.059.678.173.141.232.07.535-.159.682l-1.951 1.244.33-.19c.236-.137.536-.061.677.172.142.232.072.534-.156.681l-2.034 1.311.396-.229c.234-.134.53-.061.673.166.144.227.082.526-.14.679l-6.846 4.712 4.655-2.688c.229-.135.524-.062.669.16.146.223.09.521-.125.677l-6.806 4.953 4.377-2.526c.234-.136.53-.061.673.166.144.227.082.526-.14.679l-1.558 1.07c.205-.057.434.018.557.204.146.22.096.516-.115.675l-3.429 2.594 1.348-.777c.227-.133.519-.064.665.154s.099.513-.109.674l-1.753 1.357c.194-.063.416-.008.551.16.154.191.146.467-.02.649l-2.189 2.411c.149.02.288.105.369.246.139.239.057.545-.183.683l-2.234 1.291c-.078.046-.164.067-.25.067z" fill="#6bb577"/><path d="m41.566 2.846c-32.326-12.697-57.376 30.471-28.743 51.223 22.574 16.199 55.118-7.274 45.213-33.657-1.071-1.402-3.582-1.016-4.574.302-1.117 2.511 1.079 5.377.775 8.111 1.021 13.807-11.076 26.639-25.025 25.816-22.871-.795-32.012-31.842-13.195-44.894 7.4-5.608 17.171-5.306 25.293-1.685 4.175-.075 4.291-4.409.256-5.216zm1.296 3.999c-.881 1.125-3.005-.396-4.081-.772-33.188-10.268-49.498 37.725-15.794 48.396 18.253 5.403 37.586-12.83 31.823-31.36-.999-1.731.486-4.161 1.99-1.974 8.388 23.813-18.18 46.863-40.346 33.849-28.258-16.105-12.119-60.347 20.023-52.814 1.461.366 8.462 2.022 6.384 4.674z" fill="#262626"/><path d="m22.344 21.221c-1.272-.704-2.528-1.458-3.824-2.117-2.383-1.212-5.342 1.186-3.774 3.684 4.988 6.749 9.976 13.498 14.964 20.246 5.649 7.945 9.516-5.077 12.359-8.915 5.112-8.85 10.225-17.701 15.338-26.551 1.199-2.084 4.109-5.822.377-7.005-1.534-.375-2.55.589-3.49 1.596-7.539 8.076-15.078 16.151-22.617 24.227-3.11-1.722-6.221-3.443-9.331-5.165zm26.089-11.086c2.84-2.767 5.268-6.191 8.336-8.614 1.396-.147 1.647 1.632 1.203 2.525-7.126 12.351-14.274 24.699-21.404 37.052-1.034 2.309-2.918 4.95-5.047 1.961-5.001-6.767-10.003-13.534-15.005-20.302-1.165-1.028-.921-3.509 1.022-2.754 4.552 2.508 9.101 5.046 13.655 7.558.372.206.877.1 1.164-.207 5.358-5.74 10.717-11.479 16.075-17.219z" fill="#262626"/></svg>