<svg id="Icons" height="512" viewBox="0 0 60 60" width="512" xmlns="http://www.w3.org/2000/svg"><path d="m24.014 51.477a.5.5 0 0 1 -.25-.933l20.956-12.1a.5.5 0 0 1 .536.843l-7.744 5.4 7.208-4.162a.5.5 0 0 1 .544.837l-6.052 4.4 5.508-3.18a.5.5 0 0 1 .533.845l-1.213.835.68-.392a.5.5 0 0 1 .551.831l-2.378 1.8 1.827-1.061a.5.5 0 0 1 .57.817l-1.648 1.374.813-.469a.5.5 0 1 1 .5.865l-5.855 3.373a.5.5 0 0 1 -.57-.816l1.644-1.371-3.79 2.188a.5.5 0 0 1 -.552-.831l2.378-1.8-4.55 2.636a.5.5 0 0 1 -.533-.844l1.22-.84-2.919 1.684a.5.5 0 0 1 -.544-.837l6.053-4.4-9.065 5.233a.5.5 0 0 1 -.537-.843l7.741-5.4-10.812 6.25a.5.5 0 0 1 -.25.068z" fill="#6671ff"/><path d="m10.962 59.465a.5.5 0 0 1 -.269-.922l14.723-9.381-15.928 9.2a.5.5 0 0 1 -.519-.853l17.313-11.086-17.008 9.819a.5.5 0 0 1 -.512-.858l4.156-2.551-3.65 2.107a.5.5 0 0 1 -.515-.857l10.426-6.49-9.92 5.726a.5.5 0 0 1 -.515-.856l11.9-7.443-11.393 6.58a.5.5 0 0 1 -.514-.858l9.805-6.094-11.703 6.752a.5.5 0 0 1 -.517-.855l16.964-10.705-19.186 11.075a.5.5 0 0 1 -.51-.86l.594-.36-1.051.605a.5.5 0 0 1 -.511-.86l9.792-6-10.195 5.887a.5.5 0 0 1 -.515-.856l17.862-11.163-18.1 10.45a.5.5 0 0 1 -.512-.858l10.669-6.56-10.343 5.97a.5.5 0 0 1 -.51-.86l3.139-1.91-2.629 1.518a.5.5 0 0 1 -.518-.858l17.549-11.106-17.031 9.832a.5.5 0 0 1 -.515-.857l11.835-7.386-11.32 6.537a.5.5 0 0 1 -.521-.854l16.816-10.811-16.295 9.408a.5.5 0 0 1 -.523-.852l15.634-10.159-15.111 8.724a.5.5 0 0 1 -.521-.854l10.721-6.891-10.2 5.888a.5.5 0 0 1 -.519-.853l6.856-4.381-6.337 3.658a.5.5 0 0 1 -.532-.843l10.8-7.386-10.268 5.924a.5.5 0 0 1 -.536-.838l8.223-5.725-7.687 4.434a.5.5 0 0 1 -.54-.841l5.875-4.168-5.335 3.079a.5.5 0 0 1 -.559-.826l5.17-4.053-4.611 2.664a.5.5 0 0 1 -.573-.814l3.068-2.6-2.427 1.4a.5.5 0 0 1 -.612-.777l1.61-1.69a.486.486 0 0 1 -.474-.249.5.5 0 0 1 .183-.682l2.683-1.55a.5.5 0 0 1 .612.777l-1.494 1.573 4.253-2.452a.5.5 0 0 1 .573.814l-3.069 2.6 5.909-3.414a.5.5 0 0 1 .559.826l-5.171 4.049 8.45-4.875a.5.5 0 0 1 .539.841l-5.868 4.159 8.669-5a.5.5 0 0 1 .536.842l-8.228 5.729 11.384-6.571a.5.5 0 0 1 .532.845l-10.8 7.386 14.26-8.231a.5.5 0 0 1 .519.853l-6.854 4.38 9.066-5.233a.5.5 0 0 1 .521.853l-10.723 6.888 13.418-7.741a.5.5 0 0 1 .523.851l-15.628 10.149 17.967-10.371a.5.5 0 0 1 .521.853l-16.826 10.818 18.5-10.679a.5.5 0 0 1 .514.856l-11.828 7.38 12.972-7.489a.5.5 0 0 1 .517.855l-17.554 11.113 19.11-11.036a.5.5 0 0 1 .51.86l-3.12 1.9 3.827-2.209a.5.5 0 0 1 .512.859l-10.656 6.553 11.657-6.729a.5.5 0 0 1 .514.856l-17.872 11.169 18.229-10.523a.5.5 0 0 1 .511.858l-9.778 6 9.267-5.354a.5.5 0 0 1 .509.86l-.573.347.064-.036a.5.5 0 0 1 .516.855l-16.962 10.708 16.446-9.5a.5.5 0 0 1 .513.857l-9.819 6.1 9.306-5.372a.5.5 0 0 1 .514.856l-11.889 7.444 11.375-6.568a.5.5 0 0 1 .514.858l-10.443 6.5 9.929-5.732a.5.5 0 0 1 .511.859l-4.137 2.54 3.626-2.094a.5.5 0 0 1 .519.854l-17.315 11.084 16.8-9.7a.5.5 0 0 1 .518.855l-29.5 18.8a.5.5 0 0 1 -.249.414l-4.281 2.471a.5.5 0 0 1 -.25.065z" fill="#6671ff"/><path d="m54.953 13.1a.5.5 0 0 1 -.34-.867l.279-.257-.806.465a.5.5 0 0 1 -.58-.808l1.329-1.169-2.145 1.236a.5.5 0 0 1 -.593-.8l2.634-2.487-3.942 2.275a.5.5 0 0 1 -.566-.819l1.859-1.52-2.226 1.285a.5.5 0 0 1 -.57-.817l2.066-1.726-2.181 1.259a.5.5 0 0 1 -.575-.813l1.993-1.706-2.112 1.22a.5.5 0 0 1 -.569-.819l1.254-1.032-1.281.74a.5.5 0 0 1 -.61-.781l2.352-2.434a.491.491 0 0 1 -.227-.206.5.5 0 0 1 .182-.683l2.106-1.219a.5.5 0 0 1 .609.78l-1.829 1.894 3.384-1.953a.5.5 0 0 1 .568.818l-1.251 1.033 1.613-.931a.5.5 0 0 1 .576.812l-2 1.708 2.5-1.442a.5.5 0 0 1 .571.816l-2.064 1.727 2.56-1.479a.5.5 0 0 1 .566.82l-1.859 1.52 2.3-1.328a.5.5 0 0 1 .592.8l-2.632 2.488 2.812-1.626a.5.5 0 0 1 .58.808l-1.324 1.165.307-.177a.5.5 0 0 1 .59.8l-2.486 2.3a.5.5 0 0 1 -.241.526l-.923.533a.49.49 0 0 1 -.25.071z" fill="#ea524e"/><path d="m26.035 35.412a.5.5 0 0 1 -.3-.9l2.076-1.52-2.47 1.426a.5.5 0 0 1 -.54-.84l1.666-1.186-.947.546a.5.5 0 0 1 -.551-.832l3.236-2.442-2.125 1.227a.5.5 0 0 1 -.573-.815l2.67-2.254-1.494.863a.5.5 0 0 1 -.605-.786l1.449-1.459-.274.157a.5.5 0 0 1 -.653-.729l.92-1.251a.43.43 0 0 1 -.061-.084.5.5 0 0 1 .183-.683l.857-.494a.5.5 0 0 1 .653.729l-.334.454 1.449-.836a.5.5 0 0 1 .6.785l-1.449 1.461 3.118-1.8a.5.5 0 0 1 .572.815l-2.668 2.253 4.3-2.485a.5.5 0 0 1 .551.833l-3.223 2.435 2.992-1.727a.5.5 0 0 1 .54.84l-1.665 1.187 1.371-.791a.5.5 0 0 1 .545.836l-2.077 1.52 1.8-1.036a.5.5 0 0 1 .622.767l-1.7 1.887 1.438-.829a.5.5 0 0 1 .5.866l-4.162 2.4a.5.5 0 0 1 -.622-.767l1.7-1.887-7.061 4.076a.494.494 0 0 1 -.254.07z" fill="#d6a670"/><path d="m36.157 31.926a.5.5 0 0 1 -.34-.866l1.716-1.594-2.233 1.29a.5.5 0 0 1 -.542-.839l.972-.7-1.249.72a.5.5 0 0 1 -.541-.839l5.876-4.18-6.57 3.793a.5.5 0 0 1 -.535-.844l7.966-5.525-8.755 5.058a.5.5 0 0 1 -.526-.848l5.458-3.628-5.969 3.445a.5.5 0 0 1 -.527-.848l5.993-3.985-6.533 3.772a.5.5 0 0 1 -.535-.844l9.641-6.69-9.274 5.351a.5.5 0 0 1 -.526-.85l4.956-3.289-.687.4a.5.5 0 0 1 -.551-.832l5.777-4.354-.107.062a.5.5 0 0 1 -.589-.8l4.183-3.858a.5.5 0 0 1 .239-.541l.982-.567a.5.5 0 0 1 .589.8l-2 1.849 3.318-1.916a.5.5 0 0 1 .551.832l-5.775 4.348 7.466-4.309a.5.5 0 0 1 .526.849l-4.962 3.291 5.8-3.35a.5.5 0 0 1 .535.843l-9.638 6.688 9.828-5.674a.5.5 0 0 1 .527.849l-6 3.987 6-3.467a.5.5 0 0 1 .527.849l-5.453 3.624 5.446-3.144a.5.5 0 0 1 .535.844l-7.965 5.524 5.261-3.037a.5.5 0 0 1 .54.84l-5.865 4.184.78-.45a.5.5 0 0 1 .542.839l-3.065 2.2a.5.5 0 0 1 .083.795l-3.944 3.664a.5.5 0 0 1 -.244.513l-.863.5a.5.5 0 0 1 -.25.065z" fill="#f2c444"/><path d="m51.058 17.026a.5.5 0 0 1 -.342-.865l.9-.838-1.234.712a.5.5 0 0 1 -.583-.806l.565-.5-.823.474a.5.5 0 0 1 -.627-.761l1.709-1.959-2.415 1.394a.5.5 0 0 1 -.617-.772l1.556-1.68-2.157 1.239a.5.5 0 0 1 -.633-.754l1.786-2.129-2.564 1.48a.5.5 0 0 1 -.579-.812l.209-.179-.4.229a.5.5 0 0 1 -.6-.787l1.248-1.243-1.7.981a.5.5 0 0 1 -.607-.783l2.936-2.977a.5.5 0 0 1 .226-.585l.872-.5a.5.5 0 0 1 .606.783l-1.332 1.349 1.817-1.049a.5.5 0 0 1 .6.788l-1.245 1.243 1.7-.982a.5.5 0 0 1 .576.812l-.209.18.4-.23a.5.5 0 0 1 .633.754l-1.786 2.129 2.563-1.482a.5.5 0 0 1 .617.773l-1.556 1.679 2.154-1.243a.5.5 0 0 1 .627.762l-1.709 1.961 2.416-1.394a.5.5 0 0 1 .583.8l-.564.5.821-.474a.5.5 0 0 1 .591.8l-3.087 2.888a.5.5 0 0 1 -.243.514l-.853.493a.491.491 0 0 1 -.246.067z" fill="#d7e2f7"/><g fill="#262626"><path d="m4.794 51.262a22.962 22.962 0 0 0 3.482.063c-1.927 15.706 8.963 3.452 15.4-.006h14.351c5.1.773 8.636-3.317 7.7-8.273v-20.015c4.373-4.331 8.753-8.665 13.05-13.072 3.068-3.606-2.551-6.978-4.931-9.149-4.616-2.186-15.759 13.7-20.261 16.873h-25.167c-4.718-.662-9.012 2.426-8.142 7.476 1.249 6.412-3.676 25.104 4.518 26.103zm38.38-41.6 3.2 3.2-13.917 13.921-3.195-3.195c4.619-4.661 9.279-9.282 13.912-13.929zm-15.448 16.365a5.07 5.07 0 0 1 .653-1.358l7.028 7.03c-9.442 3.432-11.423 5.601-7.681-5.672zm8.7 4.722-3.2-3.2 13.92-13.921 3.2 3.205zm13.974-28.311c2.6-2.8 5.072 2.082 7 3.548 2.255 2.226-.512 4.343-2.108 5.9l-7.175-7.17zm-3.243 3.238 7.168 7.169-3.005 3-7.167-7.164zm-45.433 17.132c.011-3.378 3.049-4.99 6.12-4.49h25.107a22.176 22.176 0 0 0 -8.532 14.608c-.761 5.375 10.012.388 12.226-.872 2.622-2.423 5.06-5.092 7.631-7.581-.916 7.284 2.078 19.469-1.633 25.323-5.948 2.567-13.5-.371-19.734 1.2-3.281 1.991-6.364 4.338-9.6 6.405-5.717 4.627-2.417-5.22-4-6.721-5.609 1.008-8.509-2.821-7.584-8.147.014-6.575-.025-13.152-.001-19.725z"/><path d="m7.725 26.437c4.884-.349 10.333.7 14.954-.406.882-.859-18.579-.914-14.954.406z"/><path d="m7.715 34.4c4.228-.325 8.971.657 12.958-.39.656-.776-16.152-.795-12.958.39z"/><path d="m8.011 42.5c7.318-.326 15.53.657 22.432-.39 1.135-.777-27.962-.796-22.432.39z"/></g></svg>