<svg width="592" height="592" viewBox="0 0 592 592" fill="none" xmlns="http://www.w3.org/2000/svg">
<g clip-path="url(#clip0_16_2)">
<path d="M297.371 527.541C295.704 527.541 294.086 526.693 293.149 525.173C291.757 522.884 292.458 519.894 294.717 518.444L375.318 467.019L273.307 525.913C270.958 527.275 267.979 526.495 266.597 524.167C265.216 521.858 265.956 518.858 268.255 517.438L268.344 517.378L256.671 524.117C254.353 525.469 251.393 524.719 249.992 522.42C248.591 520.141 249.281 517.151 251.521 515.701L407.049 415.347L227.703 518.888C225.335 520.25 222.316 519.45 220.964 517.082C219.593 514.724 220.402 511.705 222.77 510.343L574.96 307.011C577.289 305.659 580.249 306.409 581.64 308.708C583.041 310.987 582.35 313.977 580.111 315.427L424.661 415.722L568.3 332.803C570.629 331.431 573.609 332.211 575.01 334.549C576.391 336.858 575.651 339.857 573.352 341.278L564.729 346.586C566.702 346.211 568.764 347.06 569.869 348.866C571.26 351.155 570.56 354.144 568.3 355.595L487.818 406.951L553.214 369.191C555.543 367.849 558.503 368.589 559.894 370.888C561.295 373.167 560.604 376.157 558.364 377.607L497.31 416.995L539.529 392.624C541.779 391.282 544.699 392.013 546.14 394.213C547.57 396.423 547.018 399.353 544.887 400.893L467.384 456.797L503.535 435.929C505.884 434.548 508.913 435.357 510.274 437.735C511.646 440.093 510.837 443.112 508.469 444.474L387.997 514.034C385.737 515.356 382.827 514.645 381.386 512.445C379.955 510.235 380.508 507.305 382.639 505.765L460.152 449.861L329.26 525.42C326.942 526.771 323.982 526.022 322.581 523.723C321.18 521.443 321.87 518.454 324.11 517.003L385.145 477.626L299.838 526.88C299.059 527.334 298.21 527.541 297.371 527.541Z" fill="#6495ED"/>
<path d="M115.756 586.455C114.078 586.455 112.441 585.597 111.513 584.047C110.132 581.729 110.882 578.729 113.171 577.318L261.102 486.575L111.799 572.77C109.451 574.131 106.461 573.342 105.09 571.014C103.709 568.695 104.458 565.686 106.767 564.285L209.785 501.611L114.177 556.815C111.829 558.177 108.839 557.378 107.458 555.059C106.077 552.731 106.846 549.721 109.155 548.32L166.194 513.817L116.279 542.627C113.93 543.989 110.97 543.209 109.579 540.891C108.188 538.572 108.918 535.582 111.207 534.162L314.5 408.026L119.574 520.555C117.226 521.907 114.266 521.128 112.875 518.819C111.483 516.51 112.214 513.521 114.503 512.09L317.825 385.728L122.879 498.277C120.531 499.628 117.561 498.849 116.18 496.54C114.789 494.241 115.519 491.242 117.798 489.811L320.538 363.597L126.244 475.771C123.896 477.132 120.916 476.353 119.535 474.034C118.153 471.715 118.893 468.716 121.182 467.295L286.311 365.284L112.904 465.391C110.546 466.753 107.566 465.953 106.185 463.635C104.804 461.306 105.573 458.297 107.882 456.896L159.07 425.895L103.541 457.952C101.193 459.303 98.2029 458.524 96.8314 456.195C95.4501 453.877 96.2 450.877 98.4989 449.466L211.837 380.311L93.161 448.825C90.8029 450.186 87.8232 449.397 86.4418 447.069C85.0605 444.74 85.8202 441.741 88.129 440.33L170.516 390.325L84.1824 440.172C81.8242 441.523 78.8346 440.744 77.4632 438.406C76.0818 436.077 76.8514 433.068 79.1701 431.667L82.209 429.841L77.2066 432.722C74.8584 434.074 71.8984 433.295 70.5072 430.986C69.116 428.677 69.8461 425.687 72.1352 424.257L280.539 294.806L65.4357 418.988C63.0874 420.34 60.1077 419.57 58.7264 417.242C57.345 414.913 58.0949 411.923 60.3938 410.503L209.677 319.039L56.7333 407.335C54.385 408.687 51.425 407.908 50.0338 405.599C48.6426 403.29 49.3728 400.301 51.652 398.87L272.823 261.003L46.5509 391.638C44.2026 392.999 41.2229 392.22 39.8416 389.891C38.4602 387.582 39.2002 384.583 41.4893 383.162L220.629 272.685L38.7957 377.814C36.4474 379.166 33.4677 378.397 32.0864 376.068C30.705 373.759 31.445 370.76 33.7341 369.339L210.535 260.253L31.9482 363.36C29.5901 364.721 26.6104 363.932 25.229 361.603C23.8477 359.275 24.6173 356.275 26.9261 354.865L94.5325 313.878L27.5773 352.536C25.229 353.888 22.2592 353.108 20.8778 350.809C19.4866 348.501 20.2168 345.511 22.496 344.08L229.982 214.561L21.7264 334.806C19.388 336.157 16.4082 335.378 15.0269 333.069C13.6357 330.76 14.3658 327.771 16.6549 326.34L200.55 212.015L17.4738 317.707C15.1256 319.058 12.1458 318.279 10.7546 315.95C9.37331 313.622 10.133 310.622 12.4418 309.211L63.64 278.131L15.3525 306.005C13.0141 307.357 10.0344 306.577 8.65304 304.268C7.26184 301.959 8.00184 298.96 10.281 297.539L164.369 201.971L13.4384 289.133C11.0901 290.485 8.12024 289.705 6.73891 287.406C5.34771 285.097 6.07784 282.098 8.35704 280.677L166.431 182.079L12.6293 270.87C10.281 272.231 7.29144 271.442 5.91997 269.113C4.53864 266.795 5.28851 263.795 7.58744 262.384L53.2109 234.541L13.0042 257.757C10.656 259.109 7.67624 258.339 6.29491 256.01C4.91357 253.682 5.66344 250.692 7.95251 249.281L64.8733 214.383L14.2672 243.598C11.9485 244.96 8.96877 244.19 7.57757 241.881C6.18637 239.592 6.89677 236.593 9.15624 235.152L155.321 142.633L17.829 222.03C15.5104 223.401 12.5306 222.631 11.1296 220.303C9.73837 218.004 10.4586 215.014 12.7378 213.584L115.953 148.691L22.8709 202.425C20.5424 203.786 17.5824 203.017 16.1912 200.718C14.7901 198.438 15.4808 195.459 17.7304 193.998L134.887 118.735L31.8496 178.212C29.5309 179.573 26.561 178.814 25.16 176.495C23.7688 174.196 24.4792 171.206 26.7485 169.766L75.4208 139.031L41.2722 158.745C38.9832 160.097 36.0528 159.357 34.632 157.107C33.2112 154.857 33.8328 151.907 36.0232 150.407L134.552 82.8899L64.7648 123.185C62.5053 124.488 59.6242 123.817 58.1837 121.636C56.7432 119.456 57.2464 116.535 59.3381 114.966L110.398 76.6936C108.563 76.8613 106.826 75.8944 105.869 74.2368C104.498 71.8787 105.307 68.8595 107.675 67.4979L173.19 29.6789C175.429 28.3568 178.33 29.0376 179.771 31.228C181.211 33.4085 180.708 36.3291 178.616 37.8979L131.197 73.4376L240.48 10.3699C242.789 9.04773 245.71 9.768 247.121 12.0077C248.541 14.2573 247.92 17.2075 245.729 18.7072L147.181 86.2347L286.035 6.05813C288.373 4.7064 291.333 5.46613 292.724 7.77493C294.115 10.0837 293.405 13.0635 291.136 14.504L242.345 45.3176L309.863 6.34426C312.191 4.98266 315.151 5.75226 316.542 8.0512C317.943 10.3304 317.253 13.3101 315.003 14.7704L197.876 90.0235L338.15 9.01813C340.489 7.67626 343.469 8.42613 344.85 10.7448C346.241 13.0437 345.521 16.0333 343.242 17.464L240.165 82.2683L360.193 12.9747C362.531 11.6229 365.501 12.3827 366.882 14.6915C368.273 16.9805 367.563 19.98 365.303 21.4205L219.06 113.99L383.636 18.9637C385.974 17.5923 388.954 18.3717 390.345 20.7101C391.726 23.0288 390.977 26.0283 388.687 27.4392L331.747 62.3475L398.515 23.8083C400.843 22.4368 403.843 23.2261 405.224 25.5645C406.605 27.8832 405.855 30.8827 403.557 32.2936L358.061 60.0584L411.973 28.9389C414.311 27.5773 417.271 28.3568 418.672 30.6656C420.063 32.9744 419.333 35.9739 417.054 37.3947L258.842 136.091L430.295 37.0789C432.624 35.7173 435.603 36.4968 436.995 38.8155C438.386 41.1341 437.646 44.1237 435.367 45.5445L281.407 141.024L446.486 45.7221C448.825 44.3507 451.814 45.1499 453.206 47.4784C454.587 49.8069 453.827 52.8064 451.518 54.2173L400.222 85.3565L457.488 52.2933C459.826 50.9317 462.786 51.7112 464.187 54.0299C465.578 56.3387 464.848 59.3283 462.559 60.7589L278.625 175.114L473.107 62.8309C475.435 61.4595 478.415 62.2488 479.806 64.5576C481.197 66.8664 480.467 69.856 478.188 71.2867L270.83 200.727L488.647 74.9669C490.985 73.5955 493.975 74.3947 495.366 76.7232C496.747 79.0517 495.978 82.0512 493.669 83.4621L425.875 124.567L497.842 83.0181C500.181 81.6467 503.161 82.4261 504.552 84.7645C505.933 87.0733 505.193 90.0728 502.904 91.4936L326.005 200.639L509.682 94.6016C512.011 93.2301 514.991 94.0096 516.392 96.348C517.773 98.6568 517.033 101.656 514.744 103.077L335.664 213.525L520.703 106.698C523.032 105.337 526.002 106.116 527.403 108.435C528.794 110.734 528.064 113.733 525.785 115.164L304.683 252.981L532.425 121.498C534.763 120.127 537.743 120.906 539.134 123.245C540.516 125.563 539.766 128.563 537.467 129.983L387.977 221.576L540.654 133.427C542.982 132.055 545.962 132.835 547.353 135.163C548.745 137.472 548.014 140.462 545.725 141.893L337.43 271.274L549.82 148.651C552.158 147.27 555.168 148.069 556.539 150.417C557.921 152.746 557.151 155.755 554.832 157.156L551.409 159.209L554.428 157.472C556.766 156.101 559.756 156.9 561.147 159.228C562.528 161.557 561.769 164.556 559.46 165.967L477.093 215.952L559.529 168.365C561.857 166.993 564.857 167.783 566.238 170.121C567.619 172.44 566.87 175.439 564.571 176.85L451.43 245.877L564.502 180.599C566.84 179.228 569.83 180.027 571.221 182.356C572.602 184.684 571.833 187.694 569.524 189.095L517.951 220.313L568.221 191.305C570.56 189.933 573.539 190.713 574.931 193.041C576.312 195.36 575.572 198.359 573.283 199.78L408.332 301.673L572.622 206.825C574.95 205.454 577.93 206.233 579.321 208.562C580.713 210.861 579.982 213.86 577.703 215.291L374.884 341.554L576.381 225.226C578.71 223.855 581.689 224.634 583.081 226.963C584.472 229.272 583.742 232.261 581.453 233.692L378.17 360.015L578.611 244.289C580.939 242.927 583.909 243.707 585.31 246.025C586.702 248.334 585.971 251.334 583.682 252.754L380.232 378.998L579.351 264.052C581.689 262.67 584.679 263.47 586.07 265.808C587.451 268.137 586.682 271.146 584.373 272.547L527.827 306.755L578.858 277.303C581.196 275.931 584.195 276.73 585.567 279.059C586.948 281.378 586.198 284.387 583.89 285.788L480.911 348.422L577.318 292.764C579.647 291.402 582.627 292.172 584.028 294.51C585.409 296.829 584.659 299.828 582.37 301.239L157.541 561.69C157.176 562.785 156.416 563.762 155.331 564.373L118.222 585.794C117.443 586.248 116.594 586.455 115.756 586.455Z" fill="#6495ED"/>
<path d="M101.548 571.339C108.06 618.975 199.119 527.403 222.336 519.421C433.216 578.887 678.472 359.699 558.345 148.257C342.521 -209.104 -250.021 178.389 116.279 473.57C112.204 506.209 104.784 538.68 101.548 571.339ZM119.209 548.083C122.751 521.71 128.03 495.198 130.684 468.894C71.1486 426.97 26.3243 364.297 18.4606 290.376C-6.21597 72.4707 267.337 -53.0235 441.129 52.0664C714.919 206.874 524.295 575.661 239.415 512.79C206.884 488.804 96.0718 630.49 119.209 548.083Z" fill="#262626"/>
<path d="M439.303 162.81C462.253 162.81 455.307 152.628 438.761 152.628C352.092 152.628 150.319 152.835 130.871 153.131C124.616 153.131 116.042 162.593 125.672 162.593C223.569 162.593 341.406 162.81 439.303 162.81Z" fill="#262626"/>
<path d="M439.303 271.787C462.253 271.787 455.307 261.605 438.761 261.605C352.092 261.605 150.319 261.812 130.871 262.108C124.616 262.108 116.042 271.57 125.672 271.57C223.569 271.57 341.406 271.787 439.303 271.787Z" fill="#262626"/>
<path d="M296 380.755C318.95 380.755 312.004 370.572 295.457 370.572C208.789 370.572 150.319 370.779 130.871 371.075C124.616 371.075 116.042 380.538 125.672 380.538C223.569 380.538 198.103 380.755 296 380.755Z" fill="#262626"/>
</g>
<defs>
<clipPath id="clip0_16_2">
<rect width="592" height="592" fill="white"/>
</clipPath>
</defs>
</svg>
