<?xml version="1.0" encoding="UTF-8"?>
<svg xmlns="http://www.w3.org/2000/svg" id="icons" viewBox="0 0 60 60" width="60" height="60"><path d="M20.49,6.59A.5.5,0,0,1,20,5.984l.048-.223-1.32.761a.5.5,0,0,1-.633-.753l.086-.1L16.7,6.521a.5.5,0,0,1-.618-.094.5.5,0,0,1-.042-.624l1.316-1.886-4.509,2.6a.5.5,0,0,1-.617-.772L14.4,3.4,9.285,6.348a.5.5,0,0,1-.621-.769l2.083-2.3-.226.13a.5.5,0,0,1-.5-.865L13,.822a.5.5,0,0,1,.621.769l-2.082,2.3,5.2-3a.5.5,0,0,1,.617.771L15.19,4.013,18.8,1.927a.5.5,0,0,1,.66.719L18.146,4.532,20.113,3.4a.5.5,0,0,1,.634.753l-.113.136a.5.5,0,0,1,.631.585l-.106.491a.493.493,0,0,1,.233.208.5.5,0,0,1-.183.683l-.469.27A.5.5,0,0,1,20.49,6.59Z" fill="#6d4e45"/><path d="M7.423,19.481a.5.5,0,0,1-.29-.907L14.539,13.3,4.185,19.28a.5.5,0,0,1-.534-.844L11.116,13.3,3.28,17.823a.5.5,0,0,1-.531-.845L8.582,13.01l-5.3,3.06a.5.5,0,0,1-.53-.846l3.763-2.551L3.356,14.494a.5.5,0,0,1-.553-.829l5.7-4.371L4.061,11.859a.5.5,0,0,1-.588-.8L6.335,8.431a.5.5,0,0,1-.439-.9L9.762,5.3a.5.5,0,0,1,.588.8L7.5,8.721,14.64,4.6a.5.5,0,0,1,.553.829L9.493,9.8l8.5-4.906a.5.5,0,0,1,.53.846L14.764,8.286l5.064-2.924a.5.5,0,0,1,.531.846l-5.834,3.969,7.04-4.065a.5.5,0,0,1,.534.845l-7.464,5.136,8.514-4.916a.5.5,0,0,1,.54.84l-7.407,5.272L24.5,8.545a.5.5,0,0,1,.543.838l-5.869,4.234L25.456,9.99a.5.5,0,0,1,.537.842L23,12.937l3.013-1.74a.5.5,0,0,1,.546.836l-2.652,1.946,2.523-1.457a.5.5,0,0,1,.562.823L24.6,15.264l2.091-1.207a.5.5,0,0,1,.571.816l-.9.746.356-.205a.5.5,0,0,1,.663.715l-.9,1.315a.5.5,0,0,1,.469.882L25.09,19.4a.5.5,0,0,1-.663-.715l.895-1.312-3.514,2.029a.5.5,0,0,1-.571-.816l.9-.745-2.708,1.563a.5.5,0,0,1-.563-.822l2.395-1.921L16.5,19.408a.5.5,0,0,1-.546-.836l2.649-1.943L13.787,19.41a.5.5,0,0,1-.537-.842l2.993-2.1-5.106,2.948a.5.5,0,0,1-.543-.838l5.872-4.236L7.673,19.414A.491.491,0,0,1,7.423,19.481Z" fill="#6d4e45"/><path d="M41.757,59.47a.5.5,0,0,1-.272-.92l.2-.125-1.7.977a.5.5,0,0,1-.523-.851L43.215,56.1l-5.589,3.227a.5.5,0,0,1-.521-.853L41.2,55.845,36.3,58.67a.5.5,0,0,1-.524-.851L43.4,52.831,35.454,57.42a.5.5,0,0,1-.528-.848l10.641-7.148L35.28,55.362a.5.5,0,0,1-.517-.854L36.981,53.1l-1.7.981a.5.5,0,0,1-.524-.851L42,48.471l-6.721,3.88a.5.5,0,0,1-.529-.848l8.485-5.709L35.28,50.387a.5.5,0,0,1-.521-.853l3.3-2.138L35.28,49a.5.5,0,0,1-.535-.843l8.076-5.618L35.28,46.892a.5.5,0,0,1-.524-.851l1.9-1.247-1.375.794a.5.5,0,0,1-.546-.836l6.385-4.683L35.28,43.44a.5.5,0,0,1-.551-.832l4.058-3.057L33.846,42.4a.5.5,0,0,1-.576-.811l4.023-3.461-7.407,4.275a.5.5,0,0,1-.554-.83l2.9-2.216-5.1,2.946a.5.5,0,0,1-.55-.832l2.479-1.862L25.969,41.4a.5.5,0,0,1-.574-.813l2.787-2.37L24.562,40.3a.5.5,0,0,1-.607-.783l2.191-2.243L23,39.092a.5.5,0,0,1-.67-.7L23.552,36.5l-2.23,1.287a.5.5,0,0,1-.682-.682l.407-.706-.867.5a.5.5,0,0,1-.616-.091L18.49,35.658a.5.5,0,0,1-.438-.9l.287-.165a.5.5,0,0,1,.614.091l1.07,1.143L22.162,34.6a.5.5,0,0,1,.683.682l-.408.7L24.843,34.6a.5.5,0,0,1,.67.7l-1.219,1.891,4.5-2.594a.5.5,0,0,1,.607.782l-2.19,2.244L32.448,34.6a.5.5,0,0,1,.574.813L30.236,37.78,35.75,34.6a.5.5,0,0,1,.55.832l-2.479,1.861L38.487,34.6a.5.5,0,0,1,.554.83l-2.9,2.216L41.413,34.6a.5.5,0,0,1,.576.811L37.967,38.87l7.4-4.272a.5.5,0,0,1,.551.832l-4.056,3.056,6.681-3.857a.5.5,0,0,1,.546.836l-6.384,4.681,8.593-4.96a.5.5,0,0,1,.524.85l-1.9,1.249,2.687-1.552a.5.5,0,0,1,.536.843L45.065,42.2l9.305-5.372a.5.5,0,0,1,.522.853l-3.3,2.137,3.744-2.162a.5.5,0,0,1,.529.848L47.38,44.211,56.5,38.948a.5.5,0,0,1,.525.851L49.774,44.56l7.541-4.354a.5.5,0,0,1,.518.855l-2.226,1.412L57.813,41.2a.5.5,0,0,1,.53.848L47.7,49.2l10.721-6.188a.5.5,0,0,1,.523.85l-7.615,4.984,7.35-4.243a.5.5,0,0,1,.52.853L55.113,48.08,58.72,46a.5.5,0,0,1,.523.852L55.49,49.3l3.23-1.864a.5.5,0,0,1,.521.852l-.419.271a.5.5,0,0,1,.567.2.5.5,0,0,1-.124.677l-6.049,4.41,5.5-3.177a.5.5,0,0,1,.538.842l-2.045,1.437,1.507-.869a.5.5,0,0,1,.578.81L55.78,55.953l2.94-1.7a.5.5,0,0,1,.581.807l-1.108.978.515-.3a.5.5,0,0,1,.613.776l-.74.783a.491.491,0,0,1,.238.211.5.5,0,0,1-.182.682L56.589,59.38a.5.5,0,0,1-.613-.776l.264-.28L54.371,59.4a.5.5,0,0,1-.581-.807l1.106-.977L51.806,59.4a.5.5,0,0,1-.578-.809l3.516-3.064L48.036,59.4a.5.5,0,0,1-.538-.841l2.048-1.441L45.593,59.4a.5.5,0,0,1-.545-.837l6.049-4.41L42.007,59.4A.5.5,0,0,1,41.757,59.47Z" fill="#cd4c60"/><path d="M5.918,59.47a.5.5,0,0,1-.27-.921l4.317-2.76L3.776,59.361a.5.5,0,0,1-.517-.855L7.62,55.745,2.4,58.756a.5.5,0,0,1-.515-.857l3.16-1.984L1.656,57.874a.5.5,0,0,1-.515-.856l3.172-1.99L1.3,56.766a.5.5,0,0,1-.525-.851l11.249-7.392L1.28,54.729a.5.5,0,0,1-.518-.855L6.072,50.5,1.28,53.262a.5.5,0,0,1-.525-.85l9.722-6.423L1.28,51.3a.5.5,0,0,1-.531-.846l10.544-7.179L1.28,49.055A.5.5,0,0,1,.757,48.2l4.636-3.021L1.28,47.556a.5.5,0,0,1-.53-.847L7,42.477,1.307,45.764a.5.5,0,0,1-.533-.846L5,42.026,1.553,44.019a.5.5,0,0,1-.536-.843l2.789-1.95-1.676.966a.5.5,0,0,1-.588-.8l3.407-3.12-.062.037a.5.5,0,1,1-.5-.866l4.025-2.324a.5.5,0,0,1,.588.8L5.593,39.039,13.285,34.6a.5.5,0,0,1,.536.842l-2.792,1.954,4.843-2.8a.5.5,0,0,1,.532.845L12.18,38.332l6.41-3.7a.5.5,0,0,1,.53.847L12.87,39.71l8.041-4.643a.5.5,0,0,1,.524.852L16.8,38.942l5.672-3.274a.5.5,0,0,1,.531.846L12.457,43.691l11.906-6.874a.5.5,0,0,1,.526.85l-9.723,6.424,10.53-6.08a.5.5,0,0,1,.519.854L20.9,42.246l5.631-3.251a.5.5,0,0,1,.525.851l-11.249,7.39L27.481,40.5a.5.5,0,0,1,.516.857l-3.175,1.991,3.128-1.806a.5.5,0,0,1,.516.857L25.3,44.384l3.019-1.743a.5.5,0,0,1,.518.855l-4.35,2.753,4.1-2.367a.5.5,0,0,1,.519.853l-4.335,2.773,3.935-2.272a.5.5,0,0,1,.531.846l-8.454,5.763,7.936-4.581a.5.5,0,0,1,.523.851l-1.985,1.3,1.462-.844a.5.5,0,0,1,.548.834l-6.423,4.76L28.72,50.77a.5.5,0,0,1,.536.842l-1.65,1.154,1.114-.643a.5.5,0,0,1,.556.827l-2.5,1.94,1.94-1.119a.5.5,0,0,1,.587.8l-1.825,1.667,1.238-.714a.5.5,0,0,1,.625.763l-.866.984a.5.5,0,0,1,.157.924l-2.05,1.184a.5.5,0,0,1-.625-.763l.617-.7L24,59.4a.5.5,0,0,1-.587-.8l1.823-1.666L20.964,59.4a.5.5,0,0,1-.557-.827l2.5-1.941-4.8,2.768a.5.5,0,0,1-.536-.842l1.647-1.152L15.766,59.4a.5.5,0,0,1-.548-.834l6.423-4.759L11.951,59.4a.5.5,0,0,1-.523-.851l1.983-1.3L9.693,59.4a.5.5,0,0,1-.531-.845l8.458-5.766L6.168,59.4A.5.5,0,0,1,5.918,59.47Z" fill="#ce7bbe"/><path d="M33.925,17.479a.5.5,0,0,1-.274-.919l2.916-1.9L32.1,17.237a.5.5,0,0,1-.524-.85L34.918,14.2,31.28,16.3a.5.5,0,0,1-.53-.847l9.081-6.137L31.28,14.247a.5.5,0,0,1-.532-.846l7.915-5.417L31.28,12.246a.5.5,0,0,1-.526-.849l3.013-2-2.462,1.42a.5.5,0,0,1-.538-.841l4.211-2.967L31.592,8.962a.5.5,0,0,1-.553-.831L34.607,5.42l-2.083,1.2a.5.5,0,0,1-.565-.82l2.052-1.67a.489.489,0,0,1-.206-.195.5.5,0,0,1,.182-.683l3.828-2.21a.5.5,0,0,1,.566.82l-.94.765L40.961.6a.5.5,0,0,1,.553.831l-3.567,2.71L44.08.6a.5.5,0,0,1,.538.841L40.4,4.409,47.005.6a.5.5,0,0,1,.526.848l-3.009,2L49.458.6a.5.5,0,0,1,.532.845L42.078,6.858l9.488-5.477a.5.5,0,0,1,.531.847L43.016,8.365l6.847-3.953a.5.5,0,0,1,.524.851L47.05,7.448,51.814,4.7a.5.5,0,0,1,.524.852L49.414,7.458l3.922-2.264a.5.5,0,0,1,.54.84l-7.335,5.213L54.99,6.37a.5.5,0,0,1,.543.838l-6.2,4.491,6.716-3.877a.5.5,0,0,1,.552.831l-5.1,3.855,5.126-2.959a.5.5,0,0,1,.553.83l-2.951,2.249,2.493-1.439a.5.5,0,0,1,.549.833l-.461.345a.5.5,0,0,1,.5.843l-1.066.962.485-.28a.5.5,0,0,1,.633.754l-.458.545a.509.509,0,0,1,.512.245.5.5,0,0,1-.183.682L55.01,17.4a.5.5,0,0,1-.633-.754l.4-.472L52.646,17.4a.5.5,0,0,1-.584-.8l1.066-.962L50.066,17.4a.5.5,0,0,1-.549-.833l.4-.3-1.962,1.132a.5.5,0,0,1-.553-.83l2.953-2.251-5.339,3.082a.5.5,0,0,1-.552-.831l5.095-3.851-8.116,4.684a.5.5,0,0,1-.543-.838l6.2-4.492-9.236,5.331a.5.5,0,0,1-.54-.84l7.333-5.212L34.175,17.411A.5.5,0,0,1,33.925,17.479Z" fill="#684740"/><path d="M44.1,38.464a.5.5,0,0,1-.381-.824l1-1.177-2.285,1.319a.5.5,0,0,1-.613-.776l2.412-2.542-2.867,1.655a.5.5,0,0,1-.637-.748l1.649-2.03-1.1.632a.5.5,0,0,1-.734-.557l.281-1.1a.487.487,0,0,1-.229-.207.5.5,0,0,1,.182-.682l.5-.291a.5.5,0,0,1,.735.556l-.21.823,2.414-1.394a.5.5,0,0,1,.637.748L43.211,33.9l3.509-2.025a.5.5,0,0,1,.612.777L44.92,35.191l1.8-1.039a.5.5,0,0,1,.631.757L46.34,36.1a.5.5,0,0,1,.432.9l-2.424,1.4A.49.49,0,0,1,44.1,38.464Z" fill="#925c4c"/><path d="M53.316,15.487a.5.5,0,0,1-.25-.932l1.656-.955a.5.5,0,0,1,.5.865l-1.656.955A.494.494,0,0,1,53.316,15.487Z" fill="#a9725e"/><path d="M35.048,16.2a.5.5,0,0,1-.36-.847l.815-.843a.492.492,0,0,1-.243-.213.5.5,0,0,1,.182-.683L37.6,12.37a.5.5,0,0,1,.609.78l-.326.338,5.9-3.4a.5.5,0,1,1,.5.865L35.3,16.132A.489.489,0,0,1,35.048,16.2Z" fill="#a9725e"/><path d="M44.365,32.455a.5.5,0,0,1-.3-.9l3.1-2.38-5.141,2.968a.5.5,0,0,1-.541-.839l3.487-2.478L40.24,31.559a.5.5,0,0,1-.54-.84l8.462-6.031-9.9,5.714a.5.5,0,0,1-.526-.849l5.187-3.43-5.758,3.324a.5.5,0,0,1-.53-.846l8.59-5.83-9.19,5.305a.5.5,0,0,1-.536-.843l7.625-5.324-7.971,4.6a.5.5,0,0,1-.535-.843l7.6-5.289L34.564,24.8a.5.5,0,0,1-.539-.841l7.385-5.225L34.284,22.85a.5.5,0,0,1-.53-.847l2.888-1.951L33.03,22.137a.5.5,0,0,1-.532-.846l3.359-2.3-3.941,2.275a.5.5,0,0,1-.527-.849l1.252-.836-1.231.71a.5.5,0,0,1-.611-.778l1.373-1.433-.892.515a.5.5,0,0,1-.6-.793l.557-.536a.5.5,0,0,1-.621-.74l.727-1.041a.508.508,0,0,1-.464-.249.5.5,0,0,1,.182-.682l1.658-.956a.5.5,0,0,1,.618.094.5.5,0,0,1,.042.624l-.655.939,1.568-.9a.5.5,0,0,1,.6.793l-.553.531.371-.214a.5.5,0,0,1,.611.778l-1.373,1.433,11.479-6.627a.5.5,0,0,1,.527.849l-1.256.838L46.665,11.6a.5.5,0,0,1,.532.845l-3.358,2.3L48.415,12.1a.5.5,0,0,1,.53.846L46.061,14.9,50.3,12.451a.5.5,0,0,1,.539.841l-7.383,5.224,8.569-4.948a.5.5,0,0,1,.536.843L44.95,19.7,52.7,15.23a.5.5,0,0,1,.536.843L45.6,21.4l11.039-6.372a.5.5,0,0,1,.531.847L48.588,21.7l8.132-4.694a.5.5,0,0,1,.525.849l-5.19,3.432L56.718,18.6a.5.5,0,0,1,.54.84L48.8,25.466l4.858-2.8a.5.5,0,0,1,.54.84l-3.485,2.477L53.276,24.5a.5.5,0,0,1,.555.829l-3.1,2.378,1.472-.849a.5.5,0,1,1,.5.865l-8.088,4.67A.491.491,0,0,1,44.365,32.455Z" fill="#a9725e"/><path d="M14.038,38.305a.5.5,0,0,1-.373-.833l1.85-2.069-2.78,1.605a.5.5,0,0,1-.56-.824l.154-.123a.5.5,0,0,1-.554-.825l1.267-1.082-.762.44a.5.5,0,0,1-.609-.781l.562-.58a.5.5,0,0,1-.683-.595l.252-.874a.5.5,0,0,1-.022-.878l.5-.291a.5.5,0,0,1,.731.571l-.161.558,1.977-1.142a.5.5,0,0,1,.609.78l-.555.574,2.366-1.367a.5.5,0,0,1,.575.813l-1.267,1.083,1.161-.67a.5.5,0,0,1,.56.824l-.37.294a.489.489,0,0,1,.447.181.5.5,0,0,1-.014.648l-1.851,2.069,1.167-.673a.5.5,0,1,1,.5.865l-3.871,2.234A.49.49,0,0,1,14.038,38.305Z" fill="#daab94"/><path d="M24.186,17.354a.5.5,0,0,1-.25-.932l1.411-.815a.5.5,0,0,1,.5.866l-1.411.814A.5.5,0,0,1,24.186,17.354Z" fill="#eabea3"/><path d="M11.251,15.035A.5.5,0,0,1,11,14.1l4.305-2.486a.5.5,0,0,1,.5.865l-4.3,2.486A.494.494,0,0,1,11.251,15.035Z" fill="#eabea3"/><path d="M13.875,32.393a.5.5,0,0,1-.309-.894l4.513-3.545-6.411,3.7a.5.5,0,0,1-.531-.846l4.079-2.768-4.939,2.851a.5.5,0,0,1-.538-.841l7.977-5.632L8.745,29.6a.5.5,0,0,1-.523-.852l3-1.957L7.97,28.668a.5.5,0,0,1-.53-.848l3.975-2.674L7.278,27.533a.5.5,0,0,1-.529-.847l4.009-2.7-4,2.31a.5.5,0,0,1-.525-.851l1.43-.938-1.2.692a.5.5,0,0,1-.526-.849L7.7,23.18,6.3,23.992a.5.5,0,0,1-.526-.849l.71-.469-1.057.61a.5.5,0,0,1-.528-.848L6.6,21.3,4.273,22.642a.5.5,0,0,1-.548-.834l6.426-4.781L3.333,20.964a.5.5,0,0,1-.613-.776l.523-.553a.5.5,0,0,1-.66-.675L3.409,17.3a.5.5,0,0,1-.473-.88l1.411-.815a.5.5,0,0,1,.7.656l-.825,1.656,1.5-.866a.5.5,0,0,1,.613.776l-.52.55,11.3-6.525a.5.5,0,0,1,.549.834l-6.426,4.779,8.224-4.748a.5.5,0,0,1,.527.848L18.275,14.71,20.537,13.4a.5.5,0,0,1,.525.85l-.714.472,1.043-.6a.494.494,0,0,1,.674.17.5.5,0,0,1-.148.68l-1.768,1.169,2.032-1.172a.5.5,0,0,1,.524.85l-1.441.947,1.573-.908a.5.5,0,0,1,.529.848l-4,2.693,4.125-2.38a.5.5,0,0,1,.53.847l-3.975,2.675,6.63-3.827a.5.5,0,0,1,.523.851L24.2,19.52l2.517-1.454a.5.5,0,0,1,.538.841l-7.98,5.634L26.626,20.3a.5.5,0,0,1,.531.847l-4.081,2.768.58-.334a.5.5,0,0,1,.559.826L19.7,27.952l3.324-1.919a.5.5,0,0,1,.568.82l-1.958,1.609a.5.5,0,0,1,.314.929l-4.888,2.822a.5.5,0,0,1-.568-.819l1.779-1.462-4.147,2.393A.493.493,0,0,1,13.875,32.393Z" fill="#eabea3"/><path d="M58.061,40.264c-2.293-3.9-6.276-5.615-10.627-5.7.065-.923.036-1.867.028-2.68a10.455,10.455,0,0,0,6.958-9.315c3.134-.277,3.134-3.913,3.03-6.341.646-4.462.048-12.184-6.366-11.556C53.261,2.811,53.144.683,49.946.548,45.823.034,39.305-.156,35.6,2.022c-5.247,3.113-5.473,9-5.054,14.325-.083,2.456-.01,5.9,3.034,6.22a10.711,10.711,0,0,0,6.958,9.394c-.009.774-.026,1.645.038,2.5h-22.1c.015-.845,0-1.694-.006-2.538a9.389,9.389,0,0,0,5.944-8.35c3.114-.252,3.1-3.775,3.039-6.164,0-5.447-1.986-9.457-5.984-11.5.5-7.327-13.346-7.031-12.951,0C4.481,8,2.547,12.113,2.547,17.593c-.076,2.418.117,5.647,3.057,5.969A9.98,9.98,0,0,0,11.528,31.9c-.014.831-.041,1.759.031,2.656C.565,35.6-.039,46.12.441,55.044.807,61.859,10.482,59.5,15.31,59.5c4.435,0,13.507,2.133,14.249-4.065.514-4.289.481-9.08-.9-13,3.146-.268,6.541-.887,5.747,3.443,0,3.182-.6,6.968,0,10.1,1.122,5.855,12.138,3.478,16.362,3.478,1.87,0,4.928.533,6.746-.331,2.738-1.3,2.084-4.729,2.084-7.194C59.6,48.039,60.12,43.761,58.061,40.264ZM41.633,1.452c2.838-.05,5.932-.118,8.725,0,1.49,1.247.388,2.194-.463,2.958H47.017c-.568,0-.68,1.182-.034,1.182a16.265,16.265,0,0,0,3.265-.12c5.443.179,6.081,4.389,6.149,8.564a2.31,2.31,0,0,0-3.3.348c-.958-2.346-3.668-2.3-5.767-2.849-1.048-.364-2.221-1.642-3.367-1.65-.989-.006-2.017,1.138-2.882,1.48-2.187.718-5.232.509-6.2,3.063a2.349,2.349,0,0,0-3.25-.46C31.848,7.513,33.424,2.011,41.633,1.452ZM34.449,21.971a.522.522,0,0,0-.487-.57c-2.87-.049-2.5-3.166-2.517-5.164.177-.145.151-.384.152-.593.609-1.287,2.754-1.6,2.954.385,0,.389.241.555.473.524.237,0,.465-.19.425-.582.143-2.172,2.839-2.625,4.457-2.993,1.473-.406,2.607-1.18,4.127-1.174,1.966.008,8.518,1.967,8.518,4.225,0,.382.232.55.461.528.2.037.4-.072.431-.425a1.525,1.525,0,0,1,2.963-.473c.018.245-.083.587.175.72-.074,2.02.27,4.99-2.619,5.022-.312,0-.428.323-.411.628C53.18,34.285,34.7,34.288,34.449,21.971ZM44.038,32.6a11.77,11.77,0,0,0,2.517-.421,14.662,14.662,0,0,1-.108,3.013,2.488,2.488,0,0,1-4.96-.278.4.4,0,0,0-.034-.318,20.031,20.031,0,0,1-.008-2.348A10.088,10.088,0,0,0,44.038,32.6ZM20.5,5.466a15.051,15.051,0,0,0-5.6-1.031V4.41A15.8,15.8,0,0,0,9.465,5.471C9.533.354,19.96.347,20.5,5.466Zm-5.629.13c7.112.252,10.937,3.919,11.572,10.091a1.8,1.8,0,0,0-2.622.819c-5.375-8.54-11.406-4.517-17.484.559a1.893,1.893,0,0,0-2.792-1.406C4.123,9.52,7.854,5.864,14.869,5.6ZM6.445,22.933c-.028-.415-.257-.483-.534-.526-2.568-.021-2.551-2.823-2.458-4.675.457-1.649,2.205-1.277,2.159.457.087.349.365.569.649.326,2.464-1.651,4.882-3.582,7.486-4.989,3.76-2.031,8.478.84,9.848,4.7.111.315.314.39.494.332.193.009.364-.119.364-.461,0-1.4,1.621-2.1,2.092-.551a7.847,7.847,0,0,1,0,1.636c0,1.66-.678,3.229-2.636,3.229-.248,0-.355.216-.358.463C23.58,33.9,7.044,33.9,6.445,22.933Zm8.644,9.66a9.255,9.255,0,0,0,2.471-.364c.054,1.865.31,4.577-2.065,5.124-1.758.385-2.783-.841-2.987-2.335a.424.424,0,0,0-.024-.317c-.046-.822-.006-1.65-.018-2.475A9.237,9.237,0,0,0,15.089,32.593ZM28.441,55.044c-.452,2.51-2.448,3.407-4.849,3.665V48.1c0-.6-1.184-.774-1.184-.19V58.792c-5.615-.382-9.055-.069-14.89.043V47.885c-1.835-2.929-.78,9.905-1.036,10.852C-.027,58.3,1.193,52.312,1.56,47.67c.083-6.328,3.277-11.562,10.128-12.15.33,3.953,6.215,4.066,6.718.035C27.788,36.6,29.89,46.991,28.441,55.044ZM58.4,55.3c-.878,3.013-2.655,3.3-4.909,3.285V47.809c-1.744-2.6-.751,9.8-.99,10.759-3.792-.043-7.6,0-11.391-.017-2.876,0-4.8-.508-5.518-3.687-.614-2.736,0-6.313,0-9.121,0-1.174.4-3.029-.631-3.868-1.381-1.113-5.01-.327-6.647-.317a10.88,10.88,0,0,0-5.677-6.017h18.07c.374,4.072,6.379,4.077,6.622-.074C58.088,35.589,59.645,46.831,58.4,55.3Z" fill="#262626"/><path d="M16.656,26.71a2.045,2.045,0,0,1-3.192-.075c-.41-.5-1.289.294-.929.73a3.042,3.042,0,0,0,4.809-.074C17.818,26.715,17.134,26.131,16.656,26.71Z" fill="#262626"/><path d="M45.624,25.731a1.966,1.966,0,0,1-3.128-.068c-.383-.465-1.37.217-.993.674a3.123,3.123,0,0,0,4.873-.068C46.872,25.668,46.064,25.2,45.624,25.731Z" fill="#262626"/></svg>
