<svg id="Icons" height="512" viewBox="0 0 60 60" width="512" xmlns="http://www.w3.org/2000/svg"><path d="m45.162 49.481a.5.5 0 0 1 -.318-.885l3.2-2.646-3.783 2.184a.5.5 0 0 1 -.559-.826l3.424-2.688-3.874 2.236a.5.5 0 0 1 -.561-.824l4.677-3.716-5.288 3.054a.5.5 0 0 1 -.548-.834l4.2-3.12-4.654 2.684a.5.5 0 0 1 -.546-.836l4.722-3.458-5.2 3a.5.5 0 0 1 -.55-.833l6.405-4.788-7.071 4.082a.5.5 0 0 1 -.545-.836l6.938-5.081-7.6 4.388a.5.5 0 0 1 -.54-.84l7-4.985-7.591 4.387a.5.5 0 0 1 -.524-.851l2.267-1.49-2.467 1.424a.5.5 0 0 1 -.538-.842l8.3-5.834-8.95 5.167a.5.5 0 0 1 -.535-.843l8.92-6.209-9.584 5.533a.5.5 0 0 1 -.526-.849l6.126-4.053-6.505 3.756a.5.5 0 0 1 -.534-.845l10.287-7.073-10.999 6.35a.5.5 0 0 1 -.522-.852l6.207-4.038-6.557 3.785a.5.5 0 0 1 -.526-.849l9.369-6.21-9.9 5.716a.5.5 0 0 1 -.52-.853l5.778-3.706-6.085 3.512a.5.5 0 0 1 -.515-.856l.957-.6-1.094.631a.5.5 0 0 1 -.529-.847l11.339-7.625-12.023 6.94a.5.5 0 0 1 -.523-.851l8.3-5.419-8.743 5.046a.5.5 0 0 1 -.517-.855l2.944-1.863-3.141 1.813a.5.5 0 0 1 -.52-.853l4.93-3.154-5.2 3a.5.5 0 0 1 -.529-.847l10.402-6.961-11.02 6.362a.5.5 0 0 1 -.518-.855l2.49-1.575-2.672 1.542a.5.5 0 0 1 -.517-.855l.744-.464-.876.5a.5.5 0 0 1 -.524-.851l8.123-5.332-8.573 4.95a.5.5 0 0 1 -.53-.848l10.34-6.964-10.975 6.336a.5.5 0 0 1 -.512-.856l.152-.1-.267.154a.5.5 0 0 1 -.518-.855l1.873-1.187-2.04 1.181a.5.5 0 0 1 -.529-.848l8.138-5.467-8.652 4.995a.5.5 0 0 1 -.536-.843l8.153-5.694-8.774 5.067a.5.5 0 0 1 -.529-.848l4.207-2.836-4.398 2.536a.5.5 0 0 1 -.525-.849l.8-.528-.274.158a.5.5 0 0 1 -.534-.844l2.1-1.445-1.561.9a.5.5 0 0 1 -.573-.814l4.147-3.515-3.58 2.066a.5.5 0 0 1 -.587-.8l1.912-1.744-1.325.765a.5.5 0 0 1 -.673-.7l.872-1.376a.5.5 0 0 1 -.594-.224.5.5 0 0 1 .182-.682l1.659-.958a.5.5 0 0 1 .672.7l-.86 1.358 3.57-2.058a.5.5 0 0 1 .587.8l-1.912 1.743 4.408-2.543a.5.5 0 0 1 .574.814l-4.156 3.515 7.503-4.329a.5.5 0 0 1 .534.843l-2.093 1.444 3.965-2.287a.5.5 0 0 1 .525.849l-.789.522 2.375-1.371a.5.5 0 0 1 .529.847l-4.207 2.833 6.38-3.68a.5.5 0 0 1 .536.842l-8.154 5.7 11.324-6.542a.5.5 0 0 1 .529.847l-8.133 5.463 10.388-6a.5.5 0 0 1 .518.856l-1.878 1.191 2.306-1.331a.5.5 0 0 1 .515.856l-.159.1.38-.219a.5.5 0 0 1 .529.848l-10.343 6.967 11.176-6.452a.5.5 0 0 1 .525.85l-8.116 5.324 8.726-5.037a.5.5 0 0 1 .517.856l-.758.476 1-.575a.5.5 0 0 1 .517.856l-2.485 1.573 2.788-1.61a.5.5 0 0 1 .528.848l-10.407 6.964 11.218-6.474a.5.5 0 0 1 .519.854l-4.923 3.149 5.33-3.08a.5.5 0 0 1 .517.856l-2.944 1.863 3.262-1.883a.5.5 0 0 1 .523.852l-8.302 5.422 8.906-5.142a.5.5 0 0 1 .529.848l-11.335 7.624 12.178-7.032a.5.5 0 0 1 .515.857l-.964.6.892-.514a.5.5 0 0 1 .52.853l-5.785 3.71 5.365-3.1a.5.5 0 0 1 .526.85l-9.369 6.21 8.843-5.1a.5.5 0 0 1 .522.851l-6.2 4.034 5.68-3.278a.5.5 0 0 1 .533.845l-10.29 7.076 9.757-5.633a.5.5 0 0 1 .525.85l-6.124 4.051 5.6-3.232a.5.5 0 0 1 .535.843l-8.92 6.209 8.385-4.841a.5.5 0 0 1 .538.842l-8.3 5.834 7.758-4.479a.5.5 0 0 1 .524.851l-2.259 1.484 1.735-1a.5.5 0 0 1 .54.84l-7.006 4.985 6.466-3.732a.5.5 0 0 1 .545.836l-6.941 5.082 6.4-3.692a.5.5 0 0 1 .55.833l-6.4 4.786 5.853-3.379a.5.5 0 0 1 .546.836l-4.722 3.458 4.176-2.41a.5.5 0 0 1 .548.834l-4.206 3.125 3.658-2.111a.5.5 0 0 1 .56.824l-4.674 3.714 4.114-2.375a.5.5 0 0 1 .558.826l-3.425 2.689 2.86-1.65a.5.5 0 0 1 .568.818l-3.2 2.645 2.632-1.52a.5.5 0 0 1 .613.776l-1.9 2.008 1.287-.743a.5.5 0 0 1 .62.769l-.405.446a.5.5 0 0 1 .117.915l-2.063 1.186a.5.5 0 0 1 -.62-.768l.078-.087-1.488.859a.5.5 0 0 1 -.613-.776l1.9-2.008-4.834 2.791a.491.491 0 0 1 -.25.07z" fill="#c6d9db"/><path d="m16.291 59.47a.5.5 0 0 1 -.264-.925l2.324-1.445-3.986 2.3a.5.5 0 0 1 -.516-.855l8.471-5.328-10.711 6.183a.5.5 0 0 1 -.518-.854l14.273-9.093-16.92 9.771a.5.5 0 0 1 -.514-.858l11.5-7.164-12.014 6.936a.5.5 0 0 1 -.516-.858l12.126-7.545-11.746 6.782a.5.5 0 0 1 -.517-.856l16.817-10.629-16.3 9.411a.5.5 0 0 1 -.515-.856l14.619-9.164-14.104 8.142a.5.5 0 0 1 -.516-.855l16.053-10.11-15.537 8.964a.5.5 0 0 1 -.518-.854l18.553-11.816-18.035 10.412a.5.5 0 0 1 -.518-.855l18.345-11.675-17.827 10.292a.5.5 0 0 1 -.511-.858l6.724-4.136-6.213 3.587a.5.5 0 0 1 -.515-.856l13.262-8.321-12.747 7.36a.5.5 0 0 1 -.51-.86l2.405-1.472-1.9 1.093a.5.5 0 0 1 -.515-.856l11.2-7.024-10.68 6.175a.5.5 0 0 1 -.512-.859l4.441-2.741-3.929 2.265a.5.5 0 0 1 -.514-.856l7.6-4.736-7.086 4.089a.5.5 0 0 1 -.511-.859l1.85-1.14-1.339.773a.5.5 0 0 1 -.52-.854l13.158-8.465-12.638 7.296a.5.5 0 0 1 -.517-.856l9-5.7-8.483 4.9a.5.5 0 0 1 -.525-.85l13.932-9.175-13.407 7.735a.5.5 0 0 1 -.524-.85l12.153-7.976-11.629 6.714a.5.5 0 0 1 -.523-.852l9.527-6.213-9 5.2a.5.5 0 0 1 -.516-.856l1.106-.7-.59.34a.5.5 0 0 1 -.536-.843l9.377-6.546-8.845 5.107a.5.5 0 0 1 -.531-.846l4.8-3.262-4.269 2.464a.5.5 0 0 1 -.535-.843l3.542-2.461-3.007 1.736a.5.5 0 0 1 -.539-.841l2.1-1.485-1.558.9a.5.5 0 0 1 -.575-.813l3.244-2.78-2.672 1.539a.5.5 0 0 1 -.58-.807l1.039-.915-.459.264a.5.5 0 0 1 -.659-.72l.725-1.035a.468.468 0 0 1 -.461-.249.5.5 0 0 1 .182-.682l1.659-.956a.5.5 0 0 1 .659.719l-.652.931 2.867-1.65a.5.5 0 0 1 .58.807l-1.038.914 2.979-1.721a.5.5 0 0 1 .575.812l-3.244 2.78 6.223-3.592a.5.5 0 0 1 .539.84l-2.1 1.486 4.03-2.326a.5.5 0 0 1 .536.842l-3.541 2.458 5.724-3.3a.5.5 0 0 1 .532.845l-4.795 3.255 7.109-4.1a.5.5 0 0 1 .536.842l-9.379 6.547 12.8-7.389a.5.5 0 0 1 .517.855l-1.095.69 2.652-1.531a.5.5 0 0 1 .524.852l-9.527 6.212 10.825-6.249a.5.5 0 0 1 .524.85l-12.159 7.98 12.973-7.494a.5.5 0 0 1 .526.85l-13.926 9.174 14.855-8.575a.5.5 0 0 1 .517.855l-9 5.7 9.532-5.5a.5.5 0 0 1 .521.853l-13.154 8.461 13.917-8.035a.5.5 0 0 1 .512.858l-1.865 1.149 2.131-1.23a.5.5 0 0 1 .514.857l-7.588 4.731 8.027-4.635a.5.5 0 0 1 .513.859l-4.448 2.743 4.778-2.758a.5.5 0 0 1 .515.857l-11.203 7.021 11.772-6.8a.5.5 0 0 1 .51.859l-2.411 1.476 2.686-1.55a.5.5 0 0 1 .515.857l-13.262 8.32 13.84-7.99a.5.5 0 0 1 .511.858l-6.719 4.132 6.659-3.844a.5.5 0 0 1 .518.855l-18.35 11.684 17.877-10.321a.5.5 0 0 1 .518.855l-18.553 11.816 18.035-10.407a.5.5 0 0 1 .516.855l-16.043 10.104 15.527-8.959a.5.5 0 0 1 .515.856l-14.619 9.159 14.1-8.142a.5.5 0 0 1 .517.855l-16.824 10.635 16.311-9.416a.5.5 0 0 1 .514.857l-12.134 7.552 11.62-6.709a.5.5 0 0 1 .514.858l-11.486 7.155 10.972-6.334a.5.5 0 0 1 .518.854l-14.271 9.091 13.753-7.939a.5.5 0 0 1 .516.855l-8.481 5.334 7.965-4.6a.5.5 0 0 1 .513.857l-2.317 1.44 1.8-1.042a.5.5 0 0 1 .524.851l-10.76 7.078 10.24-5.911a.5.5 0 0 1 .531.846l-10.257 6.988 9.726-5.614a.5.5 0 0 1 .527.849l-5.63 3.755 5.1-2.945a.5.5 0 0 1 .542.838l-6.771 4.889 6.232-3.6a.5.5 0 0 1 .529.847l-.84.567.311-.179a.5.5 0 0 1 .55.832l-3.1 2.325 2.545-1.469a.5.5 0 0 1 .585.8l-2.7 2.444 2.123-1.226a.5.5 0 0 1 .652.73l-1.23 1.666.514-.3a.5.5 0 1 1 .5.865l-2.593 1.5a.5.5 0 0 1 -.652-.729l1.231-1.666-4.15 2.4a.5.5 0 0 1 -.585-.8l2.708-2.443-5.626 3.236a.5.5 0 0 1 -.55-.832l3.095-2.324-5.468 3.156a.5.5 0 0 1 -.529-.846l.84-.568-2.45 1.414a.5.5 0 0 1 -.542-.838l6.773-4.884-9.912 5.722a.5.5 0 0 1 -.527-.848l5.631-3.752-7.978 4.6a.5.5 0 0 1 -.531-.845l10.256-6.987-13.57 7.832a.5.5 0 0 1 -.524-.85l10.763-7.075-13.728 7.925a.5.5 0 0 1 -.25.07z" fill="#dfedef"/><path d="m35.69 23.47a.5.5 0 0 1 -.325-.88l.869-.744-2.092 1.208a.5.5 0 0 1 -.583-.806l2.027-1.81-2.279 1.315a.5.5 0 0 1 -.578-.81l1.571-1.365-1.015.586a.5.5 0 0 1 -.571-.815l.44-.371a.5.5 0 0 1 -.481-.83l1.239-1.306-.627.361a.5.5 0 0 1 -.62-.768l.571-.63a.5.5 0 0 1 -.623-.727l.579-.909a.5.5 0 0 1 -.653-.533l.193-1.621a.481.481 0 0 1 -.13-.149.5.5 0 0 1 .184-.682l.265-.153a.5.5 0 0 1 .524.017.5.5 0 0 1 .221.475l-.146 1.24.8-.461a.5.5 0 0 1 .672.7l-.566.89.941-.543a.5.5 0 0 1 .62.768l-.564.623.848-.489a.5.5 0 0 1 .612.776l-1.239 1.308 1.718-.992a.5.5 0 0 1 .572.815l-.355.3.569-.328a.5.5 0 0 1 .578.809l-1.574 1.361 2-1.157a.5.5 0 0 1 .583.806l-2.027 1.811 2.575-1.487a.5.5 0 0 1 .575.813l-.871.746 1.176-.679a.5.5 0 0 1 .6.791l-.6.58.868-.5a.5.5 0 0 1 .7.654l-.509 1.034.95-.548a.5.5 0 0 1 .734.308l.189.734.011-.007a.5.5 0 1 1 .5.865l-.582.336a.5.5 0 0 1 -.734-.308l-.189-.734-1.801 1.042a.5.5 0 0 1 -.7-.653l.509-1.033-2.921 1.686a.5.5 0 0 1 -.6-.791l.6-.581-2.378 1.372a.493.493 0 0 1 -.25.07z" fill="#b1c8c9"/><path d="m45.376 13.47a.5.5 0 0 1 -.376-.824l1.6-1.876-4.216 2.43a.5.5 0 0 1 -.557-.827l.236-.184-.482.278a.5.5 0 0 1 -.574-.814l1.559-1.325-1.286.742a.5.5 0 0 1 -.594-.795l1.853-1.762-1.259.726a.5.5 0 0 1 -.634-.752l1.725-2.087-1.091.629a.5.5 0 0 1 -.676-.694l1.07-1.735-.394.226a.5.5 0 0 1 -.691-.667l.411-.768a.5.5 0 0 1 -.459-.59l.151-.818a.49.49 0 0 1 -.093-.117.5.5 0 0 1 .184-.682l.265-.153a.5.5 0 0 1 .538.026.5.5 0 0 1 .2.5l-.066.36.213-.123a.5.5 0 0 1 .691.667l-.335.631.6-.345a.5.5 0 0 1 .675.694l-1.071 1.738 1.791-1.034a.5.5 0 0 1 .635.751l-1.726 2.083 2.489-1.437a.5.5 0 0 1 .594.8l-1.852 1.758 2.419-1.4a.5.5 0 0 1 .574.814l-1.563 1.33 1.985-1.144a.5.5 0 0 1 .557.827l-.235.183.436-.251a.5.5 0 0 1 .631.757l-1.6 1.877 2.283-1.318a.5.5 0 0 1 .678.691l-.665 1.1 1.129-.651a.5.5 0 0 1 .739.537l-.112.521.265-.153a.5.5 0 0 1 .5.866l-1.24.715a.5.5 0 0 1 -.739-.537l.112-.52-1.831 1.056a.5.5 0 0 1 -.678-.69l.665-1.1-3.108 1.79a.49.49 0 0 1 -.25.07z" fill="#9cb5b5"/><path d="m53.734 46.934c-.214-11.31.518-22.86-.319-34.086.016-.043.007-.079-.051-.1-4.064-3.831-9.654-12.992-15.535-12.277-6.905.075-13.821-.131-20.719.001-4.72.619-2.266 6.934-2.844 10.182-2.841.116-8.472-1.053-7.99 3.406.016 14.327-.024 28.66 0 42.984.14 4.672 18.873 1.331 23.143 2.285 4.868-.3 10 .622 14.76-.347 2.986-1.94 1.009-6.442 1.545-9.454 2.676-.307 7.467 1.21 8.01-2.594zm-4.328-36.546a27.1 27.1 0 0 1 2.283 2.34c-11.013.318-10.229.9-9.965-10.022zm-5.655 48.058c-9.688.648-19.708.008-29.5.227-3.279.119-7.458.911-6.521-3.869.016-13.958-.025-27.926 0-41.879.456-2.991 4.554-1.139 6.642-1.6a.923.923 0 0 0 1.151 0c5.549.188 11.262-.383 16.75.235-.338 12.859-1.173 12.367 11.813 11.961.054 11.469.956 23.696-.335 34.925zm-8.351-44.112c2.67 2.721 5.476 5.373 8.082 8.145-10.964.286-9.962 1.029-9.746-9.82.564.55 1.107 1.121 1.664 1.675zm11.334 34.138h-1.01c-.278-8.506.555-17.243-.32-25.65a96.639 96.639 0 0 0 -11.704-11.737c-5.659-1.188-12.047-.017-17.963-.42.263-2.844-.559-6.059.374-8.725 7.716-.971 16.28-.4 24.168-.2-.4 12.934-.946 11.792 11.735 11.534.708 10.725.026 21.7.256 32.5.812 3.694-3.244 2.554-5.536 2.698z" fill="#262626"/></svg>