<svg id="Icons" viewBox="0 0 60 60" xmlns="http://www.w3.org/2000/svg"><path d="m29.443 59.457c-.168 0-.333-.085-.427-.239-.142-.231-.072-.533.155-.681l10.263-6.624-12.613 7.281c-.235.138-.534.06-.677-.171-.142-.231-.073-.533.154-.681l15.207-9.883-17.706 10.222c-.235.138-.538.059-.679-.175s-.067-.537.164-.682l10.624-6.645-12.077 6.973c-.238.138-.54.059-.68-.177-.14-.234-.065-.538.168-.682l6.433-3.957-7.459 4.306c-.235.139-.537.06-.679-.175-.141-.233-.067-.537.163-.682l14.995-9.385-16.385 9.459c-.237.138-.539.059-.679-.176-.141-.233-.067-.537.164-.682l15.375-9.574-16.599 9.583c-.235.138-.536.061-.678-.175-.141-.232-.069-.536.161-.681l20.535-12.934-21.938 12.666c-.239.138-.54.057-.681-.178-.14-.236-.062-.541.172-.683l3.396-2.057-3.894 2.248c-.238.137-.54.058-.679-.176-.141-.234-.066-.538.166-.682l17.049-10.543-17.94 10.357c-.239.138-.541.058-.681-.178s-.062-.541.172-.683l4.537-2.744-4.942 2.853c-.238.138-.541.058-.68-.178-.14-.235-.064-.539.169-.682l11.382-6.939-11.902 6.871c-.238.137-.54.059-.68-.177-.14-.234-.065-.538.168-.682l17.528-10.792-18.176 10.493c-.238.137-.541.058-.68-.178-.14-.235-.064-.539.169-.682l12.769-7.786-13.188 7.614c-.237.137-.541.058-.68-.177-.14-.235-.064-.54.169-.683l14.891-9.104-15.303 8.835c-.237.138-.54.059-.679-.176-.141-.234-.066-.538.165-.682l21.937-13.602-22.499 12.989c-.238.138-.543.059-.681-.179-.14-.236-.062-.541.173-.683l3.787-2.281-3.868 2.232c-.238.137-.54.059-.68-.177-.14-.234-.065-.538.168-.682l19.188-11.812-19.509 11.263c-.238.138-.539.058-.679-.175-.141-.234-.067-.537.164-.682l24.459-15.269-24.841 14.353c-.239.138-.54.058-.681-.179-.14-.236-.062-.54.173-.682l4.47-2.696-4.412 2.547c-.238.138-.538.059-.679-.176s-.067-.538.165-.682l21.96-13.631-22.099 12.76c-.237.137-.539.058-.68-.176-.14-.235-.065-.538.167-.683l19.784-12.229-19.788 11.425c-.238.138-.54.059-.68-.177-.14-.234-.065-.538.168-.682l17.013-10.469-16.893 9.754c-.238.137-.54.059-.68-.177-.14-.234-.065-.539.168-.682l15.682-9.64-15.469 8.931c-.238.138-.541.058-.681-.178s-.062-.54.172-.683l6.011-3.645-5.67 3.273c-.238.137-.54.059-.68-.177-.14-.234-.065-.538.168-.682l14.474-8.908-14.107 8.147c-.236.138-.537.061-.679-.175-.141-.233-.068-.536.163-.682l20.288-12.741-19.824 11.446c-.235.138-.537.059-.679-.175-.141-.233-.067-.536.163-.682l18.011-11.293-17.395 10.043c-.236.139-.537.06-.678-.174-.141-.232-.07-.535.159-.681l18.986-12.062-18.155 10.482c-.238.137-.54.058-.68-.176-.14-.235-.065-.539.167-.683l8.237-5.087-7.389 4.266c-.235.139-.537.06-.679-.175-.141-.233-.067-.536.163-.682l11.374-7.133-10.3 5.946c-.237.138-.539.059-.679-.176-.141-.234-.066-.538.165-.682l5.21-3.23-4.1 2.366c-.235.136-.535.061-.677-.172-.142-.231-.072-.534.155-.681l11.721-7.561-10.041 5.797c-.234.138-.535.06-.676-.171-.143-.231-.074-.533.153-.681l8.723-5.672-6.678 3.854c-.233.136-.529.062-.673-.167-.144-.228-.081-.527.141-.679l7.729-5.273-4.568 2.637c-.23.134-.526.062-.67-.162-.145-.224-.088-.522.129-.677l4.192-2.999c-.087-.042-.163-.11-.215-.2-.139-.239-.057-.545.183-.683l6.592-3.806c.229-.135.525-.063.67.162.145.224.088.522-.129.677l-2.355 1.686 7.187-4.149c.234-.135.53-.062.673.167.144.228.081.527-.141.679l-7.736 5.278 11.518-6.645c.236-.137.534-.06.676.171.143.231.074.533-.153.681l-8.715 5.667 11.253-6.498c.235-.137.536-.061.677.172.142.231.072.534-.155.681l-11.725 7.563 14.046-8.109c.237-.138.539-.059.679.176.141.234.066.538-.165.682l-5.206 3.229 6.492-3.748c.237-.137.539-.058.679.175.141.233.067.536-.163.682l-11.375 7.133 12.902-7.448c.236-.138.538-.059.68.176.14.235.065.539-.167.683l-8.258 5.1 9.38-5.415c.236-.137.537-.06.678.174.141.232.07.535-.159.681l-18.976 12.056 20.716-11.965c.237-.136.538-.059.679.175s.067.536-.163.682l-18.004 11.289 19.363-11.18c.237-.136.538-.06.679.175.141.233.068.536-.163.682l-20.305 12.752 21.628-12.486c.236-.138.538-.06.68.177.14.234.065.538-.168.682l-14.449 8.894 15.271-8.817c.237-.14.539-.059.681.178.14.236.062.54-.172.683l-6.037 3.66 6.503-3.754c.236-.139.538-.06.68.177.14.234.065.539-.168.682l-15.666 9.63 16.363-9.447c.236-.138.538-.06.68.177.14.234.065.538-.168.682l-17.023 10.476 17.676-10.205c.236-.139.538-.06.68.176.14.235.065.538-.167.683l-19.769 12.22 20.435-11.798c.237-.139.537-.06.679.176.141.234.067.538-.165.682l-21.979 13.643 22.637-13.068c.238-.14.541-.059.681.179.14.236.062.54-.173.682l-4.453 2.687 4.598-2.654c.236-.139.538-.059.679.175s.067.537-.164.682l-24.458 15.269 25.044-14.459c.237-.139.539-.06.68.177.14.234.065.538-.168.682l-19.191 11.815 19.484-11.249c.237-.14.541-.059.681.179.14.236.062.541-.173.683l-3.787 2.281 3.773-2.178c.236-.138.539-.059.679.176.141.234.066.538-.165.682l-21.932 13.599 22.155-12.791c.237-.139.54-.059.68.177s.064.54-.169.683l-14.888 9.103 14.894-8.599c.236-.139.54-.059.68.178.14.235.064.539-.169.682l-12.774 7.789 12.692-7.327c.236-.139.538-.06.68.177.14.234.065.538-.168.682l-17.544 10.802 17.452-10.075c.237-.139.54-.059.68.178.14.235.064.539-.169.682l-11.347 6.918 11.122-6.421c.237-.139.54-.058.681.178.14.236.062.541-.172.683l-4.539 2.746 4.226-2.439c.236-.138.539-.059.679.176.141.234.066.538-.166.682l-17.059 10.55 16.74-9.665c.237-.14.54-.058.681.178.14.236.062.541-.172.683l-3.375 2.044 2.943-1.699c.237-.136.538-.06.678.175.141.232.069.536-.161.681l-20.541 12.938 20.032-11.565c.236-.139.537-.06.679.176.141.233.067.537-.164.682l-15.383 9.579 14.738-8.509c.237-.137.538-.058.679.175s.067.537-.163.682l-14.988 9.381 14.193-8.194c.237-.139.539-.06.68.177.14.234.065.538-.168.682l-6.442 3.964 5.612-3.24c.236-.136.538-.059.679.175s.067.537-.164.682l-10.62 6.642 9.569-5.524c.235-.138.534-.06.677.171.142.231.073.533-.154.681l-15.208 9.884 13.638-7.873c.235-.138.535-.06.677.172.142.231.072.533-.155.681l-10.271 6.63 8.483-4.897c.234-.137.533-.062.675.17.143.229.076.531-.149.68l-8.645 5.714 6.232-3.598c.234-.138.531-.061.675.168.143.229.077.53-.146.68l-4.318 2.895 1.309-.755c.239-.14.545-.057.683.183.139.239.057.545-.183.683l-14.252 8.229c-.235.136-.533.061-.675-.168-.143-.229-.077-.53.146-.68l4.317-2.895-7.611 4.395c-.235.135-.534.062-.675-.17-.143-.229-.076-.531.149-.68l8.654-5.721-11.613 6.704c-.079.046-.165.067-.25.067z" fill="#dd4752"/><g fill="#fff"><path d="m40.982 45.288c-.147 0-.292-.065-.39-.187-.154-.192-.146-.469.021-.65l1.521-1.668-2.364 1.365c-.213.124-.484.073-.639-.118-.155-.192-.147-.468.019-.65l1.846-2.037-2.56 1.478c-.217.127-.498.07-.65-.133-.151-.203-.128-.487.056-.661l1.273-1.216-1.707.985c-.213.125-.485.072-.64-.119-.154-.192-.146-.469.021-.65l1.833-2.009-2.535 1.463c-.209.123-.478.075-.635-.113-.155-.187-.153-.459.005-.644l1.982-2.323-2.814 1.624c-.209.123-.478.075-.635-.113-.155-.187-.153-.459.005-.644l1.984-2.326-2.817 1.627c-.22.13-.507.068-.657-.143-.149-.21-.115-.499.079-.668l.573-.497-.828.478c-.218.129-.502.07-.652-.137-.151-.205-.124-.49.063-.663l1.075-.992-1.447.835c-.218.129-.501.07-.653-.137-.15-.205-.123-.491.064-.664l1.059-.973-1.426.822c-.239.139-.546.056-.683-.183-.139-.239-.057-.545.183-.683l5.344-3.085c.22-.128.502-.07.653.137.15.205.123.491-.064.664l-1.059.974 1.423-.821c.22-.128.502-.069.652.137.151.205.124.49-.063.663l-1.074.991 1.443-.833c.221-.128.507-.067.657.143.149.21.115.499-.079.668l-.573.497.826-.477c.209-.123.478-.075.635.113.155.187.153.459-.005.644l-1.985 2.326 2.814-1.624c.21-.123.477-.075.635.113.155.187.153.459-.005.644l-1.982 2.323 2.811-1.622c.212-.125.485-.072.64.119.154.192.146.469-.021.65l-1.832 2.009 2.53-1.461c.217-.128.497-.07.65.133.151.203.128.486-.056.661l-1.274 1.217 1.706-.984c.211-.125.483-.074.639.118s.147.468-.019.65l-1.845 2.035 2.396-1.383c.212-.124.485-.073.64.119s.146.469-.021.65l-1.522 1.669 1.144-.66c.238-.14.545-.057.683.183.139.239.057.545-.183.683l-3.938 2.273c-.078.046-.164.067-.25.067z"/><path d="m33.145 23.162c-.164 0-.325-.081-.42-.229-.145-.225-.088-.522.128-.678l3.5-2.512c-.092-.035-.174-.097-.233-.183-.148-.214-.107-.506.094-.671l2.855-2.348c-.132-.238-.049-.539.188-.675l2.164-1.25c.224-.131.513-.066.661.147s.107.506-.094.671l-.455.375 1.548-.894c.229-.135.526-.062.67.161.145.225.088.522-.128.678l-1.985 1.425 2.467-1.424c.237-.14.545-.057.683.183.139.239.057.545-.183.683l-11.209 6.472c-.078.046-.165.067-.25.067z"/><path d="m18.33 45.451c-.158 0-.313-.075-.41-.214-.148-.213-.109-.504.09-.67l.979-.815-2.199 1.27c-.229.133-.521.063-.667-.156-.146-.221-.095-.516.115-.676l6.091-4.602-6.836 3.946c-.235.136-.535.061-.677-.172s-.072-.534.156-.681l2.179-1.403-1.865 1.076c-.235.138-.535.06-.678-.173-.141-.232-.07-.535.158-.681l1.48-.946-.493.284c-.236.137-.534.06-.676-.171-.143-.231-.074-.533.153-.681l8.052-5.24-3.679 2.124c-.236.138-.535.06-.677-.172s-.072-.533.155-.681l6.917-4.468-2.582 1.49c-.235.139-.535.06-.677-.173s-.071-.534.157-.681l3.289-2.105-.305.176c-.21.123-.48.074-.637-.115-.155-.189-.15-.463.011-.646l1.942-2.218-2.724 1.572c-.213.125-.489.072-.643-.123s-.141-.474.03-.654l1.72-1.81-2.342 1.353c-.217.128-.5.07-.65-.134-.152-.203-.128-.487.057-.662l1.249-1.184-1.671.964c-.211.123-.48.073-.636-.114-.155-.188-.152-.462.009-.646l1.95-2.242-2.743 1.583c-.216.127-.496.071-.648-.13s-.132-.483.049-.66l1.426-1.397-1.911 1.103c-.21.123-.479.074-.635-.113-.156-.188-.153-.461.006-.646l1.966-2.283-2.777 1.603c-.214.125-.491.072-.645-.126-.153-.197-.138-.477.037-.656l1.614-1.655-2.184 1.261c-.213.125-.485.073-.642-.121-.153-.193-.143-.471.025-.652l1.772-1.902-2.398 1.384c-.222.131-.505.067-.656-.141-.149-.209-.117-.497.075-.667l.676-.597-.59.341c-.203.118-.46.078-.619-.095-.158-.173-.175-.433-.04-.625l1.256-1.792-.099.057c-.24.138-.546.057-.683-.183-.139-.239-.057-.545.183-.683l2.054-1.186c.202-.118.461-.079.619.095.158.173.175.433.04.625l-1.255 1.791 2.965-1.712c.221-.129.505-.067.656.141.149.209.117.497-.075.667l-.679.599.96-.554c.212-.125.485-.074.642.121.153.193.143.471-.025.652l-1.771 1.902 2.433-1.404c.213-.126.491-.073.645.126.153.197.138.478-.037.656l-1.614 1.654 2.187-1.262c.21-.124.479-.075.635.113s.153.461-.006.646l-1.966 2.284 2.781-1.605c.215-.127.495-.071.648.13.152.201.132.483-.049.66l-1.425 1.397 1.913-1.104c.211-.124.479-.074.636.114.155.188.152.462-.009.646l-1.95 2.242 2.746-1.585c.218-.128.5-.07.65.134.152.203.128.487-.057.662l-1.248 1.184 1.673-.966c.214-.125.488-.072.643.123s.141.474-.03.654l-1.722 1.811 2.348-1.354c.21-.124.48-.074.637.115.155.189.15.463-.011.646l-1.942 2.217 16.63-9.601c.236-.136.536-.059.677.173.142.232.071.534-.157.681l-3.287 2.104.982-.566c.234-.137.535-.061.677.172.142.231.072.533-.155.681l-6.922 4.472 2.586-1.493c.235-.136.535-.06.676.171.143.231.074.533-.153.681l-8.056 5.242 3.446-1.989c.236-.137.536-.059.678.173.141.232.07.535-.158.681l-1.473.941.498-.287c.236-.136.536-.061.677.172.142.232.072.534-.156.681l-5.726 3.688c.085.037.161.099.216.182.146.221.095.516-.115.676l-6.087 4.598.245-.141c.224-.132.512-.066.66.146s.109.504-.09.67l-3.197 2.663s.004.006.005.009c.139.239.057.545-.183.683l-2.158 1.245c-.078.046-.165.067-.25.067z"/></g><path d="m44.666 20.279c3.261-3.285-1.708-7.595-4.973-4.856-3.383 2.917-6.291 6.437-9.564 9.503-3.083-3.107-6.092-6.327-9.304-9.296-2.807-2.595-8.416.534-6.048 4.231 3.221 3.544 6.81 6.808 10.152 10.261-2.373 3.424-12.899 9.647-10.054 13.882 5.16 5.237 11.008-6.26 15-8.936 3.857 3.211 6.769 8.177 11.301 10.31 3.232.494 6.014-3.107 3.615-5.782-3.24-3.24-6.481-6.481-9.721-9.721 3.2-3.192 6.487-6.318 9.595-9.598zm-6.335 4.917c-1.433 1.724-3.803 3.23-4.767 5.089 2.83 3.671 9.783 7.898 10.695 12.132-.145 1.41-1.424 2.553-2.868 1.962-14.468-12.111-7.088-14.912-21.773-.469-1.097.892-2.404.793-3.298-.338-2.873-3.488 7.967-10.351 10.028-13.448-1.986-3.417-6.444-6.467-9.246-9.749-2.266-1.397-1.442-5.866 1.605-4.734 2.571 1.2 9.968 11.712 11.878 10.248 3.112-3.113 6.225-6.225 9.337-9.337 1.008-1.008 2.292-1.62 3.529-.387 2.836 3.647-3.26 6.435-5.117 9.03z" fill="#262626"/><path d="m39.69 2.148c-49.018-11.83-53.836 63.055-3.535 56.494 28.984-5.95 31.781-47.157 3.535-56.494zm-.063 54.485c-11.291 4.034-24.217.058-31.636-9.104-16.704-19.829 2.5-51.456 28.26-44.981 27.132 6.252 29.652 44.699 3.377 54.084z" fill="#262626"/></svg>