<svg id="Icons" viewBox="0 0 60 60" xmlns="http://www.w3.org/2000/svg"><path d="m22.849 8.496c-.158 0-.312-.075-.409-.213-.149-.212-.111-.503.087-.67l3.939-3.313-6.187 3.571c-.226.133-.518.064-.664-.152-.147-.218-.101-.512.105-.674l2.6-2.035-1.909 1.102c-.223.131-.512.066-.66-.146s-.109-.503.09-.67l1.206-1.009c-.19.053-.394-.009-.521-.163-.155-.189-.151-.462.009-.646l.907-1.043c-.084-.042-.156-.108-.206-.195-.139-.239-.057-.545.183-.683l1.656-.956c.211-.124.479-.073.636.114.155.189.151.462-.009.646l-.448.516 2.215-1.278c.224-.131.512-.066.66.146s.109.503-.09.67l-1.134.948 3.058-1.765c.226-.132.518-.063.664.152.147.218.101.512-.105.674l-2.599 2.035 4.956-2.861c.224-.131.511-.066.659.146.149.212.111.503-.087.67l-3.939 3.313 7.152-4.129c.225-.131.511-.066.659.146.149.213.11.504-.088.67l-3.91 3.278 6.316-3.646c.229-.136.524-.063.67.161.145.223.089.521-.127.677l-1.112.805 1.21-.698c.225-.13.51-.067.658.144.149.211.113.5-.082.668l-2.404 2.064 2.422-1.398c.219-.128.503-.069.652.136.151.205.124.491-.063.664l-1.122 1.037 1.032-.596c.187-.108.422-.084.583.06s.212.375.125.572l-.627 1.44.28-.161c.238-.14.545-.057.683.183.139.239.057.545-.183.683l-1.595.921c-.187.107-.422.085-.583-.06-.161-.144-.212-.375-.125-.572l.627-1.441-3.601 2.078c-.218.13-.502.069-.652-.136-.151-.206-.124-.491.063-.664l1.119-1.034-3.185 1.839c-.221.13-.51.067-.658-.144-.149-.211-.113-.5.082-.668l2.407-2.066-4.993 2.882c-.229.134-.524.062-.67-.161-.145-.223-.089-.521.127-.677l1.107-.801-2.846 1.643c-.223.131-.51.067-.659-.146s-.11-.504.088-.67l3.912-3.279-7.104 4.101c-.078.046-.165.067-.25.067z" fill="#bfc2e0"/><path d="m17.755 59.47c-.169 0-.334-.086-.428-.24-.141-.232-.07-.535.159-.682l11.709-7.46-14.135 8.16c-.236.137-.536.059-.677-.172-.142-.232-.072-.534.156-.682l16.729-10.765-17.843 10.301c-.238.138-.539.059-.679-.176-.141-.234-.067-.537.165-.682l9.974-6.201-9.867 5.696c-.235.139-.536.061-.678-.175-.142-.233-.069-.536.161-.681l14.306-9.001-13.953 8.055c-.236.139-.538.06-.679-.175-.141-.233-.068-.536.163-.682l14.161-8.895-13.807 7.971c-.238.137-.54.059-.68-.177s-.064-.539.168-.683l4.587-2.81-4.189 2.418c-.235.139-.537.06-.678-.173s-.07-.535.159-.682l18.116-11.537-17.79 10.271c-.235.138-.537.06-.679-.175-.141-.233-.067-.537.163-.682l14.007-8.764-13.649 7.88c-.238.137-.54.058-.68-.176-.14-.235-.065-.538.167-.683l9.896-6.117-9.519 5.495c-.238.138-.541.058-.68-.178-.14-.235-.064-.539.169-.682l3.782-2.31-3.382 1.952c-.237.137-.539.058-.68-.176-.14-.235-.065-.539.167-.683l9.958-6.149-9.58 5.531c-.235.138-.536.061-.678-.174-.141-.232-.07-.535.159-.681l19.337-12.295-19.016 10.978c-.238.137-.54.058-.68-.176-.14-.235-.065-.539.167-.683l10.512-6.489-10.135 5.852c-.238.137-.54.059-.68-.177s-.064-.539.169-.683l6.621-4.054-6.23 3.597c-.238.137-.54.059-.68-.177s-.065-.539.168-.682l8.225-5.049-7.838 4.524c-.238.137-.54.059-.68-.177s-.064-.539.169-.683l5.88-3.6-5.487 3.168c-.236.137-.536.06-.677-.173-.142-.231-.072-.533.156-.681l17.446-11.207-17.123 9.886c-.235.137-.534.061-.677-.172-.142-.23-.073-.532.154-.681l15.337-9.95-15.009 8.665c-.235.137-.534.06-.676-.171s-.074-.532.152-.68l12.991-8.504-12.654 7.306c-.235.137-.535.06-.676-.171-.142-.23-.074-.532.152-.681l9.433-6.148-9.069 5.235c-.235.138-.536.06-.678-.174-.141-.233-.069-.536.161-.682l1.436-.906-1.025.592c-.236.137-.533.061-.677-.172-.142-.231-.072-.533.155-.681l4.066-2.633-3.669 2.118c-.232.136-.529.062-.673-.166-.144-.227-.082-.526.14-.679l6.904-4.748-6.537 3.773c-.232.135-.529.062-.672-.165-.144-.227-.083-.525.137-.679l4.653-3.227-4.264 2.461c-.227.133-.519.064-.666-.154-.146-.219-.098-.514.111-.675l5.052-3.886-4.681 2.702c-.224.132-.516.066-.662-.149-.147-.216-.105-.509.099-.673l3.03-2.444-2.626 1.516c-.227.132-.517.065-.664-.152-.146-.217-.102-.511.104-.673l.541-.426-.091.052c-.21.123-.481.074-.638-.116-.154-.19-.149-.465.014-.648l1.084-1.224-.601.347c-.176.101-.395.085-.554-.035-.16-.123-.231-.33-.18-.525l.27-1.015c-.089-.042-.166-.11-.219-.202-.139-.239-.057-.545.183-.683l.5-.289c.174-.102.394-.088.554.035s.231.33.18.525l-.191.721 2.224-1.283c.211-.123.48-.074.638.116.154.19.149.465-.014.648l-1.085 1.225 3.449-1.991c.224-.133.516-.066.664.152.146.217.102.511-.104.673l-.543.428 2.173-1.254c.224-.132.516-.066.662.149.147.216.105.509-.099.673l-3.027 2.441 5.659-3.267c.226-.133.518-.065.666.154.146.219.098.514-.111.675l-5.053 3.887 8.172-4.718c.233-.136.528-.062.672.165s.083.525-.137.679l-4.651 3.226 7.054-4.072c.234-.134.53-.061.673.166.144.227.082.526-.14.679l-6.903 4.748 9.69-5.595c.235-.137.534-.061.677.172.142.231.072.533-.155.681l-4.064 2.631 6.038-3.485c.238-.136.537-.059.678.174s.069.536-.161.682l-1.457.92 3.077-1.776c.235-.137.534-.06.676.171s.074.532-.152.681l-9.423 6.143 12.119-6.997c.235-.137.535-.06.676.171.142.23.074.532-.152.68l-12.987 8.501 16.203-9.354c.236-.137.533-.061.677.172.142.23.073.532-.154.681l-15.342 9.954 18.721-10.809c.236-.138.536-.06.677.173.142.231.072.533-.156.681l-17.448 11.208 20.897-12.064c.237-.139.539-.06.68.177.14.235.064.539-.169.683l-5.868 3.592 6.265-3.616c.236-.139.538-.06.68.177.14.235.065.539-.168.682l-8.245 5.062 7.706-4.448c.236-.139.538-.06.68.177.14.235.064.539-.169.683l-6.595 4.037 5.95-3.435c.236-.139.538-.06.68.176.14.235.065.539-.167.683l-10.527 6.498 9.864-5.694c.237-.137.537-.06.678.174.141.232.07.535-.159.681l-19.332 12.292 18.594-10.734c.236-.139.538-.06.68.176.14.235.065.539-.167.683l-9.939 6.138 9.277-5.356c.236-.138.54-.059.68.178.14.235.064.539-.169.682l-3.824 2.336 3.191-1.843c.236-.139.538-.06.68.176.14.235.065.538-.167.683l-9.896 6.117 9.234-5.331c.237-.136.538-.059.679.175s.067.537-.163.682l-14.001 8.76 13.31-7.684c.236-.137.537-.059.678.173s.07.535-.159.682l-18.118 11.539 17.385-10.037c.236-.138.538-.06.68.177.14.235.064.539-.168.683l-4.586 2.81 3.948-2.279c.237-.137.538-.06.679.175.141.233.068.536-.163.682l-14.167 8.898 13.472-7.777c.237-.136.537-.06.678.175.142.233.069.536-.161.681l-14.301 8.998 13.603-7.853c.237-.139.537-.06.679.176.141.234.067.537-.165.682l-9.983 6.207 9.316-5.378c.235-.137.535-.06.677.172s.072.534-.156.682l-16.725 10.762 15.986-9.229c.237-.136.537-.059.678.173s.07.535-.159.682l-11.712 7.462 11.016-6.359c.235-.137.534-.061.677.172.142.231.072.533-.155.681l-10.948 7.083 10.243-5.913c.233-.138.531-.061.675.169.143.229.077.53-.147.68l-10.605 7.057 9.878-5.703c.233-.137.533-.062.675.169.143.229.077.531-.148.681l-7.072 4.692 6.377-3.682c.233-.137.531-.062.674.168.143.229.079.529-.145.68l-5.241 3.521 4.554-2.629c.233-.137.532-.062.674.168.144.229.079.529-.146.68l-2.614 1.756 1.951-1.126c.227-.135.52-.063.667.156.146.22.096.516-.115.675l-4.844 3.671 4.098-2.365c.229-.136.524-.062.67.16.145.224.089.521-.126.677l-.993.721.325-.188c.214-.125.488-.073.643.123.154.195.142.474-.03.653l-2.364 2.493 1.527-.882c.237-.14.545-.057.683.183.139.239.057.545-.183.683l-4.513 2.605c-.213.125-.488.072-.643-.123s-.142-.474.03-.653l2.364-2.493-5.663 3.27c-.229.134-.525.062-.67-.16-.145-.224-.089-.521.126-.677l.993-.721-2.698 1.558c-.228.133-.521.063-.667-.156-.146-.22-.096-.516.115-.675l4.844-3.671-7.799 4.502c-.235.136-.533.06-.674-.168-.144-.229-.079-.529.146-.68l2.611-1.754-4.507 2.602c-.235.136-.533.06-.674-.168-.143-.229-.079-.529.145-.68l5.243-3.522-7.57 4.37c-.235.136-.534.061-.675-.169-.143-.229-.077-.531.148-.681l7.07-4.69-9.597 5.54c-.235.136-.532.061-.675-.169s-.077-.53.147-.68l10.61-7.06-13.698 7.908c-.236.136-.534.061-.677-.172-.142-.231-.072-.533.155-.681l10.947-7.083-13.745 7.936c-.079.046-.165.067-.25.067z" fill="#bfc2e0"/><path d="m43.352 15.47c-.165 0-.326-.082-.422-.23-.144-.226-.085-.524.135-.679l.546-.384-2.124 1.226c-.233.134-.526.062-.671-.162-.144-.225-.087-.523.131-.678l2.381-1.695-4.392 2.535c-.226.133-.519.065-.665-.154s-.099-.514.109-.674l5.495-4.237-8.774 5.065c-.227.135-.522.062-.668-.157-.146-.222-.094-.518.119-.676l5.183-3.871-8.149 4.704c-.233.135-.527.062-.671-.163-.145-.226-.086-.524.133-.679l3.621-2.551-5.876 3.393c-.23.134-.526.062-.67-.161-.145-.225-.088-.522.129-.678l4.235-3.038-6.717 3.877c-.226.133-.52.065-.665-.154-.146-.219-.099-.514.11-.675l5.643-4.344-8.962 5.173c-.229.134-.526.062-.67-.162-.145-.224-.088-.521.129-.677l4.207-3.016-6.677 3.854c-.232.135-.527.062-.671-.163-.145-.226-.086-.524.133-.678l3.662-2.582-5.931 3.423c-.232.136-.527.061-.673-.165-.143-.227-.082-.526.139-.679l2.859-1.979-4.89 2.822c-.228.132-.521.062-.666-.155-.146-.22-.097-.515.113-.675l5.515-4.206-8.724 5.036c-.236.135-.532.061-.675-.169s-.077-.53.147-.68l.541-.361-2.096 1.21c-.227.133-.521.063-.666-.155-.146-.219-.098-.514.112-.674l5.579-4.275-6.415 3.703c-.228.134-.521.062-.666-.155-.146-.219-.097-.515.112-.675l3.732-2.856-3.179 1.835c-.229.134-.525.062-.67-.16-.145-.224-.089-.521.127-.678l.373-.271c-.155.014-.331-.046-.441-.182-.155-.19-.148-.465.015-.648l1.859-2.084c-.236.128-.536.046-.671-.189-.139-.239-.057-.545.183-.683l2.682-1.548c.21-.125.482-.074.638.117.155.19.148.465-.015.648l-1.858 2.083 5.124-2.958c.229-.136.523-.062.67.16.145.224.089.521-.127.678l-.039.028 1.501-.866c.226-.135.52-.064.666.155s.098.515-.112.675l-3.734 2.857 6.389-3.688c.227-.133.52-.063.666.155s.098.514-.112.674l-5.579 4.274 8.842-5.104c.234-.137.532-.062.675.169.143.229.077.53-.147.68l-.547.364 2.103-1.213c.226-.135.52-.064.666.155s.097.515-.113.675l-5.515 4.206 8.724-5.036c.234-.135.528-.061.673.165.143.227.082.526-.139.679l-2.856 1.977 4.886-2.82c.233-.135.527-.062.671.163.145.226.086.524-.133.678l-3.662 2.582 5.931-3.423c.229-.136.526-.063.67.162.145.224.088.521-.129.677l-4.207 3.016 6.677-3.854c.227-.133.519-.065.665.154s.099.514-.11.675l-5.643 4.344 8.962-5.173c.229-.136.525-.062.67.161.145.225.088.522-.129.678l-4.235 3.038 6.717-3.877c.232-.135.527-.062.671.163.145.226.086.524-.133.679l-3.621 2.551 5.876-3.393c.229-.133.522-.062.668.157.146.222.094.518-.119.676l-5.184 3.872 7.931-4.578c.226-.132.52-.065.665.154.146.219.099.514-.109.674l-5.495 4.237 7-4.041c.229-.135.525-.063.671.162.144.225.087.523-.131.678l-2.384 1.697 2.728-1.574c.232-.136.527-.062.672.164.144.225.085.523-.135.678l-.544.382.52-.299c.229-.134.523-.063.669.159.145.222.091.519-.123.676l-.734.541.506-.292c.221-.13.508-.069.658.145.149.211.113.501-.084.668l-1.5 1.281 1.006-.58c.214-.125.49-.071.645.125.153.196.138.477-.035.655l-.711.733.102-.058c.238-.14.545-.057.683.183.139.239.057.545-.183.683l-3.198 1.847c-.214.126-.49.072-.645-.125-.153-.196-.138-.477.035-.655l.711-.734-2.624 1.515c-.222.132-.509.068-.658-.145-.149-.211-.113-.501.084-.668l1.499-1.28-3.626 2.093c-.227.135-.522.064-.669-.159-.145-.222-.091-.519.123-.676l.738-.544-2.389 1.379c-.079.046-.165.067-.25.067z" fill="#e1e1f9"/><g fill="#262626"><path d="m49.442 5.703c-2.917-.074-5.842.019-8.759 0-1.182-3.734-2.242-6.047-6.676-5.223-5.693.564-13.346-2.628-14.611 5.223-6.4-.213-15.656-1.042-14.12 8.27.083 1.689 1.846 1.262 3.009 1.325 7.197 51.522-8.126 43.785 34.175 44.085 2.85.402 5.809-1.148 5.612-4.332 1.205-13.251 2.41-26.502 3.614-39.754 6.072.436 2.805-10.37-2.244-9.595zm-27.894-1.767c.747-4.509 7.824-1.671 11.194-2.416 4.134-.519 5.199.177 6.336 4.182h-18.238c.236-.589.471-1.178.707-1.767zm26.639 34.156c-2.243 29.552.669 18.59-30.401 20.525-2.875.5-4.794-1.408-4.474-4.355-1.181-12.988-2.362-25.977-3.543-38.965 13.497-.008 26.994.015 40.491.001-.691 7.598-1.381 15.196-2.072 22.793zm3.433-23.39c-13.91-.014-27.993.01-41.957 0-1.052-.262-3.024.611-2.939-1.369-1.166-9.043 6.503-6.852 12.611-7.036.196.281.836.264 1.175 0h18.843c.247.309.85.247 1.179 0 6.893-.159 14.323-1.194 12.638 8.405h-1.551z"/><path d="m29.275 20.089v34c0 .609 1.45.307 1.45-.178 0-11.333 0-22.667 0-34 0-.609-1.45-.307-1.45.178z"/><path d="m19.724 19.806c-3.441-2.265.894 26.718.303 30.192 2.989 18.11-.076-27.501-.303-30.192z"/><path d="m40.272 20.076c-.667 11.333-1.333 22.667-2 34-.039.658 1.424.4 1.457-.153.667-11.333 1.333-22.667 2-34 .039-.658-1.424-.4-1.457.153z"/></g></svg>