<svg width="512" height="234" viewBox="0 0 512 234" fill="none" xmlns="http://www.w3.org/2000/svg">
<g clip-path="url(#clip0_17_10)">
<mask id="mask0_17_10" style="mask-type:luminance" maskUnits="userSpaceOnUse" x="0" y="0" width="512" height="234">
<path d="M512 0H0V234H512V0Z" fill="white"/>
</mask>
<g mask="url(#mask0_17_10)">
<mask id="mask1_17_10" style="mask-type:luminance" maskUnits="userSpaceOnUse" x="0" y="0" width="1900" height="234">
<path d="M1900 0H0V234H1900V0Z" fill="white"/>
</mask>
<g mask="url(#mask1_17_10)">
<path d="M114.133 234.411C113.201 234.412 112.294 234.107 111.551 233.544C110.808 232.98 110.27 232.189 110.019 231.291C109.769 230.393 109.819 229.437 110.163 228.571C110.507 227.704 111.125 226.974 111.923 226.492L133.598 213.333L98.1333 233.813C97.1646 234.372 96.0153 234.528 94.9327 234.248C93.8501 233.967 92.9209 233.273 92.3449 232.315C91.7689 231.356 91.5922 230.21 91.8529 229.123C92.1136 228.035 92.7907 227.093 93.7387 226.5L232.747 139.947L70.1013 233.813C69.1364 234.344 68.0036 234.481 66.9399 234.196C65.8763 233.91 64.9641 233.225 64.3943 232.282C63.8245 231.34 63.6411 230.214 63.8825 229.139C64.1239 228.065 64.7714 227.125 65.6896 226.517L234.564 119.851L37.1712 233.813C36.2031 234.338 35.0696 234.469 34.0077 234.177C32.9458 233.885 32.0378 233.195 31.4735 232.249C30.9092 231.303 30.7323 230.176 30.98 229.103C31.2276 228.03 31.8805 227.094 32.8021 226.492L140.553 160.06L18.0907 230.775C17.1257 231.306 15.9929 231.443 14.9292 231.158C13.8656 230.872 12.9535 230.187 12.3836 229.245C11.8138 228.302 11.6304 227.176 11.8718 226.101C12.1132 225.027 12.7607 224.087 13.6789 223.479L184.047 115.465L10.9227 215.415C9.95458 215.94 8.82107 216.071 7.75916 215.779C6.69725 215.488 5.78919 214.797 5.2249 213.851C4.66061 212.905 4.48378 211.778 4.73141 210.705C4.97904 209.632 5.63194 208.697 6.55356 208.094L83.5413 160.631L10.9227 202.556C9.95859 203.071 8.83359 203.197 7.77968 202.907C6.72576 202.617 5.82333 201.933 5.25853 200.997C4.69374 200.062 4.50966 198.945 4.74428 197.877C4.97889 196.809 5.6143 195.873 6.51942 195.26L118.613 124.749L10.9227 186.88C9.96084 187.395 8.83837 187.522 7.7859 187.235C6.73343 186.948 5.83092 186.268 5.26387 185.336C4.69682 184.404 4.5083 183.29 4.73705 182.224C4.96581 181.157 5.59447 180.219 6.49382 179.601L122.394 105.361L10.9227 169.762C9.95525 170.295 8.81896 170.432 7.7527 170.144C6.68644 169.856 5.77328 169.166 5.20523 168.219C4.63719 167.272 4.45852 166.142 4.70679 165.066C4.95506 163.99 5.61093 163.052 6.53649 162.449L48.7424 136.09L10.9227 157.926C9.95652 158.479 8.81295 158.631 7.73576 158.352C6.65857 158.073 5.733 157.385 5.15641 156.433C4.57982 155.481 4.39785 154.342 4.64928 153.258C4.90072 152.174 5.56568 151.231 6.50236 150.63L68.8043 110.933L10.9227 144.384C9.95525 144.917 8.81896 145.054 7.7527 144.766C6.68644 144.478 5.77328 143.788 5.20523 142.841C4.63719 141.894 4.45852 140.764 4.70679 139.688C4.95506 138.611 5.61093 137.673 6.53649 137.071L10.0267 134.895C9.03521 135.218 7.95971 135.167 7.0033 134.752C6.04688 134.336 5.27578 133.585 4.83565 132.639C4.39553 131.694 4.31686 130.62 4.61451 129.621C4.91216 128.621 5.56552 127.765 6.45116 127.215L68.4288 86.5109L10.9227 119.723C9.97084 120.254 8.85157 120.402 7.7946 120.134C6.73763 119.867 5.82316 119.205 5.23894 118.284C4.65472 117.364 4.44507 116.254 4.65305 115.184C4.86102 114.114 5.47084 113.164 6.35729 112.529L76.1344 64.1706L10.9227 101.811C9.96806 102.357 8.8397 102.513 7.77286 102.247C6.70602 101.981 5.78307 101.313 5.19647 100.383C4.60988 99.4533 4.40494 98.3328 4.62439 97.2554C4.84384 96.178 5.47075 95.227 6.37436 94.6005L47.0187 66.6624L10.9227 87.4923C9.98218 88.0311 8.87192 88.1918 7.81728 87.9417C6.76265 87.6917 5.8427 87.0497 5.24424 86.146C4.64578 85.2424 4.41367 84.1448 4.59503 83.0762C4.7764 82.0076 5.35765 81.0481 6.22076 80.3925L49.7408 47.6842L10.9227 70.0843C9.98795 70.6053 8.89162 70.756 7.85099 70.5067C6.81037 70.2573 5.90143 69.626 5.30439 68.738C4.70735 67.85 4.4658 66.77 4.62763 65.7122C4.78946 64.6544 5.34285 63.6961 6.17809 63.0272L31.3173 43.4688L10.9227 55.2362C10.0389 55.7211 9.01208 55.8773 8.02414 55.6774C7.0362 55.4775 6.15095 54.9342 5.52527 54.144C4.8996 53.3537 4.57391 52.3674 4.60594 51.36C4.63796 50.3525 5.02562 49.3889 5.70022 48.64L26.0011 27.3066L10.9227 35.9765C10.0851 36.4427 9.11489 36.6132 8.16855 36.4606C7.22221 36.308 6.35482 35.8412 5.7062 35.1354C5.05759 34.4296 4.66553 33.526 4.59324 32.5701C4.52094 31.6143 4.77261 30.662 5.30769 29.8666L11.3664 21.2736C10.6016 21.2605 9.85172 21.059 9.18339 20.6869C8.51505 20.3147 7.94883 19.7835 7.53489 19.1402C6.97111 18.1621 6.818 17.0004 7.1091 15.9095C7.4002 14.8187 8.11178 13.8877 9.08796 13.3205L23.2277 5.11995C24.0688 4.64056 25.0478 4.46142 26.0041 4.61197C26.9604 4.76251 27.8371 5.23379 28.4901 5.94839C29.1432 6.663 29.5339 7.57845 29.5979 8.5444C29.662 9.51034 29.3956 10.4694 28.8427 11.264L23.4752 18.8842L47.3515 5.11995C48.2393 4.61252 49.2799 4.44085 50.2836 4.6362C51.2874 4.83154 52.1877 5.38091 52.8204 6.18426C53.4532 6.9876 53.7763 7.99149 53.7311 9.0131C53.6858 10.0347 53.2752 11.0061 52.5739 11.7504L32.2816 33.0837L80.6997 5.11995C81.6348 4.58909 82.7358 4.43085 83.7825 4.67687C84.8292 4.92289 85.7444 5.55505 86.3451 6.44687C86.9457 7.33868 87.1875 8.42441 87.0221 9.48684C86.8567 10.5493 86.2962 11.5101 85.4528 12.177L60.3136 31.7184L106.419 5.11995C107.359 4.5924 108.464 4.44021 109.512 4.69396C110.559 4.94772 111.472 5.58862 112.067 6.48784C112.661 7.38706 112.893 8.47796 112.716 9.54127C112.539 10.6046 111.966 11.5615 111.113 12.2197L67.5925 44.945L136.585 5.11995C137.537 4.59532 138.654 4.45419 139.707 4.72537C140.76 4.99655 141.67 5.65959 142.25 6.57902C142.831 7.49846 143.039 8.6049 142.831 9.6723C142.623 10.7397 142.016 11.6875 141.133 12.3221L100.506 40.2346L161.374 5.11995C162.326 4.58811 163.445 4.44082 164.502 4.70831C165.559 4.9758 166.473 5.63777 167.058 6.55833C167.642 7.47889 167.851 8.58818 167.643 9.65845C167.435 10.7288 166.826 11.6788 165.939 12.3136L96.1707 60.6634L192.41 5.11995C193.368 4.59817 194.491 4.46378 195.546 4.74443C196.601 5.02508 197.508 5.69942 198.081 6.62868C198.654 7.55794 198.849 8.67143 198.625 9.74002C198.402 10.8086 197.778 11.751 196.881 12.3733L134.938 53.0432L217.993 5.11995C218.958 4.59685 220.088 4.46626 221.148 4.75534C222.207 5.04442 223.115 5.73091 223.681 6.67196C224.247 7.61301 224.428 8.73613 224.188 9.80761C223.947 10.8791 223.302 11.8164 222.387 12.4245L221.534 12.9792L235.127 5.11995C236.091 4.59789 237.218 4.46644 238.276 4.75286C239.333 5.03927 240.24 5.72159 240.808 6.65843C241.377 7.59527 241.563 8.71482 241.328 9.78509C241.093 10.8554 240.456 11.7944 239.548 12.4074L177.28 52.0533L258.56 5.11995C259.525 4.61113 260.648 4.49108 261.698 4.78447C262.749 5.07785 263.647 5.76238 264.208 6.69744C264.77 7.63249 264.952 8.74707 264.717 9.81219C264.482 10.8773 263.849 11.8121 262.946 12.4245L220.8 38.7328L279.04 5.11995C280.003 4.59052 281.132 4.45282 282.194 4.73553C283.256 5.01824 284.167 5.69957 284.739 6.63763C285.311 7.5757 285.499 8.6982 285.264 9.77139C285.029 10.8446 284.389 11.7858 283.477 12.3989L167.569 86.6389L308.762 5.11995C309.726 4.60472 310.851 4.47914 311.905 4.7691C312.958 5.05906 313.861 5.74245 314.426 6.67831C314.99 7.61416 315.175 8.73109 314.94 9.79869C314.705 10.8663 314.07 11.8032 313.165 12.416L201.071 82.9269L335.881 5.11995C336.85 4.57389 337.994 4.42802 339.069 4.71342C340.145 4.99882 341.066 5.69292 341.637 6.64777C342.208 7.60262 342.383 8.74269 342.126 9.82498C341.868 10.9073 341.198 11.8462 340.258 12.4416L263.228 59.904L358.161 5.11995C359.124 4.61143 360.244 4.49001 361.293 4.78054C362.342 5.07108 363.24 5.7516 363.804 6.68281C364.368 7.61402 364.554 8.72548 364.326 9.78969C364.097 10.8539 363.47 11.7904 362.573 12.4074L192.247 120.371L391.919 5.11995C392.887 4.59503 394.02 4.46472 395.082 4.75628C396.144 5.04783 397.052 5.73867 397.617 6.6843C398.181 7.62993 398.358 8.75712 398.11 9.83013C397.863 10.9032 397.21 11.8389 396.288 12.4416L288.427 78.9248L416.307 5.11995C417.272 4.58929 418.405 4.4523 419.469 4.73763C420.532 5.02296 421.444 5.7085 422.014 6.65087C422.584 7.59324 422.767 8.71945 422.526 9.79392C422.285 10.8684 421.637 11.8079 420.719 12.416L251.844 119.083L449.237 5.11995C450.205 4.58715 451.341 4.45022 452.407 4.73793C453.474 5.02565 454.387 5.7156 454.955 6.66271C455.523 7.60982 455.701 8.7403 455.453 9.81642C455.205 10.8926 454.549 11.8305 453.624 12.433L314.607 98.9867L477.261 5.11995C478.23 4.60884 479.359 4.49034 480.414 4.789C481.468 5.08767 482.367 5.78059 482.924 6.72416C483.482 7.66773 483.655 8.78958 483.407 9.85719C483.16 10.9248 482.511 11.8563 481.596 12.4586L460.177 25.4378L492.066 7.01435C493.035 6.42932 494.196 6.25304 495.295 6.52429C496.393 6.79554 497.339 7.49211 497.924 8.46075C498.509 9.42939 498.686 10.5908 498.414 11.6894C498.143 12.788 497.447 13.7339 496.478 14.3189L331.469 118.494L500.975 20.625C501.944 20.079 503.088 19.9331 504.164 20.2185C505.239 20.5039 506.16 21.198 506.731 22.1529C507.302 23.1077 507.477 24.2478 507.22 25.3301C506.962 26.4124 506.292 27.3513 505.353 27.9466L424.149 77.9947L501.077 33.6213C502.039 33.1064 503.162 32.9795 504.214 33.2666C505.267 33.5537 506.169 34.2331 506.736 35.1651C507.303 36.0971 507.492 37.2109 507.263 38.2775C507.034 39.3442 506.405 40.2828 505.506 40.9002L359.296 134.588L501.077 52.7445C502.044 52.2349 503.17 52.1158 504.222 52.4119C505.275 52.708 506.173 53.3967 506.732 54.3358C507.292 55.275 507.469 56.393 507.228 57.4593C506.988 58.5255 506.347 59.4586 505.438 60.0661L485.7 72.209L501.06 63.3344C502.028 62.8095 503.162 62.6792 504.224 62.9707C505.286 63.2623 506.194 63.9531 506.758 64.8987C507.322 65.8444 507.499 66.9716 507.252 68.0446C507.004 69.1176 506.351 70.0533 505.429 70.656L488.107 81.3397L501.043 73.873C502.007 73.3245 503.146 73.1727 504.22 73.4497C505.294 73.7267 506.217 74.4108 506.795 75.3571C507.373 76.3033 507.56 77.4375 507.316 78.5191C507.072 79.6008 506.417 80.5451 505.489 81.152L412.416 141.321L501.077 90.1205C502.037 89.5837 503.167 89.4382 504.231 89.7142C505.296 89.9903 506.212 90.6666 506.79 91.6022C507.368 92.5377 507.562 93.6602 507.333 94.7356C507.103 95.8109 506.467 96.7561 505.557 97.3739L419.209 154.291L501.077 107.034C502.031 106.495 503.154 106.344 504.216 106.611C505.277 106.878 506.196 107.543 506.781 108.468C507.366 109.393 507.573 110.507 507.36 111.581C507.147 112.654 506.529 113.605 505.634 114.236L419.396 173.815L501.077 126.669C502.035 126.153 503.153 126.023 504.203 126.304C505.254 126.585 506.157 127.256 506.729 128.181C507.301 129.106 507.498 130.215 507.281 131.28C507.063 132.345 506.446 133.287 505.557 133.914L473.216 155.247L501.077 139.17C502.026 138.642 503.14 138.495 504.193 138.759C505.246 139.024 506.158 139.68 506.744 140.593C507.331 141.507 507.547 142.61 507.348 143.677C507.15 144.745 506.552 145.696 505.677 146.338L457.694 180.309L501.077 155.307C502.023 154.769 503.138 154.612 504.195 154.87C505.253 155.127 506.172 155.778 506.764 156.69C507.357 157.602 507.579 158.707 507.385 159.777C507.191 160.847 506.595 161.803 505.719 162.449L473.165 186.155L501.077 170.044C501.999 169.518 503.084 169.355 504.12 169.587C505.156 169.818 506.068 170.427 506.679 171.295C507.29 172.163 507.555 173.227 507.424 174.28C507.292 175.333 506.773 176.299 505.967 176.99L475.614 202.667L501.077 187.972C501.971 187.457 503.02 187.283 504.032 187.482C505.044 187.681 505.949 188.239 506.581 189.054C507.213 189.869 507.528 190.885 507.469 191.915C507.409 192.944 506.979 193.917 506.257 194.654L490.325 210.978L501.077 204.8C501.931 204.311 502.928 204.131 503.898 204.292C504.869 204.454 505.754 204.945 506.404 205.684C507.054 206.424 507.428 207.364 507.463 208.348C507.499 209.331 507.193 210.297 506.598 211.081L501.478 217.788C502.342 217.936 503.139 218.346 503.761 218.963C504.384 219.579 504.801 220.373 504.957 221.235C505.112 222.097 504.999 222.987 504.631 223.782C504.264 224.577 503.661 225.24 502.903 225.681L488.781 233.839C487.927 234.328 486.931 234.508 485.96 234.346C484.989 234.185 484.104 233.693 483.454 232.954C482.805 232.215 482.43 231.274 482.395 230.291C482.359 229.308 482.665 228.342 483.26 227.558L486.852 222.857L467.789 233.813C466.897 234.322 465.851 234.492 464.844 234.291C463.836 234.091 462.935 233.534 462.305 232.723C461.676 231.911 461.36 230.9 461.416 229.875C461.471 228.849 461.895 227.878 462.609 227.14L478.532 210.825L438.707 233.813C437.785 234.339 436.7 234.502 435.665 234.27C434.629 234.039 433.717 233.43 433.106 232.562C432.495 231.694 432.229 230.63 432.361 229.577C432.493 228.524 433.012 227.558 433.818 226.867L464.213 201.173L407.612 233.813C406.666 234.351 405.551 234.508 404.494 234.25C403.436 233.993 402.518 233.342 401.925 232.43C401.332 231.518 401.11 230.413 401.304 229.343C401.498 228.273 402.094 227.317 402.97 226.671L435.507 202.974L382.089 233.813C381.14 234.342 380.026 234.488 378.973 234.224C377.92 233.96 377.008 233.304 376.422 232.39C375.835 231.476 375.619 230.374 375.818 229.306C376.016 228.239 376.614 227.287 377.489 226.645L425.464 192.674L354.21 233.813C353.252 234.342 352.127 234.483 351.068 234.206C350.009 233.929 349.098 233.256 348.521 232.325C347.945 231.395 347.748 230.278 347.971 229.207C348.195 228.136 348.821 227.191 349.722 226.569L382.054 205.235L332.561 233.83C331.61 234.35 330.497 234.488 329.448 234.216C328.398 233.945 327.492 233.284 326.912 232.369C326.332 231.453 326.122 230.351 326.325 229.287C326.528 228.222 327.128 227.275 328.004 226.637L414.191 167.04L298.505 233.813C297.545 234.35 296.415 234.496 295.351 234.22C294.286 233.944 293.369 233.267 292.792 232.332C292.214 231.396 292.02 230.274 292.249 229.198C292.479 228.123 293.115 227.178 294.025 226.56L380.382 169.651L269.235 233.813C268.273 234.351 267.141 234.495 266.075 234.216C265.008 233.938 264.092 233.257 263.516 232.318C262.94 231.378 262.75 230.252 262.986 229.176C263.222 228.099 263.865 227.156 264.781 226.543L357.914 166.4L241.067 233.813C240.097 234.359 238.953 234.505 237.878 234.22C236.803 233.934 235.881 233.24 235.31 232.286C234.74 231.331 234.564 230.191 234.822 229.108C235.079 228.026 235.749 227.087 236.689 226.492L253.995 215.817L222.805 233.813C221.838 234.323 220.713 234.442 219.66 234.146C218.608 233.85 217.71 233.161 217.15 232.222C216.591 231.283 216.413 230.165 216.654 229.099C216.895 228.032 217.536 227.099 218.445 226.492L238.02 214.46L204.476 233.813C203.513 234.343 202.383 234.48 201.322 234.198C200.26 233.915 199.348 233.234 198.777 232.296C198.205 231.358 198.017 230.235 198.252 229.162C198.487 228.089 199.127 227.148 200.038 226.534L346.249 132.821L171.29 233.813C170.322 234.338 169.188 234.469 168.126 234.177C167.064 233.885 166.156 233.195 165.592 232.249C165.028 231.303 164.851 230.176 165.098 229.103C165.346 228.03 165.999 227.094 166.921 226.492L248.175 176.41L148.745 233.813C147.78 234.344 146.647 234.481 145.583 234.196C144.519 233.91 143.607 233.225 143.037 232.282C142.468 231.34 142.284 230.214 142.526 229.139C142.767 228.065 143.415 227.125 144.333 226.517L309.325 122.377L116.267 233.813C115.621 234.197 114.885 234.403 114.133 234.411Z" fill="#F96565"/>
</g>
</g>
</g>
<defs>
<clipPath id="clip0_17_10">
<rect width="512" height="234" fill="white"/>
</clipPath>
</defs>
</svg>
