<svg width="1528" height="1428" viewBox="0 0 1528 1428" fill="none" xmlns="http://www.w3.org/2000/svg">
<g clip-path="url(#clip0_7_28)">
<mask id="mask0_7_28" style="mask-type:luminance" maskUnits="userSpaceOnUse" x="0" y="0" width="1528" height="1428">
<path d="M1528 0H0V1428H1528V0Z" fill="white"/>
</mask>
<g mask="url(#mask0_7_28)">
<path d="M348.893 1320.19C346.108 1320.19 343.398 1319.35 341.176 1317.78C338.955 1316.21 337.345 1314 336.594 1311.5C335.842 1308.99 335.991 1306.32 337.016 1303.9C338.042 1301.48 339.888 1299.45 342.272 1298.1L513.943 1200.69L295.413 1318.52C292.524 1319.98 289.141 1320.35 285.972 1319.53C282.803 1318.72 280.093 1316.79 278.409 1314.16C276.725 1311.52 276.197 1308.38 276.936 1305.38C277.675 1302.39 279.624 1299.78 282.374 1298.1L729.849 1040.58L214.76 1318.52C211.871 1319.98 208.489 1320.35 205.319 1319.53C202.15 1318.72 199.44 1316.79 197.756 1314.16C196.072 1311.52 195.544 1308.38 196.283 1305.38C197.022 1302.39 198.971 1299.78 201.721 1298.1L720.707 999.6L129.702 1318.52C126.801 1320.06 123.367 1320.48 120.139 1319.68C116.911 1318.89 114.148 1316.93 112.445 1314.25C110.742 1311.57 110.235 1308.37 111.033 1305.34C111.832 1302.31 113.872 1299.69 116.714 1298.05L527.899 1064.57L63.8449 1314.95C60.9623 1316.29 57.6429 1316.56 54.5552 1315.71C51.4676 1314.85 48.8409 1312.94 47.2041 1310.35C45.5674 1307.75 45.0421 1304.68 45.734 1301.74C46.426 1298.8 48.2837 1296.22 50.9333 1294.51L615.911 971.944L34.8893 1285.44C31.9782 1287.04 28.5049 1287.5 25.2334 1286.71C21.9619 1285.92 19.1602 1283.95 17.4446 1281.23C15.7291 1278.5 15.2402 1275.26 16.0855 1272.2C16.9309 1269.14 19.0412 1266.53 21.9522 1264.92L331.729 1090.47L32.5973 1251.88C29.7028 1253.38 26.2992 1253.76 23.1068 1252.95C19.9144 1252.14 17.1838 1250.21 15.4929 1247.55C13.8019 1244.89 13.2834 1241.73 14.0469 1238.72C14.8104 1235.71 16.7962 1233.1 19.5838 1231.44L731.581 821.624L32.5718 1198.78C29.6694 1200.29 26.2499 1200.68 23.0433 1199.87C19.8366 1199.06 17.0968 1197.11 15.4085 1194.43C13.7202 1191.76 13.2172 1188.57 14.0068 1185.56C14.7964 1182.54 16.816 1179.93 19.6348 1178.29L324.343 1006.74L32.5718 1164.15C29.6838 1165.56 26.3299 1165.87 23.1993 1165.04C20.0688 1164.2 17.3994 1162.28 15.7398 1159.66C14.0802 1157.05 13.5564 1153.93 14.276 1150.97C14.9957 1148 16.9042 1145.4 19.6093 1143.71L517.483 860.489L32.5464 1122.19C29.648 1123.64 26.2613 1123.99 23.0953 1123.16C19.9294 1122.33 17.2296 1120.39 15.5612 1117.74C13.8928 1115.09 13.3851 1111.95 14.1444 1108.96C14.9037 1105.97 16.8711 1103.37 19.6348 1101.7L88.3948 1063.12L32.3681 1093.3C29.4717 1094.77 26.0772 1095.14 22.8989 1094.32C19.7206 1093.5 17.0062 1091.56 15.3269 1088.91C13.6476 1086.26 13.1343 1083.1 13.895 1080.1C14.6557 1077.1 16.6311 1074.5 19.4056 1072.83L384.547 865.344L32.5464 1055.29C29.6439 1056.8 26.2245 1057.19 23.0178 1056.38C19.8112 1055.57 17.0713 1053.62 15.383 1050.94C13.6947 1048.27 13.1917 1045.08 13.9813 1042.07C14.7709 1039.05 16.7906 1036.44 19.6093 1034.8L211.119 926.558L32.5209 1022.9C29.62 1024.52 26.151 1024.99 22.8771 1024.21C19.6032 1023.44 16.7926 1021.48 15.0635 1018.77C13.3344 1016.06 12.8286 1012.82 13.6572 1009.76C14.4858 1006.7 16.581 1004.07 19.482 1002.46L472.254 740.942L32.5209 978.18C29.6264 979.676 26.2228 980.06 23.0304 979.252C19.838 978.444 17.1074 976.506 15.4165 973.85C13.7255 971.193 13.207 968.026 13.9705 965.019C14.734 962.011 16.7198 959.399 19.5074 957.736L358.036 762.885L32.4954 938.553C29.6027 940.076 26.1879 940.483 22.9789 939.687C19.7699 938.891 17.0204 936.955 15.3166 934.292C13.6128 931.629 13.0894 928.449 13.858 925.43C14.6266 922.412 16.6263 919.793 19.431 918.133L369.929 714.714L32.4954 896.784C29.5945 898.4 26.1255 898.873 22.8516 898.098C19.5777 897.324 16.7671 895.366 15.038 892.655C13.309 889.944 12.8031 886.702 13.6317 883.642C14.4603 880.582 16.5556 877.956 19.4565 876.34L226.653 756.84L32.3936 861.56C29.5046 863.024 26.1217 863.388 22.9526 862.574C19.7835 861.761 17.0735 859.834 15.3894 857.197C13.7054 854.56 13.1776 851.416 13.9167 848.423C14.6557 845.43 16.6042 842.821 19.3546 841.14L169.073 754.888L32.3681 828.668C29.4999 830.123 26.1434 830.494 22.9915 829.703C19.8397 828.912 17.1331 827.02 15.4305 824.418C13.728 821.816 13.1594 818.702 13.8423 815.72C14.5251 812.737 16.4072 810.114 19.1 808.391L403.392 575.674L32.47 775.88C29.5867 777.42 26.1739 777.846 22.9592 777.068C19.7444 776.29 16.9822 774.369 15.2614 771.714C13.5407 769.06 12.9976 765.883 13.748 762.859C14.4983 759.836 16.4828 757.206 19.2782 755.531L239.616 624.631L32.4445 736.491C29.6092 737.804 26.3522 738.084 23.3082 737.276C20.2642 736.467 17.6515 734.629 15.9791 732.118C14.3068 729.607 13.6948 726.604 14.2623 723.695C14.8298 720.785 16.5363 718.178 19.049 716.38L311.534 534.976L32.4445 685.44C29.5783 686.915 26.2146 687.303 23.0509 686.522C19.8873 685.741 17.1667 683.852 15.4534 681.247C13.7402 678.642 13.1659 675.52 13.8496 672.53C14.5333 669.539 16.4225 666.91 19.1254 665.186L196.628 556.611L32.419 645.218C29.5638 646.675 26.2203 647.055 23.0745 646.281C19.9287 645.507 17.2193 643.637 15.5022 641.055C13.7851 638.472 13.1906 635.374 13.8407 632.395C14.4908 629.416 16.3361 626.783 18.9981 625.036L169.251 531.668L32.5209 605.448C29.6613 606.923 26.3045 607.315 23.1444 606.543C19.9844 605.77 17.2629 603.893 15.5426 601.298C13.8223 598.703 13.2349 595.589 13.9017 592.601C14.5686 589.613 16.4387 586.978 19.1254 585.242L98.123 536.214L32.419 571.652C29.5595 573.127 26.2026 573.519 23.0426 572.747C19.8825 571.974 17.161 570.097 15.4407 567.502C13.7204 564.907 13.133 561.793 13.7998 558.805C14.4667 555.817 16.3368 553.182 19.0236 551.446L48.3866 533.12L32.2917 541.807C29.4955 543.278 26.2083 543.708 23.0875 543.011C19.9668 542.314 17.2426 540.542 15.4598 538.048C13.677 535.555 12.9671 532.525 13.472 529.564C13.9769 526.603 15.6595 523.929 18.1832 522.077L140.831 433.874L32.3936 492.374C29.683 493.786 26.514 494.225 23.4821 493.607C20.4502 492.989 17.764 491.358 15.9282 489.02C14.0924 486.682 13.2335 483.797 13.5127 480.909C13.7919 478.021 15.1901 475.327 17.4446 473.334L104.693 398.721L32.3681 437.73C29.7181 439.162 26.6047 439.654 23.5981 439.115C20.5916 438.577 17.8932 437.045 15.9971 434.799C14.1011 432.553 13.1343 429.743 13.2739 426.885C13.4134 424.028 14.65 421.312 16.757 419.237L51.4172 384.965L32.3681 395.223C29.8651 396.555 26.9525 397.055 24.1062 396.641C21.2598 396.227 18.6479 394.923 16.697 392.942C14.746 390.961 13.5714 388.421 13.3649 385.736C13.1584 383.051 13.9323 380.379 15.5601 378.158L28.2934 360.927C25.9632 359.911 24.0246 358.249 22.7417 356.167C21.9017 354.813 21.3558 353.317 21.1355 351.765C20.9151 350.213 21.0245 348.636 21.4574 347.124C21.8903 345.611 22.6383 344.194 23.6583 342.952C24.6784 341.711 25.9507 340.669 27.4021 339.888L57.631 323.68C60.1366 322.338 63.0558 321.832 65.9097 322.245C68.7636 322.657 71.3827 323.964 73.337 325.951C75.2914 327.938 76.465 330.487 76.6652 333.179C76.8655 335.872 76.0805 338.548 74.439 340.768L69.0656 347.908L114.167 323.68C116.814 322.248 119.925 321.755 122.929 322.291C125.934 322.826 128.632 324.354 130.53 326.596C132.428 328.838 133.399 331.643 133.265 334.499C133.132 337.355 131.903 340.07 129.804 342.149L95.0925 376.373L192.961 323.68C195.672 322.249 198.851 321.796 201.895 322.406C204.939 323.017 207.639 324.649 209.483 326.994C211.327 329.339 212.188 332.234 211.903 335.131C211.618 338.029 210.206 340.729 207.935 342.72L120.712 417.262L294.344 323.68C297.14 322.209 300.427 321.779 303.548 322.476C306.669 323.173 309.393 324.945 311.176 327.439C312.958 329.932 313.668 332.962 313.163 335.923C312.658 338.884 310.976 341.558 308.452 343.41L185.907 431.565L386.075 323.585C388.93 322.128 392.273 321.748 395.419 322.522C398.565 323.296 401.274 325.166 402.992 327.748C404.709 330.33 405.303 333.429 404.653 336.408C404.003 339.386 402.158 342.02 399.496 343.767L370.285 361.927L441.312 323.68C444.171 322.205 447.528 321.813 450.688 322.585C453.848 323.358 456.57 325.236 458.29 327.831C460.01 330.426 460.598 333.539 459.931 336.527C459.264 339.516 457.394 342.15 454.707 343.886L375.557 392.938L503.96 323.68C506.815 322.223 510.159 321.843 513.304 322.617C516.45 323.391 519.16 325.261 520.877 327.843C522.594 330.426 523.188 333.524 522.538 336.503C521.888 339.482 520.043 342.115 517.381 343.862L367.255 437.206L577.762 323.656C580.622 322.236 583.953 321.887 587.078 322.681C590.202 323.474 592.886 325.351 594.583 327.928C596.28 330.506 596.863 333.59 596.212 336.555C595.562 339.519 593.727 342.141 591.081 343.886L413.706 452.2L652.354 323.442C655.216 321.921 658.597 321.494 661.788 322.253C664.979 323.011 667.732 324.895 669.468 327.51C671.205 330.124 671.79 333.265 671.102 336.275C670.413 339.284 668.504 341.926 665.775 343.648L373.265 525.171L747.039 323.513C749.917 322.01 753.307 321.608 756.495 322.393C759.683 323.178 762.421 325.088 764.133 327.721C765.846 330.354 766.398 333.505 765.675 336.511C764.952 339.517 763.01 342.144 760.256 343.839L539.69 474.739L820.027 323.513C822.898 322.014 826.278 321.611 829.459 322.389C832.641 323.167 835.377 325.064 837.095 327.685C838.813 330.306 839.38 333.446 838.676 336.448C837.972 339.45 836.053 342.081 833.32 343.791L449.181 576.46L918.048 323.49C920.941 321.967 924.355 321.56 927.564 322.356C930.773 323.152 933.523 325.088 935.227 327.751C936.931 330.414 937.454 333.594 936.685 336.612C935.917 339.631 933.917 342.249 931.112 343.91L781.114 430.352L979.168 323.49C982.061 321.967 985.475 321.56 988.684 322.356C991.893 323.152 994.643 325.088 996.347 327.751C998.05 330.414 998.574 333.594 997.805 336.612C997.037 339.631 995.037 342.249 992.232 343.91L785.392 463.053L1044.13 323.466C1047.02 321.98 1050.41 321.598 1053.59 322.4C1056.78 323.203 1059.5 325.127 1061.2 327.769C1062.89 330.41 1063.42 333.563 1062.68 336.565C1061.94 339.566 1059.99 342.182 1057.22 343.862L706.598 547.4L1121.55 323.466C1124.44 322.002 1127.82 321.638 1130.99 322.451C1134.16 323.265 1136.87 325.191 1138.56 327.829C1140.24 330.466 1140.77 333.61 1140.03 336.603C1139.29 339.595 1137.34 342.205 1134.59 343.886L796.19 538.665L1195.1 323.442C1197.99 321.978 1201.37 321.615 1204.54 322.428C1207.71 323.241 1210.42 325.168 1212.1 327.805C1213.79 330.442 1214.32 333.586 1213.58 336.579C1212.84 339.572 1210.89 342.181 1208.14 343.862L755.087 605.662L1277.97 323.442C1280.86 322.016 1284.23 321.686 1287.38 322.519C1290.52 323.352 1293.21 325.285 1294.87 327.916C1296.53 330.548 1297.05 333.677 1296.31 336.654C1295.57 339.632 1293.64 342.23 1290.91 343.91L1099.17 452.319L1338.04 323.442C1340.94 321.998 1344.31 321.652 1347.47 322.475C1350.63 323.298 1353.32 325.228 1355 327.862C1356.67 330.496 1357.19 333.632 1356.45 336.617C1355.71 339.602 1353.77 342.205 1351.03 343.886L986.222 551.256L1408.51 323.418C1411.41 322.01 1414.77 321.694 1417.91 322.537C1421.04 323.379 1423.71 325.315 1425.37 327.945C1427.02 330.574 1427.53 333.697 1426.79 336.668C1426.05 339.639 1424.12 342.231 1421.4 343.91L1351.77 382.942L1462.12 323.442C1465.01 321.998 1468.38 321.652 1471.54 322.475C1474.7 323.298 1477.4 325.228 1479.07 327.862C1480.74 330.496 1481.26 333.632 1480.53 336.617C1479.79 339.602 1477.85 342.205 1475.11 343.886L977.92 626.678L1495.4 347.48C1498.31 345.969 1501.72 345.578 1504.93 346.39C1508.14 347.203 1510.88 349.155 1512.57 351.829C1514.25 354.503 1514.76 357.688 1513.97 360.704C1513.18 363.72 1511.16 366.328 1508.34 367.972L1203.63 539.451L1495.4 382.038C1498.29 380.616 1501.65 380.284 1504.79 381.11C1507.93 381.936 1510.61 383.857 1512.28 386.476C1513.95 389.095 1514.48 392.213 1513.76 395.187C1513.04 398.161 1511.13 400.764 1508.42 402.458L796.623 812.151L1495.4 435.112C1496.84 434.318 1498.44 433.797 1500.1 433.579C1501.75 433.361 1503.44 433.45 1505.06 433.841C1506.68 434.233 1508.2 434.918 1509.54 435.859C1510.87 436.8 1512 437.977 1512.85 439.324C1513.7 440.671 1514.25 442.161 1514.49 443.71C1514.72 445.258 1514.63 446.834 1514.21 448.348C1513.79 449.862 1513.05 451.284 1512.05 452.533C1511.04 453.782 1509.78 454.833 1508.34 455.627L1197.85 630.462L1495.4 469.931C1498.29 468.487 1501.67 468.141 1504.83 468.964C1507.98 469.787 1510.68 471.717 1512.35 474.351C1514.03 476.985 1514.55 480.121 1513.81 483.106C1513.07 486.091 1511.13 488.694 1508.39 490.375L943.362 812.913L1495.4 515.08C1498.3 513.608 1501.69 513.243 1504.87 514.062C1508.05 514.881 1510.76 516.821 1512.44 519.473C1514.12 522.124 1514.64 525.281 1513.88 528.279C1513.12 531.277 1511.14 533.883 1508.37 535.548L1097.1 769.121L1495.4 554.231C1498.3 552.735 1501.7 552.351 1504.89 553.159C1508.09 553.967 1510.82 555.904 1512.51 558.561C1514.2 561.217 1514.72 564.385 1513.95 567.392C1513.19 570.4 1511.2 573.011 1508.42 574.675L989.635 873.008L1495.4 600.117C1498.29 598.696 1501.65 598.364 1504.79 599.189C1507.93 600.015 1510.61 601.936 1512.28 604.555C1513.95 607.175 1514.48 610.293 1513.76 613.267C1513.04 616.24 1511.13 618.843 1508.42 620.537L1060.74 878.22L1495.4 643.671C1498.3 642.199 1501.69 641.834 1504.87 642.654C1508.05 643.473 1510.76 645.412 1512.44 648.064C1514.12 650.716 1514.64 653.873 1513.88 656.871C1513.12 659.869 1511.14 662.474 1508.37 664.139L1336.8 761.6L1495.4 675.92C1498.31 674.314 1501.78 673.852 1505.05 674.638C1508.32 675.423 1511.13 677.391 1512.85 680.109C1514.57 682.826 1515.06 686.07 1514.22 689.128C1513.38 692.185 1511.27 694.805 1508.37 696.412L1408.31 753.175L1495.43 706.194C1498.32 704.73 1501.7 704.366 1504.87 705.179C1508.04 705.992 1510.75 707.919 1512.43 710.557C1514.12 713.194 1514.64 716.338 1513.91 719.331C1513.17 722.323 1511.22 724.933 1508.47 726.614L1207.96 900.354L1495.4 745.083C1498.29 743.661 1501.65 743.329 1504.79 744.155C1507.93 744.981 1510.61 746.902 1512.28 749.521C1513.95 752.14 1514.48 755.259 1513.76 758.232C1513.04 761.206 1511.13 763.809 1508.42 765.503L1357.78 851.873L1495.3 777.641C1498.18 776.185 1501.54 775.819 1504.7 776.617C1507.85 777.416 1510.56 779.319 1512.25 781.932C1513.95 784.545 1514.51 787.668 1513.81 790.653C1513.11 793.638 1511.2 796.256 1508.49 797.966L1137.62 1018.33L1495.4 825.289C1498.28 823.83 1501.66 823.466 1504.82 824.272C1507.98 825.078 1510.69 826.993 1512.38 829.617C1514.07 832.242 1514.61 835.375 1513.89 838.363C1513.17 841.351 1511.25 843.966 1508.52 845.662L1292.31 972.373L1495.4 862.893C1498.27 861.438 1501.63 861.068 1504.78 861.859C1507.93 862.65 1510.64 864.541 1512.34 867.143C1514.04 869.745 1514.61 872.859 1513.93 875.841C1513.25 878.824 1511.36 881.447 1508.67 883.17L1214.33 1060.91L1495.4 909.16C1498.28 907.683 1501.65 907.299 1504.82 908.088C1507.98 908.876 1510.7 910.777 1512.41 913.393C1514.12 916.009 1514.68 919.14 1513.98 922.133C1513.28 925.126 1511.37 927.751 1508.65 929.461L1301.35 1054.34L1495.43 949.62C1498.31 948.109 1501.71 947.707 1504.91 948.498C1508.11 949.289 1510.85 951.211 1512.56 953.858C1514.26 956.505 1514.8 959.669 1514.06 962.68C1513.31 965.691 1511.35 968.314 1508.57 969.993L1478.59 987.7L1495.4 978.632C1498.28 977.07 1501.69 976.621 1504.91 977.38C1508.14 978.139 1510.92 980.046 1512.66 982.694C1514.39 985.342 1514.96 988.52 1514.22 991.55C1513.49 994.581 1511.51 997.222 1508.72 998.91L1378.84 1078.07L1495.45 1015.14C1498.29 1013.64 1501.64 1013.21 1504.81 1013.94C1507.97 1014.68 1510.72 1016.52 1512.47 1019.09C1514.23 1021.66 1514.86 1024.77 1514.24 1027.76C1513.61 1030.75 1511.79 1033.41 1509.13 1035.18L1314.61 1162.63L1495.43 1065.05C1498.26 1063.52 1501.61 1063.07 1504.78 1063.79C1507.96 1064.51 1510.72 1066.34 1512.49 1068.91C1514.27 1071.47 1514.92 1074.58 1514.31 1077.59C1513.69 1080.59 1511.87 1083.26 1509.21 1085.04L1374 1175.48L1495.43 1109.96C1498.27 1108.46 1501.61 1108.03 1504.78 1108.76C1507.95 1109.5 1510.69 1111.34 1512.45 1113.91C1514.2 1116.48 1514.83 1119.59 1514.21 1122.58C1513.59 1125.57 1511.76 1128.23 1509.1 1130L1457.36 1163.82L1495.4 1143.3C1498.17 1141.83 1501.43 1141.37 1504.54 1142.03C1507.65 1142.7 1510.39 1144.42 1512.2 1146.88C1514.01 1149.33 1514.77 1152.33 1514.33 1155.28C1513.89 1158.23 1512.28 1160.92 1509.82 1162.82L1429.52 1224.06L1495.4 1188.5C1498.16 1187.02 1501.41 1186.56 1504.51 1187.21C1507.61 1187.86 1510.34 1189.57 1512.17 1192C1513.99 1194.44 1514.77 1197.42 1514.36 1200.37C1513.95 1203.31 1512.37 1206.01 1509.94 1207.92L1482.16 1229.75L1495.43 1222.61C1497.88 1221.29 1500.73 1220.77 1503.53 1221.14C1506.33 1221.5 1508.92 1222.73 1510.9 1224.62C1512.87 1226.51 1514.11 1228.96 1514.43 1231.59C1514.75 1234.22 1514.12 1236.87 1512.64 1239.12L1489.32 1274.59C1492.29 1273.4 1495.63 1273.31 1498.66 1274.34C1501.7 1275.37 1504.2 1277.43 1505.67 1280.12C1507.14 1282.81 1507.46 1285.92 1506.56 1288.82C1505.67 1291.72 1503.63 1294.2 1500.85 1295.74L1458.6 1318.52C1456.15 1319.83 1453.31 1320.34 1450.51 1319.97C1447.72 1319.6 1445.13 1318.37 1443.17 1316.48C1441.2 1314.59 1439.96 1312.14 1439.64 1309.52C1439.32 1306.9 1439.95 1304.26 1441.41 1302L1464.61 1266.71L1368.43 1318.52C1365.67 1319.97 1362.44 1320.41 1359.36 1319.75C1356.28 1319.1 1353.57 1317.39 1351.76 1314.98C1349.94 1312.56 1349.16 1309.6 1349.55 1306.67C1349.94 1303.74 1351.49 1301.05 1353.88 1299.12L1381.67 1277.35L1305.27 1318.52C1302.5 1320.03 1299.22 1320.5 1296.09 1319.85C1292.97 1319.2 1290.22 1317.46 1288.39 1315C1286.57 1312.54 1285.81 1309.52 1286.26 1306.56C1286.71 1303.59 1288.34 1300.89 1290.83 1299L1371.2 1237.77L1221.53 1318.52C1218.7 1319.97 1215.38 1320.37 1212.25 1319.62C1209.12 1318.87 1206.41 1317.04 1204.67 1314.49C1202.93 1311.95 1202.29 1308.88 1202.89 1305.91C1203.48 1302.94 1205.26 1300.29 1207.86 1298.5L1259.48 1264.61L1159.52 1318.52C1156.69 1320.01 1153.36 1320.44 1150.21 1319.71C1147.05 1318.99 1144.32 1317.16 1142.56 1314.61C1140.8 1312.06 1140.15 1308.97 1140.74 1305.99C1141.33 1303 1143.12 1300.34 1145.75 1298.55L1281.05 1208.11L1076.5 1318.52C1073.67 1320.01 1070.33 1320.43 1067.18 1319.69C1064.02 1318.95 1061.29 1317.12 1059.54 1314.56C1057.79 1312 1057.15 1308.91 1057.76 1305.93C1058.36 1302.94 1060.17 1300.29 1062.8 1298.5L1257.26 1171.08L983.981 1318.52C981.112 1320.04 977.722 1320.47 974.526 1319.7C971.329 1318.94 968.576 1317.04 966.845 1314.41C965.115 1311.79 964.543 1308.64 965.251 1305.62C965.958 1302.61 967.889 1299.97 970.637 1298.27L1100.52 1219.13L916.291 1318.52C913.414 1319.96 910.056 1320.31 906.911 1319.5C903.766 1318.69 901.072 1316.78 899.387 1314.17C897.701 1311.56 897.152 1308.45 897.852 1305.47C898.552 1302.49 900.449 1299.88 903.15 1298.17L933.251 1280.46L862.658 1318.54C859.792 1319.96 856.455 1320.31 853.328 1319.5C850.2 1318.7 847.518 1316.81 845.828 1314.23C844.139 1311.64 843.569 1308.55 844.236 1305.58C844.902 1302.62 846.755 1300 849.415 1298.27L1056.66 1173.44L787.684 1318.52C784.813 1320.02 781.433 1320.42 778.251 1319.64C775.07 1318.87 772.334 1316.97 770.616 1314.35C768.898 1311.73 768.331 1308.59 769.035 1305.59C769.738 1302.58 771.658 1299.95 774.39 1298.24L1068.68 1120.48L701.632 1318.52C698.747 1320.03 695.346 1320.43 692.149 1319.64C688.952 1318.85 686.21 1316.93 684.503 1314.28C682.795 1311.64 682.257 1308.47 683.001 1305.46C683.746 1302.45 685.715 1299.83 688.491 1298.15L904.652 1171.46L632.057 1318.52C629.182 1319.98 625.818 1320.34 622.662 1319.54C619.505 1318.75 616.799 1316.84 615.103 1314.23C613.407 1311.62 612.852 1308.49 613.552 1305.51C614.253 1302.52 616.155 1299.9 618.865 1298.19L990.042 1077.74L543.739 1318.52C540.85 1319.98 537.467 1320.35 534.298 1319.53C531.129 1318.72 528.419 1316.79 526.735 1314.16C525.051 1311.52 524.523 1308.38 525.262 1305.38C526.001 1302.39 527.949 1299.78 530.7 1298.1L681.437 1211.68L483.357 1318.52C480.468 1319.98 477.085 1320.35 473.916 1319.53C470.747 1318.72 468.037 1316.79 466.353 1314.16C464.669 1311.52 464.141 1308.38 464.88 1305.38C465.619 1302.39 467.568 1299.78 470.318 1298.1L770.825 1124.6L411.312 1318.52C408.416 1319.99 405.021 1320.36 401.843 1319.54C398.665 1318.72 395.95 1316.78 394.271 1314.13C392.592 1311.48 392.078 1308.32 392.839 1305.32C393.6 1302.32 395.575 1299.72 398.35 1298.05L498.255 1241.38L355.285 1318.52C353.35 1319.59 351.144 1320.17 348.893 1320.19Z" fill="#F0F9FB"/>
<path d="M103.751 368.9C101.079 368.9 98.4739 368.114 96.3059 366.654C94.1378 365.193 92.5164 363.132 91.6713 360.763C90.8261 358.394 90.8002 355.836 91.597 353.452C92.3939 351.068 93.9732 348.979 96.1112 347.48L254.412 238.976L32.5973 358.571C29.7547 360.034 26.4215 360.428 23.2787 359.671C20.136 358.915 17.4208 357.066 15.688 354.501C13.9551 351.937 13.3354 348.851 13.9553 345.874C14.5753 342.897 16.3881 340.253 19.0236 338.484L109.507 280.245L32.5973 321.776C29.7906 323.279 26.4772 323.727 23.3298 323.03C20.1824 322.332 17.4369 320.542 15.6509 318.021C13.8648 315.501 13.1721 312.44 13.7134 309.459C14.2547 306.479 15.9893 303.803 18.5652 301.974L125.729 226.29L32.5973 276.532C29.7942 278.023 26.49 278.465 23.3521 277.767C20.2142 277.07 17.4765 275.285 15.6918 272.775C13.9071 270.264 13.2086 267.213 13.7372 264.24C14.2658 261.266 15.9822 258.591 18.5397 256.754L64.8381 223.72L32.5973 241.118C29.8167 242.573 26.5531 243.002 23.451 242.318C20.349 241.634 17.6341 239.888 15.8426 237.425C14.0511 234.961 13.3133 231.959 13.775 229.012C14.2366 226.065 15.8641 223.387 18.336 221.507L32.2662 211.177C29.8447 212.335 27.09 212.738 24.4057 212.327C21.7214 211.916 19.2486 210.712 17.3496 208.892C15.4505 207.072 14.225 204.731 13.8526 202.213C13.4801 199.695 13.9804 197.131 15.28 194.898L41.4597 152.058L40.0081 152.82C37.098 154.242 33.7123 154.559 30.5581 153.704C27.4039 152.849 24.7253 150.888 23.0818 148.231C21.4382 145.573 20.9568 142.425 21.7382 139.444C22.5195 136.463 24.5032 133.879 27.2748 132.233L69.4221 109.48C71.8289 108.163 74.6359 107.63 77.4018 107.966C80.1677 108.302 82.7357 109.488 84.7021 111.336C86.6736 113.175 87.9454 115.568 88.3226 118.147C88.6998 120.727 88.1615 123.35 86.7904 125.616L60.6616 168.504L170.168 109.48C172.949 108.024 176.212 107.596 179.315 108.28C182.417 108.963 185.131 110.71 186.923 113.173C188.714 115.637 189.452 118.638 188.991 121.585C188.529 124.533 186.901 127.211 184.43 129.091L170.627 139.349L225.991 109.48C228.795 107.955 232.117 107.489 235.277 108.175C238.437 108.861 241.197 110.649 242.995 113.173C244.792 115.698 245.491 118.768 244.948 121.757C244.405 124.746 242.662 127.429 240.074 129.258L193.75 162.126L291.415 109.48C294.218 107.83 297.599 107.267 300.84 107.909C304.081 108.551 306.926 110.349 308.772 112.919C310.618 115.49 311.32 118.632 310.727 121.678C310.135 124.724 308.296 127.435 305.6 129.234L198.258 204.894L375.251 109.48C378.096 107.979 381.449 107.557 384.617 108.301C387.785 109.046 390.526 110.9 392.272 113.48C394.019 116.059 394.638 119.168 394.001 122.162C393.364 125.157 391.52 127.808 388.851 129.567L298.393 187.711L443.553 109.432C446.373 107.91 449.71 107.455 452.877 108.161C456.045 108.868 458.803 110.681 460.584 113.229C462.364 115.777 463.033 118.866 462.451 121.861C461.87 124.856 460.083 127.528 457.458 129.329L299.106 237.857L537.092 109.48C539.931 108.031 543.253 107.646 546.384 108.403C549.515 109.16 552.221 111.003 553.952 113.556C555.682 116.11 556.309 119.183 555.703 122.152C555.097 125.121 553.306 127.764 550.691 129.543L440.344 200.943L609.799 109.48C612.648 107.958 616.016 107.523 619.199 108.265C622.383 109.007 625.138 110.869 626.888 113.462C628.639 116.056 629.251 119.181 628.596 122.186C627.941 125.191 626.07 127.844 623.373 129.591L529.554 189.424L677.846 109.48C680.664 107.933 684.01 107.458 687.191 108.153C690.373 108.848 693.148 110.659 694.94 113.212C696.733 115.765 697.407 118.864 696.823 121.869C696.239 124.873 694.441 127.553 691.802 129.353L529.045 241.879L774.492 109.48C777.329 108.012 780.658 107.611 783.8 108.358C786.942 109.105 789.661 110.944 791.402 113.5C793.143 116.056 793.775 119.137 793.17 122.114C792.564 125.09 790.766 127.739 788.142 129.52L670.206 206.251L849.67 109.48C852.494 107.941 855.843 107.475 859.023 108.18C862.204 108.884 864.973 110.705 866.757 113.265C868.541 115.826 869.202 118.929 868.605 121.932C868.008 124.936 866.198 127.61 863.549 129.401L709.119 234.525L940.866 109.432C943.728 107.911 947.109 107.485 950.3 108.243C953.491 109.002 956.244 110.886 957.98 113.5C959.717 116.115 960.302 119.256 959.614 122.265C958.925 125.274 957.016 127.917 954.287 129.639L917.233 152.558L997.3 109.48C1000.13 108.039 1003.44 107.653 1006.56 108.401C1009.68 109.148 1012.38 110.974 1014.12 113.51C1015.86 116.045 1016.5 119.102 1015.92 122.064C1015.34 125.026 1013.59 127.674 1011 129.472L879.644 216.152L1077.47 109.48C1080.33 108.042 1083.66 107.678 1086.8 108.462C1089.93 109.246 1092.63 111.119 1094.34 113.699C1096.04 116.278 1096.63 119.369 1095.98 122.341C1095.33 125.312 1093.49 127.94 1090.84 129.686L1065.09 145.561L1131.99 109.48C1134.85 108.003 1138.2 107.606 1141.35 108.37C1144.51 109.134 1147.24 111.001 1148.96 113.586C1150.69 116.171 1151.29 119.278 1150.64 122.264C1149.99 125.251 1148.14 127.891 1145.47 129.639L1077.8 172.098L1194 109.48C1196.85 108.02 1200.19 107.634 1203.34 108.399C1206.48 109.165 1209.19 111.024 1210.92 113.597C1212.64 116.17 1213.25 119.262 1212.61 122.24C1211.98 125.217 1210.15 127.856 1207.5 129.615L1132.04 177.215L1257.67 109.48C1260.51 108.017 1263.85 107.623 1266.99 108.379C1270.13 109.136 1272.85 110.985 1274.58 113.549C1276.31 116.114 1276.93 119.2 1276.31 122.177C1275.69 125.154 1273.88 127.797 1271.25 129.567L1170.86 193.946L1327.53 109.48C1330.36 108.012 1333.69 107.611 1336.83 108.358C1339.98 109.105 1342.7 110.944 1344.44 113.5C1346.18 116.056 1346.81 119.137 1346.2 122.114C1345.6 125.09 1343.8 127.739 1341.18 129.52L1222.63 206.727L1402.98 109.48C1405.79 107.964 1409.12 107.508 1412.28 108.205C1415.43 108.902 1418.19 110.699 1419.98 113.23C1421.76 115.76 1422.45 118.833 1421.89 121.821C1421.34 124.808 1419.59 127.486 1416.99 129.305L1250.01 245.925L1479.44 122.165C1482.25 120.671 1485.56 120.233 1488.71 120.941C1491.85 121.649 1494.59 123.449 1496.37 125.976C1498.15 128.503 1498.83 131.567 1498.27 134.546C1497.72 137.525 1495.97 140.195 1493.39 142.015L1348.94 241.975L1495.43 162.959C1498.23 161.467 1501.54 161.026 1504.67 161.723C1507.81 162.421 1510.55 164.205 1512.33 166.716C1514.12 169.227 1514.82 172.277 1514.29 175.251C1513.76 178.224 1512.04 180.9 1509.49 182.736L1412.71 251.328L1495.58 206.655C1498.34 205.191 1501.59 204.744 1504.69 205.403C1507.79 206.063 1510.51 207.78 1512.32 210.219C1514.13 212.658 1514.91 215.641 1514.48 218.584C1514.06 221.527 1512.48 224.216 1510.05 226.124L1446.91 274.866L1495.73 248.52C1498.28 247.141 1501.26 246.631 1504.17 247.075C1507.07 247.519 1509.72 248.89 1511.67 250.955C1513.61 253.02 1514.73 255.651 1514.84 258.401C1514.94 261.151 1514.02 263.849 1512.24 266.036L1471.31 316.278L1495.96 302.974C1498.26 301.737 1500.91 301.201 1503.55 301.441C1506.19 301.681 1508.68 302.685 1510.68 304.312C1512.68 305.939 1514.09 308.109 1514.7 310.518C1515.32 312.928 1515.12 315.457 1514.12 317.754L1506.71 334.771C1509.01 335.528 1511.03 336.885 1512.52 338.682C1514.02 340.479 1514.93 342.639 1515.16 344.907C1515.38 347.175 1514.9 349.454 1513.78 351.476C1512.66 353.497 1510.94 355.175 1508.82 356.31L1489.98 366.472C1487.68 367.709 1485.03 368.245 1482.39 368.005C1479.75 367.765 1477.26 366.762 1475.26 365.135C1473.26 363.507 1471.85 361.338 1471.24 358.928C1470.62 356.518 1470.83 353.989 1471.82 351.693L1476.51 340.959L1429.19 366.52C1426.64 367.874 1423.68 368.367 1420.79 367.915C1417.9 367.463 1415.27 366.095 1413.33 364.041C1411.4 361.987 1410.28 359.372 1410.17 356.637C1410.05 353.902 1410.95 351.215 1412.71 349.027L1453.64 298.761L1327.93 366.568C1325.17 368.058 1321.91 368.524 1318.79 367.874C1315.68 367.223 1312.94 365.504 1311.12 363.055C1309.3 360.607 1308.52 357.609 1308.95 354.654C1309.38 351.699 1310.99 349.003 1313.44 347.099L1376.55 298.381L1250.06 366.615C1247.25 368.14 1243.93 368.607 1240.77 367.92C1237.61 367.234 1234.85 365.446 1233.05 362.922C1231.26 360.398 1230.56 357.327 1231.1 354.338C1231.64 351.349 1233.39 348.666 1235.97 346.837L1332.75 278.174L1168.92 366.734C1166.11 368.197 1162.81 368.611 1159.68 367.893C1156.56 367.175 1153.84 365.378 1152.08 362.864C1150.31 360.349 1149.63 357.304 1150.17 354.339C1150.71 351.375 1152.43 348.712 1154.99 346.885L1299.44 246.925L1077.09 366.877C1074.28 368.393 1070.95 368.849 1067.8 368.152C1064.64 367.455 1061.88 365.658 1060.1 363.127C1058.31 360.597 1057.62 357.524 1058.18 354.536C1058.73 351.548 1060.49 348.871 1063.08 347.052L1230.09 230.432L976.876 367.02C974.034 368.544 970.672 368.986 967.49 368.253C964.308 367.519 961.551 365.668 959.793 363.084C958.034 360.499 957.41 357.381 958.049 354.377C958.689 351.373 960.543 348.715 963.226 346.956L1081.77 269.749L901.265 366.877C898.414 368.456 895.017 368.934 891.795 368.209C888.573 367.485 885.78 365.615 884.01 362.997C882.239 360.379 881.631 357.219 882.314 354.188C882.996 351.157 884.917 348.495 887.666 346.766L988.107 282.316L831.359 366.901C828.502 368.483 825.095 368.959 821.867 368.227C818.639 367.496 815.845 365.614 814.08 362.984C812.316 360.353 811.721 357.183 812.423 354.149C813.125 351.114 815.067 348.457 817.837 346.742L893.243 299.142L767.616 366.925C764.753 368.597 761.295 369.138 758.004 368.429C754.714 367.719 751.86 365.817 750.07 363.14C748.28 360.464 747.701 357.233 748.46 354.158C749.22 351.082 751.255 348.415 754.119 346.742L821.835 304.212L705.554 366.948C702.69 368.445 699.318 368.851 696.141 368.081C692.965 367.312 690.229 365.425 688.505 362.816C686.78 360.207 686.2 357.076 686.886 354.077C687.571 351.078 689.469 348.441 692.184 346.718L717.956 330.82L650.979 366.972C648.143 368.5 644.786 368.949 641.605 368.225C638.424 367.501 635.664 365.66 633.898 363.084C632.131 360.509 631.494 357.396 632.119 354.392C632.744 351.389 634.582 348.726 637.252 346.956L768.533 260.301L570.759 367.02C567.892 368.573 564.49 369.021 561.276 368.268C558.062 367.515 555.288 365.62 553.544 362.987C551.8 360.354 551.224 357.188 551.937 354.164C552.65 351.14 554.597 348.494 557.363 346.79L594.57 323.775L514.427 367.067C511.603 368.607 508.254 369.072 505.073 368.368C501.892 367.663 499.123 365.842 497.34 363.282C495.556 360.722 494.894 357.619 495.491 354.615C496.088 351.611 497.899 348.937 500.547 347.147L654.977 241.998L423.052 367.115C420.21 368.639 416.848 369.081 413.666 368.348C410.484 367.615 407.727 365.763 405.969 363.179C404.211 360.594 403.586 357.476 404.226 354.472C404.865 351.468 406.719 348.81 409.402 347.052L527.415 270.225L347.798 367.139C344.981 368.685 341.635 369.16 338.453 368.466C335.271 367.771 332.497 365.96 330.704 363.407C328.911 360.854 328.237 357.755 328.821 354.75C329.406 351.746 331.203 349.066 333.843 347.266L496.6 234.739L251.101 367.186C248.248 368.734 244.864 369.186 241.661 368.448C238.458 367.71 235.687 365.839 233.931 363.229C232.175 360.619 231.571 357.474 232.246 354.457C232.922 351.439 234.825 348.784 237.553 347.052L331.347 287.195L182.902 367.234C180.055 368.782 176.677 369.239 173.478 368.509C170.278 367.779 167.506 365.919 165.743 363.32C163.979 360.72 163.362 357.583 164.021 354.567C164.68 351.552 166.564 348.892 169.277 347.147L279.649 275.747L110.118 367.258C108.191 368.329 105.993 368.896 103.751 368.9Z" fill="#212F45"/>
<path d="M1459.24 110.979C1003.77 111.812 548.094 109.123 92.6225 110.979C-65.4237 116.929 32.5975 349.194 6.95258 447.154C7.99672 720.045 5.47552 993.293 6.95258 1265.99C11.9186 1330.44 98.8873 1317.02 147.019 1317.02H1443.96C1595.28 1297.24 1492.68 1006.93 1521.07 899.188C1496.47 787.233 1584.03 74.137 1459.24 110.979ZM43.9047 166.6C43.5227 114.002 103.318 127.925 140.933 126.997H1383.43C1530.27 98.2464 1475.59 263.704 1485.45 347.528H43.9047C44.2358 287.48 40.7469 226.647 43.9047 166.6ZM1459.24 1300.98H109.227C59.5158 1310.02 35.3734 1269.14 43.9302 1226.32C43.9302 939.688 43.9302 653.064 43.9302 366.449H1485.34C1483.56 657.927 1484.02 949.239 1484.02 1240.69C1484.1 1259.78 1487.86 1298.81 1459.24 1300.98Z" fill="#262626"/>
</g>
</g>
<defs>
<clipPath id="clip0_7_28">
<rect width="1528" height="1428" fill="white"/>
</clipPath>
</defs>
</svg>
