<svg id="Icons" height="512" viewBox="0 0 60 60" width="512" xmlns="http://www.w3.org/2000/svg"><g fill="#e2a698"><path d="m54.22 53.47a.5.5 0 0 1 -.25-.933l2.4-1.383a.5.5 0 1 1 .5.866l-2.4 1.38a.5.5 0 0 1 -.25.07z"/><path d="m55.22 47.47a.5.5 0 0 1 -.25-.933l2.4-1.383a.5.5 0 1 1 .5.866l-2.4 1.38a.5.5 0 0 1 -.25.07z"/><path d="m56.22 41.47a.5.5 0 0 1 -.25-.933l2.4-1.383a.5.5 0 0 1 .5.866l-2.4 1.38a.5.5 0 0 1 -.25.07z"/><path d="m31.571 35.245a.5.5 0 0 1 -.3-.9l2.45-1.856a.5.5 0 0 1 .066-.82l4.313-2.486a.5.5 0 0 1 .551.831l-.377.287 2.914-1.683a.5.5 0 0 1 .5.865l-9.864 5.695a.491.491 0 0 1 -.253.067z"/><path d="m41.118 59.47a.5.5 0 0 1 -.279-.915l3.373-2.267-5.385 3.112a.5.5 0 0 1 -.53-.846l5.574-3.774-7.471 4.307a.5.5 0 0 1 -.529-.848l9.811-6.606-11.62 6.708a.5.5 0 0 1 -.524-.851l9.185-6.029-10.782 6.226a.5.5 0 0 1 -.522-.853l8.591-5.572-10.639 6.138a.5.5 0 0 1 -.52-.853l11.69-7.492-14.477 8.36a.5.5 0 0 1 -.515-.856l8.6-5.377-10.811 6.243a.5.5 0 0 1 -.513-.859l6.523-4.032-8.068 4.658a.5.5 0 0 1 -.519-.854l14.611-9.3-14.092 8.137a.5.5 0 0 1 -.523-.852l15.91-10.33-15.387 8.884a.5.5 0 0 1 -.518-.855l11.728-7.441-11.21 6.472a.5.5 0 0 1 -.518-.856l10.9-6.9-10.382 5.991a.5.5 0 0 1 -.515-.856l6.889-4.313-6.374 3.681a.5.5 0 0 1 -.525-.851l13.559-8.922-13.034 7.525a.5.5 0 0 1 -.519-.854l6.509-4.161-5.99 3.463a.5.5 0 0 1 -.53-.848l9.591-6.459-9.061 5.226a.5.5 0 0 1 -.614-.775l1.867-1.988-1.253.723a.5.5 0 0 1 -.74-.534l.322-1.556a.493.493 0 0 1 -.265-.221.5.5 0 0 1 .183-.683l.5-.288a.5.5 0 0 1 .74.535l-.275 1.324 3.221-1.856a.5.5 0 0 1 .614.775l-1.866 1.986 18.641-10.761a.5.5 0 0 1 .53.847l-9.585 6.453 12.655-7.3a.5.5 0 0 1 .52.853l-6.51 4.161 8.682-5.014a.5.5 0 0 1 .525.85l-13.558 8.919 15.8-9.123a.5.5 0 0 1 .516.857l-6.886 4.309 7.237-4.178a.5.5 0 0 1 .518.856l-10.906 6.91 10.818-6.245a.5.5 0 0 1 .518.854l-11.719 7.434 11.228-6.482a.5.5 0 0 1 .523.851l-15.91 10.33 17.571-10.142a.5.5 0 0 1 .518.854l-14.616 9.3 16.825-9.713a.5.5 0 0 1 .513.858l-6.532 4.038 6.761-3.9a.5.5 0 0 1 .514.857l-8.595 5.369 8.4-4.85a.5.5 0 0 1 .519.854l-11.682 7.488 8.653-4.993a.5.5 0 0 1 .523.852l-8.6 5.577 9.2-5.309a.5.5 0 0 1 .525.85l-9.176 6.025 9.051-5.226a.5.5 0 0 1 .529.848l-9.81 6.606 7.043-4.066a.5.5 0 0 1 .531.847l-5.579 3.776 5.984-3.454a.5.5 0 0 1 .529.848l-3.378 2.264 3.137-1.81a.5.5 0 0 1 .548.834l-5.3 3.926 2.334-1.347a.5.5 0 0 1 .564.822l-2.092 1.686 2.54-1.466a.5.5 0 0 1 .568.817l-1.087.9.9-.519a.5.5 0 0 1 .67.7l-1.139 1.775a.505.505 0 0 1 .6.223.5.5 0 0 1 -.183.683l-1.687.973a.493.493 0 0 1 -.611-.088.5.5 0 0 1 -.06-.615l1.13-1.76-4.27 2.466a.5.5 0 0 1 -.569-.817l1.084-.9-2.971 1.717a.5.5 0 0 1 -.564-.822l2.093-1.686-4.347 2.508a.5.5 0 0 1 -.548-.834l5.3-3.924-8.244 4.758a.5.5 0 0 1 -.25.07z"/></g><path d="m3.865 59.47a.5.5 0 0 1 -.274-.919l5.645-3.681-7.167 4.138a.5.5 0 0 1 -.52-.854l5.317-3.414-5.517 3.186a.5.5 0 0 1 -.517-.856l2.779-1.757-2.331 1.346a.5.5 0 0 1 -.522-.852l7.251-4.688-6.729 3.881a.5.5 0 0 1 -.525-.851l9.488-6.235-8.963 5.179a.5.5 0 0 1 -.524-.851l8.99-5.885-8.466 4.888a.5.5 0 0 1 -.526-.845l9.535-6.311-9.009 5.2a.5.5 0 0 1 -.528-.848l8.012-5.355-7.484 4.314a.5.5 0 0 1 -.536-.842l7.486-5.214-6.95 4.012a.5.5 0 0 1 -.527-.849l1.487-.986-.96.554a.5.5 0 0 1 -.535-.844l2.513-1.743-1.978 1.142a.5.5 0 0 1 -.545-.837l2.265-1.65-1.718.991a.5.5 0 0 1 -.561-.824l1.864-1.483-1.3.752a.5.5 0 0 1 -.6-.789l1.388-1.364-.787.454a.5.5 0 0 1 -.64-.746l.535-.666a.5.5 0 0 1 -.109-.912l1.65-.956a.5.5 0 0 1 .639.746l-.268.333 1.874-1.079a.5.5 0 0 1 .6.789l-1.386 1.361 3.73-2.15a.5.5 0 0 1 .561.824l-1.862 1.476 3.99-2.3a.5.5 0 0 1 .544.837l-2.258 1.647 4.307-2.484a.5.5 0 0 1 .536.843l-2.517 1.747 4.488-2.59a.5.5 0 0 1 .526.849l-1.481.982 3.171-1.831a.5.5 0 0 1 .536.842l-7.488 5.218 10.5-6.06a.5.5 0 0 1 .528.848l-8.009 5.352 9.991-5.769a.5.5 0 0 1 .526.85l-9.539 6.313 9.758-5.633a.5.5 0 0 1 .524.85l-8.987 5.883 8.464-4.887a.5.5 0 0 1 .525.851l-9.5 6.24 8.97-5.179a.5.5 0 0 1 .522.853l-7.251 4.687 6.729-3.884a.5.5 0 0 1 .517.855l-2.768 1.75 2.251-1.3a.5.5 0 0 1 .52.854l-5.316 3.413 4.8-2.769a.5.5 0 0 1 .523.852l-5.655 3.687 5.132-2.962a.5.5 0 0 1 .53.847l-6.071 4.086 5.541-3.2a.5.5 0 0 1 .542.838l-6.447 4.644 5.906-3.409a.5.5 0 0 1 .537.842l-2.582 1.809 2.045-1.181a.5.5 0 0 1 .576.812l-3.971 3.408 3.395-1.96a.5.5 0 0 1 .624.764l-2.076 2.338 1.452-.838a.5.5 0 0 1 .637.749l-.517.634a.5.5 0 0 1 .094.907l-1.655.955a.5.5 0 0 1 -.631-.108.5.5 0 0 1 -.006-.641l.218-.268-1.766 1.017a.5.5 0 0 1 -.624-.764l2.076-2.336-5.374 3.1a.5.5 0 0 1 -.576-.812l3.971-3.407-7.309 4.219a.5.5 0 0 1 -.536-.841l2.585-1.811-4.6 2.652a.5.5 0 0 1 -.542-.838l6.446-4.642-9.489 5.48a.5.5 0 0 1 -.53-.847l6.076-4.09-8.554 4.937a.489.489 0 0 1 -.249.07z" fill="#2f2f9b"/><path d="m46.283 35.354a.5.5 0 0 1 -.429-.758l.71-1.178-2.284 1.318a.5.5 0 0 1 -.587-.8l.556-.508a.5.5 0 0 1 -.57-.8l1.178-1.163-.577.333a.5.5 0 0 1 -.625-.763l1.935-2.2-1.31.756a.5.5 0 0 1 -.605-.784l1.336-1.352-.731.421a.5.5 0 0 1 -.614-.775l1.607-1.707-.993.573a.5.5 0 0 1 -.74-.532l.332-1.639a.5.5 0 0 1 -.092-.908l.507-.292a.5.5 0 0 1 .74.533l-.287 1.418 2.981-1.721a.5.5 0 0 1 .614.776l-1.607 1.707 1-.577a.5.5 0 0 1 .605.785l-1.333 1.349.734-.424a.5.5 0 0 1 .625.763l-1.933 2.2 1.314-.758a.5.5 0 0 1 .6.788l-1.18 1.163.582-.335a.5.5 0 0 1 .587.8l-.555.507a.5.5 0 0 1 .651.705l-.709 1.177.034-.019a.5.5 0 1 1 .5.865l-1.714.99a.49.49 0 0 1 -.253.066z" fill="#773f3f"/><path d="m45.572 25.427a.5.5 0 0 1 -.3-.9l4.38-3.248-5.767 3.329a.5.5 0 0 1 -.541-.839l6.072-4.336-7.316 4.224a.5.5 0 0 1 -.533-.844l6.115-4.189-7.066 4.076a.5.5 0 0 1 -.531-.846l7.34-4.991-8.225 4.746a.5.5 0 0 1 -.52-.853l2.091-1.342-2.441 1.411a.5.5 0 0 1 -.523-.851l5.334-3.482-5.773 3.333a.5.5 0 0 1 -.525-.85l6.929-4.564-7.354 4.246a.5.5 0 0 1 -.523-.851l5.934-3.868-6.188 3.572a.5.5 0 0 1 -.527-.849l7.9-5.25-8.144 4.7a.5.5 0 0 1 -.521-.852l3.981-2.572-3.954 2.284a.5.5 0 0 1 -.53-.847l7.86-5.315-7.86 4.538a.5.5 0 0 1 -.523-.852l2.4-1.557-2.141 1.236a.5.5 0 0 1 -.525-.851l1.223-.8-.872.5a.5.5 0 0 1 -.533-.844l1.225-.849-.8.463a.5.5 0 0 1 -.543-.838l2.698-1.955-2.1 1.216a.5.5 0 0 1 -.547-.835l1.787-1.32-.847.488a.5.5 0 0 1 -.595-.8l2.233-2.127a.545.545 0 0 1 -.451-.25.5.5 0 0 1 .182-.683l3.215-1.854a.5.5 0 0 1 .595.8l-2.058 1.955 4.889-2.821a.5.5 0 0 1 .547.835l-1.783 1.317 2.8-1.614a.5.5 0 0 1 .543.838l-2.703 1.955 3.468-2a.5.5 0 0 1 .533.844l-1.233.848 4.488-2.592a.5.5 0 0 1 .525.851l-1.217.8 3.896-2.251a.5.5 0 0 1 .523.851l-2.394 1.56 3.649-2.111a.5.5 0 0 1 .531.847l-7.852 5.314 9.17-5.294a.5.5 0 0 1 .522.852l-3.981 2.57 4.494-2.589a.5.5 0 0 1 .527.848l-7.911 5.252 8.43-4.866a.5.5 0 0 1 .524.852l-5.932 3.866 6.078-3.51a.5.5 0 0 1 .525.851l-6.925 4.561 6.893-3.979a.5.5 0 0 1 .524.851l-5.33 3.479 5.018-2.9a.5.5 0 0 1 .521.854l-2.112 1.354 1.568-.9a.5.5 0 0 1 .531.846l-7.335 4.988 6.552-3.782a.5.5 0 0 1 .532.844l-6.112 4.191 5.03-2.9a.5.5 0 0 1 .541.839l-6.074 4.337 4.36-2.516a.5.5 0 0 1 .548.834l-4.382 3.25 1.452-.838a.5.5 0 1 1 .5.865l-9 5.2a.493.493 0 0 1 -.253.056z" fill="#e02b4e"/><path d="m2.756 59.553c5.036-.948 20.877 2.323 22.876-2.043 5.057-.546 37.047 8.054 30.042-4.316 2.282-.708 2.715-4.472.944-5.976 2.3-.666 2.786-4.429 1.036-5.966 4.685-2.87 1.061-8.173-3.913-6.786.641-3.407-1.343-6.526-5.009-5.982v-3.984c14.318-5.068 15.15-31.034-2.572-21.736-17.427-9.138-18 16.69-2.884 21.861v4.091c-9.46-1.162-10.67 8.358-17.583 8-.789-3.9-6.272-1.761-9.106-2.281-4.907.255-10.029-.525-14.835.326-3.292 3.5-.709 9.886-1.489 14.426.66 3.222-1.963 9.518 2.493 10.366zm49.374-28.019a9.125 9.125 0 0 1 .154 2.931h-3.552v-4.941c1.468.038 2.868.29 3.398 2.01zm-4.862 2.214v.717h-2.544v-9.309a5.511 5.511 0 0 0 2.544-.122zm-13.5-24.1c-1.042-6.58 6.974-11.279 11.555-5.848.292.315 1.111-.031 1.344-.283 14.425-9.034 15.221 15.383 1.646 20.374-.391-.07-.915.12-1.014.45-7.099.112-13.041-7.982-13.528-14.689zm-5.48 27.439c5.388-1.98 8.056-9.272 14.988-7.808v5.186c-10.576 1.335 11.51 1.076 13.324 1.049 2.436.506 2.2 5.542-.626 4.973-.661-.166-1.5.913-.508 1.021 2.688.4 2.284 5.581-.677 4.972-.629 0-1.216.955-.323 1.028 2.688.4 2.284 5.581-.677 4.972-.629 0-1.216.955-.323 1.028 2.2.179 2.545 4.67.318 4.972-4.846.011-9.712 0-14.565 0-4.577-.426-8.713-2.694-13.45-2.005-.081-6.4-.007-12.787-.033-19.19a10.9 10.9 0 0 0 2.552-.198zm-26.552-.074c.147-3.16 17.492-.761 21.026-1.455 2.648.607 1.108 4.267 1.5 6.218-.538 5.343 1.1 11.666-.672 16.545-27.09-.086-21.362 5.386-21.854-21.308z" fill="#262626"/></svg>