<?xml version="1.0" encoding="UTF-8"?>
<svg xmlns="http://www.w3.org/2000/svg" id="Icons" viewBox="0 0 60 60" width="250" height="250"><defs><style>.cls-1{fill:#eab43b;}.cls-2{fill:#edcb3a;}.cls-3{fill:#36a5f7;}.cls-4{fill:#68ef9f;}.cls-5{fill:#262626;}</style></defs><path class="cls-1" d="M8.849,19.453a.5.5,0,0,1-.335-.871l2.349-2.122L6,19.269a.5.5,0,0,1-.564-.822l3.35-2.711L3.619,18.717a.5.5,0,0,1-.535-.844l.119-.082-.694.4a.5.5,0,0,1-.538-.841l1.309-.92-1.6.924a.5.5,0,0,1-.555-.829L4.793,13.7,1.29,15.72a.5.5,0,0,1-.575-.813l2.659-2.282-1.655.955a.5.5,0,0,1-.614-.776l1.8-1.9a.5.5,0,0,1,.043-.838l1.716-.99a.5.5,0,0,1,.613.777L4.188,11,7.523,9.075a.5.5,0,0,1,.576.813L5.439,12.17l5.367-3.1a.5.5,0,0,1,.554.829L7.688,12.729l4.777-2.756a.5.5,0,0,1,.538.841l-1.31.921,1.541-.889a.5.5,0,0,1,.536.843l-.116.08.142-.081a.5.5,0,0,1,.564.821l-3.352,2.713,3.445-1.989a.5.5,0,0,1,.585.8l-2.348,2.12,2.026-1.169a.5.5,0,0,1,.608.782l-.754.775a.5.5,0,0,1,.361.245.5.5,0,0,1-.183.683l-2.519,1.454a.5.5,0,0,1-.608-.781l.478-.493-3,1.733A.489.489,0,0,1,8.849,19.453Z"/><path class="cls-2" d="M8.187,11.459a.5.5,0,0,1-.34-.866l1.511-1.4-3.1,1.791a.5.5,0,0,1-.567-.821L7.719,8.505,4.926,10.117a.5.5,0,0,1-.567-.82L7.147,7.023,3.932,8.88a.5.5,0,0,1-.552-.831l1.429-1.08-1.347.776a.5.5,0,0,1-.587-.8L6,4.093,3.354,5.62a.5.5,0,0,1-.611-.778L4.329,3.188a.5.5,0,0,1-.274-.932L6.737.706a.5.5,0,0,1,.612.778L5.9,3,9.5.918a.5.5,0,0,1,.587.8L6.959,4.572l4.325-2.5a.5.5,0,0,1,.552.831l-1.428,1.08,1.621-.935a.5.5,0,0,1,.567.82L9.81,6.143l2.8-1.615a.5.5,0,0,1,.567.821L11.143,7l1.545-.892a.5.5,0,0,1,.591.8L11.766,8.316l.2-.113a.5.5,0,1,1,.5.865L8.437,11.392A.489.489,0,0,1,8.187,11.459Z"/><path class="cls-3" d="M30.917,59.447a.5.5,0,0,1-.265-.924l.359-.224-1.869,1.079a.5.5,0,0,1-.525-.851l13.719-9.018L25.8,59.056a.5.5,0,0,1-.522-.853L40.834,48.155,22.964,58.472a.5.5,0,0,1-.518-.855l15.673-9.949L20.635,57.762a.5.5,0,0,1-.511-.86l3.445-2.1-4.26,2.46a.5.5,0,0,1-.51-.86l2.6-1.583-3.309,1.911a.5.5,0,0,1-.51-.861l3.047-1.85-3.7,2.137a.5.5,0,0,1-.511-.859l8.358-5.11L15.649,55.45a.5.5,0,0,1-.512-.857L30.6,45.031l-16.439,9.49a.5.5,0,0,1-.513-.857L32.387,42.012,12.627,53.42a.5.5,0,0,1-.515-.857L32.45,39.907l-21.3,12.3a.5.5,0,0,1-.507-.86l2.383-1.439L10.334,51.46a.5.5,0,0,1-.51-.859l10.351-6.3L9.4,50.528a.5.5,0,0,1-.514-.857l20.6-12.758L8.193,49.2a.5.5,0,0,1-.512-.858l20.4-12.613L7.1,47.849a.5.5,0,0,1-.515-.858L30.242,32.255l-24.253,14a.5.5,0,0,1-.51-.861l11.255-6.836L5.3,45.159a.5.5,0,0,1-.51-.86l10.433-6.331L4.682,44.056a.5.5,0,0,1-.51-.861l11.107-6.747L4.1,42.9a.5.5,0,0,1-.514-.857L26.737,27.641,3.336,41.15a.5.5,0,0,1-.514-.857L25.43,26.229,2.687,39.359A.5.5,0,0,1,2.18,38.5l.925-.557-.719.415a.5.5,0,0,1-.514-.857L23.253,24.2,1.925,36.516a.5.5,0,0,1-.511-.86l12.152-7.423L1.66,35.107a.5.5,0,0,1-.515-.856l22.6-14.2L1.4,32.951a.5.5,0,0,1-.515-.857l18.313-11.4L1.3,31.027a.5.5,0,0,1-.516-.856L19.354,18.536,1.32,28.948a.5.5,0,0,1-.513-.857l14.059-8.734L1.479,27.087a.5.5,0,0,1-.515-.857l13.692-8.544L1.767,25.127a.5.5,0,0,1-.515-.857l10.63-6.615-9.7,5.6a.5.5,0,0,1-.515-.858l8.374-5.21-7.33,4.231a.5.5,0,0,1-.513-.858l3.483-2.153L3.311,19.775a.5.5,0,0,1-.516-.856l6.2-3.891L4.167,17.813a.5.5,0,0,1-.522-.852l8.979-5.823-7,4.042a.5.5,0,0,1-.533-.845l8.8-6.057L8.36,11.468a.5.5,0,0,1-.542-.838l4.366-3.148a.5.5,0,0,1-.064-.9L18.712,2.78a.5.5,0,0,1,.542.838L16.43,5.655l7.856-4.536a.5.5,0,0,1,.533.845L16.025,8.02,28.841.62a.5.5,0,0,1,.522.853L20.373,7.3,31.847.68a.5.5,0,0,1,.515.856L26.184,5.415l7.8-4.5a.5.5,0,0,1,.513.859L31.015,3.923,35.7,1.217a.5.5,0,0,1,.515.857L27.85,7.281l9.722-5.613a.5.5,0,0,1,.515.857L27.443,9.148,39.4,2.249a.5.5,0,0,1,.514.856L26.218,11.649,41.246,2.974a.5.5,0,0,1,.514.857L27.7,12.563,42.93,3.771a.5.5,0,0,1,.515.857L24.88,16.256,44.755,4.781a.5.5,0,0,1,.515.858l-18.321,11.4,19.409-11.2a.5.5,0,0,1,.516.856l-22.6,14.2L48.093,7.146a.5.5,0,0,1,.511.859l-12.165,7.43L49.179,8.08a.5.5,0,0,1,.513.858L28.314,22.232,50.539,9.4a.5.5,0,0,1,.508.862l-.931.559,1.143-.659a.5.5,0,0,1,.513.858L29.157,25.089,52.483,11.622a.5.5,0,0,1,.514.857l-23.141,14.4L53.621,13.157a.5.5,0,0,1,.51.861L43.005,20.775l11.324-6.537a.5.5,0,0,1,.51.861L44.421,21.421l10.555-6.094a.5.5,0,0,1,.509.861L44.252,23.012l11.335-6.544a.5.5,0,0,1,.515.857L32.44,32.063,56.413,18.224a.5.5,0,0,1,.513.858L36.517,31.7l20.526-11.85a.5.5,0,0,1,.514.857L36.963,33.457,57.587,21.55a.5.5,0,0,1,.51.859L47.728,28.717l10.2-5.887a.5.5,0,0,1,.508.86l-2.361,1.424,2.092-1.207a.5.5,0,0,1,.515.858L38.333,37.424,58.468,25.8a.5.5,0,0,1,.513.857L40.237,38.31,58.652,27.678a.5.5,0,0,1,.513.857L43.7,38.1l15.016-8.669a.5.5,0,0,1,.511.859L50.869,35.4l7.821-4.515a.5.5,0,0,1,.51.86l-3.038,1.846L58.6,32.183a.5.5,0,0,1,.509.859L56.5,34.631,58.455,33.5a.5.5,0,0,1,.511.859l-3.443,2.1,2.7-1.56a.5.5,0,0,1,.517.855l-15.673,9.95,14.613-8.437a.5.5,0,0,1,.521.853L42.647,48.174l14.124-8.153a.5.5,0,0,1,.524.85L43.583,49.885l11.794-6.809a.5.5,0,0,1,.515.857l-1.33.831a.491.491,0,0,1,.49.237.5.5,0,0,1-.16.681l-1.68,1.064a.505.505,0,0,1,.488.227.5.5,0,0,1-.133.677l-5.852,4.128,1.8-1.036a.5.5,0,0,1,.5.865L38.67,58.155a.5.5,0,0,1-.538-.841l5.856-4.13L33.549,59.21a.5.5,0,0,1-.518-.855l.9-.573-2.768,1.6A.494.494,0,0,1,30.917,59.447Z"/><path class="cls-1" d="M53.356,59.421a.5.5,0,0,1-.338-.867L55.131,56.6l-4.7,2.712a.5.5,0,0,1-.564-.822l3-2.42-4.827,2.786a.5.5,0,0,1-.549-.833l2.819-2.1-3.863,2.23a.5.5,0,0,1-.546-.836l2.95-2.167-3.332,1.923a.5.5,0,0,1-.534-.844l.26-.179a.5.5,0,0,1-.52-.848l2.151-1.679-1.391.8a.5.5,0,0,1-.634-.754l2.177-2.6a.491.491,0,0,1-.27-.223.5.5,0,0,1,.182-.683l1.716-.99a.5.5,0,0,1,.634.754l-1.857,2.216,5.151-2.973a.5.5,0,0,1,.558.827L51,51.576l4.336-2.5a.5.5,0,0,1,.534.844l-.252.175.6-.344a.5.5,0,0,1,.546.836l-2.947,2.165L57.2,50.8a.5.5,0,0,1,.549.833l-2.821,2.1,3.03-1.749a.5.5,0,0,1,.564.823l-3,2.419,3-1.734a.5.5,0,0,1,.588.8l-2.114,1.952,1.716-.99a.5.5,0,1,1,.5.865l-5.6,3.235A.5.5,0,0,1,53.356,59.421Z"/><path class="cls-4" d="M20.7,57.933a.513.513,0,0,1-.285-.089.5.5,0,0,1-.208-.494l.106-.625-.953.548a.5.5,0,0,1-.638-.747l.211-.26-.815.469a.5.5,0,0,1-.612-.777l2.423-2.54-3.9,2.25a.5.5,0,0,1-.563-.822l3.061-2.462L14.47,54.726a.5.5,0,0,1-.548-.834l2.731-2.026L13.2,53.857a.5.5,0,0,1-.559-.825L18.136,48.7l-6.618,3.821a.5.5,0,0,1-.545-.836l4.609-3.371-5.326,3.076a.5.5,0,0,1-.545-.837l4.815-3.516L9.069,50.19a.5.5,0,0,1-.669-.159.5.5,0,0,1,.123-.677l4.689-3.443L7.971,48.937a.5.5,0,0,1-.537-.842l2.438-1.712-2.7,1.556a.5.5,0,0,1-.54-.839l2.58-1.838L6.407,46.883a.5.5,0,0,1-.546-.836l3.059-2.24L5.635,45.7a.5.5,0,0,1-.564-.822l4.505-3.634L4.694,44.065a.5.5,0,0,1-.567-.819l3.944-3.231-3.2,1.845a.5.5,0,0,1-.553-.83l1.1-.838a.5.5,0,0,1-.432-.208.5.5,0,0,1,.079-.668l1.226-1.068a.506.506,0,0,1-.159-.169.5.5,0,0,1,.182-.683l2.866-1.654a.5.5,0,0,1,.578.81l-.152.132,1.754-1.012a.5.5,0,0,1,.553.83l-.753.574,1.714-.989a.5.5,0,0,1,.567.819L9.5,40.137l5.146-2.971a.5.5,0,0,1,.563.822l-4.5,3.634,5.684-3.281a.5.5,0,0,1,.546.836l-3.061,2.241,3.917-2.261a.5.5,0,0,1,.54.84L15.756,41.83l3.413-1.97a.5.5,0,0,1,.537.842l-2.445,1.717L20.583,40.5a.5.5,0,0,1,.546.836L16.441,44.78l5.666-3.271a.5.5,0,0,1,.545.837L17.838,45.86l5.276-3.046a.5.5,0,0,1,.545.836l-4.607,3.37,4.591-2.651a.5.5,0,0,1,.559.825l-5.492,4.33,5.01-2.892a.5.5,0,0,1,.548.834L21.531,49.5l2.116-1.222a.5.5,0,0,1,.564.823l-3.06,2.461,1.289-.744a.5.5,0,0,1,.613.777l-2.424,2.541.135-.077a.5.5,0,0,1,.638.747l-.374.462a.5.5,0,0,1,.446.581l-.17,1.01a.516.516,0,0,1,.133.152.5.5,0,0,1-.182.682l-.306.177A.5.5,0,0,1,20.7,57.933Z"/><path class="cls-4" d="M2.626,29.488a.5.5,0,0,1-.3-.9l.929-.7L1.335,28.994a.5.5,0,0,1-.561-.824l4.813-3.819L1.528,26.693a.5.5,0,0,1-.534-.843l2.025-1.4-1.253.723a.5.5,0,0,1-.537-.842l5.855-4.1L2.247,23.024a.5.5,0,0,1-.523-.851l.853-.558a.5.5,0,0,1-.451-.881L9.032,15.8,3.672,18.9a.5.5,0,0,1-.538-.84l4.54-3.206-2.81,1.621a.5.5,0,0,1-.559-.825l4.722-3.732L7.1,13.029a.5.5,0,0,1-.6-.794L9.788,9.084h0A.5.5,0,0,1,9.971,8.4l1.39-.8a.5.5,0,0,1,.6.794L10.18,10.1l4.308-2.488a.5.5,0,0,1,.56.826l-4.723,3.731,6.328-3.653a.5.5,0,0,1,.538.841l-4.537,3.2,4.832-2.789a.5.5,0,0,1,.541.839L11.12,15.539l6.493-3.748a.5.5,0,0,1,.524.852l-1.446.944a.485.485,0,0,1,.462.229.5.5,0,0,1-.134.678l-5.857,4.1L13.3,17.362a.5.5,0,0,1,.534.844l-2.642,1.822a.564.564,0,0,1,.428.219.5.5,0,0,1-.1.673L6.706,24.739l3.028-1.748a.5.5,0,0,1,.552.831l-.929.7.262-.15a.5.5,0,0,1,.565.821l-.754.61a.5.5,0,0,1,.169.925L4.967,29.4a.5.5,0,0,1-.565-.821l.186-.15-1.712.988A.491.491,0,0,1,2.626,29.488Z"/><path class="cls-4" d="M38.6,48.291a.5.5,0,0,1-.362-.846l2.458-2.57-3.267,1.887a.5.5,0,0,1-.575-.814l3.185-2.714L37.28,44.827A.5.5,0,0,1,36.723,44l2.664-2.078L37.28,43.138a.5.5,0,0,1-.541-.839l.667-.479-.126.073a.5.5,0,0,1-.555-.829l3.889-3.005L37.28,39.983a.5.5,0,0,1-.552-.831l4.326-3.289L37.188,38.1a.5.5,0,0,1-.555-.828l5.736-4.431-5.99,3.458a.5.5,0,0,1-.538-.841l4.169-2.945-4.72,2.724a.5.5,0,0,1-.536-.842l5.186-3.613-6.417,3.7A.5.5,0,0,1,33,33.63l1.9-1.237L31.587,34.3a.5.5,0,0,1-.524-.851l4.6-3.013-5.811,3.355a.5.5,0,0,1-.528-.848L39.074,26.4,28.107,32.729a.5.5,0,0,1-.52-.854l6.4-4.111L27.1,31.742a.5.5,0,0,1-.526-.849L38.525,23l-12.454,7.19a.5.5,0,0,1-.515-.856l3.773-2.364-3.7,2.137a.5.5,0,0,1-.541-.839l5.091-3.636-4.865,2.808a.5.5,0,0,1-.534-.844l1.026-.7-.477.274a.5.5,0,0,1-.563-.822l3.3-2.658-2.129,1.229a.5.5,0,0,1-.572-.815L27,21.729a.491.491,0,0,1-.192-.189.5.5,0,0,1,.182-.683l3.406-1.965a.5.5,0,0,1,.571.815l-.574.482L33.147,18.6a.5.5,0,0,1,.564.822l-3.3,2.657L36.44,18.6a.5.5,0,0,1,.534.844l-1.028.7L38.631,18.6a.5.5,0,0,1,.541.84l-5.091,3.635L52.863,12.229a.5.5,0,0,1,.516.857L49.6,15.451l2.872-1.658a.5.5,0,0,1,.675.17.5.5,0,0,1-.15.68L41.05,22.533l10.778-6.222a.5.5,0,0,1,.521.853l-6.414,4.118,5.393-3.113a.5.5,0,0,1,.528.848l-9.744,6.545,8.525-4.921a.5.5,0,0,1,.523.85l-4.6,3.01,3.548-2.048a.5.5,0,0,1,.524.852l-1.9,1.243.915-.527a.5.5,0,0,1,.536.842L45,28.474l3.982-2.3a.5.5,0,0,1,.539.841l-4.171,2.946,2.971-1.715a.5.5,0,0,1,.556.828L43.14,33.5l4.252-2.454a.5.5,0,0,1,.552.831L43.62,35.168l2.936-1.694a.5.5,0,0,1,.555.828L43.22,37.31l2.474-1.429a.5.5,0,0,1,.541.839l-.949.68a.507.507,0,0,1,.488.216.5.5,0,0,1-.107.674L43,40.372l1.283-.74a.5.5,0,0,1,.574.813l-3.182,2.712,1.553-.9a.5.5,0,0,1,.611.778l-2.46,2.571.514-.3a.5.5,0,0,1,.5.866L38.85,48.224A.491.491,0,0,1,38.6,48.291Z"/><path class="cls-4" d="M40.945,18.006a.5.5,0,0,1-.3-.9l3.665-2.786L40.9,16.288a.5.5,0,0,1-.543-.838l1.4-1.009-1.889,1.09a.5.5,0,0,1-.564-.821L43.387,11.4l-6.936,4a.5.5,0,0,1-.548-.834l4.092-3.036-6.7,3.87a.5.5,0,0,1-.53-.846l1.512-1.023-2.963,1.711a.5.5,0,0,1-.543-.838l5.608-4.047L29.6,14.271a.5.5,0,0,1-.541-.838L34.42,9.586l-5.781,3.337a.5.5,0,0,1-.551-.832l5.939-4.484L28.3,10.914a.5.5,0,0,1-.56-.825l4.95-3.9-3.2,1.849a.5.5,0,0,1-.57-.816l2.606-2.178-.488.281a.5.5,0,0,1-.661-.717L32.25,1.889a.348.348,0,0,1-.022-.036.5.5,0,0,1,.182-.683l.658-.38a.5.5,0,0,1,.661.717L32.458,3.348,36.03,1.286A.5.5,0,0,1,36.6,2.1L34,4.279l4.2-2.427a.5.5,0,0,1,.56.825l-4.95,3.9,6.751-3.9a.5.5,0,0,1,.55.832L35.172,8,42.7,3.649a.5.5,0,0,1,.541.839L37.877,8.337,44.4,4.572a.5.5,0,0,1,.543.838L39.334,9.457,46.019,5.6a.5.5,0,0,1,.53.846L45.031,7.47l2-1.153a.5.5,0,0,1,.548.834l-4.091,3.036,4.882-2.818a.5.5,0,0,1,.565.821L44.847,11.5l4.939-2.851a.5.5,0,0,1,.543.838l-1.4,1.008,1.712-.988a.5.5,0,0,1,.552.831l-3.661,2.783,4.192-2.42a.5.5,0,0,1,.5.865L41.2,17.938A.493.493,0,0,1,40.945,18.006Z"/><path class="cls-2" d="M52.112,51.464a.5.5,0,0,1-.328-.877l.889-.774-2.188,1.262a.5.5,0,0,1-.579-.808l2.757-2.412-3.809,2.2a.5.5,0,0,1-.563-.823L50.9,47.138l-2.978,1.717a.5.5,0,0,1-.571-.815l3.1-2.6-3.1,1.788a.5.5,0,0,1-.558-.828l1.2-.934-.678.391a.5.5,0,0,1-.618-.771l1.755-1.915a.5.5,0,0,1-.4-.911l2.682-1.55a.5.5,0,0,1,.618.771l-1.726,1.884,4.079-2.355a.5.5,0,0,1,.558.827l-1.2.938,1.826-1.054a.5.5,0,0,1,.571.815l-3.1,2.608,3.66-2.113a.5.5,0,0,1,.563.823l-2.6,2.091,2.611-1.507a.5.5,0,0,1,.579.808l-2.758,2.412,2.237-1.291a.5.5,0,0,1,.579.81l-1.042.908a.5.5,0,0,1,.31.929L52.362,51.4A.49.49,0,0,1,52.112,51.464Z"/><path class="cls-5" d="M2.651,18.605C-4.244,33.723,4.466,53.082,20.318,57.826a.712.712,0,0,0,.832.25,30.7,30.7,0,0,0,23.154-2.4c1.675,7.51,24.11,3.39,12.055-6.392A5.118,5.118,0,0,0,56.7,42.8C70.139,16.3,37.924-11.123,13.7,5.534c-.9-9.353-16.113-3.429-10.136,4C.742,11.38-1.719,17.156,2.651,18.605ZM11.362,8.459c12.082-.721,1.9,8.7-1.389,12.862-1.068,5.322-1.979,7.99-8.2,7.212A28.576,28.576,0,0,1,11.362,8.459ZM4.777,42.649c1.307-5.234,5.82-8.258,10.325-4.122,2.491,2.119,6.557,2.372,7.891,5.638,1.986,5-3.221,7.839-2.734,12.546A28.3,28.3,0,0,1,4.777,42.649ZM58.2,54.725c1.222,7.1-19.766,4.794-10.011-4.6a6.09,6.09,0,0,0,7.228-.024A7.3,7.3,0,0,1,58.2,54.725Zm-1.925-8.531c-.469,8.054-11.393,3.7-7.92-2.76C50.528,39.3,56.482,42.026,56.276,46.194ZM52.429,12.805C51.351,15.968,42,55.938,37.748,45.638,37.7,38.89,39.09,33.589,30.384,33.2c-10.126-6.088-2.562-16.183,7.587-13.918,3.59.557,5.547-4.162,1.214-4.561-13.034,1.168-11.974-3.973-5.959-13.052A28.4,28.4,0,0,1,52.429,12.805ZM32.023,1.544c-13.539,20.705,6.792,9.931,8.243,15.47.181,2.293-2.246,1.706-3.657,1.706-8.932-1.958-17.537,8.1-8.619,14.439,3.849,1.8,8.961.825,8.285,6.921.379,2.7-1.348,7.488,2.419,8.177,7.362,0,12.166-27.4,14.735-34.058a29.107,29.107,0,0,1,2.327,27.634c-4.8-4.016-12.731,2.757-8.142,7.763a7.773,7.773,0,0,0-3.252,5.116,28.3,28.3,0,0,1-22.629,2.514c-.714-5.6,5.135-7.689,2.48-14-1.743-3.311-5.993-3.633-8.65-6.01A7.138,7.138,0,0,0,4.015,40.98a29.028,29.028,0,0,1-2.27-11.491c6.3.818,8.842-2.264,9.6-8.066,3.725-4.518,13.687-14.056,1.142-13.918A27.282,27.282,0,0,1,32.023,1.544ZM3.889,4.614c1.269-5.422,9-3.156,8.362,1.928-.546.541-1.47.891-1.842,1.494A30.4,30.4,0,0,0,7.8,10.611,4.843,4.843,0,0,1,3.889,4.614ZM1.9,13.931a7.022,7.022,0,0,1,2.331-3.76,5.37,5.37,0,0,0,2.917,1.186A29.572,29.572,0,0,0,3.12,17.589C1.714,16.97,1.511,15.265,1.9,13.931Z"/></svg>
