<svg width="512" height="512" viewBox="0 0 512 512" fill="none" xmlns="http://www.w3.org/2000/svg">
<path d="M427.409 507.477C426.505 507.48 425.624 507.195 424.893 506.664C424.161 506.133 423.618 505.384 423.339 504.524C423.061 503.664 423.063 502.738 423.346 501.879C423.628 501.021 424.175 500.274 424.909 499.746L433.331 493.662L410.394 506.88C409.445 507.408 408.331 507.555 407.278 507.291C406.225 507.026 405.313 506.37 404.727 505.457C404.14 504.543 403.924 503.44 404.123 502.373C404.321 501.306 404.919 500.354 405.794 499.712L425.207 485.973L388.983 506.88C388.05 507.415 386.95 507.577 385.902 507.335C384.854 507.093 383.936 506.464 383.332 505.574C382.728 504.684 382.483 503.599 382.644 502.536C382.806 501.473 383.363 500.51 384.205 499.84L391.185 494.353L369.493 506.88C368.552 507.432 367.436 507.602 366.374 507.356C365.311 507.11 364.383 506.467 363.78 505.558C363.177 504.649 362.945 503.544 363.131 502.47C363.318 501.395 363.909 500.433 364.783 499.78L365.372 499.345L352.307 506.88C351.399 507.38 350.34 507.532 349.329 507.308C348.317 507.084 347.421 506.499 346.808 505.663C346.196 504.827 345.909 503.797 346.001 502.764C346.092 501.732 346.556 500.768 347.307 500.053L363.409 485.752L326.716 506.931C325.802 507.444 324.731 507.602 323.708 507.376C322.684 507.15 321.78 506.555 321.167 505.705C320.554 504.855 320.276 503.809 320.385 502.767C320.494 501.724 320.983 500.758 321.758 500.053L337.724 485.905L301.278 506.88C300.369 507.408 299.297 507.582 298.268 507.368C297.239 507.155 296.325 506.569 295.701 505.723C295.077 504.877 294.788 503.831 294.888 502.784C294.988 501.738 295.47 500.766 296.243 500.053L313.847 483.755L273.792 506.88C272.885 507.361 271.835 507.499 270.834 507.268C269.834 507.037 268.95 506.453 268.345 505.623C267.741 504.793 267.455 503.773 267.542 502.75C267.629 501.727 268.081 500.77 268.817 500.053L285.03 485.547L248.055 506.88C247.168 507.387 246.127 507.559 245.123 507.364C244.12 507.168 243.219 506.619 242.587 505.816C241.954 505.012 241.631 504.009 241.676 502.987C241.721 501.965 242.132 500.994 242.833 500.25L262.579 479.573L215.228 506.88C214.327 507.407 213.265 507.585 212.242 507.381C211.219 507.178 210.306 506.606 209.675 505.775C209.045 504.944 208.741 503.911 208.82 502.871C208.9 501.83 209.358 500.856 210.108 500.13L228.881 481.937L185.643 506.88C184.703 507.415 183.596 507.573 182.545 507.323C181.493 507.073 180.576 506.433 179.978 505.533C179.38 504.633 179.146 503.539 179.323 502.473C179.5 501.407 180.075 500.447 180.932 499.789L182.05 498.936L168.294 506.871C167.386 507.399 166.314 507.573 165.285 507.36C164.256 507.146 163.342 506.56 162.718 505.714C162.094 504.869 161.804 503.822 161.904 502.776C162.004 501.73 162.487 500.757 163.26 500.045L180.907 483.738L140.8 506.88C139.865 507.411 138.764 507.569 137.717 507.323C136.671 507.077 135.755 506.445 135.155 505.553C134.554 504.661 134.312 503.576 134.478 502.513C134.643 501.451 135.204 500.49 136.047 499.823L141.039 495.949L122.027 506.88C121.098 507.413 120.002 507.577 118.958 507.339C117.914 507.101 116.997 506.48 116.39 505.597C115.782 504.715 115.529 503.637 115.68 502.577C115.832 501.516 116.376 500.552 117.205 499.874L127.283 491.708L101.009 506.88C100.077 507.412 98.9789 507.572 97.9336 507.331C96.8882 507.089 95.9724 506.462 95.3686 505.575C94.7648 504.688 94.5172 503.606 94.6754 502.545C94.8335 501.484 95.3857 500.521 96.2218 499.849L104.115 493.585L81.0666 506.88C80.1379 507.403 79.0468 507.56 78.0082 507.319C76.9697 507.078 76.059 506.458 75.4553 505.579C74.8516 504.7 74.5988 503.627 74.7466 502.571C74.8944 501.516 75.4321 500.553 76.2538 499.874L85.8709 492.109L60.3989 506.829C59.4624 507.375 58.3533 507.543 57.2968 507.301C56.2403 507.059 55.3157 506.423 54.7107 505.524C54.1057 504.624 53.8657 503.529 54.0394 502.459C54.213 501.389 54.7874 500.425 55.6458 499.763L60.7658 495.812L46.0032 504.346C45.129 504.848 44.1051 505.025 43.113 504.845C42.1209 504.664 41.2248 504.138 40.5836 503.36C39.9424 502.582 39.5975 501.601 39.6102 500.593C39.6229 499.585 39.9922 498.614 40.6528 497.852L58.3338 477.542L28.7573 494.609C27.8856 495.113 26.864 495.292 25.8731 495.114C24.8821 494.937 23.9857 494.416 23.3423 493.641C22.6989 492.867 22.3499 491.891 22.357 490.884C22.3642 489.877 22.727 488.906 23.3813 488.141L36.881 472.38L18.6965 482.876C17.8164 483.383 16.7842 483.559 15.7856 483.373C14.787 483.187 13.8875 482.651 13.2488 481.861C12.6102 481.072 12.2742 480.08 12.3015 479.064C12.3287 478.049 12.7172 477.077 13.3973 476.322L29.6106 458.402L12.4757 468.25C11.5922 468.729 10.5677 468.881 9.58296 468.679C8.59819 468.477 7.71637 467.934 7.09299 467.146C6.46961 466.357 6.14473 465.373 6.17562 464.369C6.20651 463.364 6.5912 462.402 7.26184 461.653L27.3066 440.585L10.9226 450.048C10.0313 450.556 8.98666 450.726 7.98014 450.527C6.97362 450.328 6.07265 449.772 5.44234 448.963C4.81203 448.153 4.49461 447.143 4.54825 446.119C4.60188 445.094 5.02298 444.123 5.73438 443.383L26.3082 422.272L10.9482 431.155C10.0265 431.672 8.94559 431.829 7.91497 431.595C6.88434 431.36 5.97734 430.752 5.36967 429.887C4.76201 429.023 4.49693 427.963 4.62579 426.914C4.75465 425.865 5.26828 424.901 6.06718 424.209L11.537 419.593L10.9482 419.925C10.0578 420.433 9.01418 420.604 8.00838 420.405C7.00257 420.207 6.1018 419.653 5.4709 418.845C4.83999 418.037 4.52113 417.029 4.57264 416.005C4.62416 414.981 5.04261 414.01 5.75144 413.269L22.545 395.947L10.9226 402.662C10.1418 403.115 9.2377 403.308 8.34017 403.214C7.44264 403.121 6.59796 402.745 5.92753 402.141C5.25711 401.537 4.79546 400.735 4.60896 399.853C4.42246 398.97 4.52071 398.05 4.88958 397.227L10.0522 385.664C9.06417 385.85 8.04201 385.682 7.16611 385.188C6.2902 384.694 5.61682 383.907 5.26478 382.965C4.91273 382.023 4.90463 380.987 5.24191 380.04C5.57918 379.093 6.24017 378.295 7.10824 377.788L17.0069 372.07C17.787 371.62 18.6896 371.428 19.5855 371.522C20.4815 371.616 21.3247 371.991 21.9944 372.593C22.6641 373.195 23.126 373.994 23.3138 374.876C23.5016 375.757 23.4058 376.674 23.04 377.498L18.0394 388.702L44.7573 373.274C45.6488 372.759 46.6962 372.584 47.7065 372.781C48.7167 372.978 49.6217 373.534 50.2547 374.345C50.8876 375.157 51.2058 376.17 51.1505 377.198C51.0953 378.226 50.6704 379.199 49.9541 379.938L33.152 397.244L48.8106 388.198C49.7337 387.671 50.8204 387.507 51.858 387.739C52.8955 387.971 53.8091 388.582 54.4198 389.452C55.0306 390.322 55.2945 391.389 55.1598 392.443C55.0251 393.498 54.5016 394.464 53.6917 395.153L48.2218 399.77L48.8106 399.437C49.702 398.929 50.7466 398.758 51.7531 398.958C52.7597 399.157 53.6606 399.713 54.2909 400.522C54.9213 401.332 55.2387 402.342 55.185 403.366C55.1314 404.391 54.7103 405.362 53.9989 406.101L33.408 427.213L48.768 418.33C49.6577 417.816 50.703 417.64 51.7118 417.835C52.7206 418.03 53.6251 418.583 54.2593 419.391C54.8934 420.2 55.2144 421.21 55.1635 422.236C55.1125 423.262 54.6929 424.235 53.9818 424.977L33.9541 445.995L48.8106 437.461C49.6898 436.96 50.7187 436.787 51.7134 436.974C52.7081 437.161 53.604 437.696 54.2409 438.483C54.8778 439.269 55.2143 440.257 55.1903 441.269C55.1663 442.28 54.7833 443.251 54.1098 444.006L37.8965 461.926L54.2037 452.54C55.0753 452.042 56.0946 451.867 57.0824 452.046C58.0701 452.225 58.963 452.747 59.6041 453.52C60.2452 454.292 60.5933 455.266 60.5873 456.27C60.5813 457.274 60.2215 458.243 59.5712 459.008L46.08 474.752L76.1685 457.387C77.0417 456.889 78.0626 456.716 79.0511 456.897C80.0396 457.079 80.9323 457.603 81.5718 458.379C82.2114 459.154 82.5568 460.13 82.5471 461.135C82.5374 462.14 82.1733 463.109 81.5189 463.872L63.8293 484.164L110.268 457.37C111.203 456.839 112.304 456.681 113.35 456.927C114.397 457.173 115.312 457.805 115.913 458.697C116.514 459.588 116.756 460.674 116.59 461.737C116.425 462.799 115.864 463.76 115.021 464.427L109.901 468.386L129.015 457.387C129.945 456.854 131.04 456.69 132.084 456.928C133.129 457.165 134.045 457.787 134.652 458.669C135.26 459.552 135.513 460.63 135.362 461.69C135.211 462.75 134.666 463.715 133.837 464.393L124.203 472.166L149.803 457.387C150.734 456.865 151.828 456.711 152.867 456.956C153.907 457.202 154.817 457.828 155.417 458.711C156.017 459.594 156.264 460.67 156.11 461.727C155.955 462.784 155.41 463.744 154.581 464.418L146.688 470.682L169.728 457.387C170.657 456.863 171.748 456.707 172.786 456.947C173.825 457.188 174.736 457.809 175.339 458.688C175.943 459.567 176.196 460.64 176.048 461.695C175.9 462.751 175.363 463.713 174.541 464.393L164.463 472.559L190.797 457.387C191.732 456.856 192.833 456.698 193.88 456.944C194.926 457.19 195.841 457.822 196.442 458.714C197.043 459.605 197.285 460.691 197.119 461.754C196.954 462.816 196.393 463.777 195.55 464.444L190.558 468.318L209.51 457.387C210.419 456.859 211.491 456.685 212.52 456.899C213.549 457.112 214.463 457.698 215.087 458.544C215.711 459.39 216 460.436 215.9 461.482C215.8 462.528 215.318 463.501 214.545 464.213L196.898 480.563L237.005 457.395C237.944 456.861 239.051 456.702 240.103 456.952C241.154 457.202 242.071 457.842 242.669 458.742C243.267 459.643 243.502 460.736 243.324 461.803C243.147 462.869 242.572 463.828 241.715 464.486L240.597 465.34L254.362 457.404C255.262 456.883 256.322 456.709 257.342 456.915C258.362 457.121 259.272 457.692 259.9 458.522C260.526 459.352 260.828 460.383 260.748 461.42C260.667 462.457 260.211 463.429 259.465 464.154L240.691 482.347L283.972 457.387C284.86 456.873 285.903 456.697 286.911 456.89C287.918 457.083 288.822 457.632 289.458 458.438C290.093 459.243 290.417 460.25 290.37 461.275C290.324 462.299 289.909 463.273 289.203 464.017L269.474 484.693L316.826 457.387C317.733 456.906 318.783 456.768 319.783 456.999C320.784 457.23 321.668 457.814 322.272 458.644C322.877 459.473 323.162 460.493 323.076 461.516C322.989 462.54 322.536 463.497 321.801 464.213L305.587 478.72L342.562 457.387C343.471 456.866 344.539 456.698 345.564 456.915C346.588 457.131 347.497 457.716 348.118 458.56C348.739 459.403 349.028 460.445 348.93 461.487C348.833 462.53 348.355 463.5 347.588 464.213L329.984 480.512L370.022 457.387C370.936 456.874 372.007 456.716 373.03 456.942C374.054 457.168 374.958 457.763 375.571 458.613C376.184 459.463 376.462 460.509 376.353 461.551C376.244 462.594 375.756 463.559 374.98 464.265L359.014 478.421L395.46 457.387C396.375 456.866 397.449 456.702 398.477 456.926C399.504 457.149 400.414 457.745 401.029 458.597C401.645 459.45 401.924 460.5 401.813 461.546C401.702 462.592 401.208 463.56 400.427 464.265L384.333 478.558L421.026 457.387C421.967 456.835 423.083 456.665 424.146 456.91C425.209 457.156 426.137 457.8 426.74 458.708C427.343 459.617 427.575 460.723 427.388 461.797C427.202 462.872 426.611 463.834 425.737 464.486L425.114 464.939L438.221 457.387C439.154 456.862 440.25 456.707 441.291 456.953C442.333 457.198 443.244 457.826 443.845 458.712C444.445 459.598 444.691 460.677 444.532 461.736C444.374 462.794 443.824 463.755 442.991 464.427L436.036 469.905L501.086 432.358C502.036 431.81 503.161 431.65 504.227 431.909C505.293 432.169 506.218 432.829 506.809 433.752C507.401 434.676 507.615 435.792 507.405 436.869C507.196 437.946 506.58 438.9 505.685 439.535L486.272 453.265L501.086 444.732C502.033 444.188 503.152 444.029 504.213 444.285C505.274 444.542 506.197 445.196 506.79 446.112C507.384 447.028 507.604 448.137 507.405 449.211C507.205 450.284 506.602 451.24 505.719 451.883L497.263 458.001L500.463 456.149C501.372 455.577 502.464 455.368 503.52 455.565C504.576 455.763 505.519 456.351 506.161 457.213C506.802 458.075 507.094 459.148 506.979 460.216C506.864 461.284 506.35 462.27 505.54 462.976L486.161 481.408L491.494 478.336C492.47 477.826 493.604 477.712 494.661 478.019C495.718 478.326 496.615 479.029 497.166 479.981C497.717 480.934 497.878 482.063 497.616 483.132C497.354 484.201 496.69 485.127 495.761 485.717L459.366 506.726C458.462 507.29 457.379 507.494 456.332 507.3C455.284 507.105 454.347 506.526 453.705 505.675C453.063 504.825 452.763 503.765 452.863 502.704C452.963 501.643 453.457 500.658 454.246 499.942L473.634 481.51L429.542 506.88C428.896 507.264 428.16 507.47 427.409 507.477Z" fill="#AA6352"/>
<path d="M461.056 447.881C460.196 447.88 459.357 447.619 458.647 447.133C457.938 446.647 457.392 445.958 457.081 445.157C456.771 444.355 456.709 443.478 456.905 442.641C457.101 441.804 457.546 441.045 458.18 440.465L471.219 428.578L463.189 433.212C462.272 433.745 461.189 433.917 460.151 433.694C459.114 433.472 458.196 432.871 457.578 432.009C456.96 431.146 456.685 430.085 456.808 429.031C456.93 427.977 457.441 427.006 458.24 426.308L468.002 417.775L463.189 420.548C462.298 421.057 461.253 421.227 460.247 421.027C459.24 420.828 458.339 420.273 457.709 419.463C457.079 418.653 456.761 417.644 456.815 416.619C456.869 415.594 457.29 414.623 458.001 413.884L478.618 392.73L463.189 401.587C462.294 402.103 461.242 402.277 460.229 402.076C459.216 401.875 458.309 401.314 457.679 400.495C457.048 399.677 456.736 398.658 456.8 397.627C456.864 396.596 457.3 395.623 458.027 394.889L477.867 374.793L463.164 383.275C462.248 383.798 461.17 383.963 460.139 383.738C459.108 383.513 458.197 382.915 457.582 382.057C456.967 381.2 456.691 380.146 456.808 379.097C456.925 378.049 457.426 377.08 458.214 376.38L468.19 367.59L463.164 370.492C462.271 371.001 461.224 371.17 460.216 370.969C459.208 370.767 458.306 370.209 457.677 369.396C457.048 368.583 456.734 367.57 456.792 366.544C456.849 365.518 457.276 364.547 457.993 363.81L478.174 343.262L463.189 351.923C462.291 352.435 461.237 352.603 460.224 352.396C459.211 352.189 458.308 351.621 457.682 350.798C457.056 349.975 456.751 348.953 456.822 347.921C456.893 346.89 457.336 345.92 458.069 345.19L476.51 327.006L463.198 334.686C462.298 335.205 461.24 335.378 460.223 335.172C459.205 334.967 458.297 334.397 457.669 333.57C457.04 332.743 456.736 331.716 456.811 330.68C456.886 329.645 457.337 328.672 458.078 327.945L475.921 310.511L463.189 317.858C462.268 318.382 461.186 318.544 460.152 318.313C459.118 318.082 458.206 317.475 457.595 316.61C456.984 315.744 456.717 314.682 456.846 313.631C456.974 312.579 457.49 311.613 458.291 310.921L464.785 305.391L463.189 306.304C462.29 306.823 461.232 306.996 460.214 306.79C459.196 306.585 458.288 306.016 457.66 305.189C457.032 304.362 456.727 303.334 456.802 302.298C456.878 301.263 457.328 300.29 458.069 299.563L475.87 282.197L463.181 289.519C462.273 290.019 461.214 290.171 460.202 289.947C459.19 289.723 458.294 289.138 457.682 288.302C457.07 287.466 456.782 286.436 456.874 285.403C456.966 284.371 457.43 283.407 458.18 282.692L470.758 271.292L463.181 275.661C462.27 276.145 461.214 276.282 460.21 276.048C459.205 275.813 458.32 275.223 457.717 274.386C457.114 273.549 456.835 272.522 456.931 271.495C457.027 270.468 457.492 269.511 458.24 268.8L469.154 259.098L463.181 262.511C462.278 263.054 461.206 263.245 460.172 263.045C459.137 262.845 458.213 262.27 457.578 261.43C456.942 260.59 456.64 259.544 456.729 258.494C456.818 257.445 457.292 256.465 458.061 255.744L474.974 239.471L463.147 246.298C462.254 246.806 461.207 246.976 460.199 246.775C459.191 246.573 458.289 246.015 457.66 245.202C457.031 244.389 456.717 243.376 456.774 242.35C456.832 241.324 457.259 240.353 457.975 239.616L478.199 219.017L463.189 227.669C462.259 228.215 461.156 228.389 460.103 228.155C459.05 227.92 458.125 227.296 457.513 226.407C456.902 225.517 456.651 224.43 456.809 223.363C456.968 222.295 457.525 221.328 458.368 220.655L461.201 218.368C460.51 218.406 459.82 218.27 459.195 217.971C458.571 217.673 458.031 217.223 457.626 216.661C457.005 215.817 456.716 214.773 456.815 213.73C456.915 212.687 457.394 211.716 458.163 211.004L472.03 198.204L463.189 203.324C462.281 203.83 461.219 203.987 460.203 203.766C459.187 203.544 458.287 202.959 457.672 202.121C457.057 201.283 456.769 200.248 456.863 199.213C456.956 198.177 457.425 197.212 458.18 196.497L471.066 184.772L463.189 189.321C462.291 189.832 461.237 190 460.224 189.793C459.211 189.586 458.308 189.018 457.682 188.195C457.056 187.372 456.751 186.35 456.822 185.319C456.893 184.287 457.336 183.317 458.069 182.588L476.262 164.668L463.189 172.22C462.281 172.726 461.219 172.883 460.203 172.662C459.187 172.44 458.287 171.855 457.672 171.017C457.057 170.179 456.769 169.144 456.863 168.109C456.956 167.073 457.425 166.108 458.18 165.393L471.151 153.574L463.189 158.165C462.265 158.686 461.181 158.844 460.147 158.609C459.113 158.374 458.203 157.762 457.596 156.892C456.988 156.023 456.727 154.958 456.862 153.906C456.996 152.854 457.518 151.89 458.325 151.202L462.643 147.601C461.699 147.983 460.648 148.015 459.682 147.69C458.716 147.366 457.899 146.706 457.377 145.831C456.855 144.955 456.664 143.922 456.838 142.918C457.012 141.914 457.54 141.005 458.325 140.356L462.643 136.755C461.728 137.121 460.714 137.159 459.774 136.862C458.833 136.565 458.025 135.952 457.486 135.126C456.947 134.3 456.711 133.314 456.817 132.333C456.923 131.353 457.366 130.44 458.069 129.749L476.382 111.718L463.189 119.33C462.288 119.831 461.235 119.988 460.226 119.773C459.217 119.558 458.321 118.984 457.702 118.158C457.084 117.333 456.785 116.311 456.862 115.282C456.939 114.254 457.386 113.288 458.121 112.563L474.479 96.9472L463.189 103.458C462.291 103.97 461.237 104.138 460.224 103.931C459.211 103.724 458.308 103.156 457.682 102.333C457.056 101.51 456.751 100.488 456.822 99.4564C456.893 98.4249 457.336 97.4545 458.069 96.7253L476.39 78.6688L463.189 86.2805C462.289 86.807 461.226 86.9852 460.203 86.7817C459.18 86.5781 458.267 86.0067 457.637 85.1756C457.006 84.3444 456.702 83.3111 456.782 82.271C456.862 81.2309 457.32 80.256 458.069 79.5306L473.139 64.8533L463.087 70.656C462.178 71.2089 461.095 71.4021 460.051 71.1977C459.006 70.9933 458.076 70.4061 457.442 69.5512C456.809 68.6964 456.517 67.6356 456.625 66.577C456.734 65.5184 457.233 64.5384 458.027 63.8293L466.483 55.8677L458.675 60.3733C457.79 60.8804 456.752 61.0535 455.75 60.8612C454.748 60.669 453.849 60.1241 453.214 59.3253C452.579 58.5266 452.252 57.5268 452.291 56.5074C452.33 55.488 452.733 54.5163 453.427 53.7685L465.067 41.3354L442.027 54.6133C441.135 55.1278 440.088 55.3027 439.078 55.1057C438.067 54.9088 437.162 54.3532 436.529 53.5416C435.896 52.7299 435.578 51.7168 435.633 50.689C435.689 49.6612 436.114 48.688 436.83 47.9488L450.901 33.5531L414.379 54.6133C413.461 55.138 412.382 55.3037 411.35 55.0783C410.317 54.8528 409.405 54.2523 408.79 53.393C408.175 52.5337 407.901 51.4768 408.021 50.4269C408.14 49.377 408.645 48.4088 409.438 47.7099L423.74 35.2853L390.238 54.6133C389.344 55.1226 388.296 55.2916 387.287 55.0893C386.278 54.8871 385.377 54.3271 384.748 53.5126C384.12 52.6981 383.807 51.6838 383.867 50.6567C383.927 49.6296 384.356 48.6589 385.075 47.9232L404.446 28.2965L358.929 54.6133C358.002 55.1102 356.925 55.2474 355.903 54.9986C354.882 54.7498 353.988 54.1325 353.393 53.2652C352.799 52.3979 352.546 51.3416 352.682 50.299C352.819 49.2564 353.336 48.301 354.133 47.616L363.52 40.0384L338.244 54.6133C337.317 55.1503 336.222 55.3188 335.176 55.0852C334.13 54.8517 333.211 54.2332 332.6 53.3527C331.989 52.4722 331.732 51.3942 331.88 50.3329C332.028 49.2716 332.569 48.3048 333.397 47.6245L344.491 38.5621L316.638 54.6133C315.729 55.1336 314.661 55.3016 313.636 55.0853C312.612 54.869 311.703 54.2836 311.082 53.4403C310.461 52.5971 310.172 51.5551 310.27 50.5125C310.367 49.47 310.845 48.4998 311.612 47.7866L329.233 31.4539L289.126 54.6133C288.229 55.118 287.179 55.2811 286.171 55.0727C285.163 54.8642 284.264 54.2983 283.64 53.4791C283.017 52.66 282.71 51.643 282.777 50.6156C282.845 49.5882 283.281 48.6199 284.006 47.8891L303.087 29.0133L258.714 54.6133C257.806 55.1129 256.747 55.2649 255.735 55.041C254.723 54.817 253.827 54.2324 253.215 53.3964C252.602 52.5603 252.315 51.5299 252.407 50.4976C252.499 49.4653 252.963 48.5017 253.713 47.7866L270.507 32.5376L232.26 54.6133C231.356 55.1359 230.292 55.3088 229.269 55.0992C228.246 54.8896 227.335 54.312 226.709 53.4759C226.083 52.6398 225.786 51.6033 225.873 50.5626C225.961 49.5219 226.427 48.5494 227.183 47.8293L245.564 30.3104L203.452 54.6133C202.534 55.1317 201.456 55.2918 200.427 55.0629C199.398 54.8339 198.49 54.2321 197.879 53.3735C197.267 52.5149 196.995 51.4602 197.115 50.4128C197.235 49.3654 197.738 48.3995 198.528 47.7013L213.333 34.8757L179.123 54.6133C178.194 55.1367 177.103 55.2934 176.065 55.0525C175.026 54.8117 174.116 54.1908 173.512 53.3121C172.908 52.4333 172.655 51.3605 172.803 50.3047C172.951 49.2489 173.489 48.2866 174.31 47.6075L184.141 39.6544L158.217 54.6133C157.33 55.1206 156.29 55.2927 155.287 55.0984C154.284 54.9041 153.384 54.3562 152.75 53.5544C152.117 52.7526 151.792 51.7501 151.835 50.7292C151.879 49.7084 152.287 48.7369 152.986 47.9915L172.749 27.0933L125.065 54.6133C124.161 55.1289 123.099 55.2963 122.08 55.0841C121.062 54.8718 120.156 54.2946 119.533 53.4609C118.91 52.6272 118.613 51.5946 118.698 50.5575C118.784 49.5203 119.245 48.5501 119.996 47.8293L138.351 30.3531L96.3072 54.6133C95.3994 55.1065 94.3436 55.2536 93.3356 55.0272C92.3277 54.8009 91.4361 54.2166 90.8263 53.3827C90.2165 52.5488 89.93 51.522 90.0199 50.4929C90.1098 49.4637 90.57 48.5022 91.3152 47.7866L107.981 32.768L70.033 54.6645C69.5474 54.9732 69.0044 55.1805 68.4366 55.2739C67.8687 55.3673 67.2879 55.3449 66.729 55.208C66.1701 55.0711 65.6446 54.8225 65.1843 54.4773C64.7239 54.132 64.3381 53.6972 64.0501 53.199C63.7622 52.7008 63.5779 52.1495 63.5085 51.5783C63.4392 51.0071 63.486 50.4277 63.6464 49.875C63.8067 49.3224 64.0772 48.8079 64.4415 48.3624C64.8058 47.917 65.2565 47.5499 65.7664 47.2832L138.837 5.11998C139.745 4.63303 140.798 4.49074 141.802 4.71936C142.806 4.94798 143.694 5.53209 144.301 6.36389C144.908 7.19569 145.194 8.21905 145.106 9.24512C145.017 10.2712 144.561 11.2307 143.821 11.9466L127.147 26.9739L165.06 5.11998C165.969 4.5576 167.057 4.35704 168.107 4.55798C169.157 4.75893 170.093 5.34673 170.73 6.20507C171.368 7.06341 171.66 8.12973 171.548 9.19299C171.437 10.2563 170.93 11.239 170.129 11.9466L151.774 29.3632L193.818 5.11998C194.705 4.6127 195.744 4.44057 196.747 4.6349C197.75 4.82922 198.651 5.3771 199.284 6.1789C199.917 6.9807 200.242 7.98318 200.199 9.00406C200.155 10.0249 199.747 10.9964 199.049 11.7419L179.285 32.6229L226.987 5.11998C227.915 4.59663 229.007 4.43994 230.045 4.68077C231.084 4.9216 231.994 5.5425 232.598 6.42123C233.202 7.29995 233.454 8.37283 233.307 9.42863C233.159 10.4844 232.621 11.4467 231.799 12.1258L221.969 20.0789L247.876 5.11998C248.794 4.60164 249.872 4.44149 250.901 4.67042C251.93 4.89935 252.838 5.50115 253.449 6.35979C254.061 7.21842 254.333 8.2731 254.213 9.32048C254.093 10.3679 253.59 11.3338 252.8 12.032L237.969 24.8576L272.213 5.11998C273.119 4.44103 274.256 4.1495 275.377 4.30953C276.497 4.46956 277.508 5.06804 278.187 5.97332C278.866 6.87859 279.157 8.0165 278.997 9.13671C278.837 10.2569 278.239 11.2677 277.333 11.9466L258.901 29.3973L300.996 5.11998C301.904 4.6204 302.963 4.46839 303.975 4.69233C304.987 4.91627 305.883 5.50085 306.495 6.33691C307.107 7.17298 307.395 8.20336 307.303 9.23566C307.211 10.268 306.747 11.2316 305.997 11.9466L289.161 27.1957L327.433 5.11998C328.33 4.59958 329.387 4.42428 330.405 4.62691C331.423 4.82953 332.332 5.39619 332.962 6.22078C333.592 7.04557 333.899 8.0715 333.827 9.10657C333.755 10.1416 333.308 11.1149 332.57 11.8442L313.472 30.72L357.845 5.11998C358.754 4.59216 359.826 4.41836 360.855 4.6319C361.884 4.84543 362.798 5.43128 363.422 6.27713C364.046 7.12298 364.335 8.16931 364.235 9.21554C364.135 10.2618 363.653 11.2343 362.88 11.9466L345.284 28.2539L385.382 5.11998C386.309 4.59244 387.4 4.4312 388.44 4.66805C389.48 4.90489 390.394 5.52263 391.001 6.39956C391.608 7.27648 391.865 8.34898 391.72 9.40573C391.576 10.4625 391.041 11.4268 390.221 12.1088L379.127 21.1797L406.989 5.11998C407.919 4.58442 409.017 4.41912 410.063 4.65703C411.11 4.89495 412.029 5.5186 412.636 6.40364C413.243 7.28868 413.494 8.37009 413.34 9.43223C413.185 10.4944 412.636 11.4592 411.802 12.1344L402.415 19.712L427.674 5.11998C428.568 4.6044 429.618 4.43041 430.631 4.63025C431.644 4.83009 432.549 5.39022 433.181 6.20684C433.812 7.02347 434.126 8.04121 434.064 9.0715C434.002 10.1018 433.569 11.0748 432.845 11.8101L413.474 31.3856L457.847 5.78558C458.764 5.26877 459.84 5.10915 460.868 5.33742C461.895 5.5657 462.802 6.16574 463.414 7.0222C464.026 7.87866 464.3 8.93108 464.183 9.97714C464.065 11.0232 463.566 11.9891 462.78 12.689L448.503 25.0795L473.361 10.7349C474.252 10.2266 475.297 10.0566 476.304 10.2559C477.31 10.4553 478.211 11.0107 478.841 11.8203C479.472 12.63 479.789 13.6397 479.735 14.6643C479.682 15.689 479.261 16.66 478.549 17.3995L464.503 31.8208L485.683 19.6266C486.568 19.1196 487.606 18.9465 488.608 19.1387C489.61 19.331 490.51 19.8759 491.144 20.6747C491.779 21.4734 492.107 22.4731 492.067 23.4926C492.028 24.512 491.625 25.4837 490.931 26.2315L479.283 38.6474L493.969 30.1739C494.878 29.6298 495.957 29.4435 496.996 29.6511C498.035 29.8587 498.96 30.4454 499.59 31.297C500.22 32.1487 500.511 33.2043 500.406 34.2585C500.3 35.3128 499.807 36.2902 499.021 37.0005L490.564 44.9621L498.577 40.3456C499.478 39.8191 500.54 39.6409 501.563 39.8445C502.586 40.0481 503.499 40.6194 504.13 41.4505C504.76 42.2817 505.064 43.315 504.984 44.3551C504.905 45.3952 504.447 46.3701 503.697 47.0955L488.619 61.7131L501.001 54.6133C501.899 54.1018 502.953 53.9339 503.966 54.1409C504.979 54.3478 505.882 54.9155 506.508 55.7385C507.134 56.5615 507.439 57.5837 507.368 58.6151C507.297 59.6465 506.854 60.617 506.121 61.3461L487.799 79.36L501.077 71.68C501.98 71.1719 503.037 71.0096 504.051 71.2235C505.064 71.4374 505.966 72.0129 506.586 72.8424C507.207 73.672 507.504 74.699 507.423 75.7318C507.342 76.7647 506.888 77.7328 506.146 78.4555L489.813 94.0629L501.086 87.5691C501.984 87.0575 503.038 86.8896 504.051 87.0966C505.064 87.3036 505.967 87.8713 506.593 88.6942C507.219 89.5172 507.525 90.5394 507.453 91.5708C507.382 92.6022 506.939 93.5727 506.206 94.3018L487.893 112.333L501.086 104.713C502.011 104.181 503.102 104.015 504.143 104.247C505.185 104.48 506.101 105.095 506.712 105.97C507.322 106.845 507.583 107.918 507.442 108.975C507.301 110.033 506.768 111 505.95 111.684L501.632 115.285C502.575 114.909 503.621 114.881 504.582 115.207C505.543 115.533 506.357 116.19 506.877 117.062C507.397 117.933 507.59 118.962 507.42 119.963C507.25 120.963 506.729 121.871 505.95 122.522L501.632 126.123C502.513 125.78 503.482 125.736 504.39 125.998C505.299 126.26 506.095 126.814 506.658 127.573C507.278 128.421 507.564 129.469 507.46 130.514C507.356 131.56 506.87 132.53 506.095 133.239L493.116 145.067L501.077 140.476C501.976 139.964 503.029 139.796 504.042 140.003C505.055 140.21 505.959 140.778 506.585 141.601C507.21 142.424 507.516 143.446 507.445 144.477C507.374 145.509 506.93 146.479 506.197 147.209L487.987 165.129L501.077 157.577C501.986 157.07 503.047 156.913 504.063 157.135C505.079 157.356 505.979 157.941 506.595 158.779C507.21 159.618 507.497 160.652 507.404 161.687C507.31 162.723 506.842 163.689 506.086 164.403L493.227 176.094L501.077 171.554C501.986 171.034 503.054 170.866 504.079 171.082C505.103 171.298 506.013 171.884 506.633 172.727C507.254 173.57 507.543 174.612 507.446 175.655C507.348 176.697 506.87 177.668 506.103 178.381L492.211 191.181L501.077 186.061C502.006 185.528 503.102 185.364 504.146 185.602C505.19 185.839 506.107 186.461 506.714 187.343C507.322 188.226 507.575 189.304 507.424 190.364C507.272 191.424 506.728 192.389 505.899 193.067L503.066 195.362C503.735 195.371 504.395 195.523 505.001 195.807C505.607 196.091 506.146 196.5 506.581 197.009C507.214 197.826 507.529 198.844 507.467 199.875C507.406 200.906 506.973 201.88 506.249 202.615L486.025 223.215L501.077 214.537C501.98 213.993 503.052 213.803 504.086 214.002C505.121 214.202 506.045 214.777 506.681 215.617C507.316 216.458 507.619 217.503 507.529 218.553C507.44 219.603 506.966 220.583 506.197 221.303L489.301 237.559L501.111 230.733C502.027 230.203 503.106 230.032 504.141 230.254C505.175 230.475 506.09 231.072 506.709 231.93C507.327 232.788 507.605 233.845 507.489 234.896C507.372 235.947 506.869 236.918 506.078 237.619L495.147 247.339L501.12 243.925C502.028 243.426 503.087 243.274 504.099 243.498C505.111 243.722 506.006 244.306 506.619 245.142C507.231 245.978 507.518 247.009 507.427 248.041C507.335 249.073 506.871 250.037 506.121 250.752L493.542 262.153L501.12 257.783C502.02 257.265 503.077 257.092 504.095 257.297C505.113 257.502 506.021 258.072 506.649 258.899C507.277 259.726 507.582 260.753 507.507 261.789C507.432 262.825 506.981 263.797 506.24 264.525L488.439 281.89L501.129 274.577C502.05 274.054 503.132 273.891 504.166 274.122C505.2 274.353 506.111 274.96 506.722 275.826C507.333 276.691 507.601 277.753 507.472 278.804C507.343 279.856 506.828 280.822 506.027 281.515L499.533 287.044L501.129 286.123C502.028 285.604 503.086 285.431 504.104 285.636C505.122 285.842 506.03 286.411 506.658 287.238C507.286 288.065 507.591 289.093 507.515 290.128C507.44 291.164 506.99 292.137 506.249 292.864L488.414 310.281L501.137 302.942C502.036 302.43 503.089 302.262 504.102 302.469C505.115 302.676 506.018 303.244 506.644 304.067C507.27 304.89 507.576 305.912 507.505 306.944C507.433 307.975 506.99 308.946 506.257 309.675L487.765 327.885L501.077 320.205C501.971 319.689 503.022 319.515 504.035 319.715C505.047 319.915 505.953 320.475 506.584 321.292C507.216 322.108 507.529 323.126 507.468 324.156C507.406 325.187 506.973 326.16 506.249 326.895L486.067 347.443L501.077 338.773C501.994 338.25 503.071 338.085 504.102 338.31C505.133 338.535 506.044 339.133 506.659 339.991C507.274 340.848 507.55 341.902 507.433 342.951C507.317 343.999 506.815 344.968 506.027 345.668L496.051 354.458L501.077 351.556C501.971 351.047 503.019 350.878 504.028 351.08C505.037 351.283 505.938 351.842 506.567 352.657C507.196 353.472 507.509 354.486 507.449 355.513C507.388 356.54 506.959 357.511 506.24 358.246L486.4 378.359L501.111 369.869C502.003 369.361 503.047 369.19 504.054 369.39C505.06 369.589 505.961 370.145 506.592 370.954C507.222 371.764 507.54 372.774 507.486 373.798C507.432 374.823 507.011 375.794 506.3 376.533L485.658 397.653L501.077 388.753C501.994 388.23 503.071 388.065 504.102 388.29C505.133 388.514 506.044 389.113 506.659 389.97C507.274 390.827 507.55 391.882 507.433 392.931C507.317 393.979 506.815 394.947 506.027 395.648L496.239 404.25L501.077 401.459C501.986 400.953 503.047 400.796 504.063 401.017C505.079 401.239 505.979 401.824 506.595 402.662C507.21 403.5 507.497 404.534 507.404 405.57C507.31 406.606 506.842 407.571 506.086 408.286L493.047 420.173L501.077 415.539C502.052 415.029 503.187 414.916 504.244 415.222C505.301 415.529 506.198 416.232 506.749 417.185C507.3 418.137 507.461 419.266 507.199 420.335C506.937 421.404 506.273 422.33 505.344 422.921L463.189 447.258C462.548 447.654 461.81 447.87 461.056 447.881Z" fill="#AA6352"/>
<path d="M40.5931 140.544C39.8577 140.545 39.1346 140.356 38.4939 139.995C37.8532 139.634 37.3166 139.114 36.9363 138.484C36.5559 137.855 36.3447 137.138 36.323 136.403C36.3014 135.668 36.4701 134.94 36.8128 134.289L40.2944 127.676L19.0293 139.947C18.1263 140.461 17.0663 140.629 16.0486 140.417C15.0308 140.206 14.1253 139.63 13.5019 138.799C12.8786 137.967 12.5803 136.936 12.6632 135.9C12.7461 134.864 13.2043 133.893 13.952 133.171L22.528 124.962L10.9226 131.652C10.0135 132.196 8.93454 132.383 7.89563 132.175C6.85671 131.967 5.93219 131.381 5.30198 130.529C4.67177 129.677 4.38095 128.622 4.48611 127.568C4.59127 126.513 5.08489 125.536 5.87092 124.826L20.8128 110.857L10.9226 116.565C10.0304 117.074 8.98472 117.244 7.97747 117.043C6.97022 116.843 6.06902 116.286 5.4393 115.475C4.80959 114.663 4.49362 113.652 4.54939 112.627C4.60516 111.601 5.02893 110.63 5.74292 109.892L26.2229 88.8661L10.8629 97.7152C9.91187 98.2548 8.78997 98.4086 7.72878 98.145C6.66759 97.8813 5.74812 97.2203 5.16016 96.2984C4.57219 95.3765 4.36062 94.2641 4.5691 93.1907C4.77758 92.1173 5.3902 91.1649 6.28052 90.5301L48.64 60.8512L10.9226 82.6453C9.98299 83.192 8.87012 83.3593 7.81125 83.1132C6.75239 82.8671 5.82739 82.2261 5.22514 81.3211C4.62288 80.416 4.38879 79.3153 4.57066 78.2435C4.75252 77.1717 5.33663 76.2098 6.20372 75.5541L45.5765 45.4485L10.9226 65.4507C9.99674 65.9759 8.90795 66.136 7.87004 65.8996C6.83212 65.6632 5.92006 65.0474 5.31292 64.173C4.70578 63.2986 4.44741 62.2289 4.58854 61.1738C4.72968 60.1187 5.26011 59.1544 6.07572 58.4704L30.8224 38.0501L13.2437 48.1877C12.3347 48.7234 11.2595 48.9033 10.2256 48.6927C9.19173 48.482 8.27258 47.8958 7.64564 47.0471C7.0187 46.1985 6.72844 45.1476 6.83092 44.0975C6.9334 43.0474 7.42134 42.0725 8.20052 41.361L21.6746 28.817C20.8638 28.5933 20.1372 28.1349 19.5861 27.4994C19.035 26.8639 18.6841 26.0796 18.5774 25.2453C18.4707 24.4109 18.613 23.5636 18.9864 22.8099C19.3599 22.0562 19.9478 21.4296 20.6763 21.009L45.7216 6.54505C46.6306 6.00934 47.7058 5.82944 48.7397 6.04009C49.7736 6.25073 50.6927 6.83698 51.3197 7.68563C51.9466 8.53428 52.2369 9.58513 52.1344 10.6353C52.0319 11.6854 51.544 12.6603 50.7648 13.3717L41.3781 22.1098L70.8267 5.11998C71.7526 4.59478 72.8414 4.43465 73.8793 4.67105C74.9172 4.90744 75.8292 5.52328 76.4364 6.39765C77.0435 7.27202 77.3019 8.34176 77.1608 9.39686C77.0196 10.452 76.4892 11.4162 75.6736 12.1002L50.9781 32.4778L98.3893 5.11998C99.3278 4.57785 100.437 4.4132 101.493 4.65945C102.548 4.90569 103.471 5.54438 104.072 6.44583C104.674 7.34729 104.91 8.44394 104.733 9.51313C104.555 10.5823 103.977 11.5439 103.117 12.2026L63.7355 42.3082L128.179 5.11998C129.128 4.59867 130.24 4.45776 131.289 4.7258C132.339 4.99385 133.247 5.6508 133.829 6.56349C134.412 7.47618 134.626 8.57631 134.428 9.64088C134.229 10.7055 133.634 11.6548 132.762 12.2965L54.4256 67.2427C55.0034 68.0585 55.2763 69.0514 55.1968 70.048C55.1172 71.0445 54.6903 71.9815 53.9904 72.6955L33.5104 93.7045L48.8704 84.8554C49.7795 84.3114 50.8585 84.1251 51.8974 84.3327C52.9363 84.5403 53.8608 85.127 54.4911 85.9786C55.1213 86.8303 55.4121 87.8859 55.3069 88.9401C55.2018 89.9944 54.7081 90.9718 53.9221 91.6821L38.9205 105.634L48.8107 99.9253C49.7142 99.3724 50.7912 99.1753 51.832 99.3725C52.8729 99.5697 53.8031 100.147 54.4418 100.992C55.0805 101.837 55.3819 102.89 55.2874 103.945C55.1929 105 54.7093 105.983 53.9307 106.701L45.3973 114.927L48.8875 112.905C49.6878 112.446 50.6152 112.259 51.5308 112.371C52.4463 112.484 53.3007 112.89 53.9659 113.53C54.631 114.169 55.0711 115.006 55.2201 115.917C55.3692 116.827 55.2191 117.761 54.7925 118.579L50.7392 126.259C51.6614 126.298 52.5463 126.635 53.2609 127.219C53.9755 127.803 54.4813 128.604 54.7025 129.5C54.9236 130.396 54.8482 131.34 54.4875 132.189C54.1268 133.039 53.5002 133.749 52.7019 134.212L42.8032 139.93C42.1364 140.332 41.372 140.545 40.5931 140.544Z" fill="#AA6352"/>
<path d="M252.928 211.26C252.061 211.259 251.214 210.993 250.502 210.499C249.789 210.005 249.244 209.305 248.939 208.493C248.634 207.681 248.584 206.796 248.795 205.954C249.006 205.113 249.468 204.356 250.121 203.785L268.467 187.733L246.281 200.533C245.347 201.061 244.248 201.218 243.204 200.972C242.16 200.726 241.247 200.096 240.646 199.207C240.046 198.318 239.802 197.236 239.964 196.175C240.126 195.115 240.681 194.154 241.519 193.485L247.066 189.133L242.56 191.693C241.652 192.206 240.587 192.368 239.566 192.149C238.546 191.931 237.642 191.345 237.024 190.505C236.406 189.664 236.117 188.626 236.213 187.587C236.309 186.548 236.781 185.58 237.542 184.866L253.141 170.564L241.886 177.067C240.991 177.559 239.949 177.713 238.949 177.502C237.95 177.291 237.06 176.728 236.44 175.916C235.82 175.104 235.512 174.097 235.572 173.077C235.632 172.058 236.055 171.093 236.766 170.359L245.572 161.562C244.816 161.279 244.156 160.787 243.669 160.144C243.181 159.501 242.885 158.733 242.817 157.929C242.748 157.125 242.908 156.318 243.28 155.602C243.651 154.885 244.218 154.289 244.915 153.882L265.225 142.157C266.12 141.665 267.162 141.511 268.161 141.722C269.16 141.933 270.051 142.495 270.671 143.307C271.29 144.119 271.598 145.126 271.539 146.146C271.479 147.166 271.055 148.13 270.345 148.864L265.745 153.463L282.624 143.718C283.532 143.205 284.597 143.043 285.618 143.262C286.638 143.481 287.542 144.066 288.16 144.907C288.778 145.747 289.067 146.785 288.971 147.824C288.876 148.863 288.403 149.831 287.642 150.545L272.026 164.855L294.989 151.603C295.923 151.065 297.026 150.901 298.077 151.143C299.127 151.385 300.047 152.016 300.652 152.909C301.256 153.802 301.5 154.891 301.334 155.956C301.168 157.021 300.606 157.984 299.759 158.652L294.221 162.995L301.901 158.541C302.818 158.016 303.897 157.85 304.93 158.076C305.962 158.301 306.874 158.902 307.489 159.761C308.104 160.62 308.378 161.677 308.259 162.727C308.139 163.777 307.634 164.745 306.842 165.444L288.503 181.495L311.543 168.192C312.519 167.682 313.653 167.568 314.71 167.875C315.767 168.182 316.664 168.885 317.215 169.837C317.766 170.79 317.927 171.919 317.665 172.988C317.404 174.057 316.739 174.983 315.81 175.573L255.061 210.679C254.415 211.061 253.678 211.261 252.928 211.26Z" fill="#F15050"/>
<path d="M269.073 353.451C268.173 353.462 267.293 353.188 266.558 352.668C265.823 352.148 265.272 351.41 264.982 350.558C264.692 349.706 264.679 348.784 264.945 347.924C265.211 347.064 265.742 346.311 266.462 345.771L299.785 319.898L254.387 346.103C253.433 346.649 252.304 346.805 251.237 346.539C250.171 346.273 249.248 345.606 248.661 344.676C248.074 343.746 247.87 342.625 248.089 341.548C248.308 340.47 248.935 339.519 249.839 338.893L278.443 319.326L246.673 337.655C245.716 338.178 244.596 338.314 243.542 338.037C242.488 337.759 241.58 337.089 241.005 336.163C240.429 335.237 240.23 334.126 240.448 333.058C240.666 331.99 241.284 331.046 242.176 330.419L264.218 315.733L242.534 328.252C241.582 328.798 240.456 328.957 239.389 328.694C238.323 328.431 237.399 327.767 236.81 326.84C236.221 325.914 236.012 324.796 236.226 323.719C236.44 322.642 237.062 321.689 237.961 321.058L287.078 286.839L241.988 312.866C241.026 313.443 239.875 313.617 238.785 313.351C237.695 313.085 236.754 312.401 236.165 311.446C235.576 310.491 235.387 309.343 235.638 308.249C235.889 307.156 236.561 306.206 237.508 305.604L246.895 299.469C246.065 299.615 245.21 299.514 244.436 299.178C243.663 298.843 243.004 298.289 242.543 297.583C241.949 296.664 241.732 295.551 241.935 294.476C242.138 293.401 242.747 292.445 243.635 291.806L286.123 261.171L244.796 285.065C243.859 285.592 242.757 285.746 241.712 285.496C240.666 285.246 239.753 284.611 239.156 283.717C238.558 282.823 238.32 281.737 238.49 280.675C238.659 279.613 239.223 278.654 240.068 277.99L290.415 239.403L211.251 285.013C210.303 285.542 209.189 285.688 208.136 285.424C207.083 285.16 206.17 284.504 205.584 283.59C204.998 282.676 204.782 281.574 204.98 280.506C205.179 279.439 205.776 278.487 206.652 277.845L257.57 241.707L182.545 285.013C181.588 285.559 180.458 285.713 179.39 285.444C178.322 285.175 177.4 284.503 176.816 283.57C176.231 282.636 176.031 281.513 176.256 280.435C176.481 279.357 177.114 278.408 178.022 277.786L219.716 249.754L158.626 285.013C157.686 285.552 156.575 285.713 155.521 285.463C154.466 285.213 153.546 284.571 152.948 283.667C152.349 282.763 152.117 281.666 152.299 280.597C152.48 279.529 153.061 278.569 153.924 277.914L187.904 252.314L131.319 285.013C130.368 285.545 129.248 285.692 128.191 285.425C127.134 285.157 126.22 284.496 125.636 283.575C125.052 282.654 124.842 281.545 125.05 280.475C125.258 279.405 125.868 278.455 126.754 277.82L140.083 268.57L111.582 285.013C110.632 285.528 109.522 285.663 108.477 285.392C107.431 285.12 106.527 284.462 105.948 283.55C105.368 282.638 105.157 281.541 105.355 280.479C105.553 279.417 106.147 278.47 107.017 277.828L121.233 267.93L91.6309 284.996C90.6928 285.527 89.5886 285.683 88.5401 285.433C87.4917 285.183 86.5767 284.546 85.979 283.649C85.3814 282.752 85.1454 281.662 85.3184 280.598C85.4915 279.534 86.0609 278.575 86.912 277.914L123.042 250.317L62.9504 285.013C61.9972 285.531 60.8825 285.666 59.8331 285.392C58.7837 285.117 57.8783 284.453 57.3011 283.534C56.7239 282.616 56.5183 281.512 56.726 280.447C56.9337 279.383 57.5391 278.437 58.4192 277.803L61.8837 275.439L45.2949 285.013C44.3618 285.548 43.2611 285.71 42.2133 285.468C41.1654 285.226 40.2477 284.597 39.6437 283.707C39.0397 282.818 38.794 281.733 38.9558 280.669C39.1176 279.606 39.6749 278.643 40.5163 277.973L80.2133 246.613L24.9344 278.545C24.0093 279.077 22.9184 279.243 21.8769 279.01C20.8355 278.777 19.9191 278.163 19.3085 277.288C18.6979 276.412 18.4374 275.34 18.5784 274.282C18.7195 273.225 19.2518 272.258 20.0704 271.573L55.4667 242.082L14.3616 265.805C13.4346 266.332 12.3437 266.494 11.3038 266.257C10.2638 266.02 9.35031 265.402 8.74321 264.525C8.13611 263.648 7.87946 262.576 8.02383 261.519C8.16821 260.462 8.70313 259.498 9.52321 258.816L28.2965 243.456L11.0933 253.346C10.2379 253.853 9.23087 254.041 8.25026 253.877C7.26966 253.713 6.37856 253.207 5.73441 252.45C5.08424 251.7 4.71577 250.747 4.69241 249.755C4.66904 248.763 4.99225 247.794 5.60641 247.014L19.8571 228.915L18.7733 229.547C17.7982 230.057 16.6637 230.17 15.6069 229.864C14.55 229.557 13.6524 228.854 13.1017 227.901C12.551 226.949 12.3897 225.82 12.6515 224.751C12.9133 223.682 13.578 222.756 14.5067 222.165L34.7819 210.458C35.6404 209.962 36.6446 209.782 37.622 209.946C38.5994 210.111 39.489 210.61 40.1381 211.359C40.7872 212.108 41.1552 213.06 41.1791 214.051C41.2029 215.042 40.8811 216.01 40.2688 216.789L26.0181 234.897L69.2736 209.92C70.2006 209.392 71.2915 209.231 72.3314 209.468C73.3714 209.705 74.2849 210.323 74.892 211.2C75.4991 212.077 75.7557 213.149 75.6114 214.206C75.467 215.263 74.9321 216.227 74.112 216.909L55.3387 232.269L94.1056 209.92C95.0297 209.39 96.1185 209.226 97.1579 209.458C98.1974 209.69 99.1123 210.303 99.723 211.176C100.334 212.048 100.596 213.118 100.458 214.174C100.32 215.23 99.7923 216.196 98.9781 216.883L63.6245 246.357L126.771 209.903C127.704 209.368 128.805 209.206 129.853 209.448C130.901 209.69 131.818 210.319 132.422 211.209C133.026 212.099 133.272 213.184 133.11 214.247C132.949 215.31 132.391 216.273 131.55 216.943L91.8699 248.32L158.43 209.92C159.383 209.402 160.498 209.267 161.547 209.542C162.597 209.816 163.502 210.481 164.079 211.399C164.656 212.318 164.862 213.421 164.654 214.486C164.447 215.551 163.841 216.496 162.961 217.131L159.497 219.494L176.043 209.92C176.981 209.378 178.091 209.213 179.146 209.459C180.202 209.706 181.124 210.344 181.726 211.246C182.327 212.147 182.563 213.244 182.386 214.313C182.209 215.382 181.631 216.344 180.77 217.003L144.631 244.599L204.723 209.92C205.673 209.405 206.783 209.27 207.829 209.542C208.874 209.813 209.778 210.471 210.357 211.383C210.937 212.295 211.149 213.393 210.95 214.455C210.752 215.517 210.158 216.464 209.289 217.105L195.106 226.987L224.666 209.92C225.617 209.388 226.737 209.241 227.794 209.508C228.851 209.776 229.765 210.438 230.349 211.358C230.934 212.279 231.143 213.388 230.935 214.459C230.727 215.529 230.117 216.479 229.231 217.114L215.893 226.347L244.395 209.903C245.336 209.36 246.448 209.196 247.506 209.445C248.564 209.693 249.487 210.337 250.086 211.243C250.684 212.149 250.914 213.25 250.729 214.321C250.543 215.391 249.956 216.35 249.088 217.003L215.117 242.603L323.413 180.053C324.37 179.508 325.501 179.354 326.568 179.623C327.636 179.892 328.559 180.564 329.143 181.497C329.727 182.431 329.928 183.554 329.703 184.632C329.478 185.71 328.845 186.659 327.936 187.281L286.191 215.347L332.177 188.809C333.127 188.261 334.252 188.1 335.318 188.359C336.384 188.619 337.309 189.279 337.901 190.202C338.493 191.126 338.706 192.242 338.497 193.319C338.287 194.396 337.671 195.351 336.777 195.985L285.867 232.107L342.699 199.296C343.637 198.754 344.747 198.589 345.802 198.835C346.858 199.082 347.78 199.72 348.382 200.622C348.983 201.523 349.219 202.62 349.042 203.689C348.864 204.758 348.287 205.72 347.426 206.379L297.079 244.958L354.953 211.558C355.899 211.028 357.012 210.878 358.065 211.139C359.118 211.4 360.032 212.052 360.621 212.963C361.211 213.874 361.431 214.975 361.237 216.043C361.043 217.11 360.45 218.064 359.578 218.709L317.073 249.353L364.919 221.73C365.882 221.154 367.033 220.98 368.123 221.245C369.212 221.511 370.154 222.196 370.743 223.15C371.332 224.105 371.521 225.254 371.27 226.347C371.018 227.44 370.346 228.39 369.4 228.992L363.776 232.695L369.826 229.197C370.779 228.65 371.905 228.492 372.971 228.755C374.037 229.018 374.961 229.681 375.55 230.608C376.14 231.535 376.349 232.653 376.135 233.73C375.92 234.807 375.299 235.76 374.4 236.39L325.197 270.677L373.043 243.055C374.002 242.509 375.135 242.357 376.204 242.629C377.274 242.901 378.196 243.576 378.778 244.513C379.36 245.451 379.556 246.577 379.325 247.656C379.094 248.735 378.455 249.682 377.54 250.3L355.465 265.045L370.654 256.282C371.61 255.727 372.744 255.565 373.817 255.829C374.89 256.094 375.819 256.765 376.407 257.701C376.996 258.636 377.198 259.764 376.972 260.846C376.745 261.928 376.108 262.88 375.194 263.501L346.675 283.008L349.56 281.353C350.495 280.822 351.596 280.663 352.642 280.909C353.689 281.155 354.604 281.788 355.205 282.679C355.806 283.571 356.047 284.657 355.882 285.719C355.716 286.782 355.156 287.743 354.313 288.41L313.873 319.804C314.693 320.016 315.431 320.467 315.994 321.1C316.557 321.733 316.918 322.519 317.033 323.358C317.147 324.197 317.009 325.052 316.636 325.812C316.264 326.573 315.673 327.205 314.94 327.629L271.206 352.879C270.558 353.253 269.822 353.451 269.073 353.451Z" fill="#FB7676"/>
<path d="M507.614 59.0507C503.066 1.34826 452.779 3.41333 408.977 3.712H198.562C143.095 9.68533 36.7701 -22.2805 8.65276 39.2192C-0.0512411 68.2667 -14.4555 159.94 41.1989 141.355C57.2928 135.62 55.3472 125.21 55.3472 109.363C55.3472 82.2699 50.449 60.1771 80.2986 56.0213C104.619 52.608 132.122 56.0213 156.646 56.0213H370.278C403.678 56.0213 452.309 42.2997 456.653 84.1813C463.053 145.92 456.653 211.704 456.653 273.749C454.195 328.422 460.919 385.212 456.653 439.381C447.863 470.955 365.653 455.996 340.181 455.996C251.102 454.289 160.486 458.624 71.9786 455.996C28.2026 442.556 91.2554 355.081 17.9968 370.662C-0.136576 376.943 4.34343 393.617 4.34343 410.368C4.34343 460.092 6.56209 506.795 68.0704 508.297C189.491 509.67 311.014 507.571 432.444 508.297C471.936 508.297 504.124 494.421 507.537 450.022C517.325 320.981 505.975 188.433 507.614 59.0507ZM449.929 498.645C338.833 503.612 226.125 495.821 114.731 498.645C54.7584 503.467 8.53329 496.998 12.6805 425.899C12.6805 418.807 8.14929 390.059 12.6805 384.657C21.9562 373.564 42.3594 380.433 47.0528 389.888C56.0896 408.09 37.9989 437.82 50.2784 456.175C64.5376 477.508 129.553 465.621 149.342 465.621H352.427C444.715 471.313 479.044 487.066 464.956 374.502V180.42C464.956 146.167 473.131 100.506 464.956 66.9867C457.105 34.8501 408.636 46.3787 383.326 46.3787H190.532C149.444 50.5685 37.1712 16.7253 47.0528 86.8949C47.0528 93.8923 51.7802 121.609 47.0528 127.292C-6.66458 165.052 -3.05497 17.0667 62.0714 13.3632C154.837 11.9552 248.337 14.2165 341.367 13.3632C388.471 13.3632 492.288 -6.04161 499.319 61.4144V373.137C499.319 416.546 514.014 490.385 449.929 498.645Z" fill="#262626"/>
<path d="M235.802 209.417H43.136C32.8848 209.471 23.0479 213.47 15.6661 220.583C8.28432 227.696 3.92414 237.378 3.49011 247.62C3.66062 257.758 7.81899 267.421 15.0642 274.514C22.3094 281.608 32.0579 285.561 42.1973 285.517C112.205 285.585 182.226 285.554 252.262 285.423C204.476 315.136 258.5 380.22 300.501 342.511C317.133 325.99 333.781 309.231 350.404 292.642C390.101 260.378 389.717 233.318 350.097 201.173C321.502 177.126 288.657 117.291 246.665 151.475C242.497 155.177 239.213 159.766 237.054 164.904C234.894 170.042 233.914 175.6 234.186 181.167C234.458 186.734 235.974 192.169 238.624 197.073C241.274 201.977 244.99 206.224 249.498 209.502C244.907 209.51 240.35 209.417 235.802 209.417ZM250.308 160C278.665 128.213 306.978 173.918 327.484 192.094C407.1 250.812 344.832 289.715 293.828 337.323C264.482 364.109 226.261 321.015 253.056 293.385C256.333 289.212 270.976 279.953 259.354 277.683H43.136C5.87091 275.678 4.08745 219.307 42.1973 217.25H258.432C261.922 217.25 265.847 213.521 262.75 210.423C247.671 198.281 236.476 177.545 250.325 160H250.308Z" fill="#262626"/>
</svg>
