<svg id="Icons" height="512" viewBox="0 0 60 60" width="512" xmlns="http://www.w3.org/2000/svg"><g fill="#fdc70e"><path d="m48.5 51.47a.5.5 0 0 1 -.25-.933l6.455-3.726a.5.5 0 0 1 .618.771l-1.276 1.386a.5.5 0 0 1 .267.932l-2.468 1.425a.5.5 0 0 1 -.618-.771l1.142-1.241-3.62 2.087a.5.5 0 0 1 -.25.07z"/><path d="m51.5 43.47a.5.5 0 0 1 -.25-.933l5.371-3.1a.5.5 0 1 1 .5.865l-5.371 3.098a.5.5 0 0 1 -.25.07z"/><path d="m53.5 35.47a.5.5 0 0 1 -.25-.933l5.371-3.1a.5.5 0 1 1 .5.865l-5.371 3.098a.5.5 0 0 1 -.25.07z"/><path d="m31.332 59.47a.5.5 0 0 1 -.277-.916l9.6-6.416-12.571 7.262a.5.5 0 0 1 -.518-.855l3.622-2.289-5.2 3a.5.5 0 0 1 -.522-.852l15.523-10.104-17.896 10.33a.5.5 0 0 1 -.518-.855l13.225-8.386-14.7 8.486a.5.5 0 0 1 -.512-.858l3.751-2.306-4.439 2.562a.5.5 0 0 1 -.518-.854l14.743-9.391-15.895 9.177a.5.5 0 0 1 -.515-.856l17.011-10.643-18.557 10.713a.5.5 0 0 1 -.513-.857l14.3-8.846-14.678 8.474a.5.5 0 0 1 -.51-.859l8.1-4.95-7.592 4.383a.5.5 0 0 1 -.514-.857l15.707-9.8-15.194 8.772a.5.5 0 0 1 -.516-.856l15.3-9.64-14.786 8.535a.5.5 0 0 1 -.515-.856l11.462-7.2-10.949 6.32a.5.5 0 0 1 -.522-.852l14.49-9.422-13.97 8.066a.5.5 0 0 1 -.526-.851l12.44-8.2-11.916 6.883a.5.5 0 0 1 -.527-.85l9.55-6.322-9.025 5.211a.5.5 0 0 1 -.53-.848l9.265-6.246-8.738 5.049a.5.5 0 0 1 -.522-.853l5.671-3.67-5.15 2.973a.5.5 0 0 1 -.52-.853l5.183-3.322-4.665 2.693a.5.5 0 0 1 -.516-.857l1.225-.768-.71.409a.5.5 0 0 1 -.523-.853l8.529-5.532-8.008 4.623a.5.5 0 0 1 -.525-.85l10.8-7.1-10.277 5.931a.5.5 0 0 1 -.578-.809l2.024-1.762-1.445.834a.5.5 0 0 1 -.727-.584l.223-.7a.494.494 0 0 1 -.181-.182.5.5 0 0 1 .183-.682l.5-.289a.5.5 0 0 1 .727.584l-.111.347 4.824-2.785a.5.5 0 0 1 .579.81l-2.023 1.759 20.731-11.97a.5.5 0 0 1 .525.85l-10.8 7.1 9.738-5.622a.5.5 0 0 1 .523.853l-8.533 5.535 7.323-4.228a.5.5 0 0 1 .515.857l-1.24.778.061-.034a.5.5 0 0 1 .519.853l-5.173 3.316 3.5-2.022a.5.5 0 0 1 .522.853l-5.67 3.669 4.185-2.415a.5.5 0 0 1 .529.847l-9.27 6.247 10.709-6.179a.5.5 0 0 1 .527.849l-9.546 6.32 12.417-7.169a.5.5 0 0 1 .525.85l-12.442 8.2 15.676-9.05a.5.5 0 0 1 .522.851l-14.486 9.417 17.789-10.268a.5.5 0 0 1 .515.856l-11.458 7.2 13.952-8.056a.5.5 0 0 1 .516.855l-15.301 9.645 18.122-10.467a.5.5 0 0 1 .515.856l-15.706 9.8 17.086-9.864a.5.5 0 0 1 .511.859l-8.112 4.956 8.472-4.89a.5.5 0 0 1 .513.857l-14.307 8.85 14.386-8.306a.5.5 0 0 1 .516.856l-17.009 10.642 11.381-6.57a.5.5 0 0 1 .518.854l-14.746 9.393 16.116-9.3a.5.5 0 0 1 .512.858l-3.751 2.306 3.965-2.29a.5.5 0 0 1 .517.855l-13.213 8.375 13.25-7.649a.5.5 0 0 1 .522.852l-15.536 10.114 10.622-6.132a.5.5 0 0 1 .518.856l-3.611 2.283 4.211-2.431a.5.5 0 0 1 .528.849l-9.6 6.414 10.09-5.825a.5.5 0 0 1 .531.846l-8.5 5.767 1.806-1.042a.5.5 0 0 1 .539.841l-2.4 1.7 3.429-1.973a.5.5 0 0 1 .54.84l-1.687 1.2 2.1-1.213a.5.5 0 0 1 .539.841l-.425.3.448-.258a.5.5 0 0 1 .59.8l-2.833 2.646 2.6-1.5a.5.5 0 0 1 .591.8l-.911.848a.535.535 0 0 1 .452.25.5.5 0 0 1 -.183.683l-3.4 1.964a.5.5 0 0 1 -.591-.8l.726-.675-2.574 1.474a.5.5 0 0 1 -.59-.8l2.832-2.643-5.958 3.443a.5.5 0 0 1 -.539-.84l.426-.3-1.987 1.14a.5.5 0 0 1 -.54-.839l1.692-1.2-3.536 2.039a.5.5 0 0 1 -.539-.84l2.4-1.7-4.4 2.542a.5.5 0 0 1 -.531-.846l8.494-5.767-11.458 6.611a.5.5 0 0 1 -.25.07z"/><path d="m26.858 21.384a.5.5 0 0 1 -.28-.914l2.514-1.7a.5.5 0 0 1 -.48-.87l4.329-3.148-2.462 1.418a.5.5 0 0 1 -.536-.843l1.107-.771a.5.5 0 0 1 -.519-.852l1.154-.813-.208.119a.5.5 0 0 1 -.554-.83l3.362-2.571-2.425 1.4a.5.5 0 0 1 -.569-.818l3.826-3.18-2.989 1.725a.5.5 0 0 1 -.57-.817l2.52-2.1-1.831 1.06a.5.5 0 0 1 -.579-.809l1.713-1.5-1.081.63a.5.5 0 0 1 -.658-.721l1.307-1.85-.068.039a.5.5 0 1 1 -.5-.865l2.039-1.184a.5.5 0 0 1 .658.722l-1.307 1.849 3.52-2.031a.5.5 0 0 1 .579.809l-1.71 1.5 2.486-1.435a.5.5 0 0 1 .57.818l-2.516 2.094 3-1.735a.5.5 0 0 1 .569.817l-3.825 3.18 4.036-2.329a.5.5 0 0 1 .554.83l-3.363 2.571 3.047-1.758a.5.5 0 0 1 .538.84l-1.156.816.607-.35a.5.5 0 0 1 .536.843l-1.1.765.52-.3a.5.5 0 0 1 .544.837l-4.326 3.148 3.668-2.12a.5.5 0 0 1 .53.847l-2.456 1.665 1.786-1.032a.5.5 0 0 1 .5.866l-13.8 7.967a.5.5 0 0 1 -.251.071z"/></g><path d="m4.247 57.47a.5.5 0 0 1 -.3-.9l6.381-4.842-8.59 4.96a.5.5 0 0 1 -.538-.838l7.654-5.55-7.574 4.373a.5.5 0 0 1 -.537-.842l6.723-4.723-6.186 3.572a.5.5 0 0 1 -.529-.847l4.093-2.762-3.564 2.057a.5.5 0 0 1 -.54-.84l7.489-5.344-6.949 4.011a.5.5 0 0 1 -.542-.839l7.862-5.655-7.32 4.223a.5.5 0 0 1 -.523-.852l.483-.314a.5.5 0 0 1 -.485-.872l1.991-1.314-1.466.846a.5.5 0 0 1 -.53-.847l4.16-2.81-3.63 2.1a.5.5 0 0 1 -.53-.846l4.255-2.877-3.725 2.146a.5.5 0 0 1 -.537-.844l6.525-4.566-5.988 3.459a.5.5 0 0 1 -.541-.839l7.667-5.495-7.126 4.114a.5.5 0 0 1 -.532-.846l4.772-3.264-4.24 2.446a.5.5 0 0 1 -.539-.841l4.965-3.516-4.426 2.554a.5.5 0 0 1 -.534-.843l1.419-.983-.885.511a.5.5 0 0 1 -.555-.828l2.713-2.1-2.158 1.245a.5.5 0 0 1 -.654-.138.5.5 0 0 1 .074-.67l1.954-1.76-1.374.793a.5.5 0 0 1 -.676-.7l.916-1.494a.5.5 0 0 1 -.455-.888l1.657-.951a.492.492 0 0 1 .608.084.5.5 0 0 1 .068.61l-.913 1.488 3.786-2.182a.5.5 0 0 1 .584.8l-1.955 1.767 4.447-2.567a.5.5 0 0 1 .555.828l-2.713 2.1 5.072-2.928a.5.5 0 0 1 .534.843l-1.419.982 3.163-1.825a.5.5 0 0 1 .539.84l-4.966 3.518 6.2-3.581a.5.5 0 0 1 .533.846l-4.765 3.26 4.637-2.676a.5.5 0 0 1 .541.839l-7.667 5.5 7.126-4.115a.5.5 0 0 1 .537.842l-6.525 4.567 5.988-3.457a.5.5 0 0 1 .53.846l-4.247 2.871 3.725-2.15a.5.5 0 0 1 .53.847l-4.173 2.813 3.638-2.1a.5.5 0 0 1 .525.85l-1.98 1.308 1.455-.84a.5.5 0 0 1 .523.851l-.483.315a.5.5 0 0 1 .5.86l-7.86 5.655 7.315-4.222a.5.5 0 0 1 .54.84l-7.484 5.343 6.949-4.01a.5.5 0 0 1 .529.846l-4.093 2.762 3.564-2.057a.5.5 0 0 1 .537.842l-6.723 4.723 6.186-3.576a.5.5 0 0 1 .543.838l-7.663 5.554 7.116-4.108a.5.5 0 0 1 .551.831l-6.383 4.844 5.832-3.367a.5.5 0 0 1 .559.826l-3.886 3.067 3.327-1.92a.5.5 0 0 1 .564.821l-1.7 1.377 1.135-.655a.5.5 0 0 1 .627.761l-1.362 1.568.737-.425a.5.5 0 0 1 .5.866l-3.334 1.922a.5.5 0 0 1 -.627-.76l1.366-1.569-4.035 2.329a.5.5 0 0 1 -.565-.821l1.7-1.376-3.807 2.197a.5.5 0 0 1 -.56-.825l3.888-3.069-6.743 3.894a.493.493 0 0 1 -.253.07z" fill="#2167d8"/><path d="m2.543 57.342c4.676-.652 10.725 1.522 14.7-1.193 7.048 5.264 16.648 2.871 24.867 3.41 5.353 1.049 14.692-1.567 8.919-8.075 4.239.089 6.484-5.788 2.778-8.14 3.8-.308 5.387-5.855 2.094-7.952a4.673 4.673 0 0 0 3.778-5.192c-2.033-7.034-16.294-2.568-22.163-3.763-.889-.248-.434-1.007-.112-1.517 2.787-4.1 3.874-9.1 4.2-13.98 2.007-5.773-4.186-14.266-9.711-8.826-1.343 11.2-2.045 19.51-14.312 24.031-2.049-3.136-7.45-.833-10.716-1.5-2.323 0-6.516-.626-6.587 2.776 1.016 5.001-2.562 30.05 2.265 29.921zm28.957-43.152c2.033-4.109-1.107-16.6 6.837-11.339 3.949 4.765 1.312 12.442-.187 17.842-.367 2.159-3.245 3.965-2.385 6.137 4.5 3.423 24.351-4.042 22.227 5.607-.91 2.108-3.015 2.005-4.931 2.005-.673 0-1.185 1.073-.3 1.109a3.541 3.541 0 0 1 3.039 5.249c-1.056 1.784-2.951 1.638-4.738 1.638-.673 0-1.185 1.073-.3 1.109 3.079.126 4.866 4.1 2.241 6.172-.591 1.257-7.6.112-5.241 1.829 4.668.091 4.507 7.282-.268 6.89-9.764-.962-21.479 2.859-29.752-3.715v-27.446c6.096-2.627 11.704-6.445 13.758-13.087zm-29.776 12.663c.27-3.054 10.1-1.036 12.741-1.506 4.047.757.811 24.675 1.808 29.73-.384 3.294-10.009.875-12.845 1.576-3.742-.109-.856-25.182-1.704-29.8z" fill="#262626"/></svg>