<svg width="26" height="28" viewBox="0 0 26 28" fill="none" xmlns="http://www.w3.org/2000/svg">
<g clip-path="url(#clip0_25_132)">
<path d="M13.1182 0.279594C7.94611 0.279594 3.7527 4.81033 3.7527 10.3985C3.7527 12.5989 4.42038 14.6181 5.5302 16.2717C5.5501 16.3113 5.55322 16.3556 5.57585 16.3935L11.8195 26.5124C12.1091 26.9817 12.5969 27.2633 13.1182 27.2633C13.6396 27.2633 14.1274 26.9817 14.4169 26.5124L20.6606 16.3935C20.6836 16.3556 20.6863 16.3113 20.7062 16.2717C21.8161 14.6181 22.4837 12.5989 22.4837 10.3985C22.4837 4.81033 18.2903 0.279594 13.1182 0.279594ZM13.1182 13.7714C11.3942 13.7714 9.99638 12.2612 9.99638 10.3985C9.99638 8.53577 11.3942 7.02552 13.1182 7.02552C14.8423 7.02552 16.2401 8.53577 16.2401 10.3985C16.2401 12.2612 14.8423 13.7714 13.1182 13.7714Z" fill="#ED5959"/>
</g>
<defs>
<clipPath id="clip0_25_132">
<rect width="24.9747" height="26.9837" fill="white" transform="translate(0.630859 0.279594)"/>
</clipPath>
</defs>
</svg>
