<svg id="Icons" viewBox="0 0 60 60" xmlns="http://www.w3.org/2000/svg"><path d="m39.336 26.498c-.148 0-.295-.066-.393-.19-.153-.194-.142-.473.029-.653l1.29-1.362-.982.567c-.216.126-.495.07-.647-.13s-.133-.481.046-.658l1.183-1.167-.581.335c-.218.126-.498.07-.648-.131-.152-.201-.131-.484.05-.66l1.067-1.037-.469.271c-.215.127-.492.072-.646-.127-.152-.199-.135-.479.041-.658l1.315-1.326-.71.41c-.215.127-.492.073-.646-.129-.153-.199-.135-.48.043-.657l1.24-1.237-.637.367c-.219.13-.503.069-.654-.139-.15-.207-.12-.494.069-.665l.469-.423c-.193.057-.411-.014-.537-.186-.15-.206-.122-.492.065-.665l.54-.494c-.204.095-.454.033-.598-.15-.152-.197-.137-.478.038-.656l1.148-1.174-.557.321c-.214.127-.493.072-.646-.128-.152-.198-.135-.479.042-.657l.743-.747-.288.166c-.204.119-.463.078-.622-.099-.157-.175-.171-.438-.032-.628l1.444-1.984-1.389.802c-.214.125-.487.073-.642-.122-.154-.193-.143-.472.026-.652l.555-.592-.5.288c-.209.121-.475.076-.631-.108s-.159-.454-.006-.641l.869-1.064-1.091.63c-.198.118-.454.08-.613-.089s-.182-.425-.055-.618l1.068-1.629-1.786 1.031c-.205.12-.469.077-.626-.104-.157-.18-.166-.445-.021-.634l.869-1.128-1.67.963c-.214.127-.492.072-.646-.129-.153-.198-.135-.48.043-.657l.197-.197-.827.478c-.21.123-.478.075-.636-.114-.155-.188-.152-.46.007-.646l.789-.913-2.188 1.264c-.213.125-.486.072-.641-.12-.154-.193-.145-.471.023-.652l.882-.952-3.592 2.073c-.24.137-.546.056-.683-.183-.139-.239-.057-.545.183-.683l6.45-3.725c.212-.124.485-.072.641.12.154.193.145.471-.023.652l-.881.952 1.891-1.092c.21-.123.479-.075.636.114.155.188.152.46-.007.646l-.789.913 1.564-.903c.216-.126.493-.07.646.128.153.199.135.481-.043.658l-.201.201.561-.323c.207-.121.47-.077.626.104.157.18.166.445.021.634l-.867 1.126 1.422-.82c.2-.116.455-.079.613.089.159.169.182.425.055.618l-1.068 1.628 1.635-.943c.207-.123.475-.077.631.108s.159.454.006.641l-.87 1.064 1.052-.606c.214-.125.488-.073.642.122.154.193.143.472-.026.652l-.555.592.514-.296c.203-.12.464-.077.622.099.157.175.171.438.032.628l-1.444 1.984 1.504-.868c.216-.126.493-.07.646.128.152.198.135.479-.042.657l-.743.747.455-.263c.214-.126.491-.073.645.126.153.197.138.478-.037.656l-1.15 1.176.748-.432c.219-.127.502-.069.653.137.15.206.122.492-.065.665l-.529.484c.217-.113.488-.051.633.15.15.207.12.494-.069.665l-.467.421c.191-.055.404.012.531.178.153.199.135.48-.043.657l-1.24 1.237.642-.37c.215-.126.491-.07.646.127.152.199.135.479-.041.658l-1.316 1.326.715-.412c.216-.128.497-.071.648.131.152.201.131.484-.05.66l-1.067 1.037.473-.272c.215-.127.494-.073.647.13.152.2.133.481-.046.658l-1.183 1.168.585-.338c.213-.126.489-.073.643.123.153.195.142.474-.029.653l-1.289 1.36.681-.393c.194-.115.439-.081.6.075.161.157.196.402.088.599l-.379.687c.152.018.295.104.377.247.139.239.057.545-.183.683l-1.158.669c-.194.115-.44.081-.6-.075-.161-.157-.196-.402-.088-.599l.287-.521-2.104 1.215c-.078.046-.164.067-.25.067z" fill="#1b3f6b"/><path d="m17.523 26.496c-.152 0-.301-.069-.398-.198-.152-.201-.131-.484.05-.66l.587-.57-.481.277c-.215.127-.492.072-.646-.128-.152-.198-.135-.479.042-.657l1.314-1.323-.71.409c-.213.125-.485.073-.64-.119s-.146-.469.021-.65l1.773-1.942-1.154.666c-.213.125-.486.073-.641-.12s-.145-.47.022-.651l1.729-1.876-1.11.641c-.209.124-.479.076-.636-.114-.155-.188-.152-.46.007-.646l2.01-2.327-1.381.797c-.217.127-.498.07-.65-.133-.151-.203-.128-.487.056-.662l.954-.908-.359.207c-.218.129-.499.07-.652-.136-.151-.205-.124-.491.062-.664l1.066-.987-.472.272c-.218.127-.5.07-.652-.136-.151-.204-.124-.49.062-.663l2.705-2.514-1.899 1.097c-.229.134-.525.062-.669-.16-.146-.224-.09-.521.125-.677l6.706-4.867-5.404 3.12c-.23.136-.525.062-.671-.162-.145-.226-.086-.523.132-.678l2.609-1.854-.931.537c-.226.133-.52.065-.665-.153-.146-.219-.1-.513.108-.675l2.361-1.832c-.072-.042-.135-.104-.18-.182-.139-.239-.057-.545.183-.683l4.374-2.525c.226-.133.52-.064.665.153.146.219.1.513-.108.675l-.896.695 3.788-2.187c.232-.135.526-.062.671.162.145.226.086.523-.132.678l-2.601 1.849 4.502-2.6c.228-.135.525-.063.669.16.146.224.09.521-.125.677l-8.766 6.362c.052.032.099.074.138.127.151.204.124.49-.062.663l-2.705 2.514.504-.291c.219-.128.501-.069.652.136s.124.491-.062.664l-1.067.987.13-.074c.217-.129.498-.07.65.133.151.203.128.487-.056.662l-.955.909.309-.178c.21-.124.478-.076.636.114.155.188.152.46-.007.646l-2.011 2.327 1.388-.8c.212-.125.486-.072.641.12.154.193.145.47-.022.651l-1.727 1.874 1.113-.643c.213-.125.485-.072.64.119.154.192.146.469-.021.65l-1.773 1.942 1.159-.669c.216-.126.493-.071.646.128.152.198.135.479-.042.657l-1.313 1.322.713-.411c.216-.127.495-.071.648.131.152.201.131.484-.05.66l-.591.574c.172-.096.389-.084.548.037.16.121.232.326.183.521l-.28 1.108c.095.041.178.111.232.208.139.239.057.545-.183.683l-.506.292c-.175.102-.391.088-.552-.034-.16-.121-.232-.326-.183-.521l.211-.833-2.446 1.411c-.078.046-.164.067-.25.067z" fill="#1b3f6b"/><path d="m20.973 59.47c-.169 0-.334-.086-.428-.241-.141-.233-.069-.536.16-.682l6.125-3.875-8.193 4.73c-.235.139-.536.06-.678-.174-.141-.233-.069-.536.161-.682l8.041-5.073-10.045 5.799c-.235.137-.535.061-.677-.172s-.072-.534.156-.682l14.691-9.455-16.163 9.331c-.238.137-.54.059-.68-.177-.14-.234-.065-.538.167-.682l4.27-2.63-4.576 2.642c-.238.137-.54.059-.68-.177s-.064-.539.168-.682l2.703-1.658-2.752 1.589c-.235.139-.536.06-.678-.174-.141-.233-.069-.536.161-.682l13.7-8.637-13.621 7.864c-.237.138-.539.058-.679-.175-.141-.234-.067-.537.164-.682l11.254-7.025-10.766 6.216c-.235.138-.536.061-.678-.175-.142-.233-.069-.536.161-.681l13.641-8.582-13.124 7.577c-.235.139-.537.061-.679-.175-.141-.233-.068-.536.163-.682l13.307-8.361-12.791 7.385c-.237.137-.539.058-.679-.175-.141-.234-.067-.537.164-.682l11.247-7.023-10.732 6.196c-.237.138-.541.057-.68-.177-.14-.235-.064-.54.169-.683l1.236-.755-.726.418c-.235.139-.536.061-.678-.174-.141-.233-.069-.536.16-.682l13.361-8.445-12.844 7.415c-.235.138-.535.061-.677-.172-.142-.231-.072-.533.155-.681l15.782-10.197-15.261 8.811c-.237.137-.539.058-.679-.175-.141-.234-.067-.537.164-.682l6.03-3.766-5.516 3.184c-.237.137-.539.058-.679-.176-.141-.234-.067-.538.165-.682l1.776-1.103-1.263.729c-.235.138-.536.06-.678-.173-.141-.232-.07-.535.159-.682l6.316-4.021-5.798 3.347c-.235.137-.535.06-.676-.171-.142-.23-.074-.532.152-.681l7.501-4.897-6.978 4.028c-.232.136-.53.062-.674-.167-.143-.228-.08-.527.143-.679l8.197-5.585-7.666 4.426c-.235.136-.533.061-.676-.171-.142-.23-.074-.531.151-.68l2.168-1.42-1.644.948c-.235.135-.531.06-.674-.168-.143-.229-.079-.529.145-.68l2.572-1.731-2.043 1.179c-.228.136-.522.062-.668-.157-.146-.222-.094-.518.119-.676l4.473-3.34-3.924 2.266c-.225.132-.514.065-.662-.149-.147-.215-.105-.508.098-.672l3.112-2.522-2.528 1.459c-.21.123-.48.074-.636-.115-.155-.188-.151-.462.009-.646l1.967-2.257-.085.049c-.241.138-.546.056-.683-.183-.139-.239-.057-.545.183-.683l2.683-1.548c.211-.123.48-.074.636.115.155.188.151.462-.009.646l-1.966 2.255 5.414-3.125c.225-.132.514-.066.662.149.147.215.105.508-.098.672l-3.112 2.522 5.793-3.344c.229-.133.523-.062.668.157.146.222.094.518-.119.676l-4.472 3.338 7.226-4.171c.233-.138.531-.061.674.168s.079.529-.145.68l-2.578 1.735 4.476-2.583c.234-.137.533-.06.676.171.142.23.074.531-.151.68l-2.16 1.415 3.925-2.266c.234-.135.53-.062.674.167.143.228.08.527-.143.679l-8.201 5.587 11.144-6.433c.235-.137.535-.06.676.171.142.23.074.532-.152.681l-7.497 4.895 9.953-5.746c.237-.136.538-.059.678.173.141.233.07.535-.159.682l-6.313 4.021 8.443-4.875c.236-.139.538-.06.679.176.141.234.067.538-.165.682l-1.787 1.109 3.407-1.967c.236-.139.537-.059.679.175.141.234.067.537-.164.682l-6.021 3.761 7.539-4.353c.234-.137.535-.061.677.172.142.231.072.533-.155.681l-15.785 10.199 17.144-9.897c.237-.137.537-.06.678.174s.069.536-.16.682l-13.348 8.437 13.799-7.967c.236-.139.54-.059.68.177s.064.54-.169.683l-1.267.773 1.123-.647c.237-.139.537-.059.679.175.141.234.067.537-.164.682l-11.242 7.021 10.888-6.286c.237-.136.539-.06.679.175.141.233.068.536-.163.682l-13.307 8.361 12.791-7.385c.237-.136.537-.06.678.175.142.233.069.536-.161.681l-13.641 8.582 13.124-7.577c.236-.139.537-.059.679.175.141.234.067.537-.164.682l-11.261 7.029 10.746-6.204c.237-.137.537-.059.678.174s.069.536-.161.682l-13.693 8.632 13.177-7.607c.236-.138.538-.06.68.177.14.235.064.539-.168.682l-2.719 1.667 2.207-1.273c.236-.139.538-.06.68.177.14.234.065.538-.167.682l-4.261 2.625 3.748-2.164c.235-.137.535-.061.677.172s.072.534-.156.682l-14.692 9.456 14.172-8.182c.237-.136.537-.06.678.174s.069.536-.161.682l-8.053 5.081 7.536-4.351c.237-.136.537-.059.678.174s.069.536-.16.682l-6.129 3.877 5.611-3.239c.233-.137.531-.062.675.169.143.229.077.53-.148.68l-10.195 6.773 9.669-5.582c.235-.137.533-.06.676.171.142.23.074.531-.151.68l-5.811 3.806 5.286-3.052c.235-.137.534-.061.676.171.142.23.074.532-.152.681l-2.891 1.885 2.367-1.366c.234-.136.53-.061.673.166.144.227.082.526-.139.679l-5.033 3.468 4.499-2.597c.229-.133.524-.063.669.16.146.223.091.52-.124.677l-4.594 3.354 4.049-2.338c.227-.135.52-.064.666.156s.097.515-.113.675l-2.906 2.207 2.354-1.358c.227-.135.52-.064.667.156.146.22.096.516-.115.675l-.667.506.013-.007c.216-.126.493-.07.646.128.152.198.135.479-.042.657l-1.475 1.485c.154.016.298.104.381.247.139.239.057.545-.183.683l-2.683 1.548c-.214.127-.492.072-.646-.128-.152-.198-.135-.479.042-.657l1.217-1.226-3.674 2.12c-.229.133-.52.063-.667-.156-.146-.22-.096-.516.115-.675l.661-.501-2.309 1.332c-.229.133-.521.063-.666-.156-.146-.22-.097-.515.113-.675l2.908-2.209-5.266 3.04c-.227.134-.523.065-.669-.16-.146-.223-.091-.52.124-.676l4.596-3.355-7.262 4.191c-.233.136-.529.062-.673-.166-.144-.227-.082-.526.139-.679l5.035-3.47-7.474 4.314c-.235.136-.535.06-.676-.171-.142-.23-.074-.532.152-.681l2.878-1.876-4.726 2.728c-.234.136-.534.06-.676-.171s-.074-.531.151-.68l5.816-3.81-8.072 4.66c-.235.136-.532.061-.675-.169s-.077-.53.148-.68l10.197-6.774-13.205 7.623c-.079.046-.165.067-.25.067z" fill="#f4c811"/><path d="m30.33 49.444c-.137 0-.271-.057-.369-.163-.158-.173-.175-.434-.039-.625l1.248-1.768-2.953 1.704c-.214.126-.49.071-.644-.124-.153-.196-.14-.476.033-.655l2.064-2.145-2.327 1.343c-.218.128-.5.069-.652-.136-.151-.204-.124-.49.062-.663l1.806-1.679-1.071.618c-.227.133-.52.064-.665-.153-.146-.219-.1-.514.108-.675l.683-.529c-.173.026-.369-.051-.48-.211-.147-.215-.105-.508.097-.672l1.57-1.278-.63.363c-.225.132-.513.065-.661-.148s-.107-.507.095-.671l1.078-.882-1.371.791c-.22.131-.505.07-.657-.143-.149-.209-.115-.498.079-.667l2.066-1.798-2.272 1.312c-.227.133-.518.064-.665-.153-.146-.218-.1-.512.107-.674l.303-.235c-.203.1-.449.053-.601-.12-.156-.181-.163-.447-.016-.636l1.687-2.157-.145.083c-.239.139-.546.056-.683-.183-.139-.239-.057-.545.183-.683l2.376-1.372c.206-.12.47-.076.627.104s.164.447.017.636l-1.688 2.158 3.944-2.276c.227-.133.518-.064.665.153.146.218.1.512-.107.674l-.292.228.549-.316c.221-.129.506-.069.657.143.149.209.115.498-.079.667l-2.066 1.798 2.222-1.282c.226-.132.514-.066.661.148.148.214.107.507-.095.671l-1.081.885.709-.409c.225-.132.514-.065.662.148.147.215.105.508-.097.672l-1.565 1.274.538-.311c.227-.133.519-.064.665.153.146.219.1.514-.108.675l-1.507 1.168c.09.033.172.092.232.174.151.204.124.49-.062.663l-1.806 1.679 1.563-.902c.214-.126.49-.071.644.124.153.196.14.476-.033.655l-2.065 2.146 1.864-1.075c.202-.119.46-.077.619.096.158.173.175.434.039.625l-1.248 1.768.084-.048c.239-.14.546-.057.683.183.139.239.057.545-.183.683l-2.056 1.187c-.078.046-.164.067-.25.067z" fill="#e08d14"/><g fill="#262626"><path d="m48.727 32.363c.306-4.004.096-9.352-4.991-9.747 4.662-29.742-32.103-29.428-27.473.064-8.961 1.574-3.641 18.266-4.992 25.1.217 3.941-1.223 9.571 3.514 11.313 36.397-.327 34.436 8.254 33.941-26.73zm-26.588-27.976c13.974-9.137 22.332 4.937 20.126 18.156-.844-.016-1.688-.029-2.533-.032-.318-5.252 1.429-11.706-3.132-15.582-12.504-7.892-17.986 4.38-16.331 15.623-.844.002-1.689-.001-2.533.006.129-6.299-1.138-13.695 4.403-18.17zm8.885 18.171c-3.097 0-6.194-.012-9.292-.01-1.204-9.047 1.656-21.983 13.28-15.209 4.7 3.611 2.942 10.05 3.257 15.175-2.416.009-4.834.044-7.246.044zm16.238 31.866c.466 7.571-22.981 2.941-28.816 4.136-4.137.448-6.397-3.164-5.719-7.002-.177-35.711-4.053-27.113 29.742-28.12 3.269-.083 5.086 2.919 4.803 5.931-.126 8.346.229 16.722-.011 25.056z"/><path d="m34.482 36.43c-2.859-7.086-13.638.399-7.309 5.229-4.41 10.762 9.99 10.123 5.666-.187 1.543-1.158 2.331-3.162 1.643-5.041zm-4.533 12.072c-3.941-.777-1.132-5.171-1.443-7.473-2.858-1.563-2.037-6.615 1.437-6.543 3.443.123 4.432 4.892 1.649 6.65-.736 2.101 2.665 7.155-1.643 7.366z"/></g></svg>