<svg width="512" height="512" viewBox="0 0 512 512" fill="none" xmlns="http://www.w3.org/2000/svg">
<g clip-path="url(#clip0_11_16)">
<path d="M52.6592 447.744C51.7249 447.746 50.8157 447.442 50.0712 446.877C49.3267 446.313 48.7881 445.519 48.5381 444.619C48.2881 443.719 48.3405 442.761 48.6872 441.894C49.034 441.026 49.656 440.296 50.4576 439.817L106.078 406.315L36.9579 446.242C35.9873 446.77 34.8499 446.901 33.7849 446.607C32.7199 446.313 31.8104 445.618 31.2477 444.667C30.685 443.716 30.513 442.584 30.7679 441.509C31.0228 440.434 31.6847 439.5 32.6144 438.903L123.733 383.889L25.1307 440.815C24.1595 441.335 23.0247 441.46 21.9638 441.162C20.903 440.865 19.9984 440.168 19.4393 439.219C18.8802 438.269 18.7101 437.141 18.9645 436.069C19.219 434.997 19.8782 434.065 20.8043 433.468L47.9488 417.254L18.2784 434.347C17.3058 434.888 16.1601 435.029 15.0856 434.737C14.0111 434.446 13.093 433.746 12.5273 432.787C11.9616 431.829 11.7931 430.687 12.0576 429.605C12.3222 428.524 12.999 427.589 13.9435 426.999L80.7851 386.842L13.3291 425.813C12.3565 426.355 11.2107 426.495 10.1362 426.204C9.06177 425.913 8.14371 425.213 7.57799 424.254C7.01228 423.295 6.84373 422.153 7.1083 421.072C7.37288 419.991 8.04963 419.055 8.99413 418.466L138.479 340.19L10.9568 413.764C9.98807 414.282 8.857 414.406 7.79901 414.111C6.74102 413.816 5.83762 413.124 5.27687 412.18C4.71612 411.235 4.54122 410.111 4.78857 409.041C5.03592 407.97 5.68647 407.037 6.60479 406.434L180.779 300.518L10.9227 398.575C9.95563 399.085 8.82989 399.204 7.77765 398.908C6.72542 398.611 5.82696 397.923 5.26762 396.984C4.70829 396.044 4.53074 394.926 4.77161 393.86C5.01248 392.794 5.65339 391.861 6.56213 391.253L226.782 256.145L10.8885 380.732C9.91981 381.249 8.78873 381.374 7.73074 381.078C6.67275 380.783 5.76936 380.091 5.20861 379.147C4.64786 378.203 4.47295 377.078 4.7203 376.008C4.96765 374.938 5.6182 374.004 6.53653 373.402L192.154 260.207L10.9227 364.834C9.96622 365.272 8.88164 365.342 7.87719 365.029C6.87275 364.716 6.01927 364.043 5.48066 363.14C4.94205 362.236 4.75629 361.165 4.95905 360.133C5.16181 359.1 5.73879 358.18 6.57919 357.547L175.317 254.643L10.9227 349.551C9.9461 350.13 8.77938 350.298 7.67916 350.017C6.57895 349.736 5.63537 349.03 5.05599 348.053C4.47662 347.077 4.30891 345.91 4.58977 344.81C4.87062 343.71 5.57703 342.766 6.55359 342.187L217.139 211.908L10.9227 330.965C9.95462 331.49 8.82111 331.621 7.7592 331.329C6.69729 331.037 5.78923 330.347 5.22494 329.401C4.66064 328.455 4.48382 327.328 4.73145 326.255C4.97907 325.182 5.63197 324.246 6.55359 323.644L178.133 217.762L10.9227 314.291C9.95563 314.801 8.82989 314.92 7.77765 314.624C6.72542 314.328 5.82696 313.639 5.26762 312.7C4.70829 311.761 4.53074 310.643 4.77161 309.576C5.01248 308.51 5.65339 307.577 6.56213 306.97L129.707 231.373L10.9227 299.964C9.96748 300.41 8.88082 300.487 7.87224 300.18C6.86366 299.873 6.0046 299.203 5.46072 298.299C4.91685 297.396 4.7267 296.323 4.92693 295.288C5.12715 294.253 5.70359 293.329 6.54506 292.693L143.019 208.026L10.9227 284.288C9.95863 284.803 8.83363 284.929 7.77971 284.639C6.7258 284.349 5.82337 283.666 5.25857 282.73C4.69378 281.794 4.5097 280.677 4.74431 279.609C4.97893 278.542 5.61433 277.605 6.51946 276.992L160.58 179.712L10.9227 266.095C9.95277 266.631 8.8123 266.769 7.7426 266.479C6.67291 266.189 5.75794 265.495 5.19134 264.542C4.62474 263.59 4.45097 262.454 4.70682 261.376C4.96266 260.298 5.62804 259.361 6.56213 258.765L51.84 230.972L10.9227 254.592C9.95528 255.125 8.819 255.262 7.75274 254.974C6.68648 254.686 5.77332 253.996 5.20527 253.049C4.63723 252.102 4.45855 250.972 4.70683 249.896C4.9551 248.819 5.61097 247.881 6.53653 247.279L84.7019 198.562L10.9227 241.152C9.94949 241.73 8.78648 241.898 7.68946 241.619C6.59245 241.34 5.6513 240.636 5.07306 239.663C4.49482 238.69 4.32685 237.527 4.6061 236.43C4.88536 235.333 5.58896 234.392 6.56213 233.813L22.5792 223.949L10.9227 230.682C9.96001 231.211 8.83024 231.349 7.76861 231.066C6.70698 230.783 5.79531 230.102 5.22346 229.164C4.6516 228.226 4.46363 227.103 4.69869 226.03C4.93374 224.957 5.57371 224.016 6.48533 223.403L102.997 161.331L10.9227 214.502C9.95902 215.051 8.8197 215.203 7.74604 214.926C6.67238 214.649 5.74873 213.965 5.17076 213.018C4.59279 212.072 4.4059 210.938 4.64969 209.856C4.89348 208.775 5.54879 207.83 6.47679 207.223L82.6197 158.063L10.9397 199.458C9.98444 199.995 8.85905 200.144 7.79686 199.874C6.73467 199.604 5.81715 198.936 5.2345 198.007C4.65186 197.079 4.44877 195.962 4.66735 194.888C4.88593 193.814 5.5094 192.866 6.40853 192.239L98.7819 129.254L10.9227 179.977C9.96736 180.543 8.82898 180.714 7.74935 180.454C6.66971 180.194 5.73389 179.524 5.14067 178.585C4.54745 177.647 4.34357 176.514 4.57234 175.427C4.80111 174.34 5.44451 173.386 6.36586 172.766L75.2555 125.227L10.9227 162.372C9.95966 162.932 8.81582 163.093 7.73557 162.821C6.65532 162.549 5.72433 161.865 5.14155 160.916C4.55876 159.967 4.3704 158.827 4.61672 157.741C4.86303 156.654 5.52448 155.707 6.45973 155.102L12.5525 151.125L10.9227 152.073C9.97779 152.618 8.85968 152.781 7.79825 152.528C6.73682 152.275 5.81275 151.625 5.21606 150.711C4.61936 149.798 4.39539 148.69 4.59021 147.616C4.78503 146.543 5.38382 145.584 6.26346 144.939L52.7189 110.805L10.9056 134.946C9.97433 135.485 8.87396 135.652 7.82483 135.414C6.77571 135.175 5.85528 134.55 5.24786 133.662C4.64044 132.774 4.39087 131.689 4.54913 130.625C4.70739 129.561 5.2618 128.596 6.10133 127.923L40.7637 100.079L10.8971 117.316C9.97784 117.844 8.8949 118.011 7.85924 117.785C6.82359 117.558 5.9094 116.954 5.2948 116.09C4.68021 115.226 4.40923 114.165 4.53466 113.112C4.6601 112.059 5.17296 111.091 5.97333 110.396L25.4464 93.056L11.3408 101.197C10.4484 101.712 9.39994 101.886 8.38892 101.688C7.3779 101.49 6.47263 100.933 5.84029 100.12C5.20794 99.3066 4.89122 98.292 4.94861 97.2634C5.00601 96.2348 5.43363 95.2616 6.15253 94.5237L15.5392 84.8981C14.7243 84.6791 13.9927 84.2234 13.4368 83.5886C12.881 82.9539 12.5258 82.1685 12.4162 81.3319C12.3066 80.4953 12.4475 79.645 12.8211 78.8884C13.1947 78.1319 13.7843 77.5031 14.5152 77.0816L34.7563 65.3739C35.6487 64.8526 36.7001 64.673 37.715 64.8685C38.7299 65.0639 39.6394 65.6211 40.2744 66.4366C40.9095 67.252 41.2269 68.2703 41.1678 69.3021C41.1087 70.334 40.6771 71.3093 39.9531 72.0469L33.792 78.3701L57.2416 64.8533C58.1561 64.3253 59.2339 64.1551 60.2666 64.3757C61.2992 64.5963 62.2134 65.192 62.8323 66.0476C63.4512 66.9032 63.7308 67.9579 63.6171 69.0078C63.5033 70.0576 63.0043 71.028 62.2165 71.7312L42.752 89.0453L84.6933 64.8533C85.6232 64.3274 86.7165 64.1695 87.7572 64.4107C88.7979 64.652 89.7102 65.2748 90.3139 66.1562C90.9176 67.0376 91.1686 68.1133 91.0175 69.1708C90.8663 70.2284 90.324 71.1907 89.4976 71.8677L54.8267 99.7035L115.2 64.8533C116.145 64.3075 117.263 64.1444 118.324 64.3976C119.386 64.6508 120.31 65.3011 120.907 66.2147C121.503 67.1283 121.727 68.2358 121.532 69.3095C121.338 70.3832 120.739 71.3415 119.859 71.9872L73.4123 106.121L144.956 64.8533C145.92 64.2604 147.08 64.0747 148.181 64.3372C149.282 64.5996 150.234 65.2887 150.827 66.2528C151.42 67.2169 151.605 68.3771 151.343 69.4781C151.08 70.5791 150.391 71.5308 149.427 72.1237L143.258 76.1429L162.807 64.8533C163.761 64.3151 164.884 64.1639 165.946 64.4308C167.007 64.6977 167.926 65.3624 168.511 66.2874C169.096 67.2124 169.304 68.3269 169.09 69.4005C168.877 70.4741 168.259 71.4246 167.364 72.0555L98.4747 119.578L193.297 64.8533C194.253 64.2985 195.387 64.1363 196.46 64.401C197.534 64.6657 198.462 65.3365 199.051 66.2723C199.639 67.208 199.841 68.3356 199.615 69.4175C199.389 70.4994 198.751 71.4513 197.837 72.0725L105.463 135.049L227.038 64.8533C228.003 64.2626 229.163 64.0796 230.264 64.3444C231.364 64.6093 232.314 65.3003 232.905 66.2656C233.495 67.2308 233.678 68.3912 233.413 69.4914C233.149 70.5916 232.458 71.5416 231.492 72.1323L155.307 121.259L253.099 64.8533C254.062 64.3048 255.202 64.153 256.275 64.43C257.349 64.707 258.273 65.3911 258.851 66.3374C259.429 67.2836 259.615 68.4177 259.372 69.4994C259.128 70.5811 258.473 71.5254 257.545 72.1323L160.998 134.187L281.139 64.8533C282.111 64.274 283.274 64.1045 284.371 64.3821C285.468 64.6598 286.409 65.3618 286.989 66.3339C287.568 67.3059 287.738 68.4683 287.46 69.5653C287.182 70.6623 286.48 71.6041 285.508 72.1835L269.551 82.0053L299.255 64.8533C300.224 64.2947 301.374 64.1388 302.456 64.419C303.539 64.6993 304.468 65.3934 305.044 66.3519C305.62 67.3103 305.797 68.4567 305.536 69.5441C305.275 70.6315 304.598 71.5732 303.65 72.1664L225.391 120.917L322.56 64.8533C323.532 64.274 324.694 64.1045 325.791 64.3821C326.888 64.6598 327.83 65.3618 328.41 66.3339C328.989 67.3059 329.158 68.4683 328.881 69.5653C328.603 70.6623 327.901 71.6041 326.929 72.1835L281.771 99.84L342.46 64.8533C343.426 64.3117 344.566 64.1674 345.637 64.4509C346.708 64.7345 347.627 65.4238 348.199 66.3728C348.772 67.3219 348.952 68.4562 348.702 69.5359C348.453 70.6156 347.793 71.5559 346.863 72.1579L192.794 169.438L373.982 64.8533C374.953 64.2717 376.115 64.0996 377.213 64.3748C378.311 64.6501 379.254 65.3502 379.836 66.3211C380.417 67.292 380.59 68.4542 380.314 69.552C380.039 70.6498 379.339 71.5933 378.368 72.1749L241.886 156.774L401.135 64.8533C402.107 64.274 403.269 64.1045 404.366 64.3821C405.463 64.6598 406.405 65.3618 406.985 66.3339C407.564 67.3059 407.733 68.4683 407.456 69.5653C407.178 70.6623 406.476 71.6041 405.504 72.1835L282.257 147.789L425.95 64.8533C426.919 64.3073 428.063 64.1614 429.139 64.4468C430.214 64.7322 431.135 65.4263 431.706 66.3811C432.277 67.336 432.452 68.4761 432.195 69.5584C431.937 70.6407 431.267 71.5796 430.327 72.1749L258.731 178.048L454.827 64.8533C455.795 64.3284 456.928 64.1981 457.99 64.4897C459.052 64.7812 459.96 65.472 460.524 66.4177C461.089 67.3633 461.266 68.4905 461.018 69.5635C460.77 70.6365 460.117 71.5722 459.196 72.1749L248.619 202.47L481.502 68.0107C482.474 67.4567 483.625 67.3068 484.706 67.5931C485.788 67.8794 486.714 68.5791 487.284 69.5414C487.855 70.5037 488.025 71.6516 487.757 72.738C487.49 73.8243 486.806 74.7621 485.854 75.3493L317.235 178.133L492.894 76.7147C493.866 76.1607 495.017 76.0108 496.098 76.2971C497.18 76.5834 498.106 77.2831 498.676 78.2454C499.247 79.2077 499.417 80.3556 499.149 81.442C498.882 82.5283 498.198 83.4661 497.246 84.0533L311.526 197.367L499.558 88.8064C500.53 88.227 501.693 88.0575 502.79 88.3352C503.887 88.6128 504.829 89.3149 505.408 90.2869C505.987 91.259 506.157 92.4213 505.879 93.5184C505.602 94.6154 504.9 95.5572 503.927 96.1365L283.767 231.202L501.094 105.762C502.065 105.234 503.202 105.104 504.267 105.397C505.332 105.691 506.242 106.387 506.805 107.337C507.367 108.288 507.539 109.42 507.284 110.495C507.029 111.57 506.368 112.504 505.438 113.101L331.358 218.982L501.077 120.943C502.052 120.367 503.215 120.202 504.311 120.483C505.407 120.765 506.347 121.47 506.923 122.445C507.499 123.419 507.664 124.582 507.382 125.679C507.101 126.775 506.395 127.714 505.421 128.29L375.834 206.626L501.077 134.315C502.053 133.74 503.217 133.576 504.313 133.859C505.409 134.143 506.348 134.85 506.923 135.825C507.498 136.8 507.661 137.964 507.378 139.061C507.095 140.157 506.388 141.096 505.412 141.67L438.537 181.854L501.077 145.741C502.049 145.221 503.183 145.096 504.244 145.394C505.305 145.691 506.21 146.387 506.769 147.337C507.328 148.286 507.498 149.415 507.243 150.487C506.989 151.559 506.33 152.491 505.404 153.088L478.097 169.421L501.077 156.16C502.052 155.584 503.215 155.419 504.311 155.7C505.407 155.982 506.347 156.688 506.923 157.662C507.499 158.636 507.664 159.799 507.382 160.896C507.101 161.992 506.395 162.931 505.421 163.507L414.251 218.547L501.077 168.414C501.56 168.129 502.095 167.943 502.65 167.864C503.205 167.786 503.77 167.818 504.313 167.958C504.856 168.099 505.365 168.345 505.813 168.682C506.261 169.019 506.638 169.441 506.923 169.924C507.207 170.407 507.394 170.942 507.472 171.497C507.55 172.052 507.518 172.617 507.378 173.16C507.238 173.703 506.992 174.212 506.655 174.66C506.317 175.108 505.895 175.485 505.412 175.77L449.886 209.212L501.086 179.652C502.061 179.076 503.226 178.911 504.323 179.194C505.42 179.476 506.36 180.183 506.935 181.158C507.511 182.134 507.676 183.298 507.394 184.395C507.111 185.492 506.405 186.432 505.429 187.008L445.867 222.967L501.086 191.087C502.058 190.533 503.209 190.383 504.29 190.669C505.372 190.956 506.298 191.655 506.868 192.618C507.439 193.58 507.609 194.728 507.341 195.814C507.074 196.901 506.39 197.838 505.438 198.426L386.321 271.275L501.077 205.022C502.045 204.497 503.179 204.367 504.241 204.658C505.303 204.95 506.211 205.641 506.775 206.586C507.339 207.532 507.516 208.659 507.269 209.732C507.021 210.805 506.368 211.741 505.446 212.343L364.16 299.767L501.077 220.715C502.052 220.139 503.215 219.973 504.311 220.255C505.407 220.537 506.347 221.242 506.923 222.217C507.499 223.191 507.664 224.354 507.382 225.45C507.101 226.546 506.395 227.486 505.421 228.062L463.036 253.85L501.077 231.885C502.045 231.36 503.179 231.23 504.241 231.521C505.303 231.813 506.211 232.504 506.775 233.449C507.339 234.395 507.516 235.522 507.269 236.595C507.021 237.668 506.368 238.604 505.446 239.206L411.75 297.105L501.077 245.538C502.044 244.996 503.184 244.852 504.255 245.136C505.326 245.419 506.245 246.109 506.817 247.058C507.389 248.007 507.57 249.141 507.32 250.221C507.071 251.3 506.411 252.241 505.481 252.843L387.849 326.827L501.077 261.444C502.044 260.903 503.184 260.758 504.255 261.042C505.326 261.325 506.245 262.015 506.817 262.964C507.389 263.913 507.57 265.047 507.32 266.127C507.071 267.207 506.411 268.147 505.481 268.749L413.73 326.434L501.077 276.011C502.044 275.495 503.172 275.37 504.227 275.663C505.283 275.955 506.186 276.643 506.748 277.583C507.311 278.523 507.491 279.643 507.25 280.712C507.009 281.781 506.366 282.716 505.455 283.324L476.049 301.534L501.077 287.095C502.043 286.593 503.164 286.478 504.211 286.775C505.258 287.071 506.153 287.757 506.711 288.691C507.269 289.626 507.449 290.738 507.214 291.801C506.979 292.864 506.347 293.797 505.446 294.409L497.98 299.034L501.077 297.25C502.042 296.719 503.175 296.582 504.239 296.868C505.302 297.153 506.215 297.839 506.784 298.781C507.354 299.723 507.538 300.85 507.296 301.924C507.055 302.999 506.407 303.938 505.489 304.546L457.276 335.07L501.077 309.76C502.042 309.229 503.175 309.092 504.239 309.378C505.302 309.663 506.215 310.349 506.784 311.291C507.354 312.233 507.538 313.359 507.296 314.434C507.055 315.508 506.407 316.448 505.489 317.056L477.551 334.763L501.077 321.186C502.035 320.649 503.162 320.502 504.225 320.775C505.289 321.049 506.205 321.721 506.786 322.653C507.366 323.585 507.565 324.704 507.341 325.779C507.117 326.853 506.487 327.8 505.583 328.422L436.053 374.895L501.052 337.348C502.007 336.811 503.132 336.662 504.195 336.932C505.257 337.202 506.174 337.871 506.757 338.799C507.34 339.727 507.543 340.844 507.324 341.918C507.106 342.992 506.482 343.941 505.583 344.567L449.707 382.677L501.052 353.033C502.013 352.486 503.149 352.334 504.22 352.609C505.291 352.883 506.214 353.563 506.794 354.505C507.373 355.446 507.565 356.576 507.328 357.656C507.091 358.736 506.444 359.682 505.523 360.294L498.278 365.047L501.052 363.452C502.001 362.91 503.121 362.754 504.182 363.014C505.243 363.274 506.164 363.932 506.755 364.851C507.346 365.77 507.561 366.88 507.358 367.954C507.154 369.027 506.546 369.981 505.66 370.62L471.253 395.136L501.052 377.933C502.006 377.387 503.135 377.231 504.202 377.497C505.268 377.763 506.191 378.431 506.778 379.361C507.365 380.291 507.569 381.411 507.35 382.489C507.131 383.566 506.504 384.517 505.6 385.143L502.238 387.456C503.172 387.243 504.15 387.35 505.016 387.761C505.881 388.172 506.583 388.862 507.009 389.72C507.435 390.578 507.559 391.555 507.362 392.492C507.166 393.43 506.659 394.274 505.924 394.889L481.604 415.249L501.052 404.028C501.914 403.535 502.922 403.359 503.9 403.53C504.878 403.7 505.767 404.207 506.412 404.962C507.057 405.717 507.418 406.674 507.434 407.667C507.449 408.66 507.117 409.627 506.496 410.402L492.399 427.853L493.517 427.204C494.002 426.92 494.539 426.734 495.097 426.658C495.654 426.581 496.221 426.616 496.765 426.76C497.309 426.904 497.819 427.154 498.266 427.496C498.713 427.838 499.088 428.264 499.37 428.752C499.651 429.239 499.833 429.777 499.906 430.335C499.978 430.893 499.94 431.46 499.792 432.003C499.645 432.546 499.391 433.054 499.047 433.499C498.702 433.944 498.273 434.316 497.783 434.594L476.791 446.711C475.929 447.209 474.919 447.389 473.938 447.22C472.957 447.052 472.065 446.546 471.418 445.789C470.77 445.032 470.408 444.073 470.394 443.077C470.379 442.082 470.714 441.112 471.339 440.337L485.444 422.886L443.401 447.147C442.476 447.676 441.388 447.841 440.348 447.609C439.309 447.376 438.394 446.764 437.783 445.891C437.172 445.018 436.91 443.949 437.048 442.893C437.186 441.837 437.714 440.87 438.528 440.183L462.831 419.84L415.522 447.147C414.57 447.671 413.453 447.812 412.4 447.541C411.347 447.27 410.437 446.607 409.856 445.688C409.276 444.768 409.068 443.662 409.276 442.594C409.483 441.527 410.091 440.579 410.974 439.945L412.365 438.98L398.217 447.147C397.269 447.67 396.159 447.814 395.109 447.55C394.06 447.285 393.151 446.632 392.565 445.722C391.979 444.812 391.761 443.713 391.955 442.648C392.149 441.584 392.74 440.632 393.609 439.987L428.032 415.454L373.129 447.147C372.169 447.683 371.039 447.829 369.975 447.553C368.91 447.277 367.993 446.601 367.416 445.665C366.838 444.729 366.643 443.607 366.873 442.532C367.103 441.456 367.739 440.511 368.649 439.893L375.842 435.2L355.089 447.147C354.136 447.665 353.021 447.8 351.972 447.525C350.922 447.25 350.017 446.586 349.44 445.668C348.863 444.749 348.657 443.645 348.865 442.581C349.072 441.516 349.678 440.57 350.558 439.936L406.46 401.826L327.953 447.147C326.995 447.702 325.858 447.863 324.783 447.596C323.708 447.328 322.78 446.653 322.194 445.713C321.607 444.774 321.409 443.643 321.642 442.56C321.874 441.477 322.519 440.527 323.439 439.91L392.96 393.438L299.913 447.147C298.948 447.677 297.815 447.814 296.751 447.529C295.687 447.244 294.775 446.558 294.206 445.616C293.636 444.673 293.452 443.547 293.694 442.473C293.935 441.398 294.583 440.459 295.501 439.851L323.345 422.229L280.183 447.147C279.217 447.699 278.074 447.852 276.997 447.573C275.919 447.294 274.994 446.605 274.417 445.653C273.841 444.701 273.659 443.562 273.91 442.478C274.162 441.394 274.827 440.451 275.763 439.851L324.113 409.25L258.458 447.147C257.491 447.663 256.363 447.787 255.308 447.495C254.252 447.202 253.349 446.515 252.787 445.575C252.224 444.635 252.044 443.514 252.285 442.445C252.526 441.377 253.169 440.441 254.08 439.834L261.504 435.243L240.87 447.189C239.903 447.722 238.767 447.859 237.7 447.571C236.634 447.284 235.721 446.594 235.153 445.647C234.585 444.699 234.406 443.569 234.655 442.493C234.903 441.417 235.559 440.479 236.484 439.876L265.924 421.641L221.67 447.147C220.706 447.662 219.581 447.788 218.527 447.498C217.474 447.208 216.571 446.524 216.006 445.588C215.442 444.652 215.257 443.536 215.492 442.468C215.727 441.4 216.362 440.463 217.267 439.851L308.949 382.208L196.454 447.147C195.49 447.662 194.365 447.788 193.311 447.498C192.258 447.208 191.355 446.524 190.79 445.588C190.226 444.652 190.041 443.536 190.276 442.468C190.511 441.4 191.146 440.463 192.051 439.851L309.658 365.909L168.909 447.147C167.94 447.693 166.795 447.839 165.72 447.553C164.645 447.268 163.723 446.574 163.153 445.619C162.582 444.664 162.406 443.524 162.664 442.442C162.921 441.359 163.591 440.42 164.531 439.825L258.313 381.875L145.246 447.147C144.278 447.65 143.154 447.764 142.105 447.465C141.056 447.165 140.162 446.475 139.606 445.537C139.05 444.598 138.874 443.482 139.115 442.419C139.357 441.355 139.996 440.424 140.902 439.817L183.287 414.029L125.909 447.147C124.943 447.663 123.815 447.787 122.759 447.495C121.704 447.202 120.801 446.515 120.238 445.575C119.676 444.635 119.496 443.514 119.737 442.445C119.978 441.377 120.62 440.441 121.532 439.834L262.827 352.427L98.7221 447.147C97.7534 447.664 96.6223 447.789 95.5643 447.493C94.5064 447.198 93.603 446.506 93.0422 445.562C92.4815 444.617 92.3066 443.493 92.5539 442.423C92.8013 441.353 93.4518 440.419 94.3701 439.817L213.478 366.967L74.5899 447.147C73.6193 447.674 72.4819 447.805 71.4169 447.511C70.3519 447.218 69.4424 446.522 68.8797 445.572C68.317 444.621 68.145 443.489 68.3999 442.414C68.6548 441.339 69.3167 440.405 70.2464 439.808L129.749 403.874L54.7925 447.147C54.1464 447.53 53.4105 447.736 52.6592 447.744Z" fill="#EAB82F"/>
<path d="M88.32 447.744C87.3924 447.743 86.4904 447.44 85.7504 446.881C85.0105 446.322 84.473 445.536 84.2193 444.644C83.9656 443.752 84.0096 442.801 84.3446 441.937C84.6796 441.072 85.2873 440.339 86.0757 439.851L97.7835 432.597L72.5333 447.147C71.5714 447.684 70.4388 447.829 69.3727 447.55C68.3066 447.271 67.3897 446.591 66.8141 445.651C66.2384 444.711 66.0486 443.585 66.2843 442.509C66.5201 441.433 67.1632 440.489 68.0789 439.876L178.432 368.538L42.4789 447.044C41.5069 447.625 40.3441 447.795 39.2462 447.519C38.1484 447.242 37.2056 446.54 36.6251 445.568C36.0446 444.596 35.874 443.433 36.1508 442.335C36.4277 441.238 37.1293 440.295 38.1013 439.714L59.4944 426.539L29.7984 443.674C28.8344 444.189 27.7094 444.314 26.6554 444.024C25.6015 443.735 24.6991 443.051 24.1343 442.115C23.5695 441.179 23.3854 440.062 23.62 438.995C23.8547 437.927 24.4901 436.99 25.3952 436.378L110.259 383.002L19.3109 435.499C18.3435 436.031 17.2073 436.168 16.141 435.881C15.0747 435.593 14.1616 434.903 13.5935 433.956C13.0255 433.009 12.8468 431.878 13.0951 430.802C13.3434 429.726 13.9992 428.788 14.9248 428.186L65.9285 396.518L13.6533 426.667C12.6884 427.197 11.5556 427.334 10.4919 427.049C9.42826 426.764 8.51612 426.078 7.94629 425.136C7.37646 424.193 7.19307 423.067 7.43449 421.993C7.6759 420.918 8.32341 419.979 9.24159 419.371L90.3595 368.171L10.8715 414.08C9.90674 414.589 8.78379 414.709 7.73331 414.416C6.68283 414.122 5.78459 413.438 5.22312 412.503C4.66164 411.567 4.47958 410.453 4.71433 409.388C4.94907 408.323 5.5828 407.388 6.48532 406.775L85.2395 357.589C84.4374 357.257 83.7578 356.685 83.2939 355.951C82.7012 355.023 82.4902 353.902 82.7049 352.822C82.9196 351.742 83.5434 350.787 84.4459 350.157L200.781 269.184C200.714 268.379 200.878 267.571 201.253 266.855C201.627 266.139 202.197 265.544 202.897 265.139L224.683 252.587C225.635 252.04 226.762 251.882 227.828 252.145C228.894 252.407 229.818 253.071 230.407 253.998C230.996 254.925 231.205 256.043 230.991 257.12C230.777 258.197 230.156 259.15 229.257 259.78L172.151 299.52L253.5 252.587C254.471 252.004 255.633 251.831 256.732 252.105C257.831 252.38 258.775 253.079 259.358 254.05C259.941 255.021 260.114 256.184 259.839 257.282C259.565 258.381 258.865 259.326 257.894 259.908L220.433 283.29L273.638 252.57C274.607 251.985 275.768 251.808 276.867 252.08C277.966 252.351 278.912 253.047 279.497 254.016C280.082 254.985 280.258 256.146 279.987 257.245C279.715 258.343 279.019 259.289 278.05 259.874L196.83 311.134L292.173 256.094C293.144 255.512 294.306 255.34 295.404 255.615C296.502 255.891 297.445 256.591 298.027 257.562C298.608 258.533 298.78 259.695 298.505 260.793C298.23 261.89 297.53 262.834 296.559 263.415L245.581 295.066L301.5 262.784C302.468 262.199 303.63 262.023 304.728 262.294C305.827 262.565 306.773 263.262 307.358 264.23C307.943 265.199 308.119 266.36 307.848 267.459C307.577 268.558 306.88 269.504 305.911 270.089L221.013 323.413L312.465 270.626C313.434 270.08 314.579 269.934 315.654 270.22C316.729 270.505 317.65 271.199 318.221 272.154C318.792 273.109 318.968 274.249 318.71 275.331C318.453 276.413 317.782 277.352 316.843 277.948L295.569 291.055L320.717 276.548C321.68 276 322.82 275.848 323.893 276.125C324.967 276.402 325.891 277.086 326.469 278.032C327.047 278.979 327.234 280.113 326.99 281.194C326.746 282.276 326.091 283.22 325.163 283.827L214.818 355.174L334.285 286.225C335.251 285.709 336.379 285.584 337.435 285.877C338.49 286.17 339.393 286.857 339.956 287.797C340.519 288.737 340.698 289.858 340.457 290.926C340.216 291.995 339.574 292.93 338.662 293.538L326.878 300.843L342.238 291.959C343.202 291.411 344.341 291.259 345.414 291.536C346.488 291.813 347.412 292.497 347.99 293.443C348.568 294.39 348.755 295.524 348.511 296.606C348.267 297.687 347.612 298.632 346.684 299.238L266.24 350.985L353.946 300.373C354.908 299.836 356.04 299.691 357.106 299.97C358.172 300.249 359.089 300.929 359.665 301.869C360.241 302.809 360.43 303.935 360.195 305.011C359.959 306.087 359.316 307.031 358.4 307.644L278.596 359.561L366.08 309.043C367.047 308.502 368.186 308.357 369.258 308.641C370.329 308.924 371.248 309.614 371.82 310.563C372.392 311.512 372.572 312.646 372.323 313.726C372.073 314.806 371.414 315.746 370.483 316.348L360.533 322.56L374.042 314.769C375 314.247 376.123 314.113 377.178 314.394C378.233 314.674 379.14 315.349 379.713 316.278C380.286 317.207 380.481 318.321 380.258 319.389C380.034 320.458 379.41 321.4 378.513 322.022L312.252 365.542L385.707 323.132C386.665 322.576 387.802 322.415 388.876 322.683C389.951 322.95 390.88 323.625 391.466 324.565C392.052 325.505 392.25 326.636 392.018 327.718C391.785 328.801 391.141 329.752 390.221 330.368L322.91 375.467L398.097 332.058C399.052 331.491 400.191 331.32 401.27 331.58C402.35 331.84 403.286 332.51 403.879 333.449C404.472 334.388 404.676 335.521 404.447 336.607C404.219 337.694 403.575 338.648 402.654 339.268L335.479 385.417L411.426 341.589C412.384 341.06 413.509 340.92 414.568 341.197C415.627 341.474 416.539 342.147 417.115 343.078C417.692 344.008 417.889 345.124 417.665 346.196C417.442 347.267 416.815 348.212 415.915 348.834L380.587 372.275L421.393 348.723C422.353 348.186 423.483 348.041 424.547 348.317C425.611 348.593 426.528 349.269 427.106 350.205C427.684 351.14 427.878 352.263 427.648 353.338C427.419 354.414 426.783 355.359 425.873 355.977L407.04 368.384L430.157 355.038C431.117 354.481 432.257 354.32 433.334 354.59C434.411 354.86 435.341 355.54 435.925 356.484C436.509 357.428 436.703 358.563 436.464 359.647C436.225 360.732 435.572 361.68 434.645 362.291L422.059 370.637L438.613 361.088C439.564 360.548 440.686 360.395 441.747 360.658C442.809 360.922 443.728 361.583 444.316 362.505C444.904 363.427 445.116 364.539 444.907 365.613C444.699 366.686 444.086 367.638 443.196 368.273L410.53 391.177L449.331 368.777C450.27 368.234 451.379 368.07 452.435 368.316C453.49 368.562 454.412 369.201 455.014 370.102C455.616 371.004 455.852 372.101 455.674 373.17C455.497 374.239 454.919 375.2 454.059 375.859L413.491 406.903L462.797 378.436C463.745 377.908 464.859 377.761 465.912 378.026C466.965 378.29 467.878 378.946 468.464 379.86C469.05 380.773 469.266 381.876 469.068 382.943C468.869 384.011 468.272 384.962 467.396 385.604L455.014 394.402L471.663 384.794C472.592 384.261 473.688 384.097 474.732 384.335C475.776 384.572 476.693 385.194 477.3 386.076C477.907 386.958 478.16 388.037 478.009 389.097C477.858 390.157 477.314 391.122 476.484 391.799L450.756 412.621L483.84 393.523C484.735 393.007 485.787 392.833 486.8 393.034C487.814 393.235 488.72 393.797 489.351 394.615C489.981 395.433 490.294 396.453 490.23 397.484C490.166 398.515 489.73 399.488 489.003 400.222L465.604 423.714L499.029 404.429C499.944 403.901 501.022 403.731 502.054 403.951C503.087 404.172 504.001 404.767 504.62 405.623C505.239 406.479 505.519 407.533 505.405 408.583C505.291 409.633 504.792 410.603 504.004 411.307L495.471 418.859L499.277 416.666C500.252 416.156 501.386 416.042 502.443 416.349C503.5 416.655 504.398 417.358 504.948 418.311C505.499 419.264 505.661 420.392 505.399 421.461C505.137 422.53 504.472 423.457 503.543 424.047L463.522 447.147C462.608 447.667 461.534 447.831 460.506 447.608C459.478 447.384 458.569 446.789 457.953 445.936C457.337 445.083 457.058 444.033 457.169 442.987C457.281 441.941 457.774 440.973 458.556 440.269L467.046 432.717L442.027 447.147C441.133 447.633 440.094 447.783 439.099 447.571C438.104 447.358 437.217 446.797 436.599 445.989C435.982 445.18 435.673 444.178 435.729 443.162C435.786 442.146 436.203 441.183 436.907 440.448L460.297 416.956L407.97 447.147C407.041 447.679 405.946 447.843 404.901 447.606C403.857 447.368 402.94 446.746 402.333 445.864C401.726 444.982 401.473 443.904 401.624 442.843C401.775 441.783 402.319 440.818 403.149 440.141L428.86 419.345L380.681 447.147C379.734 447.659 378.629 447.795 377.586 447.527C376.543 447.259 375.641 446.607 375.059 445.701C374.477 444.795 374.259 443.703 374.448 442.644C374.638 441.584 375.221 440.635 376.081 439.987L388.471 431.172L360.798 447.147C359.86 447.678 358.756 447.834 357.707 447.584C356.659 447.334 355.744 446.696 355.146 445.799C354.548 444.902 354.312 443.812 354.485 442.748C354.658 441.684 355.228 440.725 356.079 440.064L396.629 409.037L330.607 447.147C329.658 447.668 328.546 447.809 327.497 447.541C326.448 447.273 325.54 446.616 324.957 445.703C324.374 444.79 324.16 443.69 324.358 442.626C324.557 441.561 325.152 440.612 326.025 439.97L358.699 417.067L306.586 447.147C305.627 447.692 304.494 447.845 303.424 447.573C302.355 447.301 301.433 446.626 300.851 445.688C300.269 444.751 300.073 443.625 300.304 442.546C300.534 441.467 301.174 440.519 302.089 439.902L314.752 431.514L287.659 447.147C286.701 447.662 285.583 447.793 284.533 447.512C283.482 447.231 282.579 446.559 282.007 445.634C281.435 444.709 281.238 443.601 281.455 442.536C281.673 441.47 282.29 440.528 283.179 439.902L301.952 427.529L267.947 447.147C266.991 447.657 265.876 447.784 264.83 447.503C263.784 447.221 262.883 446.552 262.312 445.631C261.741 444.711 261.542 443.607 261.754 442.544C261.967 441.482 262.576 440.54 263.458 439.91L298.667 416.486L245.53 447.147C244.577 447.671 243.46 447.812 242.407 447.541C241.354 447.27 240.444 446.607 239.864 445.688C239.283 444.768 239.075 443.662 239.283 442.594C239.491 441.527 240.098 440.579 240.981 439.945L308.156 393.779L215.723 447.147C214.767 447.663 213.651 447.796 212.601 447.518C211.551 447.24 210.647 446.572 210.073 445.651C209.498 444.729 209.297 443.623 209.509 442.558C209.722 441.493 210.333 440.549 211.217 439.919L278.554 394.837L187.938 447.147C186.979 447.668 185.857 447.803 184.802 447.522C183.747 447.242 182.84 446.567 182.267 445.638C181.694 444.709 181.499 443.595 181.722 442.527C181.945 441.458 182.57 440.516 183.467 439.893L249.771 396.373L161.775 447.147C160.808 447.688 159.669 447.833 158.597 447.549C157.526 447.265 156.607 446.576 156.035 445.627C155.463 444.678 155.283 443.544 155.532 442.464C155.782 441.384 156.441 440.444 157.372 439.842L167.236 433.655L143.863 447.147C142.904 447.662 141.784 447.79 140.732 447.506C139.681 447.222 138.778 446.547 138.209 445.618C137.639 444.69 137.446 443.579 137.67 442.513C137.893 441.447 138.515 440.507 139.409 439.885L219.153 388.011L116.753 447.147C115.789 447.695 114.65 447.847 113.576 447.57C112.503 447.293 111.579 446.609 111.001 445.663C110.423 444.716 110.236 443.582 110.48 442.501C110.724 441.419 111.379 440.475 112.307 439.868L192.828 388.07L90.4533 447.147C89.8072 447.53 89.0713 447.736 88.32 447.744Z" fill="#F9D438"/>
<path d="M260.361 276.727C259.446 276.73 258.555 276.44 257.819 275.898C257.082 275.356 256.539 274.592 256.27 273.719C256 272.845 256.018 271.908 256.321 271.045C256.625 270.183 257.197 269.441 257.954 268.928L267.887 262.195L246.912 274.304C245.949 274.864 244.805 275.025 243.725 274.753C242.645 274.481 241.714 273.797 241.131 272.848C240.548 271.898 240.36 270.759 240.606 269.672C240.852 268.586 241.514 267.639 242.449 267.034L361.916 189.38L231.74 264.533C230.776 265.082 229.637 265.234 228.563 264.957C227.489 264.68 226.566 263.996 225.988 263.049C225.41 262.103 225.223 260.969 225.467 259.887C225.711 258.806 226.366 257.861 227.294 257.254L356.386 173.628L217.131 254.029C216.164 254.57 215.024 254.715 213.953 254.431C212.882 254.148 211.963 253.458 211.391 252.509C210.819 251.56 210.638 250.426 210.888 249.346C211.137 248.266 211.797 247.326 212.727 246.724L307.763 186.667L205.525 245.7C204.556 246.284 203.394 246.459 202.295 246.186C201.196 245.913 200.251 245.215 199.667 244.245C199.083 243.276 198.909 242.114 199.181 241.015C199.454 239.916 200.152 238.971 201.122 238.387L277.47 190.524L194.995 238.14C194.027 238.725 192.865 238.901 191.767 238.63C190.668 238.359 189.722 237.662 189.137 236.693C188.552 235.725 188.376 234.563 188.647 233.465C188.918 232.366 189.615 231.42 190.583 230.835L267.947 182.067L184.218 230.4C183.253 230.931 182.12 231.068 181.056 230.782C179.993 230.497 179.08 229.811 178.511 228.869C177.941 227.927 177.757 226.8 177.999 225.726C178.24 224.652 178.888 223.712 179.806 223.104L247.663 180.258L173.781 222.925C172.821 223.482 171.681 223.642 170.604 223.372C169.527 223.102 168.597 222.423 168.013 221.479C167.429 220.535 167.236 219.4 167.475 218.315C167.713 217.231 168.366 216.283 169.293 215.671L282.505 140.51L158.618 212.053C157.657 212.61 156.517 212.771 155.44 212.501C154.363 212.231 153.434 211.552 152.849 210.607C152.265 209.663 152.072 208.528 152.311 207.444C152.55 206.36 153.202 205.411 154.129 204.8L248.909 142.063L144.802 202.155C143.846 202.709 142.712 202.872 141.639 202.607C140.566 202.342 139.637 201.671 139.049 200.736C138.46 199.8 138.258 198.672 138.484 197.59C138.711 196.509 139.348 195.557 140.262 194.935L235.836 129.903L129.604 191.249C129.125 191.539 128.593 191.731 128.039 191.815C127.485 191.899 126.92 191.873 126.376 191.739C125.832 191.605 125.319 191.365 124.868 191.032C124.417 190.7 124.036 190.282 123.746 189.803C123.456 189.323 123.264 188.791 123.18 188.237C123.096 187.683 123.122 187.118 123.256 186.574C123.39 186.03 123.631 185.518 123.963 185.067C124.295 184.615 124.713 184.234 125.193 183.945L139.853 174.643L121.361 185.327C120.4 185.926 119.241 186.118 118.139 185.862C117.036 185.606 116.08 184.922 115.482 183.962C114.883 183.001 114.691 181.842 114.947 180.739C115.203 179.636 115.886 178.681 116.847 178.082L178.449 136.883L109.397 176.742C108.444 177.281 107.321 177.432 106.259 177.165C105.198 176.898 104.279 176.233 103.694 175.308C103.109 174.383 102.901 173.269 103.115 172.195C103.328 171.122 103.946 170.171 104.841 169.54L168.474 125.687L96.3072 167.356C95.3603 167.899 94.2411 168.059 93.1799 167.802C92.1188 167.545 91.1965 166.892 90.6028 165.975C90.0091 165.059 89.7892 163.95 89.9884 162.877C90.1876 161.803 90.7907 160.847 91.6736 160.205L155.938 113.698L81.4592 156.706C80.5097 157.263 79.3815 157.432 78.3105 157.177C77.2395 156.922 76.3087 156.262 75.7126 155.337C75.1164 154.411 74.9012 153.291 75.1118 152.21C75.3224 151.129 75.9426 150.172 76.8427 149.538L123.452 116.258L68.9237 147.746C67.986 148.296 66.8737 148.468 65.8139 148.225C64.7541 147.983 63.8268 147.345 63.2212 146.443C62.6157 145.54 62.3776 144.44 62.5557 143.367C62.7337 142.295 63.3144 141.331 64.1792 140.672L111.787 103.825L54.1525 137.105C53.2213 137.644 52.1209 137.811 51.0718 137.572C50.0226 137.334 49.1022 136.709 48.4948 135.821C47.8874 134.933 47.6378 133.848 47.7961 132.784C47.9543 131.72 48.5087 130.755 49.3482 130.082L86.5877 100.215L40.1066 127.061C39.1992 127.548 38.1462 127.691 37.1421 127.462C36.1379 127.233 35.2503 126.649 34.6431 125.817C34.0359 124.986 33.75 123.962 33.8383 122.936C33.9265 121.91 34.3829 120.951 35.1232 120.235L65.792 92.7061L25.0197 116.224C24.1223 116.729 23.0727 116.892 22.0645 116.683C21.0563 116.475 20.1574 115.909 19.5337 115.09C18.91 114.271 18.6035 113.254 18.6708 112.226C18.738 111.199 19.1745 110.231 19.8997 109.5L40.8746 88.6528L10.9312 105.941C10.0611 106.445 9.04099 106.626 8.05078 106.451C7.06058 106.276 6.16392 105.757 5.519 104.986C4.87409 104.214 4.52235 103.24 4.52584 102.235C4.52934 101.229 4.88785 100.257 5.53811 99.4901L17.92 84.8213C16.927 85.1103 15.8627 85.0289 14.9253 84.592C13.9878 84.1551 13.241 83.3926 12.8237 82.4463C12.4063 81.5 12.3469 80.4343 12.6565 79.4475C12.9661 78.4607 13.6236 77.6199 14.5066 77.0816L34.7562 65.3738C35.6263 64.8698 36.6464 64.6893 37.6366 64.8641C38.6269 65.0389 39.5235 65.5578 40.1684 66.3292C40.8133 67.1007 41.1651 68.0751 41.1616 69.0806C41.1581 70.0861 40.7996 71.0581 40.1493 71.825L27.904 86.3317L65.0752 64.8533C65.9726 64.3486 67.0222 64.1855 68.0304 64.3939C69.0386 64.6024 69.9375 65.1684 70.5612 65.9875C71.1849 66.8066 71.4914 67.8237 71.4241 68.851C71.3569 69.8784 70.9204 70.8468 70.1952 71.5776L49.2202 92.3989L97.0069 64.8277C97.9144 64.3407 98.9673 64.1985 99.9715 64.4271C100.976 64.6557 101.863 65.2398 102.47 66.0716C103.078 66.9034 103.364 67.9268 103.275 68.9528C103.187 69.9789 102.731 70.9384 101.99 71.6544L71.2875 99.217L130.859 64.8533C131.79 64.3247 132.885 64.1654 133.928 64.407C134.971 64.6485 135.885 65.2734 136.489 66.1575C137.093 67.0416 137.342 68.1203 137.187 69.1797C137.033 70.239 136.486 71.2015 135.654 71.8762L98.4235 101.743L162.27 64.8533C163.206 64.3293 164.305 64.1769 165.348 64.4265C166.391 64.6762 167.302 65.3095 167.899 66.2004C168.496 67.0913 168.736 68.1745 168.57 69.2342C168.405 70.2939 167.846 71.2524 167.006 71.9189L119.467 108.706L195.413 64.8533C196.363 64.2961 197.491 64.1274 198.562 64.3827C199.633 64.6379 200.564 65.2972 201.16 66.2228C201.756 67.1484 201.971 68.2687 201.761 69.3493C201.55 70.4299 200.93 71.3873 200.03 72.0213L153.404 105.344L223.573 64.8533C224.52 64.3099 225.639 64.1501 226.701 64.4069C227.762 64.6637 228.684 65.3175 229.278 66.2337C229.871 67.1499 230.091 68.2589 229.892 69.3323C229.693 70.4058 229.09 71.362 228.207 72.0042L163.951 118.502L256.853 64.8533C257.806 64.3151 258.93 64.1638 259.992 64.4307C261.053 64.6977 261.972 65.3623 262.557 66.2873C263.142 67.2123 263.349 68.3269 263.136 69.4005C262.923 70.4741 262.305 71.4246 261.41 72.0554L197.76 115.925L286.182 64.8533C287.14 64.3166 288.267 64.1695 289.33 64.4426C290.394 64.7158 291.311 65.3881 291.891 66.3199C292.471 67.2517 292.67 68.3712 292.446 69.4458C292.222 70.5203 291.592 71.4672 290.688 72.0896L229.129 113.271L312.994 64.8533C313.959 64.3226 315.092 64.1856 316.156 64.471C317.219 64.7563 318.131 65.4419 318.701 66.3842C319.271 67.3266 319.454 68.4528 319.213 69.5273C318.972 70.6017 318.324 71.5413 317.406 72.1493L302.643 81.536L331.511 64.8533C332.467 64.3161 333.592 64.1671 334.654 64.4371C335.717 64.7072 336.634 65.3757 337.217 66.304C337.799 67.2323 338.002 68.3492 337.784 69.4231C337.565 70.4971 336.942 71.4458 336.043 72.0725L240.469 137.097L365.628 64.8533C366.588 64.2963 367.728 64.1358 368.805 64.4058C369.882 64.6758 370.812 65.355 371.396 66.2992C371.98 67.2434 372.173 68.3782 371.935 69.4626C371.696 70.547 371.043 71.4955 370.116 72.1066L275.328 134.827L396.553 64.8533C397.506 64.3419 398.619 64.2122 399.665 64.4903C400.711 64.7685 401.612 65.4339 402.186 66.3516C402.76 67.2693 402.964 68.3708 402.756 69.433C402.548 70.4952 401.944 71.4388 401.067 72.0725L287.855 147.208L430.549 64.8533C431.518 64.2683 432.679 64.092 433.778 64.3632C434.877 64.6345 435.822 65.3311 436.407 66.2997C436.992 67.2683 437.169 68.4297 436.898 69.5283C436.626 70.6269 435.93 71.5728 434.961 72.1578L367.061 115.021L453.973 64.8533C454.942 64.2683 456.103 64.092 457.202 64.3632C458.301 64.6345 459.246 65.3311 459.831 66.2997C460.417 67.2683 460.593 68.4297 460.322 69.5283C460.05 70.6269 459.354 71.5728 458.385 72.1578L380.979 120.951L476.023 66.0309C476.999 65.447 478.166 65.2745 479.269 65.5514C480.372 65.8282 481.319 66.5317 481.903 67.5072C482.487 68.4826 482.659 69.65 482.382 70.7526C482.106 71.8553 481.402 72.8027 480.427 73.3866L404.062 121.267L488.542 72.4736C489.509 71.9319 490.648 71.7876 491.719 72.0712C492.791 72.3548 493.709 73.044 494.282 73.9931C494.854 74.9421 495.034 76.0765 494.785 77.1562C494.535 78.2359 493.875 79.1762 492.945 79.7781L397.926 139.793L496.964 82.6197C497.93 82.029 499.09 81.846 500.19 82.1108C501.29 82.3757 502.24 83.0667 502.831 84.032C503.422 84.9972 503.605 86.1576 503.34 87.2578C503.075 88.358 502.384 89.3079 501.419 89.8986L372.352 173.466L497.05 101.47C498.013 100.91 499.156 100.749 500.237 101.021C501.317 101.293 502.248 101.977 502.831 102.926C503.413 103.875 503.602 105.015 503.356 106.102C503.109 107.188 502.448 108.135 501.513 108.74L367.787 195.695C368.64 195.815 369.438 196.191 370.074 196.773C370.71 197.355 371.154 198.116 371.349 198.955C371.544 199.795 371.48 200.674 371.166 201.477C370.851 202.279 370.301 202.968 369.587 203.452L294.238 254.652C294.384 255.511 294.264 256.394 293.893 257.183C293.522 257.972 292.919 258.628 292.164 259.063L262.485 276.19C261.836 276.551 261.104 276.736 260.361 276.727Z" fill="#F9D438"/>
<path d="M2.37226 410.214C-8.25174 477.918 228.139 436.42 280.158 447.087C334.822 435.746 499.371 478.66 509.329 410.394C510.336 375.851 509.278 340.514 509.653 305.707C498.91 254.66 541.227 57.0709 470.255 64.9131C381.346 64.8107 292.437 64.9899 203.537 64.9131C148.975 76.2197 14.4384 31.9915 2.69653 104.559C1.70666 206.379 2.61973 308.352 2.37226 410.214ZM213.239 256.137C213.521 256.333 213.811 256.563 214.093 256.768L14.5579 400.034C13.1413 304.512 15.8293 208.947 14.4043 113.408L213.239 256.137ZM471.799 440.388H134.605C97.0581 433.28 24.9429 462.327 15.0016 410.197L221.175 262.17C241.169 282.249 268.442 280.158 288.247 262.17L496.964 412.015C495.471 426.061 487.868 439.706 471.782 440.388H471.799ZM497.306 135.057C497.203 222.737 497.527 310.409 497.306 398.089L298.121 255.078L497.673 111.838C497.86 119.799 497.289 127.881 497.289 135.057H497.306ZM42.7349 71.6117C146.273 71.6117 249.83 71.6117 353.408 71.6117C394.624 80.5291 486.733 46.08 496.896 101.837C183.219 317.073 327.936 312.516 14.8053 100.13C14.8037 92.6675 17.7274 85.5016 22.9489 80.1699C28.1705 74.8383 35.2739 71.7658 42.7349 71.6117Z" fill="#262626"/>
</g>
<defs>
<clipPath id="clip0_11_16">
<rect width="512" height="512" fill="white"/>
</clipPath>
</defs>
</svg>
