<svg width="25" height="27" viewBox="0 0 25 27" fill="none" xmlns="http://www.w3.org/2000/svg">
<path d="M23.4137 26.7011H1.56082C1.28483 26.7011 1.02014 26.5827 0.824991 26.3718C0.629838 26.161 0.520203 25.875 0.520203 25.5768V1.96608C0.520203 1.66789 0.629838 1.38191 0.824991 1.17106C1.02014 0.96021 1.28483 0.841755 1.56082 0.841755H23.4137C23.6897 0.841755 23.9544 0.96021 24.1495 1.17106C24.3447 1.38191 24.4543 1.66789 24.4543 1.96608V25.5768C24.4543 25.875 24.3447 26.161 24.1495 26.3718C23.9544 26.5827 23.6897 26.7011 23.4137 26.7011Z" fill="#4DA34D"/>
<path d="M21.8529 24.4525H3.12184C2.98384 24.4525 2.8515 24.3933 2.75393 24.2878C2.65635 24.1824 2.60153 24.0394 2.60153 23.8903V3.65256C2.60153 3.50346 2.65635 3.36048 2.75393 3.25505C2.8515 3.14962 2.98384 3.0904 3.12184 3.0904H21.8529C21.9909 3.0904 22.1232 3.14962 22.2208 3.25505C22.3184 3.36048 22.3732 3.50346 22.3732 3.65256V23.8903C22.3732 24.0394 22.3184 24.1824 22.2208 24.2878C22.1232 24.3933 21.9909 24.4525 21.8529 24.4525Z" fill="white"/>
<path d="M9.88583 9.27416C9.88583 9.72145 10.0503 10.1504 10.3429 10.4667C10.6356 10.783 11.0325 10.9606 11.4464 10.9606C11.8603 10.9606 12.2573 10.783 12.5499 10.4667C12.8426 10.1504 13.007 9.72145 13.007 9.27416C13.007 8.82688 12.8426 8.39792 12.5499 8.08164C12.2573 7.76536 11.8603 7.58768 11.4464 7.58768C11.0325 7.58768 10.6356 7.76536 10.3429 8.08164C10.0503 8.39792 9.88583 8.82688 9.88583 9.27416Z" fill="#EFD358"/>
<path d="M12.3625 19.0276L9.24065 15.0925C9.04294 14.8429 8.6475 14.8429 8.44979 15.0925L5.32795 19.0276C5.26352 19.1094 5.22208 19.2093 5.20852 19.3157C5.19496 19.4221 5.20984 19.5304 5.25141 19.6279C5.29299 19.7254 5.35951 19.8081 5.44314 19.8661C5.52677 19.9241 5.62401 19.955 5.72338 19.9552H11.9671C12.0664 19.955 12.1637 19.9241 12.2473 19.8661C12.3309 19.8081 12.3975 19.7254 12.439 19.6279C12.4806 19.5304 12.4955 19.4221 12.4819 19.3157C12.4684 19.2093 12.4269 19.1094 12.3625 19.0276Z" fill="#4DA34D"/>
<path d="M19.6723 19.0625L15.5098 12.8787C15.3142 12.5881 14.8636 12.5881 14.668 12.8787L9.88583 19.9552H19.2514C19.3473 19.9552 19.4414 19.9266 19.5233 19.8724C19.6051 19.8182 19.6715 19.7406 19.715 19.6482C19.7586 19.5558 19.7777 19.4522 19.7701 19.3489C19.7626 19.2455 19.7287 19.1464 19.6723 19.0625Z" fill="#72C472"/>
</svg>
