<svg id="Icons" height="512" viewBox="0 0 60 60" width="512" xmlns="http://www.w3.org/2000/svg"><g fill="#e23d52"><path d="m48.234 38.854a.5.5 0 0 1 -.307-.895l5.052-3.943-3.463 2a.5.5 0 0 1 -.558-.827l3.971-3.1-2.9 1.673a.5.5 0 0 1 -.554-.829l2.885-2.215-2.114 1.221a.5.5 0 0 1 -.563-.823l3.44-2.774-2.823 1.627a.5.5 0 0 1 -.555-.829l2.043-1.568-1.576.91a.5.5 0 0 1 -.565-.82l2.919-2.377-2.587 1.494a.5.5 0 0 1 -.581-.807l3.602-3.172-3.488 2.014a.5.5 0 0 1 -.572-.814l3.009-2.562-3 1.733a.5.5 0 0 1 -.564-.821l2.18-1.765-2.186 1.263a.5.5 0 0 1 -.568-.819l2.35-1.936-2.475 1.429a.5.5 0 0 1 -.565-.822l2.035-1.648-2.216 1.274a.5.5 0 0 1 -.563-.822l1.928-1.554-2.172 1.25a.5.5 0 0 1 -.58-.808l2.889-2.538-3.452 1.996a.5.5 0 0 1 -.572-.815l2.513-2.122-3.092 1.787a.5.5 0 0 1 -.549-.833l.4-.3-.69.4a.5.5 0 0 1 -.575-.813l2.7-2.306-3.546 2.047a.5.5 0 0 1 -.557-.829l1.478-1.145-2.1 1.214a.5.5 0 0 1 -.576-.813l2.913-2.494-4.123 2.372a.5.5 0 0 1 -.554-.829l1.685-1.3-2.615 1.514a.5.5 0 0 1 -.577-.811l3.377-2.924-5.23 3.017a.5.5 0 0 1 -.564-.821l3.124-2.526-5.108 2.948a.5.5 0 0 1 -.564-.822l3.673-2.967-6.505 3.755a.5.5 0 0 1 -.556-.829l4.084-3.161-8.913 5.146a.5.5 0 1 1 -.5-.865l15.315-8.842a.5.5 0 0 1 .555.828l-4.087 3.163 5.646-3.258a.5.5 0 0 1 .564.822l-3.671 2.962 5.081-2.93a.5.5 0 0 1 .565.821l-3.12 2.525 4.25-2.454a.5.5 0 0 1 .577.811l-3.378 2.927 4.584-2.647a.5.5 0 0 1 .555.829l-1.687 1.3 2.287-1.32a.5.5 0 0 1 .575.812l-2.912 2.494 3.771-2.176a.5.5 0 0 1 .556.828l-1.473 1.142 1.909-1.1a.5.5 0 0 1 .575.812l-2.7 2.3 3.338-1.927a.5.5 0 0 1 .549.833l-.407.3.6-.346a.5.5 0 0 1 .572.815l-2.511 2.121 2.971-1.715a.5.5 0 0 1 .58.808l-2.888 2.537 3.365-1.943a.5.5 0 0 1 .563.823l-1.93 1.556 2.137-1.233a.5.5 0 0 1 .565.821l-2.033 1.647 2.2-1.267a.5.5 0 0 1 .568.818l-2.347 1.945 2.491-1.439a.5.5 0 0 1 .564.822l-2.179 1.762 2.23-1.287a.5.5 0 0 1 .574.814l-3.013 2.561 3.089-1.784a.5.5 0 0 1 .581.808l-3.608 3.176 3.654-2.109a.5.5 0 0 1 .566.82l-2.917 2.374 2.774-1.6a.5.5 0 0 1 .555.829l-2.047 1.57 1.786-1.028a.5.5 0 0 1 .564.822l-3.438 2.773 3.147-1.817a.5.5 0 0 1 .554.829l-2.893 2.217 2.485-1.434a.5.5 0 0 1 .558.826l-3.977 3.105 3.487-2.013a.5.5 0 0 1 .558.828l-5.045 3.941 4.4-2.541a.5.5 0 0 1 .5.865l-10.616 6.129a.493.493 0 0 1 -.25.068z"/><path d="m40.232 47.466a.5.5 0 0 1 -.275-.917l4.453-2.943-4.6 2.658a.5.5 0 0 1 -.553-.83l1.081-.824-1.384.8a.5.5 0 0 1 -.582-.806l2.972-2.64-3.7 2.136a.5.5 0 0 1 -.55-.833l.513-.386-.749.433a.5.5 0 0 1 -.587-.8l3.189-2.926-4.016 2.312a.5.5 0 0 1 -.561-.823l1.77-1.412-2.183 1.26a.5.5 0 0 1 -.584-.8l3.037-2.725-3.792 2.189a.5.5 0 0 1 -.573-.814l2.577-2.19-3.175 1.833a.5.5 0 0 1 -.56-.825l1.534-1.206-1.906 1.1a.5.5 0 0 1 -.59-.8l3.253-3.017-4.107 2.371a.5.5 0 0 1 -.569-.817l2.328-1.934-2.86 1.65a.5.5 0 0 1 -.579-.808l2.845-2.487-3.526 2.035a.5.5 0 0 1 -.59-.8l3.26-3.027-4.119 2.377a.5.5 0 0 1 -.582-.806l2.965-2.624-3.69 2.13a.5.5 0 0 1 -.574-.813l2.628-2.244-3.241 1.87a.5.5 0 0 1 -.572-.814l2.5-2.111-3.076 1.772a.5.5 0 0 1 -.567-.82l2.09-1.7-2.566 1.482a.5.5 0 0 1 -.548-.834l.159-.118-.352.2a.5.5 0 0 1 -.572-.817l2.418-2.023-2.971 1.716a.5.5 0 0 1 -.581-.808l2.927-2.586-3.638 2.1a.5.5 0 0 1 -.554-.83l.918-.7-1.2.694a.5.5 0 0 1 -.566-.82l2.085-1.7-2.561 1.479a.5.5 0 0 1 -.576-.812l2.711-2.335-3.348 1.933a.5.5 0 0 1 -.568-.818l2.256-1.864-2.829 1.633a.5.5 0 0 1 -.5-.865l8.015-4.627a.5.5 0 0 1 .568.818l-2.256 1.864 2.771-1.6a.5.5 0 0 1 .576.812l-2.716 2.336 3.348-1.932a.5.5 0 0 1 .565.82l-2.085 1.7 2.562-1.478a.5.5 0 0 1 .554.83l-.918.7 1.2-.693a.5.5 0 0 1 .581.807l-2.927 2.584 3.638-2.1a.5.5 0 0 1 .571.816l-2.42 2.026 2.974-1.717a.5.5 0 0 1 .548.834l-.15.111.347-.2a.5.5 0 0 1 .566.82l-2.092 1.7 2.569-1.482a.5.5 0 0 1 .572.814l-2.5 2.112 3.078-1.778a.5.5 0 0 1 .575.813l-2.628 2.244 3.24-1.87a.5.5 0 0 1 .582.806l-2.966 2.633 3.69-2.13a.5.5 0 0 1 .59.8l-3.259 3.03 4.118-2.377a.5.5 0 0 1 .579.808l-2.845 2.488 3.526-2.036a.5.5 0 0 1 .57.818l-2.326 1.931 2.857-1.649a.5.5 0 0 1 .59.8l-3.254 3.017 4.108-2.372a.5.5 0 0 1 .56.826l-1.533 1.206 1.905-1.1a.5.5 0 0 1 .573.813l-2.577 2.191 3.175-1.833a.5.5 0 0 1 .584.8l-3.037 2.721 3.792-2.188a.5.5 0 0 1 .561.823l-1.766 1.413 2.178-1.258a.5.5 0 0 1 .588.8l-3.188 2.928 4.013-2.316a.5.5 0 0 1 .667.157.5.5 0 0 1 -.117.676l-.513.385.749-.432a.5.5 0 0 1 .582.806l-2.971 2.639 3.948-2.279a.5.5 0 0 1 .553.83l-1.084.825 12.149-7.014a.5.5 0 0 1 .526.85l-4.442 2.934 3.572-2.061a.5.5 0 0 1 .5.865l-17.95 10.365a.5.5 0 0 1 -.25.066z"/><path d="m29.4 59.427a.5.5 0 0 1 -.268-.922l7.4-4.706-9.36 5.401a.5.5 0 0 1 -.517-.855l8.3-5.228-9.99 5.773a.5.5 0 0 1 -.515-.857l8.138-5.074-9.535 5.5a.5.5 0 0 1 -.532-.846l1.894-1.292-2.932 1.693a.5.5 0 0 1 -.539-.841l1.922-1.36-2.9 1.672a.5.5 0 0 1 -.535-.844l.15-.1-.8.465a.5.5 0 0 1 -.569-.818l3.63-3.01-5.013 2.893a.5.5 0 0 1 -.566-.819l3.037-2.482-4.115 2.375a.5.5 0 0 1 -.566-.821l2.649-2.151-3.521 2.027a.5.5 0 0 1 -.556-.828l1.648-1.272-2.215 1.278a.5.5 0 0 1 -.585-.8l3.245-2.929-4.226 2.44a.5.5 0 0 1 -.567-.82l2.214-1.806-2.757 1.59a.5.5 0 0 1 -.586-.8l3.138-2.844-3.881 2.24a.5.5 0 0 1 -.567-.819l2.148-1.764-2.53 1.461a.5.5 0 0 1 -.567-.819l2.168-1.78-2.488 1.435a.5.5 0 0 1 -.585-.8l3.157-2.863-3.627 2.1a.5.5 0 0 1 -.577-.812l2.8-2.4-3.076 1.767a.5.5 0 0 1 -.555-.829l1.109-.85-1.1.634a.5.5 0 0 1 -.56-.826l1.821-1.44-1.825 1.056a.5.5 0 0 1 -.548-.834l.471-.351-.337.194a.5.5 0 0 1 -.551-.829l1.57-1.217-1.47.845a.5.5 0 0 1 -.576-.811l3.464-2.979-3.442 1.989a.5.5 0 0 1 -.563-.823l2.717-2.172-2.531 1.462a.5.5 0 0 1 -.56-.825l2.809-2.217-2.546 1.468a.5.5 0 0 1 -.541-.839l.363-.261a.5.5 0 0 1 -.529-.842l3.33-2.6-2.93 1.69a.5.5 0 0 1 -.56-.824l4.446-3.524-3.933 2.27a.5.5 0 0 1 -.551-.831l4.34-3.283-3.7 2.136a.5.5 0 0 1 -.519-.854l1.539-.984-.883.509a.5.5 0 0 1 -.523-.852l3.287-2.139-2.532 1.458a.5.5 0 0 1 -.517-.854l15.813-10.04-14.759 8.52a.5.5 0 0 1 -.513-.856l9.155-5.723-8.037 4.64a.5.5 0 0 1 -.515-.856l6.226-3.888-4.996 2.884a.5.5 0 0 1 -.519-.855l8.54-5.45-6.9 3.985a.5.5 0 0 1 -.519-.854l4.4-2.8-2.594 1.5a.5.5 0 0 1 -.53-.847l6.862-4.64-3.83 2.204a.5.5 0 0 1 -.543-.84l4.159-2.97a.5.5 0 0 1 -.026-.88l6.586-3.8a.5.5 0 0 1 .541.839l-2.26 1.617 7.06-4.076a.5.5 0 0 1 .53.847l-6.87 4.644 10.4-6a.5.5 0 0 1 .519.854l-4.387 2.788 6.369-3.677a.5.5 0 0 1 .519.855l-8.547 5.455 10.599-6.119a.5.5 0 0 1 .515.856l-6.213 3.879 7.681-4.433a.5.5 0 0 1 .514.861l-9.163 5.723 10.627-6.135a.5.5 0 0 1 .518.854l-17.383 11.037a.5.5 0 0 1 .25.918l-3.3 2.15 3.688-2.129a.5.5 0 0 1 .519.853l-9.219 5.9c.011.014.022.028.032.043a.5.5 0 0 1 -.115.675l-4.343 3.282 2.812-1.623a.5.5 0 0 1 .561.824l-4.447 3.528 3.286-1.9a.5.5 0 0 1 .557.827l-3.331 2.6 2.521-1.455a.5.5 0 0 1 .541.838l-.482.346a.5.5 0 0 1 .441.875l-2.809 2.224 2.289-1.321a.5.5 0 0 1 .563.823l-2.721 2.174 2.339-1.35a.5.5 0 0 1 .576.812l-3.463 2.977 3.267-1.886a.5.5 0 0 1 .555.829l-1.579 1.22 1.385-.8a.5.5 0 0 1 .548.834l-.471.351.284-.164a.5.5 0 0 1 .561.825l-1.818 1.439 1.782-1.029a.5.5 0 0 1 .555.829l-1.111.852 1.085-.626a.5.5 0 0 1 .576.811l-2.8 2.405 3.076-1.776a.5.5 0 0 1 .585.8l-3.159 2.857 3.679-2.124a.5.5 0 0 1 .567.82l-2.168 1.781 2.568-1.476a.5.5 0 0 1 .567.819l-2.15 1.762 2.638-1.523a.5.5 0 0 1 .586.8l-3.135 2.841 4.072-2.351a.5.5 0 0 1 .567.82l-2.214 1.81 2.949-1.7a.5.5 0 0 1 .585.8l-3.244 2.93 4.568-2.637a.5.5 0 0 1 .556.828l-1.645 1.271 2.517-1.453a.5.5 0 0 1 .565.82l-2.652 2.154 3.99-2.3a.5.5 0 0 1 .567.819l-3.033 2.483 4.8-2.774a.5.5 0 0 1 .569.818l-3.623 3.008 6.169-3.562a.5.5 0 0 1 .536.844l-.158.108 1.82-1.05a.5.5 0 0 1 .539.841l-1.918 1.357 5.07-2.925a.5.5 0 0 1 .532.846l-1.9 1.3 23.542-13.599a.5.5 0 0 1 .514.856l-8.135 5.072 7.024-4.054a.5.5 0 0 1 .517.855l-8.29 5.22 6.951-4.013a.5.5 0 0 1 .518.855l-7.4 4.706 5.783-3.339a.5.5 0 0 1 .532.846l-10.705 7.316 7.765-4.482a.5.5 0 0 1 .523.851l-2.329 1.521a.5.5 0 0 1 .2.93l-13.933 8.048a.5.5 0 0 1 -.523-.851l.939-.615-3.549 2.049a.5.5 0 0 1 -.532-.846l10.7-7.314-14.552 8.4a.5.5 0 0 1 -.25.069z"/></g><path d="m7.157 11.283c-29.124 40.908 40.207 71.573 52.166 23.466 5.277-29.293-33.582-46.288-52.166-23.466zm50.8 14.58c4.618 28.037-32.286 44.596-49.87 22.043-27.308-39.797 38.993-69.269 49.867-22.043z" fill="#262626"/><path d="m20.538 15.111c8.512 8.389 16.835 17.074 25.44 25.314 4.518.3 4.87-9.66 4.617-12.932-1.363-14.232-18.595-22.472-30.695-15.104-1.577.953-.2 1.882.638 2.722zm1.841-3.318c16.475-7.387 33.38 12.544 24.556 27.868-8.63-8.691-17.372-17.354-26.026-26.044-.943-.833.766-1.569 1.47-1.824z" fill="#262626"/><path d="m39.257 44.688c-8.321-8.288-16.612-16.665-24.923-24.923-1.521-1.056-2.679.834-3.2 1.949a20.151 20.151 0 0 0 2.216 20.577c7.534 12.341 33.236 7.401 25.907 2.397zm-24.657-3.057a20.088 20.088 0 0 1 -1.51-21.258c8.048 8.045 16.136 16.147 24.2 24.207.426.425 2.648 2.051 1.945 2.838-8.396 4.62-19.035 1.808-24.635-5.787z" fill="#262626"/></svg>