<svg width="22" height="24" viewBox="0 0 19 21" fill="none" xmlns="http://www.w3.org/2000/svg">
<path d="M5.81555 18.5994C6.66474 19.6789 7.99878 20.3746 9.49888 20.3746C10.999 20.3746 12.333 19.6789 13.1822 18.5994C10.7371 18.9308 8.26068 18.9308 5.81555 18.5994Z" fill="#325187"/>
<path d="M16.313 7.2494V7.96028C16.313 8.81341 16.5565 9.64747 17.0127 10.3572L18.1308 12.0968C19.1521 13.6857 18.3725 15.8453 16.5962 16.3478C11.9495 17.6621 7.04825 17.6621 2.40156 16.3478C0.625314 15.8453 -0.154351 13.6857 0.866928 12.0968L1.98503 10.3572C2.4413 9.64747 2.68477 8.81341 2.68477 7.96028V7.2494C2.68477 3.34619 5.73555 0.182007 9.49888 0.182007C13.2622 0.182007 16.313 3.34619 16.313 7.2494Z" fill="#325187"/>
</svg>
