<svg id="Icons" height="512" viewBox="0 0 60 60" width="512" xmlns="http://www.w3.org/2000/svg"><path d="m19.963 45.5a.5.5 0 0 1 -.281-.914l4.91-3.334-5.312 3.065a.5.5 0 0 1 -.537-.841l6.505-4.553-5.968 3.445a.5.5 0 0 1 -.542-.838l7.062-5.094-6.2 3.579a.5.5 0 0 1 -.536-.844l4.7-3.259-3.055 1.763a.5.5 0 0 1 -.531-.847l3.858-2.618a.5.5 0 0 1 -.236-.91l3.7-2.522-1.371.791a.5.5 0 0 1 -.529-.847l2.312-1.556-1.644.949a.5.5 0 0 1 -.535-.843l4.915-3.408-4.76 2.748a.5.5 0 0 1 -.527-.849l1.739-1.163-1.821 1.051a.5.5 0 0 1 -.54-.84l7.345-5.225-8.2 4.735a.5.5 0 0 1 -.533-.845l5.427-3.736-6.088 3.52a.5.5 0 0 1 -.542-.838l5.581-4.022-6.321 3.65a.5.5 0 0 1 -.539-.841l3.278-2.316-3.579 2.065a.5.5 0 0 1 -.547-.835l3.084-2.282-3.2 1.848a.5.5 0 0 1 -.584-.8l3.379-3.043-3.33 1.923a.5.5 0 0 1 -.617-.769l1.747-1.895-1.221.7a.5.5 0 0 1 -.739-.538l.317-1.484a.5.5 0 0 1 -.078-.9l.5-.289a.5.5 0 0 1 .74.537l-.267 1.248 3.1-1.79a.5.5 0 0 1 .618.772l-1.747 1.89 4.619-2.667a.5.5 0 0 1 .584.8l-3.386 3.041 6.672-3.851a.5.5 0 0 1 .548.835l-3.079 2.291 5.4-3.12a.5.5 0 0 1 .539.841l-3.276 2.315 5.474-3.16a.5.5 0 0 1 .542.838l-5.577 4.019 8.42-4.862a.5.5 0 0 1 .533.845l-5.429 3.737 6.409-3.7a.5.5 0 0 1 .54.84l-7.344 5.225 6.8-3.928a.5.5 0 0 1 .526.85l-1.748 1.16 1.135-.655a.5.5 0 0 1 .535.844l-4.917 3.411 3.775-2.178a.5.5 0 0 1 .529.847l-2.307 1.549.293-.169a.5.5 0 0 1 .532.846l-4.365 2.977a.62.62 0 0 1 .435.235.5.5 0 0 1 -.143.679l-2.881 1.955 1.652-.953a.5.5 0 0 1 .535.844l-4.698 3.258 4.258-2.459a.5.5 0 0 1 .542.838l-7.065 5.095 7.36-4.249a.5.5 0 0 1 .537.842l-6.507 4.555 7.235-4.177a.5.5 0 0 1 .531.847l-4.9 3.33 5.5-3.174a.5.5 0 0 1 .536.843l-4.863 3.4 5.497-3.181a.5.5 0 0 1 .554.829l-5.624 4.317 6.289-3.631a.5.5 0 0 1 .571.817l-4.451 3.723 4.729-2.73a.5.5 0 0 1 .566.821l-2.031 1.644 1.783-1.03a.5.5 0 0 1 .63.758l-1.677 1.969 1.134-.654a.5.5 0 0 1 .705.64l-.383.835a.5.5 0 0 1 .193.93l-.98.566a.5.5 0 0 1 -.7-.64l.311-.682-2.3 1.325a.5.5 0 0 1 -.63-.758l1.682-1.968-4.732 2.732a.5.5 0 0 1 -.566-.821l2.024-1.642-4.272 2.467a.5.5 0 0 1 -.57-.816l4.459-3.725-7.876 4.546a.5.5 0 0 1 -.555-.829l5.624-4.318-8.928 5.152a.5.5 0 0 1 -.536-.843l4.858-3.4-7.349 4.244a.494.494 0 0 1 -.25.072z" fill="#d6e6e7"/><g fill="#73c581"><path d="m48.565 47.272a.5.5 0 0 1 -.308-.893l3.118-2.45-.094.053a.5.5 0 0 1 -.563-.822l1.8-1.445a.5.5 0 0 1 -.5-.839l2.96-2.788-1.111.641a.5.5 0 0 1 -.589-.8l1.841-1.7-.6.344a.5.5 0 0 1 -.593-.8l1.5-1.411-.509.293a.5.5 0 0 1 -.605-.785l1.655-1.666-.791.456a.5.5 0 0 1 -.614-.776l1.083-1.143-.378.218a.5.5 0 0 1 -.644-.741l.583-.743a.5.5 0 0 1 -.139-.92l1.659-.958a.5.5 0 0 1 .643.741l-.362.462 1.114-.644a.5.5 0 0 1 .613.777l-1.084 1.146 1.062-.612a.5.5 0 0 1 .6.785l-1.654 1.666 1-.575a.5.5 0 0 1 .593.8l-1.5 1.409.744-.43a.5.5 0 0 1 .589.8l-1.843 1.7.946-.546a.5.5 0 0 1 .593.8l-2.961 2.789 1.745-1.007a.5.5 0 0 1 .564.823l-1.744 1.4.556-.321a.5.5 0 0 1 .559.826l-3.116 2.448 1.555-.9a.5.5 0 1 1 .5.865l-7.625 4.4a.491.491 0 0 1 -.248.073z"/><path d="m51.813 8.729a.5.5 0 0 1 -.25-.933l1.637-.945a.5.5 0 1 1 .5.865l-1.638.945a.5.5 0 0 1 -.249.068z"/><path d="m53.644 17.438a.5.5 0 0 1 -.408-.791l.1-.141-1.3.749a.5.5 0 0 1 -.64-.746l1.495-1.858-4.157 2.4a.5.5 0 0 1 -.562-.823l1.261-1.01-2.833 1.637a.5.5 0 0 1 -.575-.813l4.186-3.557-4.375 2.526a.5.5 0 0 1 -.542-.839l2.11-1.518a.49.49 0 0 1 -.225-.135.5.5 0 0 1 -.06-.616l1.073-1.677-1.846 1.064a.5.5 0 0 1 -.641-.744l.823-1.033-1.4.808a.5.5 0 0 1 -.68-.687l1.052-1.77-2.162 1.246a.5.5 0 0 1 -.637-.75l.784-.956-1.558.9a.5.5 0 0 1 -.611-.78l.372-.385-.978.561a.5.5 0 0 1 -.675-.7l1.049-1.685-2.577 1.494a.5.5 0 0 1 -.65-.735l1-1.317-2.457 1.413a.5.5 0 0 1 -.636-.75l.983-1.2-2.579 1.492a.5.5 0 0 1 -.59-.8l.281-.262-1.47.849a.5.5 0 0 1 -.6-.793l.65-.627-2.3 1.325a.5.5 0 0 1 -.6-.792l.9-.869-3.184 1.845a.5.5 0 0 1 -.626-.763l1.608-1.832-7.291 4.207a.5.5 0 0 1 -.5-.865l9.916-5.724a.5.5 0 0 1 .626.763l-1.609 1.833 4.102-2.367a.5.5 0 0 1 .6.792l-.9.868 2.3-1.328a.5.5 0 0 1 .6.793l-.651.628 1.77-1.024a.5.5 0 0 1 .59.8l-.278.259 1.115-.644a.5.5 0 0 1 .637.75l-.984 1.2 2.207-1.274a.5.5 0 0 1 .65.734l-1 1.319 2.174-1.255a.5.5 0 0 1 .675.7l-1.046 1.681 2.323-1.339a.5.5 0 0 1 .61.779l-.373.387.86-.5a.5.5 0 0 1 .637.75l-.783.954 1.437-.829a.5.5 0 0 1 .68.687l-1.05 1.772 2.033-1.173a.5.5 0 0 1 .641.744l-.823 1.034 1.335-.77a.5.5 0 0 1 .671.7l-1.073 1.677 5.268-3.041a.5.5 0 0 1 .67.161.5.5 0 0 1 -.128.678l-.889.638.5-.288a.5.5 0 0 1 .575.814l-4.185 3.555 3.747-2.163a.5.5 0 0 1 .563.824l-1.259 1.01.781-.45a.5.5 0 0 1 .64.746l-1.494 1.858.98-.566a.5.5 0 0 1 .657.723l-.34.476a.5.5 0 0 1 .089.906l-1.346.778a.5.5 0 0 1 -.25.067z"/><path d="m30.987 59.445a.5.5 0 0 1 -.355-.852l1.856-1.871-4.488 2.589a.5.5 0 0 1 -.658-.721l1.412-2-3.974 2.294a.5.5 0 0 1 -.669-.706l1.219-1.866-3.3 1.9a.5.5 0 0 1 -.675-.7l1.118-1.8-2.873 1.664a.5.5 0 0 1 -.661-.719l1.045-1.5-2.354 1.36a.5.5 0 0 1 -.683-.684l1.053-1.808-2.41 1.391a.5.5 0 0 1 -.6-.791l.073-.07-.451.259a.5.5 0 0 1 -.653-.727l.937-1.282-1.747 1.008a.5.5 0 0 1 -.632-.755l.715-.85-1.238.715a.5.5 0 0 1 -.675-.7l1.053-1.69-1.872 1.084a.5.5 0 0 1 -.678-.691l1.087-1.8-1.843 1.062a.5.5 0 0 1 -.635-.751l.778-.945-1.09.629a.5.5 0 0 1 -.642-.742l.895-1.138-1.2.7a.5.5 0 0 1 -.613-.777l.4-.418-.458.264a.5.5 0 0 1 -.631-.757l.783-.919-.914.527a.5.5 0 0 1 -.641-.743l.993-1.251-1.145.66a.5.5 0 0 1 -.608-.781l.384-.394-.306.175a.5.5 0 0 1 -.616-.787l.37-.377-.254.147a.5.5 0 0 1 -.626-.763l.894-1.018-.828.478a.5.5 0 0 1 -.622-.767l.9-1-.77.444a.5.5 0 0 1 -.641-.743l1.377-1.741-1.279.738a.5.5 0 0 1 -.646-.738l1.628-2.122-1.463.844a.5.5 0 0 1 -.613-.777l1.083-1.139-.726.419a.5.5 0 0 1 -.61-.779l1.2-1.251-.776.447a.5.5 0 0 1 -.598-.783l1.317-1.35-.808.467a.5.5 0 0 1 -.624-.765l2.139-2.411-1.512.873a.5.5 0 0 1 -.612-.779l2.3-2.411-1.485.857a.5.5 0 0 1 -.6-.788l2.62-2.588-1.6.922a.5.5 0 0 1 -.582-.807l2.447-2.165-1.281.74a.5.5 0 0 1 -.566-.821l2.218-1.8-.938.541a.5.5 0 0 1 -.543-.838l.874-.632a.5.5 0 0 1 -.222-.9l3.391-2.4-1.7.984a.5.5 0 0 1 -.515-.857l1.4-.875a.484.484 0 0 1 -.455-.237.5.5 0 0 1 .153-.681l3.428-2.238-1.076.621a.5.5 0 0 1 -.547-.835l4.856-3.576a.5.5 0 0 1 -.16-.925l6.591-3.8a.5.5 0 0 1 .547.835l-3.988 2.931 9.583-5.532a.5.5 0 0 1 .522.851l-3.435 2.23 5.963-3.438a.5.5 0 0 1 .516.857l-12.074 7.571a.5.5 0 0 1 -.151.646l-5.05 3.572a.5.5 0 0 1 .113.872l-1.689 1.22a.5.5 0 0 1 .112.844l-2.219 1.8.113-.065a.5.5 0 0 1 .582.807l-2.443 2.169.694-.4a.5.5 0 0 1 .6.788l-2.616 2.586 1.133-.655a.5.5 0 0 1 .612.779l-2.3 2.411 1.174-.678a.5.5 0 0 1 .624.765l-2.148 2.412 1.274-.734a.5.5 0 0 1 .607.782l-1.317 1.349.683-.394a.5.5 0 0 1 .611.779l-1.201 1.255.671-.387a.5.5 0 0 1 .612.778l-1.084 1.134.641-.37a.5.5 0 0 1 .647.738l-1.627 2.123 1.374-.792a.5.5 0 0 1 .642.743l-1.38 1.738 1.212-.7a.5.5 0 0 1 .622.766l-.9 1 .741-.427a.5.5 0 0 1 .626.762l-.892 1.016.806-.465a.5.5 0 0 1 .606.783l-.372.379.244-.14a.5.5 0 0 1 .608.781l-.382.394.3-.173a.5.5 0 0 1 .642.743l-.992 1.25 1.147-.662a.5.5 0 0 1 .631.756l-.783.919.927-.534a.5.5 0 0 1 .613.777l-.395.418.476-.276a.5.5 0 0 1 .643.742l-.9 1.139 1.235-.712a.5.5 0 0 1 .635.751l-.777.943 1.127-.65a.5.5 0 0 1 .678.691l-1.087 1.8 1.925-1.104a.5.5 0 0 1 .674.7l-1.052 1.689 1.978-1.144a.5.5 0 0 1 .633.755l-.716.849 1.328-.766a.5.5 0 0 1 .654.727l-.937 1.282 1.877-1.083a.5.5 0 0 1 .649.131.5.5 0 0 1 -.05.66l-.074.071.556-.32a.494.494 0 0 1 .6.079.5.5 0 0 1 .079.6l-1.049 1.808 2.674-1.544a.5.5 0 0 1 .66.719l-1.045 1.5 2.661-1.531a.5.5 0 0 1 .61.085.5.5 0 0 1 .065.612l-1.118 1.8 3.39-1.951a.5.5 0 0 1 .669.706l-1.216 1.864 4.131-2.385a.5.5 0 0 1 .659.721l-1.412 2 5.75-3.32a.5.5 0 0 1 .605.785l-1.856 1.872 20.337-11.743a.5.5 0 0 1 .538.842l-9.259 6.5 5.632-3.251a.5.5 0 0 1 .538.842l-3.879 2.731a.5.5 0 0 1 -.025.85l-6.6 3.81a.5.5 0 0 1 -.538-.842l1.373-.967-5.8 3.349a.5.5 0 0 1 -.537-.842l9.259-6.5-13.779 7.956a.489.489 0 0 1 -.25.067z"/></g><path d="m38.291 16.47a.5.5 0 0 1 -.354-.854l.812-.809-2.765 1.6a.5.5 0 0 1 -.641-.743l1.495-1.883-4.55 2.619a.5.5 0 0 1 -.655-.725l1.478-2.043-4.8 2.768a.5.5 0 0 1 -.622-.766l1.439-1.6-4.103 2.366a.5.5 0 0 1 -.646-.737l1.492-1.945-4.647 2.682a.5.5 0 0 1 -.606-.784l1.282-1.29-3.245 1.874a.5.5 0 0 1 -.576-.811l.3-.263-.1.06a.5.5 0 0 1 -.707-.637l.606-1.355a.5.5 0 0 1 -.346-.923l1.161-.67a.5.5 0 0 1 .707.636l-.586 1.313 3.377-1.95a.5.5 0 0 1 .576.811l-.3.263 1.857-1.074a.5.5 0 0 1 .605.784l-1.279 1.29 3.6-2.076a.5.5 0 0 1 .646.737l-1.496 1.945 4.65-2.682a.5.5 0 0 1 .622.766l-1.439 1.6 4.107-2.364a.5.5 0 0 1 .655.725l-1.479 2.043 4.8-2.768a.5.5 0 0 1 .642.743l-1.494 1.882 3.793-2.19a.5.5 0 0 1 .6.786l-.81.809.373-.215a.5.5 0 0 1 .6.078.5.5 0 0 1 .082.6l-.402.714a.5.5 0 0 1 .17.925l-1.16.67a.5.5 0 0 1 -.685-.68l.3-.519-2.078 1.2a.49.49 0 0 1 -.256.067z" fill="#5b6a7c"/><path d="m23.085 48.47a.5.5 0 0 1 -.328-.877l.613-.533-2.327 1.34a.5.5 0 0 1 -.578-.809l.616-.536-2.2 1.268a.5.5 0 0 1 -.62-.769l1.353-1.487-1.336.771a.5.5 0 0 1 -.7-.66l.5-.98a.5.5 0 0 1 -.25-.932l1.161-.67a.5.5 0 0 1 .7.66l-.445.871 2.656-1.527a.5.5 0 0 1 .621.769l-1.355 1.487 3.908-2.256a.5.5 0 0 1 .578.809l-.615.535 2.33-1.344a.5.5 0 0 1 .578.809l-.614.534 2.329-1.343a.5.5 0 0 1 .645.74l-1.5 1.915 4.6-2.655a.5.5 0 0 1 .6.791l-1.174 1.14 3.353-1.931a.5.5 0 0 1 .628.759l-1.468 1.7 4.256-2.459a.5.5 0 0 1 .642.742l-1.494 1.9 2.965-1.711a.5.5 0 0 1 .672.7l-.821 1.289.154-.088a.5.5 0 0 1 .5.865l-1.918 1.103a.5.5 0 0 1 -.672-.7l.82-1.289-3.448 1.989a.5.5 0 0 1 -.643-.742l1.495-1.9-4.575 2.642a.5.5 0 0 1 -.628-.759l1.468-1.7-4.258 2.459a.5.5 0 0 1 -.6-.791l1.173-1.14-3.345 1.931a.5.5 0 0 1 -.627-.1.5.5 0 0 1 -.018-.636l1.5-1.916-4.6 2.656a.493.493 0 0 1 -.257.066z" fill="#5b6a7c"/><path d="m29.9 28.175a.5.5 0 0 1 -.405-.793l1.44-1.989-1.528.88a.5.5 0 0 1 -.557-.827l1.622-1.265-1.862 1.075a.5.5 0 0 1 -.61-.781l2.15-2.214-2.923 1.687a.5.5 0 0 1 -.6-.792l.694-.673-1.056.61a.5.5 0 0 1 -.682-.686l.586-1-1.091.629a.5.5 0 0 1 -.69-.2l-.608-1.129a.5.5 0 0 1 -.422-.9l.371-.214a.5.5 0 0 1 .691.2l.6 1.122 2.292-1.315a.494.494 0 0 1 .6.08.5.5 0 0 1 .077.605l-.586 1 2.921-1.685a.5.5 0 0 1 .6.792l-.694.673 2.536-1.465a.5.5 0 0 1 .608.781l-2.15 2.214 4.97-2.869a.5.5 0 0 1 .558.827l-3.691 2.88.022.023a.5.5 0 0 1 .034.628l-2.491 3.444a.5.5 0 0 1 -.251.453l-.225.129a.5.5 0 0 1 -.25.065z" fill="#efac54"/><path d="m22.95 44.47a.5.5 0 0 1 -.3-.9l2.392-1.8-4.558 2.63a.5.5 0 0 1 -.563-.822l7.705-6.2a.5.5 0 0 1 .214-.619l2.007-1.16a.5.5 0 0 1 .563.823l-4.8 3.863 6.077-3.508a.5.5 0 0 1 .55.832l-2.39 1.8 2.941-1.7a.5.5 0 0 1 .58.807l-2.843 2.507 3.673-2.121a.5.5 0 0 1 .617.774l-2.038 2.189 2.923-1.683a.5.5 0 0 1 .6.074.5.5 0 0 1 .091.6l-.978 1.8 1.906-1.1a.5.5 0 0 1 .75.428l.009 1.128.644-.371a.5.5 0 0 1 .5.866l-1.387.8a.5.5 0 0 1 -.75-.428l-.009-1.128-2.7 1.556a.5.5 0 0 1 -.69-.672l.977-1.795-4.274 2.46a.5.5 0 0 1 -.617-.773l2.038-2.19-5.134 2.963a.5.5 0 0 1 -.58-.807l2.842-2.5-5.738 3.307a.493.493 0 0 1 -.25.07z" fill="#efac54"/><path d="m45.15 14.136c-1.992 4.107 5.031 2.869 7.272 3.216 1.938.12 3.555-.392 3.416-2.634.119-3.746-.18-11.6-5.26-6.072-16.373-16.27-46.972-6.07-49.958 16.934-4.082 22.067 20.29 40.72 40.63 31.604 12.964-2.776 25.477-32.055 14.456-29.252-1.966 1.046-1.4 3.561-1.647 5.425a24.67 24.67 0 0 1 -5.324 12.343c-12.245 15.972-39.395 8.52-42.551-11.11-4.855-22.913 24.005-38.83 40.622-22.131a18.065 18.065 0 0 0 -1.656 1.677zm1.178.29c.331-.9 2.034-1.452 2.012-2.379-14.33-15.083-42.133-5.527-43.915 15.268-3.274 27.33 35.054 38.819 48.056 14.95 2.587-4.023 2.855-8.86 3.558-13.34 1.064-1.293 2.128.264 2.231 1.23.581 21.267-24.651 35.963-42.67 24.319-34.864-23.134 2.787-73.121 34.241-44.69 1.348.717 2.124-1.466 3.1-1.988 1.576-1.072 1.585 7.722 1.312 8.513-.908.333-9.811.422-7.925-1.883z" fill="#262626"/><path d="m39.486 23.743c1.981-2.179 2.218-4.687 2.236-7.441.807-.4 1.013-1.175 1.013-2.237.545-3.115-2.626-2.716-4.762-2.612-6.285.031-12.579-.048-18.859 0-2.323-.061-2.646 4.2-.836 4.977-1.118 7.639 5.829 8.119 7 13.764-1.112 5.5-8.078 6.106-7 13.527-1.432.633-1.41 3.411-.485 4.441 3.246.939 7.06.038 10.463.335 4.334-.082 8.724.157 13.03-.086 1.875-.333 2.032-4.135.435-4.813 1.615-10.323-14.638-10.661-2.235-19.855zm-20.751-10.523c.083-.635.115-.6.6-.673 7.166 0 14.434-.008 21.572 0 .413.194.66 2.824.151 2.906h-20.804c-1.541.507-1.754-1.028-1.519-2.233zm1.533 34.28c-1.578.52-1.759-1.091-1.536-2.3.012-.83.409-.669.989-.743 7.039.1 14.164-.01 21.175.034.416.2.682 2.926.177 3.008zm9.249-10.857c3.267 1.068 5.864 4.842 8.854 6.851-5.644 0-11.283.043-16.927-.023 2.701-2.254 5.377-4.584 8.073-6.824zm3.757-6.562c.719 5.249 8.41 7.01 7.008 13.278-3.233-2.492-6.1-5.661-9.558-7.772.438-1.478-1.772-1.177-1.448.1-3.379 2.25-6.284 5.262-9.482 7.786h-.073c-1.554-6.645 6.024-8.33 7-13.674-.879-5.143-8.407-6.959-7.011-13.2 6.884-.151 13.688-.017 20.564-.06 1.548 6.419-6.083 8.269-7 13.546z" fill="#262626"/><path d="m36.851 19.588c-26.316.1-7.883-1.154-7.413 11.812 2.517.655.448-4.548 2.334-5.869.74-1.631 6.428-4.554 5.079-5.943zm-4.4 3.835a10.118 10.118 0 0 0 -2.407 2.69c-1.183-2.283-3.777-3.77-5.476-5.7h11.056a18.863 18.863 0 0 1 -3.171 3.01z" fill="#262626"/></svg>