<svg width="321" height="321" viewBox="0 0 321 321" fill="none" xmlns="http://www.w3.org/2000/svg">
<g clip-path="url(#clip0_21_2)">
<path d="M117.454 168.359C116.566 168.359 115.694 167.915 115.186 167.107C114.42 165.882 114.763 164.282 115.956 163.469L128.748 154.808L107.385 167.145C106.16 167.867 104.56 167.476 103.79 166.262C103.02 165.048 103.346 163.453 104.523 162.629L141.245 137.174L94.5292 164.143C93.2719 164.876 91.6669 164.47 90.9072 163.223C90.1475 161.977 90.522 160.366 91.7418 159.58L103.282 152.143L87.2211 161.41C85.9638 162.137 84.3749 161.736 83.6152 160.511C82.8448 159.286 83.1925 157.681 84.3963 156.873L130.749 125.741L77.6018 156.423C76.3445 157.162 74.7342 156.75 73.9745 155.492C73.2201 154.246 73.6053 152.625 74.8358 151.844L82.3365 147.104L72.2946 152.898C71.0373 153.625 69.4323 153.224 68.6726 151.977C67.9129 150.742 68.2874 149.121 69.5072 148.334L102.923 126.795L66.1314 148.035C64.8741 148.767 63.2691 148.361 62.5094 147.114C61.7497 145.878 62.1242 144.263 63.3387 143.471L102.19 118.39L60.4711 142.476C59.2085 143.203 57.6142 142.802 56.8598 141.572C56.0948 140.341 56.4532 138.731 57.6516 137.928L116.849 98.7129L54.2009 134.879C52.9383 135.617 51.3386 135.195 50.5789 133.953C49.8192 132.712 50.1937 131.096 51.4135 130.31L90.2706 105.374L50.0386 128.598C48.7813 129.336 47.1656 128.924 46.4113 127.667C45.6569 126.421 46.0421 124.799 47.2673 124.018L70.1492 109.552L46.9998 122.916C45.7479 123.649 44.1429 123.237 43.3778 122.001C42.6181 120.766 42.9873 119.15 44.2017 118.358L91.8649 87.403L43.7256 115.191C42.4683 115.918 40.874 115.523 40.109 114.281C39.3493 113.056 39.7077 111.441 40.9115 110.643L96.3321 74.0494L41.0131 105.989C39.7559 106.722 38.1562 106.31 37.3965 105.074C36.6368 103.838 37.0006 102.228 38.2097 101.436L83.8238 71.5884L39.483 97.1828C38.2258 97.9157 36.6208 97.5091 35.8611 96.2626C35.1014 95.0267 35.4759 93.411 36.6903 92.6192L67.1425 72.9526L38.948 89.2273C37.6908 89.971 36.0804 89.5483 35.3207 88.2964C34.5664 87.0552 34.9516 85.4342 36.1767 84.6531L42.6395 80.5496L39.0818 82.604C37.8245 83.3316 36.2302 82.9357 35.4705 81.6999C34.7055 80.4694 35.0639 78.859 36.2623 78.0565L69.9566 55.7363L40.339 72.8349C39.0764 73.5679 37.4875 73.1559 36.7224 71.9254C35.9627 70.6949 36.3265 69.0792 37.5303 68.2821L55.0248 56.8063L42.5646 64.0021C41.3448 64.7243 39.7719 64.3445 38.9908 63.1514C38.2097 61.9637 38.4933 60.3748 39.6382 59.5348L77.4787 31.5971L49.7443 47.6097C48.5459 48.3159 47.0051 47.9681 46.2133 46.8232C45.4215 45.6837 45.6302 44.1268 46.7002 43.2387L66.0511 27.1887C65.0239 27.2208 64.0609 26.7768 63.5313 25.8566C62.7876 24.5779 63.2263 22.9408 64.5103 22.2025L89.5323 7.75752C90.736 7.05132 92.2715 7.39907 93.0633 8.54397C93.8551 9.68352 93.6464 11.2404 92.5764 12.1285L74.4346 27.1727L116.09 3.20467C117.315 2.49312 118.882 2.86762 119.663 4.05532C120.445 5.24302 120.161 6.83197 119.016 7.67192L81.1756 35.6043L133.905 5.15742C135.162 4.42982 136.757 4.83642 137.522 6.06692C138.281 7.29742 137.918 8.91312 136.714 9.71027L119.187 21.2021L142.706 7.62912C143.958 6.89082 145.557 7.29742 146.317 8.53327C147.082 9.76377 146.724 11.3741 145.525 12.1766L111.842 34.4861L151.763 11.4383C153.031 10.7054 154.636 11.1173 155.391 12.3692C156.145 13.6104 155.76 15.2315 154.535 16.0126L148.018 20.1428L157.579 14.6269C158.831 13.894 160.441 14.3006 161.201 15.5471C161.961 16.783 161.586 18.3987 160.372 19.1905L129.893 38.8731L164.186 19.0781C165.449 18.3505 167.048 18.7571 167.803 19.993C168.562 21.2235 168.199 22.8392 166.99 23.631L121.429 53.4412L171.029 24.8026C172.275 24.0643 173.875 24.4709 174.645 25.7121C175.405 26.9373 175.047 28.553 173.843 29.3501L118.396 65.9602L177.636 31.7576C178.893 31.0247 180.493 31.4313 181.258 32.6725C182.018 33.9083 181.649 35.524 180.434 36.3158L132.776 67.2709L182.729 38.4291C183.992 37.6961 185.602 38.1081 186.357 39.36C187.111 40.6119 186.726 42.2276 185.501 43.0087L162.651 57.4483L186.105 43.9128C187.362 43.1852 188.967 43.5918 189.727 44.8384C190.487 46.0742 190.112 47.6953 188.892 48.4817L149.977 73.4609L189.502 50.6431C190.754 49.9048 192.354 50.3168 193.114 51.5473C193.879 52.7778 193.52 54.3881 192.322 55.1906L133.162 94.3794L192.953 59.8612C194.216 59.1282 195.821 59.5348 196.575 60.7814C197.335 62.0172 196.96 63.6329 195.746 64.4247L156.825 89.5483L194.927 67.5545C196.185 66.8215 197.79 67.2281 198.549 68.4747C199.309 69.7105 198.934 71.3316 197.715 72.118L164.363 93.6197L196.051 75.328C197.319 74.6004 198.924 75.0124 199.678 76.2589C200.432 77.5055 200.047 79.1265 198.817 79.9076L191.348 84.6317L196.441 81.6892C197.688 80.9509 199.288 81.3628 200.047 82.588C200.818 83.8131 200.47 85.4181 199.266 86.226L152.898 117.368L195.928 92.5229C197.19 91.79 198.795 92.1966 199.55 93.4431C200.309 94.6843 199.935 96.3 198.715 97.0865L187.175 104.523L194.692 100.184C195.917 99.4565 197.517 99.8524 198.287 101.067C199.057 102.281 198.731 103.876 197.554 104.7L160.858 130.133L190.84 112.832C192.086 112.109 193.681 112.5 194.446 113.725C195.211 114.95 194.868 116.55 193.675 117.363L180.83 126.062L185.891 123.141C187.143 122.419 188.727 122.809 189.492 124.029C190.262 125.249 189.93 126.843 188.743 127.662L180.686 133.188C181.402 133.343 182.05 133.782 182.44 134.467C183.184 135.746 182.745 137.383 181.461 138.121L131.321 167.07C130.075 167.803 128.491 167.402 127.721 166.182C126.95 164.967 127.282 163.368 128.47 162.549L129.251 162.014L118.84 168.022C118.417 168.268 117.957 168.381 117.502 168.381L117.454 168.359Z" fill="#5795CE"/>
<path d="M35.3261 318.165C34.4166 318.165 33.5285 317.699 33.0256 316.864C32.2766 315.607 32.6778 313.986 33.919 313.21L60.883 296.545L24.059 317.806C22.7964 318.544 21.1914 318.132 20.4263 316.87C19.672 315.623 20.0625 314.002 21.293 313.226L87.1087 271.85L13.1236 314.559C11.8663 315.302 10.256 314.88 9.49626 313.628C8.74191 312.387 9.12176 310.765 10.3523 309.984L93.1649 257.415L7.64516 306.79C6.37721 307.523 4.75081 307.101 4.00716 305.838C3.25816 304.581 3.66476 302.954 4.91131 302.189L9.42671 299.434L6.85336 300.916C5.59611 301.654 3.98576 301.237 3.23141 299.991C2.47171 298.755 2.84621 297.134 4.06601 296.347L91.5653 240.199L6.84801 289.114C5.59076 289.858 3.98041 289.435 3.22071 288.183C2.46636 286.937 2.85156 285.316 4.08206 284.534L64.1519 246.635L6.84801 279.719C5.59076 280.452 3.99111 280.046 3.23141 278.805C2.46636 277.569 2.83551 275.953 4.04996 275.161L83.444 223.491L6.84801 267.714C5.59076 268.452 3.97506 268.03 3.21536 266.778C2.46101 265.531 2.85691 263.905 4.08741 263.129L33.8709 244.463L6.84266 260.064C5.58541 260.791 3.98041 260.385 3.22071 259.143C2.46101 257.902 2.83551 256.286 4.05531 255.495L52.2267 224.518L7.28136 250.466C6.01876 251.199 4.42446 250.792 3.65941 249.545C2.89971 248.31 3.27421 246.694 4.48866 245.902L43.105 220.907L8.73121 240.75C7.47396 241.478 5.87431 241.071 5.11461 239.835C4.35491 238.599 4.71871 236.989 5.92781 236.192L34.0528 217.863L11.3099 230.992C10.0527 231.714 8.45836 231.318 7.69866 230.087C6.93361 228.862 7.29206 227.247 8.49046 226.444L31.2012 211.384L15.4936 220.447C14.2417 221.169 12.6474 220.768 11.8824 219.548C11.1173 218.323 11.4704 216.712 12.6635 215.91L23.845 208.415L21.4 209.827C20.1856 210.533 18.6394 210.169 17.853 209.025C17.0665 207.869 17.2966 206.301 18.3933 205.424L38.1937 189.577C37.343 189.508 36.5298 189.037 36.0751 188.245C35.3314 186.966 35.7701 185.329 37.0541 184.591L63.6276 169.253C64.8313 168.536 66.3828 168.91 67.1746 170.055C67.9611 171.211 67.731 172.778 66.6343 173.656L49.2521 187.571L90.3936 163.822C91.6455 163.084 93.2345 163.496 94.0049 164.721C94.7699 165.946 94.4168 167.557 93.2238 168.359L82.0048 175.881L103.116 163.694C104.362 162.956 105.962 163.362 106.727 164.598C107.492 165.823 107.134 167.439 105.935 168.241L83.2621 183.28L117.186 163.699C118.444 162.966 120.043 163.378 120.803 164.614C121.563 165.85 121.199 167.466 119.99 168.258L91.8595 186.587L131.503 163.705C132.76 162.972 134.36 163.378 135.125 164.625C135.885 165.861 135.51 167.476 134.296 168.268L95.7169 193.237L146.146 164.127C147.403 163.389 149.008 163.812 149.768 165.048C150.528 166.289 150.153 167.904 148.933 168.696L100.773 199.673L158.804 166.166C160.067 165.433 161.682 165.85 162.437 167.102C163.191 168.354 162.795 169.975 161.565 170.751L131.738 189.449L167.589 168.75C168.851 168.017 170.451 168.429 171.205 169.665C171.97 170.9 171.601 172.516 170.387 173.308L91.0089 224.968L179.487 173.886C180.755 173.158 182.36 173.565 183.114 174.817C183.869 176.069 183.484 177.684 182.253 178.465L122.114 216.413L187.571 178.626C188.834 177.893 190.444 178.31 191.193 179.551C191.953 180.787 191.578 182.408 190.358 183.195L102.87 239.332L196.463 185.297C197.731 184.559 199.352 184.982 200.101 186.25C200.85 187.507 200.443 189.133 199.197 189.898L194.692 192.648L200.732 189.165C202 188.432 203.605 188.844 204.359 190.096C205.114 191.337 204.734 192.958 203.503 193.74L120.696 246.309L207.35 196.275C208.618 195.543 210.218 195.954 210.983 197.212C211.737 198.458 211.346 200.079 210.116 200.855L144.311 242.227L212.427 202.899C213.69 202.155 215.305 202.578 216.065 203.84C216.814 205.098 216.413 206.719 215.172 207.494L188.208 224.16L215.846 208.206C217.108 207.473 218.724 207.896 219.478 209.142C220.233 210.389 219.837 212.015 218.606 212.791L176.363 239.257L219.254 214.498C220.522 213.77 222.116 214.182 222.881 215.423C223.635 216.664 223.255 218.285 222.03 219.072L168.643 253.146L222.528 222.041C223.796 221.297 225.401 221.72 226.161 222.983C226.915 224.229 226.519 225.856 225.283 226.631L215.696 232.597L224.449 227.546C225.716 226.813 227.327 227.225 228.076 228.477C228.83 229.718 228.45 231.339 227.22 232.12L200.149 249.299L226.262 234.228C227.514 233.495 229.124 233.902 229.879 235.143C230.638 236.379 230.275 237.995 229.06 238.787L191.428 263.29L227.712 242.344C228.959 241.606 230.558 242.018 231.329 243.254C232.088 244.484 231.73 246.095 230.526 246.897L198.774 267.805L228.445 250.68C229.692 249.952 231.27 250.348 232.04 251.557C232.811 252.766 232.49 254.366 231.313 255.19L192.921 281.972L228.552 261.401C229.788 260.679 231.382 261.08 232.153 262.284C232.923 263.504 232.591 265.098 231.409 265.916L211.031 279.976L228.547 269.865C229.761 269.148 231.334 269.517 232.115 270.705C232.896 271.887 232.623 273.471 231.489 274.321L209.463 290.821L228.547 279.8C229.761 279.083 231.334 279.457 232.115 280.634C232.896 281.817 232.623 283.4 231.494 284.251L221.902 291.495L228.547 287.659C229.697 286.99 231.179 287.279 232.003 288.338C232.821 289.392 232.736 290.896 231.794 291.848L220.452 303.377L228.456 298.76C229.601 298.091 231.077 298.375 231.906 299.434C232.725 300.488 232.645 301.991 231.709 302.944L228.022 306.721C228.45 306.946 228.825 307.293 229.082 307.743C229.825 309.021 229.387 310.658 228.103 311.397L217.135 317.731C215.985 318.4 214.508 318.116 213.684 317.057C212.866 316.003 212.946 314.5 213.882 313.547L214.332 313.087L206.071 317.854C204.926 318.534 203.439 318.245 202.615 317.175C201.797 316.121 201.882 314.612 202.824 313.665L214.155 302.147L186.945 317.86C185.725 318.576 184.158 318.197 183.377 317.025C182.596 315.843 182.868 314.259 183.997 313.408L193.606 306.159L173.329 317.865C172.11 318.582 170.542 318.207 169.761 317.025C168.98 315.843 169.253 314.259 170.387 313.408L192.413 296.914L156.118 317.865C154.888 318.593 153.288 318.191 152.518 316.982C151.747 315.762 152.079 314.168 153.261 313.35L173.64 299.284L141.459 317.865C140.234 318.587 138.635 318.197 137.864 316.988C137.094 315.778 137.415 314.179 138.592 313.355L177.005 286.557L122.772 317.865C121.515 318.603 119.92 318.186 119.155 316.955C118.396 315.725 118.754 314.115 119.958 313.312L151.667 292.431L107.615 317.865C106.358 318.603 104.758 318.186 103.999 316.95C103.239 315.714 103.603 314.099 104.817 313.307L142.449 288.804L92.111 317.865C90.8537 318.603 89.238 318.186 88.4837 316.934C87.7293 315.693 88.1092 314.072 89.3397 313.291L116.389 296.123L78.736 317.86C77.4627 318.593 75.8523 318.17 75.1033 316.918C74.349 315.671 74.7449 314.045 75.9807 313.269L85.584 307.299L67.287 317.86C66.0297 318.598 64.4247 318.181 63.6597 316.934C62.9053 315.693 63.2852 314.072 64.5103 313.285L117.941 279.179L50.9427 317.854C49.6855 318.593 48.0698 318.17 47.3101 316.918C46.5557 315.671 46.9516 314.045 48.1821 313.269L90.3615 286.846L36.6475 317.854C36.2249 318.1 35.7648 318.213 35.31 318.213L35.3261 318.165Z" fill="#5795CE"/>
<path d="M244.832 194.294C244.265 193.726 243.959 192.913 244.064 192.065C244.238 190.741 245.358 189.735 246.69 189.728L249.281 189.701L246.009 188.82C244.772 188.506 243.943 187.337 244.027 186.05C244.121 184.776 245.105 183.739 246.376 183.58L254.846 182.547L245.975 180.168C244.783 179.861 243.974 178.764 243.993 177.535C244.019 176.305 244.874 175.246 246.081 174.978L257.698 172.356L245.937 169.205C244.655 168.876 243.811 167.631 243.97 166.307C244.125 164.994 245.222 163.98 246.55 163.946L250.416 163.84L245.903 162.634C244.662 162.316 243.834 161.147 243.921 159.864C244.019 158.586 244.999 157.553 246.27 157.394L254.804 156.357L245.873 153.963C244.443 153.577 243.592 152.113 243.981 150.687C244.36 149.257 245.827 148.409 247.257 148.795L269.547 154.765C270.788 155.09 271.616 156.259 271.529 157.534C271.431 158.813 270.451 159.845 269.18 160.004L260.642 161.037L269.547 163.428C270.829 163.757 271.665 165.002 271.514 166.326C271.359 167.638 270.262 168.652 268.934 168.686L265.06 168.792L269.554 169.995C270.75 170.305 271.559 171.403 271.537 172.628C271.51 173.858 270.655 174.917 269.449 175.186L257.835 177.803L269.558 180.947C270.792 181.272 271.62 182.434 271.541 183.716C271.446 184.991 270.462 186.028 269.191 186.187L260.721 187.219L269.554 189.591C270.844 189.936 271.684 191.184 271.522 192.512C271.348 193.836 270.228 194.842 268.896 194.85L265.605 194.88C266.415 195.485 266.876 196.62 266.585 197.713C266.206 199.143 264.739 199.991 263.309 199.605L246.028 194.975C245.559 194.854 245.154 194.608 244.829 194.282L244.832 194.294Z" fill="#2E7D32"/>
<path d="M278.982 129.752C278.395 129.165 278.089 128.314 278.233 127.444C278.452 126.09 279.651 125.117 281.017 125.189L306.458 126.562C307.04 125.511 308.274 124.951 309.484 125.276L316.54 127.164C317.86 127.516 318.707 128.817 318.488 130.164C318.268 131.518 317.069 132.49 315.704 132.419L306.344 131.912L316.593 134.662C318.023 135.033 318.874 136.504 318.484 137.938C318.106 139.368 316.638 140.215 315.208 139.829L280.177 130.448C279.708 130.327 279.303 130.081 278.978 129.755L278.982 129.752Z" fill="#2E7D32"/>
<path d="M197.802 145.084C197.189 144.471 196.89 143.575 197.076 142.663C197.355 141.278 198.657 140.348 200.057 140.537L227.362 144.259L199.009 136.659C197.639 136.296 196.788 134.908 197.079 133.519C197.378 132.123 198.714 131.212 200.117 131.435L249.508 139.304L216.248 130.391C214.875 130.031 214.027 128.639 214.322 127.247C214.617 125.855 215.957 124.94 217.364 125.166L264.848 132.793L246.043 127.75C244.821 127.436 243.985 126.282 244.064 125.008C244.14 123.744 245.093 122.7 246.353 122.522L255.769 121.149L246.047 118.539C244.753 118.191 243.906 116.927 244.091 115.599C244.269 114.264 245.411 113.273 246.762 113.284L248.022 113.295L246.051 112.762C244.757 112.437 243.917 111.173 244.091 109.834C244.265 108.51 245.392 107.511 246.735 107.507L248.858 107.504L246.047 106.743C244.768 106.41 243.924 105.173 244.08 103.845C244.235 102.525 245.343 101.515 246.667 101.485L250.359 101.394L246.047 100.236C244.81 99.9148 243.981 98.7459 244.068 97.471C244.159 96.1923 245.131 95.1596 246.399 94.9969L255.088 93.8885L246.043 91.4636C244.753 91.1193 243.906 89.8558 244.087 88.5241C244.269 87.1925 245.407 86.1976 246.754 86.2051L248.059 86.2165L246.051 85.6755C244.764 85.3426 243.924 84.0942 244.087 82.7664C244.246 81.4423 245.358 80.436 246.694 80.4171L259.147 80.1977C259.147 80.1977 259.155 80.1448 259.166 80.1183C259.545 78.6883 261.012 77.8409 262.442 78.2268L269.517 80.1183C270.799 80.455 271.639 81.7033 271.48 83.0274C271.321 84.3515 270.209 85.3578 268.874 85.3767L265.813 85.4334L269.6 86.4511C270.897 86.7802 271.737 88.0513 271.556 89.3905C271.374 90.7221 270.235 91.717 268.889 91.7094L267.595 91.6943L269.619 92.2428C270.856 92.572 271.681 93.7372 271.597 95.0082C271.507 96.2869 270.534 97.3197 269.267 97.4823L260.57 98.5908L269.645 101.023C270.924 101.356 271.764 102.597 271.612 103.921C271.461 105.245 270.349 106.251 269.025 106.282L265.34 106.372L269.672 107.534C270.966 107.874 271.802 109.134 271.631 110.462C271.457 111.786 270.33 112.785 268.987 112.788L266.869 112.796L269.694 113.556C270.992 113.886 271.836 115.16 271.65 116.496C271.472 117.831 270.33 118.822 268.979 118.811L267.712 118.8L269.713 119.341C270.935 119.662 271.771 120.808 271.692 122.083C271.616 123.347 270.663 124.391 269.403 124.569L259.987 125.942L316.604 141.112C317.981 141.468 318.821 142.852 318.529 144.256C318.234 145.648 316.895 146.563 315.488 146.336L267.996 138.71L300.64 147.46C302.013 147.812 302.856 149.208 302.569 150.6C302.27 151.996 300.935 152.907 299.531 152.684L250.14 144.816L269.573 150.025C270.939 150.377 271.783 151.75 271.506 153.131C271.223 154.519 269.921 155.45 268.522 155.26L227.779 149.707C227.813 150.029 227.79 150.361 227.699 150.687C227.321 152.117 225.853 152.964 224.423 152.578L199.016 145.769C198.547 145.648 198.139 145.398 197.817 145.077L197.802 145.084Z" fill="#2E7D32"/>
<path d="M205.107 125.265C194.575 123.04 195.139 130.459 195.971 138.313C192.105 162.683 228.762 149.389 243.005 152.593C243.641 166.719 241.761 181.409 243.679 195.281C249.406 202.56 261.062 199.121 269.172 199.628C276.984 196.174 270.659 162.467 272.596 152.593C287.679 151.962 303.401 153.808 318.189 151.988C321.049 149.968 319.63 142.428 319.63 139.546C323.5 115.172 286.835 128.473 272.596 125.265C271.964 111.135 273.837 96.4458 271.923 82.5773C266.195 75.2987 254.54 78.7375 246.429 78.2306C238.617 81.6845 244.946 115.387 243.005 125.265C230.37 125.265 217.742 125.265 205.107 125.265ZM252.115 83.1069C256.405 82.4335 261.149 83.3717 265.507 83.1069C265.722 139.788 256.113 129.657 312.548 130.141C311.266 135.169 316.078 146.594 309.314 147.721C295.082 148.53 278.861 146.261 265.526 148.466C265.344 160.057 265.526 171.8 265.461 183.44C265.461 186.202 266.963 194.006 263.483 194.755C259.197 195.425 254.449 194.498 250.091 194.755C249.875 138.074 259.484 148.205 203.049 147.721C204.339 142.686 199.512 131.276 206.283 130.141C220.526 129.222 236.835 131.821 250.136 129.271C250.136 117.657 250.136 106.043 250.136 94.4219C250.136 91.6603 248.634 83.8559 252.115 83.1069Z" fill="#262626"/>
<path d="M21.4749 318.411C84.744 318.009 148.061 319.32 211.314 318.411C224.32 319.026 234.063 309.701 233.972 296.818C241.67 233.795 216.386 165.898 144.017 163.4C218.954 140.496 220.404 29.3662 144.118 6.94965C40.7296 -23.7219 -13.91 127.143 90.1101 163.662C35.2886 165.829 -4.90058 218.612 1.43382 271.93C1.65852 289.339 -3.98037 318.304 21.4749 318.411ZM58.2241 133.707C13.145 80.3249 65.1256 -8.9666 134.339 9.68885C264.344 54.0832 155.658 235.93 58.2187 133.707H58.2241ZM10.9461 239.043C23.4705 166.781 109.573 158.082 168.118 173.929C208.088 188.004 230.205 230.221 226.128 271.293C224.267 284.593 233.249 310.006 214.369 312.889C150.613 312.718 86.8252 313.152 23.0906 312.889C-0.973676 312.017 11.2885 256.056 10.9461 239.043Z" fill="#262626"/>
</g>
<defs>
<clipPath id="clip0_21_2">
<rect width="321" height="321" fill="white"/>
</clipPath>
</defs>
</svg>
