<svg width="312" height="312" viewBox="0 0 312 312" fill="none" xmlns="http://www.w3.org/2000/svg">
<path d="M114.161 163.639C113.298 163.639 112.45 163.207 111.956 162.422C111.212 161.231 111.545 159.676 112.705 158.886L125.138 150.467L104.374 162.458C103.184 163.16 101.629 162.781 100.88 161.6C100.131 160.42 100.448 158.87 101.592 158.07L137.285 133.328L91.8788 159.541C90.6568 160.254 89.0968 159.858 88.3584 158.647C87.62 157.435 87.984 155.87 89.1696 155.106L100.386 147.878L84.7756 156.884C83.5536 157.591 82.0092 157.201 81.2708 156.01C80.522 154.82 80.86 153.26 82.03 152.474L127.083 122.216L75.426 152.038C74.204 152.755 72.6388 152.355 71.9004 151.133C71.1672 149.921 71.5416 148.346 72.7376 147.586L80.028 142.979L70.2676 148.611C69.0456 149.318 67.4856 148.928 66.7472 147.716C66.0088 146.515 66.3728 144.94 67.5584 144.175L100.038 123.24L64.2772 143.884C63.0552 144.596 61.4952 144.201 60.7568 142.99C60.0184 141.788 60.3824 140.218 61.5628 139.448L99.3252 115.071L58.7756 138.481C57.5484 139.188 55.9988 138.798 55.2656 137.602C54.522 136.406 54.8704 134.841 56.0352 134.061L113.573 95.9452L52.6812 131.097C51.454 131.815 49.8992 131.404 49.1608 130.198C48.4224 128.991 48.7864 127.421 49.972 126.656L87.7396 102.419L48.6356 124.992C47.4136 125.71 45.8432 125.31 45.11 124.088C44.3768 122.876 44.7512 121.3 45.942 120.541L68.1824 106.48L45.682 119.47C44.4652 120.182 42.9052 119.782 42.1616 118.581C41.4232 117.38 41.782 115.809 42.9624 115.04L89.2892 84.9524L42.4996 111.961C41.2776 112.668 39.728 112.284 38.9844 111.077C38.246 109.886 38.5944 108.316 39.7644 107.541L93.6312 71.9732L39.8632 103.017C38.6412 103.73 37.0864 103.329 36.348 102.128C35.6096 100.927 35.9632 99.3616 37.1384 98.592L81.4736 69.5812L38.376 94.458C37.154 95.1704 35.594 94.7752 34.8556 93.5636C34.1172 92.3624 34.4812 90.792 35.6616 90.0224L65.26 70.9072L37.856 86.7256C36.634 87.4484 35.0688 87.0376 34.3304 85.8208C33.5972 84.6144 33.9716 83.0388 35.1624 82.2796L41.444 78.2912L37.986 80.288C36.764 80.9952 35.2144 80.6104 34.476 79.4092C33.7324 78.2132 34.0808 76.648 35.2456 75.868L67.9952 54.1736L39.208 70.7928C37.9808 71.5052 36.4364 71.1048 35.6928 69.9088C34.9544 68.7128 35.308 67.1424 36.478 66.3676L53.482 55.2136L41.3712 62.2076C40.1856 62.9096 38.6568 62.5404 37.8976 61.3808C37.1384 60.2264 37.414 58.682 38.5268 57.8656L75.3064 30.7112L48.3496 46.2748C47.1848 46.9612 45.6872 46.6232 44.9176 45.5104C44.148 44.4028 44.3508 42.8896 45.3908 42.0264L64.1992 26.4264C63.2008 26.4576 62.2648 26.026 61.75 25.1316C61.0272 23.8888 61.4536 22.2976 62.7016 21.58L87.022 7.54C88.192 6.8536 89.6844 7.1916 90.454 8.3044C91.2236 9.412 91.0208 10.9252 89.9808 11.7884L72.3476 26.4108L112.835 3.1148C114.026 2.4232 115.549 2.7872 116.308 3.9416C117.068 5.096 116.792 6.6404 115.679 7.4568L78.8996 34.606L130.151 5.0128C131.373 4.3056 132.922 4.7008 133.666 5.8968C134.404 7.0928 134.051 8.6632 132.881 9.438L115.846 20.6076L138.705 7.4152C139.922 6.6976 141.476 7.0928 142.215 8.294C142.958 9.49 142.61 11.0552 141.445 11.8352L108.706 33.5192L147.508 11.1176C148.741 10.4052 150.301 10.8056 151.034 12.0224C151.767 13.2288 151.393 14.8044 150.202 15.5636L143.868 19.578L153.161 14.2168C154.378 13.5044 155.943 13.8996 156.681 15.1112C157.42 16.3124 157.056 17.8828 155.875 18.6524L126.251 37.7832L159.583 18.5432C160.81 17.836 162.365 18.2312 163.098 19.4324C163.836 20.6284 163.483 22.1988 162.308 22.9684L118.024 51.9428L166.234 24.1072C167.445 23.3896 169 23.7848 169.749 24.9912C170.487 26.182 170.139 27.7524 168.969 28.5272L115.076 64.1108L172.656 30.8672C173.878 30.1548 175.432 30.55 176.176 31.7564C176.914 32.9576 176.556 34.528 175.375 35.2976L129.054 65.3848L177.606 37.3516C178.833 36.6392 180.398 37.0396 181.132 38.2564C181.865 39.4732 181.49 41.0436 180.3 41.8028L158.09 55.8376L180.887 42.6816C182.109 41.9744 183.669 42.3696 184.408 43.5812C185.146 44.7824 184.782 46.358 183.596 47.1224L145.772 71.4012L184.189 49.2232C185.406 48.5056 186.961 48.906 187.699 50.102C188.443 51.298 188.094 52.8632 186.93 53.6432L129.428 91.7332L187.543 58.1828C188.77 57.4704 190.33 57.8656 191.064 59.0772C191.802 60.2784 191.438 61.8488 190.258 62.6184L152.428 87.0376L189.462 65.6604C190.684 64.948 192.244 65.3432 192.982 66.5548C193.721 67.756 193.357 69.3316 192.171 70.096L159.754 90.9948L190.554 73.216C191.786 72.5088 193.346 72.9092 194.08 74.1208C194.813 75.3324 194.438 76.908 193.242 77.6672L185.983 82.2588L190.934 79.3988C192.145 78.6812 193.7 79.0816 194.438 80.2724C195.187 81.4632 194.849 83.0232 193.679 83.8084L148.611 114.078L190.434 89.9288C191.662 89.2164 193.222 89.6116 193.955 90.8232C194.693 92.0296 194.329 93.6 193.144 94.3644L181.927 101.592L189.233 97.3752C190.424 96.668 191.979 97.0528 192.728 98.2332C193.476 99.4136 193.159 100.963 192.015 101.764L156.348 126.485L185.489 109.668C186.701 108.966 188.25 109.346 188.994 110.536C189.738 111.727 189.405 113.282 188.245 114.072L175.76 122.528L180.679 119.688C181.896 118.986 183.435 119.366 184.179 120.552C184.928 121.737 184.605 123.287 183.451 124.082L175.62 129.454C176.316 129.605 176.946 130.031 177.325 130.697C178.048 131.94 177.622 133.531 176.374 134.248L127.639 162.386C126.428 163.098 124.888 162.708 124.14 161.522C123.391 160.342 123.713 158.787 124.868 157.992L125.627 157.472L115.508 163.311C115.097 163.55 114.65 163.66 114.208 163.66L114.161 163.639Z" fill="#5795CE"/>
<path d="M34.3356 309.244C33.4516 309.244 32.5884 308.792 32.0996 307.98C31.3716 306.758 31.7616 305.183 32.968 304.429L59.176 288.231L23.3844 308.896C22.1572 309.613 20.5972 309.213 19.8536 307.986C19.1204 306.774 19.5 305.198 20.696 304.444L84.6664 264.228L12.7556 305.739C11.5336 306.462 9.9684 306.051 9.23 304.834C8.4968 303.628 8.866 302.052 10.062 301.293L90.5528 250.198L7.4308 298.189C6.1984 298.901 4.6176 298.49 3.8948 297.263C3.1668 296.041 3.562 294.46 4.7736 293.717L9.1624 291.039L6.6612 292.479C5.4392 293.197 3.874 292.791 3.1408 291.58C2.4024 290.378 2.7664 288.803 3.952 288.038L88.998 233.464L6.656 281.008C5.434 281.731 3.8688 281.32 3.1304 280.103C2.3972 278.892 2.7716 277.316 3.9676 276.557L62.3532 239.72L6.656 271.877C5.434 272.589 3.8792 272.194 3.1408 270.988C2.3972 269.786 2.756 268.216 3.9364 267.446L81.1044 217.225L6.656 260.208C5.434 260.926 3.8636 260.515 3.1252 259.298C2.392 258.086 2.7768 256.506 3.9728 255.752L32.9212 237.609L6.6508 252.772C5.4288 253.479 3.8688 253.084 3.1304 251.878C2.392 250.671 2.756 249.101 3.9416 248.331L50.7624 218.223L7.0772 243.443C5.85 244.156 4.3004 243.76 3.5568 242.549C2.8184 241.348 3.1824 239.777 4.3628 239.008L41.8964 214.713L8.4864 234C7.2644 234.707 5.7096 234.312 4.9712 233.111C4.2328 231.91 4.5864 230.344 5.7616 229.57L33.098 211.754L10.9928 224.515C9.7708 225.217 8.2212 224.832 7.4828 223.636C6.7392 222.446 7.0876 220.875 8.2524 220.095L30.3264 205.457L15.0592 214.266C13.8424 214.968 12.2928 214.578 11.5492 213.392C10.8056 212.202 11.1488 210.636 12.3084 209.856L23.1764 202.571L20.8 203.944C19.6196 204.63 18.1168 204.277 17.3524 203.164C16.588 202.041 16.8116 200.517 17.8776 199.664L37.1228 184.262C36.296 184.194 35.5056 183.737 35.0636 182.967C34.3408 181.724 34.7672 180.133 36.0152 179.416L61.8436 164.507C63.0136 163.81 64.5216 164.174 65.2912 165.287C66.0556 166.41 65.832 167.934 64.766 168.787L47.8712 182.312L87.8592 159.229C89.076 158.512 90.6204 158.912 91.3692 160.103C92.1128 161.294 91.7696 162.859 90.61 163.639L79.7056 170.95L100.225 159.104C101.436 158.387 102.991 158.782 103.735 159.983C104.478 161.174 104.13 162.744 102.965 163.524L80.9276 178.142L113.901 159.11C115.123 158.397 116.678 158.798 117.416 159.999C118.154 161.2 117.801 162.77 116.626 163.54L89.284 181.355L127.816 159.115C129.038 158.402 130.593 158.798 131.336 160.009C132.075 161.21 131.711 162.781 130.53 163.55L93.0332 187.819L142.048 159.526C143.27 158.808 144.83 159.219 145.569 160.42C146.307 161.626 145.943 163.197 144.758 163.966L97.9472 194.074L154.352 161.507C155.579 160.794 157.149 161.2 157.882 162.417C158.616 163.634 158.231 165.209 157.035 165.963L128.045 184.137L162.89 164.018C164.117 163.306 165.672 163.706 166.405 164.908C167.149 166.109 166.79 167.679 165.61 168.449L88.4572 218.66L174.455 169.01C175.687 168.303 177.247 168.698 177.98 169.915C178.714 171.132 178.339 172.702 177.143 173.462L118.69 210.345L182.312 173.618C183.539 172.905 185.104 173.311 185.832 174.517C186.571 175.718 186.207 177.294 185.021 178.058L99.9856 232.622L190.954 180.102C192.187 179.384 193.762 179.795 194.49 181.028C195.218 182.25 194.823 183.83 193.612 184.574L189.233 187.247L195.104 183.862C196.336 183.149 197.896 183.55 198.63 184.766C199.363 185.973 198.994 187.548 197.798 188.308L117.312 239.403L201.536 190.772C202.769 190.06 204.324 190.46 205.067 191.682C205.8 192.894 205.421 194.47 204.225 195.224L140.265 235.435L206.471 197.21C207.698 196.487 209.269 196.898 210.007 198.125C210.735 199.347 210.345 200.923 209.139 201.677L182.931 217.875L209.794 202.368C211.021 201.656 212.592 202.067 213.325 203.278C214.058 204.49 213.673 206.071 212.477 206.825L171.418 232.549L213.106 208.484C214.339 207.776 215.888 208.177 216.632 209.383C217.365 210.59 216.996 212.165 215.805 212.93L163.914 246.048L216.289 215.816C217.521 215.093 219.081 215.504 219.82 216.731C220.553 217.942 220.168 219.523 218.967 220.277L209.648 226.075L218.156 221.166C219.388 220.454 220.953 220.854 221.681 222.071C222.414 223.278 222.045 224.853 220.849 225.612L194.537 242.31L219.918 227.661C221.135 226.949 222.7 227.344 223.434 228.55C224.172 229.752 223.818 231.322 222.638 232.092L186.061 255.908L221.328 235.55C222.539 234.832 224.094 235.232 224.843 236.434C225.581 237.63 225.233 239.195 224.063 239.975L193.201 260.296L222.04 243.651C223.252 242.944 224.786 243.329 225.534 244.504C226.283 245.679 225.971 247.234 224.827 248.035L187.512 274.066L222.144 254.072C223.345 253.37 224.895 253.76 225.644 254.93C226.392 256.116 226.07 257.665 224.921 258.461L205.114 272.126L222.139 262.298C223.319 261.602 224.848 261.96 225.607 263.115C226.366 264.264 226.101 265.803 224.999 266.63L203.59 282.667L222.139 271.955C223.319 271.258 224.848 271.622 225.607 272.766C226.366 273.915 226.101 275.454 225.004 276.281L215.68 283.322L222.139 279.594C223.257 278.944 224.697 279.224 225.498 280.254C226.294 281.278 226.21 282.74 225.295 283.665L214.271 294.871L222.05 290.384C223.163 289.734 224.598 290.009 225.404 291.039C226.2 292.063 226.122 293.524 225.212 294.45L221.629 298.121C222.045 298.34 222.409 298.678 222.659 299.114C223.382 300.357 222.955 301.948 221.707 302.666L211.047 308.823C209.929 309.473 208.494 309.197 207.693 308.168C206.898 307.143 206.976 305.682 207.886 304.756L208.322 304.309L200.294 308.942C199.181 309.603 197.735 309.322 196.934 308.282C196.139 307.258 196.222 305.791 197.137 304.871L208.151 293.675L181.704 308.948C180.518 309.644 178.994 309.275 178.235 308.136C177.476 306.987 177.741 305.448 178.838 304.621L188.178 297.575L168.47 308.953C167.284 309.65 165.76 309.286 165.001 308.136C164.242 306.987 164.507 305.448 165.61 304.621L187.018 288.59L151.741 308.953C150.545 309.66 148.99 309.27 148.242 308.095C147.493 306.909 147.815 305.36 148.964 304.564L168.771 290.893L137.493 308.953C136.302 309.655 134.748 309.275 133.999 308.1C133.25 306.925 133.562 305.37 134.706 304.569L172.042 278.522L119.33 308.953C118.108 309.67 116.558 309.265 115.814 308.069C115.076 306.873 115.424 305.308 116.594 304.528L147.415 284.232L104.598 308.953C103.376 309.67 101.821 309.265 101.083 308.064C100.344 306.862 100.698 305.292 101.878 304.522L138.455 280.706L89.5284 308.953C88.3064 309.67 86.736 309.265 86.0028 308.048C85.2696 306.842 85.6388 305.266 86.8348 304.507L113.126 287.82L76.5284 308.948C75.2908 309.66 73.7256 309.249 72.9976 308.032C72.2644 306.821 72.6492 305.24 73.8504 304.486L83.1844 298.683L65.4004 308.948C64.1784 309.665 62.6184 309.26 61.8748 308.048C61.1416 306.842 61.5108 305.266 62.7016 304.502L114.634 271.352L49.5144 308.942C48.2924 309.66 46.722 309.249 45.9836 308.032C45.2504 306.821 45.6352 305.24 46.8312 304.486L87.828 278.803L35.62 308.942C35.2092 309.182 34.762 309.291 34.32 309.291L34.3356 309.244Z" fill="#5795CE"/>
<path d="M282.321 182.161C281.541 182.161 280.771 181.813 280.262 181.158C279.471 180.128 279.549 178.667 280.459 177.746L282.222 175.947L279.367 177.59C278.301 178.225 276.929 177.991 276.102 177.05C275.291 176.108 275.254 174.72 276.019 173.737L281.13 167.206L273.398 171.668C272.368 172.276 271.058 172.078 270.226 171.22C269.399 170.357 269.259 169.042 269.903 168.028L276.086 158.241L265.837 164.159C264.729 164.814 263.294 164.538 262.493 163.519C261.698 162.51 261.755 161.06 262.644 160.124L265.229 157.394L261.297 159.666C260.226 160.3 258.853 160.066 258.032 159.125C257.221 158.179 257.184 156.796 257.949 155.813L263.102 149.235L255.317 153.728C254.069 154.445 252.478 154.024 251.766 152.776C251.043 151.533 251.469 149.942 252.717 149.224L272.139 138.008C273.216 137.379 274.589 137.613 275.405 138.549C276.216 139.495 276.253 140.878 275.488 141.861L270.33 148.439L278.093 143.962C279.201 143.307 280.631 143.588 281.437 144.602C282.233 145.61 282.175 147.061 281.286 147.997L278.697 150.732L282.612 148.47C283.647 147.862 284.957 148.06 285.784 148.918C286.611 149.781 286.751 151.096 286.107 152.11L279.924 161.892L290.142 155.995C291.213 155.371 292.581 155.6 293.407 156.536C294.219 157.477 294.255 158.865 293.491 159.848L288.379 166.379L296.08 161.938C297.203 161.288 298.639 161.569 299.439 162.594C300.23 163.623 300.152 165.084 299.242 166.005L297.001 168.288C297.973 168.147 299.07 168.61 299.621 169.562C300.344 170.804 299.918 172.396 298.67 173.113L283.611 181.808C283.205 182.047 282.758 182.156 282.311 182.156L282.321 182.161Z" fill="#DD4752"/>
<path d="M261.433 114.332C260.627 114.332 259.831 113.958 259.332 113.261C258.552 112.18 258.708 110.687 259.696 109.798L278.125 93.2568C277.802 92.1336 278.265 90.9012 279.321 90.2928L285.467 86.7412C286.616 86.0756 288.093 86.3876 288.868 87.464C289.648 88.5456 289.492 90.038 288.504 90.9272L281.723 97.0112L290.657 91.858C291.894 91.13 293.491 91.5564 294.208 92.8096C294.931 94.0524 294.505 95.6436 293.257 96.3612L262.733 113.989C262.327 114.228 261.88 114.338 261.433 114.338V114.332Z" fill="#DD4752"/>
<path d="M216.177 180.664C215.335 180.664 214.513 180.253 214.014 179.499C213.255 178.355 213.509 176.821 214.601 175.989L235.927 159.78L211.216 174.044C210.025 174.736 208.486 174.366 207.732 173.212C206.978 172.047 207.269 170.503 208.387 169.692L247.741 141.154L218.756 157.888C217.565 158.584 216.026 158.21 215.272 157.05C214.518 155.891 214.809 154.341 215.933 153.53L253.809 126.136L237.419 135.595C236.363 136.219 234.996 136.001 234.174 135.07C233.358 134.15 233.295 132.777 234.039 131.789L239.567 124.374L231.091 129.262C229.962 129.912 228.511 129.626 227.726 128.586C226.931 127.546 227.035 126.079 227.971 125.159L228.844 124.301L227.123 125.289C226.01 125.954 224.565 125.663 223.764 124.623C222.973 123.594 223.062 122.132 223.982 121.207L225.438 119.746L222.984 121.155C221.876 121.805 220.446 121.534 219.64 120.515C218.839 119.501 218.907 118.045 219.796 117.114L222.271 114.514L218.512 116.683C217.441 117.312 216.068 117.078 215.251 116.142C214.435 115.201 214.393 113.823 215.153 112.84L220.363 106.106L212.48 110.656C211.357 111.306 209.906 111.02 209.115 109.98C208.325 108.94 208.424 107.474 209.355 106.553L210.259 105.664L208.507 106.673C207.394 107.328 205.959 107.047 205.158 106.023C204.357 105.004 204.43 103.548 205.335 102.617L213.743 93.9068C213.743 93.9068 213.712 93.8652 213.702 93.8392C212.979 92.5964 213.405 91.0052 214.653 90.2876L220.815 86.7256C221.928 86.0756 223.363 86.3564 224.164 87.3756C224.965 88.3948 224.892 89.8508 223.987 90.7816L221.923 92.924L225.225 91.0208C226.343 90.3552 227.794 90.6516 228.589 91.6968C229.38 92.7368 229.281 94.2032 228.35 95.1236L227.451 96.0024L229.219 94.9884C230.295 94.3644 231.663 94.5984 232.479 95.5292C233.295 96.4704 233.337 97.8484 232.578 98.8312L227.362 105.57L235.271 101.005C236.379 100.355 237.809 100.63 238.615 101.644C239.421 102.658 239.348 104.114 238.459 105.045L235.989 107.64L239.764 105.461C240.887 104.806 242.328 105.097 243.123 106.127C243.914 107.156 243.825 108.618 242.905 109.543L241.454 111.004L243.919 109.585C245.037 108.919 246.493 109.216 247.283 110.261C248.079 111.301 247.975 112.767 247.039 113.688L246.16 114.551L247.907 113.547C248.968 112.928 250.331 113.142 251.152 114.072C251.969 114.993 252.031 116.366 251.287 117.354L245.76 124.769L295.097 96.2832C296.288 95.5812 297.817 95.9556 298.581 97.1204C299.335 98.28 299.044 99.8296 297.921 100.641L260.039 128.04L288.488 111.618C289.674 110.916 291.213 111.296 291.972 112.45C292.726 113.615 292.435 115.159 291.317 115.97L251.963 144.508L268.9 134.732C270.08 134.035 271.604 134.399 272.363 135.538C273.122 136.687 272.867 138.221 271.775 139.053L239.957 163.238C240.201 163.436 240.414 163.68 240.575 163.966C241.298 165.209 240.872 166.8 239.624 167.518L217.482 180.3C217.077 180.539 216.624 180.648 216.182 180.648L216.177 180.664Z" fill="#DD4752"/>
<path d="M207.576 162.022C198.809 167.731 204.295 172.442 210.265 177.268C224.357 196.674 240.414 162.344 252.405 154.757C262.551 164.029 271.354 175.417 282.207 183.633C291.145 184.699 296.793 174.325 302.715 169.099C305.711 161.356 278.197 142.537 272.743 134.42C282.675 123.62 294.749 114.083 303.662 102.669C304.239 99.3148 298.082 95.108 296.101 93.1268C282.009 73.7152 265.951 108.056 253.96 115.638C243.815 106.361 235.006 94.978 224.159 86.762C215.22 85.696 209.573 96.07 203.65 101.296C200.655 109.039 228.168 127.852 233.623 135.975C224.939 144.659 216.26 153.338 207.576 162.022ZM210.909 100.74C213.395 97.3284 217.3 94.7128 220.113 91.5356C259.217 130.343 245.651 129.984 284.77 91.5304C287.344 95.8672 298.503 100.412 294.629 105.836C285.405 116.173 272.696 125.762 265.047 136.443C272.888 144.534 281.083 152.48 289.039 160.524C290.937 162.422 297.333 166.754 295.456 169.66C292.971 173.066 289.071 175.692 286.252 178.864C247.148 140.057 260.715 140.416 221.595 178.87C219.021 174.522 207.862 169.998 211.736 164.564C220.893 154.144 233.888 144.721 241.277 133.827C233.295 125.845 225.313 117.863 217.326 109.876C215.428 107.978 209.032 103.646 210.909 100.74Z" fill="#262626"/>
<path d="M20.8728 309.483C82.368 309.093 143.91 310.367 205.39 309.483C218.031 310.081 227.5 301.018 227.412 288.496C234.894 227.24 210.319 161.247 139.979 158.818C212.815 136.557 214.224 28.5428 140.078 6.75482C39.5876 -23.0568 -13.52 123.578 87.5836 159.073C34.2992 161.179 -4.76319 212.482 1.39361 264.306C1.61201 281.226 -3.86879 309.379 20.8728 309.483ZM56.5916 129.958C12.7764 78.0728 63.2996 -8.71518 130.572 9.41722C256.932 52.5668 151.294 229.315 56.5864 129.958H56.5916ZM10.6392 232.341C22.8124 162.105 106.501 153.65 163.405 169.052C202.254 182.733 223.751 223.766 219.788 263.687C217.979 276.614 226.71 301.314 208.359 304.117C146.39 303.95 84.3908 304.372 22.4432 304.117C-0.946394 303.269 10.972 248.877 10.6392 232.341Z" fill="#262626"/>
</svg>
