<svg height="503pt" viewBox="0 -27 503.98414 503" width="503pt" xmlns="http://www.w3.org/2000/svg"><path d="m105.367188 448.046875c-1.878907 0-3.527344-1.25-4.039063-3.054687-.511719-1.808594.242187-3.734376 1.839844-4.71875l126.648437-77.773438-147.1875 84.949219c-1.988281 1.132812-4.519531.464843-5.6875-1.503907-1.167968-1.972656-.539062-4.511718 1.410156-5.714843l94.179688-57.210938-111.605469 64.429688c-1.984375 1.078125-4.464843.394531-5.617187-1.550781-1.148438-1.941407-.554688-4.449219 1.34375-5.667969l78.746094-47.589844-93.929688 54.246094c-1.976562 1.074219-4.449219.394531-5.605469-1.539063-1.152343-1.933594-.574219-4.429687 1.308594-5.664062l208.703125-128.660156-222.199219 128.292968c-1.992187 1.183594-4.570312.527344-5.753906-1.464844-1.183594-1.992187-.527344-4.570312 1.464844-5.753906l175.421875-106.933594-179.300782 103.492188c-1.976562 1.074219-4.449218.394531-5.605468-1.539062-1.152344-1.933594-.574219-4.429688 1.308594-5.664063l216.15625-132.683594-215.609376 124.476563c-1.976562 1.039062-4.421874.351562-5.5625-1.566406-1.144531-1.917969-.585937-4.394532 1.273438-5.636719l215.835938-132.53125-211.546876 122.140625c-1.996093 1.179687-4.570312.519531-5.75-1.476563-1.179687-1.996093-.519531-4.570312 1.476563-5.75l150.804687-91.628906-146.53125 84.597656c-1.980468 1.042969-4.433593.347657-5.570312-1.578125-1.140625-1.929687-.566406-4.410156 1.304688-5.640625l84.167968-50.765625-79.902344 46.113282c-1.976562 1.054687-4.429687.375-5.578124-1.546876-1.152344-1.917968-.589844-4.402343 1.269531-5.644531l201.542969-124.980469-197.234376 113.882813c-1.992187 1.132813-4.519531.464844-5.6875-1.503906-1.167968-1.96875-.542968-4.511719 1.40625-5.714844l121.199219-74.121094-116.917969 67.5c-1.980468 1.074219-4.453124.394531-5.605468-1.539062-1.152344-1.933594-.578125-4.429688 1.304687-5.664063l135.5625-83.554687-131.261719 75.75c-1.976562 1.042969-4.421874.351562-5.5625-1.566407-1.144531-1.917968-.585937-4.394531 1.273438-5.636718l108.601562-66.574219-104.3125 60.222656c-1.980468 1.089844-4.464843.417969-5.625-1.519531-1.160156-1.933594-.582031-4.441406 1.308594-5.675781l166.191406-103.832031-161.875 93.476562c-1.980468 1.089844-4.464843.417969-5.625-1.519531-1.160156-1.933594-.582031-4.441407 1.308594-5.675781l150.058594-93.417969-145.742188 84.136719c-1.984374 1.078124-4.46875.394531-5.617187-1.550782-1.152344-1.941406-.558594-4.449218 1.34375-5.667968l22.738281-13.78125-18.464844 10.667968c-1.976562 1.105469-4.476562.445313-5.648437-1.496094-1.167969-1.941406-.585937-4.457031 1.316406-5.6875l173.507813-109.59375-169.1875 97.664063c-1.976563 1.074219-4.449219.394531-5.601563-1.539063-1.152343-1.929687-.578125-4.429687 1.304688-5.660156l97.179687-59.878906-92.882812 53.617188c-1.988282 1.183593-4.566406.535156-5.75-1.457032-1.1875-1.992187-.535156-4.566406 1.453125-5.753906l102.519531-63.355469-98.203125 56.699219c-1.972656 1.027344-4.402344.339844-5.542969-1.570312-1.140625-1.90625-.59375-4.375 1.246094-5.621094l97.363281-60.234375-93.023437 53.71875c-1.984375 1.078125-4.46875.394531-5.617188-1.550781-1.152344-1.941407-.558594-4.445313 1.34375-5.667969l9.039063-5.503907-4.765625 2.742188c-1.980469 1.058594-4.441406.371094-5.589844-1.558594-1.144531-1.929687-.570312-4.417968 1.308594-5.648437l3.910156-2.386719c-2.011719.910156-4.382812.109375-5.429688-1.835938-1.042968-1.945312-.402343-4.367187 1.46875-5.539062l91.21875-57.488281-86.949218 50.152343c-1.914063 1.082032-4.335938.503907-5.558594-1.328124-1.21875-1.828126-.816406-4.289063.917969-5.640626l35.328125-27.019531-30.6875 17.710938c-1.914063 1.082031-4.335938.503906-5.558594-1.324219-1.21875-1.832031-.816406-4.292969.917969-5.640625l13.648437-10.417969-9.007812 5.1875c-1.90625 1.082032-4.324219.515625-5.550782-1.304687-1.226562-1.820313-.84375-4.277344.878907-5.636719l3.582031-2.792969c-1.300781-.074219-2.515625-.683593-3.355469-1.679687-1.292969-1.671875-1.140625-4.039063.351563-5.53125l8.394531-8.394532c-.871094-.34375-1.59375-.976562-2.058594-1.789062-1.152343-2.003906-.464843-4.5625 1.535157-5.722656l19.382812-11.1875c1.824219-1.066406 4.152344-.609375 5.441406 1.0625 1.289063 1.675781 1.132813 4.042968-.363281 5.535156l-3.953125 3.953125 20.027344-11.558594c1.90625-1.082031 4.324218-.515625 5.550781 1.304688 1.226563 1.820312.84375 4.277343-.878906 5.636719l-.535157.417968 12.75-7.359375c1.914063-1.105469 4.359376-.535156 5.589844 1.304688 1.226563 1.839843.816406 4.316406-.941406 5.660156l-13.628906 10.417969 30.214844-17.425782c1.914062-1.082031 4.339843-.503906 5.558593 1.328126 1.21875 1.828124.820313 4.289062-.917969 5.640624l-35.359374 27.042969 218.664062-126.214843c1.972656-1.082032 4.449219-.417969 5.613281 1.507812 1.164063 1.925781.605469 4.425781-1.273437 5.671875l-91.285156 57.511719 112.085937-64.691406c1.964844-1.011719 4.382813-.324219 5.519531 1.574218 1.140625 1.898438.605469 4.355469-1.214844 5.613282l-3.082031 1.878906 15.738281-9.066406c1.980469-1.054688 4.441407-.371094 5.585938 1.5625 1.148438 1.929687.570312 4.417968-1.304688 5.648437l-8.921874 5.382813 19.210937-11.097657c1.984375-1.117187 4.496094-.449219 5.664063 1.503907 1.167968 1.953124.566406 4.480468-1.355469 5.699218l-97.5 60.363282 102.652343-59.257813c1.984376-1.117187 4.496094-.449219 5.660157 1.503906 1.167969 1.953125.566406 4.480469-1.355469 5.699219l-102.507812 63.34375 103.96875-60.019531c1.992187-1.1875 4.566406-.535157 5.753906 1.453125 1.1875 1.992187.535156 4.570312-1.457032 5.753906l-97.109374 59.820312 98.410156-56.796874c1.976562-1.109376 4.476562-.445313 5.648437 1.496093 1.167969 1.9375.585938 4.457031-1.316406 5.6875l-173.417969 109.527344 177.027344-102.199219c1.984375-1.078125 4.464844-.394531 5.617188 1.550782 1.148437 1.941406.554687 4.449218-1.34375 5.667968l-22.621094 13.707032 22.664062-13.070313c1.988282-1.191406 4.566406-.542969 5.757813 1.445313 1.191406 1.988281.542969 4.566406-1.445313 5.757812l-150.132812 93.46875 152.660156-88.132812c1.980469-1.140626 4.515625-.484376 5.691406 1.476562 1.179688 1.960938.570313 4.503906-1.371094 5.71875l-166.316406 103.851562 169.289063-97.722656c1.992187-1.1875 4.566406-.535156 5.753906 1.453125 1.1875 1.992188.535156 4.566407-1.457031 5.753907l-108.578125 66.585937 109.957031-63.460937c1.980469-1.117188 4.492188-.453126 5.660156 1.5 1.167969 1.953124.566406 4.480468-1.355468 5.699218l-135.699219 83.617188 151.796875-87.613282c1.980468-1.054687 4.441406-.371093 5.585937 1.558594 1.148438 1.933594.570313 4.421875-1.304687 5.652344l-121.066406 74.023438 140.75-81.234376c1.976562-1.085937 4.460937-.417968 5.621093 1.519532 1.164063 1.9375.582031 4.445312-1.308593 5.675781l-201.578126 124.960937 227.378907-131.273437c1.980469-1.042969 4.433593-.351563 5.570312 1.578125 1.140625 1.925781.566407 4.410156-1.304687 5.640625l-84.160156 50.761719 92.328124-53.296875c1.988282-1.132813 4.519532-.464844 5.6875 1.503906 1.164063 1.972656.539063 4.511719-1.410156 5.714844l-150.675781 91.5625 155.679687-89.882813c1.289063-.769531 2.886719-.792968 4.195313-.058594 1.308594.730469 2.128906 2.105469 2.148437 3.605469.023438 1.496094-.757812 2.894531-2.046874 3.660157l-216.039063 132.617187 217.046875-125.269531c1.976562-1.042969 4.417969-.355469 5.5625 1.5625 1.140625 1.917968.582031 4.394531-1.273438 5.636718l-215.980468 132.574219 212.378906-122.628906c1.980469-1.054687 4.441406-.371094 5.585938 1.558594 1.148437 1.929687.570312 4.421875-1.304688 5.652343l-175.421875 106.976563 171.140625-98.792969c1.980469-1.074218 4.453125-.394531 5.605469 1.539063 1.152343 1.933593.578125 4.429687-1.308594 5.664062l-208.769531 128.6875 204.472656-118.039062c1.984375-1.078125 4.46875-.390625 5.617188 1.550781 1.152343 1.945312.554687 4.449219-1.34375 5.667969l-78.488282 47.433593 74.214844-42.808593c1.984375-1.078125 4.46875-.394531 5.617188 1.550781 1.152343 1.941406.554687 4.449219-1.34375 5.667969l-94.207032 57.195312 89.933594-51.914062c1.976562-1.042969 4.421875-.355469 5.5625 1.5625 1.144531 1.921875.582031 4.398437-1.273438 5.636719l-126.742187 77.832031 122.453125-70.6875c1.972656-1.070313 4.4375-.398438 5.597656 1.527343 1.15625 1.921876.59375 4.414063-1.273437 5.65625l-168.601563 105.925782 164.277344-94.84375c1.972656-1.039063 4.410156-.359375 5.554688 1.550781 1.148437 1.910156.601562 4.382813-1.238282 5.632813l-123.761718 77.203124 119.445312-68.9375c1.964844-1.050781 4.410156-.382812 5.566406 1.519532 1.160156 1.902344.628906 4.378906-1.210937 5.640625l-143.175781 91.488281 138.820312-80.121094c1.976562-1.042968 4.421875-.355468 5.5625 1.5625 1.144531 1.917969.582031 4.394532-1.273438 5.636719l-16.785156 10.308594 12.503906-7.210938c1.964844-1.082031 4.429688-.429687 5.601563 1.480469 1.171875 1.90625.640625 4.398438-1.210937 5.664062l-123.710938 80.988282 119.320312-68.886719c1.960938-1.097656 4.441407-.453125 5.621094 1.457031 1.179688 1.914063.644532 4.414063-1.214844 5.675782l-101.859374 67.34375 97.453124-56.238282c1.972657-1.179687 4.523438-.554687 5.730469 1.398438 1.203125 1.953125.617188 4.515625-1.324219 5.746094l-71.5625 47.113281 67.148438-38.761719c1.941406-1.074219 4.382812-.453125 5.574219 1.417969 1.191406 1.871093.71875 4.34375-1.074219 5.648437l-77.75 54.332032 73.25-42.289063c1.964844-1.078125 4.429688-.429687 5.601562 1.480469 1.171876 1.910156.640626 4.402344-1.210937 5.664062l-13.613281 8.914063 9.230468-5.320313c1.953126-1.117187 4.433594-.496094 5.632813 1.402344 1.199219 1.902344.6875 4.410156-1.15625 5.6875l-28.589844 19.648438 24.113281-13.914063c1.933594-1.082031 4.375-.480469 5.578126 1.382813 1.203124 1.859374.753906 4.332031-1.027344 5.648437l-25.265625 18.164063 20.714843-11.960938c1.910157-1.066406 4.320313-.492188 5.539063 1.328125 1.21875 1.816406.835937 4.265625-.878906 5.625l-20.851563 16.148437 16.191406-9.351562c1.855469-1.109375 4.246094-.628906 5.53125 1.105469 1.28125 1.734375 1.039063 4.160156-.5625 5.609375l-16.59375 15.644531 10.074219-5.824219c1.300781-.828125 2.949219-.875 4.296875-.121094 1.34375.75 2.171875 2.179688 2.148438 3.71875-.019532 1.542969-.882813 2.949219-2.25 3.664063l-41.234375 23.777344c-1.84375 1.066406-4.191407.585937-5.464844-1.117188-1.28125-1.710937-1.070313-4.109375.484375-5.574219l16.613281-15.652343-38.6875 22.34375c-1.90625 1.070312-4.316406.492187-5.535156-1.324219s-.835937-4.265625.878906-5.625l20.839844-16.140625-40.019531 23.089844c-1.9375 1.121093-4.414063.527343-5.628906-1.355469-1.21875-1.878906-.742188-4.382812 1.078124-5.6875l25.25-18.136719-43.648437 25.179688c-1.945313 1.070312-4.386719.441406-5.570313-1.433594-1.1875-1.878906-.707031-4.355469 1.097657-5.652344l28.597656-19.648437-46.316406 26.734375c-1.957031 1.066406-4.410157.414062-5.578125-1.484375-1.171875-1.898438-.652344-4.378906 1.179687-5.648438l13.605469-8.914062-27.808594 16.046875c-1.9375 1.074219-4.378906.453125-5.570312-1.417969s-.722656-4.347656 1.074218-5.648438l77.730469-54.324218-106.34375 61.390625c-1.960937 1.097656-4.4375.453125-5.621093-1.457031-1.179688-1.914063-.644532-4.414063 1.214843-5.675782l71.527344-47.113281-93.972656 54.246094c-1.953125 1.050781-4.390625.402343-5.558594-1.488281-1.167969-1.886719-.664063-4.359376 1.152344-5.636719l101.871093-67.367188-129.023437 74.492188c-1.960937 1.066406-4.410156.414062-5.578125-1.484375-1.171875-1.898438-.652344-4.378906 1.179688-5.648438l123.660156-80.964844-152.609375 88.097657c-1.980469 1.074219-4.453125.394531-5.605469-1.539063s-.574219-4.429687 1.308594-5.664062l16.660156-10.230469-30.214844 17.433594c-1.96875 1.082031-4.4375.425781-5.605468-1.492188-1.171876-1.917969-.625-4.414062 1.238281-5.667969l143.175781-91.480468-170.875 98.640625c-1.972656 1.070312-4.4375.394531-5.59375-1.527344s-.597656-4.414063 1.273438-5.65625l123.828124-77.222656-146.265624 84.40625c-1.976563 1.109375-4.472657.445312-5.644532-1.496094-1.167968-1.9375-.585937-4.457031 1.316406-5.6875l168.707032-105.96875-196.027344 113.152344c-.636719.378906-1.359375.585937-2.101562.597656zm0 0" fill="#457393"/><path d="m118.09375 90.074219c-1.847656-.003907-3.480469-1.214844-4.015625-2.984375-.535156-1.769532.152344-3.679688 1.691406-4.707032l11.050781-7.351562c-1.554687.21875-3.101562-.46875-3.984374-1.769531-1.246094-1.796875-.90625-4.246094.78125-5.632813l37.316406-30.6875-17.617188 10.140625c-1.753906 1.007813-3.976562.625-5.289062-.914062-1.3125-1.539063-1.339844-3.792969-.066406-5.363281l17.265624-21.246094c-1.507812-.582032-2.546874-1.984375-2.667968-3.597656-.125-1.609376.691406-3.152344 2.097656-3.957032l13.292969-7.679687c1.753906-.996094 3.964843-.609375 5.273437.925781s1.339844 3.785156.074219 5.355469l-14.488281 17.859375 41.96875-24.214844c1.886718-1.054688 4.261718-.5 5.492187 1.273438 1.230469 1.777343.914063 4.195312-.734375 5.59375l-37.300781 30.675781 65.042969-37.519531c1.953125-1.066407 4.398437-.421876 5.574218 1.46875 1.175782 1.890624.667969 4.371093-1.152343 5.652343l-6.90625 4.597657 20.34375-11.71875c1.300781-.824219 2.953125-.871094 4.296875-.121094 1.347656.75 2.171875 2.179687 2.152344 3.722656-.023438 1.539062-.886719 2.945312-2.25 3.660156l-135.136719 77.976563c-.640625.371093-1.367188.566406-2.105469.5625zm0 0" fill="#457393"/><path d="m263.214844 405.136719c-1.804688 0-3.410156-1.15625-3.980469-2.867188-.570313-1.714843.019531-3.601562 1.464844-4.6875l57.351562-42.730469-84.4375 48.75c-1.972656 1.144532-4.496093.511719-5.6875-1.433593-1.191406-1.941407-.617187-4.480469 1.296875-5.71875l19.808594-12.90625-29.117188 16.785156c-1.960937 1.050781-4.398437.390625-5.5625-1.503906-1.164062-1.894531-.644531-4.367188 1.179688-5.640625l35.691406-23.207032-45.25 26.113282c-1.949218 1.054687-4.386718.410156-5.558594-1.472656-1.171874-1.878907-.679687-4.351563 1.125-5.636719l77.785157-52.039063-89.367188 51.542969c-1.96875 1.144531-4.492187.511719-5.6875-1.429687-1.191406-1.945313-.613281-4.484376 1.296875-5.722657l64.539063-41.964843-71.824219 41.464843c-1.960938 1.09375-4.4375.453125-5.617188-1.460937-1.183593-1.910156-.648437-4.414063 1.210938-5.675782l89.296875-58.863281-97.472656 56.238281c-1.964844 1.136719-4.476563.507813-5.671875-1.421874-1.195313-1.933594-.636719-4.464844 1.257812-5.714844l101.234375-66.988282-108.386719 62.625c-1.972656 1.128907-4.492187.476563-5.671874-1.46875-1.175782-1.949218-.589844-4.480468 1.324218-5.707031l60.871094-38.777343-63.597656 36.695312c-1.964844 1.050781-4.40625.382812-5.566406-1.519531-1.15625-1.902344-.625-4.378907 1.210937-5.640625l73.023437-46.820313-75.851562 43.789063c-1.972656 1.101562-4.460938.445312-5.636719-1.484375-1.171875-1.929688-.605469-4.441407 1.28125-5.683594l63.710938-40.597656-64.570313 37.273437c-1.964844 1.066406-4.425781.402344-5.585937-1.511718-1.160157-1.914063-.617188-4.402344 1.238281-5.65625l54.515625-34.5625-54.910156 31.691406c-1.964844 1.140625-4.476563.511718-5.671875-1.421875-1.195313-1.929688-.636719-4.460938 1.257812-5.710938l104.480469-69.253906-104.75 60.457031c-1.976563 1.109375-4.472656.445313-5.644531-1.492187-1.167969-1.941407-.585938-4.460938 1.316406-5.691407l25.832031-16.242187-23.859375 13.773437c-1.964844 1.050782-4.410156.386719-5.566406-1.519531-1.160156-1.902343-.628906-4.378906 1.207031-5.640625l57.628907-37.015625-54.394532 31.425781c-1.976562 1.160157-4.515625.519532-5.707031-1.4375-1.191406-1.957031-.59375-4.503906 1.339844-5.730468l42.3125-27.058594-38.609375 22.308594c-1.285156.777344-2.882813.808594-4.195313.082031-1.3125-.722656-2.140625-2.09375-2.171875-3.589844-.027344-1.5.742188-2.902343 2.027344-3.675781l8.050781-5.035156-2.753906 1.578125c-1.96875 1.066406-4.425781.398437-5.589844-1.515625-1.160156-1.914063-.613281-4.402344 1.242188-5.652344l7.554687-4.792969-2.25 1.300781c-1.972656 1.144532-4.496094.507813-5.6875-1.433593-1.191406-1.941407-.617187-4.480469 1.296875-5.71875l33.726563-21.992188-25.492188 14.714844c-1.957031 1.113281-4.441406.488281-5.636718-1.421875-1.191407-1.90625-.667969-4.417969 1.1875-5.6875l42.066406-28.410156-31.054688 17.902344c-1.941406 1.074218-4.382812.453124-5.574218-1.417969-1.1875-1.871094-.71875-4.347657 1.074218-5.648438l31.335938-21.890625-15.511719 8.953125c-1.910156 1.132813-4.371094.578125-5.613281-1.257812-1.246094-1.839844-.839844-4.332031.921875-5.683594l25.179687-19.6875c-1.582031-.503906-2.722656-1.890625-2.902344-3.542969-.183593-1.652344.625-3.253906 2.0625-4.089844l40.515626-23.398437c1.910156-1.132813 4.371093-.578125 5.613281 1.261719 1.242187 1.835937.839843 4.328125-.921875 5.679687l-17.542969 13.664063 48.246094-27.839844c1.945312-1.117188 4.425781-.507812 5.628906 1.386719 1.207031 1.894531.707031 4.398437-1.128906 5.6875l-31.265625 21.824219 49.753906-28.722657c1.957031-1.117187 4.441406-.488281 5.636719 1.417969 1.195312 1.910156.671875 4.417969-1.1875 5.691406l-42.109375 28.453125 56.386718-32.550781c1.960938-1.082031 4.429688-.429688 5.601563 1.480469 1.171875 1.90625.640625 4.398437-1.210937 5.664062l-33.726563 21.996094 43.648437-25.179687c1.964844-1.039063 4.398438-.363282 5.550782 1.539062 1.148437 1.902344.617187 4.371094-1.210938 5.628906l-7.4375 4.71875 12.917969-7.453125c1.972656-1.085937 4.449219-.421875 5.613281 1.503907 1.164063 1.925781.601563 4.429687-1.273437 5.671874l-8.015625 5.035157 13.292968-7.671875c1.96875-1.082032 4.4375-.421875 5.605469 1.492187 1.167969 1.917969.621094 4.414063-1.238281 5.667969l-42.363281 27.09375 48.078125-27.738281c1.980468-1.210938 4.5625-.582031 5.769531 1.394531 1.207031 1.980469.582031 4.5625-1.398437 5.773438l-57.710938 37.054687 63.789062-36.828125c1.976563-1.109375 4.476563-.449219 5.644532 1.492188 1.171875 1.941406.589844 4.460937-1.3125 5.691406l-25.761719 16.191406 28.539063-16.484375c1.964843-1.140625 4.476562-.511719 5.671874 1.421875 1.195313 1.929688.640626 4.460938-1.257812 5.710938l-104.472656 69.261718 111.464844-64.351562c1.96875-1.066406 4.425781-.398438 5.589843 1.515625 1.160157 1.914062.613281 4.402343-1.242187 5.652343l-54.378906 34.507813 56.453124-32.59375c1.96875-1.101563 4.460938-.445313 5.632813 1.484375s.609375 4.441406-1.277344 5.683594l-63.789062 40.640625 65.804687-37.988281c1.964844-1.050782 4.40625-.382813 5.566406 1.519531 1.15625 1.902343.625 4.378906-1.210937 5.640625l-73.023437 46.816406 73.980468-42.710938c1.96875-1.101562 4.460938-.449218 5.632813 1.480469 1.171875 1.933594.609375 4.445313-1.277344 5.6875l-60.917969 38.808594 60.96875-35.191406c1.957032-1.082031 4.417969-.4375 5.59375 1.460937 1.179688 1.902344.660156 4.394532-1.179687 5.664063l-101.214844 67.003906 101.171875-58.367187c1.957031-1.050782 4.394531-.402344 5.5625 1.488281 1.167969 1.886719.660156 4.359375-1.15625 5.636719l-89.304688 58.847656 86.964844-50.175782c1.960938-1.050781 4.398438-.390624 5.5625 1.503907 1.164063 1.894531.644532 4.367187-1.179687 5.640625l-64.5625 41.964844 61.019531-35.253907c1.957031-1.132812 4.464844-.511719 5.664062 1.410157 1.199219 1.921874.65625 4.449218-1.222656 5.710937l-77.734375 52.039063 71.707031-41.398438c1.964844-1.097656 4.449219-.449219 5.625 1.472656 1.175782 1.917969.628907 4.425782-1.246093 5.679688l-35.679688 23.222656 28.175781-16.257812c1.960938-1.050782 4.402344-.390626 5.5625 1.503906 1.164063 1.898437.644532 4.371094-1.179687 5.640625l-19.816406 12.917969 11.589843-6.714844c1.925782-1.09375 4.367188-.507813 5.582032 1.34375 1.214844 1.847656.785156 4.324218-.980469 5.65625l-57.320313 42.753906 37.636719-21.710938c1.90625-1.078124 4.316407-.507812 5.542969 1.304688 1.222656 1.8125.851562 4.261719-.859375 5.628906l-25.179687 19.730469c1.582031.503906 2.722656 1.890625 2.902343 3.542969.183594 1.648437-.628906 3.253906-2.0625 4.085937l-40.5 23.386719c-1.910156 1.128906-4.371093.578125-5.613281-1.261719-1.242188-1.839843-.839844-4.328125.921875-5.679687l17.550781-13.742188-48.304687 27.882813c-.648438.378906-1.386719.574219-2.140625.5625zm0 0" fill="#e4e8eb"/><path d="m258.003906 355.121094c-1.789062-.003906-3.375-1.140625-3.957031-2.828125-.585937-1.6875-.035156-3.5625 1.371094-4.667969l27.613281-21.703125-46.835938 27.066406c-1.925781 1.105469-4.378906.515625-5.59375-1.339843-1.21875-1.859376-.777343-4.34375 1.003907-5.667969l41.707031-30.8125-54.75 31.609375c-1.945312 1.058594-4.378906.421875-5.558594-1.453125-1.175781-1.875-.695312-4.34375 1.101563-5.636719l25.589843-17.425781-31.363281 18.113281c-1.9375 1.140625-4.429687.554688-5.652343-1.332031-1.226563-1.882813-.746094-4.398438 1.085937-5.703125l61.269531-44.390625-69.855468 40.285156c-1.957032 1.097656-4.429688.460937-5.617188-1.441406-1.183594-1.902344-.664062-4.402344 1.183594-5.675781l29.929687-20.007813-32.734375 18.902344c-1.960937 1.164062-4.5.546875-5.707031-1.394531-1.203125-1.9375-.636719-4.488282 1.277344-5.734376l29.839843-19.882812-31.15625 17.988281c-1.941406 1.117188-4.421874.515625-5.632812-1.371093-1.207031-1.886719-.722656-4.390626 1.105469-5.6875l60.785156-42.976563-62.386719 36.007813c-1.945312 1.121093-4.425781.507812-5.632812-1.382813-1.207032-1.898437-.703125-4.414063 1.140625-5.699219l48.960937-33.960937-47.800781 27.597656c-1.929687 1.089844-4.371094.492187-5.578125-1.363281-1.210938-1.855469-.769531-4.328125 1.003906-5.652344l56.765625-41.457031-53.140625 30.671875c-1.933594 1.109375-4.398437.511718-5.609375-1.359375-1.214843-1.871094-.75-4.363281 1.050781-5.675781l38.335938-27.699219-31.292969 18.0625c-1.917969 1.101562-4.363281.519531-5.585937-1.324219-1.21875-1.84375-.800782-4.320312.960937-5.660156l27.171875-20.4375-14.800781 8.546875c-1.90625 1.191406-4.414063.667969-5.683594-1.1875-1.273437-1.855469-.855469-4.378907.941407-5.730469l17.628906-14.46875c-1.308594-.75-2.113282-2.136719-2.113282-3.644531 0-1.503907.804688-2.894531 2.113282-3.640625l30.214844-17.425782c1.890624-1.09375 4.308593-.554687 5.550781 1.238282 1.246093 1.796875.90625 4.25-.78125 5.636718l-7.859375 6.453126 30.613281-17.667969c1.917969-1.101563 4.363281-.519531 5.585937 1.324219 1.21875 1.84375.800782 4.320312-.960937 5.660156l-27.152344 20.421875 42.417969-24.492188c1.933594-1.109375 4.398438-.515625 5.613281 1.355469 1.210938 1.871094.75 4.363281-1.054687 5.675781l-38.339844 27.699219 49.78125-28.730469c1.925781-1.089843 4.367188-.492187 5.578125 1.363281 1.207031 1.855469.769531 4.328126-1.003906 5.652344l-56.75 41.449219 67.148437-38.777344c1.949219-1.136719 4.449219-.527343 5.65625 1.378907 1.207032 1.90625.691406 4.425781-1.164062 5.703124l-48.984375 34.019532 54.238281-31.359375c1.941406-1.117188 4.417969-.515625 5.628906 1.371093 1.210938 1.886719.722656 4.390626-1.105468 5.6875l-60.820313 43.019532 65.21875-37.65625c1.960937-1.113282 4.449219-.480469 5.640625 1.4375 1.1875 1.914062.652344 4.429687-1.21875 5.691406l-29.730469 19.816406 30.320313-17.507812c1.964844-1.226563 4.554687-.625 5.78125 1.339844 1.226562 1.96875.625 4.558593-1.34375 5.785156l-30.039063 20.078125 29.292969-16.890625c1.9375-1.140625 4.429688-.554688 5.652344 1.332031 1.226562 1.882813.746094 4.398437-1.085938 5.703125l-61.273437 44.394531 59.59375-34.414062c1.953125-1.097657 4.421875-.46875 5.613281 1.425781 1.191406 1.898438.679688 4.394531-1.15625 5.675781l-25.582031 17.40625 20.984375-12.128906c1.925781-1.101563 4.378906-.515625 5.59375 1.34375 1.21875 1.855469.777344 4.339844-1.003906 5.664063l-41.730469 30.820312 33.640625-19.421875c1.902344-1.074219 4.316406-.507813 5.539062 1.304687 1.226563 1.8125.851563 4.265626-.855468 5.628907l-27.648438 21.699219 12.808594-7.355469c1.300781-.824219 2.949218-.875 4.296875-.121094 1.34375.75 2.171875 2.179687 2.148437 3.722656-.019531 1.539063-.882812 2.945313-2.25 3.660157l-64.023437 36.929687c-.644531.394531-1.382813.601563-2.132813.605469zm0 0" fill="#66d4f1"/><g fill="#262626"><path d="m45.164062 448.582031c61.269532 4.632813 124.734376 0 186.171876 0 71.34375 0 142.800781 1.425781 214.109374 0 18.84375-.378906 37.964844.277344 50.125-17.515625 13.347657-19.542968 6.816407-55.5 6.816407-77.40625v-220.578125c0-.21875-.117188-.363281-.144531-.5625.042968-.203125.0625-.40625.0625-.613281-6.222657-38.609375-37.527344-36.4375-68.542969-36.4375-9.972657 1.023438-20.023438 1.023438-29.996094 0-1.265625-.347656-2.558594-.574219-3.863281-.671875-.140625-.132813-.183594-.207031-.394532-.394531-10.910156-9.230469-18.171874-33.304688-25.019531-45.859375-11.398437-20.898438-16.410156-40.648438-40.875-45.402344-29.796875-5.78125-66.308593 0-96.644531 0-20.839844 0-58.214844-7.730469-77.789062 3.214844-19.574219 10.945312-31.425782 49.902343-41.304688 67.988281-3.003906 6.4375-6.40625 12.679688-10.191406 18.691406-.550782.746094-1.0625 1.523438-1.535156 2.324219-.160157 0-.277344 0-.46875.09375-17.230469 4.398437-39.398438-1.109375-57.195313 0-25.960937 1.628906-42.269531 13.554687-45.238281 40.597656-7.304688 66.375 0 137.542969 0 204.289063 0 39.835937-13.574219 104.054687 41.917968 108.242187zm-1.394531-344.132812c18.390625-5.65625 46.5 0 65.828125 0 2.625-.082031 5.019532-1.507813 6.347656-3.773438 13.085938-23.992187 24.894532-61.558593 44.03125-80.714843 18.40625-18.464844 72.257813-7.835938 96.421876-7.835938 23.714843 0 71.195312-9.789062 88.972656 8.753906 19.304687 20.144532 31.128906 57.074219 44.601562 81.765625.90625 1.679688 3.441406 1.804688 5.035156 1.804688 31.308594 0 88.058594-11.152344 95.089844 30.386719v229.695312c0 28.613281 8.503906 66.214844-31.28125 75.070312-26.953125 5.992188-62.320312 0-89.808594 0h-279.101562c-29.652344 0-68.699219 8.226563-74.339844-32.40625-4.558594-32.863281 0-69.550781 0-102.667968v-152.445313c0-21.066406-3.375-37.917969 28.203125-47.632812zm0 0"/><path d="m112.445312 269.457031c.894532 38.441407 17.632813 74.800781 46.25 100.476563 28.621094 25.675781 66.578126 38.382812 104.890626 35.113281 72.28125-6.117187 128.246093-65.878906 129.609374-138.410156-.597656-38.300781-17.011718-74.652344-45.351562-100.429688-28.335938-25.777343-66.070312-38.6875-104.261719-35.667969-72.617187 5.632813-129.234375 65.226563-131.144531 138.039063 0 .175781.105469.273437.125.433594.015625.160156-.125.285156-.117188.445312zm159.558594-130.636719c62.890625 11.46875 108.578125 66.273438 108.535156 130.199219 0 79.21875-72.023437 143.941407-152.40625 126.632813-62.113281-13.363282-100.722656-67.675782-103.492187-128.964844 3.457031-76.457031 66.28125-141.765625 147.363281-127.867188zm0 0"/><path d="m247.980469 354.871094c.789062.242187 1.621093.324218 2.445312.242187 44.960938-2.425781 86.785157-31.257812 91.90625-78.941406 2.304688-24.519531-5.835937-48.871094-22.421875-67.078125-16.582031-18.203125-40.074218-28.570312-64.703125-28.554688-44.386719-.40625-82.738281 30.9375-91.175781 74.515626-8.914062 53.96875 32.765625 95.8125 83.949219 99.816406zm2.445312-167.617188c98.4375-1.300781 108.339844 155.570313 4.78125 161.152344-97.238281-5.246094-109.390625-159.777344-4.78125-161.152344zm0 0"/><path d="m428.582031 146.535156h16.789063c3.109375.035156 5.847656-2.035156 6.664062-5.035156.308594-3.214844-3.183594-4.195312-5.675781-4.195312h-16.785156c-3.109375-.035157-5.847657 2.035156-6.664063 5.035156-.3125 3.222656 3.179688 4.195312 5.671875 4.195312zm0 0"/></g></svg>