<svg height="510pt" viewBox="0 -62 510.65697 510" width="510pt" xmlns="http://www.w3.org/2000/svg"><path d="m494.574219 375.226562c-1.460938-.003906-2.820313-.75-3.601563-1.984374-.78125-1.234376-.878906-2.78125-.257812-4.101563l2.375-5.007813-3.203125 1.832032c-1.65625.960937-3.746094.699218-5.117188-.640625-1.371093-1.335938-1.679687-3.421875-.761719-5.101563l7.679688-13.976562-11.902344 6.828125c-1.820312 1.046875-4.132812.613281-5.449218-1.023438-1.320313-1.632812-1.25-3.984375.160156-5.539062l6.824218-7.554688-8.6875 5.011719c-1.851562 1.027344-4.179687.542969-5.464843-1.144531-1.285157-1.683594-1.136719-4.058594.347656-5.574219l9.0625-8.933594-11.144531 6.433594c-1.882813 1.109375-4.300782.617188-5.597656-1.140625-1.300782-1.757813-1.0625-4.210937.554687-5.683594l11.945313-11.09375-14.449219 8.335938c-1.890625 1.078125-4.292969.554687-5.566407-1.210938-1.277343-1.765625-1.015624-4.207031.601563-5.667969l15.785156-14.035156-18.773437 10.820313c-1.878906 1.078125-4.269532.570312-5.554688-1.171875-1.285156-1.746094-1.054687-4.179688.53125-5.65625l26.546875-24.414063-31.660156 18.277344c-1.945313 1.128906-4.433594.546875-5.683594-1.324219-1.246093-1.871094-.828125-4.390625.957031-5.757812l12.375-9.4375-14.183593 8.183594c-1.910157 1.109374-4.351563.574218-5.625-1.230469-1.273438-1.808594-.957031-4.285157.726562-5.714844l36.121094-30.78125-41.863281 24.167969c-1.972656 1.109375-4.464844.484375-5.683594-1.421875-1.21875-1.902344-.742188-4.429688 1.09375-5.753907l5.332031-3.773437-6.425781 3.710937c-1.929688 1.078126-4.359375.503907-5.605469-1.320312-1.242187-1.824219-.890625-4.296875.816407-5.699219l43.375-34.570312-49.015626 28.289062c-1.960937 1.089844-4.429687.476563-5.652343-1.40625-1.222657-1.882812-.777344-4.390625 1.019531-5.738281l31.710938-22.988281-34.902344 20.15625c-1.953125 1.144531-4.460938.566406-5.710938-1.320313-1.253906-1.886718-.8125-4.425781 1-5.777344l51.507813-38.972656-57.097657 32.953125c-1.960937 1.101563-4.445312.488281-5.667968-1.402343-1.222656-1.890626-.765625-4.40625 1.042968-5.746094l49.640626-35.941406-54.253907 31.316406c-1.984375 1.152344-4.523437.53125-5.75-1.402344-1.230469-1.9375-.707031-4.5 1.183594-5.800781l41.898437-29.097657-45.296874 26.144532c-1.96875 1.125-4.472657.511718-5.703126-1.398438-1.226562-1.90625-.742187-4.441406 1.097657-5.769531l61.585937-43.9375-66.816406 38.570313c-1.980469 1.117187-4.488281.488281-5.703125-1.433594-1.21875-1.921875-.710937-4.457032 1.144531-5.769532l55.21875-38.046874-59.3125 34.25c-1.324218.777343-2.957031.78125-4.285156.019531s-2.144531-2.175781-2.140625-3.707031.828125-2.945313 2.15625-3.703126l152.226563-87.890624c1.984374-1.132813 4.507812-.503907 5.726562 1.425781 1.21875 1.933593.699219 4.484375-1.175781 5.785156l-55.230469 38.039063 50.679688-29.257813c1.972656-1.125 4.476562-.511719 5.703124 1.398437 1.226563 1.90625.746094 4.441407-1.09375 5.769532l-61.601562 43.953125 56.992188-32.894531c1.976562-1.105469 4.472656-.472657 5.683593 1.4375 1.214844 1.910156.722657 4.4375-1.117187 5.753906l-41.875 29.089844 37.308594-21.535157c1.960937-1.09375 4.433593-.476562 5.65625 1.40625 1.21875 1.882813.773437 4.386719-1.023438 5.734375l-49.644531 35.960938 45.011719-25.984375c1.953124-1.117188 4.4375-.53125 5.679687 1.34375 1.242187 1.878906.8125 4.394531-.976563 5.753906l-51.507812 38.972656 46.804688-27.023437c1.96875-1.128906 4.472656-.523438 5.707031 1.378906 1.230469 1.902344.761719 4.4375-1.074219 5.769531l-31.734375 23.042969 27.101563-15.652344c1.933593-1.101562 4.390624-.535156 5.640624 1.304688 1.253907 1.839844.882813 4.332031-.851562 5.726562l-43.367188 34.542969 38.578126-22.261719c1.96875-1.074218 4.429687-.441406 5.636718 1.445313 1.207032 1.882812.75 4.382812-1.046875 5.722656l-5.382812 3.804687.800781-.460937c1.914062-1.105469 4.355469-.570313 5.625 1.234375 1.273438 1.804688.960938 4.28125-.726562 5.710938l-36.128907 30.773437 31.230469-18.015625c1.949219-1.101562 4.414062-.511719 5.652344 1.347656 1.242187 1.863282.832031 4.363282-.933594 5.734375l-12.347656 9.386719 7.628906-4.394531c1.882812-1.074219 4.273438-.570313 5.558594 1.175781 1.285156 1.742188 1.054687 4.175781-.53125 5.652344l-26.546875 24.40625 21.511719-12.410156c1.894531-1.074219 4.292968-.554688 5.570312 1.210937 1.273438 1.765625 1.015625 4.210937-.601562 5.667969l-15.78125 14.003906 10.820312-6.246094c1.882812-1.09375 4.285156-.59375 5.578125 1.15625s1.058594 4.195313-.542969 5.667969l-11.945312 11.09375 6.902344-3.984375c1.851562-1.027344 4.179687-.542969 5.464843 1.144531 1.285157 1.683594 1.140625 4.058594-.34375 5.570313l-9.027343 8.988281 3.890624-2.246094c1.820313-1.046875 4.132813-.613281 5.449219 1.019531 1.316407 1.636719 1.25 3.988282-.160156 5.542969l-6.824219 7.550781 1.550782-.894531c1.660156-.957031 3.75-.691406 5.117187.648438 1.367187 1.339843 1.675781 3.425781.753906 5.101562l-7.679687 13.980469 1.808594-1.042969c1.613281-.914062 3.636718-.683593 5 .574219 1.363281 1.261719 1.757812 3.257812.972656 4.9375l-3.121094 6.605469c1.242188.210937 2.328125.96875 2.953125 2.066406 1.171875 2.035156.476563 4.636719-1.554687 5.820313l-8.21875 4.742187c-.636719.386719-1.363282.597656-2.105469.617187zm0 0" fill="#5e9cea"/><path d="m297.257812 256.261719c-1.675781 0-3.195312-.976563-3.890624-2.5-.691407-1.523438-.429688-3.3125.671874-4.574219l1.09375-1.246094-1.628906.9375c-1.867187 1.089844-4.25.617188-5.554687-1.101562-1.304688-1.722656-1.117188-4.144532.433593-5.648438l24.25-23.535156-30.222656 17.460938c-2.011718 1.148437-4.566406.484374-5.765625-1.492188-1.199219-1.980469-.605469-4.554688 1.34375-5.804688l48.332031-30.632812-51.199218 29.53125c-2.003906 1.140625-4.550782.484375-5.75-1.480469-1.203125-1.96875-.625-4.535156 1.304687-5.796875l77.976563-50.074218-82.132813 47.410156c-1.996093 1.101562-4.5.4375-5.691406-1.5-1.195313-1.941406-.652344-4.476563 1.230469-5.761719l109.78125-71.78125-115.824219 66.886719c-2.011719 1.226562-4.636719.597656-5.867187-1.414063-1.230469-2.011719-.597657-4.636719 1.414062-5.867187l105.09375-67.863282-110.480469 63.777344c-2.015625 1.160156-4.589843.496094-5.789062-1.5-1.195313-1.992187-.578125-4.582031 1.394531-5.8125l61.839844-38.804687-64.910156 37.480469c-2.011719 1.125-4.550782.453124-5.742188-1.519532-1.1875-1.972656-.597656-4.535156 1.339844-5.785156l78.777344-49.628906-82.449219 47.597656c-2.023438 1.207031-4.640625.542969-5.847657-1.480469-1.207031-2.023437-.542968-4.644531 1.480469-5.847656l11.59375-7.144531-13.164062 7.605468c-2.011719 1.125-4.550781.453126-5.742188-1.519531-1.1875-1.976562-.597656-4.535156 1.339844-5.785156l58.246094-36.59375-61.226563 35.363281c-2.007812 1.234375-4.636718.609375-5.871094-1.398437-1.234374-2.007813-.609374-4.636719 1.398438-5.871094l100.746094-65.800781-106.359375 61.4375c-2.007813 1.179687-4.589844.527344-5.800781-1.460938-1.210938-1.988281-.605469-4.582031 1.363281-5.824218l62.863281-40.335938-66.4375 38.398438c-2.039062 1.160156-4.632812.457031-5.804688-1.574219-1.171874-2.03125-.488281-4.628907 1.535157-5.816407l223.8125-129.304687c1.304687-.792969 2.929687-.832031 4.269531-.101563 1.335938.726563 2.183594 2.117188 2.222656 3.640626.035156 1.527343-.742187 2.953124-2.042968 3.75l-62.875 40.335937 82.492187-47.625c2.007813-1.234375 4.636719-.609375 5.871094 1.398437 1.234375 2.007813.605469 4.636719-1.402344 5.871094l-100.691406 65.800782 126.558593-73.070313c2.007813-1.125 4.550782-.453125 5.738282 1.519531 1.191406 1.972656.597656 4.535156-1.335938 5.785156l-58.367187 36.691407 75.179687-43.40625c2.023438-1.207031 4.640625-.542969 5.847656 1.480469 1.207032 2.023437.542969 4.640624-1.480468 5.847656l-11.484375 7.074218 13.105469-7.570312c2.015624-1.214844 4.640624-.570312 5.859374 1.449219 1.21875 2.015625.570313 4.640625-1.449218 5.855469l-78.753906 49.613281 74.589843-43.066407c2.015625-1.160156 4.59375-.496093 5.789063 1.5 1.199218 1.992188.578125 4.578126-1.394532 5.8125l-61.863281 38.820313 57.496094-33.273437c2.003906-1.140626 4.550781-.484376 5.75 1.484374 1.203125 1.96875.625 4.535157-1.304687 5.792969l-105.113282 67.910157 100.695313-58.121094c1.992187-1.097656 4.5-.4375 5.691406 1.503906s.652344 4.476562-1.230469 5.757812l-109.816406 71.800782 105.335938-60.808594c2.007812-1.179688 4.589843-.527344 5.800781 1.460938 1.210937 1.988281.605469 4.582031-1.363281 5.824218l-78.003907 50.082032 73.550781-42.460938c2.003907-1.101562 4.523438-.425781 5.707032 1.53125s.613281 4.503906-1.296875 5.765625l-160.5625 101.792969c.339843 1.460937-.109375 2.992187-1.1875 4.039062l-27.304688 26.453125c.984375.179688 1.871094.707031 2.5 1.484375 1.324219 1.609375 1.292969 3.941406-.078125 5.511719l-12.363281 14.164063c.40625 1.820312-.417969 3.695312-2.03125 4.625l-4.640625 2.679687c-.644531.378906-1.375.582031-2.117188.589844zm0 0" fill="#5e9cea"/><path d="m8.402344 378.015625c-1.699219 0-3.234375-1.007813-3.914063-2.5625-.675781-1.558594-.367187-3.371094.792969-4.613281l11.195312-12.042969-5.972656 3.414063c-1.882812 1.089843-4.285156.585937-5.574218-1.167969-1.289063-1.753907-1.050782-4.191407.546874-5.667969l28.65625-26.367188-23.628906 13.652344c-1.933594 1.105469-4.390625.535156-5.640625-1.304687-1.253906-1.839844-.882812-4.332031.851563-5.726563l35.984375-28.578125-31.214844 17.988281c-1.980469 1.15625-4.519531.535157-5.75-1.402343-1.226563-1.9375-.703125-4.496094 1.1875-5.796875l10.589844-7.339844-6.027344 3.480469c-1.988281 1.179687-4.558594.558593-5.789063-1.402344-1.230468-1.960937-.671874-4.546875 1.257813-5.824219l14.261719-9.675781-9.738282 5.613281c-1.964843 1.101563-4.445312.484375-5.667968-1.40625s-.765625-4.40625 1.042968-5.746094l68.464844-49.261718-63.839844 36.882812c-1.992187 1.066406-4.472656.398438-5.652343-1.53125-1.183594-1.925781-.65625-4.441406 1.199219-5.730468l20.054687-13.066407-15.601563 8.960938c-1.980468 1.085937-4.464843.4375-5.664062-1.476563-1.203125-1.914062-.699219-4.433594 1.140625-5.742187l79.011719-53.566407-74.488282 43c-2.011718 1.09375-4.523437.402344-5.695312-1.5625-1.175781-1.964843-.589844-4.503906 1.328125-5.757812l148.90625-91.957031-144.539063 83.449219c-2.011718 1.0625-4.503906.355468-5.664062-1.605469-1.15625-1.957031-.570312-4.480469 1.328125-5.734375l10.4375-6.3125-6.101563 3.515625c-2.011718 1.089843-4.523437.398437-5.695312-1.566407-1.175781-1.964843-.589844-4.503906 1.328125-5.757812l105.546875-65.148438-101.179688 58.410157c-2.003906 1.042969-4.472656.34375-5.632812-1.597657-1.160156-1.941406-.605469-4.445312 1.265625-5.71875l90.734375-56.15625-86.367188 49.878907c-2.019531 1.152343-4.59375.46875-5.78125-1.53125-1.1875-2.003907-.550781-4.585938 1.429688-5.808594l15.191406-9.277344-10.839844 6.257813c-2.007812 1.148437-4.566406.484375-5.765624-1.496094-1.199219-1.976562-.601563-4.550781 1.347656-5.800781l115.445312-73.5-111.027344 64.105469c-1.996093 1.132812-4.535156.484374-5.742187-1.472657-1.203125-1.957031-.640625-4.519531 1.273437-5.789062l123.730469-81.238281-119.261719 68.839843c-2.007812 1.144531-4.566406.484375-5.765624-1.496093-1.199219-1.976563-.601563-4.550782 1.347656-5.800782l55.125-34.988281-50.707032 29.261719c-2.015624 1.160156-4.589843.496094-5.789062-1.5-1.195312-1.992188-.578125-4.578125 1.394531-5.8125l5.386719-3.371094-.992188.570312c-1.992187 1.132813-4.523437.492188-5.734374-1.457031-1.207032-1.949219-.660157-4.503906 1.238281-5.785156l70.117187-46.78125-65.621094 37.886719c-1.992187 1.15625-4.539062.523437-5.757812-1.433594-1.21875-1.953125-.667969-4.519531 1.246094-5.800781l51.394531-34.601563-46.882813 27.039063c-1.996093 1.160156-4.550781.519531-5.765624-1.445313-1.214844-1.960937-.648438-4.535156 1.277343-5.808594l18.132813-11.996093-13.652344 7.875c-1.949219 1.109375-4.421875.523437-5.664062-1.347657-1.242188-1.867187-.824219-4.375.953124-5.742187l48.640626-37.09375-43.921876 25.386719c-1.957031 1.136718-4.464843.550781-5.707031-1.34375-1.246093-1.890625-.796875-4.425782 1.023438-5.773438l20.703125-15.460937-16.019532 9.25c-1.945312 1.085937-4.402343.488281-5.632812-1.371094-1.234375-1.855469-.828125-4.351563.933594-5.722656l5.75-4.367188-1.050782.605469c-1.8125 1.058594-4.132812.640625-5.457031-.992188-1.328125-1.628906-1.273437-3.980468.132813-5.542968l13.234375-14.875-7.910157 4.574218c-1.671874.945313-3.773437.652344-5.125-.714843-1.355468-1.363281-1.628906-3.464844-.667968-5.132813l3.414062-5.921875c-1.703125-.398437-2.988281-1.796875-3.246094-3.523437-.257812-1.726563.566407-3.4375 2.074219-4.316406l9.652344-5.539063c1.675781-.96875 3.792969-.6875 5.160156.683594 1.363281 1.371093 1.636719 3.488281.660157 5.160156l-2.277344 3.910156 16.894531-9.753906c1.8125-1.046875 4.117187-.625 5.441406.996094 1.324219 1.625 1.273438 3.964843-.117187 5.53125l-13.242188 14.847656 37.085938-21.375c1.945312-1.085937 4.402344-.492187 5.632812 1.367187 1.234375 1.859376.828125 4.351563-.929687 5.722657l-5.734375 4.363281 19.828125-11.453125c1.960937-1.140625 4.464843-.550781 5.710937 1.339844 1.246094 1.894531.796875 4.429687-1.023437 5.777343l-20.710938 15.425782 39.097657-22.542969c1.953124-1.136719 4.449218-.554687 5.699218 1.324219s.820313 4.40625-.980468 5.765625l-48.636719 37.09375 76.484375-44.183594c2-1.242187 4.632812-.625 5.875 1.378906 1.238281 2.003907.625 4.632813-1.378906 5.875l-18.125 11.972657 33.339843-19.226563c1.984375-1.101563 4.484375-.453125 5.683594 1.472656 1.203125 1.925781.6875 4.453125-1.171875 5.753907l-51.386719 34.585937 72.449219-41.8125c1.992188-1.132813 4.523438-.488281 5.734375 1.457031 1.207031 1.949219.664063 4.503906-1.238281 5.789063l-70.117188 46.777343 93.574219-54.023437c2.019531-1.214844 4.644531-.566406 5.859375 1.453125s.566406 4.644531-1.453125 5.859375l-5.328125 3.328125 18.441406-10.640625c1.304688-.792969 2.929688-.828125 4.265625-.09375 1.339844.734375 2.183594 2.125 2.214844 3.648437.035156 1.523438-.746094 2.949219-2.050781 3.742188l-55.210938 35.070312 73.386719-42.367187c2.003906-1.199219 4.597656-.566406 5.824219 1.421875 1.226562 1.984375.625 4.589844-1.34375 5.839844l-123.691406 81.1875 153.257812-88.449219c2.011719-1.148437 4.570312-.484375 5.765625 1.492187 1.199219 1.980469.605469 4.554688-1.34375 5.804688l-115.464844 73.460938 139.9375-80.757813c1.3125-.777344 2.9375-.800781 4.269531-.054687 1.328126.746093 2.160157 2.144531 2.179688 3.671874.019531 1.523438-.777344 2.941407-2.089844 3.722657l-15.195312 9.242187 28.78125-16.582031c1.308594-.78125 2.9375-.804687 4.269531-.0625s2.167969 2.140625 2.1875 3.664063c.023437 1.523437-.769531 2.945312-2.078125 3.726562l-90.699219 56.082031 109.890625-63.410156c2.023438-1.207031 4.644532-.542969 5.847656 1.480469 1.207032 2.023437.546876 4.644531-1.480468 5.847656l-105.539063 65.136719 125.535157-72.464844c1.3125-.777344 2.9375-.792969 4.265624-.042969 1.328126.746094 2.15625 2.148438 2.171876 3.671875.015624 1.523438-.78125 2.941407-2.09375 3.71875l-10.410157 6.289063 23.617188-13.652344c2.027343-1.207031 4.644531-.546875 5.851562 1.480469 1.207031 2.023437.542969 4.640625-1.480469 5.847656l-217.105468 134.050781c.507812.332032.933594.773438 1.253906 1.289063 1.222656 1.949219.679688 4.515625-1.230469 5.800781l-79.035156 53.574219 50.476563-29.140625c2.003906-1.167969 4.570312-.519532 5.78125 1.453125 1.210937 1.976562.625 4.558593-1.320313 5.816406l-20.042969 13.054687.265625-.152343c1.96875-1.140625 4.488281-.535157 5.722657 1.375 1.234374 1.914062.75 4.457031-1.097657 5.785156l-68.464843 49.269531 37.402343-21.589844c1.984375-1.113281 4.496094-.476562 5.703125 1.453126 1.210938 1.925781.695313 4.464843-1.171875 5.765624l-18.140625 12.347657c1.625-.175781 3.214844.582031 4.101563 1.957031 1.226562 1.933594.707031 4.492188-1.175781 5.792969l-17.210938 11.945312c1.785156.070313 3.339844 1.242188 3.894531 2.941407.554688 1.699218-.011719 3.5625-1.414062 4.671874l-36.035157 28.585938 7.363282-4.265625c1.882812-1.078125 4.273437-.574219 5.558594 1.171875 1.285156 1.746094 1.054687 4.179688-.53125 5.652344l-29.808594 27.46875c1.777344-.203125 3.496094.71875 4.300781 2.316406.808594 1.597656.53125 3.527344-.6875 4.835938l-20.191406 21.710937c.082031.101563.152343.207031.214843.324219 1.171876 2.039062.472657 4.640625-1.5625 5.816406l-10 5.777344c-.648437.382812-1.386718.582031-2.136718.582031zm0 0" fill="#5e9cea"/><path d="m326.953125 129.660156c-1.660156.003906-3.167969-.957031-3.871094-2.457031-.703125-1.503906-.46875-3.277344.59375-4.546875l14.910157-17.84375-32.097657 18.527344c-1.914062 1.109375-4.359375.574218-5.632812-1.238282-1.273438-1.808593-.949219-4.292968.746093-5.71875l13.25-11.203124-16.699218 9.640624c-1.941406 1.125-4.417969.554688-5.675782-1.304687-1.253906-1.859375-.855468-4.371094.914063-5.75l5.078125-3.976563-4.640625 2.679688c-1.871094 1.0625-4.238281.570312-5.527344-1.148438-1.292969-1.722656-1.097656-4.132812.449219-5.628906l18.652344-17.917968-14.421875 8.328124c-1.847657 1.078126-4.210938.621094-5.523438-1.074218-1.3125-1.691406-1.164062-4.097656.34375-5.617188l8.773438-8.910156c-1.546875-.5625-2.632813-1.972656-2.785157-3.613281-.152343-1.644531.65625-3.226563 2.078126-4.066407l19.703124-11.382812c1.847657-1.078125 4.214844-.621094 5.523438 1.074219 1.3125 1.691406 1.164062 4.097656-.34375 5.617187l-4.839844 4.90625 17.714844-10.238281c1.875-1.148437 4.308594-.6875 5.632812 1.066406 1.324219 1.75 1.101563 4.21875-.511718 5.707031l-18.644532 17.921876 26.707032-15.421876c1.941406-1.117187 4.410156-.546874 5.664062 1.304688 1.253906 1.855469.863282 4.359375-.890625 5.746094l-5.121093 4 5.519531-3.183594c1.914062-1.109375 4.363281-.574219 5.636719 1.234375 1.269531 1.8125.949218 4.296875-.746094 5.722656l-13.253906 11.195313 11.53125-6.65625c1.789062-1.03125 4.0625-.632813 5.394531.949218 1.328125 1.578126 1.335937 3.886719.015625 5.476563l-14.902344 17.851563 3.882812-2.238282c2.039063-1.15625 4.632813-.453125 5.804688 1.578125s.488281 4.628907-1.535156 5.8125l-24.6875 14.25c-.660156.375-1.410156.5625-2.167969.546875zm0 0" fill="#fdcd56"/><path d="m73.605469 386.164062c-1.878907.003907-3.539063-1.226562-4.085938-3.027343s.148438-3.746094 1.714844-4.789063l102.398437-68.265625-130.78125 75.476563c-1.992187 1.070312-4.472656.398437-5.652343-1.527344-1.183594-1.929688-.65625-4.441406 1.199219-5.734375l100.472656-65.269531-123.949219 71.523437c-1.988281 1.085938-4.480469.421875-5.671875-1.507812-1.1875-1.929688-.660156-4.453125 1.203125-5.746094l125.097656-81.917969-100.539062 58.027344c-1.992188 1.132812-4.527344.488281-5.734375-1.460938-1.210938-1.945312-.664063-4.503906 1.234375-5.785156l109.230469-72.6875-78.441407 45.328125c-2 1.101563-4.511719.433594-5.699219-1.515625-1.1875-1.949218-.628906-4.488281 1.261719-5.761718l39.425781-25.378907-18.125 10.460938c-1.992187 1.183593-4.5625.558593-5.789062-1.402344-1.230469-1.960937-.671875-4.546875 1.257812-5.824219l64.613282-43.871094-37.914063 21.890626c-1.976562 1.15625-4.511719.542968-5.746093-1.386719-1.234376-1.929688-.722657-4.488281 1.15625-5.800781l52.480468-36.980469-25.550781 14.703125c-1.972656 1.078125-4.445313.4375-5.648437-1.464844-1.203126-1.898438-.726563-4.40625 1.09375-5.730469l18.148437-12.535156c-1.535156.097656-3.007813-.621094-3.871094-1.894531-1.25-1.875-.824219-4.398438.972657-5.761719l23.730468-18.046875c-1.890625 1.019531-4.242187.476562-5.492187-1.269531-1.25-1.742188-1.011719-4.144531.558593-5.609375l25.097657-23.464844c-1.425781-.386719-2.546875-1.484375-2.96875-2.898438-.421875-1.410156-.082031-2.945312.894531-4.046874l13.160156-14.875c-.398437-1.8125.421875-3.675782 2.03125-4.609376l4.75-2.738281c1.8125-1.046875 4.117188-.628906 5.441406.992188 1.324219 1.621093 1.28125 3.960937-.105468 5.527343l-1.546875 1.707032 2.21875-1.289063c1.882812-1.125 4.316406-.640625 5.621093 1.125 1.304688 1.761719 1.058594 4.230469-.570312 5.703125l-21.007812 19.625 25.882812-14.941406c1.949219-1.132812 4.445312-.554688 5.695312 1.324219 1.25 1.878906.824219 4.40625-.976562 5.769531l-23.707031 18.121094 27.136719-15.664063c1.980468-1.117187 4.488281-.488281 5.703124 1.433594 1.214844 1.921875.710938 4.457031-1.144531 5.765625l-13.808593 9.535156 15.8125-9.125c1.972656-1.105468 4.464843-.484375 5.683593 1.421875s.738281 4.429688-1.09375 5.753907l-52.53125 37.027343 57.449219-33.167969c1.988281-1.179687 4.558594-.558593 5.789062 1.402344 1.230469 1.960938.671876 4.546875-1.257812 5.824219l-64.582031 43.855469 69.488281-40.109375c2.003906-1.140625 4.550781-.484375 5.75 1.484375 1.203125 1.96875.625 4.535156-1.304688 5.796875l-39.484374 25.429687 42.214843-24.382812c1.996094-1.183594 4.574219-.554688 5.800781 1.417968 1.226563 1.96875.652344 4.5625-1.296874 5.828126l-109.277344 72.710937 115.976562-66.941406c1.988282-1.058594 4.457032-.386719 5.636719 1.53125s.667969 4.421875-1.171875 5.722656l-125.015625 81.851563 131.789063-76.117188c2.003906-1.167969 4.570312-.519531 5.78125 1.453125 1.210937 1.976563.628906 4.558594-1.316407 5.816406l-100.539062 65.363281 105.949219-61.164062c1.996093-1.1875 4.574218-.558594 5.800781 1.414062 1.226562 1.972657.652343 4.5625-1.296875 5.828126l-102.398438 68.269531 108.839844-62.851563c2-1.113281 4.523438-.453125 5.722656 1.496094 1.195313 1.953125.636719 4.503906-1.265625 5.777344l-63.335937 41.171875 67.199218-38.792969c1.292969-.808594 2.917969-.863281 4.265626-.148438 1.347656.714844 2.207031 2.09375 2.261718 3.617188.054688 1.523438-.710937 2.960938-2.003906 3.769531l-75.648438 50.992188 81.015626-46.761719c1.984374-1.117188 4.496093-.476562 5.707031 1.453125 1.210937 1.925781.691406 4.464844-1.175781 5.765625l-62.601563 42.53125 67.414063-38.921875c1.296874-.808594 2.929687-.863281 4.277343-.144531 1.351563.71875 2.214844 2.101562 2.265625 3.628906.054688 1.53125-.714844 2.96875-2.011718 3.777344l-41.660157 27.992187 45.058594-26.011719c1.992187-1.113281 4.511719-.460937 5.710937 1.480469 1.203126 1.945313.65625 4.488281-1.230468 5.773438l-12.894532 8.535156 14.683594-8.476563c1.976563-1.136718 4.496094-.523437 5.726563 1.394532 1.226562 1.917968.734375 4.464844-1.125 5.785156l-38.402344 27.167969 42.351563-24.449219c1.933593-1.117188 4.398437-.554688 5.660156 1.285156 1.257812 1.84375.886718 4.34375-.855469 5.738282l-44.441406 35.5 50.953125-29.421876c1.933594-1.109374 4.398437-.542968 5.652344 1.304688 1.25 1.84375.871093 4.34375-.875 5.734375l-26.800782 21.164063 30.941406-17.828126c1.855469-1.042968 4.195313-.558593 5.484376 1.132813 1.289062 1.695313 1.132812 4.082031-.363282 5.589844l-24.238281 23.914062 30.414063-17.5625c1.882812-1.09375 4.285156-.59375 5.578124 1.15625 1.289063 1.75 1.058594 4.195313-.542968 5.667969l-9.105469 8.457031 11.519531-6.636719c1.800782-1.027343 4.082032-.613281 5.402344.984376 1.320312 1.597656 1.304688 3.914062-.042969 5.492187l-5.625 6.542969 7.683594-4.417969c1.730469-1 3.921875-.664063 5.273437.808594 1.351563 1.472656 1.5 3.6875.355469 5.324219l-.851562 1.1875 1.015625-.582032c1.046875-.605468 2.300781-.738281 3.449218-.363281 1.152344.371094 2.089844 1.214844 2.582032 2.320313l2.714844 6.089843c1.773437-.300781 3.550781.519531 4.472656 2.066407.566406.980468.722656 2.148437.429687 3.242187-.292969 1.097656-1.011719 2.03125-1.992187 2.59375l-2.851563 1.640625c-1.046875.605469-2.300781.734375-3.453125.363281-1.148437-.375-2.085937-1.222656-2.578125-2.328125l-2.613281-5.871094-13.558594 7.828126c-1.730468.988281-3.914062.652343-5.261718-.816407-1.347657-1.46875-1.503907-3.671875-.371094-5.3125l.855468-1.203125-12.707031 7.332032c-1.800781 1.027343-4.078125.613281-5.398437-.980469-1.324219-1.59375-1.3125-3.910157.03125-5.488281l5.625-6.554688-22.574219 12.996094c-1.878906 1.09375-4.28125.59375-5.574219-1.15625-1.292968-1.753906-1.058594-4.195313.542969-5.671875l9.105469-8.464844-26.457032 15.277344c-1.855468 1.042969-4.195312.558593-5.484374-1.136719-1.289063-1.691406-1.132813-4.078125.367187-5.589844l24.242187-23.890625-53.136718 30.632813c-1.9375 1.109375-4.398438.539062-5.652344-1.304688-1.253906-1.847656-.871094-4.347656.875-5.734375l26.792969-21.15625-48.84375 28.160157c-1.929688 1.097656-4.378907.53125-5.632813-1.304688-1.25-1.832031-.886718-4.316406.835938-5.71875l44.433594-35.53125-73.71875 42.589844c-1.96875 1.097656-4.453126.472656-5.667969-1.421875-1.21875-1.898438-.75-4.414063 1.066406-5.746094l38.402344-27.160156-59.480469 34.328125c-1.992188 1.117187-4.511719.460937-5.710938-1.480469-1.199218-1.945313-.65625-4.488281 1.234376-5.773437l12.890624-8.488282-27.304687 15.742188c-1.984375 1.101562-4.484375.453125-5.6875-1.472656-1.203125-1.925782-.6875-4.453126 1.171875-5.753907l41.660156-28.03125-61.089844 35.257813c-1.988281 1.152344-4.53125.527344-5.753906-1.417969s-.6875-4.507813 1.214844-5.800781l62.574219-42.511719-86.144531 49.730469c-1.988282 1.132812-4.515626.496094-5.730469-1.445313-1.210938-1.9375-.679688-4.488281 1.207031-5.78125l75.667969-51.023437-100.898438 58.25c-1.992187 1.070312-4.472656.398437-5.65625-1.527344-1.179687-1.929688-.65625-4.441406 1.199219-5.734375l63.300781-41.15625-83.871093 48.417969c-.648438.386718-1.382813.59375-2.136719.605468zm0 0" fill="#61ddbc"/><path d="m417.925781 386.234375c-1.785156-.007813-3.378906-1.125-3.992187-2.804687-.613282-1.675782-.117188-3.558594 1.246094-4.714844l14.386718-12.132813-23.039062 13.3125c-1.894532 1.0625-4.285156.53125-5.554688-1.230469-1.269531-1.765624-1.007812-4.203124.605469-5.65625l23.441406-20.652343-28.210937 16.289062c-1.878906 1.035157-4.234375.515625-5.5-1.214843-1.265625-1.730469-1.054688-4.132813.496094-5.609376l26.089843-23.714843-31.695312 18.285156c-1.953125 1.128906-4.449219.539063-5.691407-1.34375-1.246093-1.882813-.804687-4.410156 1-5.761719l2.992188-2.238281-4.265625 2.457031c-1.9375 1.097656-4.386719.519532-5.632813-1.324218-1.246093-1.84375-.867187-4.335938.871094-5.722657l12.007813-9.386719-14.320313 8.269532c-1.878906 1.078125-4.269531.570312-5.554687-1.171875-1.285157-1.746094-1.058594-4.179688.53125-5.65625l28.160156-26-34.375 19.839843c-1.898437 1.082032-4.304687.558594-5.582031-1.21875-1.273438-1.773437-1-4.226562.632812-5.675781l25.738282-22.683593-30.898438 17.84375c-1.882812 1.078124-4.273438.574218-5.558594-1.171876-1.285156-1.746093-1.054687-4.175781.53125-5.652343l29.097656-26.769531-35.457031 20.480468c-1.875 1.003906-4.207031.472656-5.460937-1.246094-1.257813-1.71875-1.050782-4.101562.480468-5.582031l28.3125-25.464843-34.132812 19.703124c-1.917969 1.097657-4.351562.554688-5.617188-1.253906-1.265624-1.808594-.945312-4.285156.742188-5.707031l23.117188-19.292969-27.304688 15.769532c-1.878906 1.03125-4.234375.511718-5.5-1.21875-1.265625-1.730469-1.054688-4.128907.5-5.609376l30.070312-27.308593-36.410156 21.019531c-1.914062 1.105469-4.355468.570312-5.628906-1.234375s-.957031-4.28125.730469-5.710937l26.203125-22.332032-26.453125 15.265625c-1.878907 1.035157-4.230469.511719-5.496094-1.21875-1.269531-1.726562-1.054687-4.128906.496094-5.609375l28.253906-25.597656c-1.472656.210938-2.949219-.34375-3.917969-1.476562-1.335937-1.589844-1.335937-3.910157 0-5.496094l18.65625-22.1875c-.484375-1.855469.328125-3.808594 1.988282-4.769532l4.582031-2.652343c1.792969-1.042969 4.078125-.640625 5.410156.949219 1.332031 1.589843 1.328125 3.90625-.007813 5.492187l-8.476562 10.078125 11.035156-6.398438c1.878906-1.035156 4.230469-.515624 5.5 1.214844 1.265625 1.730469 1.050782 4.128906-.5 5.609375l-27.230468 24.746094 32.324218-18.652344c1.910156-1.101562 4.347656-.570312 5.617188 1.230469 1.273437 1.800781.964844 4.273438-.710938 5.707031l-26.222656 22.339844 30.507812-17.59375c1.878907-1.035156 4.230469-.515625 5.5 1.214844 1.265626 1.730469 1.054688 4.128906-.5 5.609375l-30.070312 27.308594 35.6875-20.601563c1.914062-1.078125 4.332031-.527344 5.59375 1.273437 1.257812 1.800782.941406 4.265626-.730469 5.691407l-23.109375 19.285156 26.726563-15.429687c1.875-1.007813 4.207031-.476563 5.464843 1.246093 1.253907 1.71875 1.050782 4.101563-.480468 5.582031l-28.289063 25.378907 33.453125-19.320313c1.878906-1.078125 4.269532-.574218 5.554688 1.171875 1.285156 1.746094 1.058594 4.175781-.53125 5.652344l-29.148438 26.820313 34.730469-20.042969c1.898437-1.101563 4.324219-.582031 5.605469 1.199219s1 4.246093-.648438 5.695312l-25.746094 22.621094 30.277344-17.476563c1.882813-1.074219 4.269532-.570312 5.554688 1.175781 1.285156 1.742188 1.058594 4.175782-.527344 5.652344l-28.167969 26.007813 33.644531-19.429688c1.9375-1.113281 4.410157-.546875 5.664063 1.308594 1.253906 1.851563.863281 4.355469-.894531 5.742187l-12.03125 9.386719 13.894531-8.023437c1.953125-1.101563 4.425781-.503906 5.660156 1.367187 1.234375 1.875.808594 4.382813-.976562 5.742188l-2.96875 2.226562 3.855469-2.226562c1.878906-1.035157 4.230468-.511719 5.5 1.214843 1.265624 1.730469 1.054687 4.132813-.5 5.613282l-26.066407 23.710937 31-17.917969c1.898438-1.085937 4.308594-.558593 5.582031 1.214844 1.273438 1.777344 1 4.226563-.632812 5.679688l-23.449219 20.652344 27.605469-15.941407c1.914062-1.113281 4.359375-.578125 5.632812 1.234375 1.273438 1.8125.949219 4.292969-.742187 5.71875l-14.398437 12.21875 16.863281-9.734375c1.765625-1.003906 3.996093-.621093 5.328125.910157 1.332031 1.535156 1.398437 3.796874.160156 5.402343l-12.863281 16.445313 17.367187-10.019532c1.785156-1.023437 4.046875-.625 5.375.941407 1.332032 1.570312 1.351563 3.867187.050782 5.460937l-2.371094 2.902344 2.917968-1.707031c1.398438-.808594 3.136719-.753907 4.484376.136719 1.347656.890624 2.074218 2.464843 1.882812 4.070312l-.589844 4.871094.929688-.527344c1.324218-.84375 3-.890625 4.367187-.125 1.371094.761719 2.210938 2.214844 2.1875 3.78125-.019531 1.566406-.898437 2.996094-2.289062 3.722656l-8.335938 4.804688c-1.394531.824218-3.136719.773437-4.480469-.128906-1.351562-.890626-2.082031-2.46875-1.882812-4.078126l.59375-4.871093-15.777344 9.09375c-1.785156 1.035156-4.054687.644531-5.390625-.929688-1.335937-1.570312-1.355469-3.875-.042969-5.46875l2.371094-2.882812-16.128906 9.308593c-1.765625 1.011719-4.003906.636719-5.339844-.898437-1.339844-1.539063-1.402344-3.804687-.15625-5.417969l12.859375-16.449218-39.492187 22.800781c-.644532.386719-1.378906.59375-2.132813.597656zm0 0" fill="#46ceac"/><path d="m329.964844 129.167969c-1.726563-.003907-3.285156-1.046875-3.945313-2.644531-.65625-1.597657-.285156-3.4375.941407-4.652344l3.125-3.089844-15.300782 8.832031c-1.886718 1.164063-4.347656.695313-5.671875-1.085937-1.320312-1.777344-1.058593-4.273438.601563-5.742188l17.589844-16.75-25.601563 14.761719c-1.882813 1.148437-4.332031.667969-5.644531-1.101563-1.3125-1.773437-1.058594-4.253906.585937-5.722656l22.066407-20.660156-25.003907 14.445312c-1.898437.988282-4.230469.421876-5.460937-1.328124-1.230469-1.75-.976563-4.140626.597656-5.589844l10.605469-8.933594-7.054688 4.070312c-1.8125 1.046876-4.117187.625-5.441406-.992187-1.324219-1.621094-1.28125-3.960937.105469-5.527344l11.171875-12.691406c-1.589844.046875-3.082031-.769531-3.898438-2.132813-1.179687-2.039062-.480469-4.648437 1.558594-5.828124l19.703125-11.382813c1.816406-1.0625 4.128906-.644531 5.457031.984375 1.332031 1.625 1.277344 3.976562-.121093 5.542969l-10.214844 11.546875 26.085937-15.070313c1.917969-1.117187 4.371094-.582031 5.644531 1.234375 1.273438 1.816406.941407 4.308594-.761718 5.726563l-10.601563 8.945312 15.207031-8.789062c1.886719-1.148438 4.332032-.667969 5.644532 1.101562 1.3125 1.773438 1.0625 4.253907-.582032 5.722657l-22.035156 20.71875 24.746094-14.273438c1.871094-1.082031 4.257812-.59375 5.550781 1.136719 1.296875 1.730469 1.09375 4.15625-.472656 5.644531l-17.585937 16.742188 13.003906-7.507813c1.859375-1.058594 4.210937-.578125 5.507812 1.125 1.292969 1.703125 1.128906 4.101563-.386718 5.609375l-8.203126 8.105469c1.449219.667969 2.402344 2.089843 2.472657 3.679687.074219 1.59375-.75 3.09375-2.128907 3.890625l-19.703124 11.382813c-.65625.367187-1.398438.554687-2.152344.546875zm0 0" fill="#fdcd56"/><g fill="#262626"><path d="m1.917969 311.0625c0 20.863281-5.503907 49.894531 2.132812 69.75v.148438c0 .648437.855469.988281 2.082031 1.082031 16.292969 6.324219 37.027344 2.714843 54.101563 2.714843h344.066406c1.667969.296876 3.386719.160157 4.992188-.394531 8.050781 1.351563 16.242187 1.660157 24.371093.914063 21.382813 0 47.546876 4.949218 67.839844-3.25 2.710938-.785156 5.230469-2.253906 5.417969-3.808594 6.542969-16.894531 2.285156-39.789062 2.285156-57.566406v-264.734375c0-14.867188 6.828125-44.078125-9.15625-51.421875-.125-.136719-.289062-.226563-.46875-.257813-.179687-.039062-.363281-.0625-.546875-.066406-.171875-.039063-.351562-.066406-.527344-.078125h-.085937c-.171875-.011719-.339844-.011719-.511719 0h-396.125c-17.546875 0-82.851562-11.707031-97.28125 6.167969-8.132812 10.070312-2.558594 37.8125-2.558594 48.980469v251.820312zm33.28125 68.445312c-18.875-.535156-21.019531 1.433594-8.355469-15.25l61.3125-80.757812 106.898438-140.800781 12.296874 14.261719 85.273438 98.984374c.042969.070313 0 .144532.074219.214844 33.621093 38.945313 65.390625 88.34375 104.6875 121.324219l.28125.222656 1.597656 1.84375c-121.234375.246094-242.910156 3.449219-364.050781-.042969zm379.398437-.042968-.195312-.117188c-17.6875-20.480468-35.367188-40.988281-53.042969-61.527344-.597656-.734374-1.203125-1.484374-1.785156-2.15625l-38.039063-44.121093c-.179687-.203125-.480468-.5-.707031-.742188l-15.933594-18.480469 43.519531-58.027343 144.445313 184.550781c-20.457031 4.566406-71.613281 4-78.242187.621094zm-400.324218-353.621094c-.621094-17.007812-2.984376-13.910156 12.101562-16.5625 23.109375-4.054688 50.714844 0 74.128906 0h389.179688c14.824218 6.699219 7.167968 47.265625 7.167968 58.878906v249.515625c1.1875 16.054688 1.542969 32.164063 1.058594 48.257813l-142.710937-182.367188c-2.160157-2.765625-9.796875.152344-11.46875 2.390625l-44.648438 59.570313c-32.464843-37.667969-64.933593-75.332032-97.40625-113-1.871093-2.167969-9.957031.605468-11.425781 2.5625l-100.558594 132.382812-63.382812 83.492188c-2.125 2.808594-7.613282 8.269531-12.613282 14.019531-1.128906-11.671875.578126-24.558594.578126-35.386719v-102.902344c0-66.792968 2.476562-134.101562 0-200.851562zm0 0"/><path d="m304.398438 125.785156c5.359374 2.710938 11.222656 4.277344 17.222656 4.601563.214844-.011719.425781-.03125.640625-.070313.332031 0 .570312.097656.945312.078125 21.816407-.082031 39.789063-17.148437 41.003907-38.929687 0-.332032-.09375-.640625-.09375-.972656 0-.050782 0-.085938 0-.136719 0-.28125-.09375-.503907-.121094-.773438-.191406-5.226562-1.546875-10.347656-3.960938-14.988281-.1875-.375-.40625-.714844-.613281-1.082031-1.035156-1.855469-2.226563-3.621094-3.566406-5.273438-.144531-.179687-.296875-.351562-.453125-.527343-7.523438-8.875-18.546875-14.019532-30.179688-14.082032-10.621094.066406-20.847656 4.011719-28.757812 11.09375-1.03125.90625-2.007813 1.867188-2.9375 2.875-.433594.476563-.902344.921875-1.320313 1.417969-1.363281 1.59375-2.578125 3.308594-3.636719 5.121094-.152343.261719-.316406.511719-.460937.773437-.867187 1.597656-1.609375 3.261719-2.21875 4.976563-.367187.972656-.691406 1.953125-.980469 2.96875-.289062 1.015625-.53125 2.21875-.734375 3.414062-.152343.851563-.453125 1.65625-.546875 2.558594-.421875 3.839844-.234375 7.722656.554688 11.503906 1.691406 11.492188 9.402344 21.203125 20.214844 25.453125zm-6.824219-43.75c.304687-1.003906.5625-2.019531.964843-2.984375 3.800782-9.929687 13.257813-16.550781 23.890626-16.726562 5.976562-.058594 11.8125 1.820312 16.632812 5.359375.265625.195312.484375.433594.734375.640625 1.097656.867187 2.125 1.820312 3.070313 2.847656.351562.386719.648437.804687.972656 1.195313.886718 1.058593 1.699218 2.175781 2.433594 3.347656.074218.117187.144531.253906.222656.382812 5.359375 9.355469 5.933594 20.707032 1.550781 30.558594-.210937.441406-.441406.851562-.671875 1.304688-.652344 1.261718-1.40625 2.46875-2.253906 3.609374-.09375.136719-.207032.265626-.308594.402344-4.824219 5.941406-11.976562 9.519532-19.625 9.8125-9.324219-.558594-17.910156-5.25-23.40625-12.800781-.617188-.867187-1.1875-1.761719-1.707031-2.6875-.085938-.144531-.15625-.296875-.230469-.445313-2.429688-4.609374-3.699219-9.746093-3.703125-14.957031.003906-2.09375.226563-4.183593.664063-6.230469.152343-.929687.488281-1.765624.757812-2.628906zm0 0"/><path d="m48.40625 278.089844v-17.066406c0-2.246094-12.355469-.425782-12.355469 3.3125v17.066406c0 2.242187 12.355469.425781 12.355469-3.3125zm0 0"/><path d="m48.40625 226.890625v-136.535156c0-2.21875-12.355469-.410157-12.355469 3.3125v136.53125c0 2.21875 12.355469.410156 12.355469-3.308594zm0 0"/><path d="m48.40625 56.222656v-17.066406c0-1.484375-12.355469.101562-12.355469 3.3125v17.066406c0 1.484375 12.355469-.113281 12.355469-3.3125zm0 0"/></g></svg>