<svg width="512" height="512" viewBox="0 0 512 512" fill="none" xmlns="http://www.w3.org/2000/svg">
<path d="M201.975 405.009C201.063 405.008 200.174 404.715 199.44 404.172C198.707 403.629 198.166 402.865 197.899 401.992C197.632 401.119 197.651 400.184 197.955 399.323C198.259 398.462 198.83 397.721 199.586 397.21L287.573 337.57L175.906 402.031C174.941 402.562 173.808 402.699 172.745 402.413C171.681 402.128 170.769 401.442 170.199 400.5C169.629 399.558 169.446 398.431 169.687 397.357C169.929 396.282 170.576 395.343 171.494 394.735L211.106 369.69L160.486 398.916C159.521 399.447 158.389 399.584 157.325 399.299C156.261 399.013 155.349 398.328 154.779 397.385C154.21 396.443 154.026 395.317 154.268 394.242C154.509 393.168 155.157 392.228 156.075 391.62L202.692 362.308L146.261 394.88C145.298 395.402 144.171 395.534 143.113 395.247C142.056 394.961 141.149 394.278 140.58 393.342C140.012 392.405 139.826 391.285 140.061 390.215C140.296 389.145 140.933 388.206 141.841 387.593L222.302 336.597L131.063 389.265C130.097 389.781 128.969 389.906 127.914 389.613C126.858 389.321 125.955 388.633 125.392 387.693C124.83 386.753 124.65 385.633 124.891 384.564C125.132 383.495 125.774 382.56 126.686 381.952L173.491 352.879L119.603 384C118.64 384.549 117.5 384.7 116.427 384.423C115.353 384.146 114.429 383.462 113.851 382.516C113.273 381.57 113.086 380.436 113.33 379.354C113.574 378.272 114.229 377.328 115.157 376.721L248.491 290.987L103.253 374.818C102.282 375.4 101.12 375.572 100.022 375.297C98.9246 375.021 97.9811 374.321 97.3995 373.35C96.8178 372.379 96.6457 371.217 96.921 370.12C97.1962 369.022 97.8963 368.078 98.8672 367.497L174.08 320.777L92.6635 367.787C91.6936 368.323 90.5531 368.461 89.4834 368.171C88.4137 367.881 87.4988 367.187 86.9322 366.234C86.3656 365.282 86.1918 364.146 86.4476 363.068C86.7035 361.989 87.3689 361.053 88.3029 360.457L120.994 340.412L84.4203 361.498C83.4569 362.02 82.3297 362.151 81.2721 361.865C80.2145 361.578 79.3076 360.896 78.7393 359.959C78.1711 359.022 77.985 357.903 78.2197 356.832C78.4544 355.762 79.0919 354.823 80 354.21L222.37 263.757L72.0213 350.592C71.0566 351.101 69.9337 351.221 68.8832 350.927C67.8327 350.634 66.9345 349.95 66.373 349.015C65.8115 348.079 65.6295 346.965 65.8642 345.9C66.099 344.835 66.7327 343.9 67.6352 343.287L182.229 271.676L62.4128 340.838C61.4478 341.369 60.3151 341.506 59.2514 341.221C58.1877 340.935 57.2756 340.25 56.7058 339.307C56.1359 338.365 55.9526 337.239 56.194 336.164C56.4354 335.09 57.0829 334.15 58.0011 333.542L206.43 239.616L52.1557 328.687C51.1837 329.266 50.0213 329.436 48.9243 329.158C47.8273 328.881 46.8855 328.178 46.3061 327.206C45.7268 326.234 45.5573 325.072 45.8349 323.975C46.1126 322.878 46.8146 321.936 47.7867 321.357L135.97 266.88L45.2693 319.241C44.3006 319.799 43.1513 319.955 42.0687 319.675C40.9862 319.395 40.0569 318.701 39.4809 317.742C38.9049 316.784 38.7282 315.637 38.9889 314.55C39.2496 313.462 39.9267 312.521 40.8747 311.927L156.723 239.787L38.2208 308.19C37.2528 308.715 36.1193 308.845 35.0573 308.554C33.9954 308.262 33.0874 307.571 32.5231 306.626C31.9588 305.68 31.782 304.553 32.0296 303.48C32.2772 302.407 32.9301 301.471 33.8517 300.868L99.6779 260.446L33.0581 298.897C32.0908 299.43 30.9545 299.567 29.8882 299.279C28.822 298.991 27.9088 298.301 27.3407 297.354C26.7727 296.407 26.594 295.277 26.8423 294.201C27.0906 293.124 27.7464 292.187 28.672 291.584L135.091 225.502L27.5883 287.573C26.6236 288.082 25.5006 288.202 24.4501 287.909C23.3996 287.615 22.5014 286.931 21.9399 285.996C21.3785 285.061 21.1964 283.946 21.4311 282.881C21.6659 281.816 22.2996 280.881 23.2021 280.269L143.881 204.885L22.5024 274.944C21.5304 275.525 20.3675 275.695 19.2697 275.418C18.1719 275.141 17.229 274.44 16.6485 273.468C16.068 272.496 15.8974 271.333 16.1743 270.235C16.4511 269.137 17.1528 268.194 18.1248 267.614L92.3563 221.867L18.9696 264.209C18.001 264.794 16.8396 264.97 15.741 264.699C14.6424 264.428 13.6965 263.731 13.1115 262.763C12.5264 261.794 12.3502 260.633 12.6214 259.534C12.8927 258.435 13.5892 257.49 14.5579 256.905L142.763 176.282L15.36 249.873C14.392 250.398 13.2584 250.528 12.1965 250.237C11.1346 249.945 10.2266 249.254 9.66228 248.309C9.09799 247.363 8.92116 246.236 9.16879 245.163C9.41642 244.09 10.0693 243.154 10.9909 242.551L66.9867 208.094L13.312 239.07C12.3445 239.658 11.1829 239.838 10.0826 239.57C8.98243 239.302 8.03377 238.608 7.44534 237.641C6.85691 236.673 6.67693 235.511 6.94498 234.411C7.21303 233.311 7.90716 232.362 8.87467 231.774L150.656 141.252L11.4091 221.645C10.437 222.224 9.27466 222.394 8.17764 222.116C7.08063 221.838 6.13885 221.136 5.55947 220.164C4.9801 219.192 4.81059 218.03 5.08825 216.933C5.3659 215.836 6.06797 214.894 7.04 214.315L38.1867 195.174L10.9824 210.876C10.0169 211.442 8.86764 211.605 7.78243 211.332C6.69723 211.058 5.76293 210.369 5.1809 209.414C4.59887 208.458 4.4157 207.311 4.67087 206.222C4.92605 205.132 5.59914 204.186 6.54507 203.588L134.886 121.173L11.6395 192.29C10.6761 192.812 9.54887 192.944 8.49126 192.657C7.43365 192.371 6.52677 191.689 5.95852 190.752C5.39027 189.815 5.20422 188.695 5.43892 187.625C5.67362 186.555 6.31108 185.616 7.2192 185.003L108.373 120.439L13.824 175.027C12.8542 175.611 11.6922 175.786 10.5936 175.513C9.495 175.24 8.54977 174.542 7.96587 173.572C7.38197 172.603 7.20723 171.441 7.48008 170.342C7.75293 169.243 8.45103 168.298 9.4208 167.714L54.4683 139.554L16.6656 161.365C15.7038 161.88 14.5814 162.007 13.5289 161.72C12.4764 161.433 11.5739 160.754 11.0069 159.822C10.4398 158.89 10.2513 157.776 10.48 156.709C10.7088 155.642 11.3375 154.704 12.2368 154.086L80.0683 110.737L21.7003 144.427C20.739 144.973 19.6031 145.125 18.532 144.851C17.4609 144.576 16.5382 143.896 15.9584 142.955C15.3787 142.013 15.1871 140.883 15.4241 139.803C15.661 138.723 16.3081 137.777 17.2288 137.165L91.6736 88.3541L30.1312 123.861C29.1706 124.418 28.0307 124.579 26.9537 124.309C25.8766 124.039 24.9472 123.36 24.3629 122.415C23.7786 121.471 23.5854 120.336 23.8244 119.252C24.0633 118.168 24.7156 117.219 25.6427 116.608L78.2592 81.7237L41.9157 102.707C40.9569 103.229 39.8345 103.363 38.7795 103.083C37.7245 102.802 36.8173 102.128 36.2444 101.198C35.6716 100.269 35.4767 99.1557 35.6999 98.0871C35.9231 97.0185 36.5473 96.0761 37.4443 95.4539L53.2053 85.1115C52.4688 85.1072 51.7435 84.9297 51.0883 84.5931C50.433 84.2566 49.8662 83.7706 49.4336 83.1744C48.8366 82.2591 48.6136 81.1497 48.8105 80.0748C49.0074 79 49.6091 78.0416 50.4917 77.3973L81.1435 54.9632C80.4267 54.5878 79.8339 54.0128 79.4368 53.3077C78.8703 52.3288 78.7157 51.165 79.0069 50.0721C79.2981 48.9792 80.0114 48.0467 80.9899 47.4795L130.56 18.8501C131.504 18.3171 132.616 18.1638 133.67 18.4211C134.723 18.6785 135.639 19.3274 136.231 20.2358C136.824 21.1442 137.048 22.2441 136.858 23.3118C136.668 24.3795 136.079 25.335 135.211 25.984L119.185 37.7088L171.29 7.6288C172.249 7.09202 173.379 6.94647 174.444 7.22253C175.508 7.49858 176.425 8.17491 177.003 9.11045C177.58 10.046 177.775 11.1685 177.545 12.2438C177.315 13.3192 176.679 14.2643 175.77 14.8821L166.989 20.6421L193.527 5.3248C194.488 4.76784 195.628 4.60731 196.705 4.87729C197.782 5.14728 198.711 5.82651 199.296 6.77072C199.88 7.71494 200.073 8.84974 199.834 9.93411C199.595 11.0185 198.943 11.967 198.016 12.5781L145.382 47.4709L217.685 5.72587C218.644 5.20409 219.767 5.0697 220.822 5.35035C221.877 5.631 222.784 6.30533 223.357 7.2346C223.93 8.16386 224.124 9.27735 223.901 10.3459C223.678 11.4145 223.054 12.3569 222.157 12.9792L147.627 61.8325L239.787 8.6528C240.748 8.13791 241.871 8.01098 242.923 8.29811C243.976 8.58524 244.878 9.2646 245.445 10.1966C246.013 11.1286 246.201 12.2423 245.972 13.309C245.744 14.3757 245.115 15.3142 244.215 15.9317L176.375 59.2896L256.939 12.8C257.908 12.2161 259.07 12.0414 260.169 12.3142C261.268 12.5871 262.213 13.2852 262.797 14.2549C263.381 15.2247 263.555 16.3867 263.283 17.4853C263.01 18.5839 262.312 19.5292 261.342 20.1131L216.363 48.2731L270.319 17.0667C271.282 16.5446 272.41 16.4132 273.467 16.6996C274.525 16.986 275.432 17.6683 276 18.6051C276.568 19.542 276.754 20.6615 276.52 21.7318C276.285 22.8021 275.647 23.741 274.739 24.3541L173.568 88.96L286.327 23.8933C287.29 23.3639 288.42 23.2262 289.482 23.5089C290.543 23.7916 291.455 24.473 292.027 25.411C292.599 26.3491 292.787 27.4716 292.551 28.5448C292.316 29.618 291.676 30.5591 290.765 31.1723L162.449 113.579L302.711 32.5973C303.681 32.0611 304.822 31.9233 305.892 32.2131C306.961 32.5029 307.876 33.1975 308.443 34.15C309.009 35.1024 309.183 36.238 308.927 37.3163C308.671 38.3946 308.006 39.3311 307.072 39.9275L275.925 59.0763L311.808 38.4C312.776 37.8116 313.937 37.6316 315.037 37.8996C316.138 38.1677 317.086 38.8618 317.675 39.8293C318.263 40.7968 318.443 41.9585 318.175 43.0587C317.907 44.1589 317.213 45.1076 316.245 45.696L174.455 136.175L325.973 48.7253C326.941 48.2004 328.075 48.0701 329.137 48.3617C330.199 48.6532 331.107 49.3441 331.671 50.2897C332.235 51.2353 332.412 52.3625 332.165 53.4355C331.917 54.5085 331.264 55.4442 330.342 56.0469L274.355 90.5045L334.276 55.8933C335.24 55.3781 336.365 55.2525 337.419 55.5425C338.473 55.8324 339.376 56.5158 339.94 57.4517C340.505 58.3875 340.689 59.5045 340.455 60.5721C340.22 61.6397 339.585 62.5765 338.679 63.1893L210.441 143.829L344.815 66.2613C345.784 65.7153 346.928 65.5694 348.004 65.8548C349.079 66.1402 350 66.8343 350.571 67.7892C351.142 68.744 351.318 69.8841 351.06 70.9664C350.802 72.0487 350.132 72.9876 349.193 73.5829L274.953 119.339L352.341 74.6581C353.307 74.135 354.437 74.0044 355.497 74.2935C356.556 74.5826 357.463 75.2691 358.03 76.2102C358.596 77.1512 358.777 78.2743 358.536 79.3458C358.295 80.4173 357.651 81.3546 356.736 81.9627L236.16 157.286L360.789 85.3333C361.757 84.8005 362.893 84.6636 363.959 84.9513C365.026 85.239 365.939 85.929 366.507 86.8761C367.075 87.8232 367.253 88.9537 367.005 90.0298C366.757 91.1059 366.101 92.0439 365.175 92.6464L258.679 158.78L367.906 95.7099C368.874 95.185 370.008 95.0546 371.07 95.3462C372.132 95.6378 373.04 96.3286 373.604 97.2742C374.168 98.2199 374.345 99.3471 374.097 100.42C373.85 101.493 373.197 102.429 372.275 103.031L306.458 143.454L373.385 104.815C373.865 104.527 374.398 104.336 374.952 104.254C375.507 104.172 376.072 104.2 376.615 104.336C377.159 104.473 377.67 104.715 378.121 105.049C378.571 105.383 378.95 105.802 379.238 106.283C379.526 106.763 379.717 107.296 379.799 107.851C379.881 108.405 379.853 108.97 379.717 109.514C379.581 110.057 379.339 110.569 379.005 111.019C378.671 111.469 378.251 111.849 377.771 112.137L261.973 184.32L379.494 116.463C380.466 115.884 381.629 115.714 382.726 115.992C383.823 116.269 384.765 116.971 385.344 117.943C385.923 118.916 386.093 120.078 385.815 121.175C385.538 122.272 384.836 123.214 383.863 123.793L295.731 178.202L384.188 127.147C385.156 126.561 386.318 126.383 387.418 126.654C388.517 126.924 389.464 127.62 390.05 128.589C390.636 129.557 390.814 130.719 390.543 131.819C390.273 132.918 389.577 133.865 388.608 134.451L240.077 228.429L389.615 142.089C390.584 141.53 391.733 141.374 392.816 141.654C393.898 141.935 394.827 142.629 395.403 143.587C395.979 144.546 396.156 145.692 395.895 146.779C395.635 147.867 394.958 148.808 394.01 149.402L279.467 221.013L393.242 155.307C394.208 154.755 395.351 154.602 396.428 154.881C397.506 155.16 398.431 155.849 399.008 156.8C399.584 157.752 399.766 158.891 399.515 159.975C399.264 161.059 398.599 162.002 397.662 162.603L255.232 253.03L396.45 171.52C397.418 170.995 398.552 170.865 399.614 171.156C400.676 171.448 401.584 172.139 402.148 173.084C402.712 174.03 402.889 175.157 402.641 176.23C402.394 177.303 401.741 178.239 400.819 178.842L368.503 198.656L397.713 181.76C398.68 181.227 399.817 181.09 400.883 181.378C401.949 181.666 402.862 182.356 403.431 183.303C403.999 184.25 404.177 185.38 403.929 186.456C403.681 187.533 403.025 188.471 402.099 189.073L326.75 235.895L398.507 194.5C399.47 193.952 400.61 193.8 401.683 194.077C402.757 194.354 403.681 195.038 404.259 195.984C404.837 196.931 405.023 198.065 404.78 199.146C404.536 200.228 403.881 201.172 402.953 201.779L269.551 287.573L398.268 213.265C399.239 212.683 400.401 212.511 401.499 212.787C402.596 213.062 403.54 213.762 404.122 214.733C404.703 215.704 404.875 216.866 404.6 217.964C404.325 219.062 403.625 220.005 402.654 220.587L355.925 249.6L397.065 225.852C398.028 225.33 399.155 225.198 400.213 225.485C401.27 225.771 402.177 226.453 402.746 227.39C403.314 228.327 403.5 229.447 403.265 230.517C403.03 231.587 402.393 232.526 401.485 233.139L321.126 284.075L394.436 241.749C395.403 241.208 396.543 241.063 397.614 241.347C398.685 241.631 399.604 242.32 400.176 243.269C400.748 244.218 400.929 245.352 400.679 246.432C400.43 247.512 399.77 248.452 398.839 249.054L352.265 278.34L390.827 256.094C391.792 255.563 392.924 255.426 393.988 255.712C395.052 255.997 395.964 256.682 396.534 257.625C397.104 258.567 397.287 259.693 397.046 260.768C396.804 261.842 396.157 262.782 395.238 263.39L355.49 288.512L385.801 271.01C386.755 270.487 387.874 270.348 388.927 270.623C389.981 270.897 390.889 271.564 391.467 272.486C392.045 273.409 392.249 274.517 392.036 275.585C391.823 276.653 391.211 277.599 390.323 278.229L302.336 337.92L373.897 296.602C374.859 296.064 375.991 295.92 377.057 296.198C378.123 296.477 379.04 297.158 379.616 298.097C380.191 299.037 380.381 300.163 380.146 301.239C379.91 302.316 379.267 303.259 378.351 303.872L364.544 312.747C365.406 312.548 366.308 312.618 367.129 312.947C367.95 313.277 368.65 313.85 369.135 314.59C369.728 315.51 369.944 316.623 369.739 317.698C369.534 318.774 368.924 319.729 368.034 320.367L332.194 346.044L338.227 342.562C339.202 342.052 340.337 341.938 341.394 342.245C342.451 342.552 343.348 343.255 343.899 344.208C344.45 345.16 344.611 346.289 344.349 347.358C344.087 348.427 343.423 349.353 342.494 349.943L261.427 396.766C260.48 397.301 259.363 397.455 258.306 397.194C257.249 396.933 256.332 396.278 255.742 395.364C255.152 394.449 254.934 393.343 255.133 392.273C255.332 391.203 255.932 390.249 256.811 389.606L292.591 363.955L223.676 403.738C222.714 404.275 221.581 404.42 220.515 404.141C219.449 403.862 218.532 403.182 217.956 402.242C217.381 401.302 217.191 400.176 217.427 399.1C217.663 398.024 218.306 397.08 219.221 396.467L230.204 389.376L204.109 404.48C203.456 404.84 202.721 405.022 201.975 405.009Z" fill="#F67575"/>
<path d="M205.909 234.359C205.014 234.359 204.141 234.078 203.415 233.554C202.688 233.03 202.145 232.292 201.862 231.442C201.578 230.592 201.57 229.675 201.837 228.821C202.104 227.966 202.633 227.217 203.349 226.679L224.017 210.842L188.245 231.492C187.29 232.058 186.152 232.23 185.072 231.97C183.992 231.71 183.057 231.04 182.463 230.101C181.87 229.162 181.666 228.029 181.895 226.943C182.124 225.856 182.767 224.901 183.688 224.282L189.5 220.288L176.802 227.618C175.861 228.17 174.745 228.34 173.682 228.094C172.62 227.849 171.692 227.205 171.089 226.296C170.486 225.388 170.254 224.282 170.44 223.208C170.627 222.133 171.218 221.171 172.092 220.518L222.865 182.187L160.614 218.121C159.671 218.649 158.563 218.8 157.512 218.542C156.462 218.285 155.549 217.638 154.958 216.734C154.366 215.829 154.14 214.733 154.325 213.668C154.51 212.602 155.093 211.647 155.955 210.995L212.139 169.668L148.318 206.507C147.361 207.052 146.231 207.206 145.163 206.937C144.095 206.668 143.172 205.996 142.588 205.063C142.004 204.129 141.804 203.006 142.029 201.928C142.253 200.85 142.886 199.901 143.795 199.279L169.813 181.76L142.054 197.786C141.111 198.326 139.996 198.486 138.939 198.232C137.881 197.979 136.961 197.331 136.365 196.421C135.769 195.512 135.543 194.409 135.733 193.338C135.923 192.267 136.514 191.309 137.387 190.66L198.946 145.246L134.664 182.34C133.707 182.856 132.589 182.986 131.538 182.705C130.488 182.424 129.584 181.753 129.013 180.828C128.441 179.903 128.243 178.794 128.461 177.729C128.679 176.664 129.295 175.722 130.184 175.095L134.451 172.262L132.198 173.559C131.25 174.109 130.127 174.273 129.061 174.017C127.995 173.761 127.069 173.104 126.474 172.184C125.88 171.263 125.662 170.149 125.867 169.072C126.071 167.995 126.682 167.038 127.573 166.4L172.203 134.306L130.458 158.413C129.511 158.956 128.391 159.116 127.33 158.859C126.269 158.602 125.347 157.949 124.753 157.032C124.159 156.116 123.94 155.007 124.139 153.934C124.338 152.86 124.941 151.904 125.824 151.262L159.957 126.601L131.866 142.814C131.397 143.124 130.872 143.338 130.321 143.445C129.77 143.552 129.203 143.55 128.652 143.438C128.102 143.325 127.579 143.106 127.114 142.792C126.648 142.478 126.249 142.075 125.939 141.606C125.629 141.138 125.415 140.613 125.308 140.062C125.201 139.51 125.203 138.943 125.315 138.393C125.428 137.843 125.647 137.32 125.961 136.854C126.275 136.389 126.678 135.99 127.147 135.68L150.229 118.613L137.028 126.234C136.111 126.767 135.028 126.939 133.99 126.716C132.953 126.494 132.035 125.893 131.417 125.03C130.799 124.168 130.524 123.106 130.646 122.052C130.769 120.998 131.28 120.028 132.079 119.33L151.578 102.212C150.717 102.058 149.925 101.643 149.308 101.023C148.691 100.404 148.279 99.6099 148.128 98.7487C147.977 97.8875 148.095 97.0007 148.464 96.2084C148.834 95.4161 149.438 94.7566 150.195 94.3189L180.838 76.6208C181.755 76.0977 182.832 75.9326 183.863 76.1574C184.894 76.3822 185.805 76.9809 186.42 77.838C187.035 78.6951 187.311 79.7497 187.194 80.7983C187.078 81.8469 186.576 82.815 185.788 83.5157L170.138 97.2715L210.671 73.8645C211.613 73.34 212.718 73.1915 213.765 73.449C214.812 73.7064 215.723 74.3507 216.314 75.2522C216.906 76.1538 217.134 77.2457 216.953 78.3086C216.772 79.3714 216.195 80.3263 215.339 80.9813L192.247 98.048L227.703 77.568C228.65 77.0246 229.77 76.8648 230.831 77.1216C231.892 77.3784 232.814 78.0322 233.408 78.9484C234.002 79.8646 234.221 80.9736 234.022 82.047C233.823 83.1205 233.22 84.0767 232.337 84.7189L198.204 109.38L241.86 84.1813C242.808 83.6316 243.932 83.4678 244.998 83.724C246.063 83.9801 246.989 84.6366 247.584 85.5572C248.179 86.4779 248.397 87.5921 248.192 88.6689C247.987 89.7457 247.376 90.7024 246.485 91.3408L201.856 123.426L254.088 93.2779C255.047 92.7489 256.171 92.6084 257.23 92.8854C258.289 93.1623 259.201 93.8356 259.778 94.766C260.354 95.6964 260.551 96.8128 260.327 97.8842C260.104 98.9556 259.477 99.9002 258.577 100.523L254.242 103.39L260.471 99.7888C261.415 99.2483 262.529 99.0885 263.587 99.342C264.645 99.5956 265.565 100.243 266.161 101.153C266.757 102.063 266.983 103.166 266.793 104.236C266.603 105.307 266.012 106.265 265.139 106.914L203.605 152.354L270.165 113.954C271.12 113.431 272.238 113.292 273.292 113.567C274.345 113.841 275.254 114.508 275.832 115.43C276.41 116.353 276.613 117.461 276.401 118.529C276.188 119.597 275.575 120.543 274.688 121.173L248.721 138.726L274.603 123.733C275.546 123.205 276.654 123.054 277.705 123.311C278.755 123.569 279.668 124.215 280.259 125.12C280.851 126.025 281.077 127.121 280.892 128.186C280.707 129.251 280.124 130.207 279.262 130.859L223.087 172.186L278.554 140.177C279.494 139.633 280.606 139.468 281.663 139.715C282.721 139.962 283.644 140.604 284.245 141.508C284.847 142.415 285.079 143.517 284.895 144.589C284.711 145.661 284.125 146.623 283.255 147.277L232.448 185.634L278.613 158.985C279.569 158.418 280.707 158.247 281.787 158.507C282.866 158.767 283.802 159.437 284.395 160.376C284.989 161.314 285.192 162.447 284.964 163.534C284.735 164.621 284.091 165.575 283.17 166.195L276.847 170.539C277.805 170.162 278.867 170.145 279.837 170.49C280.807 170.835 281.62 171.519 282.125 172.416C282.63 173.313 282.794 174.363 282.586 175.371C282.378 176.38 281.813 177.279 280.994 177.903L260.267 193.792L268.382 189.107C268.867 188.798 269.411 188.591 269.978 188.498C270.546 188.404 271.127 188.427 271.686 188.564C272.245 188.701 272.77 188.949 273.231 189.294C273.691 189.64 274.077 190.074 274.365 190.573C274.653 191.071 274.837 191.622 274.906 192.193C274.976 192.765 274.929 193.344 274.769 193.897C274.608 194.449 274.338 194.964 273.973 195.409C273.609 195.855 273.158 196.222 272.649 196.489L208.043 233.813C207.393 234.182 206.656 234.37 205.909 234.359Z" fill="#7E9AEB"/>
<path d="M218.88 404.48C217.988 404.471 217.121 404.183 216.402 403.656C215.682 403.129 215.146 402.39 214.868 401.542C214.59 400.695 214.585 399.782 214.853 398.931C215.121 398.08 215.649 397.335 216.363 396.8L260.471 364.561L192.35 403.891C191.387 404.451 190.243 404.612 189.163 404.34C188.083 404.068 187.152 403.384 186.569 402.435C185.986 401.486 185.798 400.346 186.044 399.259C186.29 398.173 186.952 397.226 187.887 396.621L191.539 394.231L177.613 402.278C176.663 402.812 175.545 402.962 174.488 402.698C173.432 402.434 172.516 401.775 171.929 400.858C171.342 399.94 171.128 398.833 171.331 397.763C171.534 396.692 172.139 395.74 173.022 395.102L238.08 349.252L154.667 397.397C153.711 397.927 152.588 398.069 151.53 397.795C150.472 397.521 149.559 396.852 148.981 395.925C148.402 394.998 148.2 393.884 148.418 392.814C148.637 391.743 149.257 390.796 150.153 390.17L204.629 353.553L138.018 392.004C137.066 392.536 135.947 392.683 134.89 392.416C133.833 392.148 132.919 391.486 132.334 390.566C131.75 389.645 131.541 388.536 131.749 387.466C131.957 386.395 132.566 385.445 133.453 384.811L213.734 329.114L119.134 383.727C118.171 384.287 117.027 384.448 115.947 384.176C114.867 383.904 113.936 383.22 113.353 382.271C112.77 381.321 112.582 380.182 112.828 379.095C113.074 378.009 113.736 377.062 114.671 376.457L155.725 349.756L107.733 377.455C106.774 377.97 105.654 378.099 104.602 377.814C103.551 377.53 102.648 376.855 102.079 375.926C101.509 374.998 101.316 373.887 101.539 372.821C101.763 371.755 102.385 370.815 103.279 370.193L145.562 342.716L97.0752 370.697C96.1132 371.234 94.9806 371.378 93.9145 371.1C92.8485 370.821 91.9316 370.14 91.3559 369.201C90.7802 368.261 90.5904 367.135 90.8262 366.059C91.062 364.982 91.705 364.039 92.6208 363.426L129.135 339.823L87.552 363.836C86.5867 364.426 85.4264 364.609 84.3262 364.345C83.2259 364.08 82.276 363.389 81.6853 362.423C81.0946 361.458 80.9116 360.298 81.1764 359.198C81.4413 358.097 82.1323 357.147 83.0976 356.557L119.578 332.971L79.36 356.181C78.4054 356.705 77.2869 356.843 76.2334 356.569C75.1799 356.294 74.2712 355.628 73.6933 354.705C73.1153 353.783 72.9118 352.674 73.1245 351.606C73.3372 350.539 73.95 349.593 74.8373 348.962L145.843 300.868L81.5104 337.997C80.562 338.525 79.4479 338.672 78.395 338.407C77.3421 338.143 76.4296 337.487 75.8433 336.573C75.2571 335.66 75.0411 334.557 75.2394 333.49C75.4378 332.422 76.0355 331.471 76.9109 330.829L145.92 281.95L88.0042 315.383C87.0511 315.922 85.9276 316.073 84.866 315.806C83.8044 315.539 82.8861 314.874 82.3008 313.949C81.7156 313.024 81.5082 311.91 81.7216 310.836C81.935 309.763 82.5529 308.812 83.4474 308.181L114.167 286.95L97.152 296.764C96.2247 297.301 95.1294 297.469 94.0836 297.236C93.0379 297.002 92.1183 296.384 91.5077 295.503C90.897 294.623 90.64 293.545 90.7877 292.483C90.9355 291.422 91.4771 290.455 92.305 289.775L121.916 265.438C120.979 265.435 120.07 265.123 119.328 264.552C118.586 263.981 118.052 263.181 117.81 262.277C117.567 261.372 117.629 260.413 117.985 259.547C118.342 258.681 118.973 257.956 119.782 257.485L159.829 234.368C160.757 233.831 161.852 233.663 162.898 233.896C163.943 234.13 164.863 234.748 165.474 235.629C166.084 236.509 166.341 237.587 166.194 238.648C166.046 239.71 165.504 240.677 164.676 241.357L137.754 263.484L200.9 227.021C201.851 226.501 202.965 226.363 204.014 226.635C205.063 226.906 205.97 227.567 206.55 228.482C207.13 229.398 207.339 230.5 207.136 231.564C206.934 232.629 206.333 233.576 205.457 234.214L174.686 255.479L221.619 228.42C222.568 227.892 223.682 227.745 224.735 228.01C225.787 228.274 226.7 228.93 227.286 229.844C227.873 230.757 228.088 231.86 227.89 232.927C227.692 233.995 227.094 234.946 226.219 235.588L157.15 284.476L244.548 234.027C245.503 233.503 246.621 233.365 247.675 233.639C248.728 233.914 249.637 234.58 250.215 235.503C250.793 236.425 250.996 237.534 250.784 238.602C250.571 239.669 249.958 240.615 249.071 241.246L178.116 289.28L261.325 241.246C262.29 240.655 263.45 240.472 264.551 240.737C265.651 241.002 266.601 241.693 267.191 242.658C267.782 243.623 267.965 244.784 267.7 245.884C267.435 246.984 266.744 247.934 265.779 248.525L229.308 272.119L272.051 247.467C273.015 246.918 274.154 246.766 275.228 247.043C276.301 247.32 277.225 248.004 277.803 248.951C278.381 249.897 278.568 251.031 278.324 252.113C278.08 253.194 277.425 254.139 276.497 254.746L239.94 278.374L281.6 254.336C282.56 253.807 283.688 253.668 284.748 253.948C285.808 254.228 286.719 254.905 287.293 255.839C287.867 256.773 288.06 257.893 287.831 258.965C287.602 260.037 286.969 260.98 286.063 261.598L243.823 289.041L290.56 262.059C291.522 261.521 292.655 261.377 293.721 261.655C294.787 261.934 295.704 262.615 296.279 263.554C296.855 264.494 297.045 265.62 296.809 266.696C296.573 267.773 295.93 268.716 295.014 269.329L253.986 296.013L298.487 270.327C299.44 269.781 300.566 269.623 301.633 269.885C302.699 270.148 303.622 270.812 304.212 271.739C304.801 272.665 305.01 273.784 304.796 274.861C304.582 275.938 303.96 276.89 303.061 277.521L222.763 333.227L308.736 283.597C309.694 283.041 310.831 282.88 311.906 283.148C312.981 283.415 313.909 284.09 314.496 285.03C315.082 285.97 315.28 287.101 315.047 288.184C314.815 289.266 314.17 290.217 313.25 290.833L258.773 327.441L315.469 294.716C316.419 294.182 317.536 294.032 318.593 294.296C319.65 294.56 320.566 295.219 321.153 296.136C321.74 297.054 321.954 298.161 321.75 299.232C321.547 300.302 320.942 301.254 320.06 301.892L255.002 347.759L322.005 309.077C322.967 308.531 324.102 308.379 325.174 308.653C326.245 308.928 327.167 309.608 327.747 310.549C328.327 311.491 328.519 312.621 328.282 313.701C328.045 314.781 327.398 315.727 326.477 316.339L322.859 318.703L324.898 317.525C325.843 316.992 326.954 316.839 328.008 317.096C329.061 317.354 329.977 318.003 330.569 318.911C331.162 319.819 331.386 320.919 331.196 321.987C331.007 323.055 330.418 324.01 329.549 324.659L285.449 356.89L328.388 332.1C329.328 331.566 330.435 331.407 331.486 331.657C332.538 331.907 333.455 332.547 334.053 333.448C334.651 334.348 334.885 335.441 334.708 336.508C334.531 337.574 333.956 338.533 333.099 339.191L309.564 357.009L330.044 345.19C331.019 344.68 332.153 344.567 333.21 344.873C334.267 345.18 335.165 345.883 335.715 346.836C336.266 347.789 336.427 348.917 336.166 349.986C335.904 351.055 335.239 351.981 334.31 352.572L254.575 398.601C253.636 399.135 252.528 399.293 251.477 399.043C250.426 398.793 249.508 398.154 248.91 397.253C248.312 396.353 248.078 395.259 248.255 394.193C248.432 393.127 249.008 392.168 249.865 391.509L273.357 373.76L221.013 403.942C220.363 404.308 219.626 404.494 218.88 404.48Z" fill="#7E9AEB"/>
<path d="M447.292 311.373C446.515 311.372 445.752 311.16 445.087 310.758C444.422 310.356 443.879 309.781 443.518 309.093C443.156 308.405 442.989 307.632 443.034 306.856C443.08 306.08 443.336 305.332 443.776 304.691L455.04 288.273L437.589 298.351C436.706 298.858 435.67 299.032 434.669 298.842C433.669 298.652 432.769 298.11 432.133 297.314C431.497 296.518 431.167 295.521 431.202 294.503C431.237 293.485 431.635 292.513 432.324 291.763L446.976 275.891L437.589 281.31C436.715 281.818 435.689 281.999 434.693 281.821C433.698 281.642 432.798 281.117 432.155 280.337C431.511 279.557 431.165 278.574 431.179 277.562C431.193 276.551 431.566 275.578 432.23 274.816L449.169 255.317L437.589 261.973C436.71 262.475 435.681 262.648 434.687 262.46C433.692 262.273 432.796 261.739 432.159 260.952C431.522 260.165 431.186 259.178 431.21 258.166C431.234 257.154 431.617 256.184 432.29 255.428L446.106 240.068L437.572 244.983C436.685 245.497 435.643 245.674 434.636 245.482C433.629 245.29 432.725 244.742 432.089 243.938C431.454 243.134 431.128 242.128 431.173 241.104C431.217 240.081 431.629 239.107 432.333 238.362L440.866 229.325L436.241 231.987C435.361 232.489 434.331 232.661 433.336 232.473C432.341 232.284 431.445 231.748 430.809 230.96C430.173 230.172 429.838 229.183 429.863 228.171C429.889 227.158 430.275 226.188 430.95 225.434L437.513 218.197L431.94 221.406C431.096 221.886 430.113 222.064 429.154 221.91C428.195 221.757 427.318 221.28 426.666 220.56C426.014 219.84 425.628 218.919 425.571 217.949C425.514 216.98 425.789 216.02 426.351 215.228L435.439 202.598L422.571 210.031C421.73 210.52 420.748 210.707 419.786 210.562C418.825 210.416 417.942 209.947 417.284 209.231C416.626 208.515 416.232 207.596 416.168 206.625C416.103 205.655 416.372 204.692 416.93 203.895L425.242 192.026L408.175 201.873C407.309 202.374 406.295 202.554 405.309 202.383C404.324 202.212 403.43 201.7 402.783 200.937C402.137 200.173 401.779 199.207 401.773 198.207C401.766 197.207 402.111 196.236 402.748 195.465L409.975 186.701L385.869 200.619C384.889 201.176 383.729 201.322 382.642 201.027C381.555 200.732 380.628 200.019 380.065 199.043C379.502 198.067 379.347 196.908 379.635 195.819C379.923 194.73 380.63 193.799 381.602 193.229L426.138 167.518C427.004 167.017 428.018 166.837 429.003 167.008C429.989 167.179 430.883 167.691 431.529 168.454C432.176 169.217 432.533 170.184 432.54 171.184C432.546 172.184 432.201 173.155 431.565 173.926L424.346 182.69L437.623 175.01C438.463 174.529 439.441 174.348 440.397 174.495C441.354 174.643 442.231 175.112 442.886 175.825C443.541 176.537 443.934 177.451 444.001 178.416C444.068 179.381 443.805 180.341 443.255 181.137L434.953 193.015L448.393 185.259C449.237 184.778 450.219 184.6 451.178 184.754C452.137 184.908 453.015 185.384 453.667 186.105C454.318 186.825 454.705 187.746 454.762 188.715C454.819 189.685 454.544 190.645 453.982 191.437L444.894 204.066L456.841 197.171C457.722 196.664 458.755 196.488 459.754 196.675C460.753 196.862 461.652 197.4 462.29 198.191C462.928 198.983 463.263 199.976 463.234 200.992C463.204 202.008 462.814 202.98 462.131 203.733L455.586 210.961L461.722 207.411C462.609 206.892 463.654 206.71 464.664 206.9C465.675 207.089 466.583 207.637 467.221 208.443C467.86 209.249 468.186 210.258 468.14 211.285C468.094 212.312 467.678 213.288 466.97 214.033L458.436 223.07L465.195 219.17C466.075 218.663 467.107 218.487 468.106 218.673C469.104 218.859 470.004 219.395 470.642 220.184C471.281 220.974 471.617 221.966 471.59 222.981C471.562 223.997 471.174 224.969 470.494 225.724L456.67 241.084L466.91 235.11C467.784 234.602 468.81 234.421 469.806 234.6C470.801 234.778 471.701 235.304 472.344 236.084C472.988 236.864 473.334 237.847 473.32 238.858C473.306 239.869 472.934 240.842 472.269 241.604L455.339 261.094L466.987 254.37C467.87 253.863 468.906 253.689 469.907 253.879C470.907 254.069 471.807 254.611 472.443 255.407C473.079 256.203 473.409 257.2 473.374 258.218C473.339 259.236 472.941 260.208 472.252 260.958L457.591 276.838L467.046 271.377C467.884 270.894 468.862 270.71 469.818 270.856C470.774 271.001 471.653 271.467 472.31 272.177C472.966 272.888 473.362 273.8 473.432 274.765C473.502 275.729 473.243 276.689 472.695 277.487L461.423 293.914L467.115 290.628C467.866 290.192 468.733 289.997 469.599 290.067C470.465 290.137 471.289 290.47 471.961 291.021C472.633 291.572 473.12 292.315 473.358 293.151C473.596 293.986 473.573 294.875 473.293 295.697L471.586 300.817C472.177 301.186 472.667 301.696 473.011 302.302C473.574 303.281 473.726 304.444 473.433 305.535C473.141 306.625 472.427 307.556 471.45 308.122L467.132 310.613C466.381 311.045 465.517 311.238 464.654 311.166C463.791 311.095 462.97 310.762 462.3 310.213C461.631 309.664 461.144 308.924 460.905 308.092C460.666 307.259 460.686 306.374 460.962 305.553L461.577 303.736L449.417 310.75C448.777 311.145 448.043 311.36 447.292 311.373Z" fill="#D1D7DB"/>
<path d="M341.786 311.279C341.085 311.28 340.394 311.108 339.776 310.778C339.157 310.449 338.629 309.972 338.238 309.39C337.848 308.808 337.607 308.138 337.536 307.441C337.466 306.743 337.568 306.039 337.835 305.391L341.111 297.395L318.123 310.656C317.239 311.163 316.203 311.337 315.203 311.147C314.202 310.957 313.302 310.415 312.666 309.619C312.03 308.823 311.7 307.826 311.735 306.808C311.77 305.79 312.168 304.818 312.858 304.068L327.509 288.213L318.123 293.632C317.232 294.14 316.189 294.31 315.183 294.112C314.177 293.914 313.276 293.36 312.645 292.552C312.014 291.744 311.696 290.736 311.747 289.712C311.799 288.688 312.217 287.717 312.926 286.976L325.495 273.92L318.123 278.187C317.245 278.694 316.215 278.872 315.218 278.69C314.221 278.507 313.322 277.975 312.681 277.19C312.04 276.404 311.7 275.416 311.722 274.403C311.743 273.389 312.124 272.416 312.798 271.659L329.105 253.269L318.123 259.61C317.224 260.121 316.171 260.289 315.158 260.082C314.145 259.875 313.241 259.307 312.615 258.484C311.99 257.661 311.684 256.639 311.755 255.608C311.826 254.576 312.27 253.606 313.003 252.877L328.798 237.355L318.123 243.516C317.176 244.059 316.057 244.219 314.995 243.962C313.934 243.705 313.012 243.052 312.418 242.135C311.825 241.219 311.605 240.11 311.804 239.037C312.003 237.963 312.606 237.007 313.489 236.365L347.733 211.618L319.573 227.831C318.638 228.362 317.537 228.521 316.491 228.275C315.444 228.028 314.529 227.396 313.928 226.505C313.327 225.613 313.086 224.527 313.251 223.465C313.416 222.402 313.977 221.441 314.82 220.774L344.841 197.478L326.306 208.213C325.382 208.734 324.298 208.892 323.263 208.657C322.229 208.422 321.32 207.81 320.713 206.94C320.105 206.071 319.844 205.006 319.978 203.954C320.113 202.902 320.635 201.938 321.442 201.25L338.27 187.187C337.56 186.859 336.954 186.342 336.518 185.693C336.082 185.044 335.833 184.288 335.798 183.506C335.762 182.725 335.943 181.949 336.318 181.264C336.694 180.578 337.251 180.009 337.929 179.618L368.572 161.92C369.496 161.39 370.585 161.225 371.624 161.458C372.664 161.69 373.578 162.303 374.189 163.176C374.8 164.048 375.062 165.118 374.924 166.174C374.786 167.23 374.258 168.196 373.444 168.883L364.663 176.222L394.709 158.882C395.644 158.351 396.745 158.193 397.792 158.439C398.839 158.685 399.754 159.317 400.355 160.209C400.955 161.101 401.197 162.187 401.032 163.249C400.866 164.311 400.306 165.272 399.462 165.939L369.493 189.227L415.223 162.824C416.17 162.281 417.29 162.121 418.351 162.378C419.412 162.635 420.334 163.289 420.928 164.205C421.522 165.121 421.741 166.23 421.542 167.304C421.343 168.377 420.74 169.333 419.857 169.975L358.972 214.05L359.194 214.315C359.821 215.141 360.125 216.169 360.05 217.204C359.975 218.239 359.525 219.211 358.784 219.938L342.972 235.469L347.657 232.764C348.534 232.256 349.564 232.078 350.561 232.261C351.558 232.443 352.458 232.975 353.098 233.761C353.739 234.546 354.079 235.534 354.058 236.548C354.036 237.561 353.655 238.534 352.981 239.292L336.631 257.707L347.546 251.418C348.436 250.91 349.48 250.739 350.486 250.937C351.491 251.136 352.392 251.69 353.023 252.498C353.654 253.306 353.973 254.314 353.921 255.338C353.87 256.362 353.451 257.333 352.742 258.074L340.173 271.087L347.597 266.82C348.48 266.307 349.519 266.129 350.523 266.317C351.527 266.504 352.431 267.046 353.069 267.844C353.708 268.642 354.039 269.642 354.002 270.663C353.966 271.684 353.564 272.658 352.87 273.408L338.219 289.263L347.657 283.81C348.427 283.365 349.317 283.172 350.203 283.258C351.089 283.344 351.925 283.704 352.596 284.289C353.266 284.874 353.737 285.654 353.942 286.52C354.148 287.386 354.077 288.294 353.741 289.118L350.046 298.138C350.966 298.181 351.847 298.522 352.558 299.108C353.269 299.694 353.77 300.495 353.988 301.39C354.206 302.285 354.129 303.226 353.767 304.074C353.406 304.921 352.78 305.629 351.983 306.091L343.919 310.75C343.266 311.109 342.531 311.292 341.786 311.279Z" fill="#D1D7DB"/>
<path d="M316.587 507.477C315.671 507.479 314.78 507.187 314.044 506.644C313.307 506.1 312.765 505.334 312.497 504.459C312.229 503.584 312.25 502.646 312.556 501.783C312.862 500.921 313.438 500.18 314.197 499.669L397.372 443.733L298.539 500.804C297.57 501.363 296.421 501.519 295.338 501.239C294.256 500.958 293.326 500.264 292.75 499.306C292.174 498.347 291.998 497.201 292.258 496.113C292.519 495.026 293.196 494.084 294.144 493.491L307.132 485.333L291.567 494.319C290.608 494.864 289.475 495.017 288.406 494.745C287.337 494.473 286.414 493.798 285.832 492.86C285.25 491.923 285.054 490.797 285.285 489.718C285.516 488.639 286.156 487.691 287.07 487.074L389.18 419.106L284.672 479.454C283.711 480.011 282.572 480.171 281.494 479.901C280.417 479.631 279.488 478.952 278.904 478.008C278.319 477.064 278.126 475.929 278.365 474.845C278.604 473.76 279.256 472.812 280.183 472.2L385.621 402.304L283.989 460.979C283.028 461.526 281.892 461.678 280.821 461.403C279.75 461.128 278.827 460.449 278.248 459.507C277.668 458.566 277.476 457.436 277.713 456.356C277.95 455.276 278.597 454.33 279.518 453.717L373.641 391.782L283.989 443.546C283.029 444.103 281.889 444.263 280.812 443.993C279.735 443.723 278.805 443.044 278.221 442.1C277.637 441.155 277.444 440.021 277.683 438.936C277.921 437.852 278.574 436.903 279.501 436.292L369.493 376.678L283.989 426.01C283.033 426.555 281.902 426.709 280.834 426.44C279.766 426.171 278.844 425.499 278.26 424.566C277.676 423.632 277.475 422.509 277.7 421.431C277.925 420.353 278.558 419.404 279.467 418.782L361.933 363.076L283.989 408.064C283.032 408.58 281.914 408.71 280.863 408.429C279.813 408.148 278.909 407.476 278.337 406.551C277.765 405.627 277.568 404.518 277.786 403.453C278.004 402.387 278.62 401.445 279.509 400.819L321.118 373.316L283.989 394.752C283.031 395.307 281.894 395.468 280.82 395.201C279.745 394.933 278.816 394.258 278.23 393.319C277.644 392.379 277.446 391.248 277.678 390.165C277.911 389.082 278.555 388.132 279.475 387.516L314.138 364.168L283.989 381.568C283.041 382.118 281.918 382.281 280.852 382.025C279.786 381.769 278.86 381.113 278.265 380.192C277.671 379.271 277.453 378.157 277.658 377.08C277.862 376.004 278.473 375.047 279.364 374.408L320.06 345.122L283.989 365.943C283.038 366.483 281.916 366.637 280.855 366.373C279.794 366.11 278.875 365.449 278.287 364.527C277.699 363.605 277.487 362.492 277.696 361.419C277.904 360.346 278.517 359.393 279.407 358.758L290.935 350.669L283.989 354.671C283.049 355.21 281.939 355.37 280.884 355.12C279.829 354.87 278.909 354.228 278.311 353.325C277.712 352.421 277.48 351.323 277.662 350.255C277.843 349.186 278.424 348.227 279.287 347.571L293.547 336.751L283.972 342.272C283.052 342.787 281.972 342.943 280.944 342.71C279.915 342.476 279.009 341.869 278.401 341.007C277.793 340.144 277.526 339.087 277.652 338.04C277.778 336.992 278.288 336.028 279.083 335.334L289.801 326.229L284.8 329.114C283.896 329.677 282.813 329.882 281.765 329.687C280.717 329.492 279.78 328.913 279.139 328.062C278.497 327.212 278.196 326.152 278.296 325.091C278.397 324.03 278.89 323.045 279.68 322.33L287.573 314.88C286.914 314.51 286.369 313.967 285.995 313.31C285.428 312.331 285.274 311.167 285.565 310.074C285.856 308.981 286.569 308.049 287.548 307.482L307.831 295.774C308.741 295.201 309.832 294.993 310.889 295.19C311.945 295.387 312.888 295.976 313.529 296.838C314.17 297.7 314.463 298.772 314.348 299.841C314.233 300.909 313.719 301.895 312.909 302.6L311.586 303.863L326.46 295.253C327.38 294.738 328.46 294.582 329.489 294.816C330.518 295.049 331.423 295.656 332.031 296.518C332.639 297.381 332.906 298.438 332.78 299.486C332.654 300.533 332.144 301.497 331.349 302.191L320.64 311.287L348.425 295.253C349.364 294.719 350.471 294.56 351.522 294.81C352.574 295.061 353.491 295.7 354.089 296.601C354.687 297.501 354.921 298.594 354.744 299.661C354.567 300.727 353.992 301.686 353.135 302.344L338.867 313.173L369.886 295.253C370.835 294.732 371.947 294.591 372.996 294.859C374.045 295.127 374.953 295.784 375.536 296.697C376.119 297.609 376.333 298.71 376.134 299.774C375.936 300.839 375.341 301.788 374.468 302.43L362.931 310.536L389.385 295.253C390.333 294.704 391.456 294.54 392.522 294.796C393.588 295.052 394.514 295.709 395.109 296.629C395.703 297.55 395.921 298.664 395.716 299.741C395.512 300.818 394.901 301.774 394.01 302.413L353.331 331.682L416.478 295.253C417.434 294.724 418.557 294.581 419.615 294.855C420.673 295.129 421.585 295.799 422.164 296.726C422.743 297.652 422.944 298.766 422.726 299.837C422.508 300.908 421.887 301.854 420.992 302.481L386.33 325.837L439.305 295.253C440.263 294.724 441.388 294.584 442.446 294.861C443.505 295.138 444.417 295.811 444.994 296.741C445.57 297.672 445.767 298.788 445.543 299.86C445.32 300.931 444.693 301.876 443.793 302.498L402.219 329.975L462.37 295.253C463.325 294.73 464.443 294.591 465.497 294.866C466.55 295.14 467.459 295.807 468.037 296.729C468.615 297.652 468.818 298.761 468.606 299.828C468.393 300.896 467.78 301.842 466.893 302.472L384.401 358.204L484.83 300.228C485.789 299.683 486.922 299.53 487.991 299.802C489.06 300.074 489.983 300.749 490.565 301.687C491.146 302.624 491.342 303.75 491.112 304.829C490.881 305.908 490.241 306.856 489.327 307.473L399.437 367.044L495.974 311.296C496.936 310.749 498.072 310.598 499.143 310.872C500.214 311.147 501.136 311.826 501.716 312.768C502.296 313.71 502.488 314.839 502.251 315.92C502.014 317 501.367 317.945 500.446 318.558L406.306 380.501L500.855 325.888C501.817 325.292 502.977 325.102 504.079 325.36C505.18 325.619 506.134 326.304 506.731 327.266C507.327 328.228 507.517 329.387 507.258 330.489C507 331.591 506.314 332.545 505.353 333.141L399.923 403.029L501.077 344.661C502.034 344.139 503.154 344.003 504.209 344.28C505.263 344.558 506.17 345.228 506.746 346.154C507.321 347.08 507.52 348.191 507.303 349.259C507.085 350.327 506.466 351.271 505.574 351.898L403.43 419.883L501.077 363.52C502.043 362.997 503.173 362.866 504.233 363.155C505.292 363.444 506.199 364.131 506.766 365.072C507.332 366.013 507.513 367.136 507.272 368.208C507.031 369.279 506.387 370.216 505.472 370.824L492.527 378.957L501.06 374.024C502.019 373.469 503.155 373.308 504.23 373.576C505.305 373.843 506.234 374.518 506.82 375.458C507.406 376.397 507.604 377.528 507.371 378.611C507.139 379.694 506.495 380.644 505.574 381.261L422.4 437.188L501.077 391.774C502.033 391.237 503.158 391.088 504.22 391.358C505.282 391.628 506.2 392.296 506.783 393.225C507.365 394.153 507.568 395.27 507.35 396.344C507.131 397.418 506.508 398.366 505.609 398.993L442.803 441.728L501.077 408.081C502.023 407.543 503.138 407.387 504.196 407.644C505.253 407.901 506.172 408.552 506.764 409.465C507.357 410.377 507.579 411.481 507.385 412.551C507.191 413.622 506.595 414.578 505.719 415.223L445.986 458.573L501.077 426.769C502.032 426.246 503.15 426.107 504.204 426.382C505.257 426.656 506.166 427.323 506.744 428.245C507.322 429.168 507.526 430.276 507.313 431.344C507.1 432.412 506.487 433.358 505.6 433.988L496.964 439.834L501.077 437.47C502.016 436.946 503.118 436.796 504.163 437.049C505.208 437.303 506.118 437.942 506.713 438.838C507.307 439.734 507.541 440.821 507.368 441.882C507.195 442.943 506.627 443.9 505.779 444.561L478.217 465.459L501.077 452.267C501.998 451.728 503.087 451.553 504.13 451.777C505.173 452.001 506.094 452.607 506.711 453.477C507.329 454.346 507.599 455.416 507.468 456.474C507.336 457.533 506.813 458.504 506.001 459.196L485.41 477.013L500.941 468.045C501.82 467.543 502.849 467.371 503.844 467.558C504.838 467.745 505.734 468.279 506.371 469.066C507.008 469.853 507.344 470.84 507.32 471.852C507.296 472.864 506.914 473.834 506.24 474.59L495.275 486.69C496.033 486.705 496.776 486.907 497.438 487.28C498.099 487.652 498.657 488.182 499.064 488.823C499.63 489.802 499.785 490.966 499.493 492.059C499.202 493.152 498.489 494.084 497.51 494.652L477.235 506.359C476.355 506.867 475.323 507.043 474.324 506.857C473.326 506.671 472.426 506.135 471.788 505.345C471.149 504.555 470.813 503.563 470.84 502.548C470.867 501.533 471.256 500.56 471.936 499.806L481.758 488.96L450.628 506.88C449.709 507.417 448.622 507.591 447.581 507.367C446.54 507.144 445.62 506.539 445.002 505.672C444.384 504.805 444.113 503.738 444.241 502.681C444.37 501.624 444.888 500.653 445.696 499.959L466.304 482.176L423.501 506.923C422.562 507.457 421.454 507.616 420.403 507.365C419.352 507.115 418.434 506.476 417.836 505.575C417.238 504.675 417.004 503.581 417.181 502.515C417.358 501.449 417.933 500.49 418.79 499.831L446.353 478.933L397.867 506.88C396.912 507.403 395.794 507.542 394.74 507.267C393.687 506.993 392.778 506.326 392.2 505.404C391.622 504.481 391.419 503.373 391.631 502.305C391.844 501.237 392.457 500.291 393.344 499.661L401.971 493.815L379.332 506.88C378.387 507.418 377.271 507.574 376.214 507.317C375.157 507.06 374.238 506.409 373.645 505.496C373.052 504.584 372.83 503.48 373.025 502.41C373.219 501.339 373.815 500.383 374.69 499.738L434.423 456.397L346.974 506.88C346.021 507.398 344.906 507.533 343.857 507.258C342.807 506.984 341.902 506.319 341.325 505.401C340.747 504.482 340.542 503.379 340.749 502.314C340.957 501.249 341.563 500.304 342.443 499.669L405.265 456.926L318.729 506.88C318.08 507.265 317.341 507.471 316.587 507.477Z" fill="#FCBE5D"/>
<path d="M399.744 439.211C398.942 439.212 398.156 438.987 397.476 438.562C396.796 438.136 396.249 437.528 395.899 436.807C395.549 436.085 395.41 435.279 395.496 434.482C395.583 433.685 395.893 432.928 396.39 432.299L397.525 430.865L384.503 438.383C383.615 438.896 382.572 439.073 381.565 438.88C380.557 438.687 379.653 438.137 379.018 437.332C378.383 436.527 378.059 435.52 378.105 434.495C378.152 433.47 378.567 432.497 379.273 431.753L389.086 421.436L373.76 430.268C372.837 430.804 371.746 430.975 370.703 430.746C369.66 430.518 368.74 429.906 368.126 429.033C367.512 428.159 367.248 427.087 367.385 426.028C367.523 424.969 368.053 424 368.87 423.313L371.661 420.966C370.717 421.307 369.682 421.303 368.741 420.956C367.799 420.61 367.009 419.942 366.511 419.071C366.012 418.199 365.837 417.18 366.016 416.193C366.195 415.205 366.716 414.312 367.488 413.67L376.26 406.392L374.494 407.407C373.6 407.923 372.549 408.097 371.536 407.897C370.524 407.697 369.618 407.137 368.987 406.32C368.356 405.504 368.042 404.486 368.104 403.455C368.165 402.425 368.598 401.452 369.323 400.717L388.446 381.389L372.164 390.775C371.263 391.31 370.196 391.494 369.167 391.292C368.139 391.091 367.22 390.518 366.587 389.682C365.954 388.846 365.651 387.807 365.735 386.762C365.82 385.718 366.286 384.74 367.044 384.017L377.079 374.289L369.306 378.778C368.425 379.29 367.389 379.471 366.386 379.286C365.384 379.101 364.48 378.564 363.84 377.771C363.199 376.978 362.864 375.981 362.895 374.962C362.925 373.943 363.32 372.969 364.006 372.216L370.987 364.536C370.449 364.39 369.947 364.14 369.507 363.798C369.068 363.457 368.7 363.032 368.427 362.547C367.863 361.569 367.71 360.407 368.001 359.317C368.292 358.226 369.004 357.295 369.98 356.728L387.465 346.633C388.346 346.12 389.381 345.939 390.384 346.124C391.386 346.309 392.29 346.846 392.93 347.64C393.571 348.433 393.906 349.429 393.876 350.448C393.845 351.467 393.451 352.441 392.764 353.195L388.557 357.845L402.714 349.67C403.615 349.136 404.682 348.952 405.711 349.153C406.739 349.355 407.658 349.928 408.291 350.764C408.924 351.599 409.227 352.639 409.143 353.684C409.058 354.728 408.592 355.706 407.834 356.429L397.824 366.131L411.716 358.118C412.61 357.603 413.661 357.429 414.674 357.629C415.686 357.829 416.592 358.389 417.223 359.205C417.855 360.022 418.168 361.04 418.107 362.07C418.045 363.1 417.612 364.073 416.887 364.809L397.756 384.145L415.573 373.837C416.498 373.314 417.585 373.155 418.621 373.391C419.657 373.627 420.568 374.24 421.175 375.112C421.782 375.984 422.042 377.051 421.904 378.105C421.766 379.158 421.24 380.122 420.429 380.809L410.3 389.214C411.079 389.115 411.87 389.228 412.591 389.54C413.312 389.852 413.935 390.353 414.396 390.989C415.007 391.861 415.27 392.931 415.132 393.987C414.995 395.044 414.467 396.011 413.653 396.698L410.931 399.002C411.835 398.651 412.831 398.618 413.755 398.908C414.68 399.199 415.478 399.795 416.019 400.6C416.559 401.404 416.809 402.369 416.728 403.335C416.647 404.301 416.24 405.21 415.573 405.914L405.76 416.239L412.518 412.339C413.377 411.849 414.379 411.672 415.353 411.838C416.328 412.005 417.214 412.505 417.861 413.252C418.508 414 418.875 414.949 418.9 415.937C418.925 416.926 418.606 417.892 417.997 418.671L414.438 423.185C415.423 423.514 416.255 424.19 416.777 425.088C417.342 426.068 417.496 427.233 417.203 428.326C416.91 429.419 416.195 430.351 415.215 430.916L401.843 438.596C401.21 438.984 400.486 439.196 399.744 439.211Z" fill="#A87E48"/>
<path d="M475.511 294.4C479.036 235.819 476.058 166.093 402.287 159.522C349.218 -57.8219 33.28 -36.3264 3.77174 182.741C-15.744 330.846 138.385 444.288 275.319 390.101C280.704 428.501 256.051 495.462 307.832 507.682C361.327 509.44 415.223 507.597 468.856 508.237C502.588 507.631 513.894 474.914 509.747 445.943V349.15C513.485 324.557 502.801 297.242 475.511 294.4ZM463.155 245.12V293.76C455.902 293.669 448.643 293.635 441.378 293.658C439.782 258.825 452.71 204.51 406.596 194.62C405.466 193.384 403.938 192.585 402.278 192.362C400.618 192.139 398.933 192.506 397.517 193.399C336.452 192.546 342.613 249.719 343.689 293.683C336.427 293.683 329.182 293.683 321.911 293.769C323.294 255.65 314.044 211.063 346.027 182.571C392.892 139.247 468.07 184.858 463.155 245.154V245.12ZM360.96 218.052C363.941 211.851 368.794 206.742 374.834 203.446C380.874 200.15 387.796 198.833 394.624 199.68C395.449 232.319 388.138 264.651 373.35 293.76L356.045 293.7C357.99 268.8 350.959 241.493 360.96 218.052ZM407.177 203.87C439.706 221.568 426.334 263.535 429.022 293.7C414.669 293.777 400.333 293.922 385.997 293.828C399.905 265.879 407.155 235.089 407.177 203.87ZM14.7712 207.642C15.872 -23.5179 327.987 -61.7131 389.009 159.403C327.083 162.099 302.182 220.467 309.555 275.456C288.534 250.412 259.013 234.005 226.645 229.376C302.78 210.688 308.685 99.5669 231.586 77.4826C127.343 48.64 73.1307 198.426 181.641 230.281C154.076 235.15 128.715 248.494 109.09 268.454C89.4648 288.414 76.552 313.997 72.1493 341.641C36.5866 305.958 16.0523 258.003 14.7712 207.642ZM148.301 196.326C82.9099 83.0464 262.485 23.8165 275.422 155.255C275.957 170.351 271.555 185.21 262.884 197.579C254.213 209.948 241.745 219.152 227.371 223.796C212.997 228.44 197.501 228.27 183.232 223.313C168.963 218.356 156.7 208.882 148.301 196.326ZM89.6 357.171C87.3728 355.465 85.2309 353.596 83.0891 351.753C83.7075 325.355 92.9624 299.888 109.436 279.252C125.91 258.617 148.695 243.95 174.299 237.5C199.904 231.05 226.918 233.171 251.202 243.539C275.486 253.907 295.702 271.949 308.753 294.903C265.054 302.583 276.565 353.084 275.328 385.502C244.561 397.228 211.28 400.782 178.73 395.816C146.18 390.851 115.472 377.537 89.6 357.171ZM469.811 498.662C281.463 490.257 284.766 541.747 287.889 377.617C290.509 354.944 280.013 326.417 298.854 308.992C306.81 304.094 316.231 302.14 325.478 303.471H449.476C472.61 300.006 497.988 308.873 497.178 335.898C497.707 364.749 497.178 393.651 497.178 422.502C497.186 446.797 506.069 497.118 469.811 498.662Z" fill="#262626"/>
<path d="M423.083 365.918C409.429 325.214 340.668 355.584 365.824 392.576C366.351 393.266 366.961 393.888 367.642 394.428C364.407 411.75 356.915 438.571 383.599 438.801C420.352 442.479 426.044 424.294 417.485 392.439C420.563 388.841 422.689 384.527 423.667 379.893C424.645 375.259 424.444 370.454 423.083 365.918ZM404.6 430.771C369.69 438.135 375.356 417.357 380.109 392.371C371.917 381.824 369.562 364.433 382.515 355.874C399.625 346.001 417.801 369.118 410.283 385.331C408.952 388.745 404.864 391.731 405.043 395.315C405.103 406.571 414.396 421.675 404.6 430.754V430.771Z" fill="#262626"/>
</svg>
