<svg id="Icons" height="512" viewBox="0 0 60 60" width="512" xmlns="http://www.w3.org/2000/svg"><path d="m31.119 59.463a.5.5 0 0 1 -.268-.922l6.507-4.141-8.646 4.993a.5.5 0 0 1 -.524-.852l12.612-8.23-15.576 8.989a.5.5 0 0 1 -.515-.857l5.9-3.679-7.654 4.419a.5.5 0 0 1 -.514-.858l5.238-3.246-6.842 3.949a.5.5 0 0 1 -.513-.858l4.893-3.02-6.387 3.689a.5.5 0 0 1 -.52-.854l16.941-10.895-19.632 11.334a.5.5 0 0 1 -.517-.855l16.029-10.169-18.26 10.546a.5.5 0 0 1 -.515-.857l12.564-7.825-14.213 8.2a.5.5 0 0 1 -.518-.856l17.428-11.014-19.385 11.191a.5.5 0 0 1 -.513-.857l12.313-7.628-13.632 7.864a.5.5 0 0 1 -.511-.858l9.367-5.763-10.282 5.937a.5.5 0 0 1 -.511-.859l6.77-4.144-7.312 4.223a.5.5 0 0 1 -.511-.859l6.612-4.049-6.957 4.014a.5.5 0 0 1 -.509-.86l2.174-1.324-2.286 1.319a.5.5 0 0 1 -.517-.854l16.333-10.365-16.573 9.567a.5.5 0 0 1 -.518-.854l14.181-9.022-14.033 8.1a.5.5 0 0 1 -.517-.85l14.661-9.546-14 8.085a.5.5 0 0 1 -.52-.853l9.378-6.025-8.24 4.757a.5.5 0 0 1 -.519-.853l5.4-3.453-4.1 2.369a.5.5 0 0 1 -.533-.845l9.036-6.222-6.788 3.909a.5.5 0 0 1 -.525-.849l2.028-1.337a.517.517 0 0 1 -.51-.22.5.5 0 0 1 .132-.68l3.466-2.511a.5.5 0 0 1 .015-.858l5.768-3.33a.5.5 0 0 1 .543.838l-1.394 1.011 5.41-3.123a.5.5 0 0 1 .525.849l-1.619 1.071 3.34-1.928a.5.5 0 0 1 .533.845l-9.034 6.22 12.237-7.065a.5.5 0 0 1 .52.854l-5.4 3.455 7.463-4.309a.5.5 0 0 1 .521.854l-9.385 6.027 11.914-6.878a.5.5 0 0 1 .523.852l-14.66 9.544 18.008-10.4a.5.5 0 0 1 .519.854l-14.186 9.028 17.111-9.879a.5.5 0 0 1 .518.854l-16.336 10.364 18.88-10.902a.5.5 0 0 1 .51.86l-2.165 1.318 3.095-1.785a.5.5 0 0 1 .511.859l-6.609 4.048 7.6-4.386a.5.5 0 0 1 .511.86l-6.758 4.136 7.627-4.4a.5.5 0 0 1 .512.859l-9.379 5.769 10.26-5.923a.5.5 0 0 1 .514.858l-12.32 7.635 13.224-7.633a.5.5 0 0 1 .517.855l-17.43 11.016 18.543-10.7a.5.5 0 0 1 .514.857l-12.565 7.821 13.269-7.661a.5.5 0 0 1 .518.854l-16.029 10.166 16.839-9.72a.5.5 0 0 1 .52.853l-16.929 10.89 17.72-10.233a.5.5 0 0 1 .513.858l-4.922 3.038 5.119-2.955a.5.5 0 0 1 .514.857l-5.238 3.246 5.4-3.114a.5.5 0 0 1 .515.857l-5.9 3.679 6.023-3.476a.5.5 0 0 1 .523.851l-12.6 8.226 12.926-7.463a.5.5 0 0 1 .519.855l-6.515 4.144 6.533-3.771a.5.5 0 0 1 .527.849l-9.735 6.463 9.806-5.661a.5.5 0 0 1 .523.852l-5.263 3.431 5.112-2.957a.5.5 0 0 1 .537.842l-7.537 5.293 7.214-4.165a.5.5 0 0 1 .556.828l-5.761 4.445 4.737-2.734a.5.5 0 0 1 .574.813l-1.949 1.659a.5.5 0 0 1 .392.912l-4.57 2.638a.5.5 0 0 1 -.574-.813l1.892-1.612-6.475 3.737a.5.5 0 0 1 -.556-.828l5.759-4.445-10.546 6.091a.5.5 0 0 1 -.537-.842l7.544-5.294-11.29 6.518a.5.5 0 0 1 -.523-.851l5.262-3.432-7.68 4.434a.5.5 0 0 1 -.527-.849l9.733-6.464-12.806 7.4a.5.5 0 0 1 -.25.063z" fill="#2f4693"/><path d="m30.311 33.46a.5.5 0 0 1 -.283-.912l3.813-2.613-5.748 3.317a.5.5 0 0 1 -.525-.851l3.132-2.057-4.426 2.556a.5.5 0 0 1 -.525-.849l5.814-3.838-7.107 4.1a.5.5 0 0 1 -.519-.854l3.5-2.242-4.333 2.5a.5.5 0 0 1 -.53-.848l11.045-7.436-12.407 7.167a.5.5 0 0 1 -.517-.856l3.433-2.167-3.928 2.262a.5.5 0 0 1 -.521-.853l9-5.828-9.7 5.6a.5.5 0 0 1 -.524-.851l11.6-7.617-12.293 7.1a.5.5 0 0 1 -.519-.855l7.413-4.721-7.717 4.455a.5.5 0 0 1 -.514-.858l1.483-.923-1.524.88a.5.5 0 0 1 -.52-.853l8.589-5.5-8.738 5.045a.5.5 0 0 1 -.515-.86l11.287-7.376-11.409 6.587a.5.5 0 0 1 -.516-.856l2.811-1.761-2.612 1.506a.5.5 0 0 1 -.528-.849l11.916-7.927-11.749 6.788a.5.5 0 0 1 -.521-.853l7.645-4.951-7.232 4.175a.5.5 0 0 1 -.516-.857l.416-.261a.5.5 0 0 1 -.405-.9l6.5-4.252-5.774 3.333a.5.5 0 0 1 -.531-.846l7.918-5.4-6.81 3.932a.5.5 0 0 1 -.524-.851l1.75-1.146-.567.327a.5.5 0 0 1 -.531-.847l2.328-1.58-.673.388a.5.5 0 0 1 -.56-.825l3.337-2.65a.5.5 0 0 1 -.145-.921l4.805-2.773a.5.5 0 0 1 .56.824l-2.645 2.1 6.675-3.852a.5.5 0 0 1 .532.847l-2.322 1.575 4.118-2.377a.5.5 0 0 1 .523.85l-1.76 1.154 3.009-1.739a.5.5 0 0 1 .531.845l-7.922 5.4 9.691-5.59a.5.5 0 0 1 .523.85l-6.497 4.249 7.6-4.39a.5.5 0 0 1 .515.856l-.055.035.561-.324a.5.5 0 0 1 .522.853l-7.63 4.944 8.461-4.887a.5.5 0 0 1 .527.849l-11.912 7.927 12.929-7.464a.5.5 0 0 1 .515.856l-2.827 1.771 3.114-1.8a.5.5 0 0 1 .524.852l-11.277 7.372 11.853-6.84a.5.5 0 0 1 .52.853l-8.587 5.5 8.873-5.123a.5.5 0 0 1 .514.858l-1.488.926 1.476-.852a.5.5 0 0 1 .518.854l-7.415 4.723 7.455-4.3a.5.5 0 0 1 .525.851l-11.596 7.61 11.646-6.723a.5.5 0 0 1 .521.852l-9.008 5.835 8.824-5.094a.5.5 0 0 1 .516.856l-3.426 2.163 3.059-1.766a.5.5 0 0 1 .529.848l-11.048 7.434 10.537-6.083a.5.5 0 0 1 .52.854l-3.511 2.248 2.829-1.633a.5.5 0 0 1 .526.85l-5.814 3.838 4.889-2.823a.5.5 0 0 1 .524.851l-3.134 2.062 2.014-1.163a.5.5 0 0 1 .532.845l-3.8 2.608 2.16-1.247a.5.5 0 0 1 .547.834l-2.711 2a.5.5 0 0 1 .457.888l-7.589 4.386a.5.5 0 0 1 -.547-.835l2.7-1.993-5.717 3.3a.507.507 0 0 1 -.255.068z" fill="#3f59b7"/><path d="m.989 44.886c-4.282 14.976 17.264 13.891 26.811 14.598 9.563-.777 30.918 1.779 31.921-11.511-1.152-9.4-9.331-17.195-18.469-18.984 9.148-7.657 6.041-23.818-5.442-27.482-16.203-6.314-30.641 15.921-17.25 27.587a24.259 24.259 0 0 0 -17.571 15.792zm15.793-35.786c13.012-20.309 40.372 4.047 22.975 19.939-12.619 11.134-31.634-5.921-22.975-19.939zm2.7 20.769a17 17 0 0 0 20.727 0c15.145 2.322 28.5 26.3 5.242 27.535-9.882 1.086-42.551 4.566-43.72-9.09.897-9.097 8.884-16.847 17.75-18.445z" fill="#262626"/></svg>