<svg id="Icons" viewBox="0 0 60 60" xmlns="http://www.w3.org/2000/svg"><path d="m41.818 25.347c-.159 0-.314-.076-.411-.216-.148-.214-.107-.506.095-.671l2.95-2.41-3.56 2.055c-.228.132-.521.063-.667-.157s-.096-.516.115-.675l1.572-1.189-1.928 1.113c-.222.13-.507.067-.658-.144-.149-.21-.113-.5.082-.668l3.506-3.015-4.283 2.473c-.222.129-.51.068-.659-.146-.148-.212-.111-.502.087-.669l3.313-2.792-4.025 2.324c-.225.131-.514.065-.662-.15-.147-.215-.105-.508.098-.672l2.818-2.28-3.396 1.96c-.226.13-.516.064-.664-.153-.146-.217-.102-.511.104-.673l2.413-1.902-2.904 1.677c-.223.131-.509.067-.658-.145-.149-.211-.113-.5.083-.668l3.461-2.961-4.074 2.353c-.224.13-.511.066-.659-.146-.149-.212-.111-.503.088-.67l3.142-2.642-3.171 1.831c-.217.127-.501.069-.653-.137-.15-.206-.123-.492.065-.664l2.837-2.605-2.166 1.25c-.217.127-.498.07-.65-.134-.151-.203-.128-.487.057-.662l1.279-1.214c-.106-.039-.199-.114-.26-.219-.139-.239-.057-.545.183-.683l2.676-1.545c.218-.125.498-.07.65.134.151.203.128.487-.057.662l-.721.685 2.444-1.412c.219-.127.502-.068.653.137.15.206.123.492-.065.664l-2.837 2.605 4.159-2.401c.224-.131.511-.066.659.146.149.212.111.503-.088.67l-3.142 2.642 3.84-2.217c.221-.128.509-.067.658.145.149.211.113.5-.083.668l-3.463 2.963 4.225-2.439c.225-.131.516-.065.664.153.146.217.102.511-.104.673l-2.413 1.902 2.904-1.677c.225-.13.515-.064.662.15.147.215.105.508-.098.672l-2.818 2.28 3.396-1.96c.225-.13.511-.066.659.146s.111.502-.087.669l-3.312 2.791 4.022-2.323c.221-.129.507-.068.658.144.149.21.113.5-.082.668l-3.508 3.017 4.286-2.475c.227-.133.521-.064.667.157.146.22.096.516-.115.675l-1.57 1.188 1.926-1.112c.225-.13.513-.065.661.149s.107.506-.095.671l-2.951 2.411 3.561-2.056c.239-.138.545-.057.683.183.139.239.057.545-.183.683l-8.912 5.145c-.078.045-.165.067-.25.067z" fill="#65a7ef"/><path d="m39.016 51.362c-.16 0-.317-.077-.413-.219-.147-.216-.104-.509.102-.672l.422-.336-1.976 1.14c-.23.134-.525.062-.67-.161s-.089-.521.128-.677l3.727-2.687-4.858 2.805c-.234.135-.532.061-.675-.169-.143-.229-.077-.53.147-.68l4.247-2.834-4.754 2.744c-.235.135-.533.061-.674-.168-.143-.229-.079-.529.145-.68l11.2-7.53-11.597 6.695c-.235.138-.536.061-.678-.174-.141-.233-.069-.536.161-.682l3.863-2.437-3.568 2.06c-.235.139-.536.06-.677-.173-.142-.231-.071-.534.157-.681l7.627-4.885-6.891 3.978c-.236.138-.535.06-.678-.173-.141-.232-.07-.535.158-.681l6.674-4.265-4.338 2.504c-.236.136-.534.061-.677-.172-.142-.23-.073-.532.154-.68l6.806-4.417-2.401 1.386c-.232.136-.529.062-.673-.167-.144-.228-.081-.527.141-.679l6.882-4.694-4.327 2.498c-.233.136-.529.062-.673-.166s-.081-.528.141-.68l3.949-2.697-6.137 3.543c-.23.134-.524.062-.67-.161-.145-.224-.089-.521.128-.677l8.062-5.807-11.51 6.645c-.233.136-.529.062-.673-.165-.144-.228-.082-.527.139-.68l8.485-5.849-11.594 6.693c-.234.138-.534.061-.675-.17-.142-.229-.076-.53.149-.68l7.531-4.979-10.097 5.829c-.232.136-.528.062-.672-.165-.144-.226-.083-.525.137-.678l4.52-3.143-6.904 3.985c-.234.138-.533.06-.676-.17-.142-.23-.075-.532.151-.681l.712-.468-2.285 1.318c-.231.135-.526.062-.67-.162s-.087-.522.13-.678l5.476-3.908-8.224 4.748c-.229.134-.521.064-.667-.157-.146-.22-.095-.517.117-.675l6.627-4.982-10.072 5.814c-.23.134-.526.062-.669-.16-.145-.224-.089-.521.126-.678l5.91-4.284-8.873 5.122c-.231.135-.526.062-.67-.162s-.087-.522.13-.678l5.436-3.874-8.166 4.714c-.231.136-.527.062-.671-.164s-.085-.524.134-.678l4.882-3.425-7.337 4.236c-.232.136-.528.062-.673-.165-.143-.228-.082-.526.139-.679l4.122-2.845-5.407 3.122c-.229.134-.521.063-.667-.156s-.096-.516.115-.675l5.946-4.503-6.96 4.018c-.232.137-.528.062-.673-.165-.143-.228-.082-.526.139-.679l1.385-.956-1.441.832c-.23.134-.521.065-.666-.155-.146-.219-.098-.514.111-.674l3.141-2.41-3.016 1.741c-.221.131-.503.068-.654-.138-.151-.207-.122-.493.067-.665l2.673-2.428-1.866 1.078c-.223.127-.505.067-.655-.14-.15-.208-.119-.496.073-.666l1.075-.958c-.063-.042-.117-.098-.158-.167-.138-.239-.056-.545.183-.683l2.683-1.549c.222-.129.505-.067.655.14.15.208.119.496-.073.666l-.059.053 1.677-.968c.223-.128.504-.068.654.138.151.207.122.493-.067.665l-2.673 2.428 5.597-3.231c.229-.133.519-.063.666.155.146.219.098.514-.111.675l-3.14 2.409 5.609-3.239c.233-.133.529-.061.673.166.143.227.082.526-.139.679l-1.385.956 3.118-1.8c.229-.133.521-.063.667.157s.096.516-.115.675l-5.946 4.503 9.24-5.335c.232-.133.529-.061.673.166.143.227.082.526-.139.679l-4.124 2.845 6.39-3.689c.232-.133.529-.061.671.164.144.226.085.525-.134.678l-4.884 3.426 7.393-4.268c.232-.134.526-.061.67.163.145.225.087.523-.13.678l-5.436 3.875 8.166-4.715c.229-.133.524-.063.669.161.145.223.089.521-.126.677l-5.91 4.285 8.873-5.123c.227-.133.521-.063.667.157.146.221.095.517-.116.675l-6.627 4.982 10.072-5.815c.229-.133.525-.062.671.163.144.224.087.522-.131.678l-5.476 3.908 8.224-4.748c.235-.135.533-.06.676.171.142.23.075.531-.151.68l-.715.47 2.288-1.321c.233-.134.528-.061.672.165.144.227.084.525-.137.679l-4.519 3.141 14.068-8.122c.233-.135.533-.06.675.17.143.23.076.531-.149.68l-7.529 4.979 8.136-4.697c.235-.133.53-.061.673.166.144.227.082.526-.139.679l-8.486 5.85 9.285-5.361c.229-.134.524-.063.67.162.145.224.089.521-.128.677l-8.062 5.807 8.981-5.186c.234-.133.529-.061.673.167s.081.527-.141.679l-3.948 2.696 4.411-2.547c.235-.133.529-.061.673.167s.081.528-.141.679l-6.883 4.695 7.488-4.324c.235-.135.534-.06.677.172.142.231.073.533-.154.681l-6.792 4.408 6.948-4.012c.237-.135.535-.059.678.173.141.232.07.535-.158.681l-6.683 4.27 6.457-3.728c.237-.135.536-.06.677.173.142.232.071.534-.157.681l-7.623 4.882 6.914-3.992c.236-.134.537-.059.678.174s.069.536-.161.682l-3.876 2.445 2.133-1.231c.233-.137.532-.061.674.168.143.229.079.529-.145.68l-11.194 7.525 5.424-3.131c.234-.138.531-.062.675.169.143.229.077.529-.147.68l-4.254 2.839.094-.054c.228-.135.524-.063.67.161.145.224.089.521-.128.677l-4.278 3.084c.159 0 .314.078.41.219.147.216.104.509-.102.672l-2.836 2.26c.008.012.015.023.021.035.139.239.057.545-.183.683l-2.722 1.571c-.078.046-.165.067-.25.067z" fill="#65a7ef"/><path d="m2.261 34.2c12.308 2.856 26.03.223 38.794 1.083-2.893 3.874-9.719 6.821-8.556 12.394 2.988 7.17 10.833 2.012 13.863-2.381 19.398-17.958 15.446-15.116-1.443-32.374-2.865-4.481-10.145-6.216-12.409-.275-1.243 5.427 5.379 8.333 8.208 12.068h-33.013c-5.394-.936-10.306 5.486-5.444 9.484zm2.343-8.776c12.433-.895 26.018.957 38.009-.666-2.743-3.109-6.408-5.6-8.554-9.15-1.166-3.052 1.149-7.233 4.782-6.116 6.764 4.574 11.86 11.75 18.011 17.213 5.019 6.801-6.375 11.732-9.721 16.645-3.385 3.15-8.97 11.495-12.939 4.57-2.471-5.866 6.598-9.315 8.21-13.204-11.223 0-22.446 0-33.669 0-5.863 1.41-10.123-6.379-4.129-9.292z" fill="#262626"/></svg>