<svg height="504pt" viewBox="0 -29 504.45386 504" width="504pt" xmlns="http://www.w3.org/2000/svg"><path d="m5.476562 445.976562c-1.910156.007813-3.589843-1.261718-4.113281-3.097656-.523437-1.839844.242188-3.800781 1.871094-4.800781l104.285156-64.351563-97.910156 56.515626c-2.015625 1.136718-4.570313.457031-5.757813-1.527344s-.574218-4.554688 1.378907-5.792969l82.226562-50.78125-70.390625 40.644531c-1.996094 1.082032-4.492187.410156-5.675781-1.527344s-.644531-4.460937 1.230469-5.746093l139.09375-89.65625-123.828125 71.480469c-2.011719 1.230468-4.636719.597656-5.867188-1.410157-1.230469-2.011719-.597656-4.636719 1.414063-5.867187l106.605468-69.121094-92.28125 53.25c-2.003906 1.085938-4.511718.402344-5.6875-1.554688-1.175781-1.953124-.605468-4.488281 1.292969-5.75l22.1875-13.9375-11.578125 6.683594c-1.304687.789063-2.929687.828125-4.269531.09375-1.335937-.734375-2.179687-2.125-2.210937-3.648437-.035157-1.523438.746093-2.949219 2.050781-3.742188l26.863281-17.125-15.957031 9.207031c-2.003907 1.199219-4.597657.566407-5.824219-1.421874-1.226562-1.984376-.628906-4.589844 1.34375-5.839844l38.511719-25.328125-26.710938 15.410156c-1.988281 1.152344-4.53125.523437-5.75-1.421875-1.222656-1.949219-.679687-4.519531 1.226563-5.804688l33.230468-22.542968-21.25 12.261718c-1.976562 1.058594-4.441406.40625-5.632812-1.5-1.191406-1.902343-.699219-4.40625 1.121094-5.71875l8.609375-5.820312c-1.550781.148438-3.058594-.550781-3.949219-1.828125-1.265625-1.839844-.890625-4.347656.851562-5.742187l28.441407-22.921876-14.457031 8.3125c-1.875 1.035157-4.230469.511719-5.496094-1.214843-1.269532-1.730469-1.054688-4.132813.496094-5.609375l10.839843-9.804688c-1.644531.246094-3.28125-.484375-4.199219-1.871094-.914062-1.382812-.941406-3.175781-.070312-4.589843l6.828125-11.050781c-.078125-.113282-.152344-.230469-.230469-.367188-1.171875-2.039062-.472656-4.640625 1.5625-5.820312l4.820313-2.789063c1.699219-1.011719 3.871093-.71875 5.246093.703125 1.375 1.425781 1.589844 3.605469.523438 5.269531l-2.5625 4.191407 17.582031-10.140626c1.875-1.03125 4.230469-.511718 5.496094 1.21875 1.269531 1.730469 1.054687 4.128907-.496094 5.609376l-9.824219 8.875 27.308594-15.746094c1.925782-1.089844 4.367188-.523438 5.621094 1.304687 1.25 1.828125.894531 4.308594-.816406 5.710938l-28.492188 22.871093 51.890625-29.960937c1.984375-1.101563 4.484375-.453125 5.683594 1.472656 1.203125 1.921875.6875 4.453125-1.171875 5.753907l-4.179688 2.824218 17.433594-10.058594c1.988282-1.136718 4.515625-.496093 5.730469 1.441407 1.210937 1.941406.679687 4.492187-1.207031 5.785156l-33.152344 22.492187 51.523438-29.746093c1.996093-1.136719 4.535156-.484375 5.742187 1.472656 1.203125 1.957031.644531 4.515625-1.269531 5.789063l-38.570313 25.378906 56.558594-32.65625c2.003906-1.121094 4.535156-.457032 5.726563 1.507812 1.191406 1.960938.617187 4.515625-1.300782 5.777344l-26.84375 17.128906 42.316406-24.433594c2.011719-1.125 4.550782-.453124 5.738282 1.519532 1.191406 1.972656.597656 4.535156-1.335938 5.785156l-22.132812 13.902344 36.761718-21.214844c2.007813-1.230469 4.636719-.597656 5.863282 1.414062 1.230468 2.007813.597656 4.636719-1.410156 5.863282l-106.667969 69.171875 132.472656-76.476563c2-1.097656 4.511719-.429687 5.699219 1.519532 1.1875 1.949218.632812 4.488281-1.261719 5.761718l-139.09375 89.660156 167.988281-96.964843c2.023438-1.210938 4.644532-.546875 5.851563 1.476562 1.210937 2.023438.550781 4.644531-1.476563 5.851563l-82.039062 50.671875 100.480468-58.027344c1.308594-.78125 2.9375-.804687 4.269532-.0625 1.332031.742187 2.164062 2.140625 2.1875 3.664063.023437 1.527343-.769532 2.949218-2.078125 3.730468l-104.355469 64.417969 124.28125-71.757813c2.003906-1.101562 4.523438-.425781 5.707031 1.53125 1.183594 1.957032.609375 4.503907-1.296875 5.765626l-131.976562 83.804687 157.867187-91.125c2.003907-1.199219 4.597657-.566406 5.824219 1.417969 1.222656 1.988281.625 4.589844-1.34375 5.84375l-84.199219 55.3125 108.375-62.566406c2-1.164063 4.566407-.519532 5.78125 1.457031 1.210938 1.972656.625 4.554687-1.320312 5.8125l-21.46875 14.011719 36.941406-21.332032c1.789063-1.03125 4.0625-.628906 5.394531.953125 1.328125 1.585938 1.332032 3.894531.003906 5.480469l-14.625 17.363281 41.257813-23.824219c2.027344-1.058593 4.527344-.332031 5.671875 1.644532 1.144531 1.980468.527344 4.511718-1.402344 5.738281l-62.347656 36c-1.792969 1.042969-4.074219.640625-5.410156-.949219-1.332032-1.589844-1.328125-3.90625.011718-5.492187l14.632813-17.367188-148.804687 85.925781c-2.007813 1.234376-4.636719.605469-5.871094-1.402343-1.234375-2.007813-.605469-4.636719 1.402344-5.871094l21.425781-14-103.808594 59.925781c-1.992187 1.117188-4.511719.464844-5.710937-1.480468-1.203126-1.941407-.660157-4.488282 1.230468-5.769532l84.242188-55.332031-204.714844 118.1875c-2.003906 1.101563-4.523438.425781-5.707031-1.53125-1.183594-1.957031-.613281-4.5 1.296875-5.765625l131.949218-83.789062-200.398437 115.695312c-.648437.375-1.382813.570312-2.132813.570312zm0 0" fill="#89c053"/><path d="m120.976562 229c-1.867187 0-3.519531-1.214844-4.074218-3-.550782-1.785156.121094-3.722656 1.660156-4.78125l64.203125-44.203125-88.046875 50.859375c-1.996094 1.082031-4.488281.414062-5.675781-1.523438-1.183594-1.9375-.644531-4.464843 1.230469-5.746093l26.308593-16.992188-25.363281 14.609375c-1.984375 1.085938-4.472656.429688-5.667969-1.492187-1.191406-1.921875-.679687-4.441407 1.171875-5.742188l50.101563-33.441406-50.511719 29.15625c-1.976562 1.117187-4.488281.488281-5.703125-1.433594s-.710937-4.457031 1.148437-5.769531l60.976563-42.109375-62.15625 35.839844c-1.984375 1.097656-4.484375.453125-5.683594-1.472657-1.203125-1.925781-.6875-4.453124 1.171875-5.757812l39.253906-26.519531-39.417968 22.816406c-1.996094 1.136719-4.535156.488281-5.742188-1.46875-1.203125-1.957031-.640625-4.519531 1.273438-5.792969l7.910156-5.179687-7.023438 4.046875c-1.960937 1.136718-4.46875.539062-5.710937-1.359375-1.242187-1.898438-.78125-4.433594 1.050781-5.773438l57.4375-42.207031-59.230468 34.191406c-1.953126 1.113282-4.4375.515625-5.671876-1.363281-1.238281-1.882813-.800781-4.398437.996094-5.753906l48.886719-36.195313-50.34375 29.011719c-1.949219 1.109375-4.425781.519531-5.667969-1.347656-1.238281-1.867188-.824218-4.378907.957032-5.742188l43.867187-33.359375-45.226563 26.121094c-1.964843 1.113281-4.460937.496094-5.683593-1.402344-1.226563-1.898437-.757813-4.421875 1.066406-5.757812l20.480469-14.660156-20.195313 11.648437c-1.972656 1.125-4.476562.511719-5.703125-1.398437-1.226562-1.90625-.746094-4.441407 1.09375-5.769532l11.597656-8.242187-10.855468 6.273437c-1.9375 1.148438-4.429688.59375-5.699219-1.265625-1.269531-1.855469-.878906-4.382812.894531-5.769531l28.441406-22.746094-29.191406 16.835938c-1.902344 1.089844-4.320312.558594-5.59375-1.226563-1.277344-1.78125-.988281-4.242187.660156-5.6875l27.308594-23.746093-28.453125 16.40625c-1.949219 1.097656-4.414062.5-5.644531-1.367188-1.234375-1.863281-.816406-4.367188.953125-5.730469l.90625-.683593c-1.886719.855468-4.113281.234374-5.285156-1.472657-1.167969-1.707031-.945313-4.003906.53125-5.457031l19.472656-19.222656-20.386719 11.75c-1.910156 1.074218-4.328125.523437-5.585937-1.273438-1.257813-1.796875-.949219-4.253906.714843-5.683594l1.707032-1.449218-.34375.203125c-1.8125 1.050781-4.121094.625-5.441406-1-1.324219-1.628907-1.269532-3.972657.125-5.535157l10.15625-11.382812-10.011719 5.777344c-1.730469.996094-3.921875.65625-5.273438-.820313-1.347656-1.472656-1.496093-3.6875-.347656-5.324219l6.988281-9.890624-6.546875 3.773437c-1.503906.890625-3.402343.777344-4.785156-.292969-1.363281-1.070312-1.941406-2.855468-1.46875-4.523437l2.902344-10.640625-.75.4375c-2.042969 1.175781-4.65625.476562-5.835938-1.566406-1.175781-2.042969-.476562-4.65625 1.566407-5.832032l9.6875-5.605468c1.496093-.8710942 3.371093-.7460942 4.746093.308593 1.371094 1.058594 1.96875 2.839844 1.507813 4.511719l-2.902344 10.640625 14.285156-8.210937c1.730469-.988282 3.917969-.648438 5.261719.824218 1.347656 1.46875 1.5 3.675782.363281 5.3125l-6.9375 9.855469 16.210938-9.378906c1.816406-1.046875 4.121094-.621094 5.445312 1.003906 1.320313 1.625 1.269532 3.972656-.128906 5.535156l-10.109375 11.382813 19.625-11.339844c1.914063-1.097656 4.351563-.554688 5.617187 1.253906 1.265626 1.808594.941407 4.285156-.746093 5.707032l-1.78125 1.46875 6.886719-3.96875c1.855468-1.042969 4.195312-.558594 5.484374 1.136718 1.289063 1.691406 1.132813 4.078125-.363281 5.589844l-19.421875 19.234375 31.640625-18.261719c1.949219-1.121094 4.433594-.53125 5.675781 1.34375 1.242188 1.875.816407 4.394532-.976562 5.753906l-.773438.589844 5.808594-3.355468c1.902344-1.089844 4.324219-.558594 5.597656 1.226562 1.273438 1.78125.984376 4.242188-.664062 5.6875l-27.308594 23.738281 39.707032-22.929687c1.9375-1.148438 4.429687-.59375 5.699218 1.261718 1.273438 1.859376.878906 4.386719-.894531 5.769532l-28.433594 22.742187 39.40625-22.75c1.964844-1.085937 4.4375-.460937 5.652344 1.425781 1.214844 1.886719.757813 4.394532-1.042969 5.734376l-11.554687 8.226562 18.082031-10.429688c1.96875-1.109374 4.460938-.496093 5.6875 1.402344 1.222656 1.902344.753906 4.425782-1.070312 5.757813l-20.53125 14.710937 28.320312-16.347656c1.953125-1.136719 4.449219-.554688 5.699219 1.324219 1.25 1.878906.820312 4.40625-.980469 5.765625l-43.851562 33.347656 56.59375-32.671875c1.957031-1.113281 4.4375-.515625 5.675781 1.367187 1.234375 1.878907.796875 4.394532-1 5.75l-48.84375 36.195313 61.601562-35.554687c1.960938-1.136719 4.46875-.539063 5.707031 1.359374 1.238282 1.898438.777344 4.433594-1.046874 5.773438l-57.40625 42.1875 71.203124-41.113281c2.003907-1.199219 4.597657-.566407 5.824219 1.421875 1.226563 1.984375.625 4.589844-1.34375 5.839844l-7.9375 5.195312 13.65625-7.890625c1.976563-1.0625 4.441407-.40625 5.632813 1.496094 1.191406 1.90625.699218 4.40625-1.121094 5.722656l-39.210938 26.546875 48.179688-27.820312c1.980469-1.117188 4.488281-.484376 5.703125 1.4375 1.214844 1.917968.710937 4.457031-1.144531 5.765624l-60.953125 42.09375 72.738281-42.023437c1.992188-1.136719 4.523438-.492187 5.734375 1.457031 1.207031 1.949219.660156 4.503906-1.238281 5.785156l-50.195313 33.503907 59.734375-34.484375c2-1.117188 4.523438-.457032 5.71875 1.496094 1.199219 1.953124.640625 4.5-1.265625 5.773437l-26.210937 16.941406 33.152344-19.140625c1.976562-1.117187 4.484374-.488281 5.703124 1.433594 1.214844 1.921875.710938 4.457031-1.148437 5.765625l-64.214844 44.195313 76.253907-44.015626c1.992187-1.113281 4.503906-.46875 5.710937 1.46875 1.203125 1.933594.675781 4.476563-1.203125 5.769532l-38.996094 26.101562 47.632813-27.5c1.972656-1.121094 4.480469-.5 5.703125 1.414063 1.21875 1.914062.726562 4.449219-1.121094 5.769531l-51.902344 36.410156 63.242188-36.511718c1.996094-1.160157 4.554687-.519532 5.769531 1.445312 1.214844 1.960938.644531 4.535156-1.28125 5.808594l-13.890625 9.214844 20.207031-11.65625c1.964844-1.140626 4.480469-.535157 5.714844 1.371093 1.238281 1.914063.757813 4.460938-1.089844 5.789063l-41.976562 30.179687 52.777343-30.472656c1.945313-1.101563 4.414063-.511719 5.652344 1.347656 1.238282 1.863281.832032 4.363281-.933594 5.734375l-42.742187 32.546875 55.3125-31.929687c1.972656-1.140625 4.496094-.527344 5.722656 1.394531 1.230469 1.917969.734375 4.464844-1.121093 5.78125l-17.214844 12.175781 24.421875-14.097656c1.914062-1.109375 4.363281-.574219 5.636719 1.238281 1.273437 1.808594.949218 4.292969-.746094 5.71875l-34.695313 29.304688 48.441407-27.964844c1.910156-1.066406 4.3125-.523437 5.574218 1.265625 1.257813 1.785156.964844 4.234375-.683594 5.671875l-25.15625 21.332031 36.515626-21.078125c1.894531-1.09375 4.308593-.578125 5.589843 1.195313 1.28125 1.773437 1.015625 4.226562-.617187 5.683594l-19.171875 17.160156 29.660156-17.117188c1.8125-1.046875 4.117187-.625 5.441406.996094 1.324219 1.625 1.273438 3.964844-.117187 5.53125l-16.007813 18.046875 28.707031-16.570313c1.832032-1.046874 4.152344-.601562 5.464844 1.054688 1.308594 1.652344 1.214844 4.015625-.226562 5.558594l-8.105469 8.628906 16.160156-9.328125c1.839844-1.050781 4.167969-.59375 5.472657 1.070313 1.308593 1.664062 1.199218 4.03125-.257813 5.570312l-2.097656 2.191406 7.285156-4.207031c1.429687-.828125 3.210937-.757813 4.570313.183594 1.359374.941406 2.050781 2.582031 1.78125 4.210937l-1.707032 10.238282 12.296875-7.089844c1.386719-.800782 3.109375-.753906 4.453125.117187 1.34375.875 2.085938 2.425781 1.921875 4.023438l-.351562 3.265625 4.191406-2.421875c2.042969-1.179688 4.652344-.476563 5.832031 1.566406 1.175782 2.042969.476563 4.652344-1.566406 5.832031l-11.496094 6.585938c-1.390625.804687-3.113281.757812-4.457031-.117188s-2.085937-2.433594-1.917969-4.027344l.351563-3.261718-12.851563 7.40625c-1.425781.824218-3.203125.75-4.554687-.1875-1.355469-.9375-2.050781-2.570313-1.785157-4.195313l1.707032-10.242187-25.363282 14.644531c-1.835937 1.0625-4.175781.609375-5.488281-1.058594-1.308593-1.667969-1.195312-4.046875.269531-5.582031l2.105469-2.199219-15.359375 8.847657c-1.832031 1.058593-4.164062.617187-5.480468-1.039063-1.316407-1.660156-1.21875-4.03125.230468-5.574219l8.117188-8.628906-26.453125 15.257812c-1.8125 1.039063-4.105469.613282-5.425781-1.003906-1.320313-1.613281-1.277344-3.949218.101562-5.515625l16.023438-18.074219-42.613282 24.613282c-1.894531 1.09375-4.308594.578125-5.589844-1.195313-1.285156-1.773437-1.019531-4.226562.613282-5.683593l19.242187-17.074219-41.605469 23.996093c-1.910156 1.066407-4.3125.519532-5.574218-1.265624-1.257813-1.789063-.964844-4.238282.683594-5.671876l25.148437-21.335937-49.058594 28.3125c-1.910156 1.074219-4.320312.523437-5.578125-1.265625-1.261718-1.792969-.960937-4.246094.695313-5.679688l34.695312-29.3125-62.835937 36.277344c-1.976563 1.136719-4.496094.523438-5.726563-1.394531-1.226562-1.917969-.734375-4.464844 1.125-5.78125l17.1875-12.179687-33.535156 19.335937c-1.949219 1.101563-4.414063.515625-5.652344-1.347656-1.242187-1.859375-.835937-4.359375.929688-5.734375l42.746093-32.542969-68.660156 39.644531c-1.96875 1.140625-4.488281.535156-5.722656-1.375-1.238281-1.914062-.753906-4.460937 1.097656-5.785156l41.984375-30.183594-64.71875 37.359375c-2 1.242188-4.632812.625-5.875-1.378906-1.242187-2-.625-4.632813 1.378907-5.875l13.894531-9.214844-28.535157 16.476563c-1.980468 1.15625-4.515624.542968-5.75-1.386719-1.230468-1.929687-.722656-4.488281 1.15625-5.796875l51.910157-36.410156-75.546875 43.613281c-1.996094 1.183594-4.574219.554687-5.800782-1.414063-1.226562-1.972656-.652343-4.566406 1.296876-5.832031l39.039062-26.09375-57.769531 33.347657c-.65625.382812-1.402344.578124-2.160157.570312zm0 0" fill="#9ed26a"/><path d="m504.199219 222.753906c-.015625-.476562-.257813-.917968-.65625-1.183594-7.585938-10.976562-17.253907-13.226562-29.703125-18.773437l-75.09375-33.417969-212.234375-94.429687c-51.6875-22.996094-103.355469-50.800781-156.644531-69.726563-31.746094-11.253906-33.972657 7.492188-22.757813 33.785156 16.394531 38.46875 32.796875 76.933594 49.210937 115.394532 9.640626 22.640625 25.011719 47.652344 29.910157 71.929687-4.011719 19.421875-16.0625 39.292969-23.777344 57.386719l-45.464844 106.628906c-8.867187 20.816406-36.691406 67.78125 6.621094 53.882813 48.785156-15.660157 96.496094-42.941407 143.25-63.746094l217.445313-96.800781 86.445312-38.46875c12.457031-5.539063 22.730469-8.140625 30.789062-17.648438 2.148438-1.160156 3.503907-2.910156 2.660157-4.8125zm-472.105469-157.4375c-5.503906-12.886718-18.65625-32.367187-19.804688-46.457031-1.195312-15.164063-1.878906-8.652344 9.042969-6.535156 30.175781 5.699219 64.214844 28.535156 92.160157 40.957031l143.914062 64 156.21875 69.515625c19.730469 8.78125 55.84375 17.390625 73.335938 33.953125h-359.773438c-29.867188 0-26.453125 5.476562-36.375-17.765625-19.582031-45.859375-39.15625-91.75-58.71875-137.667969zm399.546875 192.375-134.304687 59.730469-259.074219 115.320313c-2.703125 1.203124-21.332031 12.230468-24.394531 10.855468-9.816407-4.4375 2.515624-25.371094 5.519531-32.425781 19.847656-46.558594 39.695312-93.113281 59.539062-139.667969 6.914063-13.203125 12.765625-26.933594 17.5-41.070312.148438-.5625.058594-1.160156-.246093-1.652344h393.554687c-12.566406 14.496094-41.171875 21.375-58.09375 28.910156zm0 0" fill="#262626"/></svg>