<svg id="Icons" viewBox="0 0 60 60" xmlns="http://www.w3.org/2000/svg"><path d="m46.311 58.439c-.147 0-.293-.065-.391-.188-.154-.193-.145-.471.023-.652l.571-.617-1.82 1.051c-.22.13-.506.069-.656-.142-.15-.209-.116-.498.077-.667l.704-.617-1.35.779c-.217.127-.498.07-.65-.134-.152-.203-.128-.487.057-.661l2.391-2.27-3.628 2.095c-.222.13-.51.067-.659-.146-.148-.212-.111-.502.087-.669l2.719-2.298-3.839 2.216c-.228.135-.523.064-.669-.16-.146-.223-.091-.52.124-.676l.984-.72-1.616.933c-.228.133-.521.063-.667-.157s-.095-.517.117-.675l2.785-2.092-3.711 2.142c-.228.133-.521.063-.666-.155-.146-.22-.097-.515.112-.675l4.426-3.382-5.658 3.267c-.228.133-.52.063-.667-.156-.146-.22-.096-.516.115-.675l5.652-4.282-7.06 4.075c-.235.136-.532.061-.674-.168-.143-.229-.079-.528.145-.68l1.824-1.229-2.496 1.441c-.235.136-.533.061-.675-.17-.143-.229-.076-.531.149-.68l.978-.646-1.568.905c-.23.135-.528.062-.672-.165-.144-.226-.084-.525.137-.678l5.909-4.113-21.276 12.283c-.235.137-.535.059-.677-.172-.142-.232-.072-.534.156-.682l14.454-9.293-16.802 9.7c-.238.137-.538.058-.679-.175-.141-.234-.067-.537.164-.682l14.828-9.256-15.349 8.86c-.238.137-.54.059-.68-.177-.14-.234-.065-.538.167-.682l15.771-9.732-15.549 8.978c-.238.137-.54.059-.68-.177-.14-.234-.065-.539.168-.682l17.114-10.521-16.291 9.405c-.239.138-.54.058-.681-.178-.14-.236-.062-.54.172-.683l7.54-4.57-6.774 3.911c-.238.138-.539.058-.679-.175-.141-.234-.067-.537.164-.682l22.312-13.943-21.382 12.345c-.237.138-.539.059-.68-.177-.14-.234-.065-.538.167-.682l15.104-9.311-14.265 8.235c-.238.138-.541.058-.68-.178-.14-.235-.064-.539.169-.682l6.896-4.206-6.128 3.538c-.238.137-.541.058-.68-.178-.14-.235-.064-.54.17-.682l3.26-1.983-2.515 1.451c-.237.137-.539.059-.68-.177-.14-.235-.064-.539.169-.683l5.508-3.374-4.744 2.739c-.236.139-.535.06-.677-.173s-.071-.534.157-.681l16.749-10.727-15.815 9.131c-.235.138-.535.06-.677-.173s-.071-.534.157-.681l13.495-8.639-12.919 7.458c-.237.137-.54.058-.679-.176-.141-.234-.066-.538.165-.682l2.986-1.852-3.294 1.901c-.235.139-.536.06-.678-.175-.142-.233-.069-.536.161-.681l6.428-4.043-6.862 3.962c-.235.137-.536.061-.677-.172-.142-.231-.072-.534.156-.681l10.921-7.04-11.609 6.703c-.234.137-.534.06-.676-.171s-.074-.532.152-.681l13.259-8.659-14.117 8.15c-.235.137-.536.059-.678-.173-.141-.232-.07-.535.159-.682l9.789-6.233-10.383 5.994c-.235.138-.534.061-.677-.172-.142-.23-.073-.532.154-.68l13.442-8.727-14.277 8.243c-.238.134-.54.057-.68-.177-.14-.235-.065-.539.168-.682l.037-.023-.266.153c-.235.135-.535.06-.677-.173-.142-.231-.072-.534.156-.681l13.005-8.372-13.776 7.954c-.237.136-.539.058-.679-.176-.141-.234-.067-.537.164-.682l6.371-3.975-6.786 3.917c-.232.135-.529.062-.673-.167-.144-.228-.081-.527.141-.679l2.493-1.708-2.871 1.658c-.227.131-.518.063-.665-.154-.146-.218-.1-.512.107-.674l3.903-3.039-4.509 2.603c-.219.128-.503.07-.654-.14-.15-.207-.12-.495.07-.666l2.609-2.343-2.536 1.464c-.21.121-.478.074-.634-.113s-.154-.459.003-.644l1.051-1.232c-.173 0-.34-.09-.432-.25-.139-.239-.057-.545.183-.683l2.129-1.229c.209-.121.478-.075.634.113.156.187.154.459-.003.644l-.919 1.078 4.171-2.408c.22-.126.504-.069.654.14.15.207.12.495-.07.666l-2.609 2.344 6.63-3.828c.227-.131.518-.064.665.154.146.218.1.512-.107.674l-3.903 3.039 7.846-4.53c.234-.134.53-.061.673.167.144.228.081.527-.141.679l-2.496 1.709 20.827-12.024c.236-.137.538-.059.679.176.141.234.067.537-.164.682l-6.366 3.972 6.405-3.698c.235-.135.536-.06.677.173.142.231.072.534-.156.681l-13.003 8.37 13.253-7.651c.236-.137.538-.058.68.177.14.235.065.539-.168.682l-.055.034c.23-.122.521-.046.661.18.142.231.073.533-.154.681l-13.439 8.724 13.726-7.925c.237-.135.537-.058.678.174s.07.535-.159.681l-9.788 6.233 9.933-5.735c.235-.134.534-.059.676.171s.074.532-.152.68l-13.257 8.659 13.558-7.828c.235-.135.535-.059.677.172.142.232.072.534-.156.681l-10.925 7.042 12.066-6.967c.237-.135.537-.058.678.175.142.233.069.537-.161.682l-6.424 4.04 7.959-4.595c.236-.137.539-.058.679.176.141.234.066.538-.165.682l-2.99 1.854 4.247-2.452c.236-.135.537-.059.677.173.142.232.071.534-.157.681l-13.499 8.642 15.744-9.09c.237-.135.536-.06.677.173.142.232.071.534-.157.681l-16.746 10.724 19.279-11.131c.236-.137.538-.059.68.178.14.235.064.539-.169.682l-5.521 3.382 6.872-3.968c.237-.138.54-.058.68.178.14.235.064.54-.17.682l-3.243 1.973 4.467-2.579c.236-.137.54-.058.68.178s.064.54-.169.682l-6.892 4.203 8.254-4.766c.237-.137.539-.059.68.177.14.235.065.539-.167.682l-15.113 9.316 16.123-9.309c.236-.137.537-.059.679.176.141.233.067.537-.164.681l-22.31 13.941 22.671-13.089c.237-.137.539-.058.681.179.14.236.062.54-.172.682l-7.528 4.562 6.966-4.021c.236-.137.538-.058.68.177.14.235.065.539-.168.682l-17.117 10.523 13.765-7.947c.236-.137.538-.058.68.177.14.235.065.539-.167.682l-15.789 9.743 10.914-6.301c.236-.139.537-.059.679.175.141.234.067.537-.164.682l-14.821 9.252 9.774-5.643c.235-.137.536-.059.677.172.142.232.072.534-.156.682l-14.461 9.297 13.422-7.748c.233-.135.528-.062.672.165.144.226.084.525-.137.678l-5.903 4.109 5.654-3.265c.233-.137.533-.062.675.17.143.229.076.531-.149.68l-.979.648.646-.373c.234-.137.53-.061.674.168.143.229.079.528-.145.68l-1.83 1.233 1.507-.87c.227-.134.52-.064.667.156.146.22.096.516-.115.675l-5.648 4.279 5.432-3.136c.227-.135.52-.063.666.155.146.22.097.515-.112.675l-4.43 3.385 4.183-2.414c.227-.134.521-.065.667.157.146.221.095.517-.117.675l-2.786 2.093 2.489-1.437c.229-.134.524-.063.669.16.146.223.091.52-.124.676l-.98.717.637-.367c.224-.131.511-.066.659.146s.111.502-.087.669l-2.719 2.298 2.437-1.406c.218-.128.498-.071.65.134.152.203.128.487-.057.661l-2.391 2.269 2.11-1.218c.221-.129.507-.068.656.142.15.209.116.498-.077.667l-.706.618.26-.149c.212-.124.486-.073.641.12s.145.471-.023.652l-.904.977c.124.033.235.113.305.233.139.239.057.545-.183.683l-2.147 1.24c-.078.046-.164.067-.25.067z" fill="#f4c811"/><path d="m20.111 18.669c-.165 0-.326-.082-.422-.231-.144-.226-.084-.524.135-.678l5.401-3.785-3.624 2.092c-.228.133-.522.063-.669-.16-.145-.222-.091-.519.123-.676l5.451-4.01-3.534 2.041c-.227.133-.522.063-.668-.159-.146-.221-.093-.518.119-.676l3.758-2.794-1.998 1.153c-.227.131-.52.064-.665-.155-.146-.219-.099-.514.109-.674l2.87-2.213-1.152.665c-.22.128-.506.068-.656-.142-.15-.209-.116-.498.077-.667l2.539-2.221-.667.385c-.214.123-.489.072-.646-.126-.152-.198-.137-.478.038-.656l1.219-1.245c-.088-.042-.165-.11-.217-.201-.139-.239-.057-.545.183-.683l2.127-1.228c.213-.123.49-.072.646.126.152.198.137.478-.038.656l-.653.667 1.936-1.118c.221-.128.507-.068.656.142.15.209.116.498-.077.667l-2.538 2.22 3.204-1.85c.227-.132.52-.063.665.155.146.219.099.514-.109.674l-2.872 2.215 2.985-1.724c.229-.132.522-.063.668.159.146.221.093.518-.119.676l-3.76 2.796 3.89-2.246c.229-.132.524-.063.669.16.145.222.091.519-.123.676l-5.447 4.007 5.67-3.274c.229-.134.526-.062.672.165.144.226.084.524-.135.678l-5.403 3.787 5.562-3.211c.238-.139.545-.057.683.183.139.239.057.545-.183.683l-15.428 8.907c-.078.045-.165.067-.25.067z" fill="#f4c811"/><g fill="#262626"><path d="m6.704 32.115c2.119 1.939 4.01 4.204 6.181 6.048-4.707 23.707-4.275 24.512 16.983 12.441 21.19 12.144 22.054 10.996 17.28-12.572 17.508-16.544 17.733-17.025-6.437-19.924-10.16-22.409-11.196-22.191-21.342.035-10.231 1.886-28.876.843-12.665 13.972zm-2.761-10.729c5.373-1.409 12.183-.559 16.86-3.223 2.506-2.853 6.768-20.865 11.431-14.04 8.661 17.136 3.364 14.543 22.711 17.147 10.309 2.288-7.042 12.817-9.184 16.511-.454 7.968 9.386 27.061-6.788 16.251-2.827-1.424-5.566-3.078-8.4-4.457-7.262 1.24-22.764 17.222-18.01-1.032.51-3.474 1.316-6.932 1.768-10.402-1.337-4.255-18.256-13.031-10.388-16.754z"/><path d="m18.69 26.715c.792.04 7.243-5.421 5.953-5.355-.792-.04-7.243 5.42-5.953 5.355z"/><path d="m18.522 32.012c-.879 3.75 11.505-9.295 12.956-10.024.879-3.751-11.505 9.294-12.956 10.024z"/></g></svg>