<svg id="Icons" viewBox="0 0 60 60" xmlns="http://www.w3.org/2000/svg"><path d="m26.08 59.47c-.17 0-.336-.087-.429-.243-.141-.234-.066-.538.166-.682l4.958-3.068-6.8 3.926c-.235.137-.536.06-.677-.173-.142-.231-.072-.534.156-.681l17.396-11.168-20.823 12.021c-.235.138-.537.059-.679-.175-.141-.233-.067-.536.163-.682l15.965-10.011-17.784 10.268c-.238.137-.538.058-.679-.176s-.067-.538.165-.682l14.7-9.12-15.347 8.86c-.238.137-.538.058-.679-.175-.141-.234-.067-.537.164-.682l18.211-11.373-18.973 10.953c-.238.138-.541.058-.681-.179-.14-.235-.062-.54.172-.682l.944-.57-1.184.683c-.236.138-.537.059-.679-.175-.141-.233-.067-.537.163-.682l21.183-13.269-22.058 12.734c-.236.138-.538.059-.679-.175s-.067-.536.163-.682l22.916-14.371-23.855 13.772c-.238.138-.541.057-.68-.178-.14-.235-.064-.54.17-.682l10.114-6.151-10.534 6.081c-.239.138-.541.059-.681-.179-.14-.235-.062-.54.172-.682l5.426-3.278-5.741 3.314c-.239.138-.542.058-.681-.179-.14-.236-.062-.541.173-.683l1.31-.787-1.554.896c-.237.137-.539.059-.68-.177-.14-.235-.064-.539.169-.683l16.561-10.132-17.144 9.897c-.238.137-.541.058-.68-.178-.14-.235-.064-.539.17-.682l14.946-9.11-15.474 8.933c-.238.137-.54.059-.68-.177-.14-.234-.065-.538.167-.682l21.607-13.333-22.37 12.915c-.239.138-.54.058-.681-.178-.14-.236-.063-.54.171-.683l11.927-7.237-12.373 7.143c-.237.137-.539.058-.679-.176-.141-.234-.067-.537.165-.682l24.291-15.093-25.18 14.55c-.238.138-.542.058-.681-.179-.14-.236-.062-.541.173-.683l5.067-3.052-5.372 3.101c-.238.137-.54.059-.68-.177s-.064-.539.168-.682l18.675-11.453-19.162 11.064c-.238.138-.54.058-.681-.178-.14-.236-.062-.541.172-.683l9.741-5.897-9.525 5.499c-.238.137-.538.058-.679-.176s-.067-.537.164-.682l24.604-15.334-24.09 13.908c-.238.137-.539.058-.679-.176-.141-.234-.067-.537.165-.682l22.32-13.876-21.806 12.59c-.238.138-.542.059-.681-.179-.14-.236-.062-.541.173-.683l.479-.288c-.228.114-.514.034-.649-.19-.141-.233-.067-.537.163-.682l22.511-14.093-21.996 12.699c-.238.138-.539.059-.679-.176-.141-.233-.067-.537.164-.682l19.33-12.032-18.815 10.864c-.238.137-.539.058-.679-.176-.141-.234-.067-.537.165-.682l17.659-10.979-17.145 9.899c-.238.138-.54.059-.68-.176s-.065-.539.167-.683l13.954-8.619-13.441 7.761c-.238.138-.54.059-.68-.176s-.065-.539.167-.683l12.781-7.893-12.268 7.084c-.238.137-.54.059-.68-.177s-.064-.539.169-.683l6.645-4.065-6.134 3.541c-.238.137-.54.059-.68-.177s-.064-.54.169-.683l4.211-2.575-3.7 2.136c-.238.138-.54.059-.68-.177s-.064-.539.168-.682l3.481-2.135-2.97 1.714c-.235.137-.533.061-.677-.171-.142-.231-.073-.533.154-.681l15.687-10.186-15.163 8.757c-.235.138-.537.061-.679-.175-.141-.233-.068-.536.163-.682l6.251-3.924-5.233 3.021c-.235.138-.536.06-.678-.174-.141-.232-.07-.535.159-.681l6.265-3.982-2.365 1.365c-.232.137-.529.062-.673-.165s-.082-.526.139-.679l8.776-6.062-3.164 1.826c-.229.135-.527.062-.671-.163-.145-.225-.086-.523.132-.678l3.652-2.582c-.116-.027-.223-.097-.296-.201-.148-.214-.109-.505.091-.671l3.146-2.613s-.003-.005-.004-.007c-.139-.239-.057-.545.183-.683l2.173-1.255c.223-.131.511-.067.66.146.148.214.109.505-.091.671l-.906.753 2.758-1.592c.23-.135.527-.062.671.163.145.225.086.523-.132.678l-2.447 1.73 4.454-2.571c.234-.136.53-.061.673.165.144.227.082.526-.139.679l-8.772 6.06 11.955-6.9c.237-.136.537-.059.678.174s.07.535-.159.681l-6.271 3.986 8.385-4.841c.236-.136.538-.06.679.175.141.233.068.536-.163.682l-6.256 3.927 8.285-4.784c.234-.137.534-.06.677.171.142.231.073.533-.154.681l-15.688 10.186 19.118-11.038c.237-.139.539-.06.68.177.14.235.064.539-.168.682l-3.495 2.144 5.2-3.002c.236-.139.538-.06.68.177.14.235.064.54-.169.683l-4.181 2.557 5.877-3.393c.237-.139.539-.06.68.177.14.235.064.539-.169.683l-6.651 4.069 7.552-4.359c.236-.139.538-.06.68.176.14.235.065.539-.167.683l-12.766 7.883 13.339-7.701c.236-.139.538-.06.68.176.14.235.065.539-.167.683l-13.967 8.627 14.543-8.396c.237-.139.537-.06.679.176.141.234.067.537-.165.682l-17.663 10.981 18.378-10.61c.236-.139.538-.06.679.176.141.233.067.537-.164.682l-19.333 12.033 20.103-11.605c.236-.136.538-.059.679.175s.067.537-.163.682l-22.511 14.093 23.423-13.522c.237-.14.542-.059.681.179.14.236.062.541-.173.683l-.405.244.636-.367c.237-.139.537-.06.679.176.141.234.067.537-.165.682l-22.328 13.881 23.174-13.379c.237-.139.537-.06.679.176.141.233.067.537-.164.682l-24.6 15.332 25.533-14.741c.238-.139.54-.058.681.178.14.236.062.541-.172.683l-9.74 5.897 10.137-5.853c.236-.139.538-.06.68.177.14.235.064.539-.168.682l-18.667 11.448 19.312-11.149c.237-.14.542-.059.681.179.14.236.062.541-.173.683l-5.122 3.085 5.428-3.133c.237-.139.537-.06.679.176.141.234.067.537-.165.682l-24.291 15.093 25.187-14.541c.237-.139.54-.058.681.178.14.236.063.54-.171.683l-11.913 7.229 12.358-7.135c.237-.139.539-.06.68.177.14.234.065.538-.167.682l-21.6 13.328 22.248-12.845c.236-.139.54-.059.68.178.14.235.064.539-.17.682l-14.943 9.109 14.794-8.541c.236-.139.538-.06.68.177.14.235.064.54-.169.683l-16.549 10.125 16.038-9.26c.237-.139.542-.058.681.179.14.236.062.541-.173.683l-1.366.821.858-.495c.237-.14.54-.059.681.179.14.235.062.54-.172.682l-5.417 3.273 4.908-2.834c.237-.139.54-.059.68.178.14.235.064.54-.17.682l-10.099 6.143 9.589-5.536c.237-.137.538-.058.679.175s.067.536-.163.682l-22.913 14.369 22.397-12.931c.237-.136.538-.058.679.175s.067.537-.163.682l-21.191 13.274 20.676-11.937c.237-.139.54-.059.681.179.14.235.062.54-.172.682l-.936.565.427-.246c.236-.139.538-.059.679.175s.067.537-.164.682l-18.216 11.377 17.701-10.22c.236-.138.538-.059.679.176s.067.538-.165.682l-14.688 9.111 14.174-8.183c.237-.137.538-.059.679.175s.067.536-.163.682l-15.971 10.015 15.455-8.923c.235-.136.536-.059.677.173.142.231.072.534-.156.681l-17.392 11.165 16.871-9.74c.236-.139.539-.06.679.176.141.234.066.538-.166.682l-4.958 3.068 4.445-2.566c.236-.139.539-.06.679.176.141.234.066.538-.165.682l-3.409 2.113 2.84-1.64c.236-.137.537-.06.678.175.142.233.069.536-.161.681l-5.774 3.633 3.58-2.066c.234-.137.531-.062.675.169.143.229.077.529-.147.68l-10.11 6.756 4.68-2.701c.234-.134.528-.061.673.165.143.227.082.526-.139.679l-4.874 3.372.291-.167c.229-.134.524-.063.669.159s.091.521-.124.677l-3.163 2.314c.065.042.121.1.162.171.139.239.057.545-.183.683l-5.449 3.146c-.23.136-.522.063-.669-.159-.145-.223-.091-.521.124-.677l1.132-.828-2.884 1.664c-.233.136-.527.062-.673-.165-.143-.227-.082-.526.139-.679l4.873-3.372-7.303 4.216c-.234.135-.532.06-.675-.169s-.077-.529.147-.68l10.11-6.757-13.173 7.605c-.235.138-.536.061-.678-.175-.142-.233-.069-.536.161-.681l5.778-3.636-7.779 4.491c-.237.137-.54.058-.679-.176-.141-.234-.066-.538.165-.682l3.389-2.1-5.123 2.957c-.079.046-.165.067-.25.067z" fill="#e0e0e0"/><path d="m21.352 55.47c-.169 0-.335-.087-.429-.242-.141-.233-.067-.537.163-.682l10.001-6.263-11.601 6.697c-.236.138-.538.061-.679-.175-.141-.233-.068-.536.163-.682l12.716-7.979-13.337 7.7c-.236.139-.535.06-.678-.173-.141-.232-.07-.535.158-.682l18.035-11.518-18.947 10.939c-.237.137-.541.058-.68-.178-.14-.235-.064-.539.169-.682l2.612-1.593-2.888 1.667c-.238.137-.54.059-.68-.177-.14-.234-.065-.538.168-.682l8.571-5.273-8.997 5.194c-.238.137-.538.058-.679-.176s-.067-.537.165-.682l13.865-8.617-14.471 8.354c-.238.138-.54.059-.679-.176-.141-.234-.066-.538.165-.682l13.573-8.405-14.152 8.171c-.238.137-.538.058-.679-.175-.141-.234-.067-.537.164-.682l17.566-10.965-18.305 10.568c-.235.138-.537.061-.679-.175-.141-.233-.068-.536.163-.682l20.665-12.981-21.548 12.439c-.236.139-.538.059-.679-.175s-.068-.536.163-.682l20.285-12.725-21.144 12.207c-.235.138-.537.06-.679-.175-.141-.233-.067-.537.163-.682l19.559-12.237-20.374 11.763c-.238.138-.539.058-.679-.175-.141-.234-.067-.537.164-.682l18.779-11.72-19.553 11.288c-.238.137-.538.058-.679-.176s-.067-.538.165-.682l16.734-10.382-17.254 9.962c-.237.137-.539.058-.679-.176-.141-.234-.067-.537.165-.682l17.299-10.752-16.81 9.704c-.238.138-.541.058-.68-.178-.14-.235-.064-.539.169-.682l7.148-4.36-6.638 3.832c-.235.138-.536.061-.678-.174-.141-.233-.069-.536.16-.682l20.34-12.874-19.822 11.444c-.238.137-.538.058-.679-.176s-.067-.537.165-.682l13.711-8.519-13.197 7.619c-.235.138-.537.059-.679-.175-.141-.233-.067-.537.163-.682l15.412-9.66-14.896 8.601c-.235.138-.535.06-.678-.173-.141-.232-.07-.535.158-.681l18.55-11.851-18.021 10.422c-.238.137-.541.058-.68-.177-.14-.235-.064-.54.169-.683l2.497-1.526-1.986 1.146c-.235.138-.536.06-.678-.174-.141-.233-.069-.536.161-.682l13.941-8.805-13.425 7.75c-.235.138-.537.061-.679-.175-.141-.233-.068-.536.163-.682l9.498-5.96-8.982 5.186c-.235.137-.534.061-.676-.171s-.074-.533.153-.681l13.166-8.571-12.644 7.299c-.235.136-.532.061-.675-.169s-.077-.53.147-.68l11.92-7.933-10.944 6.318c-.236.138-.535.061-.677-.172s-.072-.534.156-.682l4.624-2.976-.65.375c-.229.134-.527.062-.67-.162-.145-.224-.088-.522.129-.677l6.644-4.753-1.206.696c-.219.129-.504.069-.654-.139-.15-.207-.12-.494.069-.665l4.839-4.358c-.117-.234-.033-.522.197-.655l1.521-.878c.222-.13.505-.067.654.139.15.207.12.494-.069.665l-2.941 2.649 5.981-3.453c.228-.136.525-.064.67.162.145.224.088.522-.129.677l-6.646 4.755 9.689-5.594c.234-.136.535-.061.677.172s.072.534-.156.682l-4.614 2.969 6.622-3.822c.233-.137.531-.062.675.169.143.229.077.53-.147.68l-11.923 7.935 15.214-8.783c.236-.136.534-.06.676.171s.074.533-.153.681l-13.165 8.571 16.321-9.423c.237-.137.538-.06.679.175.141.233.068.536-.163.682l-9.495 5.958 11.704-6.757c.237-.137.537-.06.678.174.141.233.069.536-.161.682l-13.936 8.801 14.719-8.497c.236-.138.54-.059.68.177s.064.54-.169.683l-2.519 1.539 2.794-1.612c.236-.136.536-.059.678.173.141.232.07.535-.158.681l-18.547 11.849 19.481-11.247c.237-.136.538-.059.679.175s.067.537-.163.682l-15.415 9.662 16.114-9.304c.237-.139.537-.06.679.176.141.234.067.537-.165.682l-13.707 8.517 14.308-8.261c.237-.137.537-.059.678.174s.069.536-.16.682l-20.333 12.869 21.264-12.276c.236-.138.54-.059.68.178.14.235.064.539-.169.682l-7.193 4.388 7.563-4.366c.236-.139.538-.06.679.176.141.234.067.537-.165.682l-17.276 10.738 17.979-10.38c.236-.139.538-.06.679.176.141.234.067.538-.165.682l-16.746 10.389 17.421-10.058c.237-.139.537-.059.679.175.141.234.067.537-.164.682l-18.779 11.72 19.553-11.288c.236-.136.538-.059.679.175s.067.537-.163.682l-19.559 12.237 20.374-11.763c.238-.136.538-.059.679.175s.068.536-.163.682l-20.289 12.728 21.121-12.194c.237-.137.539-.06.679.175.141.233.068.536-.163.682l-20.658 12.978 20.283-11.71c.237-.139.537-.059.679.175.141.234.067.537-.164.682l-17.569 10.967 17.055-9.847c.237-.139.539-.06.679.176.141.234.066.538-.165.682l-13.572 8.404 13.059-7.539c.237-.139.537-.06.679.176.141.234.067.537-.165.682l-13.87 8.62 13.356-7.711c.237-.139.539-.06.68.177.14.234.065.538-.168.682l-8.566 5.271 8.055-4.65c.237-.138.54-.059.68.178.14.235.064.539-.169.682l-2.591 1.579 2.08-1.2c.236-.137.536-.059.678.173.141.232.07.535-.158.682l-18.04 11.521 17.521-10.115c.236-.136.538-.06.679.175.141.233.068.536-.163.682l-12.716 7.979 12.2-7.043c.236-.136.538-.059.679.175s.067.537-.163.682l-10.007 6.267 9.491-5.479c.236-.137.536-.059.677.173.142.232.071.534-.157.681l-11.865 7.592 11.346-6.55c.236-.137.536-.059.677.173.142.232.071.534-.157.681l-8.808 5.633 8.288-4.785c.235-.137.535-.061.676.171.142.23.074.532-.152.681l-8.92 5.821 6.881-3.972c.236-.137.533-.06.676.17.142.23.075.532-.151.681l-5.31 3.482 1.068-.616c.229-.136.525-.062.671.162.145.225.086.523-.131.678l-4.639 3.297c.207-.079.453-.01.587.182.148.213.109.504-.09.67l-3.745 3.13c.014.018.026.037.037.057.139.239.057.545-.183.683l-2.43 1.402c-.224.131-.512.066-.66-.146s-.109-.504.09-.67l1.813-1.516-4.04 2.332c-.232.135-.526.062-.671-.162-.145-.225-.086-.523.131-.678l4.581-3.256-7.095 4.096c-.235.137-.533.06-.676-.17-.142-.23-.075-.532.151-.681l5.312-3.484-7.509 4.335c-.235.137-.534.06-.676-.171s-.074-.532.152-.681l8.915-5.818-11.554 6.67c-.235.138-.536.06-.677-.173-.142-.232-.071-.534.157-.681l8.807-5.632-11.233 6.485c-.235.138-.535.06-.677-.173s-.071-.534.157-.681l11.865-7.592-14.629 8.445c-.079.046-.165.067-.25.067z" fill="#ea4b4b"/><g fill="#fff"><path d="m29.549 47.47c-.164 0-.324-.081-.419-.228-.146-.223-.09-.521.125-.677l4.778-3.479-7.087 4.091c-.232.137-.529.062-.673-.165-.144-.228-.082-.526.139-.679l5.009-3.455-6.407 3.699c-.235.136-.533.06-.676-.17-.142-.23-.075-.531.15-.68l3.145-2.074-3.889 2.245c-.235.137-.534.06-.676-.171s-.074-.532.152-.681l3.324-2.172-3.839 2.216c-.235.137-.534.061-.677-.172-.142-.231-.072-.533.155-.681l2.827-1.827-3.131 1.807c-.235.136-.534.061-.677-.172-.142-.231-.072-.533.155-.681l3.835-2.482-4.055 2.341c-.235.138-.535.06-.677-.173-.142-.231-.072-.533.156-.681l3.372-2.166-3.562 2.056c-.235.136-.533.06-.676-.17-.142-.23-.075-.532.151-.681l7.229-4.747-7.685 4.437c-.235.138-.537.06-.678-.173s-.07-.535.159-.682l3.553-2.265-3.891 2.246c-.209.121-.475.075-.631-.109s-.159-.454-.006-.641l1.709-2.082-2.592 1.496c-.212.124-.483.073-.638-.117-.155-.191-.148-.466.016-.649l1.795-2.005-2.781 1.605c-.218.129-.502.069-.653-.138-.151-.205-.122-.492.066-.664l1.11-1.015-1.818 1.05c-.214.127-.492.072-.646-.128-.152-.198-.135-.479.042-.657l1.709-1.719-2.463 1.422c-.217.126-.495.07-.648-.131-.152-.201-.131-.483.049-.659l1.309-1.277-1.218.703c-.208.121-.474.075-.63-.108-.157-.183-.16-.452-.009-.639l.875-1.079c-.191-.021-.35-.087-.444-.25-.138-.239-.056-.545.184-.684l1.989-1.147c.207-.12.474-.076.63.109.157.183.16.452.009.639l-.765.943 2.333-1.347c.215-.127.495-.072.648.131.152.201.131.483-.049.659l-1.309 1.276 2.263-1.306c.216-.125.493-.071.646.128.152.198.135.479-.042.657l-1.708 1.718 2.548-1.471c.219-.127.504-.068.653.138.151.205.122.492-.066.664l-1.109 1.014 1.506-.869c.211-.124.481-.074.638.117.155.191.148.466-.016.649l-1.796 2.006 2.262-1.306c.207-.123.474-.076.631.109.156.184.159.454.006.641l-1.709 2.082 21.247-12.267c.237-.137.535-.059.678.173.141.232.07.535-.159.682l-3.548 2.262 3.029-1.749c.235-.138.533-.06.676.17.142.23.075.532-.151.681l-7.237 4.752 6.713-3.875c.235-.137.535-.06.677.173.142.231.072.533-.156.681l-3.362 2.16 2.842-1.641c.235-.138.534-.061.677.172.142.231.072.533-.155.681l-3.844 2.488 3.322-1.918c.235-.137.534-.06.677.172.142.231.072.533-.155.681l-2.816 1.82 2.295-1.324c.235-.137.534-.061.676.171.142.23.074.532-.152.681l-3.327 2.174 2.804-1.618c.233-.137.533-.061.676.17.142.23.075.531-.15.68l-3.149 2.077 2.624-1.515c.234-.134.53-.061.673.165.144.228.082.526-.139.679l-5.012 3.457 4.478-2.585c.228-.135.525-.062.669.16.146.223.09.521-.125.677l-4.778 3.479 4.012-2.315c.227-.134.521-.064.667.156.146.221.095.517-.116.676l-2.838 2.141 1.544-.891c.224-.131.512-.066.66.146s.109.503-.089.67l-1.987 1.662c.092.042.172.111.226.205.139.239.057.545-.183.683l-3.6 2.078c-.224.131-.512.067-.66-.146-.148-.212-.109-.503.089-.67l1.055-.882-3.602 2.079c-.229.132-.521.063-.667-.156-.146-.221-.095-.517.116-.676l2.84-2.143-5.153 2.975c-.078.046-.165.067-.25.067z"/><path d="m37.461 22.615c-.172 0-.341-.09-.433-.25-.139-.239-.057-.545.183-.683l1.863-1.076c.238-.139.545-.058.683.183.139.239.057.545-.183.683l-1.863 1.076c-.079.046-.165.067-.25.067z"/><path d="m32.461 17.615c-.172 0-.341-.09-.433-.25-.139-.239-.057-.545.183-.683l1.863-1.076c.238-.14.545-.058.683.183.139.239.057.545-.183.683l-1.863 1.076c-.079.046-.165.067-.25.067z"/><path d="m22.03 36.011c-.168 0-.332-.085-.426-.238-.142-.23-.074-.532.152-.681l4.542-2.966-4.019 2.319c-.236.136-.534.062-.675-.17-.143-.229-.076-.53.149-.68l5.165-3.415-4.64 2.678c-.23.134-.526.061-.671-.162-.145-.225-.086-.523.131-.678l6.321-4.495-5.781 3.338c-.23.134-.525.062-.67-.161s-.089-.521.128-.677l6.894-4.968-6.352 3.667c-.229.136-.528.062-.672-.165s-.083-.525.137-.679l4.917-3.407-4.382 2.529c-.232.136-.528.062-.672-.165-.144-.226-.084-.525.137-.678l4.354-3.025-3.818 2.204c-.23.135-.525.062-.669-.16-.146-.224-.09-.521.125-.677l2.173-1.576-1.629.939c-.23.134-.525.062-.67-.161s-.089-.521.128-.677l1.898-1.369-1.356.783c-.225.132-.513.065-.661-.148s-.107-.506.095-.671l.362-.297c-.17.014-.343-.057-.45-.204-.15-.206-.121-.493.069-.665l.837-.757-.252.146c-.201.119-.458.078-.617-.093-.158-.172-.177-.431-.045-.623l1.076-1.566c-.225.086-.488 0-.612-.217-.139-.239-.057-.545.183-.683l1.835-1.06c.201-.119.458-.078.617.093.158.172.177.431.045.623l-1.069 1.556 2.426-1.399c.22-.129.503-.068.654.139.15.206.121.493-.069.665l-.836.755.798-.46c.224-.133.513-.065.661.148s.107.506-.095.671l-.142.116 4.63-2.673c.229-.136.524-.062.67.161.145.224.089.521-.128.677l-1.904 1.373 1.362-.786c.229-.135.524-.063.669.16.146.224.09.521-.125.677l-2.17 1.574 5.854-3.379c.232-.136.528-.062.672.165.144.226.084.525-.137.678l-4.358 3.029 4.535-2.618c.235-.136.529-.061.672.165.144.227.083.525-.137.679l-4.91 3.402 4.436-2.561c.229-.135.523-.063.67.161.145.224.089.521-.128.677l-6.894 4.968 6.352-3.667c.229-.135.525-.062.671.162.145.225.086.523-.131.678l-6.322 4.495 9.761-5.635c.233-.137.533-.062.675.17.143.229.076.53-.149.68l-5.166 3.416 5.488-3.168c.234-.137.534-.061.676.171.142.23.074.532-.152.681l-4.539 2.965 4.189-2.419c.239-.14.546-.058.683.183.139.239.057.545-.183.683l-19.939 11.513c-.079.046-.165.067-.25.067z"/><path d="m27.03 18.107c-.15 0-.298-.067-.396-.194-.153-.197-.137-.479.039-.656l2.226-2.26-1.619.935c-.219.13-.503.069-.655-.14-.15-.207-.119-.494.071-.665l.603-.539-.019.01c-.203.12-.465.077-.623-.1s-.17-.44-.028-.631l.945-1.277c-.183.026-.39-.066-.492-.246-.139-.239-.057-.545.183-.683l1.834-1.059c.205-.119.466-.077.623.1.158.177.17.44.028.631l-.886 1.195 2.107-1.216c.221-.128.504-.069.655.14.15.207.119.494-.071.665l-.603.539.643-.37c.215-.126.492-.072.646.127.153.197.137.479-.039.656l-2.225 2.259 1.742-1.006c.238-.14.545-.058.683.183.139.239.057.545-.183.683l-4.939 2.853c-.078.046-.164.067-.25.067z"/></g><path d="m1.31 43.306c4.838 4.853 9.697 9.687 14.538 14.538 2.982 3.111 8.003 1.24 11.867 1.694 4.953-.381 10.285.831 15.035-.601 3.737-3.294 7.092-7.089 10.702-10.55 2.36-2.905 6.949-5.007 6.283-9.312-.838-5.963 2.04-19.295-1.83-23.167-18.67-19.054-12.047-15.302-38.455-15.444-5.883 1.781-10.126 9.416-15.036 13.283-1.584 1.585-4.105 3.338-4.148 5.772-.122 6.896 0 13.804 0 20.701 0 1.172.189 2.188 1.045 3.086zm1.385-26.187c4.736-4.802 9.557-9.521 14.309-14.308 1.321-1.778 3.677-1.214 5.624-1.273 6.444.534 13.546-1.114 19.655.716 4.806 4.55 9.308 9.452 14.064 14.065.871.871 1.831 1.622 1.919 2.966-.83 5.741 2.065 21.522-1.912 24.549-4.515 3.335-11.922 14.748-16.83 14.631-5.489-.76-19.035 1.758-22.506-1.417-4.761-4.762-9.607-9.451-14.289-14.29-1.558-1.611-.994-4.626-.994-6.693v-12.234c0-2.031-.571-5.13.961-6.711z" fill="#262626"/><path d="m4.264 33.696c.235 2.368-.522 5.073.368 7.279 4.555 4.845 9.537 9.364 14.167 14.167 5.941 1.111 12.413.081 18.52.421 1.686.07 3.541.253 4.625-1.302 4.346-4.473 8.951-8.718 13.239-13.238 1.444-5.416.121-11.644.555-17.326-.15-1.693.559-3.802-.809-5.112-4.444-4.445-8.889-8.889-13.333-13.333-1.254-1.254-3.442-.814-5.086-.814-5.18 0-10.359 0-15.539 0-4.839.901-10.935 10.367-15.344 13.731-2.977 2.885-.68 11.26-1.362 15.528zm1.473-13.582c4.153-5.081 9.44-9.566 14.003-14.359 6.428-.51 13.167-.064 19.675-.193 5.176 3.763 9.382 9.322 14.21 13.696 1.637 2.825.287 6.829.64 10.043-.224 3.691.453 7.642-.271 11.211-4.674 4.594-9.267 9.494-14.062 13.926-6.607-.103-13.478.28-20.025-.165-17.386-17.663-14.025-9.314-14.171-34.159z" fill="#262626"/><path d="m13.96 37.324c9.288 6.783 8.52 13.257 23.217 9.256 3.371-1.61 5.501-5.006 5.559-8.723-.839-4.181 3.153-20.346-4.914-16.89.718-3.354-1.689-7.066-5.086-4.878 1.245-7.354-7.355-7.634-6.553-.162-8.202-3.14-3.92 13.342-4.919 17.685-5.416-6.917-14.759-.712-7.303 3.713zm.256-5.706c2.937-.391 5.738 2.242 7.122 4.61 3.16 2.217.36-16.603 1.651-18.729.966-1.801 3.138-.649 3.273 1.048.493 1.402-1.288 13.583 1.46 10.26.608-3.036-1.553-17.158 1.559-17.238 3.804-.631 1.343 14.518 1.986 17.496 2.645 2.663 1.068-7.958 1.463-9.326-.776-2.839 2.933-4.582 3.532-1.191.005 3.327.01 6.637.012 9.966v.681c2.704.534.986-4.095 1.461-5.74.176-2.596 3.397-2.187 3.527.26.003 4.722.008 9.449 0 14.172.167 6.621-6.377 9.478-12.158 8.552-6.492.373-8.379-6.714-13.277-9.508-2.307-.713-4.753-3.944-1.612-5.312z" fill="#262626"/></svg>