<svg width="25" height="27" viewBox="0 0 25 27" fill="none" xmlns="http://www.w3.org/2000/svg">
<path fill-rule="evenodd" clip-rule="evenodd" d="M18.0308 5.3285C17.7911 5.3285 17.5965 5.12078 17.5965 4.86483C17.5965 4.60887 17.7911 4.40104 18.0308 4.40104C18.2705 4.40104 18.465 4.60887 18.465 4.86483C18.465 5.12078 18.2705 5.3285 18.0308 5.3285ZM24.0117 7.31681L22.5735 5.78108C20.1291 3.17096 20.701 3.79601 19.753 2.71654C19.6714 2.62936 19.5611 2.52824 19.446 2.52824H16.8092C16.3298 2.52824 15.9412 3.04853 15.9412 3.56044V6.37552C15.9412 6.49887 15.9868 6.61664 16.068 6.70382C17.7711 8.52195 16.5448 7.21242 20.3271 11.2512C20.6662 11.6133 21.216 11.6133 21.5552 11.2512C23.4411 9.23782 23.0225 9.6844 24.0117 8.62812C24.3509 8.26597 24.3509 7.67895 24.0117 7.31681Z" fill="#939393"/>
<path d="M9.40556 11.4836C12.2691 11.4836 14.5905 8.97546 14.5905 5.88158C14.5905 2.78769 12.2691 0.279594 9.40556 0.279594C6.54202 0.279594 4.22066 2.78769 4.22066 5.88158C4.22066 8.97546 6.54202 11.4836 9.40556 11.4836Z" fill="#939393"/>
<path d="M9.40564 26.8904C14.4168 26.8904 18.4792 24.3823 18.4792 21.2884C18.4792 18.1945 14.4168 15.6864 9.40564 15.6864C4.39444 15.6864 0.332062 18.1945 0.332062 21.2884C0.332062 24.3823 4.39444 26.8904 9.40564 26.8904Z" fill="#939393"/>
</svg>
