<svg width="512" height="512" viewBox="0 0 512 512" fill="none" xmlns="http://www.w3.org/2000/svg">
<path d="M4.68478 262.298C4.68347 261.376 4.98057 260.479 5.53162 259.74C6.08266 259.002 6.85802 258.461 7.74174 258.2C8.62546 257.939 9.57002 257.971 10.4341 258.291C11.2982 258.611 12.0354 259.202 12.5355 259.977L63.2832 338.261L5.88797 238.839C5.32212 237.874 5.15831 236.725 5.43181 235.639C5.70532 234.554 6.39426 233.62 7.35014 233.038C8.30602 232.456 9.45228 232.273 10.5419 232.528C11.6316 232.783 12.5774 233.456 13.1754 234.402L78.1824 335.531L8.81492 215.381C8.26281 214.415 8.10993 213.272 8.38895 212.194C8.66796 211.117 9.35678 210.192 10.3085 209.615C11.2602 209.039 12.3995 208.857 13.4834 209.108C14.5674 209.359 15.5102 210.024 16.1109 210.961L92.4074 330.539L13.5509 193.937C13.0119 192.973 12.8679 191.837 13.1493 190.769C13.4306 189.7 14.1153 188.783 15.0594 188.209C16.0034 187.635 17.1332 187.45 18.211 187.692C19.2889 187.935 20.2307 188.586 20.8384 189.508L108.612 327.629L19.8656 173.901C19.2873 172.928 19.1194 171.765 19.3986 170.668C19.6779 169.571 20.3815 168.629 21.3546 168.051C22.3278 167.473 23.4908 167.305 24.5878 167.584C25.6849 167.863 26.626 168.567 27.2042 169.54L55.9701 216.533L24.4906 162.005C23.9056 161.037 23.7293 159.875 24.0006 158.777C24.2719 157.678 24.9684 156.732 25.9371 156.147C26.9057 155.562 28.0671 155.386 29.1657 155.657C30.2643 155.928 31.2102 156.625 31.7952 157.594L136.192 322.628L33.0496 143.974C32.5035 143.005 32.3577 141.861 32.6431 140.786C32.9285 139.71 33.6225 138.789 34.5774 138.218C35.5322 137.647 36.6723 137.472 37.7546 137.729C38.8369 137.987 39.7758 138.657 40.3712 139.597L111.471 254.797L40.1067 131.226C39.5481 130.257 39.3921 129.108 39.6724 128.025C39.9526 126.942 40.6467 126.013 41.6052 125.437C42.5637 124.861 43.71 124.684 44.7974 124.945C45.8849 125.206 46.8265 125.883 47.4197 126.831L147.465 287.258L49.2885 117.137C49.0033 116.655 48.8159 116.121 48.7371 115.566C48.6582 115.011 48.6894 114.446 48.8289 113.903C48.9683 113.361 49.2133 112.851 49.5499 112.402C49.8865 111.954 50.308 111.577 50.7904 111.292C51.2728 111.007 51.8067 110.819 52.3615 110.74C52.9164 110.661 53.4813 110.693 54.0241 110.832C54.5669 110.971 55.0769 111.217 55.525 111.553C55.9731 111.89 56.3505 112.311 56.6357 112.794L85.4186 160.256L55.552 108.518C55.0358 107.552 54.9112 106.424 55.2039 105.368C55.4965 104.313 56.1841 103.41 57.1241 102.847C58.0641 102.285 59.1845 102.105 60.2532 102.346C61.322 102.587 62.2572 103.229 62.8651 104.141L157.585 257.314L64.9642 96.8874C64.4103 95.9154 64.2604 94.7647 64.5467 93.6831C64.833 92.6016 65.5326 91.6758 66.4949 91.1051C67.4572 90.5345 68.6052 90.3646 69.6916 90.6321C70.7779 90.8997 71.7157 91.5832 72.3029 92.5354L137.25 198.827L73.1819 87.8933C72.6059 86.919 72.4405 85.7558 72.7222 84.6596C73.0038 83.5634 73.7094 82.624 74.6837 82.048C75.658 81.472 76.8212 81.3066 77.9174 81.5883C79.0137 81.87 79.9531 82.5756 80.5291 83.5499L109.696 131.78L80.2133 80.7253C79.634 79.7533 79.4645 78.5909 79.7421 77.4939C80.0198 76.3969 80.7218 75.4551 81.6939 74.8757C82.6659 74.2963 83.8283 74.1268 84.9253 74.4045C86.0223 74.6821 86.9641 75.3842 87.5434 76.3562L171.989 214.016L89.9072 71.8336C89.3794 70.863 89.2486 69.7256 89.5424 68.6606C89.8362 67.5957 90.5316 66.6861 91.4823 66.1234C92.433 65.5607 93.5649 65.3888 94.6399 65.6436C95.7148 65.8985 96.649 66.5605 97.2459 67.4901L132.762 126.199L97.6299 65.3482C97.3441 64.8658 97.1562 64.3318 97.0768 63.7768C96.9974 63.2217 97.0281 62.6565 97.1672 62.1133C97.3062 61.5701 97.5509 61.0596 97.8873 60.611C98.2236 60.1624 98.645 59.7844 99.1275 59.4986C99.6099 59.2129 100.144 59.025 100.699 58.9456C101.254 58.8662 101.819 58.8969 102.362 59.036C103.459 59.3168 104.4 60.0219 104.977 60.9962L163.575 157.423L106.496 58.5386C105.942 57.5666 105.792 56.4159 106.078 55.3343C106.365 54.2528 107.064 53.327 108.027 52.7563C108.989 52.1857 110.137 52.0158 111.223 52.2833C112.31 52.5509 113.247 53.2344 113.835 54.1866L192.973 183.663L116.668 51.4901C116.152 50.5238 116.027 49.3959 116.32 48.3402C116.612 47.2845 117.3 46.3818 118.24 45.8191C119.18 45.2564 120.3 45.0769 121.369 45.3176C122.438 45.5584 123.373 46.2011 123.981 47.1125L248.252 246.844L130.56 43.008C130.032 42.0374 129.901 40.9 130.195 39.835C130.489 38.7701 131.184 37.8605 132.135 37.2978C133.086 36.7351 134.218 36.5632 135.293 36.818C136.368 37.0729 137.302 37.7349 137.899 38.6645L172.954 96.6912L139.264 38.2976C138.688 37.3233 138.523 36.1601 138.804 35.0639C139.086 33.9677 139.792 33.0282 140.766 32.4522C141.74 31.8763 142.903 31.7109 144 31.9926C145.096 32.2742 146.035 32.9798 146.611 33.9541L175.437 81.7408L147.917 34.0394C147.363 33.0674 147.213 31.9167 147.499 30.8351C147.786 29.7536 148.485 28.8278 149.447 28.2571C150.41 27.6865 151.558 27.5166 152.644 27.7841C153.73 28.0517 154.668 28.7352 155.255 29.6874L205.363 112.316L157.687 29.713C157.179 28.7483 157.059 27.6254 157.352 26.5749C157.645 25.5244 158.33 24.6262 159.265 24.0647C160.2 23.5032 161.315 23.3212 162.38 23.5559C163.445 23.7907 164.38 24.4244 164.992 25.3269L292.83 230.033L173.739 23.7482C173.214 22.7802 173.083 21.6467 173.375 20.5848C173.667 19.5229 174.357 18.6148 175.303 18.0505C176.249 17.4862 177.376 17.3094 178.449 17.557C179.522 17.8047 180.458 18.4576 181.06 19.3792L287.932 192L188.245 19.3536C187.718 18.383 187.587 17.2456 187.881 16.1806C188.174 15.1157 188.87 14.2061 189.82 13.6434C190.771 13.0807 191.903 12.9088 192.978 13.1636C194.053 13.4185 194.987 14.0805 195.584 15.0101L230.571 72.7296L198.315 16.9045C197.787 15.934 197.656 14.7966 197.95 13.7316C198.244 12.6666 198.939 11.7571 199.89 11.1944C200.84 10.6317 201.972 10.4597 203.047 10.7146C204.122 10.9695 205.056 11.6314 205.653 12.561L259.746 101.385L209.681 14.6602C209.097 13.6905 208.922 12.5285 209.195 11.4299C209.468 10.3312 210.166 9.38601 211.136 8.80211C212.106 8.21821 213.268 8.04347 214.366 8.31632C215.465 8.58917 216.41 9.28727 216.994 10.257L337.545 202.308L227.746 12.1429C227.166 11.1709 226.995 10.008 227.272 8.91024C227.549 7.81242 228.25 6.86955 229.222 6.28905C230.194 5.70854 231.357 5.53795 232.455 5.81481C233.553 6.09166 234.496 6.79328 235.076 7.76531L315.87 138.675L242.261 11.1786C241.764 10.2125 241.655 9.09324 241.954 8.04901C242.254 7.00478 242.941 6.11429 243.875 5.55917C244.809 5.00404 245.92 4.8261 246.98 5.06163C248.041 5.29715 248.972 5.92841 249.583 6.82665L317.372 116.907L256.23 11.008C255.652 10.0348 255.484 8.8718 255.763 7.77479C256.043 6.67777 256.746 5.73662 257.719 5.15838C258.693 4.58014 259.856 4.41217 260.953 4.69142C262.05 4.97068 262.991 5.67428 263.569 6.64745L310.955 83.9936L269.141 11.5541C268.555 10.5855 268.378 9.42365 268.648 8.32424C268.919 7.22483 269.615 6.27788 270.583 5.69172C271.552 5.10555 272.714 4.92819 273.813 5.19864C274.913 5.46909 275.86 6.16521 276.446 7.13385L377.933 167.467L289.186 13.696C288.683 12.7283 288.569 11.6044 288.868 10.5555C289.168 9.50648 289.858 8.61203 290.796 8.05592C291.735 7.49982 292.85 7.32431 293.914 7.56546C294.978 7.80661 295.909 8.4461 296.516 9.35252L305.664 24.3883L300.655 15.7099C300.367 15.2291 300.176 14.6963 300.094 14.142C300.012 13.5876 300.04 13.0225 300.176 12.4789C300.313 11.9354 300.555 11.4239 300.889 10.9739C301.223 10.5238 301.642 10.144 302.123 9.85598C302.603 9.56799 303.136 9.3775 303.691 9.2954C304.245 9.21329 304.81 9.24118 305.354 9.37748C305.897 9.51377 306.409 9.75579 306.859 10.0897C307.309 10.4237 307.689 10.843 307.977 11.3237L359.799 94.72L316.279 19.328C315.698 18.3571 315.526 17.1949 315.801 16.0971C316.076 14.9993 316.776 14.0558 317.747 13.4741C318.718 12.8925 319.88 12.7204 320.978 12.9956C322.076 13.2709 323.019 13.9709 323.601 14.9419L359.74 73.2075L331.238 23.8421C330.651 22.8746 330.472 21.7134 330.741 20.614C331.01 19.5146 331.704 18.567 332.672 17.9797C333.64 17.3924 334.801 17.2135 335.9 17.4824C337 17.7512 337.947 18.4458 338.534 19.4133L401.51 118.144L351.633 31.7525C351.057 30.7901 350.883 29.6393 351.148 28.5494C351.414 27.4595 352.099 26.5182 353.053 25.9292C354.008 25.3402 355.156 25.1509 356.25 25.4023C357.343 25.6537 358.293 26.3256 358.895 27.2725L424.858 127.804L376.832 44.6123C376.275 43.6517 376.115 42.5118 376.384 41.4347C376.654 40.3577 377.334 39.4283 378.278 38.844C379.222 38.2597 380.357 38.0665 381.441 38.3054C382.526 38.5444 383.474 39.1967 384.085 40.1237L426.505 104.363L401.502 61.0389C400.98 60.0778 400.847 58.9531 401.131 57.897C401.415 56.8409 402.093 55.934 403.026 55.3635C403.959 54.793 405.075 54.6025 406.144 54.8313C407.214 55.0601 408.154 55.6908 408.772 56.5931L420.497 74.6837C420.639 73.8461 421.027 73.0697 421.612 72.4542C422.198 71.8386 422.954 71.4118 423.783 71.2285C424.613 71.0452 425.478 71.1137 426.269 71.4252C427.059 71.7367 427.738 72.2771 428.22 72.9771L448.879 102.844C449.188 102.482 449.558 102.176 449.971 101.939C450.95 101.373 452.114 101.218 453.207 101.509C454.3 101.801 455.232 102.514 455.799 103.492L488.277 159.676C488.832 160.63 488.996 161.761 488.735 162.833C488.473 163.906 487.806 164.835 486.874 165.425C485.942 166.016 484.817 166.223 483.736 166.002C482.655 165.781 481.701 165.15 481.075 164.241L480.222 163.021L500.514 198.178C501.036 199.139 501.169 200.264 500.885 201.32C500.601 202.376 499.923 203.283 498.99 203.854C498.057 204.424 496.941 204.615 495.872 204.386C494.802 204.157 493.862 203.526 493.244 202.624L491.793 200.38L504.934 223.138C505.491 224.099 505.652 225.239 505.382 226.316C505.112 227.393 504.433 228.322 503.488 228.906C502.544 229.491 501.409 229.684 500.325 229.445C499.241 229.206 498.292 228.554 497.681 227.627L455.27 163.396L506.88 252.791C507.402 253.75 507.536 254.873 507.256 255.928C506.975 256.983 506.301 257.89 505.371 258.463C504.442 259.036 503.329 259.231 502.26 259.007C501.191 258.784 500.249 258.16 499.627 257.263L433.664 156.774L505.378 280.977C505.93 281.943 506.083 283.087 505.804 284.164C505.525 285.241 504.836 286.167 503.885 286.743C502.933 287.32 501.794 287.502 500.71 287.25C499.626 286.999 498.683 286.334 498.082 285.397L435.089 186.65L502.042 302.618C502.574 303.585 502.711 304.721 502.424 305.788C502.136 306.854 501.446 307.767 500.499 308.335C499.552 308.903 498.421 309.082 497.345 308.833C496.269 308.585 495.331 307.929 494.729 307.004L458.556 248.704L498.5 317.884C499.033 318.851 499.17 319.987 498.882 321.054C498.595 322.12 497.905 323.033 496.957 323.601C496.01 324.169 494.88 324.348 493.804 324.1C492.728 323.851 491.79 323.195 491.187 322.27L439.356 238.874L493.833 333.244C494.35 334.212 494.474 335.344 494.179 336.402C493.884 337.46 493.192 338.363 492.248 338.924C491.303 339.484 490.179 339.659 489.109 339.412C488.039 339.165 487.105 338.514 486.502 337.596L477.218 322.355L489.813 344.192C490.365 345.158 490.518 346.302 490.239 347.379C489.96 348.456 489.271 349.382 488.32 349.958C487.368 350.535 486.229 350.717 485.145 350.465C484.061 350.214 483.118 349.549 482.517 348.612L381.09 188.407L481.698 362.667C482.234 363.637 482.372 364.777 482.082 365.847C481.793 366.916 481.098 367.831 480.145 368.398C479.193 368.965 478.057 369.138 476.979 368.883C475.901 368.627 474.964 367.961 474.368 367.027L426.854 289.476L475.699 374.084C476.224 375.052 476.354 376.186 476.063 377.248C475.771 378.31 475.08 379.218 474.135 379.782C473.189 380.346 472.062 380.523 470.989 380.276C469.916 380.028 468.98 379.375 468.378 378.453L400.572 268.322L468.54 386.082C469.086 387.051 469.232 388.196 468.946 389.271C468.661 390.346 467.967 391.267 467.012 391.838C466.057 392.409 464.917 392.585 463.835 392.327C462.752 392.07 461.813 391.4 461.218 390.46L380.416 259.507L460.416 398.08C460.958 399.047 461.102 400.186 460.818 401.258C460.535 402.329 459.846 403.248 458.896 403.82C457.947 404.392 456.813 404.572 455.733 404.323C454.654 404.073 453.713 403.414 453.111 402.483L332.587 210.483L449.237 412.518C449.791 413.49 449.941 414.641 449.655 415.723C449.369 416.804 448.669 417.73 447.707 418.301C446.744 418.871 445.596 419.041 444.51 418.774C443.424 418.506 442.486 417.823 441.899 416.87L387.738 327.953L441.591 421.222C442.119 422.193 442.25 423.33 441.956 424.395C441.662 425.46 440.967 426.37 440.016 426.933C439.066 427.495 437.934 427.667 436.859 427.412C435.784 427.157 434.85 426.496 434.253 425.566L399.36 367.983L434.423 428.723C434.94 429.69 435.064 430.817 434.772 431.873C434.479 432.929 433.791 433.832 432.851 434.394C431.911 434.957 430.791 435.136 429.722 434.896C428.653 434.655 427.718 434.012 427.11 433.101L320.239 260.446L423.364 439.057C423.887 440.023 424.018 441.153 423.729 442.212C423.44 443.272 422.753 444.179 421.812 444.745C420.871 445.312 419.748 445.493 418.677 445.252C417.605 445.011 416.668 444.366 416.06 443.452L288.179 238.652L410.146 449.954C410.7 450.926 410.85 452.077 410.564 453.158C410.277 454.24 409.578 455.166 408.615 455.736C407.653 456.307 406.505 456.477 405.419 456.209C404.332 455.942 403.395 455.258 402.807 454.306L352.845 371.917L401.545 456.277C402.12 457.252 402.286 458.415 402.004 459.511C401.723 460.607 401.017 461.547 400.043 462.123C399.068 462.699 397.905 462.864 396.809 462.582C395.713 462.301 394.773 461.595 394.197 460.621L365.389 412.894L393.549 461.662C394.06 462.631 394.178 463.76 393.88 464.815C393.581 465.869 392.888 466.768 391.945 467.325C391.001 467.883 389.879 468.056 388.812 467.808C387.744 467.561 386.812 466.912 386.21 465.997L351.223 408.098L385.152 466.867C385.734 467.838 385.906 469 385.63 470.098C385.355 471.196 384.655 472.139 383.684 472.721C382.713 473.303 381.551 473.475 380.453 473.2C379.356 472.924 378.412 472.224 377.83 471.253L253.517 271.462L370.833 474.667C371.369 475.637 371.507 476.777 371.217 477.847C370.928 478.916 370.233 479.831 369.28 480.398C368.328 480.965 367.192 481.138 366.114 480.883C365.036 480.627 364.099 479.961 363.503 479.027L284.442 349.687L359.654 479.957C360.208 480.929 360.358 482.08 360.072 483.162C359.786 484.243 359.086 485.169 358.124 485.74C357.161 486.31 356.013 486.48 354.927 486.213C353.841 485.945 352.903 485.262 352.316 484.309L293.632 387.772L349.329 484.25C349.857 485.22 349.988 486.358 349.694 487.423C349.4 488.488 348.705 489.397 347.754 489.96C346.803 490.522 345.671 490.694 344.596 490.44C343.521 490.185 342.587 489.523 341.99 488.593L306.415 429.773L339.857 487.706C340.382 488.674 340.512 489.807 340.221 490.869C339.929 491.931 339.238 492.839 338.293 493.403C337.347 493.968 336.22 494.144 335.147 493.897C334.074 493.649 333.138 492.996 332.535 492.075L248.201 354.586L327.322 491.631C327.849 492.601 327.98 493.739 327.686 494.804C327.393 495.869 326.697 496.778 325.746 497.341C324.796 497.904 323.664 498.076 322.589 497.821C321.514 497.566 320.58 496.904 319.983 495.974L290.662 447.505L317.619 494.182C318.197 495.156 318.365 496.319 318.086 497.416C317.807 498.513 317.103 499.454 316.13 500.032C315.157 500.61 313.994 500.778 312.897 500.499C311.8 500.22 310.859 499.516 310.281 498.543L245.385 392.277L305.69 496.734C306.206 497.7 306.33 498.828 306.038 499.884C305.745 500.94 305.057 501.842 304.117 502.405C303.177 502.968 302.057 503.147 300.988 502.906C299.92 502.666 298.984 502.023 298.376 501.111L203.571 347.853L290.867 499.046C291.395 500.017 291.526 501.154 291.232 502.219C290.938 503.284 290.243 504.194 289.292 504.757C288.341 505.319 287.209 505.491 286.134 505.236C285.06 504.981 284.125 504.32 283.528 503.39L254.763 455.97L280.277 500.156C280.836 501.124 280.992 502.274 280.712 503.356C280.431 504.439 279.737 505.368 278.779 505.944C277.82 506.52 276.674 506.697 275.587 506.436C274.499 506.176 273.557 505.498 272.964 504.55L172.928 344.124L263.475 500.966C264.021 501.936 264.167 503.08 263.882 504.155C263.596 505.23 262.902 506.152 261.947 506.723C260.992 507.294 259.852 507.469 258.77 507.211C257.688 506.954 256.749 506.284 256.154 505.344L185.114 390.298L248.934 500.83C249.521 501.799 249.698 502.96 249.427 504.06C249.157 505.159 248.461 506.106 247.492 506.692C246.524 507.278 245.362 507.456 244.262 507.185C243.163 506.915 242.216 506.219 241.63 505.25L137.199 340.181L228.975 499.14C229.511 500.11 229.649 501.251 229.359 502.32C229.069 503.39 228.375 504.305 227.422 504.872C226.47 505.438 225.334 505.612 224.256 505.356C223.178 505.1 222.241 504.435 221.645 503.501L192.853 456.533L216.363 497.254C216.902 498.219 217.046 499.354 216.764 500.423C216.483 501.491 215.798 502.409 214.854 502.982C213.91 503.556 212.78 503.741 211.703 503.499C210.625 503.257 209.683 502.606 209.075 501.683L121.233 363.443L195.857 492.706C196.396 493.67 196.54 494.806 196.259 495.875C195.977 496.943 195.293 497.86 194.349 498.434C193.405 499.008 192.275 499.193 191.197 498.951C190.119 498.708 189.177 498.058 188.57 497.135L112.307 377.591L174.985 486.153C175.55 487.118 175.714 488.267 175.441 489.353C175.167 490.438 174.478 491.372 173.522 491.954C172.566 492.536 171.42 492.719 170.331 492.464C169.241 492.209 168.295 491.536 167.697 490.59L102.733 389.513L153.259 477.013C153.85 477.979 154.035 479.139 153.771 480.24C153.506 481.341 152.816 482.292 151.851 482.884C150.885 483.476 149.725 483.66 148.624 483.396C147.523 483.132 146.572 482.442 145.98 481.476L95.2149 403.166L130.807 464.828C131.362 465.782 131.526 466.913 131.265 467.985C131.003 469.058 130.336 469.987 129.404 470.577C128.472 471.168 127.347 471.375 126.266 471.154C125.185 470.933 124.231 470.302 123.605 469.393L68.1386 389.521L97.4421 440.32C97.9874 441.277 98.1416 442.407 97.8725 443.475C97.6035 444.543 96.9319 445.465 95.9984 446.05C95.0649 446.634 93.9417 446.834 92.8637 446.609C91.7857 446.384 90.8364 445.751 90.2144 444.843L72.4138 418.611C72.1112 419.348 71.6083 419.986 70.962 420.452C70.3157 420.917 69.552 421.193 68.7571 421.247C67.9623 421.301 67.1681 421.132 66.4646 420.758C65.7611 420.384 65.1763 419.821 64.7765 419.132L18.9525 339.772C18.4292 338.817 18.2906 337.699 18.565 336.645C18.8394 335.592 19.5062 334.683 20.4287 334.105C21.3513 333.527 22.4598 333.324 23.5274 333.536C24.5951 333.749 25.5411 334.362 26.1717 335.249L31.1808 342.63L9.64265 305.271C9.09527 304.319 8.93615 303.193 9.19841 302.126C9.46067 301.06 10.1241 300.135 11.0506 299.546C11.9795 298.954 13.1012 298.744 14.1811 298.96C15.261 299.177 16.2155 299.802 16.8448 300.706L72.3114 380.595L5.25652 264.431C4.87973 263.783 4.68237 263.047 4.68478 262.298Z" fill="#6495ED"/>
<path d="M200.951 252.732C200.951 251.854 201.222 250.997 201.727 250.279C202.232 249.561 202.945 249.016 203.771 248.718C204.597 248.42 205.495 248.385 206.342 248.616C207.188 248.847 207.943 249.334 208.503 250.01L221.21 265.293L205.483 238.08C204.954 237.137 204.803 236.028 205.061 234.978C205.318 233.928 205.965 233.015 206.87 232.423C207.775 231.831 208.87 231.605 209.936 231.79C211.001 231.976 211.956 232.558 212.608 233.421L219.665 242.987L211.132 228.224C210.604 227.287 210.45 226.186 210.7 225.14C210.95 224.094 211.585 223.181 212.479 222.584C213.373 221.987 214.46 221.749 215.521 221.918C216.583 222.087 217.542 222.651 218.206 223.496L238.532 249.899L220.407 218.453C219.877 217.525 219.715 216.432 219.952 215.39C220.189 214.348 220.809 213.433 221.689 212.826C222.568 212.219 223.644 211.964 224.702 212.112C225.761 212.259 226.725 212.799 227.405 213.623L257.86 251.085L234.428 210.492C233.882 209.547 233.719 208.429 233.972 207.367C234.225 206.306 234.875 205.382 235.789 204.785C236.703 204.188 237.81 203.964 238.884 204.159C239.958 204.354 240.916 204.953 241.562 205.832L253.303 221.867L245.163 207.787C244.6 206.852 244.417 205.737 244.651 204.671C244.885 203.605 245.518 202.67 246.421 202.057C247.324 201.444 248.427 201.2 249.504 201.375C250.581 201.551 251.55 202.132 252.211 202.999L270.455 226.039L259.942 207.812C259.441 206.931 259.27 205.899 259.461 204.903C259.651 203.907 260.19 203.011 260.981 202.376C261.772 201.741 262.763 201.409 263.777 201.439C264.791 201.468 265.761 201.858 266.513 202.539L287.846 222.165L287.3 221.201C286.992 220.715 286.784 220.172 286.691 219.605C286.597 219.037 286.62 218.456 286.757 217.897C286.894 217.338 287.142 216.813 287.488 216.352C287.833 215.892 288.268 215.506 288.766 215.218C289.264 214.93 289.815 214.746 290.386 214.677C290.958 214.607 291.537 214.654 292.09 214.814C292.642 214.975 293.157 215.245 293.602 215.609C294.048 215.974 294.415 216.424 294.682 216.934L309.188 241.98C309.695 242.862 309.87 243.895 309.682 244.895C309.494 245.895 308.955 246.794 308.163 247.432C307.37 248.069 306.375 248.402 305.359 248.371C304.342 248.34 303.37 247.946 302.618 247.262L281.225 227.635L307.089 272.444C307.63 273.376 307.797 274.479 307.558 275.53C307.319 276.581 306.691 277.503 305.801 278.11C304.912 278.721 303.824 278.973 302.757 278.815C301.69 278.656 300.722 278.1 300.049 277.257L281.822 254.217L299.742 285.295C300.288 286.24 300.451 287.358 300.198 288.419C299.944 289.481 299.294 290.405 298.38 291.001C297.467 291.598 296.359 291.822 295.286 291.627C294.212 291.433 293.254 290.834 292.608 289.954L280.875 273.92L292.045 293.257C292.588 294.186 292.759 295.286 292.525 296.337C292.291 297.387 291.668 298.31 290.782 298.921C289.896 299.532 288.812 299.786 287.747 299.631C286.682 299.476 285.714 298.924 285.039 298.086L254.583 260.617L278.11 301.372C278.637 302.309 278.791 303.41 278.541 304.456C278.292 305.502 277.656 306.414 276.762 307.012C275.868 307.609 274.782 307.847 273.72 307.678C272.658 307.509 271.7 306.945 271.036 306.099L250.692 279.646L265.062 304.538C265.591 305.481 265.742 306.589 265.484 307.639C265.227 308.69 264.58 309.603 263.675 310.194C262.77 310.786 261.675 311.012 260.61 310.827C259.544 310.642 258.589 310.059 257.937 309.197L250.923 299.708L253.653 304.427C254.188 305.353 254.355 306.446 254.122 307.489C253.888 308.533 253.272 309.451 252.394 310.062C251.516 310.672 250.441 310.931 249.382 310.787C248.322 310.642 247.356 310.105 246.673 309.282L233.975 294.007L237.15 299.511C237.66 300.487 237.774 301.621 237.467 302.678C237.16 303.735 236.457 304.632 235.504 305.183C234.552 305.734 233.423 305.895 232.354 305.633C231.285 305.371 230.359 304.707 229.769 303.778L201.523 254.874C201.143 254.224 200.945 253.484 200.951 252.732Z" fill="white"/>
<path d="M201.566 110.976C201.566 110.14 201.811 109.322 202.272 108.624C202.733 107.926 203.389 107.379 204.158 107.051C204.927 106.723 205.776 106.628 206.598 106.778C207.421 106.928 208.181 107.317 208.785 107.895L231.177 129.229L205.397 84.6336C204.849 83.6907 204.682 82.5735 204.932 81.5116C205.181 80.4497 205.828 79.5237 206.739 78.9239C207.65 78.3241 208.757 78.0961 209.831 78.2867C210.905 78.4773 211.865 79.0721 212.514 79.9488L221.295 91.7333L211.294 74.4192C210.746 73.4689 210.585 72.344 210.845 71.2782C211.104 70.2124 211.764 69.2875 212.688 68.6956C213.611 68.1037 214.727 67.8903 215.804 68.0996C216.881 68.3089 217.836 68.9249 218.47 69.8197L221.372 73.9242L217.574 67.3365C217.047 66.3965 216.895 65.2916 217.148 64.244C217.402 63.1963 218.043 62.2835 218.942 61.6891C219.842 61.0946 220.932 60.8626 221.996 61.0396C223.059 61.2166 224.016 61.7895 224.674 62.6432L242.935 86.9546L227.43 60.1002C226.892 59.169 226.725 58.0686 226.963 57.0195C227.201 55.9703 227.827 55.0499 228.715 54.4425C229.603 53.8351 230.687 53.5855 231.751 53.7438C232.816 53.902 233.781 54.4564 234.453 55.296L262.263 89.984L241.877 54.6645C241.353 53.7317 241.198 52.6357 241.443 51.594C241.689 50.5523 242.317 49.6409 243.203 49.0405C244.089 48.4402 245.168 48.1947 246.227 48.3529C247.285 48.511 248.245 49.0612 248.917 49.8944L268.501 74.7776L256.384 53.76C255.848 52.8175 255.691 51.7065 255.945 50.6526C256.199 49.5986 256.844 48.6808 257.75 48.0855C258.656 47.4902 259.755 47.2621 260.823 47.4475C261.891 47.6329 262.848 48.2179 263.501 49.0837L267.332 54.2037C267.277 53.4798 267.404 52.7535 267.702 52.0915C268 51.4295 268.46 50.853 269.039 50.4149C269.884 49.7915 270.929 49.5017 271.975 49.6009C273.02 49.7001 273.992 50.1813 274.705 50.9525L286.942 64.1621C287.189 63.3696 287.662 62.6664 288.303 62.1387C288.944 61.611 289.724 61.2817 290.55 61.1911C291.375 61.1006 292.208 61.2527 292.948 61.6288C293.688 62.0049 294.303 62.5888 294.716 63.3088L309.222 88.3541C309.75 89.263 309.924 90.3346 309.71 91.3637C309.497 92.3928 308.911 93.3069 308.065 93.9307C307.219 94.5545 306.173 94.8442 305.127 94.7442C304.081 94.6442 303.108 94.1615 302.396 93.3888L294.315 84.6677L309.504 110.976C310.04 111.918 310.197 113.029 309.943 114.083C309.689 115.137 309.044 116.055 308.138 116.65C307.232 117.246 306.133 117.474 305.065 117.288C303.997 117.103 303.04 116.518 302.387 115.652L300.681 113.297L305.732 122.069C306.257 123.002 306.412 124.098 306.166 125.14C305.921 126.182 305.293 127.093 304.407 127.693C303.521 128.294 302.442 128.539 301.383 128.381C300.325 128.223 299.364 127.673 298.692 126.839L279.04 101.999L297.617 134.187C298.134 135.116 298.285 136.205 298.041 137.24C297.796 138.276 297.174 139.182 296.296 139.782C295.418 140.383 294.348 140.633 293.294 140.485C292.241 140.337 291.281 139.801 290.603 138.982L262.827 104.286L285.747 144C286.275 144.94 286.427 146.045 286.173 147.093C285.919 148.14 285.279 149.053 284.379 149.647C283.48 150.242 282.389 150.474 281.326 150.297C280.263 150.12 279.306 149.547 278.647 148.693L260.403 124.39L274.603 148.992C275.151 149.942 275.312 151.067 275.052 152.133C274.792 153.199 274.132 154.124 273.209 154.716C272.285 155.307 271.169 155.521 270.092 155.312C269.016 155.102 268.061 154.486 267.426 153.591L264.516 149.495L265.327 150.895C265.863 151.837 266.02 152.948 265.766 154.002C265.512 155.056 264.867 155.974 263.961 156.569C263.055 157.165 261.956 157.393 260.888 157.207C259.82 157.022 258.862 156.437 258.21 155.571L249.438 143.778L253.474 150.792C253.982 151.681 254.153 152.723 253.957 153.727C253.76 154.732 253.209 155.632 252.404 156.264C251.6 156.896 250.594 157.218 249.572 157.171C248.55 157.123 247.578 156.71 246.835 156.006L224.427 134.622L227.26 139.546C227.77 140.521 227.883 141.655 227.577 142.712C227.27 143.769 226.567 144.666 225.614 145.217C224.662 145.768 223.533 145.929 222.464 145.667C221.395 145.406 220.469 144.741 219.878 143.812L202.146 113.092C201.771 112.449 201.571 111.72 201.566 110.976Z" fill="white"/>
<path d="M202.24 421.478C202.238 420.633 202.488 419.807 202.957 419.104C203.425 418.401 204.092 417.853 204.873 417.529C205.653 417.206 206.512 417.121 207.341 417.286C208.17 417.452 208.931 417.859 209.527 418.458L224.085 433.041L203.469 397.329C202.944 396.387 202.796 395.281 203.053 394.235C203.311 393.188 203.955 392.277 204.856 391.686C205.758 391.094 206.85 390.866 207.913 391.047C208.976 391.228 209.931 391.805 210.586 392.661L214.81 398.353L208.034 386.611C207.495 385.671 207.335 384.56 207.585 383.506C207.835 382.451 208.477 381.531 209.38 380.933C210.284 380.334 211.382 380.102 212.45 380.284C213.519 380.465 214.478 381.046 215.134 381.909L229.094 400.469L215.381 376.713C214.834 375.785 214.658 374.685 214.888 373.633C215.118 372.581 215.737 371.655 216.621 371.04C217.506 370.426 218.59 370.168 219.656 370.32C220.722 370.471 221.692 371.021 222.37 371.857L254.208 410.453L228.872 366.566C228.325 365.616 228.164 364.491 228.423 363.425C228.683 362.36 229.343 361.435 230.266 360.843C231.19 360.251 232.306 360.037 233.383 360.247C234.46 360.456 235.414 361.072 236.049 361.967L240.657 368.495L237.508 363.025C236.985 362.1 236.826 361.013 237.062 359.977C237.298 358.942 237.912 358.031 238.784 357.424C239.656 356.816 240.723 356.556 241.776 356.694C242.83 356.832 243.794 357.358 244.48 358.17L272.128 391.535L254.455 360.934C253.917 359.997 253.755 358.89 254.001 357.838C254.248 356.786 254.884 355.866 255.782 355.265C256.68 354.664 257.773 354.426 258.84 354.599C259.907 354.772 260.868 355.344 261.53 356.198L269.551 366.635L267.537 363.145C267.001 362.236 266.821 361.16 267.032 360.126C267.243 359.093 267.829 358.173 268.678 357.546C269.526 356.919 270.577 356.629 271.627 356.732C272.677 356.834 273.652 357.322 274.364 358.101L286.942 371.584C287.164 370.773 287.622 370.045 288.257 369.493C288.892 368.941 289.676 368.589 290.511 368.481C291.345 368.374 292.193 368.515 292.947 368.888C293.701 369.261 294.329 369.849 294.75 370.577L309.256 395.622C309.792 396.531 309.972 397.607 309.761 398.641C309.551 399.674 308.965 400.594 308.116 401.22C307.267 401.847 306.216 402.138 305.166 402.035C304.116 401.933 303.141 401.445 302.43 400.666L293.683 391.279L309.436 418.586C309.974 419.523 310.136 420.63 309.89 421.682C309.643 422.734 309.007 423.654 308.109 424.255C307.211 424.856 306.118 425.094 305.051 424.921C303.984 424.748 303.023 424.176 302.362 423.322L294.34 412.877L304.862 431.104C305.396 432.03 305.563 433.123 305.33 434.167C305.097 435.21 304.48 436.128 303.603 436.739C302.725 437.349 301.65 437.608 300.59 437.464C299.531 437.32 298.564 436.783 297.882 435.959L270.234 402.577L294.477 444.587C295.025 445.537 295.186 446.662 294.926 447.728C294.666 448.793 294.006 449.718 293.083 450.31C292.159 450.902 291.043 451.116 289.966 450.906C288.89 450.697 287.935 450.081 287.3 449.186L282.743 442.726L287.112 450.313C287.647 451.239 287.814 452.332 287.581 453.375C287.348 454.419 286.731 455.337 285.853 455.947C284.975 456.558 283.9 456.817 282.841 456.672C281.781 456.528 280.815 455.991 280.132 455.168L248.277 416.597L271.556 456.934C272.095 457.875 272.256 458.985 272.006 460.04C271.756 461.094 271.114 462.014 270.21 462.613C269.306 463.211 268.209 463.443 267.14 463.262C266.072 463.081 265.112 462.499 264.456 461.636L250.496 443.085L259.319 458.359C259.855 459.302 260.012 460.413 259.758 461.467C259.505 462.521 258.859 463.439 257.953 464.034C257.047 464.629 255.949 464.857 254.881 464.672C253.812 464.487 252.855 463.902 252.203 463.036L247.936 457.25C248.358 458.16 248.445 459.19 248.184 460.158C247.922 461.126 247.327 461.971 246.504 462.545C245.681 463.118 244.682 463.384 243.683 463.294C242.684 463.204 241.749 462.765 241.041 462.054L225.229 446.293C225.282 447.251 225.01 448.198 224.459 448.983C223.907 449.767 223.107 450.343 222.188 450.617C221.269 450.891 220.285 450.848 219.393 450.494C218.502 450.14 217.756 449.496 217.276 448.666L202.769 423.629C202.404 422.972 202.221 422.23 202.24 421.478Z" fill="white"/>
<path d="M493.303 342.656C606.131 -72.9174 -42.9397 -124.117 9.09652 305.579C54.1184 552.158 412.006 580.727 493.303 342.656ZM27.6992 339.823C-83.3536 -56.4992 544.981 -106.035 493.995 303.727C449.05 537.421 107.725 564.429 27.6992 339.823Z" fill="#262626"/>
<path d="M308.224 276.71C336.171 185.404 187.861 169.114 201.685 266.18C209.741 320.853 290.748 330.436 308.224 276.71ZM211.627 271.863C188.587 201.037 314.027 188.834 302.08 263.543C293.965 307.396 226.987 314.334 211.627 271.863Z" fill="#262626"/>
<path d="M307.866 121.873C332.194 30.3957 186.769 16.8277 203.273 113.587C211.925 167.808 292.642 176.358 307.866 121.873ZM209.852 117.325C189.5 45.8069 317.943 36.2581 302.566 111.249C292.173 154.641 224.845 160.23 209.852 117.325Z" fill="#262626"/>
<path d="M308.54 430.225C336.7 338.56 187.631 322.935 201.242 419.9C209.425 474.743 290.987 483.883 308.54 430.225ZM212.045 425.344C188.919 354.517 313.591 342.682 301.645 417.306C293.879 461.116 227.046 467.721 212.045 425.344Z" fill="#262626"/>
</svg>
