<svg id="Icons" viewBox="0 0 60 60" xmlns="http://www.w3.org/2000/svg"><path d="m35.838 19.091c-.152 0-.303-.07-.4-.2-.151-.202-.128-.486.055-.661l.14-.134-.188.108c-.215.127-.491.073-.646-.127-.153-.198-.136-.479.039-.657l1.176-1.191-.732.423c-.217.127-.497.07-.649-.131-.151-.202-.13-.484.051-.66l.951-.923-.353.203c-.214.128-.493.072-.646-.128-.153-.199-.135-.48.043-.658l.926-.926-.358.206c-.206.122-.467.076-.627-.104-.156-.18-.165-.445-.019-.635l1.515-1.961-1.274.735c-.203.119-.461.079-.62-.097-.158-.174-.174-.435-.037-.626l1.313-1.845-1.425.822c-.208.122-.475.075-.633-.11-.155-.186-.156-.456 0-.643l.838-1.007-1.017.587c-.212.124-.485.073-.641-.121-.154-.193-.145-.471.024-.652l.442-.476-.642.37c-.199.117-.453.08-.613-.089-.158-.167-.182-.423-.056-.616l1.038-1.597-1.932 1.115c-.202.119-.46.078-.619-.096-.158-.174-.175-.434-.039-.625l.965-1.365-2.153 1.242c-.217.126-.494.071-.647-.129-.152-.199-.133-.481.045-.658l.302-.301-1.271.734c-.205.121-.469.076-.627-.104-.157-.18-.165-.446-.018-.635l1.099-1.415-4.239 2.447c-.24.137-.546.056-.683-.183-.139-.239-.057-.545.183-.683l6.45-3.725c.207-.12.471-.076.627.104.157.18.165.446.018.635l-1.099 1.416 2.39-1.38c.215-.128.494-.072.647.129.152.199.133.481-.045.658l-.303.301.798-.46c.202-.119.46-.078.619.096.158.174.175.434.039.625l-.964 1.365 1.764-1.019c.201-.117.454-.079.612.089.159.167.183.423.057.616l-1.038 1.597 1.717-.99c.212-.125.486-.074.641.121.154.193.145.471-.024.652l-.441.475.563-.325c.208-.122.475-.076.633.11.155.186.156.456 0 .643l-.838 1.007.986-.569c.202-.119.461-.079.62.097.158.174.174.435.037.626l-1.313 1.845 1.48-.854c.206-.12.469-.076.626.104s.166.445.02.635l-1.516 1.962 1.448-.836c.216-.126.493-.071.646.128s.135.48-.043.658l-.924.924.56-.322c.215-.128.496-.071.649.131.151.202.13.484-.051.66l-.95.923.442-.256c.216-.126.492-.072.646.127.153.198.137.479-.039.657l-1.179 1.194.574-.331c.216-.129.497-.07.65.133.151.202.128.486-.055.661l-.344.329c.172 0 .339.09.431.25.139.239.057.545-.183.683l-3.132 1.809c-.078.046-.164.067-.25.067z" fill="#1b3f6b"/><path d="m14.975 26.485c-.134 0-.267-.054-.364-.157-.159-.169-.181-.425-.053-.618l.848-1.282-2.125 1.227c-.214.126-.493.072-.646-.128-.152-.198-.135-.479.042-.657l1.312-1.32-.708.408c-.217.127-.496.07-.648-.131s-.131-.484.05-.66l1.082-1.053-.483.278c-.212.123-.482.073-.639-.117-.154-.191-.147-.467.017-.649l1.85-2.062-1.228.709c-.212.125-.487.073-.642-.121s-.143-.472.026-.652l1.659-1.779-1.044.603c-.213.125-.487.072-.642-.122s-.143-.473.027-.653l1.628-1.731-1.014.585c-.218.128-.501.069-.652-.136-.151-.204-.124-.49.062-.663l.906-.842-.315.182c-.217.127-.498.07-.65-.133-.151-.202-.128-.486.055-.661l2.042-1.952-1.359.784c-.226.133-.52.064-.666-.155s-.098-.514.112-.674l.755-.579c-.227.106-.497.03-.633-.186-.144-.227-.083-.525.137-.679l4.517-3.136-3.333 1.924c-.232.137-.53.062-.674-.167-.143-.229-.079-.528.144-.68l1.097-.742c-.156-.003-.309-.079-.403-.217-.147-.215-.105-.507.097-.671l2.817-2.29c-.127-.032-.24-.113-.311-.235-.139-.239-.057-.545.183-.683l4.374-2.525c.225-.133.515-.066.662.149s.105.507-.097.671l-2.124 1.727 5.596-3.23c.235-.135.531-.062.674.167s.079.528-.144.68l-.284.192 1.609-.929c.232-.136.528-.062.672.165s.083.525-.137.679l-7.736 5.371c.036.03.069.066.097.107.146.219.098.514-.112.674l-1.979 1.517c.077.034.147.087.201.159.151.202.128.486-.055.661l-2.043 1.953.546-.314c.218-.127.5-.07.652.136.151.204.124.49-.062.663l-.904.84.121-.069c.213-.125.487-.072.642.122s.143.473-.027.653l-1.629 1.732 1.006-.58c.213-.125.486-.073.642.121.154.194.143.472-.026.652l-1.657 1.777 1.047-.604c.211-.125.481-.073.639.117.154.191.147.467-.017.649l-1.851 2.062 1.234-.712c.216-.128.496-.071.648.131.152.201.131.484-.05.66l-1.083 1.054.488-.281c.216-.126.493-.071.646.128.152.198.135.479-.042.657l-1.312 1.321.712-.411c.2-.117.454-.08.614.09.159.169.181.425.053.618l-.847 1.281.185-.106c.238-.139.545-.058.683.183.139.239.057.545-.183.683l-2.022 1.168c-.078.046-.164.067-.25.067z" fill="#1b3f6b"/><path d="m15.656 59.47c-.169 0-.334-.086-.428-.242-.142-.233-.069-.536.161-.681l5.95-3.742-7.965 4.598c-.236.136-.536.061-.677-.172-.142-.231-.072-.533.155-.681l14.028-9.062-16.062 9.273c-.238.137-.54.058-.679-.176-.141-.234-.066-.538.166-.682l5.615-3.476-6.151 3.551c-.238.137-.541.058-.68-.177-.14-.235-.064-.54.169-.683l.194-.119-.333.192c-.235.138-.535.06-.678-.173-.141-.232-.07-.535.158-.681l16.294-10.407-16.505 9.528c-.238.137-.54.059-.68-.177-.14-.234-.065-.538.167-.682l6.019-3.707-5.617 3.242c-.238.138-.54.059-.679-.176-.141-.234-.066-.538.166-.682l8.007-4.954-7.494 4.326c-.235.138-.537.059-.679-.175-.141-.233-.067-.537.163-.682l12.585-7.888-12.069 6.968c-.238.137-.54.059-.68-.177s-.065-.539.168-.682l4.397-2.7-3.886 2.243c-.238.137-.538.058-.679-.175-.141-.234-.067-.537.164-.682l11.178-6.979-10.663 6.156c-.238.137-.538.058-.679-.176s-.067-.538.165-.682l8.751-5.433-8.237 4.755c-.235.137-.535.059-.677-.173s-.072-.533.156-.681l16.263-10.447-15.742 9.089c-.235.138-.536.06-.678-.174-.141-.233-.069-.536.16-.682l11.535-7.299-11.018 6.36c-.238.137-.538.058-.679-.176s-.067-.537.165-.682l3.918-2.433-3.404 1.965c-.235.135-.534.061-.675-.169-.143-.23-.076-.531.148-.681l13.021-8.634-12.494 7.213c-.235.137-.535.061-.676-.171-.143-.231-.074-.533.153-.681l7.745-5.04-7.223 4.17c-.235.136-.534.061-.677-.172-.142-.23-.072-.533.154-.681l4.656-3.019-4.134 2.387c-.229.134-.526.062-.671-.162-.145-.225-.087-.523.131-.678l8.377-5.959-7.837 4.524c-.235.135-.533.06-.674-.168-.143-.229-.079-.529.145-.68l2.445-1.644-1.916 1.105c-.232.137-.53.062-.674-.167-.143-.228-.08-.528.143-.679l1.092-.742-.561.323c-.232.137-.527.062-.673-.165-.143-.227-.082-.525.138-.679l.443-.307c-.207.065-.443-.004-.571-.193-.147-.216-.103-.51.102-.673l2.223-1.767-1.611.93c-.213.125-.486.073-.642-.121-.154-.194-.143-.472.026-.652l1.687-1.809c-.203.044-.42-.051-.529-.24-.139-.239-.057-.545.183-.683l2.683-1.548c.213-.124.486-.073.642.121.154.194.143.472-.026.652l-1.623 1.739 4.544-2.622c.225-.134.517-.065.663.151.147.216.103.51-.102.673l-2.222 1.766 4.487-2.59c.234-.135.528-.061.673.165.143.227.082.525-.138.679l-.34.234 1.869-1.078c.234-.135.531-.062.674.167.143.228.08.528-.143.679l-1.097.745 2.757-1.591c.234-.138.532-.061.674.168.143.229.079.529-.145.68l-2.44 1.641 4.311-2.488c.229-.135.524-.062.671.162.145.225.087.523-.131.678l-8.377 5.959 11.776-6.799c.235-.137.534-.061.677.172.142.23.072.533-.154.681l-4.652 3.016 6.7-3.868c.235-.137.534-.06.676.171.143.231.074.533-.153.681l-7.752 5.044 10.213-5.896c.233-.138.532-.061.675.169s.076.531-.148.681l-13.021 8.634 16.427-9.483c.237-.139.537-.06.679.176.141.234.067.537-.165.682l-3.911 2.429 5.344-3.085c.237-.136.538-.059.678.174.141.233.069.536-.16.682l-11.526 7.293 12.665-7.312c.235-.137.535-.06.677.173.142.231.072.533-.156.681l-16.269 10.451 17.026-9.83c.237-.139.537-.06.679.176.141.234.067.538-.165.682l-8.742 5.428 8.733-5.042c.236-.139.538-.059.679.175s.067.537-.164.682l-11.179 6.979 10.816-6.245c.236-.139.538-.06.68.177.14.235.065.539-.168.682l-4.397 2.7 3.886-2.243c.237-.137.539-.059.679.175.141.233.067.537-.163.682l-12.585 7.888 12.069-6.968c.236-.138.539-.059.679.176.141.234.066.538-.166.682l-8.007 4.954 7.494-4.326c.236-.138.538-.06.68.177.14.234.065.538-.167.682l-6.022 3.71 5.51-3.181c.237-.137.536-.059.678.173.141.232.07.535-.158.681l-16.295 10.408 15.775-9.107c.236-.138.54-.059.68.177s.064.54-.169.683l-.435.266c.221-.084.478 0 .603.212.141.234.066.538-.166.682l-5.594 3.463 5.081-2.934c.236-.138.536-.061.677.172.142.231.072.533-.155.681l-14.041 9.07 13.52-7.805c.237-.137.537-.06.678.175.142.233.069.536-.161.681l-5.943 3.738 5.427-3.133c.237-.137.536-.06.677.173.142.232.071.534-.157.681l-7.231 4.632 6.712-3.875c.236-.138.534-.061.677.172.142.231.072.533-.155.681l-6.311 4.086 5.789-3.342c.237-.137.537-.059.678.173s.07.535-.159.682l-1.295.824.776-.447c.234-.138.531-.061.675.168.143.229.077.53-.146.681l-5.226 3.496 4.697-2.712c.229-.136.523-.062.67.16.145.224.089.521-.126.677l-6.381 4.627 5.837-3.369c.229-.135.523-.062.67.16.145.224.089.521-.126.677l-3.496 2.536 2.952-1.704c.226-.134.519-.065.666.155.146.219.098.514-.111.674l-2.435 1.867 1.876-1.082c.228-.135.52-.063.666.155s.097.515-.112.675l-.551.421c.169-.017.34.056.448.201.151.205.124.491-.062.664l-1.194 1.104c.088.042.165.111.218.202.139.239.057.545-.183.683l-2.683 1.548c-.219.13-.502.069-.652-.136-.151-.205-.124-.491.062-.664l.475-.438-2.335 1.348c-.229.133-.52.062-.666-.155-.146-.219-.097-.515.112-.675l.271-.208-1.798 1.038c-.227.133-.519.065-.666-.155-.146-.219-.098-.514.111-.674l2.432-1.866-4.668 2.695c-.229.134-.525.062-.67-.16-.145-.224-.089-.521.126-.677l3.499-2.538-5.847 3.375c-.23.134-.525.062-.67-.16-.145-.224-.089-.521.126-.677l6.38-4.626-9.464 5.463c-.234.136-.532.06-.675-.168-.143-.229-.077-.53.146-.681l5.226-3.495-7.525 4.344c-.235.139-.536.06-.678-.173-.141-.232-.07-.535.159-.682l1.293-.824-2.907 1.679c-.235.136-.534.061-.677-.172-.142-.231-.072-.533.155-.681l6.306-4.083-8.549 4.936c-.235.139-.536.06-.677-.173-.142-.231-.071-.534.157-.681l7.237-4.635-9.508 5.488c-.079.046-.165.067-.25.067z" fill="#f4c811"/><path d="m24.8 49.214c-.147 0-.293-.065-.391-.188-.154-.193-.144-.471.024-.652l1.645-1.768-2.364 1.364c-.218.13-.502.069-.654-.138-.15-.207-.121-.494.068-.665l1.455-1.318-1.293.746c-.218.127-.501.069-.651-.135-.151-.204-.126-.489.06-.663l2.742-2.562-1.758 1.015c-.225.133-.514.065-.661-.148-.148-.215-.106-.507.095-.672l1.695-1.383-.745.43c-.222.129-.509.068-.658-.144-.149-.211-.113-.5.082-.668l1.926-1.654-2.024 1.169c-.217.125-.496.07-.648-.131-.152-.2-.131-.483.049-.659l2.832-2.768-3.206 1.851c-.222.129-.51.066-.659-.145-.148-.212-.111-.503.086-.67l1.224-1.034-.768.442c-.213.125-.486.073-.641-.12s-.145-.471.023-.652l1.229-1.329c-.16-.012-.312-.1-.398-.249-.139-.239-.057-.545.183-.683l2.376-1.372c.212-.125.486-.073.641.12s.145.471-.023.652l-1.035 1.119 2.753-1.589c.223-.13.51-.066.659.146.148.211.111.502-.086.669l-1.221 1.032 1.805-1.042c.215-.128.495-.071.648.131.152.2.131.483-.049.659l-2.832 2.769 3.229-1.864c.221-.131.509-.068.658.144.149.211.113.5-.082.668l-1.927 1.655 1.475-.852c.225-.132.514-.066.661.148.148.215.106.507-.095.672l-1.695 1.383.17-.098c.218-.128.501-.07.651.135.151.204.126.489-.06.663l-2.742 2.562 1.568-.905c.22-.129.503-.068.654.138.15.207.121.494-.068.665l-1.457 1.32 1.189-.687c.212-.125.485-.073.642.121.153.193.143.471-.025.652l-1.645 1.768 1.263-.729c.238-.139.545-.058.683.183.139.239.057.545-.183.683l-4.147 2.395c-.078.046-.164.067-.25.067z" fill="#e08d14"/><g fill="#262626"><path d="m44.736 28.002c-.453-9.786-20.1-4.169-27.011-5.567-3.292-21.159 15.191-21.729 16.552-7.863-1.527 6.151 6.345 6.309 5.448.381-1.388-22.438-32.057-17.585-27.449 7.582-4.292.517-5.562 4.917-5.011 8.681 1.222 6.815-3.322 25.373 3.678 28.016 38.104.063 33.973 7.752 33.793-31.229zm-29.691-19.875c6.198-13.097 25.37-5.219 23.23 8.253.462 2.634-2.206 3.035-2.55.412.962-18.003-23.303-16.189-19.449 5.646-.85.002-1.701 0-2.551.006.224-4.799-.758-9.803 1.321-14.317zm28.208 46.264c.267 7.501-23.146 2.839-29.023 4.055-4.12.423-6.174-3.258-5.494-7.009.893-7.804-1.969-20.336 1.446-26.838 8.178-2.628 17.812-.288 26.473-1.044 3.831-.701 7.152 1.835 6.608 5.841-.126 8.326.229 16.682-.011 24.996z"/><path d="m30.482 36.43c-2.874-7.161-13.633.361-7.318 5.24-4.38 10.714 10.042 10.248 5.684-.158 1.548-1.165 2.321-3.204 1.634-5.082zm-4.544 12.031c-3.966-.742-1.064-5.17-1.438-7.456-5.116-3.436 2.023-10.034 4.565-4.094.859 2.036-.755 3.337-1.73 4.702.399 2.218 2.313 6.699-1.397 6.847z"/><path d="m51.758 15.867c-1.926.907-4.556 1.329-6.143 2.496 0 0 .195.508.746.353 2.436-.687 8.281-3.465 5.397-2.849z"/><path d="m43.328 15.978c.988.487 6.77-6.114 3.205-4.266-.617 1.158-3.897 3.275-3.205 4.266z"/><path d="m51.452 21.824c-.842.198-7.418-.405-5.543 1.027.842-.198 7.418.405 5.543-1.027z"/></g></svg>