<svg width="1528" height="1204" viewBox="0 0 1528 1204" fill="none" xmlns="http://www.w3.org/2000/svg">
<path d="M67.4534 1265.45C62.9105 1265.45 58.5005 1263.54 56.0032 1260.1C52.2839 1254.98 54.3561 1248.33 60.5727 1245.24L419.276 1067.42L33.7669 1249.92C27.444 1252.93 19.3678 1251.21 15.675 1246.02C11.9557 1240.86 14.0279 1234.22 20.2976 1231.15L167.743 1158.65L20.7492 1228.23C14.3998 1231.23 6.35009 1229.49 2.65732 1224.33C-1.06201 1219.19 1.01019 1212.54 7.25336 1209.45L293.164 1068.36L20.0319 1197.67C13.7091 1200.65 5.68593 1198.93 1.94003 1193.77C-1.77931 1188.62 0.292893 1182 6.50949 1178.91L366.355 1000.87L20.0319 1164.82C13.7091 1167.8 5.63279 1166.08 1.94003 1160.92C-1.77931 1155.78 0.292892 1149.13 6.53606 1146.04L266.889 1017.67L20.0319 1134.52C13.7091 1137.52 5.65936 1135.78 1.96659 1130.64C-1.75274 1125.52 0.266326 1118.9 6.48293 1115.78L577.773 830.485L20.0054 1094.61C13.6825 1097.59 5.65936 1095.89 1.94003 1090.75C-1.77931 1085.66 0.213192 1079.03 6.40323 1075.9L749.659 700.569L20.0054 1045.99C13.6825 1048.97 5.63279 1047.25 1.94003 1042.11C-1.77931 1036.99 0.239759 1030.37 6.42979 1027.25L602.32 729.258L20.0054 1004.95C13.6825 1007.95 5.60623 1006.23 1.91346 1001.05C-1.80588 995.886 0.266326 989.242 6.53606 986.171L135.012 923.064L20.0054 977.501C13.6825 980.507 5.60623 978.764 1.91346 973.602C-1.80588 968.461 0.266326 961.817 6.53606 958.724L200.685 863.182L20.0054 948.703C13.6825 951.688 5.63279 949.967 1.94003 944.848C-1.77931 939.729 0.239759 933.085 6.42979 929.97L640.789 612.042L20.0054 905.943C13.6825 908.949 5.65936 907.206 1.91346 902.065C-1.77931 896.946 0.239758 890.302 6.45636 887.187L532.45 625.134L20.0054 867.735C13.6825 870.719 5.65936 869.02 1.94003 863.879C-1.77931 858.782 0.213192 852.16 6.40323 849.023L730.398 483.956L20.0054 820.247C13.6825 823.253 5.63279 821.489 1.94003 816.37C-1.77931 811.251 0.239758 804.607 6.45636 801.492L538.082 536.563L20.0054 781.843C13.6825 784.827 5.60623 783.106 1.91346 777.944C-1.80588 772.803 0.266326 766.159 6.50949 763.066L301.506 617.401L19.9788 750.671C13.6559 753.677 5.57966 751.935 1.88689 746.772C-1.83244 741.631 0.23976 734.987 6.48293 731.894L289.152 592.284L19.9788 719.717C13.6559 722.723 5.63279 720.959 1.88689 715.839C-1.83244 710.699 0.239758 704.077 6.45636 700.961L375.627 517.546L19.9522 685.909C13.6294 688.915 5.60623 687.173 1.86033 682.01C-1.85901 676.869 0.213192 670.247 6.42979 667.154L222.178 560.372L19.9522 656.11C13.6294 659.116 5.60623 657.395 1.91346 652.276C-1.83244 647.178 0.160059 640.556 6.29696 637.42L563.905 354.258L20.0054 611.824C13.6825 614.808 5.68593 613.088 1.96659 607.99C-1.77931 602.893 0.186625 596.271 6.35009 593.134L499.507 342.081L20.0054 569.085C13.6825 572.07 5.65936 570.349 1.91346 565.208C-1.77931 560.089 0.239758 553.445 6.45636 550.33L128.371 489.62L20.0054 540.898C13.6825 543.904 5.65936 542.139 1.91346 537.02C-1.80588 531.879 0.239758 525.257 6.45636 522.142L51.0352 499.967L20.0054 514.649C13.6825 517.633 5.68593 515.912 1.96659 510.837C-1.77931 505.739 0.186625 499.139 6.32353 495.98L356.685 316.595L20.0054 476.005C13.6825 478.989 5.65936 477.29 1.94003 472.149C-1.77931 467.052 0.213192 460.43 6.40323 457.293L140.512 389.634L20.0054 446.663C13.7622 449.691 5.76563 447.97 1.99316 442.894C-1.75274 437.841 0.133492 431.24 6.21726 428.038L343.083 252.138L20.0054 405.1C13.7622 408.106 5.76563 406.429 1.99316 401.31C-1.75274 396.234 0.160059 389.634 6.27039 386.454L207.221 282.591L19.9788 371.205C13.7356 374.212 5.73906 372.534 1.96659 367.415C-1.77931 362.361 0.106925 355.761 6.19069 352.581L189.713 256.908L19.9522 337.245C13.7091 340.251 5.73906 338.552 1.94003 333.477C-1.80587 328.423 0.0803593 321.823 6.13756 318.642L147.977 244.339L19.9522 304.941C13.7091 307.925 5.79219 306.269 1.99316 301.216C-1.77931 296.205 0.0272262 289.649 6.00473 286.403L175.633 195.305L19.9522 268.998C13.7091 271.982 5.79219 270.305 1.99316 265.295C-1.77931 260.285 0.000659499 253.706 6.00473 250.46L115.034 191.776L19.9522 236.78C13.7091 239.743 5.79219 238.109 2.01973 233.099C-1.77931 228.111 -0.025908 221.532 5.95159 218.265L82.809 176.441L19.9522 206.197C13.7091 209.159 5.84533 207.525 2.04629 202.537C-1.75274 197.57 -0.0524739 191.036 5.87189 187.746L62.7511 156.248L19.9788 176.506C13.9482 179.403 6.19069 177.922 2.28539 173.151C-1.59334 168.359 -0.318142 161.933 5.23429 158.448L122.871 84.3189L19.9788 133.005C14.0279 135.88 6.37666 134.442 2.44479 129.824C-1.48707 125.206 -0.450975 118.824 4.86236 115.208L77.4159 65.7378L19.9788 92.9234C14.1341 95.7552 6.50949 94.4046 2.52449 89.8083C-1.43394 85.2338 -0.530674 78.9385 4.64983 75.2571L27.6831 58.8978L19.9788 62.5356C14.6389 65.1278 7.78469 64.2565 3.56059 60.4662C-0.636941 56.7195 -1.11514 51.0558 2.44479 46.8734L21.8119 24.0662C16.7377 24.3276 12.0088 22.3671 9.40526 18.6422C5.71249 13.436 7.89096 6.77027 14.267 3.76417L58.2614 -17.0607C63.6013 -19.6311 70.4555 -18.7816 74.6796 -14.9913C78.8771 -11.2445 79.3553 -5.58088 75.7954 -1.39848L58.2614 19.2521L135.066 -17.1043C140.963 -19.9143 148.561 -18.5637 152.52 -13.9892C156.478 -9.41474 155.575 -3.11936 150.395 0.562023L127.388 16.9213L199.224 -17.1043C205.122 -19.9361 212.8 -18.5855 216.758 -13.9239C220.69 -9.28404 219.654 -2.92331 214.341 0.692724L141.76 50.1627L283.945 -16.9736C289.949 -19.8707 297.733 -18.3677 301.639 -13.6189C305.517 -8.82659 304.242 -2.40051 298.69 1.08482L181.026 75.2353L375.866 -16.9736C382.056 -19.9579 389.946 -18.3241 393.772 -13.314C397.571 -8.34736 395.871 -1.81236 389.946 1.47692L333.173 32.9103L438.563 -16.9736C444.753 -19.9579 452.723 -18.3241 456.496 -13.2922C460.295 -8.30379 458.541 -1.72523 452.564 1.54227L375.839 43.2791L503.12 -16.9736C509.363 -19.9579 517.28 -18.2806 521.079 -13.2704C524.852 -8.26023 523.072 -1.68166 517.068 1.56406L407.932 60.3137L571.211 -16.9736C577.454 -19.9579 585.371 -18.2806 589.17 -13.2486C592.942 -8.23844 591.136 -1.68166 585.158 1.56406L415.45 92.7055L647.085 -16.9736C653.381 -19.9579 661.325 -18.2588 665.097 -13.205C668.843 -8.15131 666.957 -1.55096 660.9 1.62941L519.113 75.8888L715.282 -16.9736C721.604 -19.9579 729.548 -18.2588 733.294 -13.1833C737.04 -8.10774 735.153 -1.52918 729.07 1.65119L545.467 97.3672L786.958 -16.9736C793.255 -19.9579 801.251 -18.2588 804.971 -13.1833C808.717 -8.10774 806.804 -1.50739 800.693 1.67297L599.823 105.492L858.502 -16.9736C864.799 -19.9579 872.769 -18.2588 876.515 -13.205C880.261 -8.15131 878.374 -1.55096 872.291 1.65119L535.452 177.552L946.332 -16.9736C952.628 -20.0014 960.651 -18.2806 964.397 -13.1179C968.117 -8.02061 966.124 -1.39848 959.934 1.73832L825.666 69.4845L1008.31 -16.9736C1014.58 -20.0014 1022.6 -18.2588 1026.35 -13.1615C1030.1 -8.06418 1028.13 -1.46383 1021.99 1.69476L671.792 180.993L1090 -16.9736C1096.27 -20.0014 1104.35 -18.237 1108.1 -13.0961C1111.82 -7.95526 1109.77 -1.33313 1103.55 1.78189L1058.34 24.2841L1145.45 -16.9736C1151.77 -20.0014 1159.8 -18.237 1163.54 -13.0961C1167.23 -7.97704 1165.21 -1.33313 1159 1.78189L1037.22 62.4267L1204.93 -16.9736C1211.2 -20.0014 1219.22 -18.2806 1222.97 -13.1397C1226.72 -8.04239 1224.75 -1.42026 1218.59 1.71654L725.377 252.791L1295.21 -16.9736C1301.48 -20.0014 1309.52 -18.2806 1313.24 -13.1397C1316.99 -8.04239 1315 -1.42026 1308.86 1.71654L751.545 284.704L1388.83 -16.9736C1395.12 -20.0014 1403.17 -18.2588 1406.92 -13.0743C1410.64 -7.93348 1408.57 -1.31134 1402.35 1.78189L1186.39 108.673L1451.79 -16.9736C1458.11 -20.0014 1466.14 -18.237 1469.88 -13.0961C1473.6 -7.95526 1471.53 -1.33313 1465.31 1.78189L1095.74 185.394L1515.04 -13.1397C1521.34 -16.1676 1529.44 -14.4249 1533.14 -9.24048C1536.86 -4.09961 1534.78 2.54431 1528.54 5.63754L1246.38 144.986L1540.02 5.98607C1546.34 2.95819 1554.39 4.70086 1558.11 9.88529C1561.83 15.0262 1559.76 21.6701 1553.51 24.7633L1258.2 170.559L1546.02 34.3044C1552.32 31.2765 1560.37 33.041 1564.09 38.1818C1567.81 43.3227 1565.79 49.9448 1559.57 53.0599L1027.94 317.989L1546.02 72.7302C1552.29 69.7241 1560.31 71.4232 1564.09 76.5859C1567.81 81.6832 1565.81 88.3053 1559.62 91.4421L836.027 456.313L1546.05 120.196C1552.34 117.168 1560.39 118.911 1564.14 124.074C1567.83 129.193 1565.81 135.837 1559.6 138.952L1033.05 401.288L1546.07 158.448C1552.34 155.42 1560.42 157.184 1564.14 162.303C1567.86 167.422 1565.84 174.066 1559.65 177.181L925.769 494.891L1546.1 201.23C1552.4 198.18 1560.5 199.945 1564.19 205.129C1567.91 210.27 1565.84 216.914 1559.57 220.007L1364.41 316.05L1546.1 230.049C1552.4 227.022 1560.5 228.764 1564.19 233.949C1567.91 239.111 1565.84 245.755 1559.57 248.827L1432.21 311.388L1546.1 257.475C1552.37 254.447 1560.45 256.189 1564.17 261.352C1567.89 266.471 1565.87 273.093 1559.68 276.208L963.308 574.422L1546.13 298.536C1552.4 295.53 1560.42 297.229 1564.19 302.392C1567.91 307.489 1565.92 314.111 1559.73 317.248L816.474 692.575L1546.13 347.178C1552.4 344.172 1560.47 345.893 1564.19 351.056C1567.91 356.175 1565.89 362.797 1559.68 365.912L988.945 650.947L1546.15 387.173C1552.45 384.123 1560.55 385.887 1564.25 391.072C1567.97 396.213 1565.89 402.857 1559.65 405.95L1299.32 534.319L1546.15 417.473C1552.45 414.445 1560.5 416.21 1564.25 421.372C1567.97 426.513 1565.89 433.135 1559.68 436.229L1199.83 614.264L1546.15 450.322C1552.45 447.273 1560.55 449.037 1564.25 454.222C1567.97 459.363 1565.89 466.007 1559.65 469.1L1273.05 610.539L1546.15 481.233C1552.45 478.183 1560.55 479.948 1564.25 485.132C1567.97 490.295 1565.89 496.939 1559.62 500.01L1412.02 572.592L1546.15 509.094C1552.45 506.066 1560.5 507.809 1564.25 512.993C1567.97 518.112 1565.89 524.756 1559.68 527.849L1200.81 705.754L1546.15 542.27C1552.42 539.242 1560.45 540.963 1564.22 546.104C1567.94 551.223 1565.95 557.823 1559.78 560.982L928.107 881.022L1546.18 588.429C1552.45 585.401 1560.47 587.122 1564.22 592.263C1567.97 597.338 1566 603.96 1559.86 607.119L950.078 918.446L1546.18 636.243C1552.45 633.215 1560.47 634.936 1564.22 640.077C1567.97 645.174 1566 651.775 1559.84 654.933L1067.42 905.638L1546.18 679.004C1552.48 675.976 1560.53 677.74 1564.27 682.903C1567.99 688.022 1565.92 694.666 1559.7 697.759L1545.65 704.73L1546.21 704.469C1552.5 701.441 1560.55 703.205 1564.3 708.346C1568.02 713.487 1565.95 720.131 1559.73 723.224L1547.38 729.367C1553.46 727.102 1560.74 728.909 1564.25 733.658C1567.99 738.756 1566.03 745.378 1559.89 748.514L1212.4 926.245L1546.21 768.228C1552.48 765.201 1560.53 766.921 1564.25 772.062C1567.99 777.16 1566 783.782 1559.86 786.918L1341.25 898.057L1546.23 801.034C1552.5 798.028 1560.53 799.727 1564.3 804.89C1568.02 809.987 1566.03 816.609 1559.84 819.746L1477.03 861.57L1546.23 828.808C1552.5 825.802 1560.55 827.523 1564.27 832.642C1568.02 837.739 1566.03 844.361 1559.86 847.498L1481.97 887.013L1546.23 856.603C1552.5 853.576 1560.53 855.296 1564.27 860.437C1568.02 865.535 1566.05 872.157 1559.89 875.293L1506.44 902.479L1546.23 883.658C1552.45 880.652 1560.34 882.308 1564.17 887.34C1567.97 892.328 1566.21 898.907 1560.23 902.174L1248.9 1071.69L1546.23 930.95C1552.48 927.966 1560.42 929.621 1564.19 934.675C1567.97 939.685 1566.16 946.264 1560.15 949.509L1381.31 1045.18L1546.26 967.088C1552.48 964.104 1560.37 965.738 1564.19 970.77C1567.99 975.758 1566.24 982.293 1560.31 985.583L1388.51 1079.75L1546.26 1005.06C1552.48 1002.12 1560.34 1003.73 1564.14 1008.65C1567.97 1013.62 1566.32 1020.11 1560.45 1023.44L1407.26 1110.12L1546.23 1044.33C1552.32 1041.41 1560.15 1042.96 1564.01 1047.8C1567.86 1052.63 1566.42 1059.12 1560.71 1062.54L1423.28 1145.06L1546.23 1086.85C1552.34 1083.91 1560.26 1085.5 1564.09 1090.45C1567.91 1095.37 1566.32 1101.86 1560.45 1105.22L1540.63 1116.54L1546.23 1113.91C1552.08 1111.12 1559.54 1112.41 1563.56 1116.87C1567.57 1121.34 1566.85 1127.54 1561.91 1131.31L1475.41 1197.08L1546.23 1163.57C1551.95 1160.85 1559.3 1162.01 1563.4 1166.34C1567.46 1170.63 1567.04 1176.75 1562.36 1180.63L1532.63 1205.44L1546.26 1198.99C1552.61 1195.97 1560.74 1197.73 1564.41 1202.98C1568.1 1208.19 1565.92 1214.85 1559.54 1217.86L1461.33 1264.37C1455.61 1267.13 1448.28 1265.96 1444.16 1261.6C1440.1 1257.31 1440.52 1251.19 1445.2 1247.31L1474.96 1222.48L1386.46 1264.37C1380.67 1267.18 1373.18 1265.89 1369.14 1261.4C1365.13 1256.94 1365.85 1250.73 1370.79 1246.96L1457.24 1181.22L1281.63 1264.34C1275.52 1267.28 1267.6 1265.69 1263.78 1260.75C1259.95 1255.83 1261.55 1249.34 1267.42 1245.98L1287.32 1234.63L1224.51 1264.34C1218.45 1267.28 1210.62 1265.74 1206.74 1260.88C1202.89 1256.02 1204.32 1249.55 1210.03 1246.13L1347.46 1163.64L1134.69 1264.34C1128.58 1267.31 1120.64 1265.69 1116.81 1260.75C1112.98 1255.78 1114.63 1249.29 1120.5 1245.96L1273.74 1159.26L1051.75 1264.34C1045.51 1267.31 1037.62 1265.67 1033.82 1260.66C1030.02 1255.67 1031.77 1249.14 1037.69 1245.85L1209.53 1151.68L971.517 1264.34C965.274 1267.33 957.33 1265.65 953.558 1260.62C949.785 1255.59 951.592 1249.03 957.596 1245.78L1136.44 1150.13L895.191 1264.32C888.948 1267.28 881.058 1265.65 877.259 1260.64C873.46 1255.63 875.213 1249.07 881.19 1245.81L1192.58 1076.24L795.274 1264.32C788.951 1267.31 780.981 1265.59 777.235 1260.49C773.489 1255.39 775.455 1248.77 781.619 1245.63L834.619 1218.69L738.182 1264.32C731.859 1267.31 723.836 1265.59 720.143 1260.49C716.397 1255.39 718.39 1248.77 724.553 1245.63L802.447 1206.14L679.496 1264.32C673.173 1267.31 665.15 1265.61 661.431 1260.47C657.712 1255.37 659.704 1248.75 665.894 1245.61L749.287 1203.48L620.811 1264.3C614.488 1267.28 606.465 1265.56 602.772 1260.47C599.026 1255.37 601.018 1248.75 607.155 1245.61L825.48 1134.62L551.578 1264.28C545.282 1267.26 537.258 1265.54 533.539 1260.47C529.793 1255.37 531.759 1248.75 537.896 1245.61L885.468 1067.84L470.496 1264.28C464.173 1267.28 456.124 1265.54 452.404 1260.4C448.685 1255.26 450.757 1248.62 456.974 1245.52L467.069 1240.51L416.858 1264.28C410.535 1267.28 402.486 1265.54 398.766 1260.38C395.047 1255.26 397.119 1248.62 403.336 1245.52L416.699 1238.9L363.087 1264.26C356.764 1267.24 348.794 1265.52 345.049 1260.42C341.303 1255.33 343.269 1248.73 349.432 1245.57L841.898 994.819L272.787 1264.23C266.464 1267.22 258.494 1265.5 254.748 1260.4C251.003 1255.3 252.968 1248.7 259.105 1245.54L868.731 934.305L171.834 1264.23C165.511 1267.22 157.488 1265.5 153.769 1260.4C150.049 1255.28 152.042 1248.68 158.205 1245.52L790.173 925.33L74.0951 1263.97C71.9963 1264.98 69.7116 1265.45 67.4534 1265.45Z" fill="#EAE5E2" fill-opacity="0.12"/>
</svg>
