<svg width="1542" height="1204" viewBox="0 0 1542 1204" fill="none" xmlns="http://www.w3.org/2000/svg">
<g clip-path="url(#clip0_8_2)">
<rect width="1542" height="1204" fill="white"/>
<path d="M1738.45 167.093C1743.06 175.335 1743.07 185.953 1737.49 195.262C1729 209.326 1710.96 215.24 1696.51 208.789L1542.07 139.293L1778.34 267.446C1792.04 274.712 1796.37 291.779 1788.02 305.832C1779.67 319.884 1761.77 325.917 1747.28 319.675L1297.94 123.523L1814.53 403.826C1828.5 411.329 1832.69 428.536 1823.96 442.672C1815.23 456.808 1796.91 462.485 1782.59 455.634L1647.1 390.795L1824.65 487.193C1838.57 494.727 1842.73 511.755 1834.22 525.769C1825.76 539.883 1807.63 545.778 1793.17 539.197L1236.15 285.927L1823.86 604.813C1837.89 612.286 1842.05 629.573 1833.21 643.77C1824.45 657.856 1805.97 663.495 1791.64 656.514L1704.53 613.838L1815.54 674.109C1829.46 681.643 1833.71 698.82 1824.98 712.956C1816.35 727.031 1797.93 732.769 1783.6 725.918L1391.23 538.193L1798.07 758.953C1812.05 766.456 1816.24 783.663 1807.51 797.799C1798.88 811.875 1780.51 817.582 1766.16 810.81L1309.58 592.766L1770.92 843.081C1784.87 850.664 1789.06 867.742 1780.47 881.737C1771.92 895.832 1753.69 901.658 1739.31 895.096L1033.45 568.55L1726.21 944.456C1740.27 951.978 1744.27 969.227 1735.59 983.333C1726.91 997.439 1708.54 1003.15 1694.22 996.294L1239.07 777.38L1683.94 1018.79C1697.97 1026.26 1702.17 1043.6 1693.3 1057.74C1684.54 1071.83 1666.06 1077.47 1651.76 1070.54L1385.95 940.384L1641.94 1079.28C1655.89 1086.74 1660.03 1103.97 1651.43 1118.1C1642.81 1132.17 1624.46 1137.93 1610.11 1131.16L1048.08 864.722L1580.38 1153.58C1594.3 1161.11 1598.55 1178.16 1589.9 1192.32C1581.38 1206.33 1563.09 1212.19 1548.74 1205.55L889.133 899.157L1500.89 1231.06C1514.87 1238.56 1518.98 1255.75 1510.35 1269.82C1501.73 1283.9 1483.47 1289.68 1469.14 1282.95L929.007 1029.24L1419.29 1295.31C1433.27 1302.81 1437.46 1320.02 1428.73 1334.16C1420.1 1348.23 1401.73 1353.94 1387.38 1347.17L1029.43 1176.31L1341.18 1345.49C1355.26 1352.93 1359.32 1370.28 1350.53 1384.45C1341.83 1398.5 1323.35 1404.14 1309.05 1397.21L1233.8 1360.55L1273.14 1381.89C1287.06 1389.43 1291.31 1406.48 1282.69 1420.55C1274.14 1434.65 1255.91 1440.47 1241.53 1433.91L839.776 1248.04L1167.29 1425.75C1181.29 1433.3 1185.35 1450.39 1176.81 1464.49C1168.24 1478.53 1149.92 1484.34 1135.57 1477.7L928.126 1380.55L1065.94 1455.3C1079.61 1462.51 1083.91 1479.27 1075.83 1493.3C1067.81 1507.3 1050.18 1513.7 1035.7 1507.85L555.312 1315.43L862.015 1481.83C875.413 1488.94 879.871 1505.21 872.338 1519.07C864.86 1532.9 847.948 1539.81 833.366 1534.93L569.779 1446.55C575.435 1455.9 575.916 1467.36 569.308 1477.5C560.165 1491.67 541.244 1496.91 527.075 1489.19L250.384 1339.05C236.958 1331.89 232.528 1315.66 240.061 1301.81C247.539 1287.98 264.451 1281.07 279.032 1285.95L526.12 1368.83L66.3061 1118.44C52.715 1111.11 48.3899 1094.43 56.4134 1080.43C64.4369 1066.43 82.0638 1060.04 96.5441 1065.89L576.875 1258.34L-6.27043 941.989C-20.1913 934.455 -24.3288 917.347 -15.7869 903.253C-7.21716 889.208 11.0981 883.401 25.4485 890.043L233.225 987.397L-26.7997 846.258C-40.8016 838.835 -44.9669 821.677 -36.3428 807.602C-27.8009 793.507 -9.56774 787.681 4.80936 794.243L406.402 980.072L-35.0622 740.541C-49.093 732.939 -53.2316 715.701 -44.4166 701.584C-35.7103 687.528 -17.2296 681.89 -2.93133 688.821L72.8711 725.827L-32.8139 668.443C-46.7614 660.99 -50.9822 643.733 -42.2493 629.597C-33.6252 615.521 -15.2544 609.814 -0.902798 616.586L357.355 787.601L-21.836 581.82C-35.7846 574.237 -39.9499 557.079 -31.298 543.054C-22.7283 529.009 -4.41302 523.202 9.9108 529.924L549.389 783.355L0.866992 485.775C-13.1072 478.402 -17.2724 461.244 -8.64943 447.039C-0.134126 433.024 18.1534 427.168 32.5039 433.81L692.415 740.356L37.3025 384.921C23.3273 377.418 19.162 360.26 27.8127 346.105C36.4368 332.03 54.7798 326.273 69.1314 333.044L631.131 599.433L78.7103 299.731C64.7073 292.178 60.5409 274.891 69.3559 260.774C78.171 246.657 96.5972 241.049 110.896 247.981L376.263 377.987L116.952 237.231C103.031 229.697 98.8381 212.49 107.571 198.354C116.195 184.278 134.62 178.541 148.945 185.392L604.829 404.61L167.757 167.447C153.755 160.024 149.644 142.836 158.214 128.791C166.756 114.696 184.989 108.87 199.366 115.432L904.76 441.782L243.579 83.0269C229.576 75.4741 225.383 58.2667 234.144 44.1803C242.768 30.1051 261.139 24.3978 275.49 31.1692L732.87 249.616L311.559 20.9779C297.584 13.4748 293.391 -3.73258 302.124 -17.8686C310.748 -31.9438 329.173 -37.6815 343.498 -30.8301L735.156 156.512L384.768 -33.6319C370.792 -41.2647 366.653 -58.5027 375.414 -72.5891C384.175 -86.6754 402.655 -92.3136 416.982 -85.3325L503.763 -42.8639L447.42 -73.4113C433.446 -80.7847 429.335 -97.973 437.85 -111.987C446.31 -126.101 464.433 -131.996 478.892 -125.415L1036.11 127.943L560.238 -130.22C546.235 -137.773 542.042 -154.98 550.802 -169.067C559.481 -183.172 577.851 -188.88 592.176 -182.028L727.66 -117.189L644.545 -162.293C630.791 -169.529 626.517 -186.626 634.868 -200.679C643.219 -214.732 661.122 -220.764 675.606 -214.523L1124.59 -18.4966L793.124 -198.426C779.313 -205.89 775.013 -222.907 783.5 -236.971C791.988 -251.035 810.029 -256.949 824.487 -250.498L979.581 -180.719L923.622 -211.09C909.783 -218.604 905.538 -235.522 913.971 -249.556C922.377 -263.639 940.308 -269.622 954.792 -263.251L1052.79 -219.881C1050.64 -227.417 1051.75 -235.919 1056.68 -243.436C1065.83 -257.605 1084.75 -262.838 1098.92 -255.117L1653.4 45.7148C1667.32 53.1186 1671.45 70.0971 1663.05 84.1804C1654.7 98.2332 1636.71 104.246 1622.22 97.8754L1612.73 93.6665L1727.84 156.148C1732.53 158.672 1736.06 162.303 1738.42 166.524L1738.45 167.093Z" fill="#B9C8D6" fill-opacity="0.18"/>
</g>
<defs>
<clipPath id="clip0_8_2">
<rect width="1542" height="1204" fill="white"/>
</clipPath>
</defs>
</svg>
